<svg width="1158" height="195" viewBox="0 0 1158 195" fill="none" xmlns="http://www.w3.org/2000/svg">
<path fill-rule="evenodd" clip-rule="evenodd" d="M967.698 37.9664H579H29C12.9837 37.9664 0 50.9501 0 66.9663V147.144C0 173.102 21.0426 194.144 47 194.144H1111C1136.96 194.144 1158 173.102 1158 147.144L1158 45.5064L1158 37.9664L1158 7.61121C1158 2.54456 1148.81 -0.898785 1144.66 2.00737C1135.87 8.15867 1123.68 13.9309 1108.77 18.9944C1093.86 24.0579 1076.53 28.3136 1057.77 31.5184C1039 34.7233 1019.18 36.8146 999.416 37.6729C997.502 37.756 995.593 37.8274 993.688 37.8871C993.612 37.8895 993.537 37.9028 993.465 37.9266C993.385 37.9529 993.301 37.9664 993.217 37.9664H990.898C983.042 38.166 975.285 38.1655 967.698 37.9664Z" fill="#C5D751"/>
</svg>
