<svg width="468" height="91" viewBox="0 0 468 91" fill="none" xmlns="http://www.w3.org/2000/svg">
<g filter="url(#filter0_d_224_252)">
<g filter="url(#filter1_d_224_252)">
<path d="M8.59 28.154C7.128 28.154 6.11033 27.8673 5.537 27.294C4.99233 26.7207 4.72 25.6313 4.72 24.026C4.72 22.3633 5.03533 21.3027 5.666 20.844C6.354 20.328 7.429 20.07 8.891 20.07C10.3817 20.07 11.3993 20.3567 11.944 20.93C12.5173 21.5033 12.804 22.5783 12.804 24.155C12.804 25.8463 12.4887 26.9213 11.858 27.38C11.17 27.896 10.0807 28.154 8.59 28.154ZM6.569 31.68C7.14233 31.5367 7.88767 31.465 8.805 31.465C9.72233 31.465 10.4533 31.5367 10.998 31.68C11.5427 31.8233 11.9153 32.0813 12.116 32.454C12.3453 32.8267 12.4743 33.1563 12.503 33.443C12.5603 33.7297 12.589 34.174 12.589 34.776V48.407C12.589 49.009 12.5603 49.4533 12.503 49.74C12.4743 50.0553 12.3453 50.3993 12.116 50.772C11.8867 51.1447 11.4853 51.4027 10.912 51.546C10.3673 51.718 9.63633 51.804 8.719 51.804C7.80167 51.804 7.07067 51.718 6.526 51.546C5.98133 51.4027 5.59433 51.1303 5.365 50.729C5.16433 50.3563 5.03533 50.0123 4.978 49.697C4.94933 49.4103 4.935 48.966 4.935 48.364V34.733C4.935 34.131 4.94933 33.6867 4.978 33.4C5.03533 33.1133 5.17867 32.798 5.408 32.454C5.63733 32.0813 6.02433 31.8233 6.569 31.68ZM35.7049 11.642C35.9342 11.212 36.3212 10.911 36.8659 10.739C37.4105 10.567 38.0985 10.481 38.9299 10.481C39.7612 10.481 40.4205 10.5527 40.9079 10.696C41.3952 10.8393 41.7679 11.0113 42.0259 11.212C42.2839 11.4127 42.4845 11.6993 42.6279 12.072C42.7712 12.5593 42.8429 13.3047 42.8429 14.308V38.173C42.8429 38.8323 42.8142 39.334 42.7569 39.678C42.7282 39.9933 42.5992 40.366 42.3699 40.796C41.9685 41.57 40.8505 41.957 39.0159 41.957C37.0092 41.957 35.8339 41.4267 35.4899 40.366C35.3179 39.8787 35.2319 39.1333 35.2319 38.13V29.401H23.8369V38.173C23.8369 38.8323 23.8082 39.334 23.7509 39.678C23.7222 39.9933 23.5932 40.366 23.3639 40.796C22.9625 41.57 21.8445 41.957 20.0099 41.957C18.0032 41.957 16.8279 41.4267 16.4839 40.366C16.3119 39.8787 16.2259 39.1333 16.2259 38.13V14.265C16.2259 13.6057 16.2402 13.1183 16.2689 12.803C16.3262 12.459 16.4695 12.072 16.6989 11.642C17.1002 10.868 18.2182 10.481 20.0529 10.481C22.0595 10.481 23.2492 11.0113 23.6219 12.072C23.7652 12.5593 23.8369 13.3047 23.8369 14.308V23.08H35.2319V14.265C35.2319 13.6057 35.2462 13.1183 35.2749 12.803C35.3322 12.459 35.4755 12.072 35.7049 11.642ZM45.6473 30.691C45.6473 27.251 46.8513 24.413 49.2593 22.177C51.6673 19.941 54.4193 18.823 57.5153 18.823C60.6113 18.823 63.3489 19.941 65.7283 22.177C68.1076 24.3843 69.2973 27.208 69.2973 30.648C69.2973 33.0273 68.6809 35.1487 67.4483 37.012C66.2156 38.8467 64.7106 40.2083 62.9333 41.097C61.1846 41.957 59.3643 42.387 57.4723 42.387C55.5803 42.387 53.7456 41.9283 51.9683 41.011C50.1909 40.065 48.6859 38.689 47.4533 36.883C46.2493 35.0483 45.6473 32.9843 45.6473 30.691ZM54.6343 33.787C55.5516 34.475 56.4833 34.819 57.4293 34.819C58.3753 34.819 59.3213 34.4607 60.2673 33.744C61.2133 33.0273 61.6863 31.9667 61.6863 30.562C61.6863 29.1573 61.2419 28.111 60.3533 27.423C59.4646 26.735 58.5043 26.391 57.4723 26.391C56.4403 26.391 55.4799 26.7493 54.5913 27.466C53.7026 28.1827 53.2583 29.2433 53.2583 30.648C53.2583 32.024 53.7169 33.0703 54.6343 33.787ZM72.0755 12.459C72.0755 11.7997 72.0898 11.3123 72.1185 10.997C72.1758 10.653 72.3048 10.266 72.5055 9.836C72.9068 9.062 74.0248 8.675 75.8595 8.675C77.6081 8.675 78.6975 9.062 79.1275 9.836C79.3568 10.266 79.4858 10.653 79.5145 10.997C79.5718 11.341 79.6005 11.8427 79.6005 12.502V32.411C79.6005 33.443 79.6865 34.1023 79.8585 34.389C80.0305 34.647 80.4031 34.776 80.9765 34.776C81.5785 34.776 81.9798 34.8047 82.1805 34.862C82.3811 34.8907 82.6248 35.0053 82.9115 35.206C83.4848 35.5787 83.7715 36.5963 83.7715 38.259C83.7715 40.065 83.4848 41.1687 82.9115 41.57C82.1661 42.086 80.3888 42.172 77.5795 41.828C75.3721 41.5413 73.9388 40.8103 73.2795 39.635C72.4768 38.2303 72.0755 35.9943 72.0755 32.927V12.459ZM100.849 21.747C101.021 20.1417 102.153 19.339 104.246 19.339C105.364 19.339 106.195 19.425 106.74 19.597C107.285 19.769 107.657 20.07 107.858 20.5C108.087 20.93 108.216 21.317 108.245 21.661C108.302 21.9763 108.331 22.4637 108.331 23.123V38.173C108.331 38.8323 108.302 39.334 108.245 39.678C108.216 39.9933 108.102 40.366 107.901 40.796C107.5 41.5413 106.511 41.914 104.934 41.914C103.386 41.914 102.34 41.7277 101.795 41.355C101.279 40.9537 100.978 40.3803 100.892 39.635C99.8312 41.1543 98.0539 41.914 95.5599 41.914C93.0945 41.914 90.8012 40.7817 88.6799 38.517C86.5585 36.2523 85.4979 33.6293 85.4979 30.648C85.4979 27.638 86.5585 25.015 88.6799 22.779C90.8299 20.5143 93.1805 19.382 95.7319 19.382C96.7065 19.382 97.5952 19.554 98.3979 19.898C99.2005 20.242 99.7595 20.5717 100.075 20.887C100.39 21.1737 100.648 21.4603 100.849 21.747ZM93.0229 30.691C93.0229 31.637 93.3955 32.497 94.1409 33.271C94.8862 34.0163 95.7892 34.389 96.8499 34.389C97.9105 34.389 98.7849 34.002 99.4729 33.228C100.19 32.454 100.548 31.6083 100.548 30.691C100.548 29.745 100.204 28.8707 99.5159 28.068C98.8565 27.2653 97.9535 26.864 96.8069 26.864C95.6889 26.864 94.7715 27.2653 94.0549 28.068C93.3669 28.8707 93.0229 29.745 93.0229 30.691ZM112.188 35.464C112.475 34.8907 112.905 34.5037 113.478 34.303C114.08 34.1023 114.997 34.002 116.23 34.002C117.491 34.002 118.394 34.2743 118.939 34.819C119.512 35.3637 119.799 36.2237 119.799 37.399V38.087C119.799 38.775 119.77 39.291 119.713 39.635C119.684 39.9503 119.555 40.3373 119.326 40.796C118.867 41.6273 117.764 42.043 116.015 42.043C114.295 42.043 113.148 41.7707 112.575 41.226C112.03 40.6527 111.758 39.5633 111.758 37.958C111.758 36.84 111.901 36.0087 112.188 35.464ZM117.95 30.433C117.405 30.5763 116.674 30.648 115.757 30.648C114.84 30.648 114.109 30.5763 113.564 30.433C113.019 30.2897 112.632 30.0317 112.403 29.659C112.202 29.2863 112.073 28.9567 112.016 28.67C111.987 28.3833 111.973 27.939 111.973 27.337V13.706C111.973 13.104 111.987 12.6597 112.016 12.373C112.073 12.0577 112.217 11.7137 112.446 11.341C112.675 10.9683 113.062 10.7103 113.607 10.567C114.152 10.395 114.883 10.309 115.8 10.309C116.717 10.309 117.448 10.395 117.993 10.567C118.538 10.7103 118.91 10.9827 119.111 11.384C119.34 11.7567 119.469 12.1007 119.498 12.416C119.555 12.7027 119.584 13.147 119.584 13.749V27.38C119.584 27.982 119.555 28.4263 119.498 28.713C119.469 28.9997 119.34 29.3293 119.111 29.702C118.882 30.046 118.495 30.2897 117.95 30.433ZM134.571 37.571C133.826 36.6537 133.453 35.8367 133.453 35.12C133.453 34.3747 134.069 33.4 135.302 32.196C136.019 31.508 136.778 31.164 137.581 31.164C138.384 31.164 139.502 31.8807 140.935 33.314C141.336 33.8013 141.91 34.2743 142.655 34.733C143.4 35.163 144.088 35.378 144.719 35.378C147.385 35.378 148.718 34.2887 148.718 32.11C148.718 31.4507 148.345 30.906 147.6 30.476C146.883 30.0173 145.98 29.6877 144.891 29.487C143.802 29.2863 142.626 28.971 141.365 28.541C140.104 28.0823 138.928 27.552 137.839 26.95C136.75 26.348 135.832 25.402 135.087 24.112C134.37 22.7933 134.012 21.2167 134.012 19.382C134.012 16.8593 134.944 14.6663 136.807 12.803C138.699 10.911 141.265 9.965 144.504 9.965C146.224 9.965 147.786 10.1943 149.191 10.653C150.624 11.083 151.613 11.5273 152.158 11.986L153.233 12.803C154.122 13.6343 154.566 14.3367 154.566 14.91C154.566 15.4833 154.222 16.2717 153.534 17.275C152.559 18.7083 151.556 19.425 150.524 19.425C149.922 19.425 149.177 19.1383 148.288 18.565C148.202 18.5077 148.03 18.3643 147.772 18.135C147.543 17.9057 147.328 17.7193 147.127 17.576C146.525 17.2033 145.751 17.017 144.805 17.017C143.888 17.017 143.114 17.2463 142.483 17.705C141.881 18.135 141.58 18.7513 141.58 19.554C141.58 20.328 141.938 20.9587 142.655 21.446C143.4 21.9333 144.318 22.263 145.407 22.435C146.496 22.607 147.686 22.8793 148.976 23.252C150.266 23.596 151.456 24.026 152.545 24.542C153.634 25.058 154.537 25.961 155.254 27.251C155.999 28.5123 156.372 30.0747 156.372 31.938C156.372 33.8013 155.999 35.4497 155.254 36.883C154.509 38.2877 153.534 39.377 152.33 40.151C150.008 41.6703 147.528 42.43 144.891 42.43C143.544 42.43 142.268 42.2723 141.064 41.957C139.86 41.613 138.885 41.1973 138.14 40.71C136.621 39.7927 135.56 38.904 134.958 38.044L134.571 37.571ZM158.522 30.691C158.522 27.251 159.726 24.413 162.134 22.177C164.542 19.941 167.294 18.823 170.39 18.823C173.486 18.823 176.224 19.941 178.603 22.177C180.983 24.3843 182.172 27.208 182.172 30.648C182.172 33.0273 181.556 35.1487 180.323 37.012C179.091 38.8467 177.586 40.2083 175.808 41.097C174.06 41.957 172.239 42.387 170.347 42.387C168.455 42.387 166.621 41.9283 164.843 41.011C163.066 40.065 161.561 38.689 160.328 36.883C159.124 35.0483 158.522 32.9843 158.522 30.691ZM167.509 33.787C168.427 34.475 169.358 34.819 170.304 34.819C171.25 34.819 172.196 34.4607 173.142 33.744C174.088 33.0273 174.561 31.9667 174.561 30.562C174.561 29.1573 174.117 28.111 173.228 27.423C172.34 26.735 171.379 26.391 170.347 26.391C169.315 26.391 168.355 26.7493 167.466 27.466C166.578 28.1827 166.133 29.2433 166.133 30.648C166.133 32.024 166.592 33.0703 167.509 33.787ZM204.719 19.597C206.41 20.3423 207.256 21.2453 207.256 22.306C207.256 22.822 207.141 23.3093 206.912 23.768C206.682 24.2267 206.568 24.4703 206.568 24.499L195.302 49.697C195.072 50.2417 194.872 50.6573 194.7 50.944C194.556 51.2307 194.313 51.503 193.969 51.761C193.625 52.019 193.195 52.148 192.679 52.148C192.163 52.148 191.403 51.933 190.4 51.503C188.708 50.7577 187.863 49.869 187.863 48.837C187.863 48.149 189.239 44.8667 191.991 38.99L183.434 24.585C182.86 23.639 182.574 22.9367 182.574 22.478C182.574 21.5607 183.348 20.6433 184.896 19.726C185.87 19.1527 186.63 18.866 187.175 18.866C187.719 18.866 188.164 18.9807 188.508 19.21C188.852 19.4393 189.095 19.683 189.239 19.941C189.411 20.1703 190.199 21.5033 191.604 23.94C193.037 26.348 194.399 28.5983 195.689 30.691C195.832 30.2323 196.606 28.4693 198.011 25.402C199.415 22.306 200.161 20.6577 200.247 20.457C200.361 20.2563 200.533 20.0127 200.763 19.726C201.135 19.2387 201.651 18.995 202.311 18.995C202.999 18.995 203.801 19.1957 204.719 19.597ZM242.922 25.101C244.613 27.1077 245.459 29.358 245.459 31.852C245.402 34.7187 244.413 37.1267 242.492 39.076C240.6 40.9967 238.292 41.957 235.569 41.957H224.26C222.253 41.957 221.078 41.4123 220.734 40.323C220.562 39.8357 220.476 39.0903 220.476 38.087V14.222C220.476 13.534 220.49 13.0323 220.519 12.717C220.576 12.4017 220.72 12.029 220.949 11.599C221.35 10.825 222.468 10.438 224.303 10.438H235.139C237.776 10.438 239.984 11.3553 241.761 13.19C243.624 15.0533 244.556 17.2893 244.556 19.898C244.556 21.79 244.011 23.5243 242.922 25.101ZM237.848 31.422C237.848 30.734 237.762 30.1893 237.59 29.788C237.447 29.3867 237.189 29.1 236.816 28.928C236.243 28.6987 235.44 28.584 234.408 28.584C233.376 28.584 232.602 28.3833 232.086 27.982C231.57 27.5807 231.312 26.7637 231.312 25.531C231.312 24.2697 231.57 23.4383 232.086 23.037C232.631 22.6357 233.519 22.435 234.752 22.435C235.899 22.435 236.587 22.134 236.816 21.532C236.902 21.2167 236.945 20.7007 236.945 19.984C236.945 19.2673 236.701 18.7657 236.214 18.479C235.755 18.1923 235.053 18.049 234.107 18.049H228.087V34.346H235.139C236.945 34.346 237.848 33.3713 237.848 31.422ZM248.275 23.123C248.275 22.4637 248.289 21.9763 248.318 21.661C248.375 21.317 248.504 20.93 248.705 20.5C249.106 19.7547 250.224 19.382 252.059 19.382C253.435 19.382 254.409 19.6257 254.983 20.113C255.47 20.5143 255.728 21.1307 255.757 21.962C255.785 22.2487 255.8 22.6643 255.8 23.209V38.259C255.8 38.9183 255.771 39.42 255.714 39.764C255.685 40.0793 255.556 40.452 255.327 40.882C254.954 41.6273 253.85 42 252.016 42C250.21 42 249.106 41.613 248.705 40.839C248.504 40.409 248.375 40.0363 248.318 39.721C248.289 39.4057 248.275 38.904 248.275 38.216V23.123ZM255.327 15.168C255.126 15.5693 254.753 15.856 254.209 16.028C253.664 16.2 252.933 16.286 252.016 16.286C251.127 16.286 250.41 16.2 249.866 16.028C249.321 15.856 248.934 15.555 248.705 15.125C248.504 14.695 248.375 14.3223 248.318 14.007C248.289 13.663 248.275 13.1613 248.275 12.502C248.275 11.8427 248.289 11.3553 248.318 11.04C248.375 10.696 248.504 10.3233 248.705 9.922C249.106 9.148 250.224 8.761 252.059 8.761C253.865 8.761 254.954 9.148 255.327 9.922C255.556 10.352 255.685 10.739 255.714 11.083C255.771 11.3983 255.8 11.8857 255.8 12.545C255.8 13.2043 255.771 13.706 255.714 14.05C255.685 14.3653 255.556 14.738 255.327 15.168ZM258.59 30.691C258.59 27.251 259.794 24.413 262.202 22.177C264.61 19.941 267.362 18.823 270.458 18.823C273.554 18.823 276.291 19.941 278.671 22.177C281.05 24.3843 282.24 27.208 282.24 30.648C282.24 33.0273 281.623 35.1487 280.391 37.012C279.158 38.8467 277.653 40.2083 275.876 41.097C274.127 41.957 272.307 42.387 270.415 42.387C268.523 42.387 266.688 41.9283 264.911 41.011C263.133 40.065 261.628 38.689 260.396 36.883C259.192 35.0483 258.59 32.9843 258.59 30.691ZM267.577 33.787C268.494 34.475 269.426 34.819 270.372 34.819C271.318 34.819 272.264 34.4607 273.21 33.744C274.156 33.0273 274.629 31.9667 274.629 30.562C274.629 29.1573 274.184 28.111 273.296 27.423C272.407 26.735 271.447 26.391 270.415 26.391C269.383 26.391 268.422 26.7493 267.534 27.466C266.645 28.1827 266.201 29.2433 266.201 30.648C266.201 32.024 266.659 33.0703 267.577 33.787Z" fill="white"/>
</g>
<g filter="url(#filter2_d_224_252)">
<path d="M9.816 77V59.384H4.08V57.2H18V59.384H12.252V77H9.816ZM25.1306 77.384C23.1546 77.384 21.7386 76.96 20.8826 76.112C20.0266 75.256 19.5986 73.836 19.5986 71.852V64.712H21.9266V71.372C21.9266 72.844 22.1706 73.892 22.6586 74.516C23.1466 75.14 23.9706 75.452 25.1306 75.452C26.2986 75.452 27.1266 75.14 27.6146 74.516C28.1026 73.892 28.3466 72.844 28.3466 71.372V64.712H30.6746V71.852C30.6746 73.836 30.2466 75.256 29.3906 76.112C28.5346 76.96 27.1146 77.384 25.1306 77.384ZM46.8086 77.384C45.6646 77.384 44.6286 77.104 43.7006 76.544C42.7806 75.976 42.0486 75.2 41.5046 74.216C40.9686 73.232 40.7006 72.108 40.7006 70.844C40.7006 69.596 40.9646 68.484 41.4926 67.508C42.0206 66.524 42.7446 65.748 43.6646 65.18C44.5846 64.612 45.6326 64.328 46.8086 64.328C47.8486 64.328 48.7966 64.56 49.6526 65.024C50.5166 65.488 51.1846 66.132 51.6566 66.956V64.712H53.9846V77H51.6566V74.696C51.1206 75.544 50.4326 76.204 49.5926 76.676C48.7526 77.148 47.8246 77.384 46.8086 77.384ZM47.4326 75.38C48.2726 75.38 49.0126 75.188 49.6526 74.804C50.3006 74.412 50.8086 73.876 51.1766 73.196C51.5446 72.516 51.7286 71.736 51.7286 70.856C51.7286 69.976 51.5446 69.196 51.1766 68.516C50.8086 67.836 50.3006 67.304 49.6526 66.92C49.0126 66.528 48.2726 66.332 47.4326 66.332C46.6006 66.332 45.8606 66.528 45.2126 66.92C44.5646 67.304 44.0526 67.836 43.6766 68.516C43.3086 69.196 43.1246 69.976 43.1246 70.856C43.1246 71.728 43.3086 72.508 43.6766 73.196C44.0526 73.876 44.5646 74.412 45.2126 74.804C45.8606 75.188 46.6006 75.38 47.4326 75.38ZM62.0798 77.384C61.0558 77.384 60.1478 77.164 59.3558 76.724C58.5718 76.276 57.9478 75.64 57.4838 74.816L58.5998 73.376C59.0238 74.088 59.5358 74.64 60.1358 75.032C60.7358 75.424 61.3798 75.62 62.0678 75.62C62.5158 75.62 62.9198 75.532 63.2798 75.356C63.6478 75.18 63.9398 74.928 64.1558 74.6C64.3718 74.264 64.4798 73.868 64.4798 73.412C64.4798 72.972 64.3678 72.628 64.1438 72.38C63.9278 72.124 63.6038 71.9 63.1718 71.708C62.7478 71.516 62.2158 71.296 61.5758 71.048C61.0638 70.84 60.5678 70.604 60.0878 70.34C59.6078 70.076 59.2118 69.744 58.8998 69.344C58.5958 68.936 58.4438 68.42 58.4438 67.796C58.4438 67.124 58.6238 66.528 58.9838 66.008C59.3518 65.488 59.8558 65.08 60.4958 64.784C61.1358 64.488 61.8638 64.34 62.6797 64.34C63.3438 64.34 63.9878 64.472 64.6118 64.736C65.2358 65 65.8278 65.38 66.3878 65.876L65.4518 67.292C64.6198 66.412 63.6998 65.972 62.6918 65.972C62.0838 65.972 61.5918 66.128 61.2158 66.44C60.8398 66.744 60.6518 67.14 60.6518 67.628C60.6518 68.004 60.7878 68.32 61.0598 68.576C61.3318 68.824 61.6798 69.04 62.1038 69.224C62.5278 69.408 62.9678 69.588 63.4238 69.764C64.1118 70.02 64.7118 70.284 65.2238 70.556C65.7438 70.828 66.1478 71.18 66.4358 71.612C66.7238 72.036 66.8678 72.608 66.8678 73.328C66.8678 74.168 66.6678 74.892 66.2678 75.5C65.8758 76.108 65.3198 76.576 64.5998 76.904C63.8798 77.224 63.0398 77.384 62.0798 77.384ZM76.6232 77.384C75.3352 77.384 74.1792 77.1 73.1552 76.532C72.1312 75.964 71.3232 75.192 70.7312 74.216C70.1392 73.232 69.8432 72.124 69.8432 70.892C69.8432 69.98 70.0112 69.128 70.3472 68.336C70.6832 67.544 71.1512 66.848 71.7512 66.248C72.3512 65.64 73.0472 65.168 73.8392 64.832C74.6312 64.496 75.4792 64.328 76.3832 64.328C77.6632 64.328 78.7832 64.592 79.7432 65.12C80.7112 65.648 81.4632 66.384 81.9992 67.328C82.5432 68.272 82.8152 69.368 82.8152 70.616C82.8152 70.72 82.8112 70.804 82.8032 70.868C82.7952 70.932 82.7792 71.016 82.7552 71.12H72.1952C72.1952 71.976 72.3872 72.732 72.7712 73.388C73.1632 74.044 73.6992 74.56 74.3792 74.936C75.0672 75.304 75.8552 75.488 76.7432 75.488C77.5832 75.488 78.3352 75.316 78.9992 74.972C79.6632 74.628 80.2392 74.116 80.7272 73.436L82.4312 74.324C81.8472 75.292 81.0432 76.044 80.0192 76.58C79.0032 77.116 77.8712 77.384 76.6232 77.384ZM72.3152 69.404H80.4752C80.3632 68.772 80.1152 68.22 79.7312 67.748C79.3552 67.268 78.8792 66.896 78.3032 66.632C77.7352 66.36 77.1072 66.224 76.4192 66.224C75.6992 66.224 75.0472 66.356 74.4632 66.62C73.8872 66.876 73.4112 67.244 73.0352 67.724C72.6672 68.196 72.4272 68.756 72.3152 69.404ZM89.8766 77.384C88.8526 77.384 87.9446 77.164 87.1526 76.724C86.3686 76.276 85.7446 75.64 85.2806 74.816L86.3966 73.376C86.8206 74.088 87.3326 74.64 87.9326 75.032C88.5326 75.424 89.1766 75.62 89.8646 75.62C90.3126 75.62 90.7166 75.532 91.0766 75.356C91.4446 75.18 91.7366 74.928 91.9526 74.6C92.1686 74.264 92.2766 73.868 92.2766 73.412C92.2766 72.972 92.1646 72.628 91.9406 72.38C91.7246 72.124 91.4006 71.9 90.9686 71.708C90.5446 71.516 90.0126 71.296 89.3726 71.048C88.8606 70.84 88.3646 70.604 87.8846 70.34C87.4046 70.076 87.0086 69.744 86.6966 69.344C86.3926 68.936 86.2406 68.42 86.2406 67.796C86.2406 67.124 86.4206 66.528 86.7806 66.008C87.1486 65.488 87.6526 65.08 88.2926 64.784C88.9326 64.488 89.6606 64.34 90.4766 64.34C91.1406 64.34 91.7846 64.472 92.4086 64.736C93.0326 65 93.6246 65.38 94.1846 65.876L93.2486 67.292C92.4166 66.412 91.4966 65.972 90.4886 65.972C89.8806 65.972 89.3886 66.128 89.0126 66.44C88.6366 66.744 88.4486 67.14 88.4486 67.628C88.4486 68.004 88.5846 68.32 88.8566 68.576C89.1286 68.824 89.4766 69.04 89.9006 69.224C90.3246 69.408 90.7646 69.588 91.2206 69.764C91.9086 70.02 92.5086 70.284 93.0206 70.556C93.5406 70.828 93.9446 71.18 94.2326 71.612C94.5206 72.036 94.6646 72.608 94.6646 73.328C94.6646 74.168 94.4646 74.892 94.0646 75.5C93.6726 76.108 93.1166 76.576 92.3966 76.904C91.6766 77.224 90.8366 77.384 89.8766 77.384ZM104.564 77.384C103.26 77.384 102.084 77.108 101.036 76.556C99.9961 76.004 99.1681 75.236 98.5521 74.252C97.9441 73.268 97.6401 72.136 97.6401 70.856C97.6401 69.568 97.9441 68.436 98.5521 67.46C99.1681 66.476 99.9961 65.708 101.036 65.156C102.084 64.604 103.26 64.328 104.564 64.328C105.868 64.328 107.04 64.604 108.08 65.156C109.128 65.708 109.956 66.476 110.564 67.46C111.18 68.436 111.488 69.568 111.488 70.856C111.488 72.136 111.18 73.268 110.564 74.252C109.956 75.236 109.128 76.004 108.08 76.556C107.04 77.108 105.868 77.384 104.564 77.384ZM104.576 75.356C105.432 75.356 106.2 75.164 106.88 74.78C107.56 74.396 108.096 73.864 108.488 73.184C108.88 72.504 109.076 71.728 109.076 70.856C109.076 69.976 108.88 69.2 108.488 68.528C108.096 67.848 107.56 67.316 106.88 66.932C106.2 66.548 105.432 66.356 104.576 66.356C103.712 66.356 102.94 66.548 102.26 66.932C101.58 67.316 101.044 67.848 100.652 68.528C100.26 69.2 100.064 69.976 100.064 70.856C100.064 71.728 100.26 72.504 100.652 73.184C101.044 73.864 101.58 74.396 102.26 74.78C102.94 75.164 103.712 75.356 104.576 75.356ZM115.382 77V64.712H117.71V66.512C118.118 65.8 118.638 65.26 119.27 64.892C119.902 64.516 120.618 64.328 121.418 64.328C121.802 64.328 122.19 64.376 122.582 64.472C122.982 64.56 123.326 64.68 123.614 64.832L122.654 66.8C122.406 66.664 122.118 66.556 121.79 66.476C121.462 66.396 121.154 66.356 120.866 66.356C120.33 66.356 119.818 66.496 119.33 66.776C118.85 67.048 118.458 67.404 118.154 67.844C117.858 68.284 117.71 68.756 117.71 69.26V77H115.382ZM137.945 77.384C136.809 77.384 135.777 77.104 134.849 76.544C133.929 75.984 133.197 75.212 132.653 74.228C132.117 73.244 131.849 72.12 131.849 70.856C131.849 69.6 132.113 68.484 132.641 67.508C133.177 66.524 133.905 65.748 134.825 65.18C135.753 64.612 136.809 64.328 137.993 64.328C139.017 64.328 139.949 64.56 140.789 65.024C141.637 65.488 142.309 66.132 142.805 66.956V56.348H145.133V77H142.805V74.696C142.277 75.536 141.589 76.196 140.741 76.676C139.893 77.148 138.961 77.384 137.945 77.384ZM138.569 75.38C139.409 75.38 140.153 75.188 140.801 74.804C141.449 74.412 141.957 73.876 142.325 73.196C142.693 72.516 142.877 71.74 142.877 70.868C142.877 69.988 142.693 69.208 142.325 68.528C141.957 67.84 141.449 67.304 140.801 66.92C140.153 66.528 139.413 66.332 138.581 66.332C137.749 66.332 137.009 66.528 136.361 66.92C135.713 67.304 135.201 67.84 134.825 68.528C134.457 69.208 134.273 69.988 134.273 70.868C134.273 71.74 134.457 72.516 134.825 73.196C135.193 73.876 135.701 74.412 136.349 74.804C136.997 75.188 137.737 75.38 138.569 75.38ZM155.842 77.384C154.554 77.384 153.398 77.1 152.374 76.532C151.35 75.964 150.542 75.192 149.95 74.216C149.358 73.232 149.062 72.124 149.062 70.892C149.062 69.98 149.23 69.128 149.566 68.336C149.902 67.544 150.37 66.848 150.97 66.248C151.57 65.64 152.266 65.168 153.058 64.832C153.85 64.496 154.698 64.328 155.602 64.328C156.882 64.328 158.002 64.592 158.962 65.12C159.93 65.648 160.682 66.384 161.218 67.328C161.762 68.272 162.034 69.368 162.034 70.616C162.034 70.72 162.03 70.804 162.022 70.868C162.014 70.932 161.998 71.016 161.974 71.12H151.414C151.414 71.976 151.606 72.732 151.99 73.388C152.382 74.044 152.918 74.56 153.598 74.936C154.286 75.304 155.074 75.488 155.962 75.488C156.802 75.488 157.554 75.316 158.218 74.972C158.882 74.628 159.458 74.116 159.946 73.436L161.65 74.324C161.066 75.292 160.262 76.044 159.238 76.58C158.222 77.116 157.09 77.384 155.842 77.384ZM151.534 69.404H159.694C159.582 68.772 159.334 68.22 158.95 67.748C158.574 67.268 158.098 66.896 157.522 66.632C156.954 66.36 156.326 66.224 155.638 66.224C154.918 66.224 154.266 66.356 153.682 66.62C153.106 66.876 152.63 67.244 152.254 67.724C151.886 68.196 151.646 68.756 151.534 69.404ZM177.379 77.384C176.235 77.384 175.199 77.104 174.271 76.544C173.351 75.976 172.619 75.2 172.075 74.216C171.539 73.232 171.271 72.108 171.271 70.844C171.271 69.596 171.535 68.484 172.063 67.508C172.591 66.524 173.315 65.748 174.235 65.18C175.155 64.612 176.203 64.328 177.379 64.328C178.419 64.328 179.367 64.56 180.223 65.024C181.087 65.488 181.755 66.132 182.227 66.956V64.712H184.555V77H182.227V74.696C181.691 75.544 181.003 76.204 180.163 76.676C179.323 77.148 178.395 77.384 177.379 77.384ZM178.003 75.38C178.843 75.38 179.583 75.188 180.223 74.804C180.871 74.412 181.379 73.876 181.747 73.196C182.115 72.516 182.299 71.736 182.299 70.856C182.299 69.976 182.115 69.196 181.747 68.516C181.379 67.836 180.871 67.304 180.223 66.92C179.583 66.528 178.843 66.332 178.003 66.332C177.171 66.332 176.431 66.528 175.783 66.92C175.135 67.304 174.623 67.836 174.247 68.516C173.879 69.196 173.695 69.976 173.695 70.856C173.695 71.728 173.879 72.508 174.247 73.196C174.623 73.876 175.135 74.412 175.783 74.804C176.431 75.188 177.171 75.38 178.003 75.38ZM189.468 77V56.36H191.796V77H189.468ZM196.698 77V64.712H199.026V77H196.698ZM197.862 62.228C197.598 62.228 197.354 62.164 197.13 62.036C196.914 61.9 196.738 61.72 196.602 61.496C196.474 61.272 196.41 61.028 196.41 60.764C196.41 60.492 196.474 60.248 196.602 60.032C196.738 59.816 196.914 59.644 197.13 59.516C197.354 59.38 197.598 59.312 197.862 59.312C198.134 59.312 198.378 59.38 198.594 59.516C198.81 59.644 198.982 59.816 199.11 60.032C199.246 60.248 199.314 60.492 199.314 60.764C199.314 61.028 199.246 61.272 199.11 61.496C198.982 61.72 198.81 61.9 198.594 62.036C198.378 62.164 198.134 62.228 197.862 62.228ZM203.952 77V64.712H206.28V66.296C206.8 65.64 207.388 65.148 208.044 64.82C208.7 64.492 209.428 64.328 210.228 64.328C211.22 64.328 212.092 64.556 212.844 65.012C213.596 65.46 214.12 66.072 214.416 66.848C214.928 66.064 215.544 65.448 216.264 65C216.984 64.552 217.828 64.328 218.796 64.328C219.676 64.328 220.456 64.508 221.136 64.868C221.816 65.228 222.352 65.748 222.744 66.428C223.136 67.108 223.332 67.932 223.332 68.9V77H221.004V69.548C221.004 68.524 220.736 67.712 220.2 67.112C219.664 66.512 218.952 66.212 218.064 66.212C217.448 66.212 216.892 66.348 216.396 66.62C215.908 66.884 215.52 67.232 215.232 67.664C214.952 68.088 214.812 68.536 214.812 69.008V77H212.484V69.392C212.484 68.424 212.22 67.652 211.692 67.076C211.164 66.5 210.46 66.212 209.58 66.212C208.964 66.212 208.404 66.344 207.9 66.608C207.404 66.864 207.008 67.2 206.712 67.616C206.424 68.032 206.28 68.468 206.28 68.924V77H203.952ZM233.842 77.384C232.554 77.384 231.398 77.1 230.374 76.532C229.35 75.964 228.542 75.192 227.95 74.216C227.358 73.232 227.062 72.124 227.062 70.892C227.062 69.98 227.23 69.128 227.566 68.336C227.902 67.544 228.37 66.848 228.97 66.248C229.57 65.64 230.266 65.168 231.058 64.832C231.85 64.496 232.698 64.328 233.602 64.328C234.882 64.328 236.002 64.592 236.962 65.12C237.93 65.648 238.682 66.384 239.218 67.328C239.762 68.272 240.034 69.368 240.034 70.616C240.034 70.72 240.03 70.804 240.022 70.868C240.014 70.932 239.998 71.016 239.974 71.12H229.414C229.414 71.976 229.606 72.732 229.99 73.388C230.382 74.044 230.918 74.56 231.598 74.936C232.286 75.304 233.074 75.488 233.962 75.488C234.802 75.488 235.554 75.316 236.218 74.972C236.882 74.628 237.458 74.116 237.946 73.436L239.65 74.324C239.066 75.292 238.262 76.044 237.238 76.58C236.222 77.116 235.09 77.384 233.842 77.384ZM229.534 69.404H237.694C237.582 68.772 237.334 68.22 236.95 67.748C236.574 67.268 236.098 66.896 235.522 66.632C234.954 66.36 234.326 66.224 233.638 66.224C232.918 66.224 232.266 66.356 231.682 66.62C231.106 66.876 230.63 67.244 230.254 67.724C229.886 68.196 229.646 68.756 229.534 69.404ZM243.866 77V64.712H246.194V66.296C246.57 65.736 247.11 65.268 247.814 64.892C248.518 64.516 249.354 64.328 250.322 64.328C251.274 64.328 252.098 64.528 252.794 64.928C253.49 65.32 254.026 65.888 254.402 66.632C254.786 67.376 254.978 68.264 254.978 69.296V77H252.65V69.764C252.65 68.612 252.374 67.728 251.822 67.112C251.27 66.496 250.494 66.188 249.494 66.188C248.806 66.188 248.214 66.328 247.718 66.608C247.23 66.88 246.854 67.248 246.59 67.712C246.326 68.168 246.194 68.668 246.194 69.212V77H243.866ZM262.931 77.384C261.923 77.384 261.139 77.052 260.579 76.388C260.019 75.716 259.739 74.776 259.739 73.568V66.476H258.371V64.712H259.739V60.116H262.067V64.712H265.019V66.476H262.067V73.424C262.067 74.032 262.187 74.5 262.427 74.828C262.667 75.156 263.011 75.32 263.459 75.32C263.907 75.32 264.307 75.188 264.659 74.924L265.247 76.784C264.935 76.968 264.571 77.112 264.155 77.216C263.747 77.328 263.339 77.384 262.931 77.384ZM274.814 77.384C273.51 77.384 272.334 77.108 271.286 76.556C270.246 76.004 269.418 75.236 268.802 74.252C268.194 73.268 267.89 72.136 267.89 70.856C267.89 69.568 268.194 68.436 268.802 67.46C269.418 66.476 270.246 65.708 271.286 65.156C272.334 64.604 273.51 64.328 274.814 64.328C276.118 64.328 277.29 64.604 278.33 65.156C279.378 65.708 280.206 66.476 280.814 67.46C281.43 68.436 281.738 69.568 281.738 70.856C281.738 72.136 281.43 73.268 280.814 74.252C280.206 75.236 279.378 76.004 278.33 76.556C277.29 77.108 276.118 77.384 274.814 77.384ZM274.826 75.356C275.682 75.356 276.45 75.164 277.13 74.78C277.81 74.396 278.346 73.864 278.738 73.184C279.13 72.504 279.326 71.728 279.326 70.856C279.326 69.976 279.13 69.2 278.738 68.528C278.346 67.848 277.81 67.316 277.13 66.932C276.45 66.548 275.682 66.356 274.826 66.356C273.962 66.356 273.19 66.548 272.51 66.932C271.83 67.316 271.294 67.848 270.902 68.528C270.51 69.2 270.314 69.976 270.314 70.856C270.314 71.728 270.51 72.504 270.902 73.184C271.294 73.864 271.83 74.396 272.51 74.78C273.19 75.164 273.962 75.356 274.826 75.356ZM288.861 77.384C287.837 77.384 286.929 77.164 286.137 76.724C285.353 76.276 284.729 75.64 284.265 74.816L285.381 73.376C285.805 74.088 286.317 74.64 286.917 75.032C287.517 75.424 288.161 75.62 288.849 75.62C289.297 75.62 289.701 75.532 290.061 75.356C290.429 75.18 290.721 74.928 290.937 74.6C291.153 74.264 291.261 73.868 291.261 73.412C291.261 72.972 291.149 72.628 290.925 72.38C290.709 72.124 290.385 71.9 289.953 71.708C289.529 71.516 288.997 71.296 288.357 71.048C287.845 70.84 287.349 70.604 286.869 70.34C286.389 70.076 285.993 69.744 285.681 69.344C285.377 68.936 285.225 68.42 285.225 67.796C285.225 67.124 285.405 66.528 285.765 66.008C286.133 65.488 286.637 65.08 287.277 64.784C287.917 64.488 288.645 64.34 289.461 64.34C290.125 64.34 290.769 64.472 291.393 64.736C292.017 65 292.609 65.38 293.169 65.876L292.233 67.292C291.401 66.412 290.481 65.972 289.473 65.972C288.865 65.972 288.373 66.128 287.997 66.44C287.621 66.744 287.433 67.14 287.433 67.628C287.433 68.004 287.569 68.32 287.841 68.576C288.113 68.824 288.461 69.04 288.885 69.224C289.309 69.408 289.749 69.588 290.205 69.764C290.893 70.02 291.493 70.284 292.005 70.556C292.525 70.828 292.929 71.18 293.217 71.612C293.505 72.036 293.649 72.608 293.649 73.328C293.649 74.168 293.449 74.892 293.049 75.5C292.657 76.108 292.101 76.576 291.381 76.904C290.661 77.224 289.821 77.384 288.861 77.384Z" fill="white"/>
</g>
</g>
<defs>
<filter id="filter0_d_224_252" x="0.0800171" y="8.67505" width="297.569" height="76.709" filterUnits="userSpaceOnUse" color-interpolation-filters="sRGB">
<feFlood flood-opacity="0" result="BackgroundImageFix"/>
<feColorMatrix in="SourceAlpha" type="matrix" values="0 0 0 0 0 0 0 0 0 0 0 0 0 0 0 0 0 0 127 0" result="hardAlpha"/>
<feOffset dy="4"/>
<feGaussianBlur stdDeviation="2"/>
<feComposite in2="hardAlpha" operator="out"/>
<feColorMatrix type="matrix" values="0 0 0 0 0 0 0 0 0 0 0 0 0 0 0 0 0 0 0.25 0"/>
<feBlend mode="normal" in2="BackgroundImageFix" result="effect1_dropShadow_224_252"/>
<feBlend mode="normal" in="SourceGraphic" in2="effect1_dropShadow_224_252" result="shape"/>
</filter>
<filter id="filter1_d_224_252" x="0.719971" y="8.67505" width="285.52" height="51.4729" filterUnits="userSpaceOnUse" color-interpolation-filters="sRGB">
<feFlood flood-opacity="0" result="BackgroundImageFix"/>
<feColorMatrix in="SourceAlpha" type="matrix" values="0 0 0 0 0 0 0 0 0 0 0 0 0 0 0 0 0 0 127 0" result="hardAlpha"/>
<feOffset dy="4"/>
<feGaussianBlur stdDeviation="2"/>
<feComposite in2="hardAlpha" operator="out"/>
<feColorMatrix type="matrix" values="0 0 0 0 0 0 0 0 0 0 0 0 0 0 0 0 0 0 0.25 0"/>
<feBlend mode="normal" in2="BackgroundImageFix" result="effect1_dropShadow_224_252"/>
<feBlend mode="normal" in="SourceGraphic" in2="effect1_dropShadow_224_252" result="shape"/>
</filter>
<filter id="filter2_d_224_252" x="0.0800171" y="56.3479" width="297.569" height="29.0361" filterUnits="userSpaceOnUse" color-interpolation-filters="sRGB">
<feFlood flood-opacity="0" result="BackgroundImageFix"/>
<feColorMatrix in="SourceAlpha" type="matrix" values="0 0 0 0 0 0 0 0 0 0 0 0 0 0 0 0 0 0 127 0" result="hardAlpha"/>
<feOffset dy="4"/>
<feGaussianBlur stdDeviation="2"/>
<feComposite in2="hardAlpha" operator="out"/>
<feColorMatrix type="matrix" values="0 0 0 0 0 0 0 0 0 0 0 0 0 0 0 0 0 0 0.25 0"/>
<feBlend mode="normal" in2="BackgroundImageFix" result="effect1_dropShadow_224_252"/>
<feBlend mode="normal" in="SourceGraphic" in2="effect1_dropShadow_224_252" result="shape"/>
</filter>
</defs>
</svg>
