<svg width="453" height="212" viewBox="0 0 453 212" fill="none" xmlns="http://www.w3.org/2000/svg">
<path d="M146.84 97.96C157.854 111.027 163.36 125.68 163.36 141.92C162.987 160.587 156.547 176.267 144.04 188.96C131.72 201.467 116.694 207.72 98.9605 207.72H25.3205C12.2538 207.72 4.60047 204.173 2.36047 197.08C1.24047 193.907 0.68047 189.053 0.68047 182.52V27.12C0.68047 22.64 0.773803 19.3733 0.960469 17.32C1.3338 15.2667 2.26714 12.84 3.76047 10.04C6.3738 4.99999 13.6538 2.47999 25.6005 2.47999H96.1605C113.334 2.47999 127.707 8.45333 139.28 20.4C151.414 32.5333 157.48 47.0933 157.48 64.08C157.48 76.4 153.934 87.6933 146.84 97.96ZM113.8 139.12C113.8 134.64 113.24 131.093 112.12 128.48C111.187 125.867 109.507 124 107.08 122.88C103.347 121.387 98.1205 120.64 91.4005 120.64C84.6805 120.64 79.6405 119.333 76.2805 116.72C72.9205 114.107 71.2405 108.787 71.2405 100.76C71.2405 92.5467 72.9205 87.1333 76.2805 84.52C79.8271 81.9067 85.6138 80.6 93.6405 80.6C101.107 80.6 105.587 78.64 107.08 74.72C107.64 72.6667 107.92 69.3067 107.92 64.64C107.92 59.9733 106.334 56.7067 103.16 54.84C100.174 52.9733 95.6005 52.04 89.4405 52.04H50.2405V158.16H96.1605C107.92 158.16 113.8 151.813 113.8 139.12ZM181.696 27.4C181.696 23.1067 181.789 19.9333 181.976 17.88C182.349 15.64 183.283 13.12 184.776 10.32C187.389 5.27999 194.669 2.75999 206.616 2.75999C219.683 2.75999 227.429 6.21332 229.856 13.12C230.789 16.2933 231.256 21.1467 231.256 27.68V183.36C231.256 187.84 231.069 191.107 230.696 193.16C230.509 195.213 229.669 197.64 228.176 200.44C225.563 205.48 218.283 208 206.336 208C193.269 208 185.616 204.453 183.376 197.36C182.256 194.373 181.696 189.613 181.696 183.08V27.4ZM349.93 0.239988C377.557 0.239988 401.543 10.2267 421.89 30.2C442.237 50.1733 452.41 75 452.41 104.68C452.41 134.173 442.704 159.373 423.29 180.28C403.877 201 379.984 211.36 351.61 211.36C323.237 211.36 299.063 201.093 279.09 180.56C259.303 160.027 249.41 135.573 249.41 107.2C249.41 91.7067 252.21 77.24 257.81 63.8C263.41 50.1733 270.877 38.7867 280.21 29.64C289.543 20.4933 300.277 13.3067 312.41 8.07999C324.543 2.85332 337.05 0.239988 349.93 0.239988ZM298.97 105.8C298.97 122.413 304.29 135.947 314.93 146.4C325.757 156.667 337.797 161.8 351.05 161.8C364.303 161.8 376.25 156.76 386.89 146.68C397.53 136.6 402.85 123.067 402.85 106.08C402.85 89.0933 397.437 75.4667 386.61 65.2C375.97 54.9333 364.023 49.8 350.77 49.8C337.517 49.8 325.57 55.0267 314.93 65.48C304.29 75.7467 298.97 89.1867 298.97 105.8Z" fill="#E27B38"/>
</svg>
