<svg width="559" height="608" viewBox="0 0 559 608" fill="none" xmlns="http://www.w3.org/2000/svg">
<ellipse cx="265.5" cy="581.5" rx="148.5" ry="26.5" fill="#7C6BAF" fill-opacity="0.43"/>
<circle cx="266" cy="265" r="233" fill="#7C6BAF"/>
<path d="M483.079 122.086C482.58 121.114 479.899 115.647 482.122 109.236C482.585 107.901 484.875 101.87 491.295 99.6137C492.055 99.3462 498.043 97.352 503.33 100.797C506.989 103.182 508.169 106.776 509.32 110.288C510.25 113.126 513.471 122.945 508.469 127.296C506.988 128.584 506.277 127.659 500.777 129.159C495.191 130.683 494.356 131.997 492.15 131.815C489.835 131.624 486.598 129.834 483.079 122.086Z" fill="#AEBC26"/>
<path d="M522.087 122.499C523.065 122.023 528.577 119.457 534.871 121.853C536.183 122.352 542.101 124.806 544.15 131.325C544.393 132.097 546.194 138.172 542.612 143.409C540.134 147.034 536.532 148.131 533.01 149.204C530.16 150.069 520.314 153.067 516.146 147.925C514.914 146.4 515.85 145.713 514.529 140.137C513.185 134.476 511.904 133.603 512.152 131.387C512.411 129.064 514.284 125.85 522.087 122.499Z" fill="#AEBC26"/>
<path d="M506.504 106.983C507.119 106.082 510.644 101.099 517.3 100.024C518.689 99.7984 525.043 98.9644 530.041 103.588C530.632 104.136 535.198 108.498 534.67 114.83C534.305 119.212 531.716 121.966 529.184 124.659C527.138 126.834 520.061 134.362 513.898 131.992C512.073 131.291 512.546 130.219 508.646 126.053C504.683 121.82 503.142 121.706 502.26 119.66C501.337 117.516 501.378 113.794 506.504 106.983Z" fill="#C4D650"/>
<path fill-rule="evenodd" clip-rule="evenodd" d="M467.151 171.768C465.683 178.118 464.772 184.121 465.127 188.415C465.292 190.415 465.679 195.081 468.777 196.884C471.304 198.351 474.452 197.405 476.484 196.684C493.656 190.597 512.61 173.478 517.273 169.266C517.837 168.757 518.192 168.436 518.309 168.347C518.311 168.344 518.326 168.332 518.351 168.314C518.372 168.298 518.4 168.277 518.432 168.252C518.666 168.07 519.158 167.679 519.73 167.147C520.021 166.876 520.302 166.598 520.573 166.314C520.85 166.022 521.128 165.732 521.411 165.446C522.188 164.66 522.914 163.827 523.587 162.951C506.004 172.264 485.456 173.449 467.151 171.768Z" fill="#D86627"/>
<path fill-rule="evenodd" clip-rule="evenodd" d="M523.461 163.055C523.803 162.609 524.132 162.152 524.446 161.685C532.505 149.742 529.604 133.582 518.022 125.277C505.665 116.409 488.301 119.968 480.298 133C479.758 133.88 479.27 134.791 478.836 135.727C478.694 136.034 478.542 136.337 478.391 136.64L478.363 136.696C477.846 137.709 477.418 138.765 477.085 139.853C475.712 143.493 470.126 158.455 467.025 171.872C485.329 173.553 505.878 172.367 523.461 163.055Z" fill="#E27B38"/>
<path d="M471.762 154.336C478.632 158.034 487.083 155.638 490.636 148.984C494.19 142.33 491.501 133.938 484.63 130.24C477.759 126.542 469.309 128.937 465.756 135.591C462.202 142.245 464.891 150.637 471.762 154.336Z" fill="#E2E2E2"/>
<path d="M476.419 153.989C481.109 156.514 486.878 154.879 489.304 150.336C491.73 145.793 489.895 140.064 485.204 137.539C480.514 135.015 474.745 136.65 472.319 141.193C469.893 145.735 471.728 151.465 476.419 153.989Z" fill="black"/>
<path d="M481.795 139.676C482.795 138.744 482.271 136.535 480.625 134.742C478.98 132.95 476.835 132.252 475.836 133.185C474.836 134.118 475.359 136.327 477.005 138.119C478.651 139.912 480.795 140.609 481.795 139.676Z" fill="white"/>
<path d="M510.086 176.127C516.957 179.826 525.351 177.535 528.836 171.01C532.32 164.485 529.575 156.198 522.704 152.499C515.833 148.801 507.438 151.092 503.954 157.616C500.47 164.141 503.215 172.428 510.086 176.127Z" fill="#E2E2E2"/>
<path d="M507.821 170.824C512.512 173.349 518.243 171.785 520.621 167.331C523 162.877 521.126 157.219 516.435 154.694C511.745 152.169 506.014 153.733 503.635 158.187C501.256 162.642 503.13 168.299 507.821 170.824Z" fill="black"/>
<path d="M520.101 163.79C522.511 164.07 524.597 163.211 524.761 161.872C524.925 160.533 523.105 159.219 520.695 158.939C518.285 158.659 516.198 159.517 516.034 160.857C515.87 162.196 517.691 163.509 520.101 163.79Z" fill="white"/>
<path d="M257.949 78.4135C274.278 69.7143 280.391 49.2888 271.602 32.7917C262.813 16.2947 242.451 9.97323 226.122 18.6724C209.793 27.3715 203.681 47.7971 212.47 64.2941C221.258 80.7912 241.62 87.1126 257.949 78.4135Z" fill="#D86627"/>
<path d="M256.031 75.1567C270.954 67.2065 276.541 48.5393 268.508 33.4625C260.476 18.3856 241.867 12.6084 226.944 20.5586C212.021 28.5089 206.435 47.1761 214.467 62.2529C222.499 77.3297 241.108 83.107 256.031 75.1567Z" fill="#E37A39"/>
<path d="M244.375 71.3835C245.544 70.7604 245.982 69.2974 245.353 68.1158C244.723 66.9342 243.265 66.4814 242.095 67.1045C240.926 67.7276 240.488 69.1905 241.117 70.3722C241.747 71.5538 243.205 72.0065 244.375 71.3835Z" fill="#E28B5A"/>
<path d="M255.879 25.1632C257.048 24.5402 257.486 23.0772 256.856 21.8956C256.227 20.714 254.769 20.2612 253.599 20.8843C252.429 21.5073 251.992 22.9703 252.621 24.1519C253.251 25.3335 254.709 25.7863 255.879 25.1632Z" fill="#E28B5A"/>
<path d="M249.084 28.3078C250.253 27.6847 250.691 26.2217 250.062 25.0401C249.432 23.8585 247.974 23.4057 246.804 24.0288C245.635 24.6519 245.197 26.1149 245.826 27.2965C246.456 28.4781 247.914 28.9309 249.084 28.3078Z" fill="#E28B5A"/>
<path d="M261.175 30.0011C262.344 29.3781 262.782 27.9151 262.153 26.7335C261.523 25.5519 260.065 25.0991 258.895 25.7222C257.725 26.3452 257.288 27.8082 257.917 28.9898C258.547 30.1714 260.005 30.6242 261.175 30.0011Z" fill="#E28B5A"/>
<path d="M243.584 77.4565C244.754 76.8334 245.192 75.3704 244.562 74.1888C243.933 73.0072 242.474 72.5544 241.305 73.1775C240.135 73.8006 239.697 75.2635 240.327 76.4452C240.956 77.6268 242.415 78.0795 243.584 77.4565Z" fill="#E28B5A"/>
<path d="M236.205 75.5775C237.374 74.9545 237.812 73.4915 237.183 72.3099C236.553 71.1283 235.095 70.6755 233.925 71.2986C232.756 71.9217 232.318 73.3846 232.947 74.5662C233.577 75.7479 235.035 76.2006 236.205 75.5775Z" fill="#E28B5A"/>
<path d="M233.695 45.5627C231.638 40.2136 225.457 37.6001 219.89 39.7253C214.323 41.8505 211.478 47.9096 213.535 53.2587C215.592 58.6078 221.773 61.2213 227.34 59.0961C232.907 56.9709 235.752 50.9118 233.695 45.5627Z" fill="#E2E2E2"/>
<path d="M233.807 47.0114C232.402 43.3596 228.183 41.5753 224.382 43.0261C220.582 44.4769 218.64 48.6134 220.044 52.2652C221.449 55.917 225.668 57.7013 229.469 56.2505C233.269 54.7998 235.211 50.6633 233.807 47.0114Z" fill="black"/>
<path d="M223.892 46.0348C223.853 44.9916 222.319 44.1907 220.467 44.2461C218.615 44.3015 217.146 45.1922 217.186 46.2355C217.225 47.2788 218.759 48.0796 220.611 48.0242C222.463 47.9688 223.932 47.0781 223.892 46.0348Z" fill="white"/>
<path d="M265.445 34.5707C263.427 29.3254 257.279 26.7961 251.712 28.9213C246.145 31.0465 243.267 37.0214 245.284 42.2667C247.302 47.512 253.45 50.0413 259.017 47.9162C264.584 45.791 267.462 39.816 265.445 34.5707Z" fill="#E2E2E2"/>
<path d="M259.224 37.4715C257.846 33.8906 253.649 32.1638 249.849 33.6145C246.048 35.0653 244.084 39.1444 245.461 42.7253C246.839 46.3063 251.036 48.0331 254.836 46.5823C258.637 45.1315 260.601 41.0525 259.224 37.4715Z" fill="black"/>
<path d="M256.902 36.0258C258.265 34.7767 258.811 33.1481 258.122 32.3884C257.433 31.6286 255.769 32.0253 254.405 33.2744C253.042 34.5235 252.496 36.1521 253.185 36.9118C253.874 37.6716 255.538 37.2749 256.902 36.0258Z" fill="white"/>
<path d="M237.11 11.0428C234.776 11.6269 232.826 12.8699 231.503 14.4438C230.658 14.4786 229.831 14.6844 229.07 15.0488C228.309 15.4132 227.63 15.9288 227.075 16.5647C225.78 16.4411 224.475 16.5408 223.218 16.8594C218.147 18.1284 214.89 22.5024 215.945 26.6301C216.999 30.7578 221.963 33.0725 227.034 31.8029C227.926 31.5813 228.786 31.2534 229.599 30.8261C232.128 32.8109 235.277 33.3919 237.818 32.0386C240.006 30.8728 241.255 28.5314 241.409 25.8533C246.201 24.4347 249.219 20.2095 248.198 16.2144C247.146 12.0894 242.181 9.7734 237.11 11.0428Z" fill="#C4D650"/>
<path d="M537.503 381.104C537.278 379.519 537.428 377.904 537.941 376.387C540.111 369.826 539.586 362.673 536.482 356.499C533.378 350.325 527.948 345.638 521.388 343.468C514.827 341.297 507.673 341.822 501.5 344.926C495.326 348.031 490.639 353.46 488.468 360.021C488.165 360.94 487.629 361.764 486.91 362.413C482.976 365.925 480.018 370.395 478.323 375.389C476.628 380.383 476.255 385.731 477.239 390.912C478.223 396.093 480.531 400.932 483.939 404.956C487.347 408.981 491.739 412.055 496.687 413.88C501.635 415.705 506.971 416.218 512.176 415.37C517.381 414.521 522.278 412.34 526.39 409.039C530.503 405.737 533.691 401.428 535.645 396.529C537.598 391.631 538.251 386.31 537.539 381.084L537.503 381.104Z" fill="#6B7227"/>
<path d="M534.529 381.305C534.325 379.879 534.457 378.426 534.914 377.06C536.592 371.237 535.95 364.991 533.124 359.631C530.298 354.27 525.507 350.212 519.755 348.306C514.002 346.401 507.736 346.796 502.268 349.409C496.801 352.021 492.557 356.649 490.426 362.322C490.145 363.149 489.656 363.89 489.006 364.473C485.443 367.628 482.759 371.653 481.215 376.154C479.671 380.656 479.321 385.481 480.197 390.158C481.074 394.836 483.148 399.206 486.218 402.843C489.287 406.48 493.247 409.259 497.71 410.909C502.174 412.56 506.989 413.025 511.686 412.259C516.383 411.494 520.801 409.524 524.51 406.542C528.219 403.56 531.091 399.668 532.847 395.244C534.603 390.821 535.183 386.018 534.529 381.305Z" fill="#C4D650"/>
<path d="M503.521 396.388C508.669 398.091 514.633 394.058 516.842 387.38C519.052 380.703 516.67 373.908 511.522 372.205C506.374 370.502 500.41 374.535 498.2 381.213C495.991 387.89 498.373 394.685 503.521 396.388Z" fill="#844019"/>
<path d="M493.445 379.115C498.561 380.31 503.631 377.329 504.769 372.457C505.907 367.585 502.682 362.666 497.566 361.471C492.45 360.277 487.38 363.257 486.242 368.129C485.104 373.001 488.329 377.92 493.445 379.115Z" fill="#E2E2E2"/>
<path d="M496.401 378.114C499.895 378.93 503.357 376.892 504.135 373.563C504.912 370.234 502.711 366.873 499.217 366.057C495.723 365.241 492.261 367.279 491.483 370.608C490.705 373.937 492.907 377.298 496.401 378.114Z" fill="black"/>
<path d="M493.985 367.837C495.367 368.707 496.883 368.784 497.37 368.01C497.857 367.235 497.131 365.903 495.748 365.033C494.366 364.164 492.85 364.087 492.363 364.861C491.876 365.635 492.602 366.968 493.985 367.837Z" fill="white"/>
<path d="M522.121 386.588C527.237 387.783 532.29 384.875 533.407 380.094C534.523 375.312 531.282 370.466 526.166 369.272C521.05 368.077 515.997 370.984 514.88 375.766C513.763 380.548 517.005 385.393 522.121 386.588Z" fill="#E2E2E2"/>
<path d="M519.725 383.572C523.218 384.388 526.668 382.407 527.429 379.146C528.191 375.886 525.976 372.581 522.482 371.765C518.989 370.949 515.539 372.931 514.778 376.191C514.016 379.451 516.231 382.756 519.725 383.572Z" fill="black"/>
<path d="M526.43 376.971C528.041 376.738 529.243 375.828 529.114 374.939C528.985 374.05 527.575 373.518 525.964 373.752C524.353 373.985 523.151 374.895 523.28 375.784C523.409 376.673 524.819 377.204 526.43 376.971Z" fill="white"/>
<path d="M225.531 478.508C218.716 487.879 208.469 494.172 197.028 496.011L196.734 496.056C174.005 499.659 155.529 488.899 150.254 485.575L39.497 410.702C10.7847 391.293 2.37009 353.582 20.6965 326.477C39.0229 299.371 77.153 293.128 105.865 312.537C106.265 312.981 131.129 335.33 216.727 412.025C236.416 429.667 240.209 458.285 225.531 478.508Z" fill="#459696"/>
<path d="M304.685 335.196C312.401 326.551 323.225 321.312 334.792 320.623L335.089 320.604C358.066 319.303 375.374 331.844 380.271 335.685L483.012 421.235C509.642 443.418 514.252 481.782 493.31 506.924C472.373 532.064 433.804 534.464 407.178 512.279C406.825 511.798 384.314 487.077 306.809 402.216C288.973 382.706 288.064 353.854 304.685 335.196Z" fill="#459696"/>
<path d="M240.923 584.079H193.29C179.441 584.079 167.837 576.632 166.454 566.845L160.964 528.146C159.238 515.944 173.876 505.752 191.024 507.22L244.137 511.761C257.687 512.919 267.883 521.084 267.883 530.771V564.929C267.893 575.504 255.816 584.079 240.923 584.079Z" fill="#459696"/>
<path d="M293.396 586.345H336.288C348.765 586.345 359.206 578.893 360.453 569.111L365.389 530.412C366.947 518.21 353.761 508.013 338.319 509.481L290.487 514.022C278.289 515.18 269.106 523.34 269.106 533.032V567.19C269.106 577.765 280.006 586.345 293.396 586.345Z" fill="#459696"/>
<path d="M428.733 412.932C428.354 410.711 427.416 405.196 424.242 404.448C424.037 404.399 423.828 404.372 423.618 404.368C423.437 404.358 423.267 404.278 423.144 404.144C423.021 404.011 422.955 403.835 422.959 403.654C422.948 391.838 421.825 380.05 419.605 368.444C419.579 368.311 419.592 368.174 419.642 368.048C419.691 367.922 419.776 367.813 419.886 367.733C419.995 367.654 420.126 367.608 420.261 367.6C420.396 367.593 420.53 367.624 420.648 367.69C422.929 368.938 424.891 369.417 425.24 369.013C426.078 368.015 418.752 360.483 417.419 358.168C417.387 358.11 417.363 358.048 417.349 357.983L417.245 357.554C417.744 357.085 421.736 361.497 423.234 360.548C424.421 359.785 423.613 355.827 421.736 353.062C421.547 352.783 418.457 348.331 415.747 349.069C415.655 349.098 415.557 349.108 415.46 349.099C415.364 349.089 415.27 349.06 415.185 349.014C415.099 348.967 415.025 348.904 414.964 348.828C414.904 348.751 414.86 348.664 414.834 348.57C412.305 339.824 409.177 331.263 405.471 322.947C385.752 279.207 337.017 218.139 266.89 214.471C266.77 214.465 266.653 214.428 266.551 214.364C266.449 214.3 266.364 214.212 266.306 214.107C266.247 214.002 266.216 213.883 266.215 213.763C266.214 213.643 266.244 213.524 266.301 213.418C268.941 208.677 271.013 203.831 269.346 202.413C267.529 200.856 261.59 203.706 259.045 207.439C258.535 208.184 258.115 208.987 257.792 209.83C257.371 211.044 257.193 212.33 257.268 213.613C257.271 213.708 257.255 213.803 257.222 213.892C257.188 213.981 257.137 214.063 257.072 214.132C257.006 214.201 256.927 214.256 256.84 214.295C256.753 214.334 256.659 214.354 256.564 214.356L255.321 214.391C255.213 214.395 255.105 214.374 255.005 214.33C254.906 214.286 254.818 214.22 254.747 214.137C253.085 212.115 251.034 209.375 249.642 209.795C248.679 210.084 248.115 211.876 248.07 214.247C248.067 214.42 248 214.586 247.882 214.713C247.764 214.84 247.603 214.919 247.431 214.935C159.228 223.779 118.991 321.141 114.749 331.871C114.085 333.563 113.047 336.178 111.834 339.597C109.081 347.473 106.833 355.516 105.102 363.678C105.079 363.782 105.034 363.881 104.968 363.966C104.903 364.051 104.819 364.12 104.723 364.167C104.627 364.215 104.521 364.241 104.414 364.243C104.307 364.244 104.201 364.222 104.104 364.177C103.217 363.808 102.276 363.584 101.319 363.513C95.5991 363.089 90.6881 368.334 91.3369 370.001C91.7562 371.069 94.3315 370.385 97.1413 370.295C97.304 370.29 97.4636 370.341 97.5935 370.439C97.7233 370.538 97.8158 370.677 97.8554 370.835C97.895 370.993 97.8794 371.16 97.8113 371.308C97.7431 371.455 97.6265 371.576 97.4807 371.648C95.0851 372.831 93.2385 374.528 93.3133 375.85C93.4331 378.066 99.0179 379.344 101.663 380.841C101.788 380.91 101.889 381.015 101.954 381.142C102.019 381.27 102.044 381.413 102.027 381.555C101.967 382.014 101.913 382.478 101.853 382.942C101.838 383.075 101.786 383.2 101.703 383.304C101.62 383.408 101.509 383.487 101.384 383.531C100.156 383.95 98.5038 384.464 97.3908 385.987C94.9803 389.246 96.3078 395.355 98.4289 395.914C98.8504 396 99.2891 395.929 99.6617 395.714C99.773 395.657 99.8974 395.63 100.022 395.636C100.147 395.643 100.268 395.681 100.373 395.749C100.479 395.817 100.564 395.911 100.621 396.022C100.679 396.133 100.706 396.258 100.7 396.383C99.5569 418.178 101.913 443.571 112.643 468.431C112.688 468.528 112.711 468.634 112.709 468.741C112.707 468.848 112.682 468.954 112.634 469.05C112.586 469.146 112.517 469.23 112.432 469.295C112.347 469.361 112.249 469.406 112.144 469.429C107.223 470.362 103.105 471.745 103.16 472.249C103.235 472.857 109.618 472.588 114.235 472.842C114.361 472.85 114.483 472.891 114.588 472.962C114.692 473.034 114.776 473.132 114.829 473.247C115.162 473.935 115.494 474.624 115.827 475.313C115.909 475.474 115.926 475.661 115.875 475.834C115.824 476.008 115.709 476.155 115.553 476.246C113.871 477.204 111.999 478.597 111.026 480.923C110.706 481.681 110.142 483.024 110.652 484.296C111.755 487.051 117.399 488.334 121.377 486.542C121.534 486.472 121.712 486.462 121.876 486.514C122.041 486.565 122.181 486.675 122.27 486.822C122.515 487.226 122.769 487.625 123.019 488.03L123.159 488.239C123.233 488.355 123.273 488.49 123.273 488.629C123.273 488.767 123.233 488.902 123.159 489.018C120.828 492.666 120.439 497.248 121.297 497.807C122.071 498.306 123.887 495.556 126.348 494.108C126.502 494.019 126.684 493.99 126.858 494.027C127.032 494.064 127.187 494.164 127.291 494.308C133.396 502.786 140.469 510.522 148.367 517.361C148.46 517.439 148.53 517.539 148.573 517.652C148.615 517.765 148.627 517.887 148.609 518.007C148.59 518.126 148.541 518.238 148.467 518.333C148.392 518.428 148.294 518.502 148.183 518.549C146.678 519.153 145.42 520.244 144.609 521.648C143.556 523.525 143.112 526.499 144.285 527.333C146.281 528.715 151.057 522.991 153.094 524.278C155.474 525.775 151.052 534.929 152.45 535.642C153.518 536.191 158.654 532.149 159.332 527.188C159.347 527.066 159.392 526.951 159.465 526.852C159.537 526.753 159.633 526.675 159.745 526.625C159.857 526.574 159.979 526.554 160.101 526.565C160.223 526.576 160.34 526.619 160.44 526.689C209.121 560.342 268.777 557.233 272.156 557.003C281.384 556.374 331.681 552.112 372.631 516.368C372.72 516.288 372.828 516.232 372.944 516.205C373.06 516.178 373.182 516.181 373.297 516.214C373.411 516.247 373.516 516.309 373.6 516.393C373.685 516.478 373.746 516.582 373.779 516.697C373.927 517.236 374.115 517.764 374.343 518.274C374.643 518.943 375.925 521.768 377.772 521.798C379.494 521.798 381.305 519.372 381.415 517.261C381.445 516.652 381.31 516.582 380.851 513.268C380.607 511.497 380.617 511.312 380.746 511.117C381.799 509.505 387.235 512.375 388.163 511.037C388.577 510.439 387.784 509.395 384.784 505.283C384.689 505.151 384.643 504.99 384.652 504.828C384.661 504.665 384.725 504.511 384.834 504.39C389.908 498.801 394.543 492.829 398.699 486.527C398.728 486.487 398.748 486.448 398.773 486.413C399.153 489.332 399.662 491.403 400.011 491.403C400.58 491.403 401.094 486.058 401.838 481.666C401.853 481.578 401.883 481.494 401.928 481.417C402.573 480.349 403.199 479.279 403.804 478.208C403.871 478.088 403.97 477.991 404.091 477.927C404.211 477.863 404.347 477.835 404.483 477.846C404.619 477.858 404.749 477.909 404.857 477.992C404.965 478.076 405.047 478.189 405.092 478.317C405.805 480.314 406.898 483.129 409.638 484.726C410.347 485.14 411.605 485.869 412.932 485.529C416.002 484.751 418.083 478.632 416.271 474.38C415.103 471.645 412.573 470.257 409.469 468.89C409.382 468.851 409.304 468.796 409.239 468.727C409.173 468.658 409.122 468.577 409.089 468.488C409.056 468.4 409.04 468.305 409.044 468.21C409.047 468.116 409.07 468.023 409.109 467.936C414.92 455.442 418.937 442.191 421.043 428.574C421.055 428.44 421.105 428.313 421.187 428.207C421.269 428.101 421.379 428.02 421.505 427.974C421.631 427.928 421.767 427.918 421.898 427.947C422.03 427.975 422.15 428.04 422.245 428.134C423.403 429.367 424.366 430.041 424.741 429.886C425.41 429.602 424.242 426.682 423.967 417.634C423.807 412.887 424.082 412.438 424.242 412.418C425.04 412.303 426.378 422.475 427.735 422.4C428.669 422.36 429.532 417.549 428.733 412.932Z" fill="#4EADAF"/>
<path d="M135.281 424.911C162.018 424.911 183.693 409.828 183.693 391.223C183.693 372.617 162.018 357.534 135.281 357.534C108.545 357.534 86.8701 372.617 86.8701 391.223C86.8701 409.828 108.545 424.911 135.281 424.911Z" fill="#E37A39"/>
<path d="M387.818 426.907C414.555 426.907 436.23 411.824 436.23 393.219C436.23 374.613 414.555 359.531 387.818 359.531C361.082 359.531 339.407 374.613 339.407 393.219C339.407 411.824 361.082 426.907 387.818 426.907Z" fill="#E37A39"/>
<path d="M174.569 369.508C206.226 369.508 231.889 345.069 231.889 314.923C231.889 284.776 206.226 260.338 174.569 260.338C142.912 260.338 117.249 284.776 117.249 314.923C117.249 345.069 142.912 369.508 174.569 369.508Z" fill="#E2E2E2"/>
<path d="M190.55 359.521C212.163 359.521 229.683 342.836 229.683 322.254C229.683 301.673 212.163 284.988 190.55 284.988C168.937 284.988 151.417 301.673 151.417 322.254C151.417 342.836 168.937 359.521 190.55 359.521Z" fill="black"/>
<path d="M182.393 298.86C184.186 293.659 178.109 286.846 168.819 283.644C159.529 280.441 150.544 282.062 148.751 287.263C146.958 292.464 153.036 299.277 162.326 302.479C171.616 305.682 180.6 304.061 182.393 298.86Z" fill="white"/>
<path d="M352.958 374.004C384.615 374.004 410.278 350.039 410.278 320.477C410.278 290.915 384.615 266.95 352.958 266.95C321.301 266.95 295.638 290.915 295.638 320.477C295.638 350.039 321.301 374.004 352.958 374.004Z" fill="#E2E2E2"/>
<path d="M334.771 359.606C356.384 359.606 373.904 343.245 373.904 323.063C373.904 302.88 356.384 286.52 334.771 286.52C313.158 286.52 295.638 302.88 295.638 323.063C295.638 343.245 313.158 359.606 334.771 359.606Z" fill="black"/>
<path d="M365.155 311.593C374.297 308.013 380.112 301.036 378.144 296.011C376.176 290.986 367.169 289.815 358.027 293.395C348.885 296.976 343.07 303.953 345.038 308.978C347.007 314.003 356.013 315.174 365.155 311.593Z" fill="white"/>
<path d="M319.903 258.946C309.882 254.923 300.717 249.031 292.898 241.583C288.958 237.857 285.379 233.768 282.207 229.37C279.049 224.948 276.322 220.233 274.062 215.291L273.234 213.43L272.475 211.533C271.941 210.285 271.552 208.978 271.093 207.7L270.429 205.779C270.194 205.14 270.049 204.476 269.855 203.822L269.306 201.861C269.136 201.207 268.917 200.563 268.807 199.894L267.973 195.902C267.729 194.569 267.554 193.227 267.339 191.909L267.19 190.911C267.145 190.576 267.12 190.237 267.085 189.913L266.89 187.886C266.835 187.213 266.746 186.544 266.726 185.865L266.646 183.834C266.193 173.034 267.849 162.249 271.522 152.082C269.03 162.414 268.171 173.072 268.976 183.669C269.391 188.918 270.256 194.121 271.562 199.221C271.886 200.488 272.28 201.746 272.635 203.009C272.829 203.633 272.974 204.276 273.204 204.89L273.867 206.747C274.322 207.98 274.706 209.242 275.235 210.44L275.984 212.257L276.792 214.048C278.936 218.84 281.516 223.424 284.498 227.743C285.995 229.899 287.557 232.02 289.244 234.042C290.931 236.063 292.673 238.034 294.515 239.926C301.959 247.523 310.52 253.937 319.903 258.946Z" fill="#29ABE2"/>
<path d="M282.501 240.504C280.729 236.611 279.687 232.426 279.427 228.156C279.197 223.85 279.619 219.534 280.68 215.355C281.808 211.187 283.423 207.167 285.491 203.377L287.138 200.607C287.667 199.664 288.311 198.8 288.924 197.922L290.791 195.292L292.787 192.796C293.446 191.948 294.19 191.174 294.914 190.381C295.637 189.587 296.341 188.784 297.119 188.045L299.4 185.789C300.189 185.065 300.982 184.347 301.786 183.643C305.007 180.839 308.401 178.24 311.947 175.862C319.012 171.126 326.594 167.211 334.546 164.194C327.042 168.033 319.841 172.437 313.005 177.369C309.627 179.845 306.38 182.495 303.278 185.31C300.175 188.094 297.274 191.096 294.599 194.293L292.603 196.704L290.781 199.234C289.498 200.881 288.52 202.728 287.397 204.46C285.333 208.059 283.66 211.869 282.406 215.824C281.222 219.813 280.593 223.946 280.535 228.106C280.52 232.318 281.184 236.504 282.501 240.504Z" fill="#29ABE2"/>
<path d="M366.617 172.868L360.708 168.875L365.669 162.976C366.1 162.464 366.379 161.841 366.475 161.179C366.57 160.517 366.478 159.841 366.21 159.228C365.942 158.614 365.507 158.089 364.956 157.709C364.404 157.33 363.757 157.113 363.089 157.082L353.871 156.633L353.821 148.907C353.816 148.237 353.625 147.583 353.267 147.016C352.91 146.45 352.402 145.995 351.799 145.703C351.197 145.411 350.525 145.293 349.859 145.362C349.193 145.432 348.56 145.686 348.032 146.097L343.54 149.591L339.652 143.347C339.298 142.779 338.792 142.322 338.191 142.026C337.591 141.73 336.919 141.609 336.253 141.675C335.587 141.741 334.953 141.992 334.422 142.399C333.891 142.807 333.485 143.355 333.249 143.981L329.66 153.519L321.306 150.863C320.668 150.661 319.986 150.641 319.337 150.805C318.688 150.97 318.098 151.313 317.634 151.795C317.17 152.278 316.85 152.88 316.71 153.535C316.571 154.189 316.617 154.87 316.844 155.5L318.695 160.625L312.976 162.048C312.327 162.209 311.735 162.549 311.269 163.028C310.803 163.508 310.479 164.108 310.336 164.762C310.193 165.415 310.235 166.096 310.458 166.727C310.681 167.357 311.076 167.913 311.598 168.331L318.985 174.226L313.121 182.406C312.733 182.95 312.505 183.591 312.462 184.258C312.419 184.925 312.563 185.59 312.878 186.179C313.193 186.769 313.666 187.258 314.244 187.593C314.822 187.928 315.482 188.095 316.15 188.075L322.873 187.861L322.493 193.186C322.446 193.854 322.587 194.521 322.899 195.113C323.211 195.706 323.683 196.199 324.261 196.537C324.839 196.875 325.5 197.044 326.169 197.026C326.838 197.008 327.489 196.803 328.048 196.435L334.746 192.023L340.57 199.933C340.969 200.466 341.508 200.877 342.127 201.121C342.747 201.365 343.421 201.432 344.076 201.315C344.731 201.197 345.341 200.9 345.837 200.456C346.332 200.012 346.695 199.439 346.884 198.801L349.055 191.314L355.044 193.745C355.664 193.996 356.342 194.068 357.002 193.954C357.661 193.84 358.275 193.544 358.775 193.099C359.275 192.654 359.641 192.078 359.831 191.437C360.021 190.795 360.027 190.113 359.85 189.468L357.759 181.872L365.709 179.231C366.343 179.022 366.907 178.639 367.335 178.127C367.764 177.614 368.041 176.993 368.136 176.331C368.23 175.67 368.138 174.995 367.87 174.383C367.602 173.772 367.168 173.247 366.617 172.868Z" fill="#F3BD37"/>
<path opacity="0.47" d="M303.768 153.793L295.977 148.513L302.51 140.747C303.077 140.073 303.444 139.253 303.57 138.381C303.696 137.509 303.575 136.62 303.221 135.813C302.868 135.006 302.295 134.314 301.569 133.815C300.843 133.317 299.991 133.031 299.111 132.991L286.993 132.437L286.928 122.271C286.922 121.39 286.67 120.528 286.2 119.782C285.73 119.037 285.06 118.438 284.268 118.053C283.475 117.668 282.591 117.512 281.714 117.603C280.838 117.694 280.004 118.028 279.307 118.568L273.398 123.159L268.283 114.939C267.817 114.191 267.151 113.587 266.361 113.197C265.57 112.808 264.686 112.647 263.809 112.734C262.931 112.821 262.096 113.151 261.397 113.688C260.698 114.225 260.163 114.947 259.853 115.773L255.137 128.33L244.157 124.836C243.317 124.57 242.42 124.544 241.566 124.762C240.712 124.979 239.936 125.43 239.325 126.065C238.714 126.699 238.293 127.492 238.109 128.354C237.925 129.215 237.985 130.111 238.283 130.94L240.688 137.668L233.157 139.539C232.301 139.751 231.522 140.199 230.908 140.83C230.294 141.462 229.868 142.254 229.68 143.115C229.492 143.976 229.549 144.872 229.844 145.703C230.139 146.533 230.661 147.265 231.35 147.814L241.077 155.565L233.362 166.33C232.843 167.046 232.536 167.894 232.476 168.776C232.416 169.658 232.604 170.54 233.021 171.32C233.437 172.1 234.064 172.748 234.83 173.189C235.596 173.63 236.471 173.848 237.354 173.816L246.203 173.532L245.704 180.549C245.641 181.428 245.825 182.308 246.236 183.088C246.647 183.868 247.268 184.517 248.029 184.962C248.79 185.407 249.661 185.63 250.542 185.606C251.423 185.582 252.28 185.312 253.016 184.826L261.829 179.012L269.495 189.428C270.018 190.138 270.73 190.687 271.549 191.014C272.369 191.34 273.263 191.431 274.131 191.275C274.999 191.119 275.807 190.723 276.461 190.132C277.116 189.541 277.592 188.778 277.835 187.93L280.675 178.093L288.56 181.293C289.377 181.624 290.27 181.721 291.139 181.571C292.008 181.422 292.817 181.032 293.476 180.446C294.134 179.86 294.616 179.102 294.865 178.256C295.115 177.411 295.123 176.513 294.889 175.663L292.134 165.681L302.615 162.188C303.452 161.91 304.194 161.403 304.758 160.724C305.322 160.046 305.684 159.223 305.804 158.349C305.924 157.475 305.797 156.585 305.437 155.78C305.077 154.975 304.499 154.286 303.768 153.793Z" fill="#F3BD37"/>
<path opacity="0.47" d="M376.634 174.255L368.843 168.975L375.377 161.209C375.944 160.535 376.311 159.715 376.437 158.843C376.562 157.971 376.441 157.082 376.088 156.275C375.734 155.468 375.162 154.776 374.436 154.277C373.709 153.779 372.858 153.493 371.978 153.453L359.86 152.899L359.795 142.733C359.789 141.852 359.537 140.99 359.066 140.244C358.596 139.499 357.927 138.9 357.135 138.515C356.342 138.13 355.457 137.974 354.581 138.065C353.704 138.156 352.871 138.49 352.174 139.03L346.265 143.621L341.149 135.401C340.684 134.653 340.018 134.049 339.227 133.66C338.437 133.27 337.553 133.109 336.675 133.196C335.798 133.283 334.962 133.613 334.263 134.15C333.564 134.688 333.03 135.41 332.72 136.235L328.003 148.792L317.023 145.298C316.184 145.032 315.286 145.007 314.432 145.224C313.579 145.441 312.803 145.892 312.192 146.527C311.581 147.162 311.16 147.954 310.976 148.816C310.791 149.677 310.851 150.573 311.149 151.402L313.555 158.13L306.024 160.001C305.168 160.213 304.389 160.661 303.775 161.293C303.16 161.924 302.735 162.716 302.547 163.577C302.359 164.438 302.416 165.335 302.711 166.165C303.006 166.996 303.528 167.727 304.217 168.276L313.944 176.027L306.228 186.792C305.71 187.509 305.403 188.356 305.343 189.238C305.283 190.12 305.471 191.002 305.887 191.782C306.303 192.562 306.93 193.21 307.696 193.651C308.463 194.093 309.337 194.31 310.221 194.278L319.07 193.994L318.571 201.011C318.508 201.89 318.692 202.77 319.103 203.55C319.514 204.33 320.135 204.979 320.896 205.424C321.657 205.869 322.527 206.092 323.408 206.068C324.29 206.044 325.147 205.774 325.882 205.288L334.696 199.474L342.362 209.89C342.885 210.6 343.597 211.15 344.416 211.476C345.235 211.803 346.13 211.893 346.998 211.737C347.866 211.581 348.673 211.185 349.328 210.594C349.982 210.003 350.458 209.24 350.702 208.393L353.542 198.556L361.427 201.755C362.244 202.087 363.137 202.183 364.006 202.033C364.874 201.884 365.684 201.494 366.342 200.908C367.001 200.322 367.482 199.564 367.732 198.718C367.982 197.873 367.99 196.975 367.755 196.125L365.001 186.143L375.481 182.65C376.318 182.372 377.061 181.865 377.625 181.186C378.189 180.508 378.551 179.685 378.671 178.811C378.791 177.937 378.664 177.047 378.304 176.242C377.944 175.437 377.365 174.749 376.634 174.255Z" fill="#F3BD37"/>
<path d="M294.25 153.404L288.341 149.412L293.302 143.513C293.732 143 294.011 142.378 294.107 141.715C294.202 141.053 294.111 140.377 293.842 139.764C293.574 139.151 293.14 138.625 292.588 138.246C292.036 137.867 291.39 137.649 290.721 137.618L281.503 137.169L281.453 129.443C281.449 128.774 281.257 128.119 280.9 127.553C280.543 126.987 280.034 126.532 279.432 126.239C278.829 125.947 278.157 125.829 277.492 125.899C276.826 125.968 276.193 126.223 275.664 126.633L271.172 130.127L267.284 123.884C266.93 123.316 266.424 122.858 265.824 122.562C265.223 122.267 264.552 122.145 263.886 122.211C263.22 122.277 262.585 122.528 262.054 122.935C261.523 123.343 261.117 123.891 260.881 124.517L257.293 134.055L248.938 131.4C248.3 131.197 247.618 131.177 246.969 131.342C246.32 131.507 245.731 131.849 245.266 132.332C244.802 132.814 244.482 133.417 244.343 134.071C244.203 134.726 244.249 135.407 244.476 136.036L246.328 141.162L240.608 142.584C239.959 142.746 239.368 143.085 238.901 143.565C238.435 144.044 238.112 144.645 237.968 145.298C237.825 145.952 237.868 146.632 238.091 147.263C238.314 147.894 238.708 148.45 239.231 148.868L246.617 154.762L240.753 162.942C240.365 163.486 240.137 164.128 240.094 164.794C240.051 165.461 240.195 166.127 240.51 166.716C240.825 167.305 241.298 167.795 241.876 168.13C242.454 168.465 243.114 168.632 243.782 168.612L250.505 168.397L250.126 173.722C250.078 174.39 250.219 175.058 250.531 175.65C250.844 176.242 251.316 176.735 251.893 177.073C252.471 177.411 253.132 177.581 253.801 177.563C254.471 177.545 255.122 177.34 255.681 176.971L262.378 172.559L268.203 180.47C268.601 181.002 269.141 181.414 269.76 181.658C270.379 181.902 271.054 181.969 271.709 181.851C272.364 181.733 272.973 181.436 273.469 180.992C273.965 180.548 274.327 179.975 274.516 179.337L276.687 171.851L282.676 174.281C283.296 174.532 283.975 174.605 284.634 174.491C285.293 174.376 285.908 174.08 286.408 173.635C286.908 173.19 287.273 172.615 287.463 171.973C287.653 171.331 287.66 170.649 287.482 170.004L285.391 162.408L293.341 159.768C293.976 159.558 294.539 159.176 294.968 158.663C295.396 158.151 295.674 157.529 295.768 156.868C295.862 156.206 295.77 155.532 295.502 154.92C295.234 154.308 294.8 153.783 294.25 153.404Z" fill="#F3BD37"/>
<path d="M238.582 204.171C240.399 198.531 239.865 189.198 226.629 173.672C226.128 173.081 225.77 172.382 225.584 171.63C225.397 170.878 225.386 170.093 225.552 169.337C225.719 168.58 226.057 167.872 226.542 167.267C227.026 166.663 227.643 166.178 228.346 165.851C229.077 165.512 229.879 165.354 230.684 165.389C231.489 165.424 232.273 165.651 232.972 166.052C233.671 166.453 234.264 167.015 234.701 167.692C235.138 168.37 235.406 169.142 235.483 169.944C237.479 189.623 244.511 199.195 250.84 204.321C284.278 231.406 361.063 186.079 411.695 207.315C416.306 209.252 429.243 214.682 429.387 222.348C429.537 230.597 414.789 236.916 412.339 237.969C377.093 253.076 334.925 226.22 332.23 231.361C329.535 236.502 372.756 258.426 369.028 270.634C366.697 278.27 346.2 281.479 328.602 277.287C293.666 268.962 278.349 233.447 268.303 238.233C262.708 240.894 267.594 251.848 260.756 270.32C259.584 273.489 248.948 302.201 232.269 302.141C219.647 302.101 206.691 285.587 206.611 270.669C206.496 250.067 230.961 237.395 227.517 232.11C224.967 228.197 208.757 230.847 196.26 240.404C177.429 254.808 182.285 273.219 167.687 279.383C153.423 285.372 134.787 273.758 125.973 265.588C119.485 259.599 111.695 252.353 112.942 245.505C117.344 221.344 228.226 236.392 238.582 204.171Z" fill="#C4D650"/>
<path d="M63.8403 254.948C62.1413 254.088 60.735 252.748 59.7966 251.094L59.7817 251.068C52.4905 238.261 35.2372 234.661 23.2058 244.4C15.7366 250.445 12.4285 262.778 15.8561 271.712C16.5353 273.489 17.4158 275.182 18.4805 276.759C21.1816 280.749 23.4607 285.013 25.1659 289.52C25.4792 290.348 25.8352 291.166 26.2339 291.975C33.5654 306.827 52.3381 311.937 66.2899 302.882C78.5508 294.924 82.6432 278.725 75.3492 265.914C72.567 261.027 68.5153 257.313 63.8403 254.948Z" fill="#CE9C2C"/>
<path d="M62.7478 257.082C61.1857 256.291 59.8928 255.059 59.0299 253.539C59.0253 253.531 59.0207 253.523 59.016 253.514C52.3123 241.739 36.45 238.43 25.3883 247.383C18.522 252.941 15.4797 264.28 18.6309 272.494C19.2554 274.128 20.0652 275.685 21.0445 277.135C23.5277 280.803 25.6232 284.724 27.191 288.867C27.4792 289.629 27.8065 290.381 28.1728 291.125C34.9128 304.778 52.1723 309.477 64.9993 301.151C76.2727 293.834 80.0344 278.942 73.3286 267.163C70.7703 262.669 67.0452 259.255 62.7478 257.082Z" fill="#F4BE38"/>
<path d="M23.9428 262.164C24.5145 261.838 24.7152 261.113 24.3912 260.544C24.0671 259.975 23.341 259.777 22.7693 260.103C22.1977 260.428 21.9969 261.153 22.321 261.723C22.645 262.292 23.3712 262.489 23.9428 262.164Z" fill="#CE9C2C"/>
<path d="M73.8112 278.856C74.3829 278.531 74.5836 277.806 74.2596 277.236C73.9355 276.667 73.2094 276.47 72.6378 276.795C72.0661 277.12 71.8654 277.846 72.1894 278.415C72.5135 278.984 73.2396 279.182 73.8112 278.856Z" fill="#CE9C2C"/>
<path d="M72.932 285.647C73.5036 285.322 73.7044 284.597 73.3803 284.028C73.0563 283.458 72.3301 283.261 71.7585 283.586C71.1868 283.912 70.9861 284.637 71.3101 285.206C71.6342 285.775 72.3603 285.973 72.932 285.647Z" fill="#CE9C2C"/>
<path d="M70.6478 281.518C71.2195 281.193 71.4202 280.467 71.0961 279.898C70.7721 279.329 70.046 279.131 69.4743 279.457C68.9026 279.782 68.7019 280.508 69.026 281.077C69.35 281.646 70.0761 281.844 70.6478 281.518Z" fill="#CE9C2C"/>
<path d="M70.4198 273.492C70.9914 273.167 71.1922 272.442 70.8681 271.873C70.5441 271.303 69.8179 271.106 69.2463 271.431C68.6746 271.757 68.4739 272.482 68.7979 273.051C69.122 273.62 69.8481 273.818 70.4198 273.492Z" fill="#CE9C2C"/>
<path d="M73.3718 273.635C73.9435 273.309 74.1442 272.584 73.8201 272.015C73.4961 271.445 72.77 271.248 72.1983 271.573C71.6266 271.899 71.4259 272.624 71.75 273.193C72.074 273.762 72.8001 273.96 73.3718 273.635Z" fill="#CE9C2C"/>
<path d="M69.6181 276.388C70.1898 276.063 70.3905 275.338 70.0665 274.769C69.7424 274.199 69.0163 274.002 68.4446 274.327C67.873 274.653 67.6722 275.378 67.9963 275.947C68.3203 276.516 69.0465 276.714 69.6181 276.388Z" fill="#CE9C2C"/>
<path d="M69.5279 287.522C70.0996 287.196 70.3003 286.471 69.9763 285.902C69.6522 285.333 68.9261 285.135 68.3544 285.461C67.7828 285.786 67.582 286.511 67.9061 287.08C68.2301 287.65 68.9563 287.847 69.5279 287.522Z" fill="#CE9C2C"/>
<path d="M69.1048 293.024C69.6765 292.698 69.8772 291.973 69.5532 291.404C69.2291 290.835 68.503 290.637 67.9313 290.963C67.3597 291.288 67.1589 292.013 67.483 292.583C67.807 293.152 68.5332 293.349 69.1048 293.024Z" fill="#CE9C2C"/>
<path d="M71.8132 291.416C72.3849 291.09 72.5856 290.365 72.2615 289.796C71.9375 289.226 71.2114 289.029 70.6397 289.354C70.068 289.68 69.8673 290.405 70.1914 290.974C70.5154 291.543 71.2415 291.741 71.8132 291.416Z" fill="#CE9C2C"/>
<path d="M67.5605 290.197C68.1322 289.871 68.3329 289.146 68.0089 288.577C67.6848 288.007 66.9587 287.81 66.387 288.135C65.8154 288.461 65.6146 289.186 65.9387 289.755C66.2627 290.324 66.9888 290.522 67.5605 290.197Z" fill="#CE9C2C"/>
<path d="M65.2566 295.149C65.8282 294.824 66.029 294.099 65.7049 293.53C65.3809 292.96 64.6547 292.763 64.0831 293.088C63.5114 293.414 63.3107 294.139 63.6347 294.708C63.9588 295.277 64.6849 295.475 65.2566 295.149Z" fill="#CE9C2C"/>
<path d="M62.036 277.449C62.6076 277.124 62.8084 276.399 62.4843 275.83C62.1603 275.26 61.4342 275.063 60.8625 275.388C60.2908 275.714 60.0901 276.439 60.4141 277.008C60.7382 277.577 61.4643 277.775 62.036 277.449Z" fill="#CE9C2C"/>
<path d="M51.4279 256.972C51.9996 256.646 52.2003 255.921 51.8763 255.352C51.5522 254.783 50.8261 254.585 50.2545 254.911C49.6828 255.236 49.4821 255.961 49.8061 256.531C50.1302 257.1 50.8563 257.297 51.4279 256.972Z" fill="#CE9C2C"/>
<path d="M37.0566 285.121C37.6283 284.795 37.829 284.07 37.505 283.501C37.1809 282.932 36.4548 282.734 35.8831 283.059C35.3114 283.385 35.1107 284.11 35.4348 284.679C35.7588 285.248 36.4849 285.446 37.0566 285.121Z" fill="#CE9C2C"/>
<path d="M47.761 299.95C48.3326 299.624 48.5333 298.899 48.2093 298.33C47.8852 297.761 47.1591 297.563 46.5875 297.888C46.0158 298.214 45.8151 298.939 46.1391 299.508C46.4632 300.078 47.1893 300.275 47.761 299.95Z" fill="#CE9C2C"/>
<path d="M64.1771 299.144C64.7488 298.819 64.9495 298.094 64.6254 297.524C64.3014 296.955 63.5753 296.758 63.0036 297.083C62.4319 297.409 62.2312 298.134 62.5553 298.703C62.8793 299.272 63.6054 299.47 64.1771 299.144Z" fill="#CE9C2C"/>
<path d="M67.4964 297.187C68.0681 296.862 68.2688 296.136 67.9448 295.567C67.6207 294.998 66.8946 294.8 66.3229 295.126C65.7513 295.451 65.5505 296.177 65.8746 296.746C66.1986 297.315 66.9248 297.512 67.4964 297.187Z" fill="#CE9C2C"/>
<path d="M29.3178 282.201C34.4056 278.666 35.8097 271.891 32.454 267.07C29.0983 262.248 22.2536 261.205 17.1658 264.74C12.0781 268.275 10.6739 275.049 14.0296 279.871C17.3853 284.693 24.2301 285.736 29.3178 282.201Z" fill="#E2E2E2"/>
<path d="M30.7746 278.818C34.2479 276.405 35.2065 271.78 32.9156 268.489C30.6247 265.197 25.9519 264.485 22.4786 266.898C19.0053 269.311 18.0467 273.936 20.3376 277.228C22.6285 280.519 27.3013 281.232 30.7746 278.818Z" fill="black"/>
<path d="M22.7094 270.027C22.4186 268.995 20.6837 268.584 18.8345 269.109C16.9852 269.634 15.7218 270.897 16.0126 271.929C16.3034 272.961 18.0383 273.372 19.8876 272.847C21.7369 272.322 23.0003 271.059 22.7094 270.027Z" fill="white"/>
<path d="M58.4876 263C63.5754 259.465 65.0324 252.766 61.7419 248.038C58.4515 243.31 51.6596 242.343 46.5718 245.878C41.4841 249.413 40.0271 256.111 43.3175 260.839C46.608 265.567 53.3999 266.534 58.4876 263Z" fill="#E2E2E2"/>
<path d="M53.9618 262.727C57.4352 260.314 58.4298 255.741 56.1833 252.513C53.9369 249.285 49.3002 248.625 45.8268 251.038C42.3535 253.451 41.3589 258.024 43.6053 261.252C45.8518 264.48 50.4885 265.141 53.9618 262.727Z" fill="black"/>
<path d="M53.5015 251.655C54.5722 250.062 54.7302 248.296 53.8544 247.712C52.9785 247.128 51.4005 247.947 50.3298 249.54C49.2591 251.134 49.1011 252.899 49.977 253.483C50.8528 254.067 52.4308 253.249 53.5015 251.655Z" fill="white"/>
</svg>
