<svg width="267" height="293" viewBox="0 0 267 293" fill="none" xmlns="http://www.w3.org/2000/svg">
<ellipse cx="127.5" cy="279" rx="78.5" ry="14" fill="#7C6BAF" fill-opacity="0.43"/>
<circle cx="126" cy="126" r="111" fill="#7C6BAF"/>
<path d="M229.473 58.0919C229.236 57.6298 227.96 55.0281 229.018 51.9779C229.238 51.3424 230.328 48.473 233.383 47.3992C233.744 47.2718 236.594 46.323 239.109 47.9622C240.85 49.0972 241.412 50.807 241.959 52.4781C242.402 53.8286 243.935 58.5006 241.554 60.5711C240.85 61.184 240.512 60.7438 237.894 61.4578C235.236 62.1826 234.839 62.8082 233.789 62.7216C232.688 62.6306 231.148 61.7791 229.473 58.0919Z" fill="#AEBC26"/>
<path d="M248.034 58.2887C248.5 58.0622 251.122 56.8413 254.118 57.9811C254.742 58.2186 257.558 59.3863 258.533 62.4885C258.648 62.8559 259.505 65.7462 257.801 68.2384C256.621 69.963 254.908 70.4851 253.232 70.9957C251.876 71.407 247.19 72.8337 245.208 70.3869C244.621 69.6616 245.067 69.3343 244.438 66.6812C243.798 63.9875 243.189 63.5723 243.307 62.518C243.43 61.4125 244.321 59.8833 248.034 58.2887Z" fill="#AEBC26"/>
<path d="M240.619 50.9058C240.912 50.477 242.589 48.1057 245.757 47.5945C246.417 47.487 249.441 47.0902 251.819 49.2902C252.1 49.5508 254.273 51.6265 254.022 54.6395C253.848 56.7245 252.616 58.0348 251.411 59.3164C250.438 60.3516 247.07 63.9332 244.138 62.8056C243.27 62.472 243.494 61.962 241.639 59.9798C239.753 57.9657 239.02 57.9114 238.6 56.9378C238.161 55.9178 238.181 54.1466 240.619 50.9058Z" fill="#C4D650"/>
<path fill-rule="evenodd" clip-rule="evenodd" d="M221.894 81.7323C221.196 84.7535 220.762 87.6101 220.931 89.6531C221.01 90.6049 221.194 92.8251 222.668 93.6832C223.87 94.3813 225.368 93.9308 226.335 93.5878C234.506 90.6914 243.525 82.5457 245.743 80.5417C246.012 80.2993 246.181 80.1467 246.237 80.1042C246.237 80.1029 246.245 80.0974 246.256 80.0886C246.267 80.081 246.28 80.071 246.295 80.0592C246.407 79.9726 246.641 79.7867 246.913 79.5334C247.051 79.4044 247.185 79.2722 247.314 79.1368C247.446 78.9981 247.578 78.86 247.713 78.724C248.082 78.35 248.428 77.9535 248.748 77.5368C240.382 81.968 230.604 82.5322 221.894 81.7323Z" fill="#D86627"/>
<path fill-rule="evenodd" clip-rule="evenodd" d="M248.688 77.5858C248.851 77.3738 249.008 77.1566 249.157 76.9344C252.992 71.2517 251.611 63.5622 246.1 59.6107C240.22 55.391 231.958 57.0842 228.15 63.2855C227.893 63.7042 227.661 64.1374 227.454 64.583C227.387 64.729 227.315 64.8732 227.243 65.0175L227.229 65.044C226.983 65.526 226.78 66.0286 226.621 66.5462C225.968 68.278 223.31 75.3972 221.834 81.7814C230.544 82.5813 240.322 82.0171 248.688 77.5858Z" fill="#E27B38"/>
<path d="M224.088 73.4373C227.357 75.1971 231.378 74.0571 233.069 70.891C234.76 67.7249 233.48 63.7317 230.211 61.9719C226.942 60.2121 222.921 61.3521 221.23 64.5182C219.539 67.6843 220.819 71.6775 224.088 73.4373Z" fill="#E2E2E2"/>
<path d="M226.304 73.2726C228.536 74.474 231.281 73.6957 232.435 71.5342C233.59 69.3727 232.716 66.6466 230.484 65.4452C228.253 64.2438 225.507 65.0221 224.353 67.1836C223.199 69.3451 224.072 72.0712 226.304 73.2726Z" fill="black"/>
<path d="M228.862 66.462C229.338 66.0183 229.089 64.9672 228.306 64.1142C227.523 63.2613 226.502 62.9296 226.027 63.3733C225.551 63.817 225.8 64.8682 226.583 65.7211C227.366 66.5741 228.387 66.9058 228.862 66.462Z" fill="white"/>
<path d="M242.324 83.8063C245.593 85.5662 249.588 84.4761 251.246 81.3715C252.904 78.2669 251.597 74.3235 248.328 72.5636C245.059 70.8037 241.064 71.8938 239.406 74.9984C237.748 78.103 239.054 82.0465 242.324 83.8063Z" fill="#E2E2E2"/>
<path d="M241.246 81.2833C243.478 82.4847 246.205 81.7405 247.337 79.621C248.469 77.5015 247.577 74.8093 245.345 73.6079C243.113 72.4065 240.386 73.1507 239.254 75.2702C238.122 77.3897 239.014 80.0818 241.246 81.2833Z" fill="black"/>
<path d="M247.089 77.9357C248.236 78.0691 249.229 77.6606 249.307 77.0232C249.385 76.3859 248.519 75.7611 247.372 75.6277C246.225 75.4943 245.232 75.9028 245.154 76.5401C245.076 77.1775 245.943 77.8023 247.089 77.9357Z" fill="white"/>
<g clip-path="url(#clip0_329_573)">
<path d="M122.35 37.3114C130.12 33.1721 133.028 23.453 128.846 15.6033C124.664 7.7535 114.975 4.74557 107.206 8.88488C99.436 13.0242 96.5275 22.7433 100.709 30.593C104.891 38.4428 114.58 41.4507 122.35 37.3114Z" fill="#D86627"/>
<path d="M121.437 35.7618C128.538 31.9788 131.196 23.0964 127.374 15.9224C123.552 8.74844 114.698 5.99946 107.597 9.78242C100.496 13.5654 97.8378 22.4478 101.66 29.6218C105.482 36.7958 114.336 39.5447 121.437 35.7618Z" fill="#E37A39"/>
<path d="M115.891 33.9663C116.447 33.6698 116.656 32.9737 116.356 32.4114C116.057 31.8492 115.363 31.6337 114.806 31.9302C114.25 32.2267 114.041 32.9228 114.341 33.4851C114.64 34.0473 115.334 34.2628 115.891 33.9663Z" fill="#E28B5A"/>
<path d="M121.365 11.9734C121.921 11.6769 122.129 10.9807 121.83 10.4185C121.53 9.85626 120.836 9.64082 120.28 9.9373C119.723 10.2338 119.515 10.9299 119.815 11.4922C120.114 12.0544 120.808 12.2698 121.365 11.9734Z" fill="#E28B5A"/>
<path d="M118.132 13.4696C118.688 13.1731 118.896 12.477 118.597 11.9147C118.297 11.3525 117.603 11.137 117.047 11.4335C116.49 11.73 116.282 12.4261 116.582 12.9884C116.881 13.5506 117.575 13.7661 118.132 13.4696Z" fill="#E28B5A"/>
<path d="M123.885 14.2754C124.441 13.9789 124.649 13.2827 124.35 12.7205C124.05 12.1583 123.356 11.9428 122.8 12.2393C122.243 12.5358 122.035 13.2319 122.335 13.7942C122.634 14.3564 123.328 14.5718 123.885 14.2754Z" fill="#E28B5A"/>
<path d="M115.515 36.856C116.071 36.5596 116.279 35.8634 115.98 35.3012C115.68 34.739 114.986 34.5235 114.43 34.82C113.873 35.1165 113.665 35.8126 113.965 36.3748C114.264 36.9371 114.958 37.1525 115.515 36.856Z" fill="#E28B5A"/>
<path d="M112.003 35.962C112.56 35.6655 112.768 34.9694 112.469 34.4072C112.169 33.8449 111.475 33.6295 110.919 33.9259C110.362 34.2224 110.154 34.9186 110.453 35.4808C110.753 36.043 111.447 36.2585 112.003 35.962Z" fill="#E28B5A"/>
<path d="M110.809 21.68C109.83 19.1347 106.889 17.8912 104.24 18.9024C101.591 19.9136 100.237 22.7967 101.216 25.342C102.195 27.8872 105.136 29.1308 107.785 28.1196C110.434 27.1083 111.788 24.2252 110.809 21.68Z" fill="#E2E2E2"/>
<path d="M110.862 22.3694C110.194 20.6318 108.186 19.7828 106.378 20.4731C104.569 21.1634 103.645 23.1317 104.314 24.8693C104.982 26.607 106.99 27.456 108.798 26.7657C110.606 26.0753 111.531 24.1071 110.862 22.3694Z" fill="black"/>
<path d="M106.145 21.9047C106.126 21.4083 105.396 21.0272 104.515 21.0536C103.634 21.08 102.935 21.5038 102.953 22.0002C102.972 22.4966 103.702 22.8777 104.583 22.8513C105.464 22.8249 106.164 22.4011 106.145 21.9047Z" fill="white"/>
<path d="M125.916 16.4497C124.956 13.9538 122.031 12.7503 119.382 13.7615C116.733 14.7728 115.364 17.6158 116.324 20.1117C117.284 22.6076 120.209 23.8111 122.858 22.7999C125.507 21.7886 126.876 18.9456 125.916 16.4497Z" fill="#E2E2E2"/>
<path d="M122.956 17.83C122.301 16.1261 120.304 15.3044 118.495 15.9948C116.687 16.6851 115.752 18.626 116.408 20.3299C117.063 22.0339 119.06 22.8555 120.869 22.1652C122.677 21.4749 123.612 19.534 122.956 17.83Z" fill="black"/>
<path d="M121.851 17.1422C122.5 16.5478 122.76 15.7729 122.432 15.4114C122.104 15.0498 121.312 15.2386 120.664 15.833C120.015 16.4273 119.755 17.2023 120.083 17.5638C120.411 17.9253 121.203 17.7366 121.851 17.1422Z" fill="white"/>
<path d="M112.434 5.25442C111.323 5.53237 110.396 6.12379 109.766 6.87272C109.364 6.88928 108.97 6.98718 108.608 7.16058C108.246 7.33398 107.923 7.57932 107.659 7.88192C107.043 7.82309 106.422 7.87051 105.824 8.02214C103.411 8.62596 101.861 10.7072 102.363 12.6713C102.865 14.6354 105.227 15.7368 107.64 15.1327C108.064 15.0272 108.473 14.8712 108.86 14.6679C110.064 15.6123 111.562 15.8888 112.771 15.2448C113.812 14.6901 114.406 13.576 114.479 12.3017C116.76 11.6267 118.196 9.61619 117.71 7.71524C117.209 5.75243 114.847 4.6504 112.434 5.25442Z" fill="#C4D650"/>
</g>
<g clip-path="url(#clip1_329_573)">
<path d="M255.37 181.34C255.263 180.586 255.334 179.817 255.578 179.096C256.611 175.974 256.361 172.57 254.884 169.633C253.407 166.695 250.823 164.464 247.702 163.432C244.58 162.399 241.176 162.649 238.238 164.126C235.301 165.603 233.07 168.187 232.038 171.308C231.893 171.745 231.638 172.138 231.296 172.446C229.424 174.118 228.017 176.245 227.21 178.621C226.404 180.997 226.226 183.542 226.694 186.007C227.163 188.473 228.261 190.775 229.882 192.69C231.504 194.605 233.594 196.068 235.948 196.936C238.303 197.804 240.842 198.049 243.318 197.645C245.795 197.241 248.125 196.203 250.082 194.633C252.039 193.062 253.556 191.011 254.485 188.68C255.415 186.349 255.725 183.817 255.387 181.331L255.37 181.34Z" fill="#6B7227"/>
<path d="M253.955 181.436C253.858 180.758 253.92 180.066 254.138 179.416C254.936 176.646 254.631 173.673 253.286 171.123C251.942 168.572 249.662 166.641 246.925 165.734C244.187 164.828 241.206 165.016 238.604 166.259C236.002 167.502 233.983 169.704 232.969 172.404C232.836 172.797 232.603 173.15 232.293 173.427C230.598 174.928 229.321 176.843 228.586 178.985C227.852 181.127 227.685 183.423 228.102 185.649C228.519 187.874 229.506 189.954 230.967 191.685C232.427 193.415 234.311 194.737 236.435 195.523C238.559 196.308 240.85 196.529 243.085 196.165C245.32 195.801 247.423 194.864 249.187 193.445C250.952 192.026 252.319 190.174 253.154 188.069C253.99 185.964 254.266 183.679 253.955 181.436Z" fill="#C4D650"/>
<path d="M239.2 188.613C241.65 189.423 244.488 187.505 245.539 184.327C246.59 181.15 245.457 177.917 243.007 177.106C240.558 176.296 237.72 178.215 236.668 181.392C235.617 184.57 236.75 187.803 239.2 188.613Z" fill="#844019"/>
<path d="M234.406 180.394C236.84 180.962 239.252 179.544 239.794 177.226C240.335 174.908 238.801 172.567 236.366 171.999C233.932 171.43 231.52 172.849 230.978 175.167C230.437 177.485 231.971 179.825 234.406 180.394Z" fill="#E2E2E2"/>
<path d="M235.812 179.918C237.475 180.306 239.122 179.336 239.492 177.752C239.862 176.168 238.815 174.569 237.152 174.181C235.49 173.793 233.842 174.762 233.472 176.346C233.102 177.93 234.15 179.529 235.812 179.918Z" fill="black"/>
<path d="M234.662 175.028C235.32 175.441 236.041 175.478 236.273 175.11C236.505 174.741 236.159 174.107 235.502 173.694C234.844 173.28 234.123 173.243 233.891 173.612C233.659 173.98 234.005 174.614 234.662 175.028Z" fill="white"/>
<path d="M248.051 183.95C250.485 184.519 252.889 183.135 253.421 180.86C253.952 178.584 252.409 176.279 249.975 175.71C247.541 175.142 245.137 176.525 244.605 178.801C244.074 181.076 245.616 183.381 248.051 183.95Z" fill="#E2E2E2"/>
<path d="M246.91 182.515C248.573 182.903 250.214 181.96 250.576 180.409C250.939 178.857 249.885 177.285 248.223 176.897C246.56 176.508 244.919 177.451 244.556 179.003C244.194 180.554 245.248 182.127 246.91 182.515Z" fill="black"/>
<path d="M250.101 179.374C250.868 179.263 251.439 178.83 251.378 178.407C251.317 177.984 250.646 177.731 249.879 177.842C249.112 177.953 248.541 178.386 248.602 178.809C248.663 179.232 249.334 179.485 250.101 179.374Z" fill="white"/>
</g>
<path d="M106.924 227.688C103.682 232.147 98.8056 235.142 93.3619 236.017L93.2218 236.038C82.407 237.753 73.6155 232.632 71.1054 231.051L18.404 195.424C4.74178 186.189 0.737876 168.245 9.45812 155.347C18.1784 142.45 36.3218 139.479 49.984 148.714C50.1739 148.926 62.0051 159.56 102.735 196.054C112.104 204.448 113.909 218.065 106.924 227.688Z" fill="#459696"/>
<path d="M144.588 159.496C148.259 155.383 153.41 152.89 158.914 152.562L159.055 152.553C169.988 151.934 178.224 157.901 180.554 159.729L229.441 200.436C242.113 210.991 244.306 229.246 234.341 241.209C224.379 253.172 206.027 254.314 193.357 243.758C193.189 243.529 182.478 231.765 145.599 191.386C137.112 182.103 136.679 168.374 144.588 159.496Z" fill="#459696"/>
<path d="M114.248 277.922H91.5832C84.9932 277.922 79.4718 274.379 78.814 269.722L76.2017 251.307C75.38 245.501 82.3453 240.652 90.5051 241.35L115.778 243.511C122.225 244.062 127.077 247.947 127.077 252.557V268.81C127.082 273.842 121.335 277.922 114.248 277.922Z" fill="#459696"/>
<path d="M139.217 279H159.626C165.563 279 170.531 275.454 171.124 270.8L173.473 252.386C174.214 246.579 167.94 241.728 160.592 242.426L137.832 244.587C132.028 245.138 127.659 249.021 127.659 253.632V269.886C127.659 274.918 132.845 279 139.217 279Z" fill="#459696"/>
<path d="M203.614 196.485C203.434 195.428 202.987 192.804 201.477 192.448C201.379 192.425 201.28 192.412 201.18 192.41C201.094 192.405 201.013 192.367 200.954 192.304C200.896 192.24 200.864 192.157 200.866 192.071C200.861 186.448 200.327 180.839 199.271 175.316C199.258 175.253 199.264 175.188 199.288 175.128C199.311 175.068 199.352 175.016 199.404 174.978C199.456 174.941 199.518 174.919 199.582 174.915C199.647 174.911 199.711 174.926 199.767 174.958C200.852 175.551 201.785 175.779 201.952 175.587C202.351 175.112 198.864 171.529 198.23 170.427C198.215 170.399 198.204 170.37 198.197 170.339L198.147 170.135C198.385 169.911 200.285 172.011 200.997 171.559C201.562 171.196 201.177 169.313 200.285 167.997C200.194 167.864 198.724 165.746 197.435 166.097C197.391 166.111 197.344 166.116 197.298 166.111C197.252 166.107 197.208 166.093 197.167 166.071C197.127 166.049 197.091 166.019 197.062 165.982C197.034 165.946 197.012 165.905 197 165.86C195.797 161.698 194.308 157.625 192.545 153.668C183.162 132.855 159.972 103.797 126.604 102.052C126.547 102.049 126.492 102.031 126.443 102.001C126.394 101.97 126.354 101.928 126.326 101.878C126.298 101.828 126.283 101.772 126.283 101.715C126.283 101.657 126.297 101.601 126.324 101.551C127.58 99.2945 128.566 96.9886 127.773 96.3142C126.908 95.5732 124.082 96.9292 122.871 98.7056C122.629 99.0603 122.429 99.442 122.275 99.8431C122.075 100.421 121.99 101.033 122.026 101.643C122.027 101.689 122.02 101.734 122.004 101.776C121.988 101.818 121.963 101.857 121.932 101.89C121.901 101.923 121.864 101.95 121.822 101.968C121.781 101.986 121.736 101.996 121.691 101.997L121.099 102.014C121.048 102.015 120.996 102.005 120.949 101.985C120.902 101.964 120.86 101.932 120.826 101.893C120.036 100.931 119.06 99.627 118.397 99.8265C117.939 99.9642 117.67 100.817 117.649 101.945C117.647 102.027 117.616 102.106 117.56 102.167C117.504 102.227 117.427 102.265 117.345 102.273C75.3752 106.481 56.2296 152.808 54.2111 157.914C53.8952 158.719 53.4013 159.963 52.8242 161.59C51.5143 165.338 50.4442 169.165 49.6206 173.048C49.61 173.098 49.5883 173.145 49.557 173.186C49.5258 173.226 49.4859 173.259 49.4403 173.282C49.3947 173.304 49.3445 173.317 49.2935 173.317C49.2425 173.318 49.1919 173.307 49.1456 173.286C48.7236 173.11 48.2763 173.004 47.8205 172.97C45.099 172.768 42.7622 175.264 43.0709 176.057C43.2704 176.566 44.4958 176.24 45.8328 176.197C45.9102 176.195 45.9861 176.219 46.0479 176.266C46.1097 176.313 46.1537 176.379 46.1726 176.454C46.1914 176.529 46.184 176.609 46.1516 176.679C46.1192 176.749 46.0637 176.807 45.9943 176.841C44.8544 177.404 43.9757 178.211 44.0113 178.841C44.0683 179.895 46.7257 180.503 47.9844 181.215C48.0437 181.248 48.0919 181.298 48.1228 181.359C48.1536 181.419 48.1658 181.488 48.1577 181.555C48.1292 181.773 48.1031 181.994 48.0746 182.215C48.0675 182.278 48.0428 182.338 48.0033 182.387C47.9638 182.437 47.9112 182.474 47.8514 182.495C47.2672 182.695 46.4811 182.939 45.9515 183.664C44.8045 185.214 45.4362 188.121 46.4455 188.387C46.6461 188.428 46.8548 188.395 47.0321 188.292C47.085 188.265 47.1442 188.252 47.2036 188.255C47.2631 188.258 47.3207 188.277 47.3707 188.309C47.4207 188.341 47.4614 188.386 47.4887 188.439C47.5159 188.492 47.5288 188.551 47.526 188.61C46.9822 198.981 48.1031 211.064 53.2089 222.893C53.2304 222.939 53.2411 222.99 53.2403 223.041C53.2396 223.092 53.2273 223.142 53.2045 223.188C53.1817 223.233 53.1489 223.273 53.1086 223.304C53.0682 223.336 53.0213 223.357 52.9714 223.368C50.6299 223.812 48.6707 224.47 48.6968 224.71C48.7324 224.999 51.7698 224.871 53.9665 224.992C54.0266 224.996 54.0846 225.015 54.1344 225.049C54.1842 225.083 54.2238 225.13 54.2491 225.185C54.4074 225.512 54.5657 225.84 54.724 226.168C54.763 226.245 54.7712 226.333 54.7469 226.416C54.7227 226.498 54.6677 226.568 54.5934 226.612C53.7931 227.068 52.9026 227.73 52.4395 228.837C52.2875 229.198 52.0191 229.837 52.2614 230.442C52.7862 231.753 55.4721 232.364 57.3648 231.511C57.4397 231.478 57.5242 231.473 57.6024 231.497C57.6807 231.522 57.7473 231.574 57.7899 231.644C57.9062 231.836 58.0274 232.026 58.1461 232.219L58.2126 232.318C58.2482 232.374 58.2671 232.438 58.2671 232.504C58.2671 232.569 58.2482 232.634 58.2126 232.689C57.1036 234.425 56.9183 236.605 57.3268 236.871C57.6949 237.108 58.5593 235.8 59.7301 235.111C59.8034 235.069 59.8899 235.055 59.9728 235.072C60.0557 235.09 60.1292 235.138 60.1789 235.206C63.0838 239.24 66.4495 242.922 70.2077 246.175C70.2516 246.212 70.2852 246.26 70.3053 246.314C70.3254 246.368 70.3313 246.426 70.3225 246.483C70.3137 246.539 70.2904 246.593 70.2549 246.638C70.2194 246.683 70.1729 246.719 70.1198 246.741C69.404 247.028 68.8053 247.547 68.4194 248.215C67.9184 249.108 67.707 250.524 68.2651 250.92C69.215 251.578 71.4877 248.854 72.4566 249.467C73.5894 250.179 71.4853 254.535 72.1502 254.874C72.6585 255.135 75.1021 253.212 75.4251 250.851C75.4319 250.794 75.4536 250.739 75.488 250.692C75.5224 250.645 75.5684 250.607 75.6215 250.583C75.6746 250.56 75.7329 250.55 75.7909 250.555C75.8489 250.56 75.9045 250.581 75.9523 250.614C99.116 266.627 127.502 265.148 129.11 265.038C133.501 264.739 157.434 262.711 176.919 245.703C176.961 245.665 177.012 245.638 177.068 245.625C177.123 245.612 177.181 245.614 177.236 245.63C177.29 245.645 177.34 245.675 177.38 245.715C177.42 245.755 177.45 245.805 177.465 245.86C177.535 246.116 177.625 246.367 177.734 246.61C177.876 246.928 178.486 248.272 179.365 248.287C180.184 248.287 181.046 247.132 181.099 246.128C181.113 245.838 181.049 245.805 180.83 244.228C180.714 243.385 180.719 243.297 180.78 243.205C181.281 242.437 183.868 243.803 184.309 243.167C184.506 242.882 184.129 242.385 182.702 240.428C182.656 240.365 182.634 240.289 182.639 240.212C182.643 240.134 182.673 240.061 182.725 240.003C185.14 237.344 187.345 234.503 189.323 231.504C189.337 231.485 189.346 231.466 189.358 231.449C189.539 232.839 189.781 233.824 189.947 233.824C190.218 233.824 190.462 231.281 190.816 229.191C190.823 229.149 190.838 229.109 190.859 229.072C191.166 228.564 191.464 228.055 191.752 227.545C191.784 227.488 191.831 227.442 191.888 227.412C191.946 227.381 192.01 227.368 192.075 227.373C192.14 227.379 192.202 227.403 192.253 227.443C192.304 227.482 192.343 227.536 192.365 227.597C192.704 228.547 193.224 229.887 194.528 230.647C194.865 230.844 195.464 231.19 196.095 231.029C197.556 230.659 198.546 227.747 197.684 225.724C197.128 224.422 195.924 223.762 194.447 223.111C194.406 223.093 194.369 223.067 194.338 223.034C194.307 223.001 194.283 222.963 194.267 222.921C194.251 222.878 194.243 222.833 194.245 222.788C194.247 222.743 194.257 222.699 194.276 222.658C197.041 216.713 198.953 210.407 199.954 203.928C199.96 203.864 199.984 203.804 200.023 203.753C200.062 203.703 200.115 203.664 200.175 203.642C200.234 203.621 200.299 203.616 200.362 203.63C200.424 203.643 200.481 203.674 200.527 203.719C201.078 204.305 201.536 204.626 201.714 204.552C202.032 204.417 201.477 203.028 201.346 198.722C201.27 196.464 201.401 196.25 201.477 196.241C201.857 196.186 202.493 201.026 203.139 200.99C203.583 200.971 203.994 198.682 203.614 196.485Z" fill="#4EADAF"/>
<path d="M63.981 202.185C76.7031 202.185 87.0164 195.008 87.0164 186.155C87.0164 177.302 76.7031 170.125 63.981 170.125C51.2588 170.125 40.9455 177.302 40.9455 186.155C40.9455 195.008 51.2588 202.185 63.981 202.185Z" fill="#E37A39"/>
<path d="M184.145 203.135C196.868 203.135 207.181 195.958 207.181 187.105C207.181 178.252 196.868 171.075 184.145 171.075C171.423 171.075 161.11 178.252 161.11 187.105C161.11 195.958 171.423 203.135 184.145 203.135Z" fill="#E37A39"/>
<path d="M82.6753 175.823C97.7385 175.823 109.95 164.194 109.95 149.85C109.95 135.505 97.7385 123.876 82.6753 123.876C67.612 123.876 55.4008 135.505 55.4008 149.85C55.4008 164.194 67.612 175.823 82.6753 175.823Z" fill="#E2E2E2"/>
<path d="M90.2793 171.071C100.563 171.071 108.9 163.131 108.9 153.338C108.9 143.545 100.563 135.605 90.2793 135.605C79.9954 135.605 71.6586 143.545 71.6586 153.338C71.6586 163.131 79.9954 171.071 90.2793 171.071Z" fill="black"/>
<path d="M86.3982 142.206C87.2514 139.731 84.3596 136.49 79.9391 134.966C75.5187 133.442 71.2436 134.213 70.3904 136.688C69.5372 139.163 72.4291 142.405 76.8495 143.929C81.27 145.452 85.5451 144.681 86.3982 142.206Z" fill="white"/>
<path d="M167.558 177.962C182.621 177.962 194.832 166.559 194.832 152.492C194.832 138.426 182.621 127.023 167.558 127.023C152.494 127.023 140.283 138.426 140.283 152.492C140.283 166.559 152.494 177.962 167.558 177.962Z" fill="#E2E2E2"/>
<path d="M158.904 171.111C169.188 171.111 177.525 163.326 177.525 153.723C177.525 144.119 169.188 136.334 158.904 136.334C148.62 136.334 140.283 144.119 140.283 153.723C140.283 163.326 148.62 171.111 158.904 171.111Z" fill="black"/>
<path d="M173.362 148.265C177.712 146.561 180.479 143.242 179.542 140.851C178.606 138.459 174.32 137.902 169.97 139.606C165.62 141.31 162.853 144.63 163.789 147.021C164.726 149.412 169.012 149.969 173.362 148.265Z" fill="white"/>
<path d="M151.829 123.214C147.061 121.3 142.7 118.496 138.979 114.952C137.105 113.179 135.402 111.234 133.892 109.141C132.39 107.037 131.092 104.793 130.017 102.442L129.623 101.556L129.262 100.654C129.008 100.06 128.822 99.4377 128.604 98.8298L128.288 97.9155C128.176 97.6115 128.108 97.2957 128.015 96.9846L127.754 96.0513C127.673 95.7402 127.568 95.4338 127.516 95.1156L127.12 93.2158C127.003 92.5817 126.92 91.9429 126.818 91.316L126.747 90.841C126.725 90.6819 126.714 90.5204 126.697 90.366L126.604 89.4019C126.578 89.0813 126.535 88.7631 126.526 88.4401L126.488 87.4735C126.273 82.3345 127.061 77.2028 128.808 72.3651C127.622 77.2812 127.214 82.3526 127.597 87.3952C127.794 89.8925 128.206 92.3682 128.827 94.795C128.981 95.3982 129.169 95.9967 129.338 96.5975C129.43 96.8943 129.499 97.2007 129.608 97.4928L129.924 98.3762C130.14 98.9628 130.323 99.5636 130.575 100.134L130.931 100.998L131.316 101.851C132.336 104.13 133.564 106.312 134.983 108.367C135.695 109.393 136.438 110.402 137.241 111.364C138.044 112.326 138.872 113.264 139.749 114.164C143.291 117.779 147.365 120.831 151.829 123.214Z" fill="#29ABE2"/>
<path d="M134.032 114.439C133.189 112.587 132.693 110.595 132.57 108.564C132.46 106.515 132.661 104.461 133.166 102.472C133.703 100.489 134.471 98.5762 135.455 96.7728L136.239 95.4548C136.49 95.0059 136.797 94.5951 137.089 94.1771L137.977 92.9256L138.927 91.7382C139.24 91.3345 139.594 90.9664 139.939 90.5888C140.283 90.2112 140.618 89.8289 140.988 89.4774L142.074 88.404C142.449 88.0597 142.826 87.7177 143.209 87.3829C144.741 86.0487 146.356 84.8121 148.044 83.6806C151.405 81.4268 155.013 79.564 158.797 78.1283C155.226 79.9551 151.8 82.0509 148.547 84.3977C146.94 85.5755 145.395 86.8367 143.919 88.176C142.442 89.5006 141.062 90.9291 139.789 92.4507L138.839 93.5977L137.972 94.8017C137.362 95.5854 136.896 96.4641 136.362 97.2881C135.38 99.0007 134.584 100.813 133.987 102.696C133.424 104.594 133.124 106.56 133.097 108.54C133.09 110.544 133.406 112.536 134.032 114.439Z" fill="#29ABE2"/>
<path d="M174.057 82.2558L171.246 80.356L173.606 77.549C173.811 77.3052 173.944 77.009 173.989 76.6938C174.035 76.3786 173.991 76.057 173.864 75.7652C173.736 75.4735 173.529 75.2233 173.267 75.0429C173.004 74.8625 172.697 74.7591 172.378 74.7443L167.992 74.5306L167.968 70.8544C167.966 70.5359 167.875 70.2243 167.705 69.9549C167.535 69.6854 167.293 69.4689 167.007 69.3299C166.72 69.1908 166.4 69.1346 166.083 69.1678C165.767 69.2009 165.465 69.322 165.214 69.5174L163.076 71.1798L161.226 68.2089C161.058 67.9386 160.817 67.7209 160.531 67.5802C160.246 67.4396 159.926 67.3817 159.609 67.4131C159.292 67.4445 158.99 67.5639 158.738 67.7578C158.485 67.9517 158.292 68.2124 158.18 68.5105L156.472 73.0487L152.497 71.7853C152.193 71.689 151.869 71.6794 151.56 71.7578C151.251 71.8361 150.971 71.9993 150.75 72.2288C150.529 72.4583 150.377 72.745 150.31 73.0565C150.244 73.368 150.266 73.6919 150.374 73.9915L151.255 76.4304L148.533 77.1072C148.224 77.184 147.943 77.3456 147.721 77.5738C147.499 77.802 147.345 78.0877 147.277 78.3987C147.209 78.7096 147.229 79.0334 147.335 79.3335C147.441 79.6337 147.629 79.8981 147.878 80.0971L151.392 82.9017L148.602 86.794C148.417 87.0529 148.309 87.3582 148.288 87.6754C148.268 87.9927 148.337 88.3094 148.486 88.5898C148.636 88.8702 148.861 89.1032 149.137 89.2625C149.412 89.4219 149.726 89.5013 150.044 89.4918L153.242 89.3897L153.062 91.9236C153.039 92.2413 153.106 92.5591 153.255 92.8408C153.404 93.1226 153.628 93.3571 153.903 93.518C154.178 93.6788 154.492 93.7595 154.811 93.7509C155.129 93.7424 155.439 93.6449 155.705 93.4696L158.892 91.3703L161.663 95.1343C161.853 95.3878 162.11 95.5835 162.404 95.6995C162.699 95.8156 163.02 95.8474 163.332 95.7915C163.643 95.7356 163.933 95.5941 164.169 95.3828C164.405 95.1716 164.578 94.8989 164.667 94.5952L165.701 91.033L168.55 92.1896C168.845 92.309 169.168 92.3435 169.482 92.2892C169.796 92.2349 170.088 92.094 170.326 91.8823C170.564 91.6706 170.738 91.3966 170.828 91.0913C170.918 90.7859 170.922 90.4614 170.837 90.1544L169.842 86.5399L173.625 85.2837C173.927 85.1839 174.195 85.0019 174.399 84.7581C174.603 84.5143 174.735 84.2184 174.78 83.9037C174.825 83.589 174.781 83.268 174.653 82.9769C174.526 82.6857 174.319 82.436 174.057 82.2558Z" fill="#F3BD37"/>
<path opacity="0.47" d="M144.152 73.1793L140.445 70.6668L143.553 66.9716C143.823 66.6508 143.998 66.2609 144.058 65.8459C144.117 65.431 144.06 65.0076 143.892 64.6237C143.723 64.2397 143.451 63.9105 143.105 63.6732C142.76 63.436 142.355 63.3002 141.936 63.2812L136.17 63.0175L136.139 58.1801C136.136 57.7608 136.016 57.3506 135.792 56.996C135.569 56.6413 135.25 56.3562 134.873 56.173C134.496 55.9897 134.075 55.9155 133.658 55.9588C133.241 56.0021 132.844 56.1612 132.513 56.418L129.701 58.6028L127.267 54.6915C127.045 54.3353 126.729 54.0482 126.352 53.8627C125.976 53.6773 125.555 53.6009 125.138 53.6421C124.721 53.6834 124.323 53.8407 123.99 54.0963C123.658 54.3518 123.403 54.6954 123.256 55.0881L121.012 61.0631L115.787 59.4007C115.387 59.2743 114.96 59.262 114.554 59.3653C114.148 59.4686 113.779 59.6834 113.488 59.9854C113.197 60.2874 112.997 60.6646 112.909 61.0745C112.822 61.4844 112.85 61.9106 112.992 62.3051L114.137 65.5063L110.553 66.3969C110.146 66.4978 109.775 66.7106 109.483 67.0113C109.191 67.312 108.988 67.6885 108.899 68.0982C108.809 68.508 108.836 68.9346 108.977 69.3297C109.117 69.7249 109.365 70.0729 109.693 70.3343L114.322 74.0223L110.65 79.1448C110.404 79.4856 110.258 79.8889 110.229 80.3086C110.2 80.7284 110.29 81.1478 110.488 81.519C110.686 81.8903 110.984 82.1984 111.349 82.4085C111.714 82.6185 112.13 82.7219 112.55 82.707L116.761 82.5716L116.523 85.9105C116.493 86.329 116.581 86.7474 116.777 87.1185C116.972 87.4896 117.268 87.7986 117.63 88.0104C117.992 88.2222 118.406 88.3284 118.825 88.317C119.245 88.3056 119.652 88.177 120.002 87.9457L124.196 85.1791L127.844 90.1353C128.093 90.4732 128.431 90.7347 128.821 90.89C129.211 91.0454 129.637 91.0884 130.05 91.0143C130.463 90.9401 130.847 90.7517 131.158 90.4704C131.47 90.1892 131.696 89.8263 131.812 89.4229L133.163 84.7421L136.916 86.2644C137.304 86.4223 137.729 86.4682 138.143 86.397C138.556 86.3258 138.941 86.1403 139.254 85.8616C139.568 85.5828 139.797 85.2219 139.916 84.8196C140.035 84.4174 140.038 83.9899 139.927 83.5856L138.616 78.836L143.603 77.1737C144.001 77.0414 144.355 76.8002 144.623 76.4774C144.891 76.1546 145.064 75.7631 145.121 75.3473C145.178 74.9314 145.117 74.5079 144.946 74.1248C144.775 73.7416 144.5 73.414 144.152 73.1793Z" fill="#F3BD37"/>
<path opacity="0.47" d="M178.824 82.9157L175.117 80.4032L178.225 76.708C178.495 76.3872 178.67 75.9973 178.73 75.5824C178.789 75.1675 178.732 74.7441 178.564 74.3601C178.395 73.9762 178.123 73.6469 177.777 73.4097C177.432 73.1724 177.027 73.0366 176.608 73.0176L170.842 72.754L170.811 67.9165C170.808 67.4972 170.688 67.0871 170.464 66.7324C170.241 66.3778 169.922 66.0927 169.545 65.9094C169.168 65.7262 168.747 65.652 168.33 65.6953C167.913 65.7386 167.516 65.8976 167.185 66.1545L164.373 68.3393L161.939 64.428C161.717 64.0718 161.401 63.7847 161.024 63.5992C160.648 63.4137 160.227 63.3373 159.81 63.3786C159.393 63.4199 158.995 63.5772 158.662 63.8327C158.33 64.0883 158.075 64.4319 157.928 64.8246L155.684 70.7995L150.459 69.1372C150.06 69.0107 149.633 68.9984 149.226 69.1017C148.82 69.205 148.451 69.4198 148.16 69.7218C147.869 70.0238 147.669 70.4011 147.581 70.811C147.494 71.2209 147.522 71.6471 147.664 72.0416L148.809 75.2428L145.225 76.1333C144.818 76.2342 144.447 76.4471 144.155 76.7477C143.863 77.0484 143.66 77.4249 143.571 77.8347C143.481 78.2444 143.508 78.671 143.649 79.0662C143.789 79.4614 144.037 79.8093 144.365 80.0707L148.994 83.7588L145.322 88.8812C145.076 89.2221 144.93 89.6253 144.901 90.0451C144.872 90.4648 144.962 90.8842 145.16 91.2555C145.358 91.6267 145.656 91.9349 146.021 92.1449C146.386 92.3549 146.802 92.4584 147.222 92.4434L151.433 92.308L151.195 95.647C151.165 96.0654 151.253 96.4839 151.449 96.855C151.644 97.2261 151.94 97.535 152.302 97.7468C152.664 97.9587 153.078 98.0649 153.497 98.0534C153.917 98.042 154.324 97.9134 154.674 97.6822L158.868 94.9156L162.516 99.8718C162.765 100.21 163.103 100.471 163.493 100.626C163.883 100.782 164.309 100.825 164.722 100.751C165.135 100.677 165.519 100.488 165.83 100.207C166.142 99.9256 166.368 99.5627 166.484 99.1593L167.836 94.4786L171.588 96.0008C171.976 96.1587 172.401 96.2046 172.815 96.1334C173.228 96.0623 173.613 95.8768 173.926 95.598C174.24 95.3192 174.469 94.9583 174.588 94.5561C174.707 94.1539 174.71 93.7264 174.599 93.3221L173.288 88.5725L178.275 86.9101C178.673 86.7779 179.027 86.5367 179.295 86.2138C179.563 85.891 179.736 85.4995 179.793 85.0837C179.85 84.6679 179.789 84.2444 179.618 83.8612C179.447 83.478 179.172 83.1505 178.824 82.9157Z" fill="#F3BD37"/>
<path d="M139.623 72.9942L136.811 71.0944L139.172 68.2874C139.376 68.0436 139.509 67.7474 139.555 67.4322C139.6 67.117 139.557 66.7954 139.429 66.5036C139.301 66.2119 139.094 65.9617 138.832 65.7813C138.57 65.6009 138.262 65.4975 137.944 65.4827L133.558 65.269L133.534 61.5928C133.532 61.2743 133.44 60.9627 133.27 60.6933C133.1 60.4238 132.858 60.2073 132.572 60.0683C132.285 59.9292 131.965 59.873 131.649 59.9062C131.332 59.9393 131.031 60.0604 130.779 60.2558L128.642 61.9182L126.792 58.9473C126.623 58.677 126.382 58.4593 126.097 58.3187C125.811 58.178 125.492 58.1201 125.175 58.1515C124.858 58.1829 124.556 58.3023 124.303 58.4962C124.05 58.6901 123.857 58.9508 123.745 59.2489L122.037 63.7871L118.062 62.5237C117.758 62.4274 117.434 62.4178 117.125 62.4962C116.817 62.5746 116.536 62.7377 116.315 62.9672C116.094 63.1967 115.942 63.4834 115.875 63.7949C115.809 64.1064 115.831 64.4303 115.939 64.7299L116.82 67.1688L114.098 67.8457C113.79 67.9224 113.508 68.084 113.286 68.3122C113.064 68.5404 112.911 68.8261 112.842 69.1371C112.774 69.448 112.794 69.7718 112.901 70.0719C113.007 70.3721 113.195 70.6365 113.443 70.8355L116.958 73.6401L114.167 77.5324C113.983 77.7913 113.874 78.0966 113.854 78.4138C113.833 78.7311 113.902 79.0478 114.052 79.3282C114.202 79.6086 114.427 79.8416 114.702 80.0009C114.977 80.1603 115.291 80.2397 115.609 80.2302L118.808 80.1281L118.627 82.662C118.605 82.9797 118.672 83.2975 118.82 83.5792C118.969 83.861 119.193 84.0955 119.468 84.2564C119.743 84.4172 120.058 84.4979 120.376 84.4893C120.695 84.4808 121.004 84.3833 121.27 84.208L124.457 82.1087L127.229 85.8727C127.418 86.1262 127.675 86.3219 127.97 86.4379C128.264 86.554 128.585 86.5858 128.897 86.5299C129.209 86.474 129.499 86.3325 129.735 86.1212C129.97 85.91 130.143 85.6373 130.233 85.3336L131.266 81.7714L134.116 82.928C134.411 83.0474 134.733 83.0819 135.047 83.0276C135.361 82.9733 135.653 82.8324 135.891 82.6207C136.129 82.409 136.303 82.135 136.393 81.8297C136.484 81.5243 136.487 81.1998 136.403 80.8928L135.407 77.2783L139.191 76.0221C139.492 75.9223 139.76 75.7403 139.964 75.4965C140.168 75.2527 140.3 74.9568 140.345 74.6421C140.39 74.3274 140.346 74.0064 140.219 73.7153C140.091 73.4241 139.885 73.1744 139.623 72.9942Z" fill="#F3BD37"/>
<path d="M113.134 97.1505C113.999 94.467 113.745 90.0261 107.447 82.6381C107.208 82.3569 107.038 82.0244 106.949 81.6667C106.861 81.3089 106.855 80.9354 106.935 80.5754C107.014 80.2153 107.175 79.8783 107.405 79.5907C107.636 79.303 107.93 79.0724 108.264 78.9168C108.612 78.7557 108.993 78.6802 109.376 78.6968C109.759 78.7135 110.133 78.8217 110.465 79.0124C110.798 79.2031 111.08 79.4708 111.288 79.793C111.496 80.1152 111.623 80.4825 111.66 80.8642C112.61 90.228 115.956 94.7828 118.967 97.2217C134.878 110.11 171.414 88.5419 195.506 98.6466C197.701 99.568 203.856 102.152 203.925 105.799C203.996 109.725 196.979 112.732 195.813 113.233C179.042 120.421 158.977 107.642 157.695 110.088C156.413 112.534 176.978 122.967 175.204 128.776C174.095 132.409 164.342 133.936 155.969 131.941C139.345 127.98 132.057 111.081 127.276 113.358C124.614 114.624 126.939 119.837 123.686 128.626C123.128 130.134 118.067 143.796 110.13 143.768C104.124 143.749 97.9595 135.89 97.9215 128.792C97.8669 118.989 109.508 112.959 107.869 110.445C106.656 108.583 98.9427 109.844 92.9962 114.391C84.0361 121.245 86.3468 130.006 79.4005 132.939C72.6133 135.788 63.7459 130.262 59.552 126.375C56.4648 123.525 52.7577 120.077 53.3514 116.819C55.446 105.322 108.207 112.482 113.134 97.1505Z" fill="#C4D650"/>
<g clip-path="url(#clip2_329_573)">
<path d="M29.9872 121.312C29.1788 120.903 28.5096 120.265 28.0631 119.478L28.056 119.466C24.5866 113.372 16.377 111.659 10.6521 116.293C7.09805 119.169 5.52398 125.038 7.15494 129.289C7.47811 130.134 7.89706 130.94 8.40368 131.69C9.68897 133.589 10.7734 135.618 11.5848 137.762C11.7339 138.156 11.9033 138.546 12.093 138.93C15.5815 145.997 24.5141 148.429 31.1528 144.12C36.9869 140.333 38.9342 132.626 35.4635 126.53C34.1396 124.204 32.2117 122.437 29.9872 121.312Z" fill="#CE9C2C"/>
<path d="M29.4673 122.327C28.724 121.951 28.1088 121.365 27.6983 120.641C27.6961 120.638 27.6939 120.634 27.6916 120.63C24.5018 115.027 16.9541 113.452 11.6906 117.712C8.42338 120.357 6.9758 125.753 8.4752 129.661C8.77239 130.438 9.15771 131.179 9.62369 131.869C10.8053 133.615 11.8024 135.48 12.5484 137.452C12.6855 137.814 12.8412 138.172 13.0155 138.526C16.2226 145.023 24.4352 147.258 30.5387 143.297C35.9029 139.815 37.6928 132.729 34.502 127.124C33.2847 124.986 31.5122 123.361 29.4673 122.327Z" fill="#F4BE38"/>
<path d="M11.0028 124.745C11.2749 124.591 11.3704 124.245 11.2162 123.975C11.062 123.704 10.7165 123.61 10.4445 123.765C10.1724 123.92 10.0769 124.265 10.2311 124.535C10.3853 124.806 10.7308 124.9 11.0028 124.745Z" fill="#CE9C2C"/>
<path d="M34.7317 132.688C35.0037 132.533 35.0992 132.188 34.945 131.917C34.7908 131.647 34.4453 131.553 34.1733 131.707C33.9013 131.862 33.8058 132.207 33.96 132.478C34.1142 132.749 34.4597 132.843 34.7317 132.688Z" fill="#CE9C2C"/>
<path d="M34.3133 135.92C34.5853 135.765 34.6808 135.42 34.5266 135.149C34.3724 134.878 34.0269 134.784 33.7549 134.939C33.4829 135.094 33.3874 135.439 33.5416 135.71C33.6958 135.98 34.0413 136.074 34.3133 135.92Z" fill="#CE9C2C"/>
<path d="M33.2264 133.955C33.4984 133.8 33.5939 133.455 33.4397 133.184C33.2855 132.913 32.94 132.819 32.668 132.974C32.396 133.129 32.3005 133.474 32.4547 133.745C32.6089 134.016 32.9544 134.11 33.2264 133.955Z" fill="#CE9C2C"/>
<path d="M33.1179 130.136C33.3899 129.981 33.4855 129.636 33.3313 129.365C33.1771 129.094 32.8316 129 32.5595 129.155C32.2875 129.31 32.192 129.655 32.3462 129.926C32.5004 130.197 32.8459 130.291 33.1179 130.136Z" fill="#CE9C2C"/>
<path d="M34.5225 130.203C34.7946 130.049 34.8901 129.703 34.7359 129.433C34.5817 129.162 34.2362 129.068 33.9642 129.223C33.6921 129.378 33.5966 129.723 33.7508 129.993C33.905 130.264 34.2505 130.358 34.5225 130.203Z" fill="#CE9C2C"/>
<path d="M32.7365 131.514C33.0085 131.359 33.104 131.014 32.9498 130.743C32.7956 130.472 32.4501 130.378 32.1781 130.533C31.9061 130.688 31.8105 131.033 31.9647 131.304C32.1189 131.575 32.4644 131.669 32.7365 131.514Z" fill="#CE9C2C"/>
<path d="M32.6935 136.811C32.9655 136.657 33.0611 136.312 32.9069 136.041C32.7527 135.77 32.4072 135.676 32.1352 135.831C31.8631 135.986 31.7676 136.331 31.9218 136.601C32.076 136.872 32.4215 136.966 32.6935 136.811Z" fill="#CE9C2C"/>
<path d="M32.4922 139.43C32.7642 139.275 32.8598 138.93 32.7056 138.659C32.5514 138.388 32.2059 138.294 31.9338 138.449C31.6618 138.604 31.5663 138.949 31.7205 139.22C31.8747 139.49 32.2202 139.584 32.4922 139.43Z" fill="#CE9C2C"/>
<path d="M33.7809 138.664C34.0529 138.509 34.1485 138.164 33.9943 137.893C33.8401 137.622 33.4946 137.528 33.2226 137.683C32.9505 137.838 32.855 138.183 33.0092 138.454C33.1634 138.725 33.5089 138.819 33.7809 138.664Z" fill="#CE9C2C"/>
<path d="M31.7574 138.084C32.0294 137.929 32.1249 137.584 31.9707 137.313C31.8165 137.043 31.471 136.949 31.199 137.103C30.927 137.258 30.8315 137.603 30.9857 137.874C31.1398 138.145 31.4854 138.239 31.7574 138.084Z" fill="#CE9C2C"/>
<path d="M30.6611 140.441C30.9331 140.286 31.0287 139.941 30.8745 139.67C30.7203 139.399 30.3748 139.305 30.1027 139.46C29.8307 139.615 29.7352 139.96 29.8894 140.231C30.0436 140.502 30.3891 140.596 30.6611 140.441Z" fill="#CE9C2C"/>
<path d="M29.1286 132.019C29.4007 131.864 29.4962 131.519 29.342 131.248C29.1878 130.977 28.8423 130.883 28.5703 131.038C28.2982 131.193 28.2027 131.538 28.3569 131.809C28.5111 132.08 28.8566 132.174 29.1286 132.019Z" fill="#CE9C2C"/>
<path d="M24.081 122.275C24.353 122.12 24.4485 121.775 24.2944 121.504C24.1402 121.233 23.7946 121.139 23.5226 121.294C23.2506 121.449 23.1551 121.794 23.3093 122.065C23.4635 122.336 23.809 122.43 24.081 122.275Z" fill="#CE9C2C"/>
<path d="M17.2427 135.669C17.5147 135.514 17.6102 135.169 17.456 134.898C17.3019 134.627 16.9563 134.533 16.6843 134.688C16.4123 134.843 16.3168 135.188 16.471 135.459C16.6252 135.73 16.9707 135.824 17.2427 135.669Z" fill="#CE9C2C"/>
<path d="M22.3362 142.725C22.6082 142.57 22.7037 142.225 22.5495 141.954C22.3953 141.683 22.0498 141.589 21.7778 141.744C21.5058 141.899 21.4103 142.244 21.5645 142.515C21.7187 142.786 22.0642 142.88 22.3362 142.725Z" fill="#CE9C2C"/>
<path d="M30.1475 142.342C30.4195 142.187 30.515 141.842 30.3608 141.571C30.2066 141.3 29.8611 141.206 29.5891 141.361C29.3171 141.516 29.2216 141.861 29.3757 142.132C29.5299 142.403 29.8754 142.497 30.1475 142.342Z" fill="#CE9C2C"/>
<path d="M31.7269 141.41C31.9989 141.256 32.0944 140.911 31.9402 140.64C31.786 140.369 31.4405 140.275 31.1685 140.43C30.8965 140.585 30.8009 140.93 30.9551 141.2C31.1093 141.471 31.4548 141.565 31.7269 141.41Z" fill="#CE9C2C"/>
<path d="M13.5604 134.28C15.9813 132.598 16.6494 129.374 15.0527 127.08C13.456 124.785 10.199 124.289 7.77812 125.971C5.35721 127.653 4.68909 130.877 6.28583 133.171C7.88256 135.465 11.1395 135.962 13.5604 134.28Z" fill="#E2E2E2"/>
<path d="M14.2536 132.67C15.9063 131.522 16.3624 129.321 15.2723 127.755C14.1823 126.189 11.9588 125.85 10.3061 126.998C8.6534 128.146 8.19729 130.347 9.28736 131.913C10.3774 133.48 12.6009 133.818 14.2536 132.67Z" fill="black"/>
<path d="M10.4159 128.487C10.2775 127.996 9.45203 127.8 8.57209 128.05C7.69215 128.3 7.091 128.901 7.22938 129.392C7.36776 129.883 8.19327 130.079 9.07321 129.829C9.95315 129.579 10.5543 128.978 10.4159 128.487Z" fill="white"/>
<path d="M27.4402 125.143C29.8611 123.461 30.5544 120.274 28.9887 118.024C27.423 115.774 24.1913 115.314 21.7704 116.996C19.3494 118.678 18.6562 121.865 20.2219 124.115C21.7876 126.365 25.0193 126.825 27.4402 125.143Z" fill="#E2E2E2"/>
<path d="M25.2867 125.014C26.9394 123.865 27.4127 121.689 26.3438 120.153C25.2749 118.617 23.0686 118.303 21.4159 119.451C19.7632 120.6 19.2899 122.776 20.3588 124.312C21.4277 125.848 23.634 126.162 25.2867 125.014Z" fill="black"/>
<path d="M25.0677 119.745C25.5772 118.987 25.6524 118.147 25.2356 117.869C24.8189 117.591 24.068 117.98 23.5585 118.739C23.049 119.497 22.9739 120.337 23.3906 120.615C23.8074 120.893 24.5582 120.503 25.0677 119.745Z" fill="white"/>
</g>
<defs>
<clipPath id="clip0_329_573">
<rect width="31.8806" height="33.7839" fill="white" transform="translate(92.3968 14.9897) rotate(-28.0463)"/>
</clipPath>
<clipPath id="clip1_329_573">
<rect width="30.8305" height="34.5782" fill="white" transform="translate(244.188 157.669) rotate(46.247)"/>
</clipPath>
<clipPath id="clip2_329_573">
<rect width="28.662" height="34.5114" fill="white" transform="translate(0 122.17) rotate(-29.6535)"/>
</clipPath>
</defs>
</svg>
