<svg width="480" height="166" viewBox="0 0 480 166" fill="none" xmlns="http://www.w3.org/2000/svg">
<path d="M161.873 131.23C160.265 133.984 157.65 135.99 154.591 136.819L154.512 136.841C148.402 138.499 143.036 136.145 141.497 135.405L109.026 118.484C100.608 114.098 97.206 104.156 101.426 96.2713C105.645 88.3887 115.89 85.5554 124.307 89.9413C124.429 90.0487 131.882 95.3449 157.526 113.512C163.424 117.694 165.297 125.32 161.873 131.23Z" fill="#459696"/>
<path d="M186.829 82.5293C189.381 80.6123 192.572 79.7709 195.728 80.1826L195.809 80.1937C202.077 81.0249 206.08 85.2688 207.202 86.5447L230.365 114.694C236.37 121.991 235.573 132.48 228.586 138.117C221.599 143.757 211.067 142.413 205.062 135.116C204.993 134.969 200.235 127.211 183.838 100.542C180.064 94.4148 181.352 86.6583 186.829 82.5293Z" fill="#459696"/>
<path d="M169.164 159.316L156.139 160.748C152.353 161.165 148.964 159.499 148.299 156.896L145.67 146.594C144.842 143.346 148.548 140.15 153.279 140.031L167.935 139.661C171.673 139.567 174.7 141.468 174.983 144.087L175.979 153.325C176.288 156.188 173.237 158.869 169.164 159.316Z" fill="#459696"/>
<path d="M183.578 158.351L195.307 157.061C198.717 156.691 201.355 154.358 201.41 151.675L201.631 141.06C201.7 137.713 197.797 135.353 193.618 136.214L180.673 138.88C177.368 139.561 175.098 142.045 175.38 144.664L176.378 153.902C176.686 156.762 179.914 158.753 183.578 158.351Z" fill="#459696"/>
<path d="M82.3785 38.2996C84.9813 38.2996 86.9346 38.3856 88.2385 38.5577C89.5424 38.7298 91.0127 39.2724 92.6495 40.1856C94.2895 41.102 95.4501 42.6447 96.1315 44.8136C96.8128 46.9824 97.1526 49.8965 97.151 53.5558C97.151 57.2142 96.8111 60.1278 96.1315 62.2967C95.4518 64.4656 94.263 65.9798 92.565 66.8395C90.8662 67.6966 89.3657 68.2109 88.0635 68.3821C86.7613 68.5534 84.7516 68.6394 82.0345 68.6403H38.6411C37.5147 68.6401 36.3993 68.8639 35.3586 69.2988C34.3179 69.7337 33.3723 70.3713 32.5758 71.1751C31.7793 71.9789 31.1475 72.9332 30.7165 73.9834C30.2855 75.0336 30.0638 76.1592 30.064 77.296C30.064 79.5916 30.9676 81.7932 32.5761 83.4165C34.1847 85.0398 36.3663 85.9517 38.6411 85.9517H63.5206C66.2376 85.9517 68.2473 86.0373 69.5495 86.2086C70.8517 86.3799 72.3522 86.9229 74.051 87.8377C76.9965 89.5529 78.4701 94.0664 78.4718 101.378C78.4718 109.379 76.3205 114.122 72.0181 115.606C70.2043 116.182 67.3167 116.468 63.3553 116.463H38.6411C36.3665 116.463 34.185 117.375 32.5766 118.998C30.9681 120.621 30.0643 122.822 30.064 125.117V148.858C30.064 151.601 29.9791 153.601 29.8094 154.857C29.6397 156.112 29.1016 157.598 28.1951 159.314C26.6089 162.399 22.193 163.942 14.9475 163.942C7.01908 163.942 2.37641 161.771 1.01951 157.428C0.339837 155.603 0 152.689 0 148.687V53.3841C0 47.5568 1.07581 43.5859 3.22743 41.4713C5.37905 39.3568 9.45547 38.2996 15.4567 38.2996H82.3785Z" fill="#7C6BAF"/>
<path d="M386.582 38.1292L418.004 38.2996C434.422 38.2996 448.859 44.2693 461.316 56.2088C473.773 68.1483 480.001 82.8322 480 100.261C480 117.688 473.914 132.629 461.741 145.084C449.568 157.539 434.819 163.77 417.494 163.777H386.407C379.498 163.777 375.195 162.348 373.497 159.492C372.139 157.093 371.459 153.436 371.459 148.522V53.2124C371.459 50.4705 371.544 48.4708 371.714 47.2135C371.884 45.9561 372.422 44.4707 373.328 42.7571C374.915 39.6718 379.333 38.1292 386.582 38.1292ZM440.085 124.261C446.652 118.15 449.935 110.466 449.936 101.208C449.937 91.9503 446.738 84.2102 440.339 77.9877C433.941 71.7602 426.439 68.6465 417.834 68.6465H410.105C407.831 68.6465 405.649 69.5584 404.04 71.1817C402.432 72.8049 401.528 75.0065 401.528 77.3022V124.783C401.529 127.078 402.432 129.28 404.041 130.903C405.649 132.526 407.831 133.438 410.105 133.438H418.004C426.156 133.434 433.517 130.375 440.085 124.261Z" fill="#7C6BAF"/>
<path d="M298.265 36.7583C315.023 36.7583 329.573 42.8717 341.917 55.0986C354.26 67.3254 360.432 82.4952 360.431 100.608C360.431 118.723 354.543 134.15 342.766 146.888C330.99 159.626 316.494 165.997 299.279 166C282.062 166 267.426 159.715 255.371 147.145C243.316 134.574 237.286 119.605 237.282 102.236C237.282 92.7524 238.98 83.8678 242.378 75.5818C245.776 67.2958 250.304 60.354 255.963 54.7565C261.607 49.17 268.232 44.6937 275.501 41.5567C282.858 38.3594 290.446 36.7599 298.265 36.7583ZM267.346 101.379C267.346 111.551 270.601 119.807 277.112 126.148C283.624 132.488 290.899 135.658 298.938 135.658C306.977 135.658 314.224 132.573 320.68 126.402C327.135 120.231 330.363 111.947 330.362 101.548C330.362 91.1505 327.106 82.8085 320.595 76.5217C314.084 70.235 306.808 67.0924 298.768 67.0941C290.727 67.0941 283.48 70.2642 277.028 76.6045C270.576 82.9448 267.348 91.2028 267.346 101.379Z" fill="#7C6BAF"/>
<path d="M215.529 107.387C215.36 106.798 214.943 105.335 214.053 105.227C213.995 105.222 213.937 105.222 213.879 105.227C213.83 105.23 213.782 105.214 213.745 105.181C213.707 105.149 213.684 105.104 213.679 105.054C213.332 101.857 212.681 98.7015 211.735 95.6303C211.725 95.5945 211.725 95.5565 211.735 95.5207C211.746 95.485 211.766 95.4529 211.794 95.4283C211.821 95.4037 211.855 95.3876 211.892 95.3818C211.928 95.376 211.966 95.3808 212 95.3956C212.659 95.6648 213.21 95.7353 213.293 95.6142C213.493 95.324 211.265 93.5034 210.838 92.9179C210.828 92.9032 210.819 92.887 210.814 92.8698L210.772 92.7574V92.75C210.894 92.6092 212.118 93.6825 212.496 93.3799C212.799 93.139 212.463 92.0916 211.869 91.4037C211.81 91.3345 210.834 90.2229 210.115 90.5033C210.066 90.5246 210.011 90.5258 209.962 90.5066C209.912 90.4875 209.872 90.4494 209.85 90.4008C208.904 88.1101 207.8 85.8892 206.546 83.7546C199.878 72.515 184.769 57.4663 165.486 58.5841C165.454 58.5867 165.421 58.5808 165.391 58.5669C165.361 58.553 165.336 58.5316 165.317 58.5048C165.297 58.478 165.285 58.4467 165.282 58.4139C165.278 58.381 165.283 58.3478 165.295 58.3173C165.879 56.9587 166.303 55.5828 165.806 55.2493C165.261 54.8788 163.725 55.8335 163.13 56.9179C163.013 57.1349 162.922 57.365 162.859 57.6034C162.778 57.9439 162.767 58.2972 162.826 58.6422C162.829 58.6681 162.827 58.6945 162.82 58.7197C162.813 58.7449 162.802 58.7686 162.786 58.7892C162.77 58.8099 162.75 58.8271 162.727 58.8401C162.705 58.853 162.68 58.8613 162.654 58.8645L162.315 58.9102C162.286 58.9148 162.256 58.9127 162.227 58.9039C162.199 58.8952 162.173 58.88 162.151 58.8595C161.638 58.3655 160.997 57.6825 160.629 57.8381C160.373 57.9456 160.271 58.447 160.329 59.0905C160.332 59.1378 160.319 59.1848 160.29 59.2226C160.262 59.2603 160.221 59.2863 160.175 59.2955C136.322 64.3385 128.157 91.878 127.312 94.9065C127.178 95.3832 126.971 96.1218 126.74 97.084C126.217 99.2948 125.837 101.538 125.602 103.798C125.598 103.827 125.589 103.854 125.574 103.879C125.559 103.903 125.538 103.924 125.515 103.94C125.491 103.956 125.464 103.966 125.435 103.971C125.407 103.975 125.378 103.973 125.351 103.965C125.097 103.892 124.833 103.86 124.569 103.869C122.992 103.925 121.803 105.491 122.029 105.924C122.175 106.199 122.865 105.937 123.62 105.83C123.664 105.823 123.709 105.831 123.747 105.854C123.785 105.876 123.815 105.912 123.83 105.953C123.846 105.995 123.846 106.041 123.832 106.083C123.818 106.126 123.79 106.162 123.752 106.186C123.132 106.576 122.677 107.091 122.735 107.445C122.833 108.042 124.397 108.221 125.164 108.538C125.2 108.552 125.232 108.577 125.254 108.609C125.276 108.642 125.287 108.681 125.286 108.72C125.286 108.844 125.286 108.967 125.28 109.1C125.279 109.137 125.268 109.173 125.248 109.203C125.228 109.234 125.2 109.258 125.167 109.273C124.844 109.424 124.409 109.613 124.145 110.058C123.581 111.011 124.123 112.624 124.719 112.711C124.837 112.722 124.955 112.69 125.051 112.621C125.079 112.601 125.112 112.59 125.146 112.588C125.18 112.586 125.214 112.592 125.245 112.607C125.275 112.623 125.302 112.646 125.321 112.674C125.34 112.703 125.351 112.736 125.353 112.77C125.678 118.699 127.067 125.492 130.723 131.896C130.737 131.921 130.745 131.949 130.747 131.978C130.749 132.007 130.744 132.037 130.734 132.064C130.723 132.091 130.706 132.115 130.685 132.134C130.663 132.154 130.638 132.168 130.61 132.176C129.293 132.576 128.206 133.074 128.238 133.209C128.276 133.372 130.014 133.106 131.283 133.037C131.318 133.035 131.352 133.042 131.383 133.058C131.414 133.074 131.44 133.099 131.458 133.128C131.568 133.305 131.68 133.48 131.794 133.657C131.821 133.698 131.831 133.748 131.822 133.797C131.813 133.845 131.786 133.888 131.746 133.916C131.315 134.226 130.843 134.658 130.644 135.317C130.579 135.532 130.464 135.912 130.644 136.241C131.027 136.954 132.609 137.132 133.644 136.526C133.685 136.503 133.733 136.495 133.779 136.504C133.825 136.513 133.866 136.539 133.895 136.576C133.975 136.677 134.054 136.778 134.14 136.878L134.184 136.933C134.207 136.962 134.222 136.997 134.225 137.034C134.229 137.072 134.222 137.109 134.205 137.143C133.673 138.2 133.702 139.45 133.952 139.575C134.178 139.687 134.595 138.889 135.225 138.423C135.265 138.394 135.313 138.381 135.362 138.385C135.411 138.39 135.456 138.412 135.49 138.448C137.411 140.563 139.571 142.443 141.926 144.049C141.954 144.068 141.976 144.093 141.99 144.122C142.005 144.152 142.012 144.185 142.01 144.218C142.009 144.251 141.998 144.283 141.981 144.311C141.963 144.339 141.938 144.361 141.909 144.377C141.517 144.583 141.205 144.916 141.022 145.323C140.79 145.86 140.75 146.681 141.1 146.868C141.681 147.183 142.826 145.492 143.425 145.779C144.121 146.113 143.181 148.719 143.581 148.866C143.889 148.982 145.172 147.736 145.216 146.374C145.218 146.341 145.228 146.308 145.245 146.28C145.263 146.252 145.287 146.228 145.316 146.212C145.345 146.196 145.377 146.187 145.41 146.187C145.443 146.187 145.476 146.195 145.505 146.211C159.799 153.848 176.019 151.214 176.937 151.05C179.443 150.602 193.071 147.939 203.224 137.04C203.246 137.016 203.274 136.997 203.305 136.987C203.336 136.976 203.369 136.973 203.401 136.979C203.434 136.984 203.464 136.998 203.49 137.018C203.515 137.039 203.536 137.065 203.548 137.096C203.604 137.237 203.67 137.374 203.748 137.505C203.85 137.677 204.283 138.405 204.788 138.354C205.26 138.307 205.684 137.592 205.652 137.018C205.643 136.852 205.603 136.839 205.382 135.957C205.26 135.484 205.26 135.434 205.29 135.378C205.535 134.91 207.104 135.522 207.316 135.131C207.411 134.955 207.164 134.698 206.224 133.676C206.193 133.643 206.174 133.6 206.172 133.554C206.17 133.509 206.184 133.464 206.212 133.429C207.433 131.766 208.526 130.011 209.478 128.178L209.495 128.145C209.684 128.924 209.882 129.464 209.985 129.454C210.14 129.439 210.125 127.972 210.199 126.765C210.201 126.741 210.207 126.718 210.218 126.696C210.362 126.388 210.501 126.078 210.636 125.772C210.651 125.738 210.676 125.708 210.707 125.687C210.738 125.666 210.774 125.654 210.811 125.653C210.848 125.652 210.885 125.662 210.917 125.681C210.949 125.701 210.975 125.729 210.992 125.762C211.246 126.281 211.627 127.01 212.422 127.358C212.627 127.449 212.993 127.605 213.347 127.482C214.163 127.178 214.553 125.46 213.933 124.365C213.534 123.661 212.802 123.362 211.913 123.083C211.888 123.075 211.866 123.063 211.846 123.046C211.827 123.029 211.811 123.009 211.8 122.986C211.788 122.963 211.782 122.938 211.78 122.912C211.778 122.886 211.782 122.861 211.79 122.836C213.013 119.289 213.725 115.584 213.903 111.833C213.905 111.796 213.917 111.761 213.938 111.731C213.959 111.701 213.988 111.677 214.021 111.663C214.054 111.648 214.091 111.643 214.127 111.648C214.163 111.653 214.197 111.668 214.225 111.692C214.577 111.989 214.859 112.144 214.959 112.089C215.134 111.993 214.735 111.237 214.39 108.799C214.209 107.521 214.267 107.391 214.313 107.381C214.528 107.326 215.191 110.037 215.56 109.975C215.774 109.939 215.874 108.611 215.529 107.387Z" fill="#4EADAF"/>
<path d="M166.625 36.7583C183.381 36.7583 197.931 42.8717 210.276 55.0986C222.621 67.3254 228.793 82.4952 228.79 100.608C228.79 118.723 222.902 134.15 211.126 146.888C199.349 159.626 184.855 165.997 167.643 166C150.427 166 135.791 159.715 123.737 147.145C111.682 134.574 105.652 119.605 105.647 102.236C105.647 92.7524 107.346 83.8678 110.742 75.5818C114.139 67.2958 118.668 60.354 124.328 54.7565C129.97 49.171 136.595 44.6947 143.861 41.5567C151.223 38.3594 158.81 36.7599 166.625 36.7583ZM124.778 102.401C124.778 116.363 129.247 127.695 138.184 136.397C147.118 145.102 153.318 149.454 168.141 149.454C179.175 149.454 189.122 145.219 197.981 136.75C206.84 128.28 211.27 116.91 211.269 102.638C211.269 88.3678 206.801 76.9182 197.865 68.2897C188.929 59.6611 178.943 55.3473 167.907 55.3481C156.87 55.3481 146.923 59.7006 138.067 68.4058C129.211 77.1109 124.781 88.4427 124.778 102.401Z" fill="#7C6BAF"/>
<path d="M135.636 119.443C142.947 118.639 148.433 113.908 147.889 108.876C147.346 103.845 140.979 100.417 133.668 101.222C126.357 102.026 120.871 106.756 121.414 111.788C121.958 116.82 128.325 120.247 135.636 119.443Z" fill="#E37A39"/>
<path d="M204.745 112.387C212.056 111.583 217.542 106.852 216.998 101.821C216.455 96.7891 210.088 93.362 202.777 94.1661C195.466 94.9702 189.98 99.701 190.523 104.733C191.066 109.764 197.434 113.191 204.745 112.387Z" fill="#E37A39"/>
<path d="M181.267 69.0159C178.442 68.245 175.785 66.9462 173.434 65.187C172.844 64.7473 172.275 64.2804 171.727 63.7864C171.181 63.2923 170.659 62.7674 170.154 62.2264C169.91 61.9485 169.665 61.6768 169.43 61.3865C169.314 61.242 169.195 61.1 169.081 60.9542L168.746 60.5121C168.632 60.3663 168.525 60.2144 168.419 60.0625L168.101 59.608L167.797 59.1411L167.645 58.9089L167.502 58.6693L167.221 58.19C167.129 58.0295 167.043 57.864 166.955 57.696C166.773 57.3736 166.62 57.0352 166.459 56.7005C166.126 56.0372 165.861 55.3419 165.593 54.6514L165.246 53.5942C165.184 53.42 165.144 53.2385 165.095 53.0594L164.952 52.5221C164.847 52.1664 164.783 51.8008 164.707 51.4389C164.671 51.2561 164.631 51.0758 164.6 50.893L164.518 50.3433L164.436 49.7949L164.38 49.2428L164.324 48.6907C164.308 48.5067 164.304 48.3202 164.294 48.1374L164.269 47.5841V47.0307C164.269 46.8467 164.269 46.6602 164.269 46.4774L164.289 45.9253C164.349 44.4564 164.56 42.9977 164.918 41.5728C164.534 44.4539 164.612 47.3786 165.15 50.2346C165.421 51.6479 165.813 53.0348 166.322 54.3797C166.598 55.0405 166.852 55.7124 167.179 56.3559C167.337 56.677 167.486 57.0031 167.669 57.3131C167.755 57.47 167.839 57.6281 167.928 57.7825L168.203 58.2432C169.69 60.7047 171.593 62.884 173.826 64.6818C176.078 66.4936 178.586 67.9545 181.267 69.0159Z" fill="#29ABE2"/>
<path d="M170.499 65.1549C169.894 64.1519 169.486 63.0406 169.296 61.8819C169.106 60.7144 169.1 59.5238 169.278 58.3544C169.365 57.7695 169.493 57.1916 169.662 56.6252C169.83 56.059 170.029 55.503 170.261 54.9603C170.731 53.8774 171.305 52.8433 171.974 51.8725L172.097 51.6897L172.226 51.5118L172.488 51.1598C172.663 50.9239 172.835 50.6867 173.026 50.4644L173.584 49.7876L174.172 49.1391C174.971 48.2899 175.821 47.4905 176.716 46.7455C178.502 45.2658 180.447 43.9923 182.513 42.9487C180.59 44.2043 178.761 45.6021 177.042 47.1308C176.195 47.8973 175.386 48.7065 174.619 49.5554C173.851 50.4013 173.142 51.3002 172.498 52.2455L172.027 52.9569C171.875 53.1977 171.731 53.4423 171.587 53.6881C171.311 54.1821 171.048 54.6885 170.816 55.2073C170.344 56.24 169.993 57.3253 169.771 58.4408C169.554 59.5599 169.499 60.7048 169.607 61.8399C169.718 62.9877 170.019 64.1085 170.499 65.1549Z" fill="#29ABE2"/>
<path d="M191.527 44.3407L189.796 43.4329L190.98 41.6889C191.082 41.5368 191.139 41.3588 191.145 41.1754C191.151 40.992 191.106 40.8107 191.014 40.6522C190.922 40.4937 190.788 40.3646 190.627 40.2797C190.466 40.1948 190.284 40.1575 190.103 40.1722L187.572 40.3364L187.327 38.2479C187.235 37.445 186.251 37.098 185.662 37.6624L184.535 38.7407L183.289 37.1684C183.174 37.0251 183.022 36.9166 182.85 36.8548C182.678 36.7929 182.492 36.7801 182.313 36.8178C182.134 36.8554 181.969 36.942 181.836 37.0682C181.703 37.1943 181.606 37.355 181.557 37.5327L180.855 40.2191L178.493 39.7522C177.692 39.5941 177.051 40.4143 177.408 41.1405L178.061 42.467L176.538 43.0228C176.366 43.0824 176.215 43.19 176.101 43.3332C175.987 43.4763 175.916 43.6492 175.896 43.8315C175.876 44.0139 175.907 44.1983 175.987 44.3632C176.067 44.5282 176.191 44.6668 176.346 44.7631L178.537 46.1366L177.172 48.5241C177.083 48.684 177.039 48.8662 177.048 49.0498C177.056 49.2334 177.116 49.4108 177.22 49.5616C177.324 49.7125 177.468 49.8307 177.636 49.9026C177.803 49.9744 177.987 49.9971 178.167 49.9679L180.003 49.7085L180.054 51.1598C180.083 51.9688 181.034 52.3949 181.668 51.8725L183.37 50.4768L185.194 52.4419C185.319 52.5761 185.478 52.6729 185.655 52.7217C185.831 52.7704 186.017 52.7692 186.192 52.7181C186.368 52.6671 186.526 52.5681 186.65 52.4322C186.773 52.2963 186.857 52.1287 186.892 51.9478L187.267 49.8617L188.98 50.3384C189.766 50.5583 190.469 49.7888 190.17 49.0379L189.376 47.0456L191.473 46.0933C191.641 46.0204 191.784 45.9009 191.887 45.7488C191.989 45.5966 192.047 45.4182 192.052 45.2343C192.058 45.0504 192.012 44.8687 191.919 44.7104C191.826 44.5522 191.69 44.4239 191.527 44.3407Z" fill="#F4BE38"/>
<path opacity="0.47" d="M173.786 41.0651L171.506 39.8708L173.06 37.5747C173.194 37.3747 173.27 37.1403 173.278 36.8986C173.286 36.6569 173.227 36.4179 173.106 36.2091C172.985 36.0003 172.808 35.8303 172.595 35.7188C172.383 35.6072 172.143 35.5587 171.905 35.5787L168.574 35.7937L168.26 33.0455C168.137 31.9883 166.844 31.5325 166.068 32.2748L164.59 33.694L162.949 31.6251C162.798 31.4364 162.598 31.2933 162.371 31.2118C162.144 31.1302 161.9 31.1133 161.664 31.1628C161.429 31.2123 161.211 31.3264 161.036 31.4925C160.86 31.6586 160.733 31.8703 160.669 32.1044L159.745 35.6405L156.636 35.0229C155.581 34.8142 154.738 35.8949 155.208 36.8497L156.065 38.5961L154.06 39.3273C153.834 39.4058 153.634 39.5476 153.484 39.7362C153.334 39.9248 153.241 40.1524 153.214 40.3926C153.188 40.6328 153.229 40.8756 153.334 41.0928C153.439 41.3101 153.603 41.4928 153.807 41.6197L156.691 43.4267L154.895 46.5701C154.365 47.4989 155.139 48.6216 156.204 48.4709L158.615 48.1276L158.684 50.0395C158.722 51.1042 159.976 51.6575 160.807 50.977L163.048 49.1404L165.448 51.7255C166.175 52.5085 167.497 52.1232 167.686 51.0733L168.175 48.3276L170.425 48.9551C171.459 49.2441 172.383 48.2313 171.99 47.242L170.945 44.6211L173.706 43.3662C173.926 43.2707 174.114 43.1143 174.249 42.9151C174.384 42.7159 174.46 42.4822 174.468 42.2411C174.476 42 174.417 41.7615 174.296 41.5533C174.175 41.3451 173.998 41.1758 173.786 41.0651Z" fill="#F4BE38"/>
<path opacity="0.47" d="M194.308 44.4085L192.03 43.2141L193.591 40.918C193.725 40.7178 193.8 40.4834 193.808 40.2418C193.816 40.0002 193.756 39.7613 193.635 39.5526C193.514 39.344 193.337 39.174 193.125 39.0625C192.912 38.9509 192.673 38.9022 192.434 38.9221L189.104 39.137L188.789 36.3888C188.667 35.3316 187.373 34.8746 186.597 35.6169L185.115 37.036L183.475 34.9672C183.323 34.7789 183.123 34.6364 182.897 34.5551C182.67 34.4739 182.426 34.4571 182.19 34.5065C181.955 34.556 181.737 34.6698 181.562 34.8356C181.386 35.0014 181.259 35.2127 181.194 35.4464L180.27 38.9838L177.161 38.3663C176.106 38.1575 175.263 39.237 175.733 40.193L176.59 41.9395L174.585 42.6707C174.358 42.7492 174.159 42.891 174.009 43.0795C173.859 43.2681 173.766 43.4957 173.739 43.7359C173.713 43.9761 173.754 44.2189 173.859 44.4361C173.964 44.6534 174.128 44.8361 174.332 44.963L177.221 46.7712L175.426 49.9146C174.894 50.8447 175.67 51.9674 176.734 51.8155L179.145 51.4733L179.214 53.3853C179.252 54.45 180.507 55.0033 181.337 54.3228L183.572 52.4923L185.973 55.0774C186.699 55.8605 188.021 55.4751 188.209 54.4253L188.699 51.6784L190.948 52.3071C191.983 52.5948 192.907 51.5833 192.514 50.5939L191.47 47.9718L194.233 46.712C194.453 46.6159 194.641 46.459 194.776 46.2593C194.91 46.0596 194.986 45.8254 194.994 45.5841C195.001 45.3427 194.941 45.1041 194.82 44.8959C194.698 44.6878 194.521 44.5188 194.308 44.4085Z" fill="#F4BE38"/>
<path d="M171.171 41.2455L169.44 40.3389L170.624 38.5949C170.727 38.4429 170.784 38.2649 170.79 38.0813C170.797 37.8977 170.751 37.716 170.659 37.5574C170.568 37.3987 170.433 37.2695 170.272 37.1847C170.11 37.0999 169.928 37.063 169.747 37.0782L167.216 37.2412L166.971 35.1539C166.879 34.3498 165.895 34.004 165.306 34.5672L164.179 35.6454L162.933 34.0744C162.818 33.9311 162.666 33.8226 162.494 33.7608C162.322 33.6989 162.136 33.6861 161.957 33.7238C161.778 33.7614 161.613 33.848 161.48 33.9742C161.347 34.1003 161.25 34.261 161.201 34.4387L160.499 37.1251L158.137 36.6582C157.336 36.5001 156.695 37.3203 157.052 38.0465L157.705 39.3718L156.182 39.9276C156.01 39.9874 155.859 40.0952 155.745 40.2384C155.631 40.3817 155.56 40.5546 155.54 40.737C155.52 40.9194 155.552 41.1038 155.631 41.2688C155.711 41.4338 155.835 41.5726 155.99 41.6691L158.181 43.0413L156.816 45.4301C156.727 45.59 156.683 45.7722 156.692 45.9558C156.7 46.1394 156.76 46.3168 156.864 46.4677C156.968 46.6185 157.112 46.7367 157.28 46.8086C157.447 46.8804 157.631 46.9031 157.811 46.8739L159.647 46.6133L159.699 48.0658C159.727 48.8748 160.678 49.2947 161.312 48.7785L163.014 47.3828L164.838 49.3466C164.963 49.4809 165.122 49.5777 165.299 49.6264C165.475 49.6752 165.661 49.6739 165.837 49.6229C166.012 49.5718 166.17 49.4729 166.294 49.337C166.417 49.2011 166.501 49.0335 166.536 48.8526L166.911 46.7665L168.624 47.2432C169.41 47.4618 170.113 46.6936 169.814 45.9414L169.021 43.9491L171.119 42.9956C171.285 42.9223 171.428 42.8027 171.53 42.6508C171.632 42.4988 171.689 42.3208 171.694 42.1374C171.7 41.954 171.654 41.7728 171.561 41.6149C171.468 41.457 171.333 41.3289 171.171 41.2455Z" fill="#F4BE38"/>
<path d="M157.438 56.6474C157.77 55.0689 157.351 52.5567 153.277 48.7599C153.123 48.6151 153.006 48.436 152.933 48.237C152.86 48.038 152.835 47.8247 152.859 47.614C152.883 47.4033 152.955 47.2012 153.07 47.0238C153.185 46.8464 153.34 46.6986 153.521 46.5923C153.71 46.478 153.922 46.4104 154.142 46.3952C154.361 46.3799 154.581 46.4174 154.783 46.5046C154.985 46.5918 155.163 46.7262 155.304 46.8967C155.444 47.0672 155.543 47.2689 155.591 47.4853C156.707 52.7469 158.915 55.1233 160.795 56.3201C170.723 62.6402 190.4 48.0732 204.865 52.2986C206.184 52.6827 209.883 53.7622 210.142 55.831C210.424 58.0542 206.575 60.2107 205.936 60.5689C196.741 65.7132 184.426 59.7192 183.839 61.1865C183.26 62.6365 195.711 67.2867 195.047 70.6969C194.634 72.8312 189.122 74.3158 184.186 73.7106C174.395 72.51 169.165 63.3677 166.562 64.9622C165.111 65.8515 166.767 68.6676 165.435 73.8662C165.207 74.758 163.138 82.8431 158.575 83.3297C155.122 83.7002 151.098 79.6243 150.64 75.5892C150.008 70.0213 156.328 65.8577 155.231 64.5324C154.42 63.5517 150.064 64.756 146.926 67.7166C142.198 72.1778 144.067 77.0096 140.251 79.1155C136.526 81.1707 131.091 78.5831 128.442 76.6391C126.495 75.2088 124.153 73.4883 124.293 71.5998C124.784 64.9375 155.542 65.6737 157.438 56.6474Z" fill="#C4D650"/>
<path d="M144.76 103.279C153.416 102.327 159.72 94.9463 158.839 86.7939C157.959 78.6415 150.228 72.8045 141.572 73.7566C132.916 74.7087 126.612 82.0893 127.492 90.2417C128.373 98.394 136.104 104.231 144.76 103.279Z" fill="#E2E2E2"/>
<path d="M148.839 100.098C154.748 99.448 159.051 94.409 158.45 88.8429C157.849 83.2769 152.571 79.2916 146.662 79.9416C140.753 80.5915 136.45 85.6306 137.051 91.1966C137.652 96.7626 142.93 100.748 148.839 100.098Z" fill="black"/>
<path d="M144.845 83.9238C145.158 82.4574 143.273 80.8045 140.637 80.2322C138 79.6598 135.609 80.3846 135.297 81.8511C134.984 83.3175 136.868 84.9704 139.505 85.5427C142.142 86.1151 144.532 85.3903 144.845 83.9238Z" fill="white"/>
<path d="M193.668 99.1282C202.324 98.1761 208.642 90.9236 207.778 82.9292C206.915 74.9348 199.198 69.2259 190.541 70.178C181.885 71.13 175.568 78.3826 176.431 86.377C177.295 94.3713 185.012 100.08 193.668 99.1282Z" fill="#E2E2E2"/>
<path d="M188.275 95.7819C194.184 95.132 198.497 90.1809 197.907 84.7234C197.318 79.2659 192.05 75.3686 186.14 76.0185C180.231 76.6684 175.919 81.6195 176.508 87.077C177.097 92.5346 182.366 96.4319 188.275 95.7819Z" fill="black"/>
<path d="M195.134 81.9294C197.536 80.7 198.949 78.639 198.289 77.3261C197.63 76.0132 195.147 75.9456 192.745 77.175C190.342 78.4045 188.93 80.4654 189.59 81.7783C190.249 83.0912 192.732 83.1589 195.134 81.9294Z" fill="white"/>
<path d="M128.346 25.8547C130.887 26.6452 132.84 28.1125 134.206 30.2566C135.727 32.7541 136.206 35.361 135.643 38.0774C135.08 40.7939 133.638 42.9055 131.316 44.4123L121.682 50.6645C119.968 51.7737 118.668 51.9552 117.782 51.2092C117.369 50.8856 116.887 50.2923 116.338 49.4294L103.264 28.9116C102.981 28.4844 102.724 28.0402 102.495 27.5814C102.339 27.2042 102.249 26.8026 102.23 26.3944C102.149 25.5076 102.889 24.557 104.452 23.5425L113.682 17.5522C115.929 16.0931 118.313 15.6612 120.832 16.2566C123.443 16.828 125.462 18.2352 126.888 20.4782C127.916 22.0738 128.426 23.9532 128.346 25.8547ZM127.489 34.0954C127.112 33.5034 126.745 33.0785 126.388 32.8208C126.225 32.6967 126.04 32.6063 125.843 32.5548C125.645 32.5033 125.44 32.4917 125.238 32.5206C124.624 32.6417 123.877 32.9871 122.999 33.5569C122.12 34.1267 121.35 34.3819 120.69 34.3227C120.031 34.2634 119.36 33.6977 118.677 32.6256C117.994 31.5535 117.768 30.698 118 30.059C118.231 29.4217 118.872 28.763 119.923 28.0828C120.902 27.4496 121.323 26.8103 121.186 26.1647C121.087 25.846 120.842 25.3788 120.452 24.7628C120.061 24.1469 119.585 23.8464 119.023 23.8612C118.463 23.876 117.78 24.1449 116.975 24.6677L111.845 28.0026L120.774 42.0137L126.782 38.1145C128.32 37.1107 128.555 35.771 127.487 34.0954H127.489Z" fill="#E37A39"/>
<path d="M131.191 12.7549C131.001 12.2861 130.837 11.8064 130.702 11.3185C130.619 10.9119 130.608 10.4938 130.669 10.0834C130.762 9.19656 131.674 8.41432 133.405 7.73665C135.299 6.99064 136.617 7.05363 137.36 7.92562C137.675 8.33733 138.017 9.02035 138.385 9.97468L147.19 32.7305C147.382 33.2059 147.546 33.6926 147.68 34.188C147.757 34.5886 147.766 34.9997 147.705 35.4033C147.612 36.2901 146.699 37.0724 144.968 37.75C143.075 38.4961 141.765 38.4137 141.039 37.503C140.708 37.13 140.358 36.4659 139.989 35.5108L131.191 12.7549Z" fill="#E37A39"/>
<path d="M160.243 0.176493C164.497 -0.443537 168.413 0.570084 171.993 3.21736C175.572 5.86463 177.689 9.48764 178.342 14.0864C179 18.6835 178.065 22.8162 175.537 26.4845C173.009 30.1528 169.562 32.3052 165.195 32.9417C160.827 33.5774 156.884 32.523 153.368 29.7786C149.853 27.0342 147.779 23.4577 147.149 19.0491C146.799 16.7328 146.91 14.3694 147.474 12.0966C148.036 9.86847 148.933 7.93922 150.167 6.30886C151.395 4.68065 152.915 3.29832 154.646 2.23297C156.352 1.16624 158.257 0.466157 160.243 0.176493ZM154.736 17.7152C155.105 20.2966 156.231 22.2728 158.114 23.6438C159.996 25.0147 161.957 25.55 163.998 25.2494C166.038 24.9513 167.765 23.9002 169.18 22.0961C170.595 20.2921 171.113 18.0688 170.734 15.4265C170.357 12.7875 169.229 10.7907 167.348 9.43618C165.467 8.08167 163.507 7.55262 161.467 7.84905C159.427 8.14631 157.703 9.21921 156.295 11.0678C154.887 12.9163 154.369 15.1334 154.742 17.7189L154.736 17.7152Z" fill="#E37A39"/>
</svg>
