<svg width="312" height="512" viewBox="0 0 312 512" fill="none" xmlns="http://www.w3.org/2000/svg">
<rect y="352" width="312" height="160" rx="29" fill="#C5D751"/>
<rect x="17" y="368" width="103" height="128" rx="29" fill="white" fill-opacity="0.5"/>
<path d="M136.504 487V486.716C137.117 486.236 137.645 485.811 138.088 485.44C138.531 485.067 138.901 484.736 139.2 484.448C139.499 484.16 139.736 483.901 139.912 483.672C140.088 483.443 140.213 483.231 140.288 483.036C140.363 482.841 140.4 482.649 140.4 482.46C140.4 482.161 140.328 481.891 140.184 481.648C140.043 481.405 139.852 481.212 139.612 481.068C139.372 480.924 139.105 480.852 138.812 480.852C138.519 480.852 138.252 480.924 138.012 481.068C137.772 481.212 137.575 481.409 137.42 481.66C137.265 481.911 137.173 482.199 137.144 482.524L136.596 482.34C136.625 482.047 136.701 481.775 136.824 481.524C136.949 481.273 137.112 481.055 137.312 480.868C137.515 480.681 137.745 480.536 138.004 480.432C138.263 480.328 138.541 480.276 138.84 480.276C139.253 480.276 139.628 480.372 139.964 480.564C140.3 480.753 140.567 481.012 140.764 481.34C140.961 481.668 141.06 482.039 141.06 482.452C141.06 482.665 141.028 482.875 140.964 483.08C140.9 483.285 140.792 483.5 140.64 483.724C140.491 483.948 140.289 484.192 140.036 484.456C139.783 484.717 139.467 485.009 139.088 485.332C138.712 485.655 138.263 486.02 137.74 486.428H141.18V487H136.504ZM145.189 487.128C144.65 487.128 144.178 486.985 143.773 486.7C143.37 486.412 143.057 486.011 142.833 485.496C142.609 484.981 142.497 484.384 142.497 483.704C142.497 483.021 142.609 482.424 142.833 481.912C143.057 481.397 143.37 480.997 143.773 480.712C144.178 480.424 144.65 480.28 145.189 480.28C145.727 480.28 146.198 480.424 146.601 480.712C147.003 480.997 147.317 481.397 147.541 481.912C147.767 482.424 147.881 483.021 147.881 483.704C147.881 484.384 147.767 484.981 147.541 485.496C147.317 486.011 147.003 486.412 146.601 486.7C146.198 486.985 145.727 487.128 145.189 487.128ZM145.189 486.58C145.599 486.58 145.958 486.461 146.265 486.224C146.571 485.987 146.81 485.652 146.981 485.22C147.151 484.788 147.237 484.283 147.237 483.704C147.237 483.123 147.151 482.617 146.981 482.188C146.81 481.756 146.571 481.421 146.265 481.184C145.958 480.947 145.599 480.828 145.189 480.828C144.778 480.828 144.418 480.947 144.109 481.184C143.802 481.421 143.563 481.756 143.393 482.188C143.225 482.617 143.141 483.123 143.141 483.704C143.141 484.283 143.225 484.788 143.393 485.22C143.563 485.652 143.802 485.987 144.109 486.224C144.418 486.461 144.778 486.58 145.189 486.58ZM149.067 487V486.716C149.68 486.236 150.208 485.811 150.651 485.44C151.093 485.067 151.464 484.736 151.763 484.448C152.061 484.16 152.299 483.901 152.475 483.672C152.651 483.443 152.776 483.231 152.851 483.036C152.925 482.841 152.963 482.649 152.963 482.46C152.963 482.161 152.891 481.891 152.747 481.648C152.605 481.405 152.415 481.212 152.175 481.068C151.935 480.924 151.668 480.852 151.375 480.852C151.081 480.852 150.815 480.924 150.575 481.068C150.335 481.212 150.137 481.409 149.983 481.66C149.828 481.911 149.736 482.199 149.707 482.524L149.159 482.34C149.188 482.047 149.264 481.775 149.387 481.524C149.512 481.273 149.675 481.055 149.875 480.868C150.077 480.681 150.308 480.536 150.567 480.432C150.825 480.328 151.104 480.276 151.403 480.276C151.816 480.276 152.191 480.372 152.527 480.564C152.863 480.753 153.129 481.012 153.327 481.34C153.524 481.668 153.623 482.039 153.623 482.452C153.623 482.665 153.591 482.875 153.527 483.08C153.463 483.285 153.355 483.5 153.203 483.724C153.053 483.948 152.852 484.192 152.599 484.456C152.345 484.717 152.029 485.009 151.651 485.332C151.275 485.655 150.825 486.02 150.303 486.428H153.743V487H149.067ZM154.879 487V486.716C155.492 486.236 156.02 485.811 156.463 485.44C156.906 485.067 157.276 484.736 157.575 484.448C157.874 484.16 158.111 483.901 158.287 483.672C158.463 483.443 158.588 483.231 158.663 483.036C158.738 482.841 158.775 482.649 158.775 482.46C158.775 482.161 158.703 481.891 158.559 481.648C158.418 481.405 158.227 481.212 157.987 481.068C157.747 480.924 157.48 480.852 157.187 480.852C156.894 480.852 156.627 480.924 156.387 481.068C156.147 481.212 155.95 481.409 155.795 481.66C155.64 481.911 155.548 482.199 155.519 482.524L154.971 482.34C155 482.047 155.076 481.775 155.199 481.524C155.324 481.273 155.487 481.055 155.687 480.868C155.89 480.681 156.12 480.536 156.379 480.432C156.638 480.328 156.916 480.276 157.215 480.276C157.628 480.276 158.003 480.372 158.339 480.564C158.675 480.753 158.942 481.012 159.139 481.34C159.336 481.668 159.435 482.039 159.435 482.452C159.435 482.665 159.403 482.875 159.339 483.08C159.275 483.285 159.167 483.5 159.015 483.724C158.866 483.948 158.664 484.192 158.411 484.456C158.158 484.717 157.842 485.009 157.463 485.332C157.087 485.655 156.638 486.02 156.115 486.428H159.555V487H154.879Z" fill="white"/>
<path d="M139.196 472L136.428 465.4H137.116L139.436 471.084L141.752 465.4H142.44L139.672 472H139.196ZM145.718 472V465.4H147.114C147.757 465.4 148.255 465.544 148.61 465.832C148.967 466.117 149.146 466.529 149.146 467.068C149.146 467.793 148.829 468.289 148.194 468.556C148.685 468.625 149.063 468.805 149.33 469.096C149.597 469.384 149.73 469.763 149.73 470.232C149.73 470.603 149.647 470.92 149.482 471.184C149.317 471.448 149.079 471.651 148.77 471.792C148.461 471.931 148.091 472 147.662 472H145.718ZM146.326 468.368H147.006C147.507 468.368 147.893 468.261 148.162 468.048C148.431 467.832 148.566 467.525 148.566 467.128C148.566 466.725 148.431 466.417 148.162 466.204C147.893 465.991 147.507 465.884 147.006 465.884H146.326V468.368ZM146.326 471.504H147.502C148.017 471.504 148.413 471.393 148.69 471.172C148.97 470.948 149.11 470.629 149.11 470.216C149.11 469.803 148.969 469.481 148.686 469.252C148.406 469.02 148.011 468.904 147.502 468.904H146.326V471.504ZM150.965 472V467.904H151.549V472H150.965ZM151.261 467.084C151.189 467.084 151.124 467.067 151.065 467.032C151.009 466.997 150.964 466.951 150.929 466.892C150.895 466.833 150.877 466.769 150.877 466.7C150.877 466.631 150.895 466.568 150.929 466.512C150.964 466.453 151.009 466.407 151.065 466.372C151.124 466.337 151.189 466.32 151.261 466.32C151.331 466.32 151.393 466.337 151.449 466.372C151.505 466.407 151.551 466.452 151.585 466.508C151.623 466.564 151.641 466.628 151.641 466.7C151.641 466.769 151.623 466.833 151.585 466.892C151.551 466.951 151.505 466.997 151.449 467.032C151.393 467.067 151.331 467.084 151.261 467.084ZM155.23 472.128C154.803 472.128 154.418 472.036 154.074 471.852C153.733 471.668 153.462 471.412 153.262 471.084C153.062 470.756 152.962 470.379 152.962 469.952C152.962 469.523 153.062 469.145 153.262 468.82C153.462 468.492 153.733 468.236 154.074 468.052C154.415 467.868 154.801 467.776 155.23 467.776C155.657 467.776 156.041 467.868 156.382 468.052C156.726 468.236 156.998 468.492 157.198 468.82C157.398 469.145 157.498 469.523 157.498 469.952C157.498 470.379 157.398 470.756 157.198 471.084C156.998 471.412 156.726 471.668 156.382 471.852C156.041 472.036 155.657 472.128 155.23 472.128ZM155.23 471.608C155.55 471.608 155.835 471.537 156.086 471.396C156.337 471.255 156.534 471.06 156.678 470.812C156.822 470.561 156.894 470.275 156.894 469.952C156.894 469.629 156.822 469.344 156.678 469.096C156.534 468.845 156.337 468.649 156.086 468.508C155.835 468.367 155.55 468.296 155.23 468.296C154.91 468.296 154.625 468.367 154.374 468.508C154.123 468.649 153.926 468.845 153.782 469.096C153.638 469.344 153.566 469.629 153.566 469.952C153.566 470.272 153.638 470.557 153.782 470.808C153.926 471.059 154.123 471.255 154.374 471.396C154.625 471.537 154.91 471.608 155.23 471.608ZM158.891 472V465.12H159.475V472H158.891ZM163.152 472.128C162.725 472.128 162.34 472.036 161.996 471.852C161.655 471.668 161.384 471.412 161.184 471.084C160.984 470.756 160.884 470.379 160.884 469.952C160.884 469.523 160.984 469.145 161.184 468.82C161.384 468.492 161.655 468.236 161.996 468.052C162.337 467.868 162.723 467.776 163.152 467.776C163.579 467.776 163.963 467.868 164.304 468.052C164.648 468.236 164.92 468.492 165.12 468.82C165.32 469.145 165.42 469.523 165.42 469.952C165.42 470.379 165.32 470.756 165.12 471.084C164.92 471.412 164.648 471.668 164.304 471.852C163.963 472.036 163.579 472.128 163.152 472.128ZM163.152 471.608C163.472 471.608 163.757 471.537 164.008 471.396C164.259 471.255 164.456 471.06 164.6 470.812C164.744 470.561 164.816 470.275 164.816 469.952C164.816 469.629 164.744 469.344 164.6 469.096C164.456 468.845 164.259 468.649 164.008 468.508C163.757 468.367 163.472 468.296 163.152 468.296C162.832 468.296 162.547 468.367 162.296 468.508C162.045 468.649 161.848 468.845 161.704 469.096C161.56 469.344 161.488 469.629 161.488 469.952C161.488 470.272 161.56 470.557 161.704 470.808C161.848 471.059 162.045 471.255 162.296 471.396C162.547 471.537 162.832 471.608 163.152 471.608ZM163.108 467.244L162.808 467.024L163.568 465.508L164.028 465.836L163.108 467.244ZM168.637 474.2C168.119 474.2 167.682 474.099 167.325 473.896C166.967 473.693 166.702 473.397 166.529 473.008L167.021 472.78C167.146 473.063 167.354 473.287 167.645 473.452C167.935 473.62 168.266 473.704 168.637 473.704C168.949 473.704 169.227 473.641 169.473 473.516C169.721 473.393 169.915 473.215 170.057 472.98C170.201 472.745 170.273 472.464 170.273 472.136V471.136C170.102 471.445 169.867 471.688 169.569 471.864C169.273 472.04 168.942 472.128 168.577 472.128C168.195 472.128 167.85 472.035 167.541 471.848C167.234 471.661 166.99 471.404 166.809 471.076C166.63 470.748 166.541 470.373 166.541 469.952C166.541 469.533 166.63 469.161 166.809 468.836C166.987 468.508 167.23 468.249 167.537 468.06C167.846 467.871 168.197 467.776 168.589 467.776C168.951 467.776 169.281 467.863 169.577 468.036C169.875 468.209 170.107 468.449 170.273 468.756V467.904H170.857V472.112C170.857 472.565 170.767 472.947 170.589 473.256C170.41 473.568 170.154 473.803 169.821 473.96C169.49 474.12 169.095 474.2 168.637 474.2ZM168.717 471.62C169.026 471.62 169.299 471.549 169.537 471.408C169.774 471.264 169.961 471.067 170.097 470.816C170.233 470.563 170.301 470.276 170.301 469.956C170.301 469.631 170.233 469.343 170.097 469.092C169.961 468.839 169.774 468.641 169.537 468.5C169.299 468.356 169.027 468.284 168.721 468.284C168.414 468.284 168.142 468.356 167.905 468.5C167.667 468.641 167.481 468.839 167.345 469.092C167.209 469.343 167.141 469.631 167.141 469.956C167.141 470.276 167.207 470.563 167.341 470.816C167.477 471.067 167.663 471.264 167.901 471.408C168.141 471.549 168.413 471.62 168.717 471.62ZM172.575 472V467.904H173.159V472H172.575ZM172.871 467.084C172.799 467.084 172.733 467.067 172.675 467.032C172.619 466.997 172.573 466.951 172.539 466.892C172.504 466.833 172.487 466.769 172.487 466.7C172.487 466.631 172.504 466.568 172.539 466.512C172.573 466.453 172.619 466.407 172.675 466.372C172.733 466.337 172.799 466.32 172.871 466.32C172.94 466.32 173.003 466.337 173.059 466.372C173.115 466.407 173.16 466.452 173.195 466.508C173.232 466.564 173.251 466.628 173.251 466.7C173.251 466.769 173.232 466.833 173.195 466.892C173.16 466.951 173.115 466.997 173.059 467.032C173.003 467.067 172.94 467.084 172.871 467.084ZM176.787 472.128C176.481 472.128 176.193 472.075 175.923 471.968C175.654 471.859 175.418 471.705 175.215 471.508C175.013 471.311 174.854 471.08 174.739 470.816C174.625 470.552 174.567 470.264 174.567 469.952C174.567 469.643 174.623 469.356 174.735 469.092C174.847 468.828 175.003 468.597 175.203 468.4C175.406 468.203 175.642 468.049 175.911 467.94C176.181 467.831 176.473 467.776 176.787 467.776C177.057 467.776 177.313 467.816 177.555 467.896C177.798 467.976 178.007 468.087 178.183 468.228L177.943 468.62C177.645 468.388 177.282 468.272 176.855 468.272C176.519 468.272 176.223 468.347 175.967 468.496C175.714 468.643 175.517 468.844 175.375 469.1C175.234 469.353 175.163 469.637 175.163 469.952C175.163 470.269 175.235 470.556 175.379 470.812C175.523 471.065 175.723 471.265 175.979 471.412C176.235 471.559 176.529 471.632 176.859 471.632C177.067 471.632 177.263 471.603 177.447 471.544C177.634 471.483 177.798 471.396 177.939 471.284L178.183 471.676C178.005 471.815 177.795 471.924 177.555 472.004C177.315 472.087 177.059 472.128 176.787 472.128ZM181.163 472.128C180.779 472.128 180.432 472.035 180.123 471.848C179.816 471.659 179.572 471.4 179.391 471.072C179.212 470.744 179.123 470.369 179.123 469.948C179.123 469.532 179.211 469.161 179.387 468.836C179.565 468.508 179.808 468.249 180.115 468.06C180.424 467.871 180.773 467.776 181.163 467.776C181.533 467.776 181.869 467.863 182.171 468.036C182.472 468.209 182.701 468.449 182.859 468.756V467.904H183.443V472H182.859V471.136C182.683 471.445 182.447 471.688 182.151 471.864C181.855 472.04 181.525 472.128 181.163 472.128ZM181.307 471.62C181.613 471.62 181.884 471.549 182.119 471.408C182.356 471.264 182.543 471.067 182.679 470.816C182.815 470.563 182.883 470.275 182.883 469.952C182.883 469.627 182.815 469.339 182.679 469.088C182.545 468.837 182.36 468.641 182.123 468.5C181.885 468.356 181.613 468.284 181.307 468.284C181 468.284 180.728 468.356 180.491 468.5C180.253 468.641 180.067 468.837 179.931 469.088C179.795 469.339 179.727 469.627 179.727 469.952C179.727 470.275 179.795 470.563 179.931 470.816C180.067 471.067 180.253 471.264 180.491 471.408C180.728 471.549 181 471.62 181.307 471.62ZM186.197 472.128C185.859 472.128 185.56 472.047 185.301 471.884C185.043 471.719 184.841 471.485 184.697 471.184L185.009 470.848C185.137 471.109 185.304 471.313 185.509 471.46C185.715 471.604 185.943 471.676 186.193 471.676C186.361 471.676 186.515 471.641 186.653 471.572C186.795 471.503 186.907 471.404 186.989 471.276C187.075 471.145 187.117 470.991 187.117 470.812C187.117 470.649 187.077 470.521 186.997 470.428C186.92 470.335 186.805 470.255 186.653 470.188C186.504 470.119 186.317 470.041 186.093 469.956C185.92 469.887 185.752 469.808 185.589 469.72C185.427 469.632 185.292 469.521 185.185 469.388C185.081 469.252 185.029 469.08 185.029 468.872C185.029 468.661 185.085 468.475 185.197 468.312C185.309 468.147 185.464 468.017 185.661 467.924C185.859 467.828 186.083 467.78 186.333 467.78C186.563 467.78 186.777 467.829 186.977 467.928C187.18 468.027 187.361 468.167 187.521 468.348L187.253 468.688C187.008 468.365 186.703 468.204 186.337 468.204C186.113 468.204 185.931 468.263 185.789 468.38C185.651 468.497 185.581 468.651 185.581 468.84C185.581 468.976 185.625 469.089 185.713 469.18C185.801 469.271 185.916 469.348 186.057 469.412C186.201 469.476 186.356 469.54 186.521 469.604C186.761 469.695 186.969 469.785 187.145 469.876C187.324 469.967 187.463 470.083 187.561 470.224C187.66 470.363 187.709 470.552 187.709 470.792C187.709 471.067 187.645 471.304 187.517 471.504C187.389 471.704 187.211 471.859 186.981 471.968C186.755 472.075 186.493 472.128 186.197 472.128Z" fill="white"/>
<path d="M138.165 439.16C137.398 439.16 136.738 438.9 136.185 438.38L136.725 437.04C137.135 437.42 137.528 437.61 137.905 437.61C138.252 437.61 138.522 437.49 138.715 437.25C138.912 437.01 139.01 436.68 139.01 436.26V430.75H140.63V436.68C140.63 437.467 140.412 438.077 139.975 438.51C139.538 438.943 138.935 439.16 138.165 439.16ZM144.704 439.16C144.234 439.16 143.806 439.043 143.419 438.81C143.036 438.573 142.731 438.25 142.504 437.84C142.281 437.427 142.169 436.957 142.169 436.43C142.169 435.917 142.277 435.457 142.494 435.05C142.711 434.64 143.009 434.317 143.389 434.08C143.772 433.84 144.211 433.72 144.704 433.72C145.067 433.72 145.406 433.79 145.719 433.93C146.036 434.067 146.294 434.258 146.494 434.505V433.88H148.029V439H146.494V438.325C146.261 438.595 145.992 438.802 145.689 438.945C145.386 439.088 145.057 439.16 144.704 439.16ZM145.159 437.855C145.426 437.855 145.662 437.795 145.869 437.675C146.076 437.552 146.237 437.383 146.354 437.17C146.471 436.957 146.529 436.713 146.529 436.44C146.529 436.163 146.469 435.92 146.349 435.71C146.232 435.497 146.071 435.33 145.864 435.21C145.661 435.087 145.426 435.025 145.159 435.025C144.896 435.025 144.661 435.087 144.454 435.21C144.247 435.33 144.084 435.497 143.964 435.71C143.844 435.923 143.784 436.167 143.784 436.44C143.784 436.713 143.842 436.957 143.959 437.17C144.079 437.383 144.242 437.552 144.449 437.675C144.656 437.795 144.892 437.855 145.159 437.855ZM151.531 439.16C151.021 439.16 150.625 438.998 150.341 438.675C150.058 438.348 149.916 437.893 149.916 437.31V435.045H149.231V433.88H149.916V431.96H151.451V433.88H152.576V435.045H151.451V437.2C151.451 437.393 151.49 437.54 151.566 437.64C151.646 437.74 151.758 437.79 151.901 437.79C152.061 437.79 152.215 437.737 152.361 437.63L152.746 438.86C152.573 438.953 152.378 439.027 152.161 439.08C151.948 439.133 151.738 439.16 151.531 439.16ZM156.188 439.16C155.718 439.16 155.29 439.043 154.903 438.81C154.52 438.573 154.215 438.25 153.988 437.84C153.765 437.427 153.653 436.957 153.653 436.43C153.653 435.917 153.762 435.457 153.978 435.05C154.195 434.64 154.493 434.317 154.873 434.08C155.257 433.84 155.695 433.72 156.188 433.72C156.552 433.72 156.89 433.79 157.203 433.93C157.52 434.067 157.778 434.258 157.978 434.505V433.88H159.513V439H157.978V438.325C157.745 438.595 157.477 438.802 157.173 438.945C156.87 439.088 156.542 439.16 156.188 439.16ZM156.643 437.855C156.91 437.855 157.147 437.795 157.353 437.675C157.56 437.552 157.722 437.383 157.838 437.17C157.955 436.957 158.013 436.713 158.013 436.44C158.013 436.163 157.953 435.92 157.833 435.71C157.717 435.497 157.555 435.33 157.348 435.21C157.145 435.087 156.91 435.025 156.643 435.025C156.38 435.025 156.145 435.087 155.938 435.21C155.732 435.33 155.568 435.497 155.448 435.71C155.328 435.923 155.268 436.167 155.268 436.44C155.268 436.713 155.327 436.957 155.443 437.17C155.563 437.383 155.727 437.552 155.933 437.675C156.14 437.795 156.377 437.855 156.643 437.855ZM161.319 439V433.88H162.854V434.45C163.051 434.23 163.296 434.053 163.589 433.92C163.886 433.787 164.212 433.72 164.569 433.72C164.962 433.72 165.307 433.807 165.604 433.98C165.904 434.15 166.139 434.388 166.309 434.695C166.479 434.998 166.564 435.353 166.564 435.76V439H165.029V436.085C165.029 435.718 164.932 435.433 164.739 435.23C164.549 435.023 164.287 434.92 163.954 434.92C163.727 434.92 163.531 434.967 163.364 435.06C163.201 435.15 163.074 435.275 162.984 435.435C162.897 435.592 162.854 435.77 162.854 435.97V439H161.319ZM168.062 441.6L169.717 438.36L167.282 433.88H169.042L170.612 436.88L171.972 433.88H173.732L169.817 441.6H168.062ZM176.466 439L179.781 430.75H181.286L184.596 439H182.851L182.151 437.12H178.911L178.211 439H176.466ZM179.466 435.7H181.601L180.531 432.935L179.466 435.7ZM185.596 439V430.4H187.131V439H185.596ZM191.486 439.16C190.923 439.16 190.415 439.045 189.961 438.815C189.508 438.582 189.148 438.262 188.881 437.855C188.615 437.445 188.481 436.973 188.481 436.44C188.481 435.907 188.613 435.437 188.876 435.03C189.143 434.62 189.503 434.3 189.956 434.07C190.413 433.837 190.923 433.72 191.486 433.72C192.053 433.72 192.563 433.837 193.016 434.07C193.47 434.3 193.828 434.62 194.091 435.03C194.358 435.437 194.491 435.907 194.491 436.44C194.491 436.973 194.358 437.445 194.091 437.855C193.828 438.262 193.47 438.582 193.016 438.815C192.563 439.045 192.053 439.16 191.486 439.16ZM191.491 437.85C191.751 437.85 191.988 437.79 192.201 437.67C192.415 437.55 192.583 437.385 192.706 437.175C192.83 436.962 192.891 436.717 192.891 436.44C192.891 436.163 192.83 435.92 192.706 435.71C192.583 435.497 192.415 435.33 192.201 435.21C191.988 435.09 191.751 435.03 191.491 435.03C191.228 435.03 190.99 435.09 190.776 435.21C190.566 435.33 190.4 435.497 190.276 435.71C190.153 435.92 190.091 436.163 190.091 436.44C190.091 436.717 190.153 436.962 190.276 437.175C190.4 437.385 190.566 437.55 190.776 437.67C190.99 437.79 191.228 437.85 191.491 437.85ZM199.185 439.16C198.832 439.16 198.5 439.087 198.19 438.94C197.88 438.793 197.612 438.588 197.385 438.325V439H195.85V430.4H197.385V434.505C197.589 434.258 197.844 434.067 198.15 433.93C198.457 433.79 198.789 433.72 199.145 433.72C199.639 433.72 200.079 433.84 200.465 434.08C200.852 434.317 201.155 434.64 201.375 435.05C201.595 435.457 201.705 435.92 201.705 436.44C201.705 436.97 201.592 437.44 201.365 437.85C201.139 438.26 200.834 438.582 200.45 438.815C200.07 439.045 199.649 439.16 199.185 439.16ZM198.725 437.855C198.995 437.855 199.232 437.795 199.435 437.675C199.639 437.552 199.799 437.385 199.915 437.175C200.032 436.962 200.09 436.72 200.09 436.45C200.09 436.177 200.03 435.933 199.91 435.72C199.79 435.503 199.629 435.333 199.425 435.21C199.222 435.087 198.989 435.025 198.725 435.025C198.462 435.025 198.225 435.087 198.015 435.21C197.809 435.333 197.645 435.502 197.525 435.715C197.405 435.928 197.345 436.173 197.345 436.45C197.345 436.72 197.404 436.962 197.52 437.175C197.64 437.385 197.804 437.552 198.01 437.675C198.22 437.795 198.459 437.855 198.725 437.855ZM203.116 439V433.88H204.651V434.615C204.841 434.328 205.073 434.108 205.346 433.955C205.623 433.798 205.919 433.72 206.236 433.72C206.416 433.72 206.603 433.747 206.796 433.8C206.989 433.853 207.151 433.922 207.281 434.005L206.641 435.3C206.528 435.223 206.394 435.163 206.241 435.12C206.091 435.073 205.951 435.05 205.821 435.05C205.621 435.05 205.431 435.102 205.251 435.205C205.071 435.308 204.926 435.443 204.816 435.61C204.706 435.773 204.651 435.95 204.651 436.14V439H203.116ZM210.192 439.16C209.722 439.16 209.294 439.043 208.907 438.81C208.524 438.573 208.219 438.25 207.992 437.84C207.769 437.427 207.657 436.957 207.657 436.43C207.657 435.917 207.766 435.457 207.982 435.05C208.199 434.64 208.497 434.317 208.877 434.08C209.261 433.84 209.699 433.72 210.192 433.72C210.556 433.72 210.894 433.79 211.207 433.93C211.524 434.067 211.782 434.258 211.982 434.505V433.88H213.517V439H211.982V438.325C211.749 438.595 211.481 438.802 211.177 438.945C210.874 439.088 210.546 439.16 210.192 439.16ZM210.647 437.855C210.914 437.855 211.151 437.795 211.357 437.675C211.564 437.552 211.726 437.383 211.842 437.17C211.959 436.957 212.017 436.713 212.017 436.44C212.017 436.163 211.957 435.92 211.837 435.71C211.721 435.497 211.559 435.33 211.352 435.21C211.149 435.087 210.914 435.025 210.647 435.025C210.384 435.025 210.149 435.087 209.942 435.21C209.736 435.33 209.572 435.497 209.452 435.71C209.332 435.923 209.272 436.167 209.272 436.44C209.272 436.713 209.331 436.957 209.447 437.17C209.567 437.383 209.731 437.552 209.937 437.675C210.144 437.795 210.381 437.855 210.647 437.855ZM217.208 439L220.523 430.75H222.028L225.338 439H223.593L222.893 437.12H219.653L218.953 439H217.208ZM220.208 435.7H222.343L221.273 432.935L220.208 435.7ZM226.339 439V433.88H227.874V434.45C228.127 434.197 228.379 434.012 228.629 433.895C228.879 433.778 229.149 433.72 229.439 433.72C229.832 433.72 230.187 433.808 230.504 433.985C230.82 434.162 231.047 434.398 231.184 434.695C231.434 434.372 231.702 434.128 231.989 433.965C232.275 433.802 232.604 433.72 232.974 433.72C233.344 433.72 233.672 433.797 233.959 433.95C234.245 434.103 234.47 434.322 234.634 434.605C234.8 434.885 234.884 435.217 234.884 435.6V439H233.349V436.02C233.349 435.687 233.262 435.425 233.089 435.235C232.915 435.042 232.684 434.945 232.394 434.945C232.194 434.945 232.017 434.987 231.864 435.07C231.714 435.153 231.595 435.265 231.509 435.405C231.422 435.545 231.379 435.7 231.379 435.87V439H229.844V435.99C229.844 435.673 229.759 435.42 229.589 435.23C229.422 435.04 229.19 434.945 228.894 434.945C228.697 434.945 228.52 434.987 228.364 435.07C228.21 435.153 228.09 435.267 228.004 435.41C227.917 435.553 227.874 435.712 227.874 435.885V439H226.339ZM239.947 439.16C239.594 439.16 239.262 439.087 238.952 438.94C238.642 438.793 238.374 438.588 238.147 438.325V439H236.612V430.4H238.147V434.505C238.35 434.258 238.605 434.067 238.912 433.93C239.219 433.79 239.55 433.72 239.907 433.72C240.4 433.72 240.84 433.84 241.227 434.08C241.614 434.317 241.917 434.64 242.137 435.05C242.357 435.457 242.467 435.92 242.467 436.44C242.467 436.97 242.354 437.44 242.127 437.85C241.9 438.26 241.595 438.582 241.212 438.815C240.832 439.045 240.41 439.16 239.947 439.16ZM239.487 437.855C239.757 437.855 239.994 437.795 240.197 437.675C240.4 437.552 240.56 437.385 240.677 437.175C240.794 436.962 240.852 436.72 240.852 436.45C240.852 436.177 240.792 435.933 240.672 435.72C240.552 435.503 240.39 435.333 240.187 435.21C239.984 435.087 239.75 435.025 239.487 435.025C239.224 435.025 238.987 435.087 238.777 435.21C238.57 435.333 238.407 435.502 238.287 435.715C238.167 435.928 238.107 436.173 238.107 436.45C238.107 436.72 238.165 436.962 238.282 437.175C238.402 437.385 238.565 437.552 238.772 437.675C238.982 437.795 239.22 437.855 239.487 437.855ZM243.878 439V433.88H245.413V434.615C245.603 434.328 245.834 434.108 246.108 433.955C246.384 433.798 246.681 433.72 246.998 433.72C247.178 433.72 247.364 433.747 247.558 433.8C247.751 433.853 247.913 433.922 248.043 434.005L247.403 435.3C247.289 435.223 247.156 435.163 247.003 435.12C246.853 435.073 246.713 435.05 246.583 435.05C246.383 435.05 246.193 435.102 246.013 435.205C245.833 435.308 245.688 435.443 245.578 435.61C245.468 435.773 245.413 435.95 245.413 436.14V439H243.878ZM251.389 439.16C250.825 439.16 250.317 439.045 249.864 438.815C249.41 438.582 249.05 438.262 248.784 437.855C248.517 437.445 248.384 436.973 248.384 436.44C248.384 435.907 248.515 435.437 248.779 435.03C249.045 434.62 249.405 434.3 249.859 434.07C250.315 433.837 250.825 433.72 251.389 433.72C251.955 433.72 252.465 433.837 252.919 434.07C253.372 434.3 253.73 434.62 253.994 435.03C254.26 435.437 254.394 435.907 254.394 436.44C254.394 436.973 254.26 437.445 253.994 437.855C253.73 438.262 253.372 438.582 252.919 438.815C252.465 439.045 251.955 439.16 251.389 439.16ZM251.394 437.85C251.654 437.85 251.89 437.79 252.104 437.67C252.317 437.55 252.485 437.385 252.609 437.175C252.732 436.962 252.794 436.717 252.794 436.44C252.794 436.163 252.732 435.92 252.609 435.71C252.485 435.497 252.317 435.33 252.104 435.21C251.89 435.09 251.654 435.03 251.394 435.03C251.13 435.03 250.892 435.09 250.679 435.21C250.469 435.33 250.302 435.497 250.179 435.71C250.055 435.92 249.994 436.163 249.994 436.44C249.994 436.717 250.055 436.962 250.179 437.175C250.302 437.385 250.469 437.55 250.679 437.67C250.892 437.79 251.13 437.85 251.394 437.85ZM258.148 439.16C257.758 439.16 257.389 439.09 257.043 438.95C256.699 438.81 256.396 438.617 256.133 438.37C255.869 438.12 255.663 437.832 255.513 437.505C255.363 437.175 255.288 436.822 255.288 436.445C255.288 436.082 255.358 435.737 255.498 435.41C255.641 435.083 255.841 434.793 256.098 434.54C256.358 434.287 256.661 434.087 257.008 433.94C257.358 433.793 257.736 433.72 258.143 433.72C258.473 433.72 258.789 433.767 259.093 433.86C259.399 433.953 259.646 434.073 259.833 434.22L259.308 435.255C259.058 435.072 258.748 434.98 258.378 434.98C258.061 434.98 257.793 435.05 257.573 435.19C257.353 435.33 257.184 435.512 257.068 435.735C256.954 435.958 256.898 436.193 256.898 436.44C256.898 436.71 256.959 436.957 257.083 437.18C257.206 437.4 257.379 437.575 257.603 437.705C257.829 437.835 258.091 437.9 258.388 437.9C258.571 437.9 258.743 437.875 258.903 437.825C259.063 437.775 259.198 437.708 259.308 437.625L259.833 438.66C259.643 438.803 259.398 438.922 259.098 439.015C258.798 439.112 258.481 439.16 258.148 439.16ZM261.05 439V433.88H262.585V439H261.05ZM261.82 432.815C261.654 432.815 261.5 432.775 261.36 432.695C261.224 432.612 261.114 432.5 261.03 432.36C260.947 432.22 260.905 432.067 260.905 431.9C260.905 431.733 260.947 431.582 261.03 431.445C261.114 431.308 261.224 431.2 261.36 431.12C261.5 431.037 261.654 430.995 261.82 430.995C261.987 430.995 262.139 431.037 262.275 431.12C262.412 431.2 262.52 431.308 262.6 431.445C262.684 431.582 262.725 431.733 262.725 431.9C262.725 432.067 262.684 432.22 262.6 432.36C262.52 432.5 262.412 432.612 262.275 432.695C262.139 432.775 261.987 432.815 261.82 432.815ZM266.945 439.16C266.382 439.16 265.874 439.045 265.42 438.815C264.967 438.582 264.607 438.262 264.34 437.855C264.074 437.445 263.94 436.973 263.94 436.44C263.94 435.907 264.072 435.437 264.335 435.03C264.602 434.62 264.962 434.3 265.415 434.07C265.872 433.837 266.382 433.72 266.945 433.72C267.512 433.72 268.022 433.837 268.475 434.07C268.929 434.3 269.287 434.62 269.55 435.03C269.817 435.437 269.95 435.907 269.95 436.44C269.95 436.973 269.817 437.445 269.55 437.855C269.287 438.262 268.929 438.582 268.475 438.815C268.022 439.045 267.512 439.16 266.945 439.16ZM266.95 437.85C267.21 437.85 267.447 437.79 267.66 437.67C267.874 437.55 268.042 437.385 268.165 437.175C268.289 436.962 268.35 436.717 268.35 436.44C268.35 436.163 268.289 435.92 268.165 435.71C268.042 435.497 267.874 435.33 267.66 435.21C267.447 435.09 267.21 435.03 266.95 435.03C266.687 435.03 266.449 435.09 266.235 435.21C266.025 435.33 265.859 435.497 265.735 435.71C265.612 435.92 265.55 436.163 265.55 436.44C265.55 436.717 265.612 436.962 265.735 437.175C265.859 437.385 266.025 437.55 266.235 437.67C266.449 437.79 266.687 437.85 266.95 437.85ZM136.745 450L137.565 441.75H139.285L141.255 446.91L143.225 441.75H144.945L145.765 450H144.145L143.635 444.66L141.75 449.795H140.755L138.875 444.66L138.36 450H136.745ZM149.963 450.16C149.399 450.16 148.891 450.045 148.438 449.815C147.984 449.582 147.624 449.262 147.358 448.855C147.091 448.445 146.958 447.973 146.958 447.44C146.958 446.907 147.089 446.437 147.353 446.03C147.619 445.62 147.979 445.3 148.433 445.07C148.889 444.837 149.399 444.72 149.963 444.72C150.529 444.72 151.039 444.837 151.493 445.07C151.946 445.3 152.304 445.62 152.568 446.03C152.834 446.437 152.968 446.907 152.968 447.44C152.968 447.973 152.834 448.445 152.568 448.855C152.304 449.262 151.946 449.582 151.493 449.815C151.039 450.045 150.529 450.16 149.963 450.16ZM149.968 448.85C150.228 448.85 150.464 448.79 150.678 448.67C150.891 448.55 151.059 448.385 151.183 448.175C151.306 447.962 151.368 447.717 151.368 447.44C151.368 447.163 151.306 446.92 151.183 446.71C151.059 446.497 150.891 446.33 150.678 446.21C150.464 446.09 150.228 446.03 149.968 446.03C149.704 446.03 149.466 446.09 149.253 446.21C149.043 446.33 148.876 446.497 148.753 446.71C148.629 446.92 148.568 447.163 148.568 447.44C148.568 447.717 148.629 447.962 148.753 448.175C148.876 448.385 149.043 448.55 149.253 448.67C149.466 448.79 149.704 448.85 149.968 448.85ZM154.307 450V444.88H155.842V445.615C156.032 445.328 156.264 445.108 156.537 444.955C156.814 444.798 157.111 444.72 157.427 444.72C157.607 444.72 157.794 444.747 157.987 444.8C158.181 444.853 158.342 444.922 158.472 445.005L157.832 446.3C157.719 446.223 157.586 446.163 157.432 446.12C157.282 446.073 157.142 446.05 157.012 446.05C156.812 446.05 156.622 446.102 156.442 446.205C156.262 446.308 156.117 446.443 156.007 446.61C155.897 446.773 155.842 446.95 155.842 447.14V450H154.307ZM161.384 450.16C160.914 450.16 160.485 450.043 160.099 449.81C159.715 449.573 159.41 449.25 159.184 448.84C158.96 448.427 158.849 447.957 158.849 447.43C158.849 446.917 158.957 446.457 159.174 446.05C159.39 445.64 159.689 445.317 160.069 445.08C160.452 444.84 160.89 444.72 161.384 444.72C161.747 444.72 162.085 444.79 162.399 444.93C162.715 445.067 162.974 445.258 163.174 445.505V444.88H164.709V450H163.174V449.325C162.94 449.595 162.672 449.802 162.369 449.945C162.065 450.088 161.737 450.16 161.384 450.16ZM161.839 448.855C162.105 448.855 162.342 448.795 162.549 448.675C162.755 448.552 162.917 448.383 163.034 448.17C163.15 447.957 163.209 447.713 163.209 447.44C163.209 447.163 163.149 446.92 163.029 446.71C162.912 446.497 162.75 446.33 162.544 446.21C162.34 446.087 162.105 446.025 161.839 446.025C161.575 446.025 161.34 446.087 161.134 446.21C160.927 446.33 160.764 446.497 160.644 446.71C160.524 446.923 160.464 447.167 160.464 447.44C160.464 447.713 160.522 447.957 160.639 448.17C160.759 448.383 160.922 448.552 161.129 448.675C161.335 448.795 161.572 448.855 161.839 448.855ZM166.514 450V441.4H168.049V450H166.514ZM172.314 450.16C171.761 450.16 171.264 450.042 170.824 449.805C170.388 449.565 170.041 449.24 169.784 448.83C169.528 448.42 169.399 447.957 169.399 447.44C169.399 447.06 169.471 446.705 169.614 446.375C169.761 446.045 169.964 445.757 170.224 445.51C170.484 445.26 170.786 445.067 171.129 444.93C171.473 444.79 171.844 444.72 172.244 444.72C172.778 444.72 173.244 444.832 173.644 445.055C174.048 445.275 174.361 445.582 174.584 445.975C174.811 446.368 174.924 446.827 174.924 447.35C174.924 447.393 174.923 447.432 174.919 447.465C174.919 447.495 174.914 447.553 174.904 447.64H170.979C170.979 447.9 171.038 448.127 171.154 448.32C171.274 448.513 171.441 448.665 171.654 448.775C171.868 448.882 172.116 448.935 172.399 448.935C172.666 448.935 172.901 448.883 173.104 448.78C173.311 448.677 173.509 448.512 173.699 448.285L174.804 448.84C174.564 449.253 174.224 449.577 173.784 449.81C173.344 450.043 172.854 450.16 172.314 450.16ZM171.034 446.79H173.414C173.381 446.593 173.309 446.423 173.199 446.28C173.093 446.137 172.956 446.027 172.789 445.95C172.623 445.873 172.434 445.835 172.224 445.835C172.001 445.835 171.804 445.873 171.634 445.95C171.464 446.027 171.328 446.137 171.224 446.28C171.121 446.423 171.058 446.593 171.034 446.79ZM177.72 450.16C177.287 450.16 176.899 450.092 176.555 449.955C176.215 449.818 175.932 449.618 175.705 449.355L176.35 448.325C176.564 448.552 176.787 448.725 177.02 448.845C177.254 448.965 177.487 449.025 177.72 449.025C177.85 449.025 177.962 449.003 178.055 448.96C178.152 448.917 178.227 448.855 178.28 448.775C178.337 448.692 178.365 448.592 178.365 448.475C178.365 448.342 178.327 448.237 178.25 448.16C178.177 448.083 178.064 448.013 177.91 447.95C177.757 447.883 177.559 447.8 177.315 447.7C177.109 447.613 176.91 447.515 176.72 447.405C176.53 447.295 176.375 447.155 176.255 446.985C176.139 446.815 176.08 446.6 176.08 446.34C176.08 446.023 176.169 445.745 176.345 445.505C176.522 445.262 176.765 445.072 177.075 444.935C177.389 444.798 177.749 444.73 178.155 444.73C178.409 444.73 178.674 444.768 178.95 444.845C179.23 444.922 179.529 445.038 179.845 445.195L179.32 446.18C178.89 445.903 178.505 445.765 178.165 445.765C177.975 445.765 177.824 445.807 177.71 445.89C177.597 445.973 177.54 446.078 177.54 446.205C177.54 446.325 177.599 446.43 177.715 446.52C177.835 446.607 177.98 446.685 178.15 446.755C178.324 446.822 178.489 446.883 178.645 446.94C178.902 447.033 179.129 447.137 179.325 447.25C179.525 447.363 179.682 447.512 179.795 447.695C179.909 447.875 179.965 448.117 179.965 448.42C179.965 448.79 179.875 449.105 179.695 449.365C179.519 449.622 179.262 449.818 178.925 449.955C178.592 450.092 178.19 450.16 177.72 450.16Z" fill="white"/>
<rect y="176" width="312" height="160" rx="29" fill="#C5D751"/>
<rect x="192" y="192" width="104" height="128" rx="29" fill="white" fill-opacity="0.5"/>
<path d="M17.504 311V310.716C18.1173 310.236 18.6453 309.811 19.088 309.44C19.5307 309.067 19.9013 308.736 20.2 308.448C20.4987 308.16 20.736 307.901 20.912 307.672C21.088 307.443 21.2133 307.231 21.288 307.036C21.3627 306.841 21.4 306.649 21.4 306.46C21.4 306.161 21.328 305.891 21.184 305.648C21.0427 305.405 20.852 305.212 20.612 305.068C20.372 304.924 20.1053 304.852 19.812 304.852C19.5187 304.852 19.252 304.924 19.012 305.068C18.772 305.212 18.5747 305.409 18.42 305.66C18.2653 305.911 18.1733 306.199 18.144 306.524L17.596 306.34C17.6253 306.047 17.7013 305.775 17.824 305.524C17.9493 305.273 18.112 305.055 18.312 304.868C18.5147 304.681 18.7453 304.536 19.004 304.432C19.2627 304.328 19.5413 304.276 19.84 304.276C20.2533 304.276 20.628 304.372 20.964 304.564C21.3 304.753 21.5667 305.012 21.764 305.34C21.9613 305.668 22.06 306.039 22.06 306.452C22.06 306.665 22.028 306.875 21.964 307.08C21.9 307.285 21.792 307.5 21.64 307.724C21.4907 307.948 21.2893 308.192 21.036 308.456C20.7827 308.717 20.4667 309.009 20.088 309.332C19.712 309.655 19.2627 310.02 18.74 310.428H22.18V311H17.504ZM26.1885 311.128C25.6498 311.128 25.1778 310.985 24.7725 310.7C24.3698 310.412 24.0565 310.011 23.8325 309.496C23.6085 308.981 23.4965 308.384 23.4965 307.704C23.4965 307.021 23.6085 306.424 23.8325 305.912C24.0565 305.397 24.3698 304.997 24.7725 304.712C25.1778 304.424 25.6498 304.28 26.1885 304.28C26.7272 304.28 27.1978 304.424 27.6005 304.712C28.0032 304.997 28.3165 305.397 28.5405 305.912C28.7672 306.424 28.8805 307.021 28.8805 307.704C28.8805 308.384 28.7672 308.981 28.5405 309.496C28.3165 310.011 28.0032 310.412 27.6005 310.7C27.1978 310.985 26.7272 311.128 26.1885 311.128ZM26.1885 310.58C26.5992 310.58 26.9578 310.461 27.2645 310.224C27.5712 309.987 27.8098 309.652 27.9805 309.22C28.1512 308.788 28.2365 308.283 28.2365 307.704C28.2365 307.123 28.1512 306.617 27.9805 306.188C27.8098 305.756 27.5712 305.421 27.2645 305.184C26.9578 304.947 26.5992 304.828 26.1885 304.828C25.7778 304.828 25.4178 304.947 25.1085 305.184C24.8018 305.421 24.5632 305.756 24.3925 306.188C24.2245 306.617 24.1405 307.123 24.1405 307.704C24.1405 308.283 24.2245 308.788 24.3925 309.22C24.5632 309.652 24.8018 309.987 25.1085 310.224C25.4178 310.461 25.7778 310.58 26.1885 310.58ZM30.0665 311V310.716C30.6798 310.236 31.2078 309.811 31.6505 309.44C32.0932 309.067 32.4638 308.736 32.7625 308.448C33.0612 308.16 33.2985 307.901 33.4745 307.672C33.6505 307.443 33.7758 307.231 33.8505 307.036C33.9252 306.841 33.9625 306.649 33.9625 306.46C33.9625 306.161 33.8905 305.891 33.7465 305.648C33.6052 305.405 33.4145 305.212 33.1745 305.068C32.9345 304.924 32.6678 304.852 32.3745 304.852C32.0812 304.852 31.8145 304.924 31.5745 305.068C31.3345 305.212 31.1372 305.409 30.9825 305.66C30.8278 305.911 30.7358 306.199 30.7065 306.524L30.1585 306.34C30.1878 306.047 30.2638 305.775 30.3865 305.524C30.5118 305.273 30.6745 305.055 30.8745 304.868C31.0772 304.681 31.3078 304.536 31.5665 304.432C31.8252 304.328 32.1038 304.276 32.4025 304.276C32.8158 304.276 33.1905 304.372 33.5265 304.564C33.8625 304.753 34.1292 305.012 34.3265 305.34C34.5238 305.668 34.6225 306.039 34.6225 306.452C34.6225 306.665 34.5905 306.875 34.5265 307.08C34.4625 307.285 34.3545 307.5 34.2025 307.724C34.0532 307.948 33.8518 308.192 33.5985 308.456C33.3452 308.717 33.0292 309.009 32.6505 309.332C32.2745 309.655 31.8252 310.02 31.3025 310.428H34.7425V311H30.0665ZM35.879 311V310.716C36.4923 310.236 37.0203 309.811 37.463 309.44C37.9057 309.067 38.2763 308.736 38.575 308.448C38.8737 308.16 39.111 307.901 39.287 307.672C39.463 307.443 39.5883 307.231 39.663 307.036C39.7377 306.841 39.775 306.649 39.775 306.46C39.775 306.161 39.703 305.891 39.559 305.648C39.4177 305.405 39.227 305.212 38.987 305.068C38.747 304.924 38.4803 304.852 38.187 304.852C37.8937 304.852 37.627 304.924 37.387 305.068C37.147 305.212 36.9497 305.409 36.795 305.66C36.6403 305.911 36.5483 306.199 36.519 306.524L35.971 306.34C36.0003 306.047 36.0763 305.775 36.199 305.524C36.3243 305.273 36.487 305.055 36.687 304.868C36.8897 304.681 37.1203 304.536 37.379 304.432C37.6377 304.328 37.9163 304.276 38.215 304.276C38.6283 304.276 39.003 304.372 39.339 304.564C39.675 304.753 39.9417 305.012 40.139 305.34C40.3363 305.668 40.435 306.039 40.435 306.452C40.435 306.665 40.403 306.875 40.339 307.08C40.275 307.285 40.167 307.5 40.015 307.724C39.8657 307.948 39.6643 308.192 39.411 308.456C39.1577 308.717 38.8417 309.009 38.463 309.332C38.087 309.655 37.6377 310.02 37.115 310.428H40.555V311H35.879Z" fill="white"/>
<path d="M20.196 296L17.428 289.4H18.116L20.436 295.084L22.752 289.4H23.44L20.672 296H20.196ZM26.7179 296V289.4H28.1139C28.7565 289.4 29.2552 289.544 29.6099 289.832C29.9672 290.117 30.1459 290.529 30.1459 291.068C30.1459 291.793 29.8285 292.289 29.1939 292.556C29.6845 292.625 30.0632 292.805 30.3299 293.096C30.5965 293.384 30.7299 293.763 30.7299 294.232C30.7299 294.603 30.6472 294.92 30.4819 295.184C30.3165 295.448 30.0792 295.651 29.7699 295.792C29.4605 295.931 29.0912 296 28.6619 296H26.7179ZM27.3259 292.368H28.0059C28.5072 292.368 28.8925 292.261 29.1619 292.048C29.4312 291.832 29.5659 291.525 29.5659 291.128C29.5659 290.725 29.4312 290.417 29.1619 290.204C28.8925 289.991 28.5072 289.884 28.0059 289.884H27.3259V292.368ZM27.3259 295.504H28.5019C29.0165 295.504 29.4125 295.393 29.6899 295.172C29.9699 294.948 30.1099 294.629 30.1099 294.216C30.1099 293.803 29.9685 293.481 29.6859 293.252C29.4059 293.02 29.0112 292.904 28.5019 292.904H27.3259V295.504ZM31.9654 296V291.904H32.5494V296H31.9654ZM32.2614 291.084C32.1894 291.084 32.124 291.067 32.0654 291.032C32.0094 290.997 31.964 290.951 31.9294 290.892C31.8947 290.833 31.8774 290.769 31.8774 290.7C31.8774 290.631 31.8947 290.568 31.9294 290.512C31.964 290.453 32.0094 290.407 32.0654 290.372C32.124 290.337 32.1894 290.32 32.2614 290.32C32.3307 290.32 32.3934 290.337 32.4494 290.372C32.5054 290.407 32.5507 290.452 32.5854 290.508C32.6227 290.564 32.6414 290.628 32.6414 290.7C32.6414 290.769 32.6227 290.833 32.5854 290.892C32.5507 290.951 32.5054 290.997 32.4494 291.032C32.3934 291.067 32.3307 291.084 32.2614 291.084ZM36.2301 296.128C35.8034 296.128 35.4181 296.036 35.0741 295.852C34.7327 295.668 34.4621 295.412 34.2621 295.084C34.0621 294.756 33.9621 294.379 33.9621 293.952C33.9621 293.523 34.0621 293.145 34.2621 292.82C34.4621 292.492 34.7327 292.236 35.0741 292.052C35.4154 291.868 35.8007 291.776 36.2301 291.776C36.6567 291.776 37.0407 291.868 37.3821 292.052C37.7261 292.236 37.9981 292.492 38.1981 292.82C38.3981 293.145 38.4981 293.523 38.4981 293.952C38.4981 294.379 38.3981 294.756 38.1981 295.084C37.9981 295.412 37.7261 295.668 37.3821 295.852C37.0407 296.036 36.6567 296.128 36.2301 296.128ZM36.2301 295.608C36.5501 295.608 36.8354 295.537 37.0861 295.396C37.3367 295.255 37.5341 295.06 37.6781 294.812C37.8221 294.561 37.8941 294.275 37.8941 293.952C37.8941 293.629 37.8221 293.344 37.6781 293.096C37.5341 292.845 37.3367 292.649 37.0861 292.508C36.8354 292.367 36.5501 292.296 36.2301 292.296C35.9101 292.296 35.6247 292.367 35.3741 292.508C35.1234 292.649 34.9261 292.845 34.7821 293.096C34.6381 293.344 34.5661 293.629 34.5661 293.952C34.5661 294.272 34.6381 294.557 34.7821 294.808C34.9261 295.059 35.1234 295.255 35.3741 295.396C35.6247 295.537 35.9101 295.608 36.2301 295.608ZM39.8913 296V289.12H40.4753V296H39.8913ZM44.1519 296.128C43.7253 296.128 43.3399 296.036 42.9959 295.852C42.6546 295.668 42.3839 295.412 42.1839 295.084C41.9839 294.756 41.8839 294.379 41.8839 293.952C41.8839 293.523 41.9839 293.145 42.1839 292.82C42.3839 292.492 42.6546 292.236 42.9959 292.052C43.3373 291.868 43.7226 291.776 44.1519 291.776C44.5786 291.776 44.9626 291.868 45.3039 292.052C45.6479 292.236 45.9199 292.492 46.1199 292.82C46.3199 293.145 46.4199 293.523 46.4199 293.952C46.4199 294.379 46.3199 294.756 46.1199 295.084C45.9199 295.412 45.6479 295.668 45.3039 295.852C44.9626 296.036 44.5786 296.128 44.1519 296.128ZM44.1519 295.608C44.4719 295.608 44.7573 295.537 45.0079 295.396C45.2586 295.255 45.4559 295.06 45.5999 294.812C45.7439 294.561 45.8159 294.275 45.8159 293.952C45.8159 293.629 45.7439 293.344 45.5999 293.096C45.4559 292.845 45.2586 292.649 45.0079 292.508C44.7573 292.367 44.4719 292.296 44.1519 292.296C43.8319 292.296 43.5466 292.367 43.2959 292.508C43.0453 292.649 42.8479 292.845 42.7039 293.096C42.5599 293.344 42.4879 293.629 42.4879 293.952C42.4879 294.272 42.5599 294.557 42.7039 294.808C42.8479 295.059 43.0453 295.255 43.2959 295.396C43.5466 295.537 43.8319 295.608 44.1519 295.608ZM44.1079 291.244L43.8079 291.024L44.5679 289.508L45.0279 289.836L44.1079 291.244ZM49.6368 298.2C49.1194 298.2 48.6821 298.099 48.3248 297.896C47.9674 297.693 47.7021 297.397 47.5288 297.008L48.0208 296.78C48.1461 297.063 48.3541 297.287 48.6448 297.452C48.9354 297.62 49.2661 297.704 49.6368 297.704C49.9488 297.704 50.2274 297.641 50.4728 297.516C50.7208 297.393 50.9154 297.215 51.0568 296.98C51.2008 296.745 51.2728 296.464 51.2728 296.136V295.136C51.1021 295.445 50.8674 295.688 50.5688 295.864C50.2728 296.04 49.9421 296.128 49.5768 296.128C49.1954 296.128 48.8501 296.035 48.5408 295.848C48.2341 295.661 47.9901 295.404 47.8088 295.076C47.6301 294.748 47.5408 294.373 47.5408 293.952C47.5408 293.533 47.6301 293.161 47.8088 292.836C47.9874 292.508 48.2301 292.249 48.5368 292.06C48.8461 291.871 49.1968 291.776 49.5888 291.776C49.9514 291.776 50.2808 291.863 50.5768 292.036C50.8754 292.209 51.1074 292.449 51.2728 292.756V291.904H51.8568V296.112C51.8568 296.565 51.7674 296.947 51.5888 297.256C51.4101 297.568 51.1541 297.803 50.8208 297.96C50.4901 298.12 50.0954 298.2 49.6368 298.2ZM49.7168 295.62C50.0261 295.62 50.2994 295.549 50.5368 295.408C50.7741 295.264 50.9608 295.067 51.0968 294.816C51.2328 294.563 51.3008 294.276 51.3008 293.956C51.3008 293.631 51.2328 293.343 51.0968 293.092C50.9608 292.839 50.7741 292.641 50.5368 292.5C50.2994 292.356 50.0274 292.284 49.7208 292.284C49.4141 292.284 49.1421 292.356 48.9048 292.5C48.6674 292.641 48.4808 292.839 48.3448 293.092C48.2088 293.343 48.1408 293.631 48.1408 293.956C48.1408 294.276 48.2074 294.563 48.3408 294.816C48.4768 295.067 48.6634 295.264 48.9008 295.408C49.1408 295.549 49.4128 295.62 49.7168 295.62ZM53.5748 296V291.904H54.1588V296H53.5748ZM53.8708 291.084C53.7988 291.084 53.7334 291.067 53.6748 291.032C53.6188 290.997 53.5734 290.951 53.5388 290.892C53.5041 290.833 53.4868 290.769 53.4868 290.7C53.4868 290.631 53.5041 290.568 53.5388 290.512C53.5734 290.453 53.6188 290.407 53.6748 290.372C53.7334 290.337 53.7988 290.32 53.8708 290.32C53.9401 290.32 54.0028 290.337 54.0588 290.372C54.1148 290.407 54.1601 290.452 54.1948 290.508C54.2321 290.564 54.2508 290.628 54.2508 290.7C54.2508 290.769 54.2321 290.833 54.1948 290.892C54.1601 290.951 54.1148 290.997 54.0588 291.032C54.0028 291.067 53.9401 291.084 53.8708 291.084ZM57.7874 296.128C57.4808 296.128 57.1928 296.075 56.9234 295.968C56.6541 295.859 56.4181 295.705 56.2154 295.508C56.0128 295.311 55.8541 295.08 55.7394 294.816C55.6248 294.552 55.5674 294.264 55.5674 293.952C55.5674 293.643 55.6234 293.356 55.7354 293.092C55.8474 292.828 56.0034 292.597 56.2034 292.4C56.4061 292.203 56.6421 292.049 56.9114 291.94C57.1808 291.831 57.4728 291.776 57.7874 291.776C58.0568 291.776 58.3128 291.816 58.5554 291.896C58.7981 291.976 59.0074 292.087 59.1834 292.228L58.9434 292.62C58.6448 292.388 58.2821 292.272 57.8554 292.272C57.5194 292.272 57.2234 292.347 56.9674 292.496C56.7141 292.643 56.5168 292.844 56.3754 293.1C56.2341 293.353 56.1634 293.637 56.1634 293.952C56.1634 294.269 56.2354 294.556 56.3794 294.812C56.5234 295.065 56.7234 295.265 56.9794 295.412C57.2354 295.559 57.5288 295.632 57.8594 295.632C58.0674 295.632 58.2634 295.603 58.4474 295.544C58.6341 295.483 58.7981 295.396 58.9394 295.284L59.1834 295.676C59.0048 295.815 58.7954 295.924 58.5554 296.004C58.3154 296.087 58.0594 296.128 57.7874 296.128ZM62.1627 296.128C61.7787 296.128 61.432 296.035 61.1227 295.848C60.816 295.659 60.572 295.4 60.3907 295.072C60.212 294.744 60.1227 294.369 60.1227 293.948C60.1227 293.532 60.2107 293.161 60.3867 292.836C60.5654 292.508 60.808 292.249 61.1147 292.06C61.424 291.871 61.7734 291.776 62.1627 291.776C62.5334 291.776 62.8694 291.863 63.1707 292.036C63.472 292.209 63.7014 292.449 63.8587 292.756V291.904H64.4427V296H63.8587V295.136C63.6827 295.445 63.4467 295.688 63.1507 295.864C62.8547 296.04 62.5254 296.128 62.1627 296.128ZM62.3067 295.62C62.6134 295.62 62.884 295.549 63.1187 295.408C63.356 295.264 63.5427 295.067 63.6787 294.816C63.8147 294.563 63.8827 294.275 63.8827 293.952C63.8827 293.627 63.8147 293.339 63.6787 293.088C63.5454 292.837 63.36 292.641 63.1227 292.5C62.8854 292.356 62.6134 292.284 62.3067 292.284C62 292.284 61.728 292.356 61.4907 292.5C61.2534 292.641 61.0667 292.837 60.9307 293.088C60.7947 293.339 60.7267 293.627 60.7267 293.952C60.7267 294.275 60.7947 294.563 60.9307 294.816C61.0667 295.067 61.2534 295.264 61.4907 295.408C61.728 295.549 62 295.62 62.3067 295.62ZM67.1974 296.128C66.8588 296.128 66.5601 296.047 66.3014 295.884C66.0428 295.719 65.8414 295.485 65.6974 295.184L66.0094 294.848C66.1374 295.109 66.3041 295.313 66.5094 295.46C66.7148 295.604 66.9428 295.676 67.1934 295.676C67.3614 295.676 67.5148 295.641 67.6534 295.572C67.7948 295.503 67.9068 295.404 67.9894 295.276C68.0748 295.145 68.1174 294.991 68.1174 294.812C68.1174 294.649 68.0774 294.521 67.9974 294.428C67.9201 294.335 67.8054 294.255 67.6534 294.188C67.5041 294.119 67.3174 294.041 67.0934 293.956C66.9201 293.887 66.7521 293.808 66.5894 293.72C66.4268 293.632 66.2921 293.521 66.1854 293.388C66.0814 293.252 66.0294 293.08 66.0294 292.872C66.0294 292.661 66.0854 292.475 66.1974 292.312C66.3094 292.147 66.4641 292.017 66.6614 291.924C66.8588 291.828 67.0828 291.78 67.3334 291.78C67.5628 291.78 67.7774 291.829 67.9774 291.928C68.1801 292.027 68.3614 292.167 68.5214 292.348L68.2534 292.688C68.0081 292.365 67.7028 292.204 67.3374 292.204C67.1134 292.204 66.9308 292.263 66.7894 292.38C66.6508 292.497 66.5814 292.651 66.5814 292.84C66.5814 292.976 66.6254 293.089 66.7134 293.18C66.8014 293.271 66.9161 293.348 67.0574 293.412C67.2014 293.476 67.3561 293.54 67.5214 293.604C67.7614 293.695 67.9694 293.785 68.1454 293.876C68.3241 293.967 68.4628 294.083 68.5614 294.224C68.6601 294.363 68.7094 294.552 68.7094 294.792C68.7094 295.067 68.6454 295.304 68.5174 295.504C68.3894 295.704 68.2108 295.859 67.9814 295.968C67.7548 296.075 67.4934 296.128 67.1974 296.128Z" fill="white"/>
<path d="M18.125 275V266.75H20.935C21.4717 266.75 21.9483 266.843 22.365 267.03C22.7817 267.217 23.11 267.495 23.35 267.865C23.59 268.232 23.71 268.69 23.71 269.24C23.71 269.787 23.59 270.253 23.35 270.64C23.11 271.027 22.7817 271.323 22.365 271.53C21.9483 271.733 21.4717 271.835 20.935 271.835H19.745V275H18.125ZM19.745 270.54H20.435C20.7183 270.54 20.9783 270.498 21.215 270.415C21.455 270.332 21.6483 270.198 21.795 270.015C21.9417 269.832 22.015 269.59 22.015 269.29C22.015 268.987 21.9417 268.745 21.795 268.565C21.6483 268.382 21.455 268.25 21.215 268.17C20.9783 268.087 20.7183 268.045 20.435 268.045H19.745V270.54ZM26.9666 275.16C26.4132 275.16 25.9166 275.042 25.4766 274.805C25.0399 274.565 24.6932 274.24 24.4366 273.83C24.1799 273.42 24.0516 272.957 24.0516 272.44C24.0516 272.06 24.1232 271.705 24.2666 271.375C24.4132 271.045 24.6166 270.757 24.8766 270.51C25.1366 270.26 25.4382 270.067 25.7816 269.93C26.1249 269.79 26.4966 269.72 26.8966 269.72C27.4299 269.72 27.8966 269.832 28.2966 270.055C28.6999 270.275 29.0132 270.582 29.2366 270.975C29.4632 271.368 29.5766 271.827 29.5766 272.35C29.5766 272.393 29.5749 272.432 29.5716 272.465C29.5716 272.495 29.5666 272.553 29.5566 272.64H25.6316C25.6316 272.9 25.6899 273.127 25.8066 273.32C25.9266 273.513 26.0932 273.665 26.3066 273.775C26.5199 273.882 26.7682 273.935 27.0516 273.935C27.3182 273.935 27.5532 273.883 27.7566 273.78C27.9632 273.677 28.1616 273.512 28.3516 273.285L29.4566 273.84C29.2166 274.253 28.8766 274.577 28.4366 274.81C27.9966 275.043 27.5066 275.16 26.9666 275.16ZM25.6866 271.79H28.0666C28.0332 271.593 27.9616 271.423 27.8516 271.28C27.7449 271.137 27.6082 271.027 27.4416 270.95C27.2749 270.873 27.0866 270.835 26.8766 270.835C26.6532 270.835 26.4566 270.873 26.2866 270.95C26.1166 271.027 25.9799 271.137 25.8766 271.28C25.7732 271.423 25.7099 271.593 25.6866 271.79ZM33.0816 275.16C32.6183 275.16 32.195 275.045 31.8116 274.815C31.4316 274.582 31.1283 274.26 30.9016 273.85C30.675 273.44 30.5616 272.97 30.5616 272.44C30.5616 271.92 30.6716 271.457 30.8916 271.05C31.1116 270.64 31.4133 270.317 31.7966 270.08C32.1833 269.84 32.625 269.72 33.1216 269.72C33.4816 269.72 33.815 269.79 34.1216 269.93C34.4283 270.067 34.6833 270.258 34.8866 270.505V266.4H36.4216V275H34.8866V274.325C34.66 274.588 34.3916 274.793 34.0816 274.94C33.7716 275.087 33.4383 275.16 33.0816 275.16ZM33.5416 273.855C33.8116 273.855 34.05 273.795 34.2566 273.675C34.4633 273.552 34.625 273.383 34.7416 273.17C34.8616 272.957 34.9216 272.715 34.9216 272.445C34.9216 272.172 34.8616 271.928 34.7416 271.715C34.625 271.502 34.4633 271.333 34.2566 271.21C34.05 271.087 33.8133 271.025 33.5466 271.025C33.2833 271.025 33.0483 271.087 32.8416 271.21C32.6383 271.333 32.4766 271.503 32.3566 271.72C32.2366 271.933 32.1766 272.177 32.1766 272.45C32.1766 272.72 32.235 272.962 32.3516 273.175C32.4683 273.385 32.63 273.552 32.8366 273.675C33.0433 273.795 33.2783 273.855 33.5416 273.855ZM38.2273 275V269.88H39.7623V270.615C39.9523 270.328 40.1839 270.108 40.4573 269.955C40.7339 269.798 41.0306 269.72 41.3473 269.72C41.5273 269.72 41.7139 269.747 41.9073 269.8C42.1006 269.853 42.2623 269.922 42.3923 270.005L41.7523 271.3C41.6389 271.223 41.5056 271.163 41.3523 271.12C41.2023 271.073 41.0623 271.05 40.9323 271.05C40.7323 271.05 40.5423 271.102 40.3623 271.205C40.1823 271.308 40.0373 271.443 39.9273 271.61C39.8173 271.773 39.7623 271.95 39.7623 272.14V275H38.2273ZM45.7382 275.16C45.1749 275.16 44.6665 275.045 44.2132 274.815C43.7599 274.582 43.3999 274.262 43.1332 273.855C42.8665 273.445 42.7332 272.973 42.7332 272.44C42.7332 271.907 42.8649 271.437 43.1282 271.03C43.3949 270.62 43.7549 270.3 44.2082 270.07C44.6649 269.837 45.1749 269.72 45.7382 269.72C46.3049 269.72 46.8149 269.837 47.2682 270.07C47.7215 270.3 48.0799 270.62 48.3432 271.03C48.6099 271.437 48.7432 271.907 48.7432 272.44C48.7432 272.973 48.6099 273.445 48.3432 273.855C48.0799 274.262 47.7215 274.582 47.2682 274.815C46.8149 275.045 46.3049 275.16 45.7382 275.16ZM45.7432 273.85C46.0032 273.85 46.2399 273.79 46.4532 273.67C46.6665 273.55 46.8349 273.385 46.9582 273.175C47.0815 272.962 47.1432 272.717 47.1432 272.44C47.1432 272.163 47.0815 271.92 46.9582 271.71C46.8349 271.497 46.6665 271.33 46.4532 271.21C46.2399 271.09 46.0032 271.03 45.7432 271.03C45.4799 271.03 45.2415 271.09 45.0282 271.21C44.8182 271.33 44.6515 271.497 44.5282 271.71C44.4049 271.92 44.3432 272.163 44.3432 272.44C44.3432 272.717 44.4049 272.962 44.5282 273.175C44.6515 273.385 44.8182 273.55 45.0282 273.67C45.2415 273.79 45.4799 273.85 45.7432 273.85ZM53.0176 275V266.75H57.6076V268.17H54.6376V270.155H57.4876V271.575H54.6376V273.58H57.6076V275H53.0176ZM59.3698 275V269.88H60.9048V270.45C61.1015 270.23 61.3465 270.053 61.6398 269.92C61.9365 269.787 62.2632 269.72 62.6198 269.72C63.0132 269.72 63.3582 269.807 63.6548 269.98C63.9548 270.15 64.1898 270.388 64.3598 270.695C64.5298 270.998 64.6148 271.353 64.6148 271.76V275H63.0798V272.085C63.0798 271.718 62.9832 271.433 62.7898 271.23C62.5998 271.023 62.3382 270.92 62.0048 270.92C61.7782 270.92 61.5815 270.967 61.4148 271.06C61.2515 271.15 61.1248 271.275 61.0348 271.435C60.9482 271.592 60.9048 271.77 60.9048 271.97V275H59.3698ZM66.323 275V269.88H67.858V270.615C68.048 270.328 68.2796 270.108 68.553 269.955C68.8296 269.798 69.1263 269.72 69.443 269.72C69.623 269.72 69.8096 269.747 70.003 269.8C70.1963 269.853 70.358 269.922 70.488 270.005L69.848 271.3C69.7346 271.223 69.6013 271.163 69.448 271.12C69.298 271.073 69.158 271.05 69.028 271.05C68.828 271.05 68.638 271.102 68.458 271.205C68.278 271.308 68.133 271.443 68.023 271.61C67.913 271.773 67.858 271.95 67.858 272.14V275H66.323ZM71.3375 275V269.88H72.8725V275H71.3375ZM72.1075 268.815C71.9408 268.815 71.7875 268.775 71.6475 268.695C71.5108 268.612 71.4008 268.5 71.3175 268.36C71.2342 268.22 71.1925 268.067 71.1925 267.9C71.1925 267.733 71.2342 267.582 71.3175 267.445C71.4008 267.308 71.5108 267.2 71.6475 267.12C71.7875 267.037 71.9408 266.995 72.1075 266.995C72.2742 266.995 72.4258 267.037 72.5625 267.12C72.6992 267.2 72.8075 267.308 72.8875 267.445C72.9708 267.582 73.0125 267.733 73.0125 267.9C73.0125 268.067 72.9708 268.22 72.8875 268.36C72.8075 268.5 72.6992 268.612 72.5625 268.695C72.4258 268.775 72.2742 268.815 72.1075 268.815ZM78.6073 277.6V274.325C78.3773 274.592 78.1073 274.798 77.7973 274.945C77.4873 275.088 77.1573 275.16 76.8073 275.16C76.3273 275.16 75.8957 275.042 75.5123 274.805C75.1323 274.565 74.8323 274.24 74.6123 273.83C74.3923 273.417 74.2823 272.953 74.2823 272.44C74.2823 271.92 74.3923 271.455 74.6123 271.045C74.8357 270.635 75.1407 270.312 75.5273 270.075C75.914 269.838 76.3523 269.72 76.8423 269.72C77.199 269.72 77.529 269.788 77.8323 269.925C78.139 270.062 78.3973 270.255 78.6073 270.505V269.88H80.1423V277.6H78.6073ZM77.2673 273.855C77.534 273.855 77.7707 273.795 77.9773 273.675C78.184 273.552 78.3457 273.385 78.4623 273.175C78.5823 272.962 78.6423 272.718 78.6423 272.445C78.6423 272.172 78.5823 271.928 78.4623 271.715C78.3457 271.502 78.184 271.333 77.9773 271.21C77.7707 271.087 77.534 271.025 77.2673 271.025C77.0073 271.025 76.774 271.087 76.5673 271.21C76.3607 271.333 76.1973 271.502 76.0773 271.715C75.9573 271.925 75.8973 272.167 75.8973 272.44C75.8973 272.717 75.9557 272.962 76.0723 273.175C76.189 273.385 76.3507 273.552 76.5573 273.675C76.764 273.795 77.0007 273.855 77.2673 273.855ZM84.458 275.16C83.5246 275.16 82.8513 274.975 82.438 274.605C82.0246 274.235 81.818 273.63 81.818 272.79V269.88H83.353V272.43C83.353 272.97 83.4363 273.352 83.603 273.575C83.773 273.798 84.058 273.91 84.458 273.91C84.8646 273.91 85.1496 273.798 85.313 273.575C85.4796 273.352 85.563 272.97 85.563 272.43V269.88H87.098V272.79C87.098 273.63 86.8913 274.235 86.478 274.605C86.068 274.975 85.3946 275.16 84.458 275.16ZM91.2439 275.16C90.6906 275.16 90.1939 275.042 89.7539 274.805C89.3172 274.565 88.9706 274.24 88.7139 273.83C88.4572 273.42 88.3289 272.957 88.3289 272.44C88.3289 272.06 88.4006 271.705 88.5439 271.375C88.6906 271.045 88.8939 270.757 89.1539 270.51C89.4139 270.26 89.7156 270.067 90.0589 269.93C90.4022 269.79 90.7739 269.72 91.1739 269.72C91.7072 269.72 92.1739 269.832 92.5739 270.055C92.9772 270.275 93.2906 270.582 93.5139 270.975C93.7406 271.368 93.8539 271.827 93.8539 272.35C93.8539 272.393 93.8522 272.432 93.8489 272.465C93.8489 272.495 93.8439 272.553 93.8339 272.64H89.9089C89.9089 272.9 89.9672 273.127 90.0839 273.32C90.2039 273.513 90.3706 273.665 90.5839 273.775C90.7972 273.882 91.0456 273.935 91.3289 273.935C91.5956 273.935 91.8306 273.883 92.0339 273.78C92.2406 273.677 92.4389 273.512 92.6289 273.285L93.7339 273.84C93.4939 274.253 93.1539 274.577 92.7139 274.81C92.2739 275.043 91.7839 275.16 91.2439 275.16ZM89.9639 271.79H92.3439C92.3106 271.593 92.2389 271.423 92.1289 271.28C92.0222 271.137 91.8856 271.027 91.7189 270.95C91.5522 270.873 91.3639 270.835 91.1539 270.835C90.9306 270.835 90.7339 270.873 90.5639 270.95C90.3939 271.027 90.2572 271.137 90.1539 271.28C90.0506 271.423 89.9872 271.593 89.9639 271.79ZM101.604 275.16C101.038 275.16 100.509 275.052 100.019 274.835C99.5293 274.618 99.101 274.317 98.7343 273.93C98.3676 273.54 98.081 273.085 97.8743 272.565C97.6676 272.045 97.5643 271.482 97.5643 270.875C97.5643 270.295 97.661 269.748 97.8543 269.235C98.0476 268.718 98.326 268.263 98.6893 267.87C99.0526 267.473 99.491 267.163 100.004 266.94C100.518 266.713 101.093 266.6 101.729 266.6C102.089 266.6 102.451 266.64 102.814 266.72C103.181 266.8 103.533 266.918 103.869 267.075C104.206 267.228 104.509 267.417 104.779 267.64L104.019 268.895C103.729 268.625 103.378 268.417 102.964 268.27C102.554 268.12 102.149 268.045 101.749 268.045C101.356 268.045 101.008 268.115 100.704 268.255C100.404 268.392 100.151 268.585 99.9443 268.835C99.7376 269.085 99.581 269.378 99.4743 269.715C99.3676 270.048 99.3143 270.412 99.3143 270.805C99.3143 271.235 99.3743 271.625 99.4943 271.975C99.6143 272.325 99.781 272.627 99.9943 272.88C100.211 273.133 100.463 273.328 100.749 273.465C101.039 273.602 101.351 273.67 101.684 273.67C101.951 273.67 102.208 273.627 102.454 273.54C102.704 273.45 102.926 273.325 103.119 273.165C103.313 273.005 103.466 272.817 103.579 272.6C103.693 272.383 103.749 272.147 103.749 271.89V271.765H101.584V270.51H105.399V271.76C105.399 272.263 105.294 272.723 105.084 273.14C104.878 273.553 104.594 273.912 104.234 274.215C103.874 274.515 103.468 274.748 103.014 274.915C102.561 275.078 102.091 275.16 101.604 275.16ZM106.811 275V269.88H108.346V270.615C108.536 270.328 108.768 270.108 109.041 269.955C109.318 269.798 109.615 269.72 109.931 269.72C110.111 269.72 110.298 269.747 110.491 269.8C110.685 269.853 110.846 269.922 110.976 270.005L110.336 271.3C110.223 271.223 110.09 271.163 109.936 271.12C109.786 271.073 109.646 271.05 109.516 271.05C109.316 271.05 109.126 271.102 108.946 271.205C108.766 271.308 108.621 271.443 108.511 271.61C108.401 271.773 108.346 271.95 108.346 272.14V275H106.811ZM113.888 275.16C113.418 275.16 112.989 275.043 112.603 274.81C112.219 274.573 111.914 274.25 111.688 273.84C111.464 273.427 111.353 272.957 111.353 272.43C111.353 271.917 111.461 271.457 111.678 271.05C111.894 270.64 112.193 270.317 112.573 270.08C112.956 269.84 113.394 269.72 113.888 269.72C114.251 269.72 114.589 269.79 114.903 269.93C115.219 270.067 115.478 270.258 115.678 270.505V269.88H117.213V275H115.678V274.325C115.444 274.595 115.176 274.802 114.873 274.945C114.569 275.088 114.241 275.16 113.888 275.16ZM114.343 273.855C114.609 273.855 114.846 273.795 115.053 273.675C115.259 273.552 115.421 273.383 115.538 273.17C115.654 272.957 115.713 272.713 115.713 272.44C115.713 272.163 115.653 271.92 115.533 271.71C115.416 271.497 115.254 271.33 115.048 271.21C114.844 271.087 114.609 271.025 114.343 271.025C114.079 271.025 113.844 271.087 113.638 271.21C113.431 271.33 113.268 271.497 113.148 271.71C113.028 271.923 112.968 272.167 112.968 272.44C112.968 272.713 113.026 272.957 113.143 273.17C113.263 273.383 113.426 273.552 113.633 273.675C113.839 273.795 114.076 273.855 114.343 273.855ZM120.699 275L118.009 269.88H119.819L121.214 272.97L122.609 269.88H124.419L121.724 275H120.699ZM127.689 275.16C127.136 275.16 126.639 275.042 126.199 274.805C125.763 274.565 125.416 274.24 125.159 273.83C124.903 273.42 124.774 272.957 124.774 272.44C124.774 272.06 124.846 271.705 124.989 271.375C125.136 271.045 125.339 270.757 125.599 270.51C125.859 270.26 126.161 270.067 126.504 269.93C126.848 269.79 127.219 269.72 127.619 269.72C128.153 269.72 128.619 269.832 129.019 270.055C129.423 270.275 129.736 270.582 129.959 270.975C130.186 271.368 130.299 271.827 130.299 272.35C130.299 272.393 130.298 272.432 130.294 272.465C130.294 272.495 130.289 272.553 130.279 272.64H126.354C126.354 272.9 126.413 273.127 126.529 273.32C126.649 273.513 126.816 273.665 127.029 273.775C127.243 273.882 127.491 273.935 127.774 273.935C128.041 273.935 128.276 273.883 128.479 273.78C128.686 273.677 128.884 273.512 129.074 273.285L130.179 273.84C129.939 274.253 129.599 274.577 129.159 274.81C128.719 275.043 128.229 275.16 127.689 275.16ZM126.409 271.79H128.789C128.756 271.593 128.684 271.423 128.574 271.28C128.468 271.137 128.331 271.027 128.164 270.95C127.998 270.873 127.809 270.835 127.599 270.835C127.376 270.835 127.179 270.873 127.009 270.95C126.839 271.027 126.703 271.137 126.599 271.28C126.496 271.423 126.433 271.593 126.409 271.79ZM133.57 275L136.885 266.75H138.39L141.7 275H139.955L139.255 273.12H136.015L135.315 275H133.57ZM136.57 271.7H138.705L137.635 268.935L136.57 271.7ZM142.47 277.75C142.247 277.75 142.015 277.722 141.775 277.665C141.535 277.612 141.342 277.538 141.195 277.445L141.665 276.21C141.822 276.32 141.985 276.375 142.155 276.375C142.518 276.375 142.7 276.115 142.7 275.595V269.88H144.235V275.865C144.235 276.448 144.078 276.908 143.765 277.245C143.455 277.582 143.023 277.75 142.47 277.75ZM143.465 268.81C143.302 268.81 143.15 268.77 143.01 268.69C142.87 268.607 142.758 268.497 142.675 268.36C142.595 268.22 142.555 268.067 142.555 267.9C142.555 267.733 142.595 267.582 142.675 267.445C142.758 267.305 142.87 267.195 143.01 267.115C143.15 267.032 143.303 266.99 143.47 266.99C143.633 266.99 143.783 267.032 143.92 267.115C144.06 267.195 144.17 267.305 144.25 267.445C144.333 267.582 144.375 267.732 144.375 267.895C144.375 268.062 144.333 268.215 144.25 268.355C144.17 268.495 144.06 268.607 143.92 268.69C143.783 268.77 143.632 268.81 143.465 268.81ZM148.185 275.16C147.715 275.16 147.286 275.043 146.9 274.81C146.516 274.573 146.211 274.25 145.985 273.84C145.761 273.427 145.65 272.957 145.65 272.43C145.65 271.917 145.758 271.457 145.975 271.05C146.191 270.64 146.49 270.317 146.87 270.08C147.253 269.84 147.691 269.72 148.185 269.72C148.548 269.72 148.886 269.79 149.2 269.93C149.516 270.067 149.775 270.258 149.975 270.505V269.88H151.51V275H149.975V274.325C149.741 274.595 149.473 274.802 149.17 274.945C148.866 275.088 148.538 275.16 148.185 275.16ZM148.64 273.855C148.906 273.855 149.143 273.795 149.35 273.675C149.556 273.552 149.718 273.383 149.835 273.17C149.951 272.957 150.01 272.713 150.01 272.44C150.01 272.163 149.95 271.92 149.83 271.71C149.713 271.497 149.551 271.33 149.345 271.21C149.141 271.087 148.906 271.025 148.64 271.025C148.376 271.025 148.141 271.087 147.935 271.21C147.728 271.33 147.565 271.497 147.445 271.71C147.325 271.923 147.265 272.167 147.265 272.44C147.265 272.713 147.323 272.957 147.44 273.17C147.56 273.383 147.723 273.552 147.93 273.675C148.136 273.795 148.373 273.855 148.64 273.855ZM153.315 275V269.88H154.85V270.45C155.047 270.23 155.292 270.053 155.585 269.92C155.882 269.787 156.208 269.72 156.565 269.72C156.958 269.72 157.303 269.807 157.6 269.98C157.9 270.15 158.135 270.388 158.305 270.695C158.475 270.998 158.56 271.353 158.56 271.76V275H157.025V272.085C157.025 271.718 156.928 271.433 156.735 271.23C156.545 271.023 156.283 270.92 155.95 270.92C155.723 270.92 155.527 270.967 155.36 271.06C155.197 271.15 155.07 271.275 154.98 271.435C154.893 271.592 154.85 271.77 154.85 271.97V275H153.315ZM162.728 275.16C162.175 275.16 161.678 275.042 161.238 274.805C160.802 274.565 160.455 274.24 160.198 273.83C159.942 273.42 159.813 272.957 159.813 272.44C159.813 272.06 159.885 271.705 160.028 271.375C160.175 271.045 160.378 270.757 160.638 270.51C160.898 270.26 161.2 270.067 161.543 269.93C161.887 269.79 162.258 269.72 162.658 269.72C163.192 269.72 163.658 269.832 164.058 270.055C164.462 270.275 164.775 270.582 164.998 270.975C165.225 271.368 165.338 271.827 165.338 272.35C165.338 272.393 165.337 272.432 165.333 272.465C165.333 272.495 165.328 272.553 165.318 272.64H161.393C161.393 272.9 161.452 273.127 161.568 273.32C161.688 273.513 161.855 273.665 162.068 273.775C162.282 273.882 162.53 273.935 162.813 273.935C163.08 273.935 163.315 273.883 163.518 273.78C163.725 273.677 163.923 273.512 164.113 273.285L165.218 273.84C164.978 274.253 164.638 274.577 164.198 274.81C163.758 275.043 163.268 275.16 162.728 275.16ZM161.448 271.79H163.828C163.795 271.593 163.723 271.423 163.613 271.28C163.507 271.137 163.37 271.027 163.203 270.95C163.037 270.873 162.848 270.835 162.638 270.835C162.415 270.835 162.218 270.873 162.048 270.95C161.878 271.027 161.742 271.137 161.638 271.28C161.535 271.423 161.472 271.593 161.448 271.79ZM166.704 275V266.4H168.239V275H166.704Z" fill="white"/>
<rect width="312" height="160" rx="29" fill="#C5D751"/>
<rect x="17" y="16" width="103" height="128" rx="29" fill="white" fill-opacity="0.5"/>
<path d="M136.504 135V134.716C137.117 134.236 137.645 133.811 138.088 133.44C138.531 133.067 138.901 132.736 139.2 132.448C139.499 132.16 139.736 131.901 139.912 131.672C140.088 131.443 140.213 131.231 140.288 131.036C140.363 130.841 140.4 130.649 140.4 130.46C140.4 130.161 140.328 129.891 140.184 129.648C140.043 129.405 139.852 129.212 139.612 129.068C139.372 128.924 139.105 128.852 138.812 128.852C138.519 128.852 138.252 128.924 138.012 129.068C137.772 129.212 137.575 129.409 137.42 129.66C137.265 129.911 137.173 130.199 137.144 130.524L136.596 130.34C136.625 130.047 136.701 129.775 136.824 129.524C136.949 129.273 137.112 129.055 137.312 128.868C137.515 128.681 137.745 128.536 138.004 128.432C138.263 128.328 138.541 128.276 138.84 128.276C139.253 128.276 139.628 128.372 139.964 128.564C140.3 128.753 140.567 129.012 140.764 129.34C140.961 129.668 141.06 130.039 141.06 130.452C141.06 130.665 141.028 130.875 140.964 131.08C140.9 131.285 140.792 131.5 140.64 131.724C140.491 131.948 140.289 132.192 140.036 132.456C139.783 132.717 139.467 133.009 139.088 133.332C138.712 133.655 138.263 134.02 137.74 134.428H141.18V135H136.504ZM145.189 135.128C144.65 135.128 144.178 134.985 143.773 134.7C143.37 134.412 143.057 134.011 142.833 133.496C142.609 132.981 142.497 132.384 142.497 131.704C142.497 131.021 142.609 130.424 142.833 129.912C143.057 129.397 143.37 128.997 143.773 128.712C144.178 128.424 144.65 128.28 145.189 128.28C145.727 128.28 146.198 128.424 146.601 128.712C147.003 128.997 147.317 129.397 147.541 129.912C147.767 130.424 147.881 131.021 147.881 131.704C147.881 132.384 147.767 132.981 147.541 133.496C147.317 134.011 147.003 134.412 146.601 134.7C146.198 134.985 145.727 135.128 145.189 135.128ZM145.189 134.58C145.599 134.58 145.958 134.461 146.265 134.224C146.571 133.987 146.81 133.652 146.981 133.22C147.151 132.788 147.237 132.283 147.237 131.704C147.237 131.123 147.151 130.617 146.981 130.188C146.81 129.756 146.571 129.421 146.265 129.184C145.958 128.947 145.599 128.828 145.189 128.828C144.778 128.828 144.418 128.947 144.109 129.184C143.802 129.421 143.563 129.756 143.393 130.188C143.225 130.617 143.141 131.123 143.141 131.704C143.141 132.283 143.225 132.788 143.393 133.22C143.563 133.652 143.802 133.987 144.109 134.224C144.418 134.461 144.778 134.58 145.189 134.58ZM149.067 135V134.716C149.68 134.236 150.208 133.811 150.651 133.44C151.093 133.067 151.464 132.736 151.763 132.448C152.061 132.16 152.299 131.901 152.475 131.672C152.651 131.443 152.776 131.231 152.851 131.036C152.925 130.841 152.963 130.649 152.963 130.46C152.963 130.161 152.891 129.891 152.747 129.648C152.605 129.405 152.415 129.212 152.175 129.068C151.935 128.924 151.668 128.852 151.375 128.852C151.081 128.852 150.815 128.924 150.575 129.068C150.335 129.212 150.137 129.409 149.983 129.66C149.828 129.911 149.736 130.199 149.707 130.524L149.159 130.34C149.188 130.047 149.264 129.775 149.387 129.524C149.512 129.273 149.675 129.055 149.875 128.868C150.077 128.681 150.308 128.536 150.567 128.432C150.825 128.328 151.104 128.276 151.403 128.276C151.816 128.276 152.191 128.372 152.527 128.564C152.863 128.753 153.129 129.012 153.327 129.34C153.524 129.668 153.623 130.039 153.623 130.452C153.623 130.665 153.591 130.875 153.527 131.08C153.463 131.285 153.355 131.5 153.203 131.724C153.053 131.948 152.852 132.192 152.599 132.456C152.345 132.717 152.029 133.009 151.651 133.332C151.275 133.655 150.825 134.02 150.303 134.428H153.743V135H149.067ZM154.879 135V134.716C155.492 134.236 156.02 133.811 156.463 133.44C156.906 133.067 157.276 132.736 157.575 132.448C157.874 132.16 158.111 131.901 158.287 131.672C158.463 131.443 158.588 131.231 158.663 131.036C158.738 130.841 158.775 130.649 158.775 130.46C158.775 130.161 158.703 129.891 158.559 129.648C158.418 129.405 158.227 129.212 157.987 129.068C157.747 128.924 157.48 128.852 157.187 128.852C156.894 128.852 156.627 128.924 156.387 129.068C156.147 129.212 155.95 129.409 155.795 129.66C155.64 129.911 155.548 130.199 155.519 130.524L154.971 130.34C155 130.047 155.076 129.775 155.199 129.524C155.324 129.273 155.487 129.055 155.687 128.868C155.89 128.681 156.12 128.536 156.379 128.432C156.638 128.328 156.916 128.276 157.215 128.276C157.628 128.276 158.003 128.372 158.339 128.564C158.675 128.753 158.942 129.012 159.139 129.34C159.336 129.668 159.435 130.039 159.435 130.452C159.435 130.665 159.403 130.875 159.339 131.08C159.275 131.285 159.167 131.5 159.015 131.724C158.866 131.948 158.664 132.192 158.411 132.456C158.158 132.717 157.842 133.009 157.463 133.332C157.087 133.655 156.638 134.02 156.115 134.428H159.555V135H154.879Z" fill="white"/>
<path d="M139.196 120L136.428 113.4H137.116L139.436 119.084L141.752 113.4H142.44L139.672 120H139.196ZM145.718 120V113.4H147.114C147.757 113.4 148.255 113.544 148.61 113.832C148.967 114.117 149.146 114.529 149.146 115.068C149.146 115.793 148.829 116.289 148.194 116.556C148.685 116.625 149.063 116.805 149.33 117.096C149.597 117.384 149.73 117.763 149.73 118.232C149.73 118.603 149.647 118.92 149.482 119.184C149.317 119.448 149.079 119.651 148.77 119.792C148.461 119.931 148.091 120 147.662 120H145.718ZM146.326 116.368H147.006C147.507 116.368 147.893 116.261 148.162 116.048C148.431 115.832 148.566 115.525 148.566 115.128C148.566 114.725 148.431 114.417 148.162 114.204C147.893 113.991 147.507 113.884 147.006 113.884H146.326V116.368ZM146.326 119.504H147.502C148.017 119.504 148.413 119.393 148.69 119.172C148.97 118.948 149.11 118.629 149.11 118.216C149.11 117.803 148.969 117.481 148.686 117.252C148.406 117.02 148.011 116.904 147.502 116.904H146.326V119.504ZM150.965 120V115.904H151.549V120H150.965ZM151.261 115.084C151.189 115.084 151.124 115.067 151.065 115.032C151.009 114.997 150.964 114.951 150.929 114.892C150.895 114.833 150.877 114.769 150.877 114.7C150.877 114.631 150.895 114.568 150.929 114.512C150.964 114.453 151.009 114.407 151.065 114.372C151.124 114.337 151.189 114.32 151.261 114.32C151.331 114.32 151.393 114.337 151.449 114.372C151.505 114.407 151.551 114.452 151.585 114.508C151.623 114.564 151.641 114.628 151.641 114.7C151.641 114.769 151.623 114.833 151.585 114.892C151.551 114.951 151.505 114.997 151.449 115.032C151.393 115.067 151.331 115.084 151.261 115.084ZM155.23 120.128C154.803 120.128 154.418 120.036 154.074 119.852C153.733 119.668 153.462 119.412 153.262 119.084C153.062 118.756 152.962 118.379 152.962 117.952C152.962 117.523 153.062 117.145 153.262 116.82C153.462 116.492 153.733 116.236 154.074 116.052C154.415 115.868 154.801 115.776 155.23 115.776C155.657 115.776 156.041 115.868 156.382 116.052C156.726 116.236 156.998 116.492 157.198 116.82C157.398 117.145 157.498 117.523 157.498 117.952C157.498 118.379 157.398 118.756 157.198 119.084C156.998 119.412 156.726 119.668 156.382 119.852C156.041 120.036 155.657 120.128 155.23 120.128ZM155.23 119.608C155.55 119.608 155.835 119.537 156.086 119.396C156.337 119.255 156.534 119.06 156.678 118.812C156.822 118.561 156.894 118.275 156.894 117.952C156.894 117.629 156.822 117.344 156.678 117.096C156.534 116.845 156.337 116.649 156.086 116.508C155.835 116.367 155.55 116.296 155.23 116.296C154.91 116.296 154.625 116.367 154.374 116.508C154.123 116.649 153.926 116.845 153.782 117.096C153.638 117.344 153.566 117.629 153.566 117.952C153.566 118.272 153.638 118.557 153.782 118.808C153.926 119.059 154.123 119.255 154.374 119.396C154.625 119.537 154.91 119.608 155.23 119.608ZM158.891 120V113.12H159.475V120H158.891ZM163.152 120.128C162.725 120.128 162.34 120.036 161.996 119.852C161.655 119.668 161.384 119.412 161.184 119.084C160.984 118.756 160.884 118.379 160.884 117.952C160.884 117.523 160.984 117.145 161.184 116.82C161.384 116.492 161.655 116.236 161.996 116.052C162.337 115.868 162.723 115.776 163.152 115.776C163.579 115.776 163.963 115.868 164.304 116.052C164.648 116.236 164.92 116.492 165.12 116.82C165.32 117.145 165.42 117.523 165.42 117.952C165.42 118.379 165.32 118.756 165.12 119.084C164.92 119.412 164.648 119.668 164.304 119.852C163.963 120.036 163.579 120.128 163.152 120.128ZM163.152 119.608C163.472 119.608 163.757 119.537 164.008 119.396C164.259 119.255 164.456 119.06 164.6 118.812C164.744 118.561 164.816 118.275 164.816 117.952C164.816 117.629 164.744 117.344 164.6 117.096C164.456 116.845 164.259 116.649 164.008 116.508C163.757 116.367 163.472 116.296 163.152 116.296C162.832 116.296 162.547 116.367 162.296 116.508C162.045 116.649 161.848 116.845 161.704 117.096C161.56 117.344 161.488 117.629 161.488 117.952C161.488 118.272 161.56 118.557 161.704 118.808C161.848 119.059 162.045 119.255 162.296 119.396C162.547 119.537 162.832 119.608 163.152 119.608ZM163.108 115.244L162.808 115.024L163.568 113.508L164.028 113.836L163.108 115.244ZM168.637 122.2C168.119 122.2 167.682 122.099 167.325 121.896C166.967 121.693 166.702 121.397 166.529 121.008L167.021 120.78C167.146 121.063 167.354 121.287 167.645 121.452C167.935 121.62 168.266 121.704 168.637 121.704C168.949 121.704 169.227 121.641 169.473 121.516C169.721 121.393 169.915 121.215 170.057 120.98C170.201 120.745 170.273 120.464 170.273 120.136V119.136C170.102 119.445 169.867 119.688 169.569 119.864C169.273 120.04 168.942 120.128 168.577 120.128C168.195 120.128 167.85 120.035 167.541 119.848C167.234 119.661 166.99 119.404 166.809 119.076C166.63 118.748 166.541 118.373 166.541 117.952C166.541 117.533 166.63 117.161 166.809 116.836C166.987 116.508 167.23 116.249 167.537 116.06C167.846 115.871 168.197 115.776 168.589 115.776C168.951 115.776 169.281 115.863 169.577 116.036C169.875 116.209 170.107 116.449 170.273 116.756V115.904H170.857V120.112C170.857 120.565 170.767 120.947 170.589 121.256C170.41 121.568 170.154 121.803 169.821 121.96C169.49 122.12 169.095 122.2 168.637 122.2ZM168.717 119.62C169.026 119.62 169.299 119.549 169.537 119.408C169.774 119.264 169.961 119.067 170.097 118.816C170.233 118.563 170.301 118.276 170.301 117.956C170.301 117.631 170.233 117.343 170.097 117.092C169.961 116.839 169.774 116.641 169.537 116.5C169.299 116.356 169.027 116.284 168.721 116.284C168.414 116.284 168.142 116.356 167.905 116.5C167.667 116.641 167.481 116.839 167.345 117.092C167.209 117.343 167.141 117.631 167.141 117.956C167.141 118.276 167.207 118.563 167.341 118.816C167.477 119.067 167.663 119.264 167.901 119.408C168.141 119.549 168.413 119.62 168.717 119.62ZM172.575 120V115.904H173.159V120H172.575ZM172.871 115.084C172.799 115.084 172.733 115.067 172.675 115.032C172.619 114.997 172.573 114.951 172.539 114.892C172.504 114.833 172.487 114.769 172.487 114.7C172.487 114.631 172.504 114.568 172.539 114.512C172.573 114.453 172.619 114.407 172.675 114.372C172.733 114.337 172.799 114.32 172.871 114.32C172.94 114.32 173.003 114.337 173.059 114.372C173.115 114.407 173.16 114.452 173.195 114.508C173.232 114.564 173.251 114.628 173.251 114.7C173.251 114.769 173.232 114.833 173.195 114.892C173.16 114.951 173.115 114.997 173.059 115.032C173.003 115.067 172.94 115.084 172.871 115.084ZM176.787 120.128C176.481 120.128 176.193 120.075 175.923 119.968C175.654 119.859 175.418 119.705 175.215 119.508C175.013 119.311 174.854 119.08 174.739 118.816C174.625 118.552 174.567 118.264 174.567 117.952C174.567 117.643 174.623 117.356 174.735 117.092C174.847 116.828 175.003 116.597 175.203 116.4C175.406 116.203 175.642 116.049 175.911 115.94C176.181 115.831 176.473 115.776 176.787 115.776C177.057 115.776 177.313 115.816 177.555 115.896C177.798 115.976 178.007 116.087 178.183 116.228L177.943 116.62C177.645 116.388 177.282 116.272 176.855 116.272C176.519 116.272 176.223 116.347 175.967 116.496C175.714 116.643 175.517 116.844 175.375 117.1C175.234 117.353 175.163 117.637 175.163 117.952C175.163 118.269 175.235 118.556 175.379 118.812C175.523 119.065 175.723 119.265 175.979 119.412C176.235 119.559 176.529 119.632 176.859 119.632C177.067 119.632 177.263 119.603 177.447 119.544C177.634 119.483 177.798 119.396 177.939 119.284L178.183 119.676C178.005 119.815 177.795 119.924 177.555 120.004C177.315 120.087 177.059 120.128 176.787 120.128ZM181.163 120.128C180.779 120.128 180.432 120.035 180.123 119.848C179.816 119.659 179.572 119.4 179.391 119.072C179.212 118.744 179.123 118.369 179.123 117.948C179.123 117.532 179.211 117.161 179.387 116.836C179.565 116.508 179.808 116.249 180.115 116.06C180.424 115.871 180.773 115.776 181.163 115.776C181.533 115.776 181.869 115.863 182.171 116.036C182.472 116.209 182.701 116.449 182.859 116.756V115.904H183.443V120H182.859V119.136C182.683 119.445 182.447 119.688 182.151 119.864C181.855 120.04 181.525 120.128 181.163 120.128ZM181.307 119.62C181.613 119.62 181.884 119.549 182.119 119.408C182.356 119.264 182.543 119.067 182.679 118.816C182.815 118.563 182.883 118.275 182.883 117.952C182.883 117.627 182.815 117.339 182.679 117.088C182.545 116.837 182.36 116.641 182.123 116.5C181.885 116.356 181.613 116.284 181.307 116.284C181 116.284 180.728 116.356 180.491 116.5C180.253 116.641 180.067 116.837 179.931 117.088C179.795 117.339 179.727 117.627 179.727 117.952C179.727 118.275 179.795 118.563 179.931 118.816C180.067 119.067 180.253 119.264 180.491 119.408C180.728 119.549 181 119.62 181.307 119.62ZM186.197 120.128C185.859 120.128 185.56 120.047 185.301 119.884C185.043 119.719 184.841 119.485 184.697 119.184L185.009 118.848C185.137 119.109 185.304 119.313 185.509 119.46C185.715 119.604 185.943 119.676 186.193 119.676C186.361 119.676 186.515 119.641 186.653 119.572C186.795 119.503 186.907 119.404 186.989 119.276C187.075 119.145 187.117 118.991 187.117 118.812C187.117 118.649 187.077 118.521 186.997 118.428C186.92 118.335 186.805 118.255 186.653 118.188C186.504 118.119 186.317 118.041 186.093 117.956C185.92 117.887 185.752 117.808 185.589 117.72C185.427 117.632 185.292 117.521 185.185 117.388C185.081 117.252 185.029 117.08 185.029 116.872C185.029 116.661 185.085 116.475 185.197 116.312C185.309 116.147 185.464 116.017 185.661 115.924C185.859 115.828 186.083 115.78 186.333 115.78C186.563 115.78 186.777 115.829 186.977 115.928C187.18 116.027 187.361 116.167 187.521 116.348L187.253 116.688C187.008 116.365 186.703 116.204 186.337 116.204C186.113 116.204 185.931 116.263 185.789 116.38C185.651 116.497 185.581 116.651 185.581 116.84C185.581 116.976 185.625 117.089 185.713 117.18C185.801 117.271 185.916 117.348 186.057 117.412C186.201 117.476 186.356 117.54 186.521 117.604C186.761 117.695 186.969 117.785 187.145 117.876C187.324 117.967 187.463 118.083 187.561 118.224C187.66 118.363 187.709 118.552 187.709 118.792C187.709 119.067 187.645 119.304 187.517 119.504C187.389 119.704 187.211 119.859 186.981 119.968C186.755 120.075 186.493 120.128 186.197 120.128Z" fill="white"/>
<path d="M136.745 87L137.565 78.75H139.285L141.255 83.91L143.225 78.75H144.945L145.765 87H144.145L143.635 81.66L141.75 86.795H140.755L138.875 81.66L138.36 87H136.745ZM149.548 87.16C149.078 87.16 148.649 87.0433 148.263 86.81C147.879 86.5733 147.574 86.25 147.348 85.84C147.124 85.4267 147.013 84.9567 147.013 84.43C147.013 83.9167 147.121 83.4567 147.338 83.05C147.554 82.64 147.853 82.3167 148.233 82.08C148.616 81.84 149.054 81.72 149.548 81.72C149.911 81.72 150.249 81.79 150.563 81.93C150.879 82.0667 151.138 82.2583 151.338 82.505V81.88H152.873V87H151.338V86.325C151.104 86.595 150.836 86.8017 150.533 86.945C150.229 87.0883 149.901 87.16 149.548 87.16ZM150.003 85.855C150.269 85.855 150.506 85.795 150.713 85.675C150.919 85.5517 151.081 85.3833 151.198 85.17C151.314 84.9567 151.373 84.7133 151.373 84.44C151.373 84.1633 151.313 83.92 151.193 83.71C151.076 83.4967 150.914 83.33 150.708 83.21C150.504 83.0867 150.269 83.025 150.003 83.025C149.739 83.025 149.504 83.0867 149.298 83.21C149.091 83.33 148.928 83.4967 148.808 83.71C148.688 83.9233 148.628 84.1667 148.628 84.44C148.628 84.7133 148.686 84.9567 148.803 85.17C148.923 85.3833 149.086 85.5517 149.293 85.675C149.499 85.795 149.736 85.855 150.003 85.855ZM154.678 87V81.88H156.213V82.615C156.403 82.3283 156.635 82.1083 156.908 81.955C157.185 81.7983 157.482 81.72 157.798 81.72C157.978 81.72 158.165 81.7467 158.358 81.8C158.552 81.8533 158.713 81.9217 158.843 82.005L158.203 83.3C158.09 83.2233 157.957 83.1633 157.803 83.12C157.653 83.0733 157.513 83.05 157.383 83.05C157.183 83.05 156.993 83.1017 156.813 83.205C156.633 83.3083 156.488 83.4433 156.378 83.61C156.268 83.7733 156.213 83.95 156.213 84.14V87H154.678ZM159.698 87V81.88H161.233V87H159.698ZM160.218 81.46L159.568 80.93L160.953 78.725L161.983 79.5L160.218 81.46ZM165.173 87.16C164.703 87.16 164.274 87.0433 163.888 86.81C163.504 86.5733 163.199 86.25 162.973 85.84C162.749 85.4267 162.638 84.9567 162.638 84.43C162.638 83.9167 162.746 83.4567 162.963 83.05C163.179 82.64 163.478 82.3167 163.858 82.08C164.241 81.84 164.679 81.72 165.173 81.72C165.536 81.72 165.874 81.79 166.188 81.93C166.504 82.0667 166.763 82.2583 166.963 82.505V81.88H168.498V87H166.963V86.325C166.729 86.595 166.461 86.8017 166.158 86.945C165.854 87.0883 165.526 87.16 165.173 87.16ZM165.628 85.855C165.894 85.855 166.131 85.795 166.338 85.675C166.544 85.5517 166.706 85.3833 166.823 85.17C166.939 84.9567 166.998 84.7133 166.998 84.44C166.998 84.1633 166.938 83.92 166.818 83.71C166.701 83.4967 166.539 83.33 166.333 83.21C166.129 83.0867 165.894 83.025 165.628 83.025C165.364 83.025 165.129 83.0867 164.923 83.21C164.716 83.33 164.553 83.4967 164.433 83.71C164.313 83.9233 164.253 84.1667 164.253 84.44C164.253 84.7133 164.311 84.9567 164.428 85.17C164.548 85.3833 164.711 85.5517 164.918 85.675C165.124 85.795 165.361 85.855 165.628 85.855ZM176.669 87.16C176.102 87.16 175.574 87.0517 175.084 86.835C174.594 86.6183 174.165 86.3167 173.799 85.93C173.432 85.54 173.145 85.085 172.939 84.565C172.732 84.045 172.629 83.4817 172.629 82.875C172.629 82.295 172.725 81.7483 172.919 81.235C173.112 80.7183 173.39 80.2633 173.754 79.87C174.117 79.4733 174.555 79.1633 175.069 78.94C175.582 78.7133 176.157 78.6 176.794 78.6C177.154 78.6 177.515 78.64 177.879 78.72C178.245 78.8 178.597 78.9183 178.934 79.075C179.27 79.2283 179.574 79.4167 179.844 79.64L179.084 80.895C178.794 80.625 178.442 80.4167 178.029 80.27C177.619 80.12 177.214 80.045 176.814 80.045C176.42 80.045 176.072 80.115 175.769 80.255C175.469 80.3917 175.215 80.585 175.009 80.835C174.802 81.085 174.645 81.3783 174.539 81.715C174.432 82.0483 174.379 82.4117 174.379 82.805C174.379 83.235 174.439 83.625 174.559 83.975C174.679 84.325 174.845 84.6267 175.059 84.88C175.275 85.1333 175.527 85.3283 175.814 85.465C176.104 85.6017 176.415 85.67 176.749 85.67C177.015 85.67 177.272 85.6267 177.519 85.54C177.769 85.45 177.99 85.325 178.184 85.165C178.377 85.005 178.53 84.8167 178.644 84.6C178.757 84.3833 178.814 84.1467 178.814 83.89V83.765H176.649V82.51H180.464V83.76C180.464 84.2633 180.359 84.7233 180.149 85.14C179.942 85.5533 179.659 85.9117 179.299 86.215C178.939 86.515 178.532 86.7483 178.079 86.915C177.625 87.0783 177.155 87.16 176.669 87.16ZM184.386 87.16C183.452 87.16 182.779 86.975 182.366 86.605C181.952 86.235 181.746 85.63 181.746 84.79V81.88H183.281V84.43C183.281 84.97 183.364 85.3517 183.531 85.575C183.701 85.7983 183.986 85.91 184.386 85.91C184.792 85.91 185.077 85.7983 185.241 85.575C185.407 85.3517 185.491 84.97 185.491 84.43V81.88H187.026V84.79C187.026 85.63 186.819 86.235 186.406 86.605C185.996 86.975 185.322 87.16 184.386 87.16ZM190.847 87.16C190.377 87.16 189.948 87.0433 189.562 86.81C189.178 86.5733 188.873 86.25 188.647 85.84C188.423 85.4267 188.312 84.9567 188.312 84.43C188.312 83.9167 188.42 83.4567 188.637 83.05C188.853 82.64 189.152 82.3167 189.532 82.08C189.915 81.84 190.353 81.72 190.847 81.72C191.21 81.72 191.548 81.79 191.862 81.93C192.178 82.0667 192.437 82.2583 192.637 82.505V81.88H194.172V87H192.637V86.325C192.403 86.595 192.135 86.8017 191.832 86.945C191.528 87.0883 191.2 87.16 190.847 87.16ZM191.302 85.855C191.568 85.855 191.805 85.795 192.012 85.675C192.218 85.5517 192.38 85.3833 192.497 85.17C192.613 84.9567 192.672 84.7133 192.672 84.44C192.672 84.1633 192.612 83.92 192.492 83.71C192.375 83.4967 192.213 83.33 192.007 83.21C191.803 83.0867 191.568 83.025 191.302 83.025C191.038 83.025 190.803 83.0867 190.597 83.21C190.39 83.33 190.227 83.4967 190.107 83.71C189.987 83.9233 189.927 84.1667 189.927 84.44C189.927 84.7133 189.985 84.9567 190.102 85.17C190.222 85.3833 190.385 85.5517 190.592 85.675C190.798 85.795 191.035 85.855 191.302 85.855ZM198.097 87.16C197.634 87.16 197.211 87.045 196.827 86.815C196.447 86.5817 196.144 86.26 195.917 85.85C195.691 85.44 195.577 84.97 195.577 84.44C195.577 83.92 195.687 83.4567 195.907 83.05C196.127 82.64 196.429 82.3167 196.812 82.08C197.199 81.84 197.641 81.72 198.137 81.72C198.497 81.72 198.831 81.79 199.137 81.93C199.444 82.0667 199.699 82.2583 199.902 82.505V78.4H201.437V87H199.902V86.325C199.676 86.5883 199.407 86.7933 199.097 86.94C198.787 87.0867 198.454 87.16 198.097 87.16ZM198.557 85.855C198.827 85.855 199.066 85.795 199.272 85.675C199.479 85.5517 199.641 85.3833 199.757 85.17C199.877 84.9567 199.937 84.715 199.937 84.445C199.937 84.1717 199.877 83.9283 199.757 83.715C199.641 83.5017 199.479 83.3333 199.272 83.21C199.066 83.0867 198.829 83.025 198.562 83.025C198.299 83.025 198.064 83.0867 197.857 83.21C197.654 83.3333 197.492 83.5033 197.372 83.72C197.252 83.9333 197.192 84.1767 197.192 84.45C197.192 84.72 197.251 84.9617 197.367 85.175C197.484 85.385 197.646 85.5517 197.852 85.675C198.059 85.795 198.294 85.855 198.557 85.855ZM205.378 87.16C204.908 87.16 204.48 87.0433 204.093 86.81C203.71 86.5733 203.405 86.25 203.178 85.84C202.955 85.4267 202.843 84.9567 202.843 84.43C202.843 83.9167 202.951 83.4567 203.168 83.05C203.385 82.64 203.683 82.3167 204.063 82.08C204.446 81.84 204.885 81.72 205.378 81.72C205.741 81.72 206.08 81.79 206.393 81.93C206.71 82.0667 206.968 82.2583 207.168 82.505V81.88H208.703V87H207.168V86.325C206.935 86.595 206.666 86.8017 206.363 86.945C206.06 87.0883 205.731 87.16 205.378 87.16ZM205.833 85.855C206.1 85.855 206.336 85.795 206.543 85.675C206.75 85.5517 206.911 85.3833 207.028 85.17C207.145 84.9567 207.203 84.7133 207.203 84.44C207.203 84.1633 207.143 83.92 207.023 83.71C206.906 83.4967 206.745 83.33 206.538 83.21C206.335 83.0867 206.1 83.025 205.833 83.025C205.57 83.025 205.335 83.0867 205.128 83.21C204.921 83.33 204.758 83.4967 204.638 83.71C204.518 83.9233 204.458 84.1667 204.458 84.44C204.458 84.7133 204.516 84.9567 204.633 85.17C204.753 85.3833 204.916 85.5517 205.123 85.675C205.33 85.795 205.566 85.855 205.833 85.855ZM210.509 87V78.4H212.044V87H210.509ZM216.358 87.16C215.425 87.16 214.752 86.975 214.338 86.605C213.925 86.235 213.718 85.63 213.718 84.79V81.88H215.253V84.43C215.253 84.97 215.337 85.3517 215.503 85.575C215.673 85.7983 215.958 85.91 216.358 85.91C216.765 85.91 217.05 85.7983 217.213 85.575C217.38 85.3517 217.463 84.97 217.463 84.43V81.88H218.998V84.79C218.998 85.63 218.792 86.235 218.378 86.605C217.968 86.975 217.295 87.16 216.358 87.16ZM220.684 89.6V81.88H222.219V82.505C222.426 82.255 222.683 82.0617 222.989 81.925C223.296 81.7883 223.626 81.72 223.979 81.72C224.473 81.72 224.911 81.8383 225.294 82.075C225.681 82.3117 225.984 82.635 226.204 83.045C226.428 83.455 226.539 83.92 226.539 84.44C226.539 84.9533 226.429 85.4167 226.209 85.83C225.989 86.24 225.688 86.565 225.304 86.805C224.924 87.0417 224.494 87.16 224.014 87.16C223.664 87.16 223.334 87.0883 223.024 86.945C222.714 86.7983 222.446 86.5917 222.219 86.325V89.6H220.684ZM223.559 85.855C223.826 85.855 224.061 85.795 224.264 85.675C224.471 85.5517 224.633 85.385 224.749 85.175C224.866 84.9617 224.924 84.7183 224.924 84.445C224.924 84.1717 224.864 83.9283 224.744 83.715C224.624 83.5017 224.463 83.3333 224.259 83.21C224.056 83.0867 223.823 83.025 223.559 83.025C223.296 83.025 223.059 83.0867 222.849 83.21C222.643 83.3333 222.479 83.5017 222.359 83.715C222.239 83.925 222.179 84.1683 222.179 84.445C222.179 84.715 222.238 84.9567 222.354 85.17C222.474 85.3833 222.639 85.5517 222.849 85.675C223.059 85.795 223.296 85.855 223.559 85.855ZM230.41 87.16C229.857 87.16 229.36 87.0417 228.92 86.805C228.483 86.565 228.137 86.24 227.88 85.83C227.623 85.42 227.495 84.9567 227.495 84.44C227.495 84.06 227.567 83.705 227.71 83.375C227.857 83.045 228.06 82.7567 228.32 82.51C228.58 82.26 228.882 82.0667 229.225 81.93C229.568 81.79 229.94 81.72 230.34 81.72C230.873 81.72 231.34 81.8317 231.74 82.055C232.143 82.275 232.457 82.5817 232.68 82.975C232.907 83.3683 233.02 83.8267 233.02 84.35C233.02 84.3933 233.018 84.4317 233.015 84.465C233.015 84.495 233.01 84.5533 233 84.64H229.075C229.075 84.9 229.133 85.1267 229.25 85.32C229.37 85.5133 229.537 85.665 229.75 85.775C229.963 85.8817 230.212 85.935 230.495 85.935C230.762 85.935 230.997 85.8833 231.2 85.78C231.407 85.6767 231.605 85.5117 231.795 85.285L232.9 85.84C232.66 86.2533 232.32 86.5767 231.88 86.81C231.44 87.0433 230.95 87.16 230.41 87.16ZM229.13 83.79H231.51C231.477 83.5933 231.405 83.4233 231.295 83.28C231.188 83.1367 231.052 83.0267 230.885 82.95C230.718 82.8733 230.53 82.835 230.32 82.835C230.097 82.835 229.9 82.8733 229.73 82.95C229.56 83.0267 229.423 83.1367 229.32 83.28C229.217 83.4233 229.153 83.5933 229.13 83.79ZM238.891 87L235.431 78.75H237.261L239.526 84.565L241.796 78.75H243.621L240.161 87H238.891ZM246.367 87.16C245.814 87.16 245.317 87.0417 244.877 86.805C244.44 86.565 244.094 86.24 243.837 85.83C243.58 85.42 243.452 84.9567 243.452 84.44C243.452 84.06 243.524 83.705 243.667 83.375C243.814 83.045 244.017 82.7567 244.277 82.51C244.537 82.26 244.839 82.0667 245.182 81.93C245.525 81.79 245.897 81.72 246.297 81.72C246.83 81.72 247.297 81.8317 247.697 82.055C248.1 82.275 248.414 82.5817 248.637 82.975C248.864 83.3683 248.977 83.8267 248.977 84.35C248.977 84.3933 248.975 84.4317 248.972 84.465C248.972 84.495 248.967 84.5533 248.957 84.64H245.032C245.032 84.9 245.09 85.1267 245.207 85.32C245.327 85.5133 245.494 85.665 245.707 85.775C245.92 85.8817 246.169 85.935 246.452 85.935C246.719 85.935 246.954 85.8833 247.157 85.78C247.364 85.6767 247.562 85.5117 247.752 85.285L248.857 85.84C248.617 86.2533 248.277 86.5767 247.837 86.81C247.397 87.0433 246.907 87.16 246.367 87.16ZM245.087 83.79H247.467C247.434 83.5933 247.362 83.4233 247.252 83.28C247.145 83.1367 247.009 83.0267 246.842 82.95C246.675 82.8733 246.487 82.835 246.277 82.835C246.054 82.835 245.857 82.8733 245.687 82.95C245.517 83.0267 245.38 83.1367 245.277 83.28C245.174 83.4233 245.11 83.5933 245.087 83.79ZM250.343 87V81.88H251.878V82.45C252.074 82.23 252.319 82.0533 252.613 81.92C252.909 81.7867 253.236 81.72 253.593 81.72C253.986 81.72 254.331 81.8067 254.628 81.98C254.928 82.15 255.163 82.3883 255.333 82.695C255.503 82.9983 255.588 83.3533 255.588 83.76V87H254.053V84.085C254.053 83.7183 253.956 83.4333 253.763 83.23C253.573 83.0233 253.311 82.92 252.978 82.92C252.751 82.92 252.554 82.9667 252.388 83.06C252.224 83.15 252.098 83.275 252.007 83.435C251.921 83.5917 251.878 83.77 251.878 83.97V87H250.343ZM259.002 87.16C258.492 87.16 258.095 86.9983 257.812 86.675C257.529 86.3483 257.387 85.8933 257.387 85.31V83.045H256.702V81.88H257.387V79.96H258.922V81.88H260.047V83.045H258.922V85.2C258.922 85.3933 258.96 85.54 259.037 85.64C259.117 85.74 259.229 85.79 259.372 85.79C259.532 85.79 259.685 85.7367 259.832 85.63L260.217 86.86C260.044 86.9533 259.849 87.0267 259.632 87.08C259.419 87.1333 259.209 87.16 259.002 87.16ZM264.054 87.16C263.12 87.16 262.447 86.975 262.034 86.605C261.62 86.235 261.414 85.63 261.414 84.79V81.88H262.949V84.43C262.949 84.97 263.032 85.3517 263.199 85.575C263.369 85.7983 263.654 85.91 264.054 85.91C264.46 85.91 264.745 85.7983 264.909 85.575C265.075 85.3517 265.159 84.97 265.159 84.43V81.88H266.694V84.79C266.694 85.63 266.487 86.235 266.074 86.605C265.664 86.975 264.99 87.16 264.054 87.16ZM268.38 87V81.88H269.915V82.615C270.105 82.3283 270.336 82.1083 270.61 81.955C270.886 81.7983 271.183 81.72 271.5 81.72C271.68 81.72 271.866 81.7467 272.06 81.8C272.253 81.8533 272.415 81.9217 272.545 82.005L271.905 83.3C271.791 83.2233 271.658 83.1633 271.505 83.12C271.355 83.0733 271.215 83.05 271.085 83.05C270.885 83.05 270.695 83.1017 270.515 83.205C270.335 83.3083 270.19 83.4433 270.08 83.61C269.97 83.7733 269.915 83.95 269.915 84.14V87H268.38ZM275.456 87.16C274.986 87.16 274.558 87.0433 274.171 86.81C273.788 86.5733 273.483 86.25 273.256 85.84C273.033 85.4267 272.921 84.9567 272.921 84.43C272.921 83.9167 273.029 83.4567 273.246 83.05C273.463 82.64 273.761 82.3167 274.141 82.08C274.524 81.84 274.963 81.72 275.456 81.72C275.819 81.72 276.158 81.79 276.471 81.93C276.788 82.0667 277.046 82.2583 277.246 82.505V81.88H278.781V87H277.246V86.325C277.013 86.595 276.744 86.8017 276.441 86.945C276.138 87.0883 275.809 87.16 275.456 87.16ZM275.911 85.855C276.178 85.855 276.414 85.795 276.621 85.675C276.828 85.5517 276.989 85.3833 277.106 85.17C277.223 84.9567 277.281 84.7133 277.281 84.44C277.281 84.1633 277.221 83.92 277.101 83.71C276.984 83.4967 276.823 83.33 276.616 83.21C276.413 83.0867 276.178 83.025 275.911 83.025C275.648 83.025 275.413 83.0867 275.206 83.21C274.999 83.33 274.836 83.4967 274.716 83.71C274.596 83.9233 274.536 84.1667 274.536 84.44C274.536 84.7133 274.594 84.9567 274.711 85.17C274.831 85.3833 274.994 85.5517 275.201 85.675C275.408 85.795 275.644 85.855 275.911 85.855ZM139.545 98L136.085 89.75H137.915L140.18 95.565L142.45 89.75H144.275L140.815 98H139.545ZM147.021 98.16C146.468 98.16 145.971 98.0417 145.531 97.805C145.095 97.565 144.748 97.24 144.491 96.83C144.235 96.42 144.106 95.9567 144.106 95.44C144.106 95.06 144.178 94.705 144.321 94.375C144.468 94.045 144.671 93.7567 144.931 93.51C145.191 93.26 145.493 93.0667 145.836 92.93C146.18 92.79 146.551 92.72 146.951 92.72C147.485 92.72 147.951 92.8317 148.351 93.055C148.755 93.275 149.068 93.5817 149.291 93.975C149.518 94.3683 149.631 94.8267 149.631 95.35C149.631 95.3933 149.63 95.4317 149.626 95.465C149.626 95.495 149.621 95.5533 149.611 95.64H145.686C145.686 95.9 145.745 96.1267 145.861 96.32C145.981 96.5133 146.148 96.665 146.361 96.775C146.575 96.8817 146.823 96.935 147.106 96.935C147.373 96.935 147.608 96.8833 147.811 96.78C148.018 96.6767 148.216 96.5117 148.406 96.285L149.511 96.84C149.271 97.2533 148.931 97.5767 148.491 97.81C148.051 98.0433 147.561 98.16 147.021 98.16ZM145.741 94.79H148.121C148.088 94.5933 148.016 94.4233 147.906 94.28C147.8 94.1367 147.663 94.0267 147.496 93.95C147.33 93.8733 147.141 93.835 146.931 93.835C146.708 93.835 146.511 93.8733 146.341 93.95C146.171 94.0267 146.035 94.1367 145.931 94.28C145.828 94.4233 145.765 94.5933 145.741 94.79ZM150.997 98V92.88H152.532V93.45C152.728 93.23 152.973 93.0533 153.267 92.92C153.563 92.7867 153.89 92.72 154.247 92.72C154.64 92.72 154.985 92.8067 155.282 92.98C155.582 93.15 155.817 93.3883 155.987 93.695C156.157 93.9983 156.242 94.3533 156.242 94.76V98H154.707V95.085C154.707 94.7183 154.61 94.4333 154.417 94.23C154.227 94.0233 153.965 93.92 153.632 93.92C153.405 93.92 153.208 93.9667 153.042 94.06C152.878 94.15 152.752 94.275 152.662 94.435C152.575 94.5917 152.532 94.77 152.532 94.97V98H150.997ZM159.656 98.16C159.146 98.16 158.75 97.9983 158.466 97.675C158.183 97.3483 158.041 96.8933 158.041 96.31V94.045H157.356V92.88H158.041V90.96H159.576V92.88H160.701V94.045H159.576V96.2C159.576 96.3933 159.615 96.54 159.691 96.64C159.771 96.74 159.883 96.79 160.026 96.79C160.186 96.79 160.34 96.7367 160.486 96.63L160.871 97.86C160.698 97.9533 160.503 98.0267 160.286 98.08C160.073 98.1333 159.863 98.16 159.656 98.16ZM164.708 98.16C163.775 98.16 163.101 97.975 162.688 97.605C162.275 97.235 162.068 96.63 162.068 95.79V92.88H163.603V95.43C163.603 95.97 163.686 96.3517 163.853 96.575C164.023 96.7983 164.308 96.91 164.708 96.91C165.115 96.91 165.4 96.7983 165.563 96.575C165.73 96.3517 165.813 95.97 165.813 95.43V92.88H167.348V95.79C167.348 96.63 167.141 97.235 166.728 97.605C166.318 97.975 165.645 98.16 164.708 98.16ZM169.034 98V92.88H170.569V93.615C170.759 93.3283 170.991 93.1083 171.264 92.955C171.541 92.7983 171.837 92.72 172.154 92.72C172.334 92.72 172.521 92.7467 172.714 92.8C172.907 92.8533 173.069 92.9217 173.199 93.005L172.559 94.3C172.446 94.2233 172.312 94.1633 172.159 94.12C172.009 94.0733 171.869 94.05 171.739 94.05C171.539 94.05 171.349 94.1017 171.169 94.205C170.989 94.3083 170.844 94.4433 170.734 94.61C170.624 94.7733 170.569 94.95 170.569 95.14V98H169.034ZM176.11 98.16C175.64 98.16 175.212 98.0433 174.825 97.81C174.442 97.5733 174.137 97.25 173.91 96.84C173.687 96.4267 173.575 95.9567 173.575 95.43C173.575 94.9167 173.684 94.4567 173.9 94.05C174.117 93.64 174.415 93.3167 174.795 93.08C175.179 92.84 175.617 92.72 176.11 92.72C176.474 92.72 176.812 92.79 177.125 92.93C177.442 93.0667 177.7 93.2583 177.9 93.505V92.88H179.435V98H177.9V97.325C177.667 97.595 177.399 97.8017 177.095 97.945C176.792 98.0883 176.464 98.16 176.11 98.16ZM176.565 96.855C176.832 96.855 177.069 96.795 177.275 96.675C177.482 96.5517 177.644 96.3833 177.76 96.17C177.877 95.9567 177.935 95.7133 177.935 95.44C177.935 95.1633 177.875 94.92 177.755 94.71C177.639 94.4967 177.477 94.33 177.27 94.21C177.067 94.0867 176.832 94.025 176.565 94.025C176.302 94.025 176.067 94.0867 175.86 94.21C175.654 94.33 175.49 94.4967 175.37 94.71C175.25 94.9233 175.19 95.1667 175.19 95.44C175.19 95.7133 175.249 95.9567 175.365 96.17C175.485 96.3833 175.649 96.5517 175.855 96.675C176.062 96.795 176.299 96.855 176.565 96.855Z" fill="white"/>
</svg>
