<svg width="267" height="294" viewBox="0 0 267 294" fill="none" xmlns="http://www.w3.org/2000/svg">
<ellipse cx="127.5" cy="279.5" rx="78.5" ry="14" fill="#7C6BAF" fill-opacity="0.43"/>
<circle cx="126" cy="126.5" r="111" fill="#7C6BAF"/>
<path d="M229.473 58.5919C229.236 58.1298 227.96 55.5281 229.018 52.4779C229.238 51.8424 230.328 48.973 233.383 47.8992C233.744 47.7718 236.594 46.823 239.109 48.4622C240.85 49.5972 241.412 51.307 241.959 52.9781C242.402 54.3286 243.935 59.0006 241.554 61.0711C240.85 61.684 240.512 61.2438 237.894 61.9578C235.236 62.6826 234.839 63.3082 233.789 63.2216C232.688 63.1306 231.148 62.2791 229.473 58.5919Z" fill="#AEBC26"/>
<path d="M248.034 58.7887C248.5 58.5622 251.122 57.3413 254.118 58.4811C254.742 58.7186 257.558 59.8863 258.533 62.9885C258.648 63.3559 259.505 66.2462 257.801 68.7384C256.621 70.463 254.908 70.9851 253.232 71.4957C251.876 71.907 247.19 73.3337 245.208 70.8869C244.621 70.1616 245.067 69.8343 244.438 67.1812C243.798 64.4875 243.189 64.0723 243.307 63.018C243.43 61.9125 244.321 60.3833 248.034 58.7887Z" fill="#AEBC26"/>
<path d="M240.619 51.4058C240.912 50.977 242.589 48.6057 245.757 48.0945C246.417 47.987 249.441 47.5902 251.819 49.7902C252.1 50.0508 254.273 52.1265 254.022 55.1395C253.848 57.2245 252.616 58.5348 251.411 59.8164C250.438 60.8516 247.07 64.4332 244.138 63.3056C243.27 62.972 243.494 62.462 241.639 60.4798C239.753 58.4657 239.02 58.4114 238.6 57.4378C238.161 56.4178 238.181 54.6466 240.619 51.4058Z" fill="#C4D650"/>
<path fill-rule="evenodd" clip-rule="evenodd" d="M221.894 82.2323C221.196 85.2535 220.762 88.1101 220.931 90.1531C221.01 91.1049 221.194 93.3251 222.668 94.1832C223.87 94.8813 225.368 94.4308 226.335 94.0878C234.506 91.1914 243.525 83.0457 245.743 81.0417C246.012 80.7993 246.181 80.6467 246.237 80.6042C246.237 80.6029 246.245 80.5974 246.256 80.5886C246.267 80.581 246.28 80.571 246.295 80.5592C246.407 80.4726 246.641 80.2867 246.913 80.0334C247.051 79.9044 247.185 79.7722 247.314 79.6368C247.446 79.4981 247.578 79.36 247.713 79.224C248.082 78.85 248.428 78.4535 248.748 78.0368C240.382 82.468 230.604 83.0322 221.894 82.2323Z" fill="#D86627"/>
<path fill-rule="evenodd" clip-rule="evenodd" d="M248.688 78.0858C248.851 77.8738 249.008 77.6566 249.157 77.4344C252.992 71.7517 251.611 64.0622 246.1 60.1107C240.22 55.891 231.958 57.5842 228.15 63.7855C227.893 64.2042 227.661 64.6374 227.454 65.083C227.387 65.229 227.315 65.3732 227.243 65.5175L227.229 65.544C226.983 66.026 226.78 66.5286 226.621 67.0462C225.968 68.778 223.31 75.8972 221.834 82.2814C230.544 83.0813 240.322 82.5171 248.688 78.0858Z" fill="#E27B38"/>
<path d="M224.088 73.9373C227.357 75.6971 231.378 74.5571 233.069 71.391C234.76 68.2249 233.48 64.2317 230.211 62.4719C226.942 60.7121 222.921 61.8521 221.23 65.0182C219.539 68.1843 220.819 72.1775 224.088 73.9373Z" fill="#E2E2E2"/>
<path d="M226.304 73.7726C228.536 74.974 231.281 74.1957 232.435 72.0342C233.59 69.8727 232.716 67.1466 230.484 65.9452C228.253 64.7438 225.507 65.5221 224.353 67.6836C223.199 69.8451 224.072 72.5712 226.304 73.7726Z" fill="black"/>
<path d="M228.862 66.962C229.338 66.5183 229.089 65.4672 228.306 64.6142C227.523 63.7613 226.502 63.4296 226.027 63.8733C225.551 64.317 225.8 65.3682 226.583 66.2211C227.366 67.0741 228.387 67.4058 228.862 66.962Z" fill="white"/>
<path d="M242.324 84.3063C245.593 86.0662 249.588 84.9761 251.246 81.8715C252.904 78.7669 251.597 74.8235 248.328 73.0636C245.059 71.3037 241.064 72.3938 239.406 75.4984C237.748 78.603 239.054 82.5465 242.324 84.3063Z" fill="#E2E2E2"/>
<path d="M241.246 81.7833C243.478 82.9847 246.205 82.2405 247.337 80.121C248.469 78.0015 247.577 75.3093 245.345 74.1079C243.113 72.9065 240.386 73.6507 239.254 75.7702C238.122 77.8897 239.014 80.5818 241.246 81.7833Z" fill="black"/>
<path d="M247.089 78.4357C248.236 78.5691 249.229 78.1606 249.307 77.5232C249.385 76.8859 248.519 76.2611 247.372 76.1277C246.225 75.9943 245.232 76.4028 245.154 77.0401C245.076 77.6775 245.943 78.3023 247.089 78.4357Z" fill="white"/>
<g clip-path="url(#clip0_329_573)">
<path d="M122.35 37.8114C130.12 33.6721 133.028 23.953 128.846 16.1033C124.664 8.2535 114.975 5.24557 107.206 9.38488C99.436 13.5242 96.5275 23.2433 100.709 31.093C104.891 38.9428 114.58 41.9507 122.35 37.8114Z" fill="#D86627"/>
<path d="M121.437 36.2618C128.538 32.4788 131.196 23.5964 127.374 16.4224C123.552 9.24844 114.698 6.49946 107.597 10.2824C100.496 14.0654 97.8378 22.9478 101.66 30.1218C105.482 37.2958 114.336 40.0447 121.437 36.2618Z" fill="#E37A39"/>
<path d="M115.891 34.4663C116.447 34.1698 116.656 33.4737 116.356 32.9114C116.057 32.3492 115.363 32.1337 114.806 32.4302C114.25 32.7267 114.041 33.4228 114.341 33.9851C114.64 34.5473 115.334 34.7628 115.891 34.4663Z" fill="#E28B5A"/>
<path d="M121.365 12.4734C121.921 12.1769 122.129 11.4807 121.83 10.9185C121.53 10.3563 120.836 10.1408 120.28 10.4373C119.723 10.7338 119.515 11.4299 119.815 11.9922C120.114 12.5544 120.808 12.7698 121.365 12.4734Z" fill="#E28B5A"/>
<path d="M118.132 13.9696C118.688 13.6731 118.896 12.977 118.597 12.4147C118.297 11.8525 117.603 11.637 117.047 11.9335C116.49 12.23 116.282 12.9261 116.582 13.4884C116.881 14.0506 117.575 14.2661 118.132 13.9696Z" fill="#E28B5A"/>
<path d="M123.885 14.7754C124.441 14.4789 124.649 13.7827 124.35 13.2205C124.05 12.6583 123.356 12.4428 122.8 12.7393C122.243 13.0358 122.035 13.7319 122.335 14.2942C122.634 14.8564 123.328 15.0718 123.885 14.7754Z" fill="#E28B5A"/>
<path d="M115.515 37.356C116.071 37.0596 116.279 36.3634 115.98 35.8012C115.68 35.239 114.986 35.0235 114.43 35.32C113.873 35.6165 113.665 36.3126 113.965 36.8748C114.264 37.4371 114.958 37.6525 115.515 37.356Z" fill="#E28B5A"/>
<path d="M112.003 36.462C112.56 36.1655 112.768 35.4694 112.469 34.9072C112.169 34.3449 111.475 34.1295 110.919 34.4259C110.362 34.7224 110.154 35.4186 110.453 35.9808C110.753 36.543 111.447 36.7585 112.003 36.462Z" fill="#E28B5A"/>
<path d="M110.809 22.18C109.83 19.6347 106.889 18.3912 104.24 19.4024C101.591 20.4136 100.237 23.2967 101.216 25.842C102.195 28.3872 105.136 29.6308 107.785 28.6196C110.434 27.6083 111.788 24.7252 110.809 22.18Z" fill="#E2E2E2"/>
<path d="M110.862 22.8694C110.194 21.1318 108.186 20.2828 106.378 20.9731C104.569 21.6634 103.645 23.6317 104.314 25.3693C104.982 27.107 106.99 27.956 108.798 27.2657C110.606 26.5753 111.531 24.6071 110.862 22.8694Z" fill="black"/>
<path d="M106.145 22.4047C106.126 21.9083 105.396 21.5272 104.515 21.5536C103.634 21.58 102.935 22.0038 102.953 22.5002C102.972 22.9966 103.702 23.3777 104.583 23.3513C105.464 23.3249 106.164 22.9011 106.145 22.4047Z" fill="white"/>
<path d="M125.916 16.9497C124.956 14.4538 122.031 13.2503 119.382 14.2615C116.733 15.2728 115.364 18.1158 116.324 20.6117C117.284 23.1076 120.209 24.3111 122.858 23.2999C125.507 22.2886 126.876 19.4456 125.916 16.9497Z" fill="#E2E2E2"/>
<path d="M122.956 18.33C122.301 16.6261 120.304 15.8044 118.495 16.4948C116.687 17.1851 115.752 19.126 116.408 20.8299C117.063 22.5339 119.06 23.3555 120.869 22.6652C122.677 21.9749 123.612 20.034 122.956 18.33Z" fill="black"/>
<path d="M121.851 17.6422C122.5 17.0478 122.76 16.2729 122.432 15.9114C122.104 15.5498 121.312 15.7386 120.664 16.333C120.015 16.9273 119.755 17.7023 120.083 18.0638C120.411 18.4253 121.203 18.2366 121.851 17.6422Z" fill="white"/>
<path d="M112.434 5.75442C111.323 6.03237 110.396 6.62379 109.766 7.37272C109.364 7.38928 108.97 7.48718 108.608 7.66058C108.246 7.83398 107.923 8.07932 107.659 8.38192C107.043 8.32309 106.422 8.37051 105.824 8.52214C103.411 9.12596 101.861 11.2072 102.363 13.1713C102.865 15.1354 105.227 16.2368 107.64 15.6327C108.064 15.5272 108.473 15.3712 108.86 15.1679C110.064 16.1123 111.562 16.3888 112.771 15.7448C113.812 15.1901 114.406 14.076 114.479 12.8017C116.76 12.1267 118.196 10.1162 117.71 8.21524C117.209 6.25243 114.847 5.1504 112.434 5.75442Z" fill="#C4D650"/>
</g>
<g clip-path="url(#clip1_329_573)">
<path d="M255.37 181.84C255.263 181.086 255.334 180.317 255.578 179.596C256.611 176.474 256.361 173.07 254.884 170.133C253.407 167.195 250.823 164.964 247.702 163.932C244.58 162.899 241.176 163.149 238.238 164.626C235.301 166.103 233.07 168.687 232.038 171.808C231.893 172.245 231.638 172.638 231.296 172.946C229.424 174.618 228.017 176.745 227.21 179.121C226.404 181.497 226.226 184.042 226.694 186.507C227.163 188.973 228.261 191.275 229.882 193.19C231.504 195.105 233.594 196.568 235.948 197.436C238.303 198.304 240.842 198.549 243.318 198.145C245.795 197.741 248.125 196.703 250.082 195.133C252.039 193.562 253.556 191.511 254.485 189.18C255.415 186.849 255.725 184.317 255.387 181.831L255.37 181.84Z" fill="#6B7227"/>
<path d="M253.955 181.936C253.858 181.258 253.92 180.566 254.138 179.916C254.936 177.146 254.631 174.173 253.286 171.623C251.942 169.072 249.662 167.141 246.925 166.234C244.187 165.328 241.206 165.516 238.604 166.759C236.002 168.002 233.983 170.204 232.969 172.904C232.836 173.297 232.603 173.65 232.293 173.927C230.598 175.428 229.321 177.343 228.586 179.485C227.852 181.627 227.685 183.923 228.102 186.149C228.519 188.374 229.506 190.454 230.967 192.185C232.427 193.915 234.311 195.237 236.435 196.023C238.559 196.808 240.85 197.029 243.085 196.665C245.32 196.301 247.423 195.364 249.187 193.945C250.952 192.526 252.319 190.674 253.154 188.569C253.99 186.464 254.266 184.179 253.955 181.936Z" fill="#C4D650"/>
<path d="M239.2 189.113C241.65 189.923 244.488 188.005 245.539 184.827C246.59 181.65 245.457 178.417 243.007 177.606C240.558 176.796 237.72 178.715 236.668 181.892C235.617 185.07 236.75 188.303 239.2 189.113Z" fill="#844019"/>
<path d="M234.406 180.894C236.84 181.462 239.252 180.044 239.794 177.726C240.335 175.408 238.801 173.067 236.366 172.499C233.932 171.93 231.52 173.349 230.978 175.667C230.437 177.985 231.971 180.325 234.406 180.894Z" fill="#E2E2E2"/>
<path d="M235.812 180.418C237.475 180.806 239.122 179.836 239.492 178.252C239.862 176.668 238.815 175.069 237.152 174.681C235.49 174.293 233.842 175.262 233.472 176.846C233.102 178.43 234.15 180.029 235.812 180.418Z" fill="black"/>
<path d="M234.662 175.528C235.32 175.941 236.041 175.978 236.273 175.61C236.505 175.241 236.159 174.607 235.502 174.194C234.844 173.78 234.123 173.743 233.891 174.112C233.659 174.48 234.005 175.114 234.662 175.528Z" fill="white"/>
<path d="M248.051 184.45C250.485 185.019 252.889 183.635 253.421 181.36C253.952 179.084 252.409 176.779 249.975 176.21C247.541 175.642 245.137 177.025 244.605 179.301C244.074 181.576 245.616 183.881 248.051 184.45Z" fill="#E2E2E2"/>
<path d="M246.91 183.015C248.573 183.403 250.214 182.46 250.576 180.909C250.939 179.357 249.885 177.785 248.223 177.397C246.56 177.008 244.919 177.951 244.556 179.503C244.194 181.054 245.248 182.627 246.91 183.015Z" fill="black"/>
<path d="M250.101 179.874C250.867 179.763 251.439 179.33 251.378 178.907C251.317 178.484 250.646 178.231 249.879 178.342C249.112 178.453 248.541 178.886 248.602 179.309C248.663 179.732 249.334 179.985 250.101 179.874Z" fill="white"/>
</g>
<path d="M106.924 228.188C103.682 232.647 98.8056 235.642 93.3619 236.517L93.2218 236.538C82.407 238.253 73.6155 233.132 71.1054 231.551L18.404 195.924C4.74178 186.689 0.737876 168.745 9.45812 155.847C18.1784 142.95 36.3218 139.979 49.984 149.214C50.1739 149.426 62.0051 160.06 102.735 196.554C112.104 204.948 113.909 218.565 106.924 228.188Z" fill="#459696"/>
<path d="M144.588 159.996C148.259 155.883 153.41 153.39 158.914 153.062L159.055 153.053C169.988 152.434 178.224 158.401 180.554 160.229L229.441 200.936C242.113 211.491 244.306 229.746 234.341 241.709C224.379 253.672 206.027 254.814 193.357 244.258C193.189 244.029 182.478 232.265 145.599 191.886C137.112 182.603 136.679 168.874 144.588 159.996Z" fill="#459696"/>
<path d="M114.248 278.422H91.5832C84.9932 278.422 79.4718 274.879 78.814 270.222L76.2017 251.807C75.38 246.001 82.3453 241.152 90.5051 241.85L115.778 244.011C122.225 244.562 127.077 248.447 127.077 253.057V269.31C127.082 274.342 121.335 278.422 114.248 278.422Z" fill="#459696"/>
<path d="M139.217 279.5H159.626C165.563 279.5 170.531 275.954 171.124 271.3L173.473 252.886C174.214 247.079 167.94 242.228 160.592 242.926L137.832 245.087C132.028 245.638 127.659 249.521 127.659 254.132V270.386C127.659 275.418 132.845 279.5 139.217 279.5Z" fill="#459696"/>
<path d="M203.614 196.985C203.434 195.928 202.987 193.304 201.477 192.948C201.379 192.925 201.28 192.912 201.18 192.91C201.094 192.905 201.013 192.867 200.954 192.804C200.896 192.74 200.864 192.657 200.866 192.571C200.861 186.948 200.327 181.339 199.271 175.816C199.258 175.753 199.264 175.688 199.288 175.628C199.311 175.568 199.352 175.516 199.404 175.478C199.456 175.441 199.518 175.419 199.582 175.415C199.647 175.411 199.711 175.426 199.767 175.458C200.852 176.051 201.785 176.279 201.952 176.087C202.351 175.612 198.864 172.029 198.23 170.927C198.215 170.899 198.204 170.87 198.197 170.839L198.147 170.635C198.385 170.411 200.285 172.511 200.997 172.059C201.562 171.696 201.177 169.813 200.285 168.497C200.194 168.364 198.724 166.246 197.435 166.597C197.391 166.611 197.344 166.616 197.298 166.611C197.252 166.607 197.208 166.593 197.167 166.571C197.127 166.549 197.091 166.519 197.062 166.482C197.034 166.446 197.012 166.405 197 166.36C195.797 162.198 194.308 158.125 192.545 154.168C183.162 133.355 159.972 104.297 126.604 102.552C126.547 102.549 126.492 102.531 126.443 102.501C126.394 102.47 126.354 102.428 126.326 102.378C126.298 102.328 126.283 102.272 126.283 102.215C126.283 102.157 126.297 102.101 126.324 102.051C127.58 99.7945 128.566 97.4886 127.773 96.8142C126.908 96.0732 124.082 97.4292 122.871 99.2056C122.629 99.5603 122.429 99.942 122.275 100.343C122.075 100.921 121.99 101.533 122.026 102.143C122.027 102.189 122.02 102.234 122.004 102.276C121.988 102.318 121.963 102.357 121.932 102.39C121.901 102.423 121.864 102.45 121.822 102.468C121.781 102.486 121.736 102.496 121.691 102.497L121.099 102.514C121.048 102.515 120.996 102.505 120.949 102.485C120.902 102.464 120.86 102.432 120.826 102.393C120.036 101.431 119.06 100.127 118.397 100.326C117.939 100.464 117.67 101.317 117.649 102.445C117.647 102.527 117.616 102.606 117.56 102.667C117.504 102.727 117.427 102.765 117.345 102.773C75.3752 106.981 56.2296 153.308 54.2111 158.414C53.8952 159.219 53.4013 160.463 52.8242 162.09C51.5143 165.838 50.4442 169.665 49.6206 173.548C49.61 173.598 49.5883 173.645 49.557 173.686C49.5258 173.726 49.4859 173.759 49.4403 173.782C49.3947 173.804 49.3445 173.817 49.2935 173.817C49.2425 173.818 49.1919 173.807 49.1456 173.786C48.7236 173.61 48.2763 173.504 47.8205 173.47C45.099 173.268 42.7622 175.764 43.0709 176.557C43.2704 177.066 44.4958 176.74 45.8328 176.697C45.9102 176.695 45.9861 176.719 46.0479 176.766C46.1097 176.813 46.1537 176.879 46.1726 176.954C46.1914 177.029 46.184 177.109 46.1516 177.179C46.1192 177.249 46.0637 177.307 45.9943 177.341C44.8544 177.904 43.9757 178.711 44.0113 179.341C44.0683 180.395 46.7257 181.003 47.9844 181.715C48.0437 181.748 48.0919 181.798 48.1228 181.859C48.1536 181.919 48.1658 181.988 48.1577 182.055C48.1292 182.273 48.1031 182.494 48.0746 182.715C48.0675 182.778 48.0428 182.838 48.0033 182.887C47.9638 182.937 47.9112 182.974 47.8514 182.995C47.2672 183.195 46.4811 183.439 45.9515 184.164C44.8045 185.714 45.4362 188.621 46.4455 188.887C46.6461 188.928 46.8548 188.895 47.0321 188.792C47.085 188.765 47.1442 188.752 47.2036 188.755C47.2631 188.758 47.3207 188.777 47.3707 188.809C47.4207 188.841 47.4614 188.886 47.4887 188.939C47.5159 188.992 47.5288 189.051 47.526 189.11C46.9822 199.481 48.1031 211.564 53.2089 223.393C53.2304 223.439 53.2411 223.49 53.2403 223.541C53.2396 223.592 53.2273 223.642 53.2045 223.688C53.1817 223.733 53.1489 223.773 53.1086 223.804C53.0682 223.836 53.0213 223.857 52.9714 223.868C50.6299 224.312 48.6707 224.97 48.6968 225.21C48.7324 225.499 51.7698 225.371 53.9665 225.492C54.0266 225.496 54.0846 225.515 54.1344 225.549C54.1842 225.583 54.2238 225.63 54.2491 225.685C54.4074 226.012 54.5657 226.34 54.724 226.668C54.763 226.745 54.7712 226.833 54.7469 226.916C54.7227 226.998 54.6677 227.068 54.5934 227.112C53.7931 227.568 52.9026 228.23 52.4395 229.337C52.2875 229.698 52.0191 230.337 52.2614 230.942C52.7862 232.253 55.4721 232.864 57.3648 232.011C57.4397 231.978 57.5242 231.973 57.6024 231.997C57.6807 232.022 57.7473 232.074 57.7899 232.144C57.9062 232.336 58.0274 232.526 58.1461 232.719L58.2126 232.818C58.2482 232.874 58.2671 232.938 58.2671 233.004C58.2671 233.069 58.2482 233.134 58.2126 233.189C57.1036 234.925 56.9183 237.105 57.3268 237.371C57.6949 237.608 58.5593 236.3 59.7301 235.611C59.8034 235.569 59.8899 235.555 59.9728 235.572C60.0557 235.59 60.1292 235.638 60.1789 235.706C63.0838 239.74 66.4495 243.422 70.2077 246.675C70.2516 246.712 70.2852 246.76 70.3053 246.814C70.3254 246.868 70.3313 246.926 70.3225 246.983C70.3137 247.039 70.2904 247.093 70.2549 247.138C70.2194 247.183 70.1729 247.219 70.1198 247.241C69.404 247.528 68.8053 248.047 68.4194 248.715C67.9184 249.608 67.707 251.024 68.2651 251.42C69.215 252.078 71.4877 249.354 72.4566 249.967C73.5894 250.679 71.4853 255.035 72.1502 255.374C72.6585 255.635 75.1021 253.712 75.4251 251.351C75.4319 251.294 75.4536 251.239 75.488 251.192C75.5224 251.145 75.5684 251.107 75.6215 251.083C75.6746 251.06 75.7329 251.05 75.7909 251.055C75.8489 251.06 75.9045 251.081 75.9523 251.114C99.116 267.127 127.502 265.648 129.11 265.538C133.501 265.239 157.434 263.211 176.919 246.203C176.961 246.165 177.012 246.138 177.068 246.125C177.123 246.112 177.181 246.114 177.236 246.13C177.29 246.145 177.34 246.175 177.38 246.215C177.42 246.255 177.45 246.305 177.465 246.36C177.535 246.616 177.625 246.867 177.734 247.11C177.876 247.428 178.486 248.772 179.365 248.787C180.184 248.787 181.046 247.632 181.099 246.628C181.113 246.338 181.049 246.305 180.83 244.728C180.714 243.885 180.719 243.797 180.78 243.705C181.281 242.937 183.868 244.303 184.309 243.667C184.506 243.382 184.129 242.885 182.702 240.928C182.656 240.865 182.634 240.789 182.639 240.712C182.643 240.634 182.673 240.561 182.725 240.503C185.14 237.844 187.345 235.003 189.323 232.004C189.337 231.985 189.346 231.966 189.358 231.949C189.539 233.339 189.781 234.324 189.947 234.324C190.218 234.324 190.462 231.781 190.816 229.691C190.823 229.649 190.838 229.609 190.859 229.572C191.166 229.064 191.464 228.555 191.752 228.045C191.784 227.988 191.831 227.942 191.888 227.912C191.946 227.881 192.01 227.868 192.075 227.873C192.14 227.879 192.202 227.903 192.253 227.943C192.304 227.982 192.343 228.036 192.365 228.097C192.704 229.047 193.224 230.387 194.528 231.147C194.865 231.344 195.464 231.69 196.095 231.529C197.556 231.159 198.546 228.247 197.684 226.224C197.128 224.922 195.924 224.262 194.447 223.611C194.406 223.593 194.369 223.567 194.338 223.534C194.307 223.501 194.283 223.463 194.267 223.421C194.251 223.378 194.243 223.333 194.245 223.288C194.247 223.243 194.257 223.199 194.276 223.158C197.041 217.213 198.953 210.907 199.954 204.428C199.96 204.364 199.984 204.304 200.023 204.253C200.062 204.203 200.115 204.164 200.175 204.142C200.234 204.121 200.299 204.116 200.362 204.13C200.424 204.143 200.481 204.174 200.527 204.219C201.078 204.805 201.536 205.126 201.714 205.052C202.032 204.917 201.477 203.528 201.346 199.222C201.27 196.964 201.401 196.75 201.477 196.741C201.857 196.686 202.493 201.526 203.139 201.49C203.583 201.471 203.994 199.182 203.614 196.985Z" fill="#4EADAF"/>
<path d="M63.981 202.685C76.7031 202.685 87.0164 195.508 87.0164 186.655C87.0164 177.802 76.7031 170.625 63.981 170.625C51.2588 170.625 40.9455 177.802 40.9455 186.655C40.9455 195.508 51.2588 202.685 63.981 202.685Z" fill="#E37A39"/>
<path d="M184.145 203.635C196.868 203.635 207.181 196.458 207.181 187.605C207.181 178.752 196.868 171.575 184.145 171.575C171.423 171.575 161.11 178.752 161.11 187.605C161.11 196.458 171.423 203.635 184.145 203.635Z" fill="#E37A39"/>
<path d="M82.6753 176.323C97.7385 176.323 109.95 164.694 109.95 150.35C109.95 136.005 97.7385 124.376 82.6753 124.376C67.612 124.376 55.4008 136.005 55.4008 150.35C55.4008 164.694 67.612 176.323 82.6753 176.323Z" fill="#E2E2E2"/>
<path d="M90.2793 171.571C100.563 171.571 108.9 163.631 108.9 153.838C108.9 144.045 100.563 136.105 90.2793 136.105C79.9954 136.105 71.6586 144.045 71.6586 153.838C71.6586 163.631 79.9954 171.571 90.2793 171.571Z" fill="black"/>
<path d="M86.3982 142.706C87.2514 140.231 84.3595 136.99 79.9391 135.466C75.5187 133.942 71.2436 134.713 70.3904 137.188C69.5372 139.663 72.4291 142.905 76.8495 144.429C81.27 145.952 85.5451 145.181 86.3982 142.706Z" fill="white"/>
<path d="M167.558 178.462C182.621 178.462 194.832 167.059 194.832 152.992C194.832 138.926 182.621 127.523 167.558 127.523C152.494 127.523 140.283 138.926 140.283 152.992C140.283 167.059 152.494 178.462 167.558 178.462Z" fill="#E2E2E2"/>
<path d="M158.904 171.611C169.188 171.611 177.525 163.826 177.525 154.223C177.525 144.619 169.188 136.834 158.904 136.834C148.62 136.834 140.283 144.619 140.283 154.223C140.283 163.826 148.62 171.611 158.904 171.611Z" fill="black"/>
<path d="M173.362 148.765C177.712 147.061 180.479 143.742 179.542 141.351C178.606 138.959 174.32 138.402 169.97 140.106C165.62 141.81 162.853 145.13 163.789 147.521C164.726 149.912 169.012 150.469 173.362 148.765Z" fill="white"/>
<path d="M151.829 123.714C147.061 121.8 142.7 118.996 138.979 115.452C137.105 113.679 135.402 111.734 133.892 109.641C132.39 107.537 131.092 105.293 130.017 102.942L129.623 102.056L129.262 101.154C129.008 100.56 128.822 99.9377 128.604 99.3298L128.288 98.4155C128.176 98.1115 128.108 97.7957 128.015 97.4846L127.754 96.5513C127.673 96.2402 127.568 95.9338 127.516 95.6156L127.12 93.7158C127.003 93.0817 126.92 92.4429 126.818 91.816L126.747 91.341C126.725 91.1819 126.714 91.0204 126.697 90.866L126.604 89.9019C126.578 89.5813 126.535 89.2631 126.526 88.9401L126.488 87.9735C126.273 82.8345 127.061 77.7028 128.808 72.8651C127.622 77.7812 127.214 82.8526 127.597 87.8952C127.794 90.3925 128.206 92.8682 128.827 95.295C128.981 95.8982 129.169 96.4967 129.338 97.0975C129.43 97.3943 129.499 97.7007 129.608 97.9928L129.924 98.8762C130.14 99.4628 130.323 100.064 130.575 100.634L130.931 101.498L131.316 102.351C132.336 104.63 133.564 106.812 134.983 108.867C135.695 109.893 136.438 110.902 137.241 111.864C138.044 112.826 138.872 113.764 139.749 114.664C143.291 118.279 147.365 121.331 151.829 123.714Z" fill="#29ABE2"/>
<path d="M134.032 114.939C133.189 113.087 132.693 111.095 132.57 109.064C132.46 107.015 132.661 104.961 133.166 102.972C133.703 100.989 134.471 99.0762 135.455 97.2728L136.239 95.9548C136.49 95.5059 136.797 95.0951 137.089 94.6771L137.977 93.4256L138.927 92.2382C139.24 91.8345 139.594 91.4664 139.939 91.0888C140.283 90.7112 140.618 90.3289 140.988 89.9774L142.074 88.904C142.449 88.5597 142.826 88.2177 143.209 87.8829C144.741 86.5487 146.356 85.3121 148.044 84.1806C151.405 81.9268 155.013 80.064 158.797 78.6283C155.226 80.4551 151.8 82.5509 148.547 84.8977C146.94 86.0755 145.395 87.3367 143.919 88.676C142.442 90.0006 141.062 91.4291 139.789 92.9507L138.839 94.0977L137.972 95.3017C137.362 96.0854 136.896 96.9641 136.362 97.7881C135.38 99.5007 134.584 101.313 133.987 103.196C133.424 105.094 133.124 107.06 133.097 109.04C133.09 111.044 133.406 113.036 134.032 114.939Z" fill="#29ABE2"/>
<path d="M174.057 82.7558L171.246 80.856L173.606 78.049C173.811 77.8052 173.944 77.509 173.989 77.1938C174.035 76.8786 173.991 76.557 173.864 76.2652C173.736 75.9735 173.529 75.7233 173.267 75.5429C173.004 75.3625 172.697 75.2591 172.378 75.2443L167.992 75.0306L167.968 71.3544C167.966 71.0359 167.875 70.7243 167.705 70.4549C167.535 70.1854 167.293 69.9689 167.007 69.8299C166.72 69.6908 166.4 69.6346 166.083 69.6678C165.767 69.7009 165.465 69.822 165.214 70.0174L163.076 71.6798L161.226 68.7089C161.058 68.4386 160.817 68.2209 160.531 68.0802C160.246 67.9396 159.926 67.8817 159.609 67.9131C159.292 67.9445 158.99 68.0639 158.738 68.2578C158.485 68.4517 158.292 68.7124 158.18 69.0105L156.472 73.5487L152.497 72.2853C152.193 72.189 151.869 72.1794 151.56 72.2578C151.251 72.3361 150.971 72.4993 150.75 72.7288C150.529 72.9583 150.377 73.245 150.31 73.5565C150.244 73.868 150.266 74.1919 150.374 74.4915L151.255 76.9304L148.533 77.6072C148.224 77.684 147.943 77.8456 147.721 78.0738C147.499 78.302 147.345 78.5877 147.277 78.8987C147.209 79.2096 147.229 79.5334 147.335 79.8335C147.441 80.1337 147.629 80.3981 147.878 80.5971L151.392 83.4017L148.602 87.294C148.417 87.5529 148.309 87.8582 148.288 88.1754C148.268 88.4927 148.337 88.8094 148.486 89.0898C148.636 89.3702 148.861 89.6032 149.137 89.7625C149.412 89.9219 149.726 90.0013 150.044 89.9918L153.242 89.8897L153.062 92.4236C153.039 92.7413 153.106 93.0591 153.255 93.3408C153.404 93.6226 153.628 93.8571 153.903 94.018C154.178 94.1788 154.492 94.2595 154.811 94.2509C155.129 94.2424 155.439 94.1449 155.705 93.9696L158.892 91.8703L161.663 95.6343C161.853 95.8878 162.11 96.0835 162.404 96.1995C162.699 96.3156 163.02 96.3474 163.332 96.2915C163.643 96.2356 163.933 96.0941 164.169 95.8828C164.405 95.6716 164.578 95.3989 164.667 95.0952L165.701 91.533L168.55 92.6896C168.845 92.809 169.168 92.8435 169.482 92.7892C169.796 92.7349 170.088 92.594 170.326 92.3823C170.564 92.1706 170.738 91.8966 170.828 91.5913C170.918 91.2859 170.922 90.9614 170.837 90.6544L169.842 87.0399L173.625 85.7837C173.927 85.6839 174.195 85.5019 174.399 85.2581C174.603 85.0143 174.735 84.7184 174.78 84.4037C174.825 84.089 174.781 83.768 174.653 83.4769C174.526 83.1857 174.319 82.936 174.057 82.7558Z" fill="#F3BD37"/>
<path opacity="0.47" d="M144.152 73.6793L140.445 71.1668L143.553 67.4716C143.823 67.1508 143.998 66.7609 144.058 66.3459C144.117 65.931 144.06 65.5076 143.892 65.1237C143.723 64.7397 143.451 64.4105 143.105 64.1732C142.76 63.936 142.355 63.8002 141.936 63.7812L136.17 63.5175L136.139 58.6801C136.136 58.2608 136.016 57.8506 135.792 57.496C135.569 57.1413 135.25 56.8562 134.873 56.673C134.496 56.4897 134.075 56.4155 133.658 56.4588C133.241 56.5021 132.844 56.6612 132.513 56.918L129.701 59.1028L127.267 55.1915C127.045 54.8353 126.729 54.5482 126.352 54.3627C125.976 54.1773 125.555 54.1009 125.138 54.1421C124.721 54.1834 124.323 54.3407 123.99 54.5963C123.658 54.8518 123.403 55.1954 123.256 55.5881L121.012 61.5631L115.787 59.9007C115.387 59.7743 114.96 59.762 114.554 59.8653C114.148 59.9686 113.779 60.1834 113.488 60.4854C113.197 60.7874 112.997 61.1646 112.909 61.5745C112.822 61.9844 112.85 62.4106 112.992 62.8051L114.137 66.0063L110.553 66.8969C110.146 66.9978 109.775 67.2106 109.483 67.5113C109.191 67.812 108.988 68.1885 108.899 68.5982C108.809 69.008 108.836 69.4346 108.977 69.8297C109.117 70.2249 109.365 70.5729 109.693 70.8343L114.322 74.5223L110.65 79.6448C110.404 79.9856 110.258 80.3889 110.229 80.8086C110.2 81.2284 110.29 81.6478 110.488 82.019C110.686 82.3903 110.984 82.6984 111.349 82.9085C111.714 83.1185 112.13 83.2219 112.55 83.207L116.761 83.0716L116.523 86.4105C116.493 86.829 116.581 87.2474 116.777 87.6185C116.972 87.9896 117.268 88.2986 117.63 88.5104C117.992 88.7222 118.406 88.8284 118.825 88.817C119.245 88.8056 119.652 88.677 120.002 88.4457L124.196 85.6791L127.844 90.6353C128.093 90.9732 128.431 91.2347 128.821 91.39C129.211 91.5454 129.637 91.5884 130.05 91.5143C130.463 91.4401 130.847 91.2517 131.158 90.9704C131.47 90.6892 131.696 90.3263 131.812 89.9229L133.163 85.2421L136.916 86.7644C137.304 86.9223 137.729 86.9682 138.143 86.897C138.556 86.8258 138.941 86.6403 139.254 86.3616C139.568 86.0828 139.797 85.7219 139.916 85.3196C140.035 84.9174 140.038 84.4899 139.927 84.0856L138.616 79.336L143.603 77.6737C144.001 77.5414 144.355 77.3002 144.623 76.9774C144.891 76.6546 145.064 76.2631 145.121 75.8473C145.178 75.4314 145.117 75.0079 144.946 74.6248C144.775 74.2416 144.5 73.914 144.152 73.6793Z" fill="#F3BD37"/>
<path opacity="0.47" d="M178.824 83.4157L175.117 80.9032L178.225 77.208C178.495 76.8872 178.67 76.4973 178.73 76.0824C178.789 75.6675 178.732 75.2441 178.564 74.8601C178.395 74.4762 178.123 74.1469 177.777 73.9097C177.432 73.6724 177.027 73.5366 176.608 73.5176L170.842 73.254L170.811 68.4165C170.808 67.9972 170.688 67.5871 170.464 67.2324C170.241 66.8778 169.922 66.5927 169.545 66.4094C169.168 66.2262 168.747 66.152 168.33 66.1953C167.913 66.2386 167.516 66.3976 167.185 66.6545L164.373 68.8393L161.939 64.928C161.717 64.5718 161.401 64.2847 161.024 64.0992C160.648 63.9137 160.227 63.8373 159.81 63.8786C159.393 63.9199 158.995 64.0772 158.662 64.3327C158.33 64.5883 158.075 64.9319 157.928 65.3246L155.684 71.2995L150.459 69.6372C150.06 69.5107 149.633 69.4984 149.226 69.6017C148.82 69.705 148.451 69.9198 148.16 70.2218C147.869 70.5238 147.669 70.9011 147.581 71.311C147.494 71.7209 147.522 72.1471 147.664 72.5416L148.809 75.7428L145.225 76.6333C144.818 76.7342 144.447 76.9471 144.155 77.2477C143.863 77.5484 143.66 77.9249 143.571 78.3347C143.481 78.7444 143.508 79.171 143.649 79.5662C143.789 79.9614 144.037 80.3093 144.365 80.5707L148.994 84.2588L145.322 89.3812C145.076 89.7221 144.93 90.1253 144.901 90.5451C144.872 90.9648 144.962 91.3842 145.16 91.7555C145.358 92.1267 145.656 92.4349 146.021 92.6449C146.386 92.8549 146.802 92.9584 147.222 92.9434L151.433 92.808L151.195 96.147C151.165 96.5654 151.253 96.9839 151.449 97.355C151.644 97.7261 151.94 98.035 152.302 98.2468C152.664 98.4587 153.078 98.5649 153.497 98.5534C153.917 98.542 154.324 98.4134 154.674 98.1822L158.868 95.4156L162.516 100.372C162.765 100.71 163.103 100.971 163.493 101.126C163.883 101.282 164.309 101.325 164.722 101.251C165.135 101.177 165.519 100.988 165.83 100.707C166.142 100.426 166.368 100.063 166.484 99.6593L167.836 94.9786L171.588 96.5008C171.976 96.6587 172.401 96.7046 172.815 96.6334C173.228 96.5623 173.613 96.3768 173.926 96.098C174.24 95.8192 174.469 95.4583 174.588 95.0561C174.707 94.6539 174.71 94.2264 174.599 93.8221L173.288 89.0725L178.275 87.4101C178.673 87.2779 179.027 87.0367 179.295 86.7138C179.563 86.391 179.736 85.9995 179.793 85.5837C179.85 85.1679 179.789 84.7444 179.618 84.3612C179.447 83.978 179.172 83.6505 178.824 83.4157Z" fill="#F3BD37"/>
<path d="M139.623 73.4942L136.811 71.5944L139.172 68.7874C139.376 68.5436 139.509 68.2474 139.555 67.9322C139.6 67.617 139.557 67.2954 139.429 67.0036C139.301 66.7119 139.094 66.4617 138.832 66.2813C138.57 66.1009 138.262 65.9975 137.944 65.9827L133.558 65.769L133.534 62.0928C133.532 61.7743 133.44 61.4627 133.27 61.1933C133.1 60.9238 132.858 60.7073 132.572 60.5683C132.285 60.4292 131.965 60.373 131.649 60.4062C131.332 60.4393 131.031 60.5604 130.779 60.7558L128.642 62.4182L126.792 59.4473C126.623 59.177 126.382 58.9593 126.097 58.8187C125.811 58.678 125.492 58.6201 125.175 58.6515C124.858 58.6829 124.556 58.8023 124.303 58.9962C124.05 59.1901 123.857 59.4508 123.745 59.7489L122.037 64.2871L118.062 63.0237C117.758 62.9274 117.434 62.9178 117.125 62.9962C116.816 63.0746 116.536 63.2377 116.315 63.4672C116.094 63.6967 115.942 63.9834 115.875 64.2949C115.809 64.6064 115.831 64.9303 115.939 65.2299L116.82 67.6688L114.098 68.3457C113.79 68.4224 113.508 68.584 113.286 68.8122C113.064 69.0404 112.911 69.3261 112.842 69.6371C112.774 69.948 112.794 70.2718 112.901 70.5719C113.007 70.8721 113.195 71.1365 113.443 71.3355L116.958 74.1401L114.167 78.0324C113.983 78.2913 113.874 78.5966 113.854 78.9138C113.833 79.2311 113.902 79.5478 114.052 79.8282C114.202 80.1086 114.427 80.3416 114.702 80.5009C114.977 80.6603 115.291 80.7397 115.609 80.7302L118.808 80.6281L118.627 83.162C118.605 83.4797 118.672 83.7975 118.82 84.0792C118.969 84.361 119.193 84.5955 119.468 84.7564C119.743 84.9172 120.058 84.9979 120.376 84.9893C120.695 84.9808 121.004 84.8833 121.27 84.708L124.457 82.6087L127.229 86.3727C127.418 86.6262 127.675 86.8219 127.97 86.9379C128.264 87.054 128.585 87.0858 128.897 87.0299C129.209 86.974 129.499 86.8325 129.735 86.6212C129.97 86.41 130.143 86.1373 130.233 85.8336L131.266 82.2714L134.116 83.428C134.411 83.5474 134.733 83.5819 135.047 83.5276C135.361 83.4733 135.653 83.3324 135.891 83.1207C136.129 82.909 136.303 82.635 136.393 82.3297C136.484 82.0243 136.487 81.6998 136.403 81.3928L135.407 77.7783L139.191 76.5221C139.492 76.4223 139.76 76.2403 139.964 75.9965C140.168 75.7527 140.3 75.4568 140.345 75.1421C140.39 74.8274 140.346 74.5064 140.219 74.2153C140.091 73.9241 139.885 73.6744 139.623 73.4942Z" fill="#F3BD37"/>
<path d="M113.134 97.6505C113.999 94.967 113.745 90.5261 107.447 83.1381C107.208 82.8569 107.038 82.5244 106.949 82.1667C106.861 81.8089 106.855 81.4354 106.935 81.0754C107.014 80.7153 107.175 80.3783 107.405 80.0907C107.636 79.803 107.93 79.5724 108.264 79.4168C108.612 79.2557 108.993 79.1802 109.376 79.1968C109.759 79.2135 110.133 79.3217 110.465 79.5124C110.798 79.7031 111.08 79.9708 111.288 80.293C111.496 80.6152 111.623 80.9825 111.66 81.3642C112.61 90.728 115.956 95.2828 118.967 97.7217C134.878 110.61 171.414 89.0419 195.506 99.1466C197.701 100.068 203.856 102.652 203.925 106.299C203.996 110.225 196.979 113.232 195.813 113.733C179.042 120.921 158.977 108.142 157.695 110.588C156.413 113.034 176.978 123.467 175.204 129.276C174.095 132.909 164.342 134.436 155.969 132.441C139.345 128.48 132.057 111.581 127.276 113.858C124.614 115.124 126.939 120.337 123.686 129.126C123.128 130.634 118.067 144.296 110.13 144.268C104.124 144.249 97.9595 136.39 97.9215 129.292C97.8669 119.489 109.508 113.459 107.869 110.945C106.656 109.083 98.9427 110.344 92.9962 114.891C84.0361 121.745 86.3468 130.506 79.4005 133.439C72.6133 136.288 63.7459 130.762 59.552 126.875C56.4648 124.025 52.7577 120.577 53.3514 117.319C55.446 105.822 108.207 112.982 113.134 97.6505Z" fill="#C4D650"/>
<g clip-path="url(#clip2_329_573)">
<path d="M29.9872 121.812C29.1788 121.403 28.5096 120.765 28.0631 119.978L28.056 119.966C24.5866 113.872 16.377 112.159 10.6521 116.793C7.09805 119.669 5.52398 125.538 7.15494 129.789C7.47811 130.634 7.89706 131.44 8.40368 132.19C9.68897 134.089 10.7734 136.118 11.5848 138.262C11.7339 138.656 11.9033 139.046 12.093 139.43C15.5815 146.497 24.5141 148.929 31.1528 144.62C36.9869 140.833 38.9342 133.126 35.4635 127.03C34.1396 124.704 32.2117 122.937 29.9872 121.812Z" fill="#CE9C2C"/>
<path d="M29.4674 122.827C28.7241 122.451 28.1088 121.865 27.6983 121.141C27.6961 121.138 27.6939 121.134 27.6916 121.13C24.5018 115.527 16.9541 113.952 11.6906 118.212C8.42339 120.857 6.9758 126.253 8.47521 130.161C8.7724 130.938 9.15772 131.679 9.6237 132.369C10.8053 134.115 11.8024 135.98 12.5484 137.952C12.6855 138.314 12.8412 138.672 13.0156 139.026C16.2227 145.523 24.4352 147.758 30.5387 143.797C35.9029 140.315 37.6928 133.229 34.502 127.624C33.2847 125.486 31.5122 123.861 29.4674 122.827Z" fill="#F4BE38"/>
<path d="M11.0029 125.245C11.2749 125.091 11.3704 124.745 11.2162 124.475C11.062 124.204 10.7165 124.11 10.4445 124.265C10.1725 124.42 10.0769 124.765 10.2311 125.035C10.3853 125.306 10.7308 125.4 11.0029 125.245Z" fill="#CE9C2C"/>
<path d="M34.7317 133.188C35.0037 133.033 35.0992 132.688 34.945 132.417C34.7908 132.147 34.4453 132.053 34.1733 132.207C33.9013 132.362 33.8058 132.707 33.96 132.978C34.1142 133.249 34.4597 133.343 34.7317 133.188Z" fill="#CE9C2C"/>
<path d="M34.3133 136.42C34.5853 136.265 34.6808 135.92 34.5266 135.649C34.3724 135.378 34.0269 135.284 33.7549 135.439C33.4829 135.594 33.3874 135.939 33.5416 136.21C33.6958 136.48 34.0413 136.574 34.3133 136.42Z" fill="#CE9C2C"/>
<path d="M33.2264 134.455C33.4984 134.3 33.5939 133.955 33.4397 133.684C33.2855 133.413 32.94 133.319 32.668 133.474C32.396 133.629 32.3005 133.974 32.4547 134.245C32.6089 134.516 32.9544 134.61 33.2264 134.455Z" fill="#CE9C2C"/>
<path d="M33.1179 130.636C33.3899 130.481 33.4855 130.136 33.3313 129.865C33.1771 129.594 32.8316 129.5 32.5596 129.655C32.2875 129.81 32.192 130.155 32.3462 130.426C32.5004 130.697 32.8459 130.791 33.1179 130.636Z" fill="#CE9C2C"/>
<path d="M34.5225 130.703C34.7946 130.549 34.8901 130.203 34.7359 129.933C34.5817 129.662 34.2362 129.568 33.9642 129.723C33.6921 129.878 33.5966 130.223 33.7508 130.493C33.905 130.764 34.2505 130.858 34.5225 130.703Z" fill="#CE9C2C"/>
<path d="M32.7365 132.014C33.0085 131.859 33.104 131.514 32.9498 131.243C32.7956 130.972 32.4501 130.878 32.1781 131.033C31.9061 131.188 31.8106 131.533 31.9647 131.804C32.1189 132.075 32.4644 132.169 32.7365 132.014Z" fill="#CE9C2C"/>
<path d="M32.6935 137.311C32.9656 137.157 33.0611 136.812 32.9069 136.541C32.7527 136.27 32.4072 136.176 32.1352 136.331C31.8631 136.486 31.7676 136.831 31.9218 137.101C32.076 137.372 32.4215 137.466 32.6935 137.311Z" fill="#CE9C2C"/>
<path d="M32.4922 139.93C32.7642 139.775 32.8598 139.43 32.7056 139.159C32.5514 138.888 32.2059 138.794 31.9338 138.949C31.6618 139.104 31.5663 139.449 31.7205 139.72C31.8747 139.99 32.2202 140.084 32.4922 139.93Z" fill="#CE9C2C"/>
<path d="M33.7809 139.164C34.053 139.009 34.1485 138.664 33.9943 138.393C33.8401 138.122 33.4946 138.028 33.2226 138.183C32.9505 138.338 32.855 138.683 33.0092 138.954C33.1634 139.225 33.5089 139.319 33.7809 139.164Z" fill="#CE9C2C"/>
<path d="M31.7574 138.584C32.0294 138.429 32.1249 138.084 31.9707 137.813C31.8165 137.543 31.471 137.449 31.199 137.603C30.927 137.758 30.8315 138.103 30.9857 138.374C31.1398 138.645 31.4854 138.739 31.7574 138.584Z" fill="#CE9C2C"/>
<path d="M30.6611 140.941C30.9331 140.786 31.0287 140.441 30.8745 140.17C30.7203 139.899 30.3748 139.805 30.1027 139.96C29.8307 140.115 29.7352 140.46 29.8894 140.731C30.0436 141.002 30.3891 141.096 30.6611 140.941Z" fill="#CE9C2C"/>
<path d="M29.1286 132.519C29.4007 132.364 29.4962 132.019 29.342 131.748C29.1878 131.477 28.8423 131.383 28.5703 131.538C28.2982 131.693 28.2027 132.038 28.3569 132.309C28.5111 132.58 28.8566 132.674 29.1286 132.519Z" fill="#CE9C2C"/>
<path d="M24.081 122.775C24.353 122.62 24.4486 122.275 24.2944 122.004C24.1402 121.733 23.7947 121.639 23.5226 121.794C23.2506 121.949 23.1551 122.294 23.3093 122.565C23.4635 122.836 23.809 122.93 24.081 122.775Z" fill="#CE9C2C"/>
<path d="M17.2427 136.169C17.5147 136.014 17.6102 135.669 17.4561 135.398C17.3019 135.127 16.9564 135.033 16.6843 135.188C16.4123 135.343 16.3168 135.688 16.471 135.959C16.6252 136.23 16.9707 136.324 17.2427 136.169Z" fill="#CE9C2C"/>
<path d="M22.3362 143.225C22.6082 143.07 22.7037 142.725 22.5495 142.454C22.3953 142.183 22.0498 142.089 21.7778 142.244C21.5058 142.399 21.4103 142.744 21.5645 143.015C21.7187 143.286 22.0642 143.38 22.3362 143.225Z" fill="#CE9C2C"/>
<path d="M30.1475 142.842C30.4195 142.687 30.515 142.342 30.3608 142.071C30.2066 141.8 29.8611 141.706 29.5891 141.861C29.3171 142.016 29.2216 142.361 29.3757 142.632C29.5299 142.903 29.8754 142.997 30.1475 142.842Z" fill="#CE9C2C"/>
<path d="M31.7269 141.91C31.9989 141.756 32.0944 141.411 31.9402 141.14C31.786 140.869 31.4405 140.775 31.1685 140.93C30.8965 141.085 30.801 141.43 30.9551 141.7C31.1093 141.971 31.4548 142.065 31.7269 141.91Z" fill="#CE9C2C"/>
<path d="M13.5604 134.78C15.9813 133.098 16.6494 129.874 15.0527 127.58C13.456 125.285 10.199 124.789 7.77811 126.471C5.35721 128.153 4.68909 131.377 6.28582 133.671C7.88255 135.965 11.1395 136.462 13.5604 134.78Z" fill="#E2E2E2"/>
<path d="M14.2536 133.17C15.9063 132.022 16.3624 129.821 15.2723 128.255C14.1823 126.689 11.9588 126.35 10.3061 127.498C8.6534 128.646 8.19729 130.847 9.28736 132.413C10.3774 133.98 12.6009 134.318 14.2536 133.17Z" fill="black"/>
<path d="M10.4159 128.987C10.2775 128.496 9.45204 128.3 8.5721 128.55C7.69216 128.8 7.091 129.401 7.22938 129.892C7.36776 130.383 8.19327 130.579 9.07321 130.329C9.95315 130.079 10.5543 129.478 10.4159 128.987Z" fill="white"/>
<path d="M27.4402 125.643C29.8611 123.961 30.5544 120.774 28.9887 118.524C27.423 116.274 24.1913 115.814 21.7704 117.496C19.3494 119.178 18.6562 122.365 20.2219 124.615C21.7876 126.865 25.0193 127.325 27.4402 125.643Z" fill="#E2E2E2"/>
<path d="M25.2867 125.514C26.9394 124.365 27.4127 122.189 26.3438 120.653C25.2749 119.117 23.0686 118.803 21.4159 119.951C19.7632 121.1 19.2899 123.276 20.3588 124.812C21.4277 126.348 23.634 126.662 25.2867 125.514Z" fill="black"/>
<path d="M25.0677 120.245C25.5772 119.487 25.6524 118.647 25.2356 118.369C24.8189 118.091 24.068 118.48 23.5585 119.239C23.049 119.997 22.9739 120.837 23.3906 121.115C23.8074 121.393 24.5582 121.003 25.0677 120.245Z" fill="white"/>
</g>
<defs>
<clipPath id="clip0_329_573">
<rect width="31.8806" height="33.7839" fill="white" transform="translate(92.3968 15.4897) rotate(-28.0463)"/>
</clipPath>
<clipPath id="clip1_329_573">
<rect width="30.8305" height="34.5782" fill="white" transform="translate(244.188 158.169) rotate(46.247)"/>
</clipPath>
<clipPath id="clip2_329_573">
<rect width="28.662" height="34.5114" fill="white" transform="translate(0 122.67) rotate(-29.6535)"/>
</clipPath>
</defs>
</svg>
