<svg width="243" height="114" viewBox="0 0 243 114" fill="none" xmlns="http://www.w3.org/2000/svg">
<path d="M78.3967 53.05C84.2967 60.05 87.2467 67.9 87.2467 76.6C87.0467 86.6 83.5967 95 76.8967 101.8C70.2967 108.5 62.2467 111.85 52.7467 111.85H13.2967C6.29668 111.85 2.19668 109.95 0.99668 106.15C0.39668 104.45 0.0966801 101.85 0.0966801 98.35V15.1C0.0966801 12.7 0.14668 10.95 0.24668 9.84999C0.44668 8.74999 0.94668 7.45 1.74668 5.95C3.14668 3.25 7.04668 1.9 13.4467 1.9H51.2467C60.4467 1.9 68.1467 5.1 74.3467 11.5C80.8467 18 84.0967 25.8 84.0967 34.9C84.0967 41.5 82.1967 47.55 78.3967 53.05ZM60.6967 75.1C60.6967 72.7 60.3967 70.8 59.7967 69.4C59.2967 68 58.3967 67 57.0967 66.4C55.0967 65.6 52.2967 65.2 48.6967 65.2C45.0967 65.2 42.3967 64.5 40.5967 63.1C38.7967 61.7 37.8967 58.85 37.8967 54.55C37.8967 50.15 38.7967 47.25 40.5967 45.85C42.4967 44.45 45.5967 43.75 49.8967 43.75C53.8967 43.75 56.2967 42.7 57.0967 40.6C57.3967 39.5 57.5467 37.7 57.5467 35.2C57.5467 32.7 56.6967 30.95 54.9967 29.95C53.3967 28.95 50.9467 28.45 47.6467 28.45H26.6467V85.3H51.2467C57.5467 85.3 60.6967 81.9 60.6967 75.1ZM97.0693 15.25C97.0693 12.95 97.1193 11.25 97.2193 10.15C97.4193 8.94999 97.9193 7.59999 98.7193 6.1C100.119 3.39999 104.019 2.04999 110.419 2.04999C117.419 2.04999 121.569 3.89999 122.869 7.59999C123.369 9.3 123.619 11.9 123.619 15.4V98.8C123.619 101.2 123.519 102.95 123.319 104.05C123.219 105.15 122.769 106.45 121.969 107.95C120.569 110.65 116.669 112 110.269 112C103.269 112 99.1693 110.1 97.9693 106.3C97.3693 104.7 97.0693 102.15 97.0693 98.65V15.25ZM187.195 0.699993C201.995 0.699993 214.845 6.04999 225.745 16.75C236.645 27.45 242.095 40.75 242.095 56.65C242.095 72.45 236.895 85.95 226.495 97.15C216.095 108.25 203.295 113.8 188.095 113.8C172.895 113.8 159.945 108.3 149.245 97.3C138.645 86.3 133.345 73.2 133.345 58C133.345 49.7 134.845 41.95 137.845 34.75C140.845 27.45 144.845 21.35 149.845 16.45C154.845 11.55 160.595 7.69999 167.095 4.89999C173.595 2.09999 180.295 0.699993 187.195 0.699993ZM159.895 57.25C159.895 66.15 162.745 73.4 168.445 79C174.245 84.5 180.695 87.25 187.795 87.25C194.895 87.25 201.295 84.55 206.995 79.15C212.695 73.75 215.545 66.5 215.545 57.4C215.545 48.3 212.645 41 206.845 35.5C201.145 30 194.745 27.25 187.645 27.25C180.545 27.25 174.145 30.05 168.445 35.65C162.745 41.15 159.895 48.35 159.895 57.25Z" fill="#E27B38"/>
</svg>
