<svg width="293" height="63" viewBox="0 0 293 63" fill="none" xmlns="http://www.w3.org/2000/svg">
<rect width="292.552" height="63" rx="31.5" fill="#4AAEAD"/>
<path d="M57.0934 40.13C58.4134 40.65 59.0734 41.24 59.0734 41.9C59.0734 42.3 59.0234 42.6 58.9234 42.8C58.8234 43 58.7634 43.13 58.7434 43.19C58.7234 43.27 58.6734 43.41 58.5934 43.61C58.5134 43.83 58.2934 44.2 57.9334 44.72C57.5934 45.24 57.1934 45.69 56.7334 46.07C56.2934 46.47 55.6634 46.83 54.8434 47.15C54.0234 47.49 53.1134 47.66 52.1134 47.66C49.9934 47.66 48.2634 46.98 46.9234 45.62C45.6034 44.26 44.9434 42.68 44.9434 40.88C44.9434 40.02 45.0934 39.23 45.3934 38.51C45.7134 37.77 46.0934 37.19 46.5334 36.77C47.4134 35.93 48.2334 35.38 48.9934 35.12L49.4734 34.94C49.4734 34.58 49.4834 34.32 49.5034 34.16C49.5434 33.98 49.6334 33.79 49.7734 33.59C49.9334 33.37 50.1834 33.22 50.5234 33.14C50.8834 33.04 51.3534 32.99 51.9334 32.99C52.5134 32.99 52.9734 33.04 53.3134 33.14C53.6534 33.22 53.8934 33.38 54.0334 33.62C54.2334 33.96 54.3334 34.48 54.3334 35.18V35.42C54.3334 36.28 54.0834 36.96 53.5834 37.46C53.1034 37.96 52.5734 38.3 51.9934 38.48C51.4134 38.64 50.8734 38.91 50.3734 39.29C49.8934 39.65 49.6534 40.16 49.6534 40.82C49.6534 41.46 49.8334 41.96 50.1934 42.32C50.5734 42.68 51.1334 42.86 51.8734 42.86C52.6134 42.86 53.1534 42.74 53.4934 42.5C53.8534 42.26 54.0734 42.02 54.1534 41.78L54.2434 41.45C54.4034 40.95 54.6034 40.56 54.8434 40.28C55.0834 40 55.3934 39.86 55.7734 39.86C56.1734 39.86 56.6134 39.95 57.0934 40.13ZM54.5134 29.72C54.3134 30.1 54.0034 30.36 53.5834 30.5C53.1834 30.64 52.5434 30.71 51.6634 30.71C50.8034 30.71 50.1734 30.52 49.7734 30.14C49.3934 29.76 49.2034 29.16 49.2034 28.34V27.86C49.2034 27.38 49.2134 27.03 49.2334 26.81C49.2734 26.57 49.3734 26.29 49.5334 25.97C49.8534 25.39 50.6134 25.1 51.8134 25.1C53.0334 25.1 53.8334 25.3 54.2134 25.7C54.6134 26.1 54.8134 26.85 54.8134 27.95C54.8134 28.73 54.7134 29.32 54.5134 29.72ZM66.0256 35.69H75.2656C75.7256 35.69 76.0656 35.71 76.2856 35.75C76.5256 35.77 76.7956 35.86 77.0956 36.02C77.6356 36.3 77.9056 37.08 77.9056 38.36C77.9056 39.76 77.5356 40.58 76.7956 40.82C76.4556 40.94 75.9356 41 75.2356 41H63.3556C61.9556 41 61.1356 40.62 60.8956 39.86C60.7756 39.54 60.7156 39.03 60.7156 38.33V21.65C60.7156 20.63 60.9056 19.94 61.2856 19.58C61.6656 19.2 62.3856 19.01 63.4456 19.01H75.2656C75.7256 19.01 76.0656 19.03 76.2856 19.07C76.5256 19.09 76.7956 19.18 77.0956 19.34C77.6356 19.62 77.9056 20.4 77.9056 21.68C77.9056 23.08 77.5356 23.9 76.7956 24.14C76.4556 24.26 75.9356 24.32 75.2356 24.32H66.0256V27.35H71.9656C72.4256 27.35 72.7656 27.37 72.9856 27.41C73.2256 27.43 73.4956 27.52 73.7956 27.68C74.3356 27.96 74.6056 28.74 74.6056 30.02C74.6056 31.42 74.2256 32.24 73.4656 32.48C73.1256 32.6 72.6056 32.66 71.9056 32.66H66.0256V35.69ZM85.0065 27.29C85.9465 25.87 87.0765 25.16 88.3965 25.16C90.4365 25.16 91.9565 26.03 92.9565 27.77C93.1765 27.47 93.4365 27.16 93.7365 26.84C94.0565 26.5 94.5565 26.14 95.2365 25.76C95.9165 25.36 96.6165 25.16 97.3365 25.16C98.9365 25.16 100.276 25.78 101.356 27.02C102.436 28.24 102.976 30.27 102.976 33.11V38.36C102.976 38.82 102.956 39.17 102.916 39.41C102.896 39.63 102.806 39.89 102.646 40.19C102.386 40.73 101.616 41 100.336 41C99.0765 41 98.3065 40.72 98.0265 40.16C97.8865 39.86 97.7965 39.6 97.7565 39.38C97.7365 39.14 97.7265 38.79 97.7265 38.33V33.08C97.7265 31.34 97.1065 30.47 95.8665 30.47C95.1665 30.47 94.6865 30.7 94.4265 31.16C94.1865 31.62 94.0665 32.27 94.0665 33.11V38.36C94.0665 38.84 94.0465 39.19 94.0065 39.41C93.9865 39.63 93.8965 39.89 93.7365 40.19C93.4565 40.73 92.6765 41 91.3965 41C90.1365 41 89.3665 40.72 89.0865 40.16C88.9465 39.86 88.8565 39.6 88.8165 39.38C88.7965 39.14 88.7865 38.79 88.7865 38.33V33.08C88.7865 31.34 88.1665 30.47 86.9265 30.47C85.7265 30.47 85.1265 31.34 85.1265 33.08V38.39C85.1265 38.85 85.1065 39.2 85.0665 39.44C85.0465 39.66 84.9565 39.92 84.7965 40.22C84.4965 40.74 83.7165 41 82.4565 41C81.1965 41 80.4265 40.73 80.1465 40.19C80.0065 39.89 79.9165 39.63 79.8765 39.41C79.8565 39.19 79.8465 38.84 79.8465 38.36V27.8C79.8465 27.34 79.8565 27 79.8765 26.78C79.9165 26.54 80.0165 26.28 80.1765 26C80.4765 25.46 81.1865 25.19 82.3065 25.19C83.4265 25.19 84.1565 25.37 84.4965 25.73C84.8365 26.09 85.0065 26.61 85.0065 27.29ZM105.364 45.29V27.77C105.364 27.31 105.374 26.97 105.394 26.75C105.434 26.53 105.524 26.28 105.664 26C105.944 25.46 106.614 25.19 107.674 25.19C108.734 25.19 109.444 25.33 109.804 25.61C110.184 25.87 110.404 26.26 110.464 26.78C111.224 25.74 112.414 25.22 114.034 25.22C115.674 25.22 117.224 25.99 118.684 27.53C120.144 29.07 120.874 30.86 120.874 32.9C120.874 34.94 120.144 36.73 118.684 38.27C117.244 39.81 115.704 40.58 114.064 40.58C112.424 40.58 111.234 40.12 110.494 39.2V45.26C110.494 45.72 110.474 46.06 110.434 46.28C110.414 46.5 110.324 46.75 110.164 47.03C110.024 47.33 109.774 47.54 109.414 47.66C109.054 47.78 108.564 47.84 107.944 47.84C107.324 47.84 106.824 47.78 106.444 47.66C106.084 47.54 105.824 47.34 105.664 47.06C105.524 46.78 105.434 46.53 105.394 46.31C105.374 46.09 105.364 45.75 105.364 45.29ZM111.304 31.16C110.844 31.7 110.614 32.29 110.614 32.93C110.614 33.57 110.844 34.16 111.304 34.7C111.784 35.22 112.384 35.48 113.104 35.48C113.844 35.48 114.464 35.22 114.964 34.7C115.484 34.18 115.744 33.59 115.744 32.93C115.744 32.27 115.504 31.68 115.024 31.16C114.544 30.62 113.914 30.35 113.134 30.35C112.374 30.35 111.764 30.62 111.304 31.16ZM138.065 31.22C138.065 32.44 137.755 33.35 137.135 33.95C136.535 34.53 135.865 34.82 135.125 34.82H128.015C128.015 35.38 128.345 35.85 129.005 36.23C129.665 36.61 130.325 36.8 130.985 36.8C132.145 36.8 133.055 36.68 133.715 36.44L134.045 36.32C134.525 36.1 134.925 35.99 135.245 35.99C135.885 35.99 136.435 36.44 136.895 37.34C137.155 37.88 137.285 38.34 137.285 38.72C137.285 40.5 135.155 41.39 130.895 41.39C129.415 41.39 128.095 41.14 126.935 40.64C125.795 40.12 124.905 39.44 124.265 38.6C123.005 36.98 122.375 35.17 122.375 33.17C122.375 30.65 123.185 28.64 124.805 27.14C126.445 25.62 128.485 24.86 130.925 24.86C133.705 24.86 135.745 25.84 137.045 27.8C137.725 28.84 138.065 29.98 138.065 31.22ZM131.735 32.09C132.495 32.09 132.875 31.77 132.875 31.13C132.875 30.67 132.695 30.3 132.335 30.02C131.995 29.74 131.495 29.6 130.835 29.6C130.195 29.6 129.555 29.87 128.915 30.41C128.275 30.93 127.955 31.49 127.955 32.09H131.735ZM147.912 35.72H153.042C153.842 35.72 154.412 35.82 154.752 36.02C155.112 36.22 155.352 36.51 155.472 36.89C155.592 37.27 155.652 37.77 155.652 38.39C155.652 39.01 155.592 39.51 155.472 39.89C155.352 40.27 155.142 40.54 154.842 40.7C154.542 40.84 154.272 40.93 154.032 40.97C153.812 40.99 153.472 41 153.012 41H142.182C141.482 41 140.872 40.74 140.352 40.22C139.832 39.7 139.572 39.08 139.572 38.36C139.572 37.64 139.832 37.03 140.352 36.53C140.872 36.01 141.672 35.27 142.752 34.31C143.832 33.35 144.812 32.49 145.692 31.73C146.572 30.95 147.052 30.52 147.132 30.44H142.902C141.762 30.44 141.042 30.25 140.742 29.87C140.402 29.43 140.232 28.85 140.232 28.13C140.232 27.41 140.282 26.88 140.382 26.54C140.482 26.18 140.602 25.92 140.742 25.76C140.882 25.58 141.082 25.44 141.342 25.34C141.682 25.24 142.202 25.19 142.902 25.19H152.652C153.352 25.19 153.962 25.44 154.482 25.94C155.002 26.44 155.262 27.07 155.262 27.83C155.262 28.57 154.962 29.23 154.362 29.81C153.762 30.39 151.612 32.36 147.912 35.72ZM167.86 26.87C167.98 25.75 168.77 25.19 170.23 25.19C171.01 25.19 171.59 25.25 171.97 25.37C172.35 25.49 172.61 25.7 172.75 26C172.91 26.3 173 26.57 173.02 26.81C173.06 27.03 173.08 27.37 173.08 27.83V38.33C173.08 38.79 173.06 39.14 173.02 39.38C173 39.6 172.92 39.86 172.78 40.16C172.5 40.68 171.81 40.94 170.71 40.94C169.63 40.94 168.9 40.81 168.52 40.55C168.16 40.27 167.95 39.87 167.89 39.35C167.15 40.41 165.91 40.94 164.17 40.94C162.45 40.94 160.85 40.15 159.37 38.57C157.89 36.99 157.15 35.16 157.15 33.08C157.15 30.98 157.89 29.15 159.37 27.59C160.87 26.01 162.51 25.22 164.29 25.22C164.97 25.22 165.59 25.34 166.15 25.58C166.71 25.82 167.1 26.05 167.32 26.27C167.54 26.47 167.72 26.67 167.86 26.87ZM162.4 33.11C162.4 33.77 162.66 34.37 163.18 34.91C163.7 35.43 164.33 35.69 165.07 35.69C165.81 35.69 166.42 35.42 166.9 34.88C167.4 34.34 167.65 33.75 167.65 33.11C167.65 32.45 167.41 31.84 166.93 31.28C166.47 30.72 165.84 30.44 165.04 30.44C164.26 30.44 163.62 30.72 163.12 31.28C162.64 31.84 162.4 32.45 162.4 33.11ZM180.631 27.29C181.571 25.87 182.701 25.16 184.021 25.16C186.061 25.16 187.581 26.03 188.581 27.77C188.801 27.47 189.061 27.16 189.361 26.84C189.681 26.5 190.181 26.14 190.861 25.76C191.541 25.36 192.241 25.16 192.961 25.16C194.561 25.16 195.901 25.78 196.981 27.02C198.061 28.24 198.601 30.27 198.601 33.11V38.36C198.601 38.82 198.581 39.17 198.541 39.41C198.521 39.63 198.431 39.89 198.271 40.19C198.011 40.73 197.241 41 195.961 41C194.701 41 193.931 40.72 193.651 40.16C193.511 39.86 193.421 39.6 193.381 39.38C193.361 39.14 193.351 38.79 193.351 38.33V33.08C193.351 31.34 192.731 30.47 191.491 30.47C190.791 30.47 190.311 30.7 190.051 31.16C189.811 31.62 189.691 32.27 189.691 33.11V38.36C189.691 38.84 189.671 39.19 189.631 39.41C189.611 39.63 189.521 39.89 189.361 40.19C189.081 40.73 188.301 41 187.021 41C185.761 41 184.991 40.72 184.711 40.16C184.571 39.86 184.481 39.6 184.441 39.38C184.421 39.14 184.411 38.79 184.411 38.33V33.08C184.411 31.34 183.791 30.47 182.551 30.47C181.351 30.47 180.751 31.34 180.751 33.08V38.39C180.751 38.85 180.731 39.2 180.691 39.44C180.671 39.66 180.581 39.92 180.421 40.22C180.121 40.74 179.341 41 178.081 41C176.821 41 176.051 40.73 175.771 40.19C175.631 39.89 175.541 39.63 175.501 39.41C175.481 39.19 175.471 38.84 175.471 38.36V27.8C175.471 27.34 175.481 27 175.501 26.78C175.541 26.54 175.641 26.28 175.801 26C176.101 25.46 176.811 25.19 177.931 25.19C179.051 25.19 179.781 25.37 180.121 25.73C180.461 26.09 180.631 26.61 180.631 27.29ZM200.539 33.11C200.539 30.71 201.379 28.73 203.059 27.17C204.739 25.61 206.659 24.83 208.819 24.83C210.979 24.83 212.889 25.61 214.549 27.17C216.209 28.71 217.039 30.68 217.039 33.08C217.039 34.74 216.609 36.22 215.749 37.52C214.889 38.8 213.839 39.75 212.599 40.37C211.379 40.97 210.109 41.27 208.789 41.27C207.469 41.27 206.189 40.95 204.949 40.31C203.709 39.65 202.659 38.69 201.799 37.43C200.959 36.15 200.539 34.71 200.539 33.11ZM206.809 35.27C207.449 35.75 208.099 35.99 208.759 35.99C209.419 35.99 210.079 35.74 210.739 35.24C211.399 34.74 211.729 34 211.729 33.02C211.729 32.04 211.419 31.31 210.799 30.83C210.179 30.35 209.509 30.11 208.789 30.11C208.069 30.11 207.399 30.36 206.779 30.86C206.159 31.36 205.849 32.1 205.849 33.08C205.849 34.04 206.169 34.77 206.809 35.27ZM219.097 39.59C218.717 39.35 218.527 38.97 218.527 38.45C218.527 37.93 218.907 37.14 219.667 36.08C219.887 35.74 220.237 35.57 220.717 35.57C221.217 35.57 221.887 35.82 222.727 36.32C223.567 36.8 224.327 37.04 225.007 37.04C226.227 37.04 226.837 36.8 226.837 36.32C226.837 35.94 226.167 35.66 224.827 35.48C223.567 35.3 222.317 34.83 221.077 34.07C220.497 33.71 220.017 33.15 219.637 32.39C219.257 31.61 219.067 30.69 219.067 29.63C219.067 26.47 221.237 24.89 225.577 24.89C226.997 24.89 228.457 25.23 229.957 25.91C230.657 26.23 231.007 26.63 231.007 27.11C231.007 27.59 230.787 28.18 230.347 28.88C229.907 29.58 229.457 29.93 228.997 29.93C228.757 29.93 228.307 29.78 227.647 29.48C227.007 29.18 226.307 29.03 225.547 29.03C224.367 29.03 223.777 29.25 223.777 29.69C223.777 30.29 224.457 30.68 225.817 30.86C227.137 31 228.417 31.38 229.657 32C230.237 32.28 230.717 32.77 231.097 33.47C231.497 34.15 231.697 35.01 231.697 36.05C231.697 37.09 231.497 37.98 231.097 38.72C230.717 39.44 230.177 39.98 229.477 40.34C228.197 40.96 226.587 41.27 224.647 41.27C222.727 41.27 220.877 40.71 219.097 39.59ZM237.645 30.95L237.675 30.71C237.675 29.85 237.915 29.17 238.395 28.67C238.895 28.17 239.435 27.84 240.015 27.68C240.595 27.52 241.125 27.25 241.605 26.87C242.105 26.49 242.355 25.98 242.355 25.34C242.355 24.68 242.165 24.17 241.785 23.81C241.425 23.45 240.875 23.27 240.135 23.27C239.395 23.27 238.845 23.39 238.485 23.63C238.145 23.85 237.935 24.08 237.855 24.32L237.765 24.68C237.585 25.2 237.375 25.6 237.135 25.88C236.895 26.14 236.585 26.27 236.205 26.27C235.825 26.27 235.325 26.15 234.705 25.91C233.505 25.45 232.905 24.88 232.905 24.2C232.905 23.9 232.965 23.6 233.085 23.3C233.205 22.98 233.305 22.72 233.385 22.52C233.465 22.3 233.675 21.93 234.015 21.41C234.375 20.89 234.775 20.44 235.215 20.06C235.675 19.66 236.315 19.3 237.135 18.98C237.955 18.64 238.865 18.47 239.865 18.47C241.985 18.47 243.715 19.15 245.055 20.51C246.395 21.87 247.065 23.45 247.065 25.25C247.065 26.11 246.905 26.91 246.585 27.65C246.285 28.37 245.915 28.94 245.475 29.36C244.595 30.2 243.775 30.76 243.015 31.04L242.535 31.19C242.535 31.53 242.515 31.79 242.475 31.97C242.455 32.15 242.365 32.35 242.205 32.57C242.065 32.77 241.815 32.92 241.455 33.02C241.115 33.1 240.655 33.14 240.075 33.14C239.495 33.14 239.025 33.09 238.665 32.99C238.325 32.89 238.085 32.72 237.945 32.48C237.805 32.24 237.715 32.03 237.675 31.85C237.655 31.65 237.645 31.35 237.645 30.95ZM237.525 36.32C237.685 36 237.965 35.77 238.365 35.63C238.785 35.49 239.435 35.42 240.315 35.42C241.195 35.42 241.825 35.62 242.205 36.02C242.605 36.4 242.805 37.15 242.805 38.27C242.805 39.07 242.705 39.67 242.505 40.07C242.305 40.45 241.995 40.71 241.575 40.85C241.175 40.97 240.545 41.03 239.685 41.03C238.825 41.03 238.165 40.82 237.705 40.4C237.365 40.06 237.195 39.48 237.195 38.66V38.18C237.195 37.72 237.205 37.37 237.225 37.13C237.265 36.89 237.365 36.62 237.525 36.32Z" fill="white"/>
</svg>
