<svg width="216" height="41" viewBox="0 0 216 41" fill="none" xmlns="http://www.w3.org/2000/svg">
<rect y="0.5" width="216" height="40" rx="20" fill="#4AAEAD"/>
<path d="M60.5831 25.036C61.2871 25.3133 61.6391 25.628 61.6391 25.98C61.6391 26.1933 61.6125 26.3533 61.5591 26.46C61.5058 26.5667 61.4738 26.636 61.4631 26.668C61.4525 26.7107 61.4258 26.7853 61.3831 26.892C61.3405 27.0093 61.2231 27.2067 61.0311 27.484C60.8498 27.7613 60.6365 28.0013 60.3911 28.204C60.1565 28.4173 59.8205 28.6093 59.3831 28.78C58.9458 28.9613 58.4605 29.052 57.9271 29.052C56.7965 29.052 55.8738 28.6893 55.1591 27.964C54.4551 27.2387 54.1031 26.396 54.1031 25.436C54.1031 24.9773 54.1831 24.556 54.3431 24.172C54.5138 23.7773 54.7165 23.468 54.9511 23.244C55.4205 22.796 55.8578 22.5027 56.2631 22.364L56.5191 22.268C56.5191 22.076 56.5245 21.9373 56.5351 21.852C56.5565 21.756 56.6045 21.6547 56.6791 21.548C56.7645 21.4307 56.8978 21.3507 57.0791 21.308C57.2711 21.2547 57.5218 21.228 57.8311 21.228C58.1405 21.228 58.3858 21.2547 58.5671 21.308C58.7485 21.3507 58.8765 21.436 58.9511 21.564C59.0578 21.7453 59.1111 22.0227 59.1111 22.396V22.524C59.1111 22.9827 58.9778 23.3453 58.7111 23.612C58.4551 23.8787 58.1725 24.06 57.8631 24.156C57.5538 24.2413 57.2658 24.3853 56.9991 24.588C56.7431 24.78 56.6151 25.052 56.6151 25.404C56.6151 25.7453 56.7111 26.012 56.9031 26.204C57.1058 26.396 57.4045 26.492 57.7991 26.492C58.1938 26.492 58.4818 26.428 58.6631 26.3C58.8551 26.172 58.9725 26.044 59.0151 25.916L59.0631 25.74C59.1485 25.4733 59.2551 25.2653 59.3831 25.116C59.5111 24.9667 59.6765 24.892 59.8791 24.892C60.0925 24.892 60.3271 24.94 60.5831 25.036ZM59.2071 19.484C59.1005 19.6867 58.9351 19.8253 58.7111 19.9C58.4978 19.9747 58.1565 20.012 57.6871 20.012C57.2285 20.012 56.8925 19.9107 56.6791 19.708C56.4765 19.5053 56.3751 19.1853 56.3751 18.748V18.492C56.3751 18.236 56.3805 18.0493 56.3911 17.932C56.4125 17.804 56.4658 17.6547 56.5511 17.484C56.7218 17.1747 57.1271 17.02 57.7671 17.02C58.4178 17.02 58.8445 17.1267 59.0471 17.34C59.2605 17.5533 59.3671 17.9533 59.3671 18.54C59.3671 18.956 59.3138 19.2707 59.2071 19.484ZM65.347 22.668H70.275C70.5203 22.668 70.7017 22.6787 70.819 22.7C70.947 22.7107 71.091 22.7587 71.251 22.844C71.539 22.9933 71.683 23.4093 71.683 24.092C71.683 24.8387 71.4857 25.276 71.091 25.404C70.9097 25.468 70.6323 25.5 70.259 25.5H63.923C63.1763 25.5 62.739 25.2973 62.611 24.892C62.547 24.7213 62.515 24.4493 62.515 24.076V15.18C62.515 14.636 62.6163 14.268 62.819 14.076C63.0217 13.8733 63.4057 13.772 63.971 13.772H70.275C70.5203 13.772 70.7017 13.7827 70.819 13.804C70.947 13.8147 71.091 13.8627 71.251 13.948C71.539 14.0973 71.683 14.5133 71.683 15.196C71.683 15.9427 71.4857 16.38 71.091 16.508C70.9097 16.572 70.6323 16.604 70.259 16.604H65.347V18.22H68.515C68.7603 18.22 68.9417 18.2307 69.059 18.252C69.187 18.2627 69.331 18.3107 69.491 18.396C69.779 18.5453 69.923 18.9613 69.923 19.644C69.923 20.3907 69.7203 20.828 69.315 20.956C69.1337 21.02 68.8563 21.052 68.483 21.052H65.347V22.668ZM75.4701 18.188C75.9715 17.4307 76.5741 17.052 77.2781 17.052C78.3661 17.052 79.1768 17.516 79.7101 18.444C79.8275 18.284 79.9661 18.1187 80.1261 17.948C80.2968 17.7667 80.5635 17.5747 80.9261 17.372C81.2888 17.1587 81.6621 17.052 82.0461 17.052C82.8995 17.052 83.6141 17.3827 84.1901 18.044C84.7661 18.6947 85.0541 19.7773 85.0541 21.292V24.092C85.0541 24.3373 85.0435 24.524 85.0221 24.652C85.0115 24.7693 84.9635 24.908 84.8781 25.068C84.7395 25.356 84.3288 25.5 83.6461 25.5C82.9741 25.5 82.5635 25.3507 82.4141 25.052C82.3395 24.892 82.2915 24.7533 82.2701 24.636C82.2595 24.508 82.2541 24.3213 82.2541 24.076V21.276C82.2541 20.348 81.9235 19.884 81.2621 19.884C80.8888 19.884 80.6328 20.0067 80.4941 20.252C80.3661 20.4973 80.3021 20.844 80.3021 21.292V24.092C80.3021 24.348 80.2915 24.5347 80.2701 24.652C80.2595 24.7693 80.2115 24.908 80.1261 25.068C79.9768 25.356 79.5608 25.5 78.8781 25.5C78.2061 25.5 77.7955 25.3507 77.6461 25.052C77.5715 24.892 77.5235 24.7533 77.5021 24.636C77.4915 24.508 77.4861 24.3213 77.4861 24.076V21.276C77.4861 20.348 77.1555 19.884 76.4941 19.884C75.8541 19.884 75.5341 20.348 75.5341 21.276V24.108C75.5341 24.3533 75.5235 24.54 75.5021 24.668C75.4915 24.7853 75.4435 24.924 75.3581 25.084C75.1981 25.3613 74.7821 25.5 74.1101 25.5C73.4381 25.5 73.0275 25.356 72.8781 25.068C72.8035 24.908 72.7555 24.7693 72.7341 24.652C72.7235 24.5347 72.7181 24.348 72.7181 24.092V18.46C72.7181 18.2147 72.7235 18.0333 72.7341 17.916C72.7555 17.788 72.8088 17.6493 72.8941 17.5C73.0541 17.212 73.4328 17.068 74.0301 17.068C74.6275 17.068 75.0168 17.164 75.1981 17.356C75.3795 17.548 75.4701 17.8253 75.4701 18.188ZM86.3275 27.788V18.444C86.3275 18.1987 86.3328 18.0173 86.3435 17.9C86.3648 17.7827 86.4128 17.6493 86.4875 17.5C86.6368 17.212 86.9942 17.068 87.5595 17.068C88.1248 17.068 88.5035 17.1427 88.6955 17.292C88.8982 17.4307 89.0155 17.6387 89.0475 17.916C89.4528 17.3613 90.0875 17.084 90.9515 17.084C91.8262 17.084 92.6528 17.4947 93.4315 18.316C94.2102 19.1373 94.5995 20.092 94.5995 21.18C94.5995 22.268 94.2102 23.2227 93.4315 24.044C92.6635 24.8653 91.8422 25.276 90.9675 25.276C90.0928 25.276 89.4582 25.0307 89.0635 24.54V27.772C89.0635 28.0173 89.0528 28.1987 89.0315 28.316C89.0208 28.4333 88.9728 28.5667 88.8875 28.716C88.8128 28.876 88.6795 28.988 88.4875 29.052C88.2955 29.116 88.0342 29.148 87.7035 29.148C87.3728 29.148 87.1062 29.116 86.9035 29.052C86.7115 28.988 86.5728 28.8813 86.4875 28.732C86.4128 28.5827 86.3648 28.4493 86.3435 28.332C86.3328 28.2147 86.3275 28.0333 86.3275 27.788ZM89.4955 20.252C89.2502 20.54 89.1275 20.8547 89.1275 21.196C89.1275 21.5373 89.2502 21.852 89.4955 22.14C89.7515 22.4173 90.0715 22.556 90.4555 22.556C90.8502 22.556 91.1808 22.4173 91.4475 22.14C91.7248 21.8627 91.8635 21.548 91.8635 21.196C91.8635 20.844 91.7355 20.5293 91.4795 20.252C91.2235 19.964 90.8875 19.82 90.4715 19.82C90.0662 19.82 89.7408 19.964 89.4955 20.252ZM103.768 20.284C103.768 20.9347 103.603 21.42 103.272 21.74C102.952 22.0493 102.595 22.204 102.2 22.204H98.408C98.408 22.5027 98.584 22.7533 98.936 22.956C99.288 23.1587 99.64 23.26 99.992 23.26C100.611 23.26 101.096 23.196 101.448 23.068L101.624 23.004C101.88 22.8867 102.093 22.828 102.264 22.828C102.605 22.828 102.899 23.068 103.144 23.548C103.283 23.836 103.352 24.0813 103.352 24.284C103.352 25.2333 102.216 25.708 99.944 25.708C99.1547 25.708 98.4507 25.5747 97.832 25.308C97.224 25.0307 96.7493 24.668 96.408 24.22C95.736 23.356 95.4 22.3907 95.4 21.324C95.4 19.98 95.832 18.908 96.696 18.108C97.5707 17.2973 98.6587 16.892 99.96 16.892C101.443 16.892 102.531 17.4147 103.224 18.46C103.587 19.0147 103.768 19.6227 103.768 20.284ZM100.392 20.748C100.797 20.748 101 20.5773 101 20.236C101 19.9907 100.904 19.7933 100.712 19.644C100.531 19.4947 100.264 19.42 99.912 19.42C99.5707 19.42 99.2293 19.564 98.888 19.852C98.5467 20.1293 98.376 20.428 98.376 20.748H100.392ZM109.02 22.684H111.756C112.183 22.684 112.487 22.7373 112.668 22.844C112.86 22.9507 112.988 23.1053 113.052 23.308C113.116 23.5107 113.148 23.7773 113.148 24.108C113.148 24.4387 113.116 24.7053 113.052 24.908C112.988 25.1107 112.876 25.2547 112.716 25.34C112.556 25.4147 112.412 25.4627 112.284 25.484C112.167 25.4947 111.985 25.5 111.74 25.5H105.964C105.591 25.5 105.265 25.3613 104.988 25.084C104.711 24.8067 104.572 24.476 104.572 24.092C104.572 23.708 104.711 23.3827 104.988 23.116C105.265 22.8387 105.692 22.444 106.268 21.932C106.844 21.42 107.367 20.9613 107.836 20.556C108.305 20.14 108.561 19.9107 108.604 19.868H106.348C105.74 19.868 105.356 19.7667 105.196 19.564C105.015 19.3293 104.924 19.02 104.924 18.636C104.924 18.252 104.951 17.9693 105.004 17.788C105.057 17.596 105.121 17.4573 105.196 17.372C105.271 17.276 105.377 17.2013 105.516 17.148C105.697 17.0947 105.975 17.068 106.348 17.068H111.548C111.921 17.068 112.247 17.2013 112.524 17.468C112.801 17.7347 112.94 18.0707 112.94 18.476C112.94 18.8707 112.78 19.2227 112.46 19.532C112.14 19.8413 110.993 20.892 109.02 22.684ZM119.659 17.964C119.723 17.3667 120.144 17.068 120.923 17.068C121.339 17.068 121.648 17.1 121.851 17.164C122.054 17.228 122.192 17.34 122.267 17.5C122.352 17.66 122.4 17.804 122.411 17.932C122.432 18.0493 122.443 18.2307 122.443 18.476V24.076C122.443 24.3213 122.432 24.508 122.411 24.636C122.4 24.7533 122.358 24.892 122.283 25.052C122.134 25.3293 121.766 25.468 121.179 25.468C120.603 25.468 120.214 25.3987 120.011 25.26C119.819 25.1107 119.707 24.8973 119.675 24.62C119.28 25.1853 118.619 25.468 117.691 25.468C116.774 25.468 115.92 25.0467 115.131 24.204C114.342 23.3613 113.947 22.3853 113.947 21.276C113.947 20.156 114.342 19.18 115.131 18.348C115.931 17.5053 116.806 17.084 117.755 17.084C118.118 17.084 118.448 17.148 118.747 17.276C119.046 17.404 119.254 17.5267 119.371 17.644C119.488 17.7507 119.584 17.8573 119.659 17.964ZM116.747 21.292C116.747 21.644 116.886 21.964 117.163 22.252C117.44 22.5293 117.776 22.668 118.171 22.668C118.566 22.668 118.891 22.524 119.147 22.236C119.414 21.948 119.547 21.6333 119.547 21.292C119.547 20.94 119.419 20.6147 119.163 20.316C118.918 20.0173 118.582 19.868 118.155 19.868C117.739 19.868 117.398 20.0173 117.131 20.316C116.875 20.6147 116.747 20.94 116.747 21.292ZM126.47 18.188C126.971 17.4307 127.574 17.052 128.278 17.052C129.366 17.052 130.177 17.516 130.71 18.444C130.827 18.284 130.966 18.1187 131.126 17.948C131.297 17.7667 131.563 17.5747 131.926 17.372C132.289 17.1587 132.662 17.052 133.046 17.052C133.899 17.052 134.614 17.3827 135.19 18.044C135.766 18.6947 136.054 19.7773 136.054 21.292V24.092C136.054 24.3373 136.043 24.524 136.022 24.652C136.011 24.7693 135.963 24.908 135.878 25.068C135.739 25.356 135.329 25.5 134.646 25.5C133.974 25.5 133.563 25.3507 133.414 25.052C133.339 24.892 133.291 24.7533 133.27 24.636C133.259 24.508 133.254 24.3213 133.254 24.076V21.276C133.254 20.348 132.923 19.884 132.262 19.884C131.889 19.884 131.633 20.0067 131.494 20.252C131.366 20.4973 131.302 20.844 131.302 21.292V24.092C131.302 24.348 131.291 24.5347 131.27 24.652C131.259 24.7693 131.211 24.908 131.126 25.068C130.977 25.356 130.561 25.5 129.878 25.5C129.206 25.5 128.795 25.3507 128.646 25.052C128.571 24.892 128.523 24.7533 128.502 24.636C128.491 24.508 128.486 24.3213 128.486 24.076V21.276C128.486 20.348 128.155 19.884 127.494 19.884C126.854 19.884 126.534 20.348 126.534 21.276V24.108C126.534 24.3533 126.523 24.54 126.502 24.668C126.491 24.7853 126.443 24.924 126.358 25.084C126.198 25.3613 125.782 25.5 125.11 25.5C124.438 25.5 124.027 25.356 123.878 25.068C123.803 24.908 123.755 24.7693 123.734 24.652C123.723 24.5347 123.718 24.348 123.718 24.092V18.46C123.718 18.2147 123.723 18.0333 123.734 17.916C123.755 17.788 123.809 17.6493 123.894 17.5C124.054 17.212 124.433 17.068 125.03 17.068C125.627 17.068 126.017 17.164 126.198 17.356C126.379 17.548 126.47 17.8253 126.47 18.188ZM137.088 21.292C137.088 20.012 137.536 18.956 138.432 18.124C139.328 17.292 140.352 16.876 141.504 16.876C142.656 16.876 143.674 17.292 144.56 18.124C145.445 18.9453 145.888 19.996 145.888 21.276C145.888 22.1613 145.658 22.9507 145.2 23.644C144.741 24.3267 144.181 24.8333 143.52 25.164C142.869 25.484 142.192 25.644 141.488 25.644C140.784 25.644 140.101 25.4733 139.44 25.132C138.778 24.78 138.218 24.268 137.76 23.596C137.312 22.9133 137.088 22.1453 137.088 21.292ZM140.432 22.444C140.773 22.7 141.12 22.828 141.472 22.828C141.824 22.828 142.176 22.6947 142.528 22.428C142.88 22.1613 143.056 21.7667 143.056 21.244C143.056 20.7213 142.89 20.332 142.56 20.076C142.229 19.82 141.872 19.692 141.488 19.692C141.104 19.692 140.746 19.8253 140.416 20.092C140.085 20.3587 139.92 20.7533 139.92 21.276C139.92 21.788 140.09 22.1773 140.432 22.444ZM146.985 24.748C146.783 24.62 146.681 24.4173 146.681 24.14C146.681 23.8627 146.884 23.4413 147.289 22.876C147.407 22.6947 147.593 22.604 147.849 22.604C148.116 22.604 148.473 22.7373 148.921 23.004C149.369 23.26 149.775 23.388 150.137 23.388C150.788 23.388 151.113 23.26 151.113 23.004C151.113 22.8013 150.756 22.652 150.041 22.556C149.369 22.46 148.703 22.2093 148.041 21.804C147.732 21.612 147.476 21.3133 147.273 20.908C147.071 20.492 146.969 20.0013 146.969 19.436C146.969 17.7507 148.127 16.908 150.441 16.908C151.199 16.908 151.977 17.0893 152.777 17.452C153.151 17.6227 153.337 17.836 153.337 18.092C153.337 18.348 153.22 18.6627 152.985 19.036C152.751 19.4093 152.511 19.596 152.265 19.596C152.137 19.596 151.897 19.516 151.545 19.356C151.204 19.196 150.831 19.116 150.425 19.116C149.796 19.116 149.481 19.2333 149.481 19.468C149.481 19.788 149.844 19.996 150.569 20.092C151.273 20.1667 151.956 20.3693 152.617 20.7C152.927 20.8493 153.183 21.1107 153.385 21.484C153.599 21.8467 153.705 22.3053 153.705 22.86C153.705 23.4147 153.599 23.8893 153.385 24.284C153.183 24.668 152.895 24.956 152.521 25.148C151.839 25.4787 150.98 25.644 149.945 25.644C148.921 25.644 147.935 25.3453 146.985 24.748ZM156.877 20.14L156.893 20.012C156.893 19.5533 157.021 19.1907 157.277 18.924C157.544 18.6573 157.832 18.4813 158.141 18.396C158.451 18.3107 158.733 18.1667 158.989 17.964C159.256 17.7613 159.389 17.4893 159.389 17.148C159.389 16.796 159.288 16.524 159.085 16.332C158.893 16.14 158.6 16.044 158.205 16.044C157.811 16.044 157.517 16.108 157.325 16.236C157.144 16.3533 157.032 16.476 156.989 16.604L156.941 16.796C156.845 17.0733 156.733 17.2867 156.605 17.436C156.477 17.5747 156.312 17.644 156.109 17.644C155.907 17.644 155.64 17.58 155.309 17.452C154.669 17.2067 154.349 16.9027 154.349 16.54C154.349 16.38 154.381 16.22 154.445 16.06C154.509 15.8893 154.563 15.7507 154.605 15.644C154.648 15.5267 154.76 15.3293 154.941 15.052C155.133 14.7747 155.347 14.5347 155.581 14.332C155.827 14.1187 156.168 13.9267 156.605 13.756C157.043 13.5747 157.528 13.484 158.061 13.484C159.192 13.484 160.115 13.8467 160.829 14.572C161.544 15.2973 161.901 16.14 161.901 17.1C161.901 17.5587 161.816 17.9853 161.645 18.38C161.485 18.764 161.288 19.068 161.053 19.292C160.584 19.74 160.147 20.0387 159.741 20.188L159.485 20.268C159.485 20.4493 159.475 20.588 159.453 20.684C159.443 20.78 159.395 20.8867 159.309 21.004C159.235 21.1107 159.101 21.1907 158.909 21.244C158.728 21.2867 158.483 21.308 158.173 21.308C157.864 21.308 157.613 21.2813 157.421 21.228C157.24 21.1747 157.112 21.084 157.037 20.956C156.963 20.828 156.915 20.716 156.893 20.62C156.883 20.5133 156.877 20.3533 156.877 20.14ZM156.813 23.004C156.899 22.8333 157.048 22.7107 157.261 22.636C157.485 22.5613 157.832 22.524 158.301 22.524C158.771 22.524 159.107 22.6307 159.309 22.844C159.523 23.0467 159.629 23.4467 159.629 24.044C159.629 24.4707 159.576 24.7907 159.469 25.004C159.363 25.2067 159.197 25.3453 158.973 25.42C158.76 25.484 158.424 25.516 157.965 25.516C157.507 25.516 157.155 25.404 156.909 25.18C156.728 24.9987 156.637 24.6893 156.637 24.252V23.996C156.637 23.7507 156.643 23.564 156.653 23.436C156.675 23.308 156.728 23.164 156.813 23.004Z" fill="white"/>
</svg>
