<svg width="357" height="256" viewBox="0 0 357 256" fill="none" xmlns="http://www.w3.org/2000/svg">
<g filter="url(#filter0_d_1226_98)">
<path d="M24 36C24 24.9543 32.9543 16 44 16H313C324.046 16 333 24.9543 333 36V200C333 211.046 324.046 220 313 220H44C32.9543 220 24 211.046 24 200V36Z" fill="white"/>
</g>
<path d="M93.8429 127.224C92.9796 127.224 92.1769 127.072 91.4349 126.769C90.6929 126.466 90.0443 126.043 89.4889 125.502C88.9383 124.956 88.5089 124.319 88.2009 123.591C87.8929 122.863 87.7389 122.077 87.7389 121.232C87.7389 120.387 87.8929 119.601 88.2009 118.873C88.5089 118.145 88.9383 117.51 89.4889 116.969C90.0443 116.423 90.6906 115.998 91.4279 115.695C92.1699 115.392 92.9749 115.24 93.8429 115.24C94.5663 115.24 95.2453 115.347 95.8799 115.562C96.5146 115.772 97.0746 116.061 97.5599 116.43L97.0559 117.319C96.6453 116.988 96.1693 116.733 95.6279 116.556C95.0866 116.379 94.5126 116.29 93.9059 116.29C93.1733 116.29 92.5013 116.416 91.8899 116.668C91.2833 116.92 90.7559 117.27 90.3079 117.718C89.8599 118.166 89.5123 118.691 89.2649 119.293C89.0223 119.895 88.9009 120.541 88.9009 121.232C88.9009 121.923 89.0223 122.569 89.2649 123.171C89.5123 123.773 89.8599 124.298 90.3079 124.746C90.7559 125.194 91.2833 125.544 91.8899 125.796C92.5013 126.048 93.1733 126.174 93.9059 126.174C94.5126 126.174 95.0866 126.085 95.6279 125.908C96.1693 125.731 96.6453 125.476 97.0559 125.145L97.5599 126.034C97.0793 126.398 96.5216 126.687 95.8869 126.902C95.2569 127.117 94.5756 127.224 93.8429 127.224ZM103.1 127.224C102.353 127.224 101.679 127.063 101.077 126.741C100.48 126.419 100.006 125.971 99.6559 125.397C99.3059 124.823 99.1309 124.163 99.1309 123.416C99.1309 122.665 99.3059 122.004 99.6559 121.435C100.006 120.861 100.48 120.413 101.077 120.091C101.674 119.769 102.349 119.608 103.1 119.608C103.847 119.608 104.519 119.769 105.116 120.091C105.718 120.413 106.194 120.861 106.544 121.435C106.894 122.004 107.069 122.665 107.069 123.416C107.069 124.163 106.894 124.823 106.544 125.397C106.194 125.971 105.718 126.419 105.116 126.741C104.519 127.063 103.847 127.224 103.1 127.224ZM103.1 126.314C103.66 126.314 104.159 126.19 104.598 125.943C105.037 125.696 105.382 125.355 105.634 124.921C105.886 124.482 106.012 123.981 106.012 123.416C106.012 122.851 105.886 122.352 105.634 121.918C105.382 121.479 105.037 121.136 104.598 120.889C104.159 120.642 103.66 120.518 103.1 120.518C102.54 120.518 102.041 120.642 101.602 120.889C101.163 121.136 100.818 121.479 100.566 121.918C100.314 122.352 100.188 122.851 100.188 123.416C100.188 123.976 100.314 124.475 100.566 124.914C100.818 125.353 101.163 125.696 101.602 125.943C102.041 126.19 102.54 126.314 103.1 126.314ZM109.507 127V119.832H110.529V120.812C110.725 120.476 111.028 120.191 111.439 119.958C111.85 119.725 112.351 119.608 112.944 119.608C113.499 119.608 113.978 119.722 114.379 119.951C114.78 120.18 115.088 120.513 115.303 120.952C115.518 121.386 115.625 121.911 115.625 122.527V127H114.603V122.723C114.603 121.981 114.43 121.416 114.085 121.029C113.74 120.637 113.252 120.441 112.622 120.441C112.183 120.441 111.808 120.53 111.495 120.707C111.187 120.88 110.949 121.111 110.781 121.4C110.613 121.685 110.529 121.995 110.529 122.331V127H109.507ZM124.997 127.224C123.909 127.224 123.132 126.979 122.666 126.489C122.199 125.999 121.966 125.18 121.966 124.032V119.832H122.988V123.85C122.988 124.755 123.142 125.402 123.45 125.789C123.758 126.172 124.273 126.363 124.997 126.363C125.725 126.363 126.24 126.172 126.544 125.789C126.852 125.402 127.006 124.755 127.006 123.85V119.832H128.028V124.032C128.028 125.18 127.794 125.999 127.328 126.489C126.866 126.979 126.089 127.224 124.997 127.224ZM130.917 127V119.832H131.939V120.812C132.135 120.476 132.438 120.191 132.849 119.958C133.26 119.725 133.761 119.608 134.354 119.608C134.909 119.608 135.388 119.722 135.789 119.951C136.19 120.18 136.498 120.513 136.713 120.952C136.928 121.386 137.035 121.911 137.035 122.527V127H136.013V122.723C136.013 121.981 135.84 121.416 135.495 121.029C135.15 120.637 134.662 120.441 134.032 120.441C133.593 120.441 133.218 120.53 132.905 120.707C132.597 120.88 132.359 121.111 132.191 121.4C132.023 121.685 131.939 121.995 131.939 122.331V127H130.917ZM142.972 127.224C142.3 127.224 141.694 127.061 141.152 126.734C140.616 126.403 140.189 125.95 139.871 125.376C139.559 124.802 139.402 124.146 139.402 123.409C139.402 122.681 139.556 122.032 139.864 121.463C140.177 120.889 140.602 120.436 141.138 120.105C141.68 119.774 142.291 119.608 142.972 119.608C143.621 119.608 144.209 119.76 144.736 120.063C145.264 120.366 145.665 120.786 145.94 121.323V119.832H146.962V127H145.94V125.488C145.632 126.029 145.219 126.454 144.701 126.762C144.183 127.07 143.607 127.224 142.972 127.224ZM143.224 126.335C143.761 126.335 144.235 126.211 144.645 125.964C145.061 125.712 145.387 125.367 145.625 124.928C145.863 124.485 145.982 123.981 145.982 123.416C145.982 122.847 145.863 122.343 145.625 121.904C145.392 121.465 145.068 121.122 144.652 120.875C144.237 120.623 143.761 120.497 143.224 120.497C142.688 120.497 142.212 120.623 141.796 120.875C141.381 121.122 141.054 121.465 140.816 121.904C140.578 122.343 140.459 122.847 140.459 123.416C140.459 123.981 140.578 124.485 140.816 124.928C141.054 125.367 141.381 125.712 141.796 125.964C142.212 126.211 142.688 126.335 143.224 126.335ZM153.564 127V119.832H154.586V127H153.564ZM154.082 118.397C153.956 118.397 153.842 118.367 153.739 118.306C153.641 118.245 153.562 118.164 153.501 118.061C153.441 117.958 153.41 117.846 153.41 117.725C153.41 117.604 153.441 117.494 153.501 117.396C153.562 117.293 153.641 117.212 153.739 117.151C153.842 117.09 153.956 117.06 154.082 117.06C154.204 117.06 154.313 117.09 154.411 117.151C154.509 117.212 154.589 117.291 154.649 117.389C154.715 117.487 154.747 117.599 154.747 117.725C154.747 117.846 154.715 117.958 154.649 118.061C154.589 118.164 154.509 118.245 154.411 118.306C154.313 118.367 154.204 118.397 154.082 118.397ZM157.605 127V119.832H158.627V120.812C158.911 120.415 159.252 120.117 159.649 119.916C160.045 119.711 160.489 119.608 160.979 119.608C161.567 119.608 162.078 119.743 162.512 120.014C162.95 120.285 163.254 120.653 163.422 121.12C163.697 120.663 164.047 120.296 164.472 120.021C164.901 119.746 165.41 119.608 165.998 119.608C166.506 119.608 166.959 119.713 167.356 119.923C167.752 120.128 168.063 120.432 168.287 120.833C168.515 121.23 168.63 121.715 168.63 122.289V127H167.608V122.576C167.608 121.923 167.437 121.405 167.097 121.022C166.756 120.639 166.301 120.448 165.732 120.448C165.34 120.448 164.985 120.534 164.668 120.707C164.35 120.88 164.098 121.104 163.912 121.379C163.725 121.65 163.632 121.93 163.632 122.219V127H162.61V122.471C162.61 121.85 162.439 121.358 162.099 120.994C161.763 120.63 161.317 120.448 160.762 120.448C160.37 120.448 160.01 120.532 159.684 120.7C159.362 120.863 159.105 121.076 158.914 121.337C158.722 121.598 158.627 121.867 158.627 122.142V127H157.605ZM174.582 127.224C173.91 127.224 173.303 127.061 172.762 126.734C172.225 126.403 171.798 125.95 171.481 125.376C171.168 124.802 171.012 124.146 171.012 123.409C171.012 122.681 171.166 122.032 171.474 121.463C171.786 120.889 172.211 120.436 172.748 120.105C173.289 119.774 173.9 119.608 174.582 119.608C175.23 119.608 175.818 119.76 176.346 120.063C176.873 120.366 177.274 120.786 177.55 121.323V119.832H178.572V127H177.55V125.488C177.242 126.029 176.829 126.454 176.311 126.762C175.793 127.07 175.216 127.224 174.582 127.224ZM174.834 126.335C175.37 126.335 175.844 126.211 176.255 125.964C176.67 125.712 176.997 125.367 177.235 124.928C177.473 124.485 177.592 123.981 177.592 123.416C177.592 122.847 177.473 122.343 177.235 121.904C177.001 121.465 176.677 121.122 176.262 120.875C175.846 120.623 175.37 120.497 174.834 120.497C174.297 120.497 173.821 120.623 173.406 120.875C172.99 121.122 172.664 121.465 172.426 121.904C172.188 122.343 172.069 122.847 172.069 123.416C172.069 123.981 172.188 124.485 172.426 124.928C172.664 125.367 172.99 125.712 173.406 125.964C173.821 126.211 174.297 126.335 174.834 126.335ZM184.749 130.85C183.844 130.85 183.078 130.673 182.453 130.318C181.828 129.963 181.363 129.445 181.06 128.764L181.921 128.365C182.14 128.86 182.504 129.252 183.013 129.541C183.522 129.835 184.1 129.982 184.749 129.982C185.295 129.982 185.783 129.872 186.212 129.653C186.646 129.438 186.987 129.126 187.234 128.715C187.486 128.304 187.612 127.812 187.612 127.238V125.488C187.313 126.029 186.903 126.454 186.38 126.762C185.862 127.07 185.283 127.224 184.644 127.224C183.977 127.224 183.372 127.061 182.831 126.734C182.294 126.407 181.867 125.957 181.55 125.383C181.237 124.809 181.081 124.153 181.081 123.416C181.081 122.683 181.237 122.032 181.55 121.463C181.863 120.889 182.287 120.436 182.824 120.105C183.365 119.774 183.979 119.608 184.665 119.608C185.3 119.608 185.876 119.76 186.394 120.063C186.917 120.366 187.323 120.786 187.612 121.323V119.832H188.634V127.196C188.634 127.989 188.478 128.657 188.165 129.198C187.852 129.744 187.404 130.155 186.821 130.43C186.242 130.71 185.552 130.85 184.749 130.85ZM184.889 126.335C185.43 126.335 185.909 126.211 186.324 125.964C186.739 125.712 187.066 125.367 187.304 124.928C187.542 124.485 187.661 123.983 187.661 123.423C187.661 122.854 187.542 122.35 187.304 121.911C187.066 121.468 186.739 121.122 186.324 120.875C185.909 120.623 185.433 120.497 184.896 120.497C184.359 120.497 183.883 120.623 183.468 120.875C183.053 121.122 182.726 121.468 182.488 121.911C182.25 122.35 182.131 122.854 182.131 123.423C182.131 123.983 182.248 124.485 182.481 124.928C182.719 125.367 183.046 125.712 183.461 125.964C183.881 126.211 184.357 126.335 184.889 126.335ZM194.939 127.224C194.188 127.224 193.516 127.058 192.923 126.727C192.335 126.396 191.873 125.945 191.537 125.376C191.201 124.802 191.033 124.158 191.033 123.444C191.033 122.907 191.129 122.408 191.32 121.946C191.516 121.479 191.787 121.071 192.132 120.721C192.478 120.371 192.879 120.098 193.336 119.902C193.794 119.706 194.281 119.608 194.799 119.608C195.509 119.608 196.139 119.764 196.689 120.077C197.245 120.385 197.683 120.812 198.005 121.358C198.332 121.904 198.505 122.534 198.523 123.248C198.523 123.304 198.521 123.351 198.516 123.388C198.516 123.421 198.512 123.463 198.502 123.514H192.048C192.048 124.074 192.174 124.569 192.426 124.998C192.678 125.427 193.024 125.766 193.462 126.013C193.906 126.256 194.412 126.377 194.981 126.377C195.523 126.377 196.008 126.265 196.437 126.041C196.871 125.812 197.233 125.486 197.522 125.061L198.278 125.467C197.938 126.022 197.473 126.454 196.885 126.762C196.302 127.07 195.653 127.224 194.939 127.224ZM192.104 122.744H197.501C197.441 122.296 197.284 121.902 197.032 121.561C196.78 121.216 196.461 120.945 196.073 120.749C195.691 120.553 195.271 120.455 194.813 120.455C194.342 120.455 193.913 120.553 193.525 120.749C193.138 120.94 192.818 121.209 192.566 121.554C192.319 121.895 192.165 122.291 192.104 122.744ZM200.903 127V119.832H201.925V120.812C202.121 120.476 202.425 120.191 202.835 119.958C203.246 119.725 203.748 119.608 204.34 119.608C204.896 119.608 205.374 119.722 205.775 119.951C206.177 120.18 206.485 120.513 206.699 120.952C206.914 121.386 207.021 121.911 207.021 122.527V127H205.999V122.723C205.999 121.981 205.827 121.416 205.481 121.029C205.136 120.637 204.648 120.441 204.018 120.441C203.58 120.441 203.204 120.53 202.891 120.707C202.583 120.88 202.345 121.111 202.177 121.4C202.009 121.685 201.925 121.995 201.925 122.331V127H200.903ZM213.495 127V114.96H214.517V127H213.495ZM217.528 127V114.96H218.55V127H217.528ZM224.621 127.224C223.949 127.224 223.342 127.061 222.801 126.734C222.264 126.403 221.837 125.95 221.52 125.376C221.207 124.802 221.051 124.146 221.051 123.409C221.051 122.681 221.205 122.032 221.513 121.463C221.825 120.889 222.25 120.436 222.787 120.105C223.328 119.774 223.939 119.608 224.621 119.608C225.269 119.608 225.857 119.76 226.385 120.063C226.912 120.366 227.313 120.786 227.589 121.323V119.832H228.611V127H227.589V125.488C227.281 126.029 226.868 126.454 226.35 126.762C225.832 127.07 225.255 127.224 224.621 127.224ZM224.873 126.335C225.409 126.335 225.883 126.211 226.294 125.964C226.709 125.712 227.036 125.367 227.274 124.928C227.512 124.485 227.631 123.981 227.631 123.416C227.631 122.847 227.512 122.343 227.274 121.904C227.04 121.465 226.716 121.122 226.301 120.875C225.885 120.623 225.409 120.497 224.873 120.497C224.336 120.497 223.86 120.623 223.445 120.875C223.029 121.122 222.703 121.465 222.465 121.904C222.227 122.343 222.108 122.847 222.108 123.416C222.108 123.981 222.227 124.485 222.465 124.928C222.703 125.367 223.029 125.712 223.445 125.964C223.86 126.211 224.336 126.335 224.873 126.335ZM231.624 127V119.832H232.646V120.812C232.931 120.415 233.271 120.117 233.668 119.916C234.065 119.711 234.508 119.608 234.998 119.608C235.586 119.608 236.097 119.743 236.531 120.014C236.97 120.285 237.273 120.653 237.441 121.12C237.716 120.663 238.066 120.296 238.491 120.021C238.92 119.746 239.429 119.608 240.017 119.608C240.526 119.608 240.978 119.713 241.375 119.923C241.772 120.128 242.082 120.432 242.306 120.833C242.535 121.23 242.649 121.715 242.649 122.289V127H241.627V122.576C241.627 121.923 241.457 121.405 241.116 121.022C240.775 120.639 240.32 120.448 239.751 120.448C239.359 120.448 239.004 120.534 238.687 120.707C238.37 120.88 238.118 121.104 237.931 121.379C237.744 121.65 237.651 121.93 237.651 122.219V127H236.629V122.471C236.629 121.85 236.459 121.358 236.118 120.994C235.782 120.63 235.336 120.448 234.781 120.448C234.389 120.448 234.03 120.532 233.703 120.7C233.381 120.863 233.124 121.076 232.933 121.337C232.742 121.598 232.646 121.867 232.646 122.142V127H231.624ZM248.601 127.224C247.929 127.224 247.322 127.061 246.781 126.734C246.244 126.403 245.817 125.95 245.5 125.376C245.187 124.802 245.031 124.146 245.031 123.409C245.031 122.681 245.185 122.032 245.493 121.463C245.806 120.889 246.23 120.436 246.767 120.105C247.308 119.774 247.92 119.608 248.601 119.608C249.25 119.608 249.838 119.76 250.365 120.063C250.892 120.366 251.294 120.786 251.569 121.323V119.832H252.591V127H251.569V125.488C251.261 126.029 250.848 126.454 250.33 126.762C249.812 127.07 249.236 127.224 248.601 127.224ZM248.853 126.335C249.39 126.335 249.863 126.211 250.274 125.964C250.689 125.712 251.016 125.367 251.254 124.928C251.492 124.485 251.611 123.981 251.611 123.416C251.611 122.847 251.492 122.343 251.254 121.904C251.021 121.465 250.696 121.122 250.281 120.875C249.866 120.623 249.39 120.497 248.853 120.497C248.316 120.497 247.84 120.623 247.425 120.875C247.01 121.122 246.683 121.465 246.445 121.904C246.207 122.343 246.088 122.847 246.088 123.416C246.088 123.981 246.207 124.485 246.445 124.928C246.683 125.367 247.01 125.712 247.425 125.964C247.84 126.211 248.316 126.335 248.853 126.335ZM257.294 127.224C256.757 127.224 256.34 127.044 256.041 126.685C255.747 126.321 255.6 125.81 255.6 125.152V120.602H254.872V119.832H255.6V117.151H256.622V119.832H258.407V120.602H256.622V125.096C256.622 125.493 256.699 125.796 256.853 126.006C257.007 126.216 257.226 126.321 257.511 126.321C257.786 126.321 258.029 126.244 258.239 126.09L258.498 126.902C258.339 127 258.153 127.077 257.938 127.133C257.723 127.194 257.509 127.224 257.294 127.224ZM260.725 127V119.832H261.747V127H260.725ZM261.243 118.397C261.117 118.397 261.002 118.367 260.9 118.306C260.802 118.245 260.722 118.164 260.662 118.061C260.601 117.958 260.571 117.846 260.571 117.725C260.571 117.604 260.601 117.494 260.662 117.396C260.722 117.293 260.802 117.212 260.9 117.151C261.002 117.09 261.117 117.06 261.243 117.06C261.364 117.06 261.474 117.09 261.572 117.151C261.67 117.212 261.749 117.291 261.81 117.389C261.875 117.487 261.908 117.599 261.908 117.725C261.908 117.846 261.875 117.958 261.81 118.061C261.749 118.164 261.67 118.245 261.572 118.306C261.474 118.367 261.364 118.397 261.243 118.397ZM267.105 127L263.626 119.832H264.823L267.441 125.544L270.066 119.832H271.263L267.777 127H267.105ZM276.177 127.224C275.505 127.224 274.899 127.061 274.357 126.734C273.821 126.403 273.394 125.95 273.076 125.376C272.764 124.802 272.607 124.146 272.607 123.409C272.607 122.681 272.761 122.032 273.069 121.463C273.382 120.889 273.807 120.436 274.343 120.105C274.885 119.774 275.496 119.608 276.177 119.608C276.826 119.608 277.414 119.76 277.941 120.063C278.469 120.366 278.87 120.786 279.145 121.323V119.832H280.167V127H279.145V125.488C278.837 126.029 278.424 126.454 277.906 126.762C277.388 127.07 276.812 127.224 276.177 127.224ZM276.429 126.335C276.966 126.335 277.44 126.211 277.85 125.964C278.266 125.712 278.592 125.367 278.83 124.928C279.068 124.485 279.187 123.981 279.187 123.416C279.187 122.847 279.068 122.343 278.83 121.904C278.597 121.465 278.273 121.122 277.857 120.875C277.442 120.623 276.966 120.497 276.429 120.497C275.893 120.497 275.417 120.623 275.001 120.875C274.586 121.122 274.259 121.465 274.021 121.904C273.783 122.343 273.664 122.847 273.664 123.416C273.664 123.981 273.783 124.485 274.021 124.928C274.259 125.367 274.586 125.712 275.001 125.964C275.417 126.211 275.893 126.335 276.429 126.335ZM74.2999 143.224C73.6652 143.224 73.0865 143.07 72.5639 142.762C72.0412 142.454 71.6282 142.029 71.3249 141.488V143H70.3029V130.96H71.3249V137.323C71.6189 136.786 72.0249 136.366 72.5429 136.063C73.0609 135.76 73.6395 135.608 74.2789 135.608C74.9649 135.608 75.5785 135.774 76.1199 136.105C76.6612 136.436 77.0859 136.889 77.3939 137.463C77.7065 138.032 77.8629 138.683 77.8629 139.416C77.8629 140.153 77.7042 140.809 77.3869 141.383C77.0742 141.957 76.6495 142.407 76.1129 142.734C75.5762 143.061 74.9719 143.224 74.2999 143.224ZM74.0479 142.335C74.5845 142.335 75.0605 142.211 75.4759 141.964C75.8912 141.712 76.2155 141.367 76.4489 140.928C76.6869 140.485 76.8059 139.983 76.8059 139.423C76.8059 138.854 76.6869 138.35 76.4489 137.911C76.2109 137.468 75.8842 137.122 75.4689 136.875C75.0582 136.623 74.5845 136.497 74.0479 136.497C73.5112 136.497 73.0352 136.623 72.6199 136.875C72.2045 137.122 71.8779 137.468 71.6399 137.911C71.4019 138.35 71.2829 138.854 71.2829 139.423C71.2829 139.983 71.3995 140.485 71.6329 140.928C71.8709 141.367 72.1975 141.712 72.6129 141.964C73.0329 142.211 73.5112 142.335 74.0479 142.335ZM83.2634 143.224C82.176 143.224 81.399 142.979 80.9324 142.489C80.4657 141.999 80.2324 141.18 80.2324 140.032V135.832H81.2544V139.85C81.2544 140.755 81.4084 141.402 81.7164 141.789C82.0244 142.172 82.54 142.363 83.2634 142.363C83.9914 142.363 84.507 142.172 84.8104 141.789C85.1184 141.402 85.2724 140.755 85.2724 139.85V135.832H86.2944V140.032C86.2944 141.18 86.061 141.999 85.5944 142.489C85.1324 142.979 84.3554 143.224 83.2634 143.224ZM90.991 143.224C90.3984 143.224 89.8757 143.082 89.423 142.797C88.9704 142.508 88.618 142.099 88.366 141.572L88.912 140.984C89.136 141.441 89.4277 141.798 89.787 142.055C90.1464 142.307 90.5454 142.433 90.984 142.433C91.278 142.433 91.5464 142.372 91.789 142.251C92.0364 142.13 92.2324 141.957 92.377 141.733C92.5264 141.504 92.601 141.234 92.601 140.921C92.601 140.636 92.531 140.412 92.391 140.249C92.2557 140.086 92.055 139.946 91.789 139.829C91.5277 139.708 91.201 139.572 90.809 139.423C90.5057 139.302 90.2117 139.164 89.927 139.01C89.6424 138.856 89.4067 138.662 89.22 138.429C89.038 138.191 88.947 137.89 88.947 137.526C88.947 137.157 89.045 136.831 89.241 136.546C89.437 136.257 89.7077 136.03 90.053 135.867C90.3984 135.699 90.7904 135.615 91.229 135.615C91.6304 135.615 92.006 135.701 92.356 135.874C92.7107 136.047 93.028 136.292 93.308 136.609L92.839 137.204C92.4097 136.639 91.8754 136.357 91.236 136.357C90.844 136.357 90.5244 136.46 90.277 136.665C90.0344 136.87 89.913 137.139 89.913 137.47C89.913 137.708 89.99 137.906 90.144 138.065C90.298 138.224 90.4987 138.359 90.746 138.471C90.998 138.583 91.2687 138.695 91.558 138.807C91.978 138.966 92.342 139.124 92.65 139.283C92.9627 139.442 93.2054 139.645 93.378 139.892C93.5507 140.135 93.637 140.466 93.637 140.886C93.637 141.367 93.525 141.782 93.301 142.132C93.077 142.482 92.7644 142.753 92.363 142.944C91.9664 143.131 91.509 143.224 90.991 143.224ZM99.3927 143.224C98.856 143.224 98.352 143.131 97.8807 142.944C97.4093 142.753 96.9963 142.484 96.6417 142.139C96.287 141.794 96.0093 141.39 95.8087 140.928C95.608 140.466 95.5077 139.962 95.5077 139.416C95.5077 138.875 95.6057 138.373 95.8017 137.911C95.9977 137.449 96.2707 137.045 96.6207 136.7C96.9753 136.355 97.3883 136.086 97.8597 135.895C98.331 135.704 98.842 135.608 99.3927 135.608C99.864 135.608 100.312 135.678 100.737 135.818C101.161 135.958 101.528 136.152 101.836 136.399L101.416 137.085C100.893 136.679 100.258 136.476 99.5117 136.476C98.9237 136.476 98.4057 136.607 97.9577 136.868C97.5143 137.125 97.169 137.477 96.9217 137.925C96.6743 138.368 96.5507 138.865 96.5507 139.416C96.5507 139.971 96.6767 140.473 96.9287 140.921C97.1807 141.364 97.5307 141.714 97.9787 141.971C98.4267 142.228 98.94 142.356 99.5187 142.356C99.8827 142.356 100.226 142.305 100.548 142.202C100.874 142.095 101.161 141.943 101.409 141.747L101.836 142.433C101.523 142.676 101.157 142.867 100.737 143.007C100.317 143.152 99.8687 143.224 99.3927 143.224ZM107.049 143.224C106.377 143.224 105.771 143.061 105.229 142.734C104.693 142.403 104.266 141.95 103.948 141.376C103.636 140.802 103.479 140.146 103.479 139.409C103.479 138.681 103.633 138.032 103.941 137.463C104.254 136.889 104.679 136.436 105.215 136.105C105.757 135.774 106.368 135.608 107.049 135.608C107.698 135.608 108.286 135.76 108.813 136.063C109.341 136.366 109.742 136.786 110.017 137.323V135.832H111.039V143H110.017V141.488C109.709 142.029 109.296 142.454 108.778 142.762C108.26 143.07 107.684 143.224 107.049 143.224ZM107.301 142.335C107.838 142.335 108.312 142.211 108.722 141.964C109.138 141.712 109.464 141.367 109.702 140.928C109.94 140.485 110.059 139.981 110.059 139.416C110.059 138.847 109.94 138.343 109.702 137.904C109.469 137.465 109.145 137.122 108.729 136.875C108.314 136.623 107.838 136.497 107.301 136.497C106.765 136.497 106.289 136.623 105.873 136.875C105.458 137.122 105.131 137.465 104.893 137.904C104.655 138.343 104.536 138.847 104.536 139.416C104.536 139.981 104.655 140.485 104.893 140.928C105.131 141.367 105.458 141.712 105.873 141.964C106.289 142.211 106.765 142.335 107.301 142.335ZM121.009 143.224C120.257 143.224 119.585 143.058 118.993 142.727C118.405 142.396 117.943 141.945 117.607 141.376C117.271 140.802 117.103 140.158 117.103 139.444C117.103 138.907 117.198 138.408 117.39 137.946C117.586 137.479 117.856 137.071 118.202 136.721C118.547 136.371 118.948 136.098 119.406 135.902C119.863 135.706 120.351 135.608 120.869 135.608C121.578 135.608 122.208 135.764 122.759 136.077C123.314 136.385 123.753 136.812 124.075 137.358C124.401 137.904 124.574 138.534 124.593 139.248C124.593 139.304 124.59 139.351 124.586 139.388C124.586 139.421 124.581 139.463 124.572 139.514H118.118C118.118 140.074 118.244 140.569 118.496 140.998C118.748 141.427 119.093 141.766 119.532 142.013C119.975 142.256 120.481 142.377 121.051 142.377C121.592 142.377 122.077 142.265 122.507 142.041C122.941 141.812 123.302 141.486 123.592 141.061L124.348 141.467C124.007 142.022 123.543 142.454 122.955 142.762C122.371 143.07 121.723 143.224 121.009 143.224ZM118.174 138.744H123.571C123.51 138.296 123.354 137.902 123.102 137.561C122.85 137.216 122.53 136.945 122.143 136.749C121.76 136.553 121.34 136.455 120.883 136.455C120.411 136.455 119.982 136.553 119.595 136.749C119.207 136.94 118.888 137.209 118.636 137.554C118.388 137.895 118.234 138.291 118.174 138.744ZM126.973 143V130.96H127.995V143H126.973ZM137.661 143.224C136.989 143.224 136.382 143.061 135.841 142.734C135.304 142.403 134.877 141.95 134.56 141.376C134.247 140.802 134.091 140.146 134.091 139.409C134.091 138.681 134.245 138.032 134.553 137.463C134.865 136.889 135.29 136.436 135.827 136.105C136.368 135.774 136.979 135.608 137.661 135.608C138.309 135.608 138.897 135.76 139.425 136.063C139.952 136.366 140.353 136.786 140.629 137.323V135.832H141.651V143H140.629V141.488C140.321 142.029 139.908 142.454 139.39 142.762C138.872 143.07 138.295 143.224 137.661 143.224ZM137.913 142.335C138.449 142.335 138.923 142.211 139.334 141.964C139.749 141.712 140.076 141.367 140.314 140.928C140.552 140.485 140.671 139.981 140.671 139.416C140.671 138.847 140.552 138.343 140.314 137.904C140.08 137.465 139.756 137.122 139.341 136.875C138.925 136.623 138.449 136.497 137.913 136.497C137.376 136.497 136.9 136.623 136.485 136.875C136.069 137.122 135.743 137.465 135.505 137.904C135.267 138.343 135.148 138.847 135.148 139.416C135.148 139.981 135.267 140.485 135.505 140.928C135.743 141.367 136.069 141.712 136.485 141.964C136.9 142.211 137.376 142.335 137.913 142.335ZM144.664 146.64V135.832H145.686V137.316C145.976 136.779 146.379 136.362 146.897 136.063C147.42 135.76 147.999 135.608 148.633 135.608C149.319 135.608 149.933 135.774 150.474 136.105C151.016 136.436 151.443 136.889 151.755 137.463C152.068 138.032 152.224 138.683 152.224 139.416C152.224 140.139 152.068 140.79 151.755 141.369C151.447 141.943 151.023 142.396 150.481 142.727C149.945 143.058 149.333 143.224 148.647 143.224C148.022 143.224 147.448 143.07 146.925 142.762C146.403 142.454 145.99 142.029 145.686 141.488V146.64H144.664ZM148.409 142.335C148.946 142.335 149.422 142.211 149.837 141.964C150.253 141.712 150.577 141.367 150.81 140.928C151.048 140.489 151.167 139.988 151.167 139.423C151.167 138.854 151.048 138.35 150.81 137.911C150.572 137.468 150.246 137.122 149.83 136.875C149.42 136.623 148.946 136.497 148.409 136.497C147.873 136.497 147.397 136.623 146.981 136.875C146.566 137.122 146.239 137.465 146.001 137.904C145.763 138.343 145.644 138.847 145.644 139.416C145.644 139.981 145.763 140.485 146.001 140.928C146.239 141.367 146.566 141.712 146.981 141.964C147.401 142.211 147.877 142.335 148.409 142.335ZM154.727 143V135.832H155.749V136.889C155.977 136.469 156.271 136.152 156.631 135.937C156.995 135.718 157.415 135.608 157.891 135.608C158.101 135.608 158.313 135.631 158.528 135.678C158.747 135.725 158.936 135.785 159.095 135.86L158.675 136.721C158.535 136.651 158.374 136.597 158.192 136.56C158.014 136.523 157.844 136.504 157.681 136.504C157.349 136.504 157.037 136.588 156.743 136.756C156.449 136.924 156.208 137.143 156.022 137.414C155.84 137.68 155.749 137.965 155.749 138.268V143H154.727ZM164.253 143.224C163.501 143.224 162.829 143.058 162.237 142.727C161.649 142.396 161.187 141.945 160.851 141.376C160.515 140.802 160.347 140.158 160.347 139.444C160.347 138.907 160.442 138.408 160.634 137.946C160.83 137.479 161.1 137.071 161.446 136.721C161.791 136.371 162.192 136.098 162.65 135.902C163.107 135.706 163.595 135.608 164.113 135.608C164.822 135.608 165.452 135.764 166.003 136.077C166.558 136.385 166.997 136.812 167.319 137.358C167.645 137.904 167.818 138.534 167.837 139.248C167.837 139.304 167.834 139.351 167.83 139.388C167.83 139.421 167.825 139.463 167.816 139.514H161.362C161.362 140.074 161.488 140.569 161.74 140.998C161.992 141.427 162.337 141.766 162.776 142.013C163.219 142.256 163.725 142.377 164.295 142.377C164.836 142.377 165.321 142.265 165.751 142.041C166.185 141.812 166.546 141.486 166.836 141.061L167.592 141.467C167.251 142.022 166.787 142.454 166.199 142.762C165.615 143.07 164.967 143.224 164.253 143.224ZM161.418 138.744H166.815C166.754 138.296 166.598 137.902 166.346 137.561C166.094 137.216 165.774 136.945 165.387 136.749C165.004 136.553 164.584 136.455 164.127 136.455C163.655 136.455 163.226 136.553 162.839 136.749C162.451 136.94 162.132 137.209 161.88 137.554C161.632 137.895 161.478 138.291 161.418 138.744ZM170.217 143V135.832H171.239V136.812C171.435 136.476 171.738 136.191 172.149 135.958C172.56 135.725 173.061 135.608 173.654 135.608C174.209 135.608 174.688 135.722 175.089 135.951C175.49 136.18 175.798 136.513 176.013 136.952C176.228 137.386 176.335 137.911 176.335 138.527V143H175.313V138.723C175.313 137.981 175.14 137.416 174.795 137.029C174.45 136.637 173.962 136.441 173.332 136.441C172.893 136.441 172.518 136.53 172.205 136.707C171.897 136.88 171.659 137.111 171.491 137.4C171.323 137.685 171.239 137.995 171.239 138.331V143H170.217ZM182.272 143.224C181.6 143.224 180.993 143.061 180.452 142.734C179.915 142.407 179.488 141.957 179.171 141.383C178.858 140.809 178.702 140.153 178.702 139.416C178.702 138.683 178.858 138.032 179.171 137.463C179.484 136.889 179.908 136.436 180.445 136.105C180.986 135.774 181.6 135.608 182.286 135.608C182.925 135.608 183.504 135.76 184.022 136.063C184.54 136.366 184.946 136.786 185.24 137.323V130.953H186.262V143H185.24V141.488C184.937 142.029 184.524 142.454 184.001 142.762C183.483 143.07 182.907 143.224 182.272 143.224ZM182.517 142.335C183.054 142.335 183.53 142.211 183.945 141.964C184.36 141.712 184.687 141.367 184.925 140.928C185.163 140.485 185.282 139.983 185.282 139.423C185.282 138.854 185.163 138.35 184.925 137.911C184.692 137.468 184.365 137.122 183.945 136.875C183.53 136.623 183.054 136.497 182.517 136.497C181.985 136.497 181.511 136.623 181.096 136.875C180.681 137.122 180.354 137.468 180.116 137.911C179.878 138.35 179.759 138.854 179.759 139.423C179.759 139.988 179.876 140.489 180.109 140.928C180.347 141.367 180.674 141.712 181.089 141.964C181.509 142.211 181.985 142.335 182.517 142.335ZM189.269 143V135.832H190.291V143H189.269ZM189.787 134.397C189.661 134.397 189.546 134.367 189.444 134.306C189.346 134.245 189.266 134.164 189.206 134.061C189.145 133.958 189.115 133.846 189.115 133.725C189.115 133.604 189.145 133.494 189.206 133.396C189.266 133.293 189.346 133.212 189.444 133.151C189.546 133.09 189.661 133.06 189.787 133.06C189.908 133.06 190.018 133.09 190.116 133.151C190.214 133.212 190.293 133.291 190.354 133.389C190.419 133.487 190.452 133.599 190.452 133.725C190.452 133.846 190.419 133.958 190.354 134.061C190.293 134.164 190.214 134.245 190.116 134.306C190.018 134.367 189.908 134.397 189.787 134.397ZM192.364 143L197.67 136.672H192.91V135.832H199.532L194.219 142.16H199.371V143H192.364ZM204.749 143.224C204.077 143.224 203.47 143.061 202.929 142.734C202.392 142.403 201.965 141.95 201.648 141.376C201.335 140.802 201.179 140.146 201.179 139.409C201.179 138.681 201.333 138.032 201.641 137.463C201.953 136.889 202.378 136.436 202.915 136.105C203.456 135.774 204.067 135.608 204.749 135.608C205.397 135.608 205.985 135.76 206.513 136.063C207.04 136.366 207.441 136.786 207.717 137.323V135.832H208.739V143H207.717V141.488C207.409 142.029 206.996 142.454 206.478 142.762C205.96 143.07 205.383 143.224 204.749 143.224ZM205.001 142.335C205.537 142.335 206.011 142.211 206.422 141.964C206.837 141.712 207.164 141.367 207.402 140.928C207.64 140.485 207.759 139.981 207.759 139.416C207.759 138.847 207.64 138.343 207.402 137.904C207.168 137.465 206.844 137.122 206.429 136.875C206.013 136.623 205.537 136.497 205.001 136.497C204.464 136.497 203.988 136.623 203.573 136.875C203.157 137.122 202.831 137.465 202.593 137.904C202.355 138.343 202.236 138.847 202.236 139.416C202.236 139.981 202.355 140.485 202.593 140.928C202.831 141.367 203.157 141.712 203.573 141.964C203.988 142.211 204.464 142.335 205.001 142.335ZM210.842 146.85C210.595 146.85 210.354 146.82 210.121 146.759C209.888 146.698 209.696 146.61 209.547 146.493L209.848 145.674C210.063 145.851 210.333 145.94 210.66 145.94C211.393 145.94 211.759 145.455 211.759 144.484V135.832H212.781V144.575C212.781 145.312 212.615 145.875 212.284 146.262C211.953 146.654 211.472 146.85 210.842 146.85ZM212.27 134.383C212.149 134.383 212.037 134.355 211.934 134.299C211.831 134.238 211.75 134.157 211.689 134.054C211.628 133.951 211.598 133.839 211.598 133.718C211.598 133.592 211.628 133.478 211.689 133.375C211.75 133.272 211.831 133.193 211.934 133.137C212.037 133.076 212.149 133.046 212.27 133.046C212.391 133.046 212.503 133.076 212.606 133.137C212.709 133.193 212.79 133.272 212.851 133.375C212.912 133.478 212.942 133.59 212.942 133.711C212.942 133.832 212.912 133.944 212.851 134.047C212.79 134.15 212.709 134.231 212.606 134.292C212.503 134.353 212.391 134.383 212.27 134.383ZM219.159 143.224C218.408 143.224 217.736 143.058 217.143 142.727C216.555 142.396 216.093 141.945 215.757 141.376C215.421 140.802 215.253 140.158 215.253 139.444C215.253 138.907 215.349 138.408 215.54 137.946C215.736 137.479 216.007 137.071 216.352 136.721C216.697 136.371 217.099 136.098 217.556 135.902C218.013 135.706 218.501 135.608 219.019 135.608C219.728 135.608 220.358 135.764 220.909 136.077C221.464 136.385 221.903 136.812 222.225 137.358C222.552 137.904 222.724 138.534 222.743 139.248C222.743 139.304 222.741 139.351 222.736 139.388C222.736 139.421 222.731 139.463 222.722 139.514H216.268C216.268 140.074 216.394 140.569 216.646 140.998C216.898 141.427 217.243 141.766 217.682 142.013C218.125 142.256 218.632 142.377 219.201 142.377C219.742 142.377 220.228 142.265 220.657 142.041C221.091 141.812 221.453 141.486 221.742 141.061L222.498 141.467C222.157 142.022 221.693 142.454 221.105 142.762C220.522 143.07 219.873 143.224 219.159 143.224ZM216.324 138.744H221.721C221.66 138.296 221.504 137.902 221.252 137.561C221 137.216 220.68 136.945 220.293 136.749C219.91 136.553 219.49 136.455 219.033 136.455C218.562 136.455 218.132 136.553 217.745 136.749C217.358 136.94 217.038 137.209 216.786 137.554C216.539 137.895 216.385 138.291 216.324 138.744ZM231.805 143.224C231.133 143.224 230.527 143.061 229.985 142.734C229.449 142.407 229.022 141.957 228.704 141.383C228.392 140.809 228.235 140.153 228.235 139.416C228.235 138.683 228.392 138.032 228.704 137.463C229.017 136.889 229.442 136.436 229.978 136.105C230.52 135.774 231.133 135.608 231.819 135.608C232.459 135.608 233.037 135.76 233.555 136.063C234.073 136.366 234.479 136.786 234.773 137.323V130.953H235.795V143H234.773V141.488C234.47 142.029 234.057 142.454 233.534 142.762C233.016 143.07 232.44 143.224 231.805 143.224ZM232.05 142.335C232.587 142.335 233.063 142.211 233.478 141.964C233.894 141.712 234.22 141.367 234.458 140.928C234.696 140.485 234.815 139.983 234.815 139.423C234.815 138.854 234.696 138.35 234.458 137.911C234.225 137.468 233.898 137.122 233.478 136.875C233.063 136.623 232.587 136.497 232.05 136.497C231.518 136.497 231.045 136.623 230.629 136.875C230.214 137.122 229.887 137.468 229.649 137.911C229.411 138.35 229.292 138.854 229.292 139.423C229.292 139.988 229.409 140.489 229.642 140.928C229.88 141.367 230.207 141.712 230.622 141.964C231.042 142.211 231.518 142.335 232.05 142.335ZM238.802 143V135.832H239.824V143H238.802ZM239.32 134.397C239.194 134.397 239.079 134.367 238.977 134.306C238.879 134.245 238.799 134.164 238.739 134.061C238.678 133.958 238.648 133.846 238.648 133.725C238.648 133.604 238.678 133.494 238.739 133.396C238.799 133.293 238.879 133.212 238.977 133.151C239.079 133.09 239.194 133.06 239.32 133.06C239.441 133.06 239.551 133.09 239.649 133.151C239.747 133.212 239.826 133.291 239.887 133.389C239.952 133.487 239.985 133.599 239.985 133.725C239.985 133.846 239.952 133.958 239.887 134.061C239.826 134.164 239.747 134.245 239.649 134.306C239.551 134.367 239.441 134.397 239.32 134.397ZM242.842 143V135.832H243.864V136.812C244.06 136.476 244.363 136.191 244.774 135.958C245.185 135.725 245.686 135.608 246.279 135.608C246.834 135.608 247.313 135.722 247.714 135.951C248.115 136.18 248.423 136.513 248.638 136.952C248.853 137.386 248.96 137.911 248.96 138.527V143H247.938V138.723C247.938 137.981 247.765 137.416 247.42 137.029C247.075 136.637 246.587 136.441 245.957 136.441C245.518 136.441 245.143 136.53 244.83 136.707C244.522 136.88 244.284 137.111 244.116 137.4C243.948 137.685 243.864 137.995 243.864 138.331V143H242.842ZM254.897 143.224C254.225 143.224 253.618 143.061 253.077 142.734C252.54 142.403 252.113 141.95 251.796 141.376C251.483 140.802 251.327 140.146 251.327 139.409C251.327 138.681 251.481 138.032 251.789 137.463C252.102 136.889 252.526 136.436 253.063 136.105C253.604 135.774 254.216 135.608 254.897 135.608C255.546 135.608 256.134 135.76 256.661 136.063C257.188 136.366 257.59 136.786 257.865 137.323V135.832H258.887V143H257.865V141.488C257.557 142.029 257.144 142.454 256.626 142.762C256.108 143.07 255.532 143.224 254.897 143.224ZM255.149 142.335C255.686 142.335 256.159 142.211 256.57 141.964C256.985 141.712 257.312 141.367 257.55 140.928C257.788 140.485 257.907 139.981 257.907 139.416C257.907 138.847 257.788 138.343 257.55 137.904C257.317 137.465 256.992 137.122 256.577 136.875C256.162 136.623 255.686 136.497 255.149 136.497C254.612 136.497 254.136 136.623 253.721 136.875C253.306 137.122 252.979 137.465 252.741 137.904C252.503 138.343 252.384 138.847 252.384 139.416C252.384 139.981 252.503 140.485 252.741 140.928C252.979 141.367 253.306 141.712 253.721 141.964C254.136 142.211 254.612 142.335 255.149 142.335ZM255.541 134.677L255.016 134.292L256.346 131.639L257.151 132.213L255.541 134.677ZM261.901 143V135.832H262.923V136.812C263.207 136.415 263.548 136.117 263.945 135.916C264.341 135.711 264.785 135.608 265.275 135.608C265.863 135.608 266.374 135.743 266.808 136.014C267.246 136.285 267.55 136.653 267.718 137.12C267.993 136.663 268.343 136.296 268.768 136.021C269.197 135.746 269.706 135.608 270.294 135.608C270.802 135.608 271.255 135.713 271.652 135.923C272.048 136.128 272.359 136.432 272.583 136.833C272.811 137.23 272.926 137.715 272.926 138.289V143H271.904V138.576C271.904 137.923 271.733 137.405 271.393 137.022C271.052 136.639 270.597 136.448 270.028 136.448C269.636 136.448 269.281 136.534 268.964 136.707C268.646 136.88 268.394 137.104 268.208 137.379C268.021 137.65 267.928 137.93 267.928 138.219V143H266.906V138.471C266.906 137.85 266.735 137.358 266.395 136.994C266.059 136.63 265.613 136.448 265.058 136.448C264.666 136.448 264.306 136.532 263.98 136.7C263.658 136.863 263.401 137.076 263.21 137.337C263.018 137.598 262.923 137.867 262.923 138.142V143H261.901ZM275.811 143V135.832H276.833V143H275.811ZM276.329 134.397C276.203 134.397 276.089 134.367 275.986 134.306C275.888 134.245 275.809 134.164 275.748 134.061C275.688 133.958 275.657 133.846 275.657 133.725C275.657 133.604 275.688 133.494 275.748 133.396C275.809 133.293 275.888 133.212 275.986 133.151C276.089 133.09 276.203 133.06 276.329 133.06C276.451 133.06 276.56 133.09 276.658 133.151C276.756 133.212 276.836 133.291 276.896 133.389C276.962 133.487 276.994 133.599 276.994 133.725C276.994 133.846 276.962 133.958 276.896 134.061C276.836 134.164 276.756 134.245 276.658 134.306C276.56 134.367 276.451 134.397 276.329 134.397ZM283.184 143.224C282.647 143.224 282.143 143.131 281.672 142.944C281.2 142.753 280.787 142.484 280.433 142.139C280.078 141.794 279.8 141.39 279.6 140.928C279.399 140.466 279.299 139.962 279.299 139.416C279.299 138.875 279.397 138.373 279.593 137.911C279.789 137.449 280.062 137.045 280.412 136.7C280.766 136.355 281.179 136.086 281.651 135.895C282.122 135.704 282.633 135.608 283.184 135.608C283.655 135.608 284.103 135.678 284.528 135.818C284.952 135.958 285.319 136.152 285.627 136.399L285.207 137.085C284.684 136.679 284.049 136.476 283.303 136.476C282.715 136.476 282.197 136.607 281.749 136.868C281.305 137.125 280.96 137.477 280.713 137.925C280.465 138.368 280.342 138.865 280.342 139.416C280.342 139.971 280.468 140.473 280.72 140.921C280.972 141.364 281.322 141.714 281.77 141.971C282.218 142.228 282.731 142.356 283.31 142.356C283.674 142.356 284.017 142.305 284.339 142.202C284.665 142.095 284.952 141.943 285.2 141.747L285.627 142.433C285.314 142.676 284.948 142.867 284.528 143.007C284.108 143.152 283.66 143.224 283.184 143.224ZM291.273 143.224C290.526 143.224 289.852 143.063 289.25 142.741C288.652 142.419 288.179 141.971 287.829 141.397C287.479 140.823 287.304 140.163 287.304 139.416C287.304 138.665 287.479 138.004 287.829 137.435C288.179 136.861 288.652 136.413 289.25 136.091C289.847 135.769 290.521 135.608 291.273 135.608C292.019 135.608 292.691 135.769 293.289 136.091C293.891 136.413 294.367 136.861 294.717 137.435C295.067 138.004 295.242 138.665 295.242 139.416C295.242 140.163 295.067 140.823 294.717 141.397C294.367 141.971 293.891 142.419 293.289 142.741C292.691 143.063 292.019 143.224 291.273 143.224ZM291.273 142.314C291.833 142.314 292.332 142.19 292.771 141.943C293.209 141.696 293.555 141.355 293.807 140.921C294.059 140.482 294.185 139.981 294.185 139.416C294.185 138.851 294.059 138.352 293.807 137.918C293.555 137.479 293.209 137.136 292.771 136.889C292.332 136.642 291.833 136.518 291.273 136.518C290.713 136.518 290.213 136.642 289.775 136.889C289.336 137.136 288.991 137.479 288.739 137.918C288.487 138.352 288.361 138.851 288.361 139.416C288.361 139.976 288.487 140.475 288.739 140.914C288.991 141.353 289.336 141.696 289.775 141.943C290.213 142.19 290.713 142.314 291.273 142.314ZM88.4822 159.224C87.8896 159.224 87.3669 159.082 86.9142 158.797C86.4616 158.508 86.1092 158.099 85.8572 157.572L86.4032 156.984C86.6272 157.441 86.9189 157.798 87.2782 158.055C87.6376 158.307 88.0366 158.433 88.4752 158.433C88.7692 158.433 89.0376 158.372 89.2802 158.251C89.5276 158.13 89.7236 157.957 89.8682 157.733C90.0176 157.504 90.0922 157.234 90.0922 156.921C90.0922 156.636 90.0222 156.412 89.8822 156.249C89.7469 156.086 89.5462 155.946 89.2802 155.829C89.0189 155.708 88.6922 155.572 88.3002 155.423C87.9969 155.302 87.7029 155.164 87.4182 155.01C87.1336 154.856 86.8979 154.662 86.7112 154.429C86.5292 154.191 86.4382 153.89 86.4382 153.526C86.4382 153.157 86.5362 152.831 86.7322 152.546C86.9282 152.257 87.1989 152.03 87.5442 151.867C87.8896 151.699 88.2816 151.615 88.7202 151.615C89.1216 151.615 89.4972 151.701 89.8472 151.874C90.2019 152.047 90.5192 152.292 90.7992 152.609L90.3302 153.204C89.9009 152.639 89.3666 152.357 88.7272 152.357C88.3352 152.357 88.0156 152.46 87.7682 152.665C87.5256 152.87 87.4042 153.139 87.4042 153.47C87.4042 153.708 87.4812 153.906 87.6352 154.065C87.7892 154.224 87.9899 154.359 88.2372 154.471C88.4892 154.583 88.7599 154.695 89.0492 154.807C89.4692 154.966 89.8332 155.124 90.1412 155.283C90.4539 155.442 90.6966 155.645 90.8692 155.892C91.0419 156.135 91.1282 156.466 91.1282 156.886C91.1282 157.367 91.0162 157.782 90.7922 158.132C90.5682 158.482 90.2556 158.753 89.8542 158.944C89.4576 159.131 89.0002 159.224 88.4822 159.224ZM96.9749 159.224C96.2282 159.224 95.5539 159.063 94.9519 158.741C94.3545 158.419 93.8809 157.971 93.5309 157.397C93.1809 156.823 93.0059 156.163 93.0059 155.416C93.0059 154.665 93.1809 154.004 93.5309 153.435C93.8809 152.861 94.3545 152.413 94.9519 152.091C95.5492 151.769 96.2235 151.608 96.9749 151.608C97.7215 151.608 98.3935 151.769 98.9909 152.091C99.5929 152.413 100.069 152.861 100.419 153.435C100.769 154.004 100.944 154.665 100.944 155.416C100.944 156.163 100.769 156.823 100.419 157.397C100.069 157.971 99.5929 158.419 98.9909 158.741C98.3935 159.063 97.7215 159.224 96.9749 159.224ZM96.9749 158.314C97.5349 158.314 98.0342 158.19 98.4729 157.943C98.9115 157.696 99.2569 157.355 99.5089 156.921C99.7609 156.482 99.8869 155.981 99.8869 155.416C99.8869 154.851 99.7609 154.352 99.5089 153.918C99.2569 153.479 98.9115 153.136 98.4729 152.889C98.0342 152.642 97.5349 152.518 96.9749 152.518C96.4149 152.518 95.9155 152.642 95.4769 152.889C95.0382 153.136 94.6929 153.479 94.4409 153.918C94.1889 154.352 94.0629 154.851 94.0629 155.416C94.0629 155.976 94.1889 156.475 94.4409 156.914C94.6929 157.353 95.0382 157.696 95.4769 157.943C95.9155 158.19 96.4149 158.314 96.9749 158.314ZM107.406 159.224C106.772 159.224 106.193 159.07 105.67 158.762C105.148 158.454 104.735 158.029 104.431 157.488V159H103.409V146.96H104.431V153.323C104.725 152.786 105.131 152.366 105.649 152.063C106.167 151.76 106.746 151.608 107.385 151.608C108.071 151.608 108.685 151.774 109.226 152.105C109.768 152.436 110.192 152.889 110.5 153.463C110.813 154.032 110.969 154.683 110.969 155.416C110.969 156.153 110.811 156.809 110.493 157.383C110.181 157.957 109.756 158.407 109.219 158.734C108.683 159.061 108.078 159.224 107.406 159.224ZM107.154 158.335C107.691 158.335 108.167 158.211 108.582 157.964C108.998 157.712 109.322 157.367 109.555 156.928C109.793 156.485 109.912 155.983 109.912 155.423C109.912 154.854 109.793 154.35 109.555 153.911C109.317 153.468 108.991 153.122 108.575 152.875C108.165 152.623 107.691 152.497 107.154 152.497C106.618 152.497 106.142 152.623 105.726 152.875C105.311 153.122 104.984 153.468 104.746 153.911C104.508 154.35 104.389 154.854 104.389 155.423C104.389 155.983 104.506 156.485 104.739 156.928C104.977 157.367 105.304 157.712 105.719 157.964C106.139 158.211 106.618 158.335 107.154 158.335ZM113.472 159V151.832H114.494V152.889C114.722 152.469 115.016 152.152 115.376 151.937C115.74 151.718 116.16 151.608 116.636 151.608C116.846 151.608 117.058 151.631 117.273 151.678C117.492 151.725 117.681 151.785 117.84 151.86L117.42 152.721C117.28 152.651 117.119 152.597 116.937 152.56C116.759 152.523 116.589 152.504 116.426 152.504C116.094 152.504 115.782 152.588 115.488 152.756C115.194 152.924 114.953 153.143 114.767 153.414C114.585 153.68 114.494 153.965 114.494 154.268V159H113.472ZM122.998 159.224C122.246 159.224 121.574 159.058 120.982 158.727C120.394 158.396 119.932 157.945 119.596 157.376C119.26 156.802 119.092 156.158 119.092 155.444C119.092 154.907 119.187 154.408 119.379 153.946C119.575 153.479 119.845 153.071 120.191 152.721C120.536 152.371 120.937 152.098 121.395 151.902C121.852 151.706 122.34 151.608 122.858 151.608C123.567 151.608 124.197 151.764 124.748 152.077C125.303 152.385 125.742 152.812 126.064 153.358C126.39 153.904 126.563 154.534 126.582 155.248C126.582 155.304 126.579 155.351 126.575 155.388C126.575 155.421 126.57 155.463 126.561 155.514H120.107C120.107 156.074 120.233 156.569 120.485 156.998C120.737 157.427 121.082 157.766 121.521 158.013C121.964 158.256 122.47 158.377 123.04 158.377C123.581 158.377 124.066 158.265 124.496 158.041C124.93 157.812 125.291 157.486 125.581 157.061L126.337 157.467C125.996 158.022 125.532 158.454 124.944 158.762C124.36 159.07 123.712 159.224 122.998 159.224ZM120.163 154.744H125.56C125.499 154.296 125.343 153.902 125.091 153.561C124.839 153.216 124.519 152.945 124.132 152.749C123.749 152.553 123.329 152.455 122.872 152.455C122.4 152.455 121.971 152.553 121.584 152.749C121.196 152.94 120.877 153.209 120.625 153.554C120.377 153.895 120.223 154.291 120.163 154.744ZM132.585 159V146.96H133.607V159H132.585ZM139.677 159.224C139.005 159.224 138.399 159.061 137.857 158.734C137.321 158.403 136.894 157.95 136.576 157.376C136.264 156.802 136.107 156.146 136.107 155.409C136.107 154.681 136.261 154.032 136.569 153.463C136.882 152.889 137.307 152.436 137.843 152.105C138.385 151.774 138.996 151.608 139.677 151.608C140.326 151.608 140.914 151.76 141.441 152.063C141.969 152.366 142.37 152.786 142.645 153.323V151.832H143.667V159H142.645V157.488C142.337 158.029 141.924 158.454 141.406 158.762C140.888 159.07 140.312 159.224 139.677 159.224ZM139.929 158.335C140.466 158.335 140.94 158.211 141.35 157.964C141.766 157.712 142.092 157.367 142.33 156.928C142.568 156.485 142.687 155.981 142.687 155.416C142.687 154.847 142.568 154.343 142.33 153.904C142.097 153.465 141.773 153.122 141.357 152.875C140.942 152.623 140.466 152.497 139.929 152.497C139.393 152.497 138.917 152.623 138.501 152.875C138.086 153.122 137.759 153.465 137.521 153.904C137.283 154.343 137.164 154.847 137.164 155.416C137.164 155.981 137.283 156.485 137.521 156.928C137.759 157.367 138.086 157.712 138.501 157.964C138.917 158.211 139.393 158.335 139.929 158.335ZM150.269 159V151.832H151.291V159H150.269ZM150.787 150.397C150.661 150.397 150.547 150.367 150.444 150.306C150.346 150.245 150.267 150.164 150.206 150.061C150.146 149.958 150.115 149.846 150.115 149.725C150.115 149.604 150.146 149.494 150.206 149.396C150.267 149.293 150.346 149.212 150.444 149.151C150.547 149.09 150.661 149.06 150.787 149.06C150.909 149.06 151.018 149.09 151.116 149.151C151.214 149.212 151.294 149.291 151.354 149.389C151.42 149.487 151.452 149.599 151.452 149.725C151.452 149.846 151.42 149.958 151.354 150.061C151.294 150.164 151.214 150.245 151.116 150.306C151.018 150.367 150.909 150.397 150.787 150.397ZM154.31 159V151.832H155.332V152.812C155.616 152.415 155.957 152.117 156.354 151.916C156.75 151.711 157.194 151.608 157.684 151.608C158.272 151.608 158.783 151.743 159.217 152.014C159.655 152.285 159.959 152.653 160.127 153.12C160.402 152.663 160.752 152.296 161.177 152.021C161.606 151.746 162.115 151.608 162.703 151.608C163.211 151.608 163.664 151.713 164.061 151.923C164.457 152.128 164.768 152.432 164.992 152.833C165.22 153.23 165.335 153.715 165.335 154.289V159H164.313V154.576C164.313 153.923 164.142 153.405 163.802 153.022C163.461 152.639 163.006 152.448 162.437 152.448C162.045 152.448 161.69 152.534 161.373 152.707C161.055 152.88 160.803 153.104 160.617 153.379C160.43 153.65 160.337 153.93 160.337 154.219V159H159.315V154.471C159.315 153.85 159.144 153.358 158.804 152.994C158.468 152.63 158.022 152.448 157.467 152.448C157.075 152.448 156.715 152.532 156.389 152.7C156.067 152.863 155.81 153.076 155.619 153.337C155.427 153.598 155.332 153.867 155.332 154.142V159H154.31ZM168.228 162.64V151.832H169.25V153.316C169.539 152.779 169.943 152.362 170.461 152.063C170.983 151.76 171.562 151.608 172.197 151.608C172.883 151.608 173.496 151.774 174.038 152.105C174.579 152.436 175.006 152.889 175.319 153.463C175.631 154.032 175.788 154.683 175.788 155.416C175.788 156.139 175.631 156.79 175.319 157.369C175.011 157.943 174.586 158.396 174.045 158.727C173.508 159.058 172.897 159.224 172.211 159.224C171.585 159.224 171.011 159.07 170.489 158.762C169.966 158.454 169.553 158.029 169.25 157.488V162.64H168.228ZM171.973 158.335C172.509 158.335 172.985 158.211 173.401 157.964C173.816 157.712 174.14 157.367 174.374 156.928C174.612 156.489 174.731 155.988 174.731 155.423C174.731 154.854 174.612 154.35 174.374 153.911C174.136 153.468 173.809 153.122 173.394 152.875C172.983 152.623 172.509 152.497 171.973 152.497C171.436 152.497 170.96 152.623 170.545 152.875C170.129 153.122 169.803 153.465 169.565 153.904C169.327 154.343 169.208 154.847 169.208 155.416C169.208 155.981 169.327 156.485 169.565 156.928C169.803 157.367 170.129 157.712 170.545 157.964C170.965 158.211 171.441 158.335 171.973 158.335ZM181.713 159.224C180.966 159.224 180.292 159.063 179.69 158.741C179.093 158.419 178.619 157.971 178.269 157.397C177.919 156.823 177.744 156.163 177.744 155.416C177.744 154.665 177.919 154.004 178.269 153.435C178.619 152.861 179.093 152.413 179.69 152.091C180.287 151.769 180.962 151.608 181.713 151.608C182.46 151.608 183.132 151.769 183.729 152.091C184.331 152.413 184.807 152.861 185.157 153.435C185.507 154.004 185.682 154.665 185.682 155.416C185.682 156.163 185.507 156.823 185.157 157.397C184.807 157.971 184.331 158.419 183.729 158.741C183.132 159.063 182.46 159.224 181.713 159.224ZM181.713 158.314C182.273 158.314 182.772 158.19 183.211 157.943C183.65 157.696 183.995 157.355 184.247 156.921C184.499 156.482 184.625 155.981 184.625 155.416C184.625 154.851 184.499 154.352 184.247 153.918C183.995 153.479 183.65 153.136 183.211 152.889C182.772 152.642 182.273 152.518 181.713 152.518C181.153 152.518 180.654 152.642 180.215 152.889C179.776 153.136 179.431 153.479 179.179 153.918C178.927 154.352 178.801 154.851 178.801 155.416C178.801 155.976 178.927 156.475 179.179 156.914C179.431 157.353 179.776 157.696 180.215 157.943C180.654 158.19 181.153 158.314 181.713 158.314ZM188.12 159V151.832H189.142V152.889C189.371 152.469 189.665 152.152 190.024 151.937C190.388 151.718 190.808 151.608 191.284 151.608C191.494 151.608 191.707 151.631 191.921 151.678C192.141 151.725 192.33 151.785 192.488 151.86L192.068 152.721C191.928 152.651 191.767 152.597 191.585 152.56C191.408 152.523 191.238 152.504 191.074 152.504C190.743 152.504 190.43 152.588 190.136 152.756C189.842 152.924 189.602 153.143 189.415 153.414C189.233 153.68 189.142 153.965 189.142 154.268V159H188.12ZM196.153 159.224C195.617 159.224 195.199 159.044 194.9 158.685C194.606 158.321 194.459 157.81 194.459 157.152V152.602H193.731V151.832H194.459V149.151H195.481V151.832H197.266V152.602H195.481V157.096C195.481 157.493 195.558 157.796 195.712 158.006C195.866 158.216 196.086 158.321 196.37 158.321C196.646 158.321 196.888 158.244 197.098 158.09L197.357 158.902C197.199 159 197.012 159.077 196.797 159.133C196.583 159.194 196.368 159.224 196.153 159.224ZM202.623 159.224C201.951 159.224 201.344 159.061 200.803 158.734C200.266 158.403 199.839 157.95 199.522 157.376C199.209 156.802 199.053 156.146 199.053 155.409C199.053 154.681 199.207 154.032 199.515 153.463C199.827 152.889 200.252 152.436 200.789 152.105C201.33 151.774 201.941 151.608 202.623 151.608C203.271 151.608 203.859 151.76 204.387 152.063C204.914 152.366 205.315 152.786 205.591 153.323V151.832H206.613V159H205.591V157.488C205.283 158.029 204.87 158.454 204.352 158.762C203.834 159.07 203.257 159.224 202.623 159.224ZM202.875 158.335C203.411 158.335 203.885 158.211 204.296 157.964C204.711 157.712 205.038 157.367 205.276 156.928C205.514 156.485 205.633 155.981 205.633 155.416C205.633 154.847 205.514 154.343 205.276 153.904C205.042 153.465 204.718 153.122 204.303 152.875C203.887 152.623 203.411 152.497 202.875 152.497C202.338 152.497 201.862 152.623 201.447 152.875C201.031 153.122 200.705 153.465 200.467 153.904C200.229 154.343 200.11 154.847 200.11 155.416C200.11 155.981 200.229 156.485 200.467 156.928C200.705 157.367 201.031 157.712 201.447 157.964C201.862 158.211 202.338 158.335 202.875 158.335ZM209.626 159V151.832H210.648V152.812C210.844 152.476 211.147 152.191 211.558 151.958C211.969 151.725 212.47 151.608 213.063 151.608C213.618 151.608 214.097 151.722 214.498 151.951C214.899 152.18 215.207 152.513 215.422 152.952C215.637 153.386 215.744 153.911 215.744 154.527V159H214.722V154.723C214.722 153.981 214.549 153.416 214.204 153.029C213.859 152.637 213.371 152.441 212.741 152.441C212.302 152.441 211.927 152.53 211.614 152.707C211.306 152.88 211.068 153.111 210.9 153.4C210.732 153.685 210.648 153.995 210.648 154.331V159H209.626ZM221.954 159.224C221.418 159.224 220.914 159.131 220.442 158.944C219.971 158.753 219.558 158.484 219.203 158.139C218.849 157.794 218.571 157.39 218.37 156.928C218.17 156.466 218.069 155.962 218.069 155.416C218.069 154.875 218.167 154.373 218.363 153.911C218.559 153.449 218.832 153.045 219.182 152.7C219.537 152.355 219.95 152.086 220.421 151.895C220.893 151.704 221.404 151.608 221.954 151.608C222.426 151.608 222.874 151.678 223.298 151.818C223.723 151.958 224.089 152.152 224.397 152.399L223.977 153.085C223.455 152.679 222.82 152.476 222.073 152.476C221.485 152.476 220.967 152.607 220.519 152.868C220.076 153.125 219.731 153.477 219.483 153.925C219.236 154.368 219.112 154.865 219.112 155.416C219.112 155.971 219.238 156.473 219.49 156.921C219.742 157.364 220.092 157.714 220.54 157.971C220.988 158.228 221.502 158.356 222.08 158.356C222.444 158.356 222.787 158.305 223.109 158.202C223.436 158.095 223.723 157.943 223.97 157.747L224.397 158.433C224.085 158.676 223.718 158.867 223.298 159.007C222.878 159.152 222.43 159.224 221.954 159.224ZM226.586 159V151.832H227.608V159H226.586ZM227.104 150.397C226.978 150.397 226.864 150.367 226.761 150.306C226.663 150.245 226.584 150.164 226.523 150.061C226.462 149.958 226.432 149.846 226.432 149.725C226.432 149.604 226.462 149.494 226.523 149.396C226.584 149.293 226.663 149.212 226.761 149.151C226.864 149.09 226.978 149.06 227.104 149.06C227.225 149.06 227.335 149.09 227.433 149.151C227.531 149.212 227.61 149.291 227.671 149.389C227.736 149.487 227.769 149.599 227.769 149.725C227.769 149.846 227.736 149.958 227.671 150.061C227.61 150.164 227.531 150.245 227.433 150.306C227.335 150.367 227.225 150.397 227.104 150.397ZM233.685 159.224C233.013 159.224 232.406 159.061 231.865 158.734C231.328 158.403 230.901 157.95 230.584 157.376C230.271 156.802 230.115 156.146 230.115 155.409C230.115 154.681 230.269 154.032 230.577 153.463C230.89 152.889 231.314 152.436 231.851 152.105C232.392 151.774 233.004 151.608 233.685 151.608C234.334 151.608 234.922 151.76 235.449 152.063C235.976 152.366 236.378 152.786 236.653 153.323V151.832H237.675V159H236.653V157.488C236.345 158.029 235.932 158.454 235.414 158.762C234.896 159.07 234.32 159.224 233.685 159.224ZM233.937 158.335C234.474 158.335 234.947 158.211 235.358 157.964C235.773 157.712 236.1 157.367 236.338 156.928C236.576 156.485 236.695 155.981 236.695 155.416C236.695 154.847 236.576 154.343 236.338 153.904C236.105 153.465 235.78 153.122 235.365 152.875C234.95 152.623 234.474 152.497 233.937 152.497C233.4 152.497 232.924 152.623 232.509 152.875C232.094 153.122 231.767 153.465 231.529 153.904C231.291 154.343 231.172 154.847 231.172 155.416C231.172 155.981 231.291 156.485 231.529 156.928C231.767 157.367 232.094 157.712 232.509 157.964C232.924 158.211 233.4 158.335 233.937 158.335ZM247.343 159.224C246.671 159.224 246.065 159.061 245.523 158.734C244.987 158.407 244.56 157.957 244.242 157.383C243.93 156.809 243.773 156.153 243.773 155.416C243.773 154.683 243.93 154.032 244.242 153.463C244.555 152.889 244.98 152.436 245.516 152.105C246.058 151.774 246.671 151.608 247.357 151.608C247.997 151.608 248.575 151.76 249.093 152.063C249.611 152.366 250.017 152.786 250.311 153.323V146.953H251.333V159H250.311V157.488C250.008 158.029 249.595 158.454 249.072 158.762C248.554 159.07 247.978 159.224 247.343 159.224ZM247.588 158.335C248.125 158.335 248.601 158.211 249.016 157.964C249.432 157.712 249.758 157.367 249.996 156.928C250.234 156.485 250.353 155.983 250.353 155.423C250.353 154.854 250.234 154.35 249.996 153.911C249.763 153.468 249.436 153.122 249.016 152.875C248.601 152.623 248.125 152.497 247.588 152.497C247.056 152.497 246.583 152.623 246.167 152.875C245.752 153.122 245.425 153.468 245.187 153.911C244.949 154.35 244.83 154.854 244.83 155.423C244.83 155.988 244.947 156.489 245.18 156.928C245.418 157.367 245.745 157.712 246.16 157.964C246.58 158.211 247.056 158.335 247.588 158.335ZM257.707 159.224C256.955 159.224 256.283 159.058 255.691 158.727C255.103 158.396 254.641 157.945 254.305 157.376C253.969 156.802 253.801 156.158 253.801 155.444C253.801 154.907 253.896 154.408 254.088 153.946C254.284 153.479 254.554 153.071 254.9 152.721C255.245 152.371 255.646 152.098 256.104 151.902C256.561 151.706 257.049 151.608 257.567 151.608C258.276 151.608 258.906 151.764 259.457 152.077C260.012 152.385 260.451 152.812 260.773 153.358C261.099 153.904 261.272 154.534 261.291 155.248C261.291 155.304 261.288 155.351 261.284 155.388C261.284 155.421 261.279 155.463 261.27 155.514H254.816C254.816 156.074 254.942 156.569 255.194 156.998C255.446 157.427 255.791 157.766 256.23 158.013C256.673 158.256 257.179 158.377 257.749 158.377C258.29 158.377 258.775 158.265 259.205 158.041C259.639 157.812 260 157.486 260.29 157.061L261.046 157.467C260.705 158.022 260.241 158.454 259.653 158.762C259.069 159.07 258.421 159.224 257.707 159.224ZM254.872 154.744H260.269C260.208 154.296 260.052 153.902 259.8 153.561C259.548 153.216 259.228 152.945 258.841 152.749C258.458 152.553 258.038 152.455 257.581 152.455C257.109 152.455 256.68 152.553 256.293 152.749C255.905 152.94 255.586 153.209 255.334 153.554C255.086 153.895 254.932 154.291 254.872 154.744ZM267.294 159V146.96H268.316V159H267.294ZM274.386 159.224C273.714 159.224 273.108 159.061 272.566 158.734C272.03 158.403 271.603 157.95 271.285 157.376C270.973 156.802 270.816 156.146 270.816 155.409C270.816 154.681 270.97 154.032 271.278 153.463C271.591 152.889 272.016 152.436 272.552 152.105C273.094 151.774 273.705 151.608 274.386 151.608C275.035 151.608 275.623 151.76 276.15 152.063C276.678 152.366 277.079 152.786 277.354 153.323V151.832H278.376V159H277.354V157.488C277.046 158.029 276.633 158.454 276.115 158.762C275.597 159.07 275.021 159.224 274.386 159.224ZM274.638 158.335C275.175 158.335 275.649 158.211 276.059 157.964C276.475 157.712 276.801 157.367 277.039 156.928C277.277 156.485 277.396 155.981 277.396 155.416C277.396 154.847 277.277 154.343 277.039 153.904C276.806 153.465 276.482 153.122 276.066 152.875C275.651 152.623 275.175 152.497 274.638 152.497C274.102 152.497 273.626 152.623 273.21 152.875C272.795 153.122 272.468 153.465 272.23 153.904C271.992 154.343 271.873 154.847 271.873 155.416C271.873 155.981 271.992 156.485 272.23 156.928C272.468 157.367 272.795 157.712 273.21 157.964C273.626 158.211 274.102 158.335 274.638 158.335ZM87.6504 175.224C87.0158 175.224 86.4371 175.07 85.9144 174.762C85.3918 174.454 84.9788 174.029 84.6754 173.488V175H83.6534V162.96H84.6754V169.323C84.9694 168.786 85.3754 168.366 85.8934 168.063C86.4114 167.76 86.9901 167.608 87.6294 167.608C88.3154 167.608 88.9291 167.774 89.4704 168.105C90.0118 168.436 90.4364 168.889 90.7444 169.463C91.0571 170.032 91.2134 170.683 91.2134 171.416C91.2134 172.153 91.0548 172.809 90.7374 173.383C90.4248 173.957 90.0001 174.407 89.4634 174.734C88.9268 175.061 88.3224 175.224 87.6504 175.224ZM87.3984 174.335C87.9351 174.335 88.4111 174.211 88.8264 173.964C89.2418 173.712 89.5661 173.367 89.7994 172.928C90.0374 172.485 90.1564 171.983 90.1564 171.423C90.1564 170.854 90.0374 170.35 89.7994 169.911C89.5614 169.468 89.2348 169.122 88.8194 168.875C88.4088 168.623 87.9351 168.497 87.3984 168.497C86.8618 168.497 86.3858 168.623 85.9704 168.875C85.5551 169.122 85.2284 169.468 84.9904 169.911C84.7524 170.35 84.6334 170.854 84.6334 171.423C84.6334 171.983 84.7501 172.485 84.9834 172.928C85.2214 173.367 85.5481 173.712 85.9634 173.964C86.3834 174.211 86.8618 174.335 87.3984 174.335ZM96.6139 175.224C95.5266 175.224 94.7496 174.979 94.2829 174.489C93.8163 173.999 93.5829 173.18 93.5829 172.032V167.832H94.6049V171.85C94.6049 172.755 94.7589 173.402 95.0669 173.789C95.3749 174.172 95.8906 174.363 96.6139 174.363C97.3419 174.363 97.8576 174.172 98.1609 173.789C98.4689 173.402 98.6229 172.755 98.6229 171.85V167.832H99.6449V172.032C99.6449 173.18 99.4116 173.999 98.9449 174.489C98.4829 174.979 97.7059 175.224 96.6139 175.224ZM105.894 175.224C105.143 175.224 104.471 175.058 103.878 174.727C103.29 174.396 102.828 173.945 102.492 173.376C102.156 172.802 101.988 172.158 101.988 171.444C101.988 170.907 102.084 170.408 102.275 169.946C102.471 169.479 102.742 169.071 103.087 168.721C103.433 168.371 103.834 168.098 104.291 167.902C104.749 167.706 105.236 167.608 105.754 167.608C106.464 167.608 107.094 167.764 107.644 168.077C108.2 168.385 108.638 168.812 108.96 169.358C109.287 169.904 109.46 170.534 109.478 171.248C109.478 171.304 109.476 171.351 109.471 171.388C109.471 171.421 109.467 171.463 109.457 171.514H103.003C103.003 172.074 103.129 172.569 103.381 172.998C103.633 173.427 103.979 173.766 104.417 174.013C104.861 174.256 105.367 174.377 105.936 174.377C106.478 174.377 106.963 174.265 107.392 174.041C107.826 173.812 108.188 173.486 108.477 173.061L109.233 173.467C108.893 174.022 108.428 174.454 107.84 174.762C107.257 175.07 106.608 175.224 105.894 175.224ZM103.059 170.744H108.456C108.396 170.296 108.239 169.902 107.987 169.561C107.735 169.216 107.416 168.945 107.028 168.749C106.646 168.553 106.226 168.455 105.768 168.455C105.297 168.455 104.868 168.553 104.48 168.749C104.093 168.94 103.773 169.209 103.521 169.554C103.274 169.895 103.12 170.291 103.059 170.744ZM111.859 175V167.832H112.881V168.812C113.077 168.476 113.38 168.191 113.791 167.958C114.201 167.725 114.703 167.608 115.296 167.608C115.851 167.608 116.329 167.722 116.731 167.951C117.132 168.18 117.44 168.513 117.655 168.952C117.869 169.386 117.977 169.911 117.977 170.527V175H116.955V170.723C116.955 169.981 116.782 169.416 116.437 169.029C116.091 168.637 115.604 168.441 114.974 168.441C114.535 168.441 114.159 168.53 113.847 168.707C113.539 168.88 113.301 169.111 113.133 169.4C112.965 169.685 112.881 169.995 112.881 170.331V175H111.859ZM123.914 175.224C123.242 175.224 122.635 175.061 122.094 174.734C121.557 174.403 121.13 173.95 120.813 173.376C120.5 172.802 120.344 172.146 120.344 171.409C120.344 170.681 120.498 170.032 120.806 169.463C121.118 168.889 121.543 168.436 122.08 168.105C122.621 167.774 123.232 167.608 123.914 167.608C124.562 167.608 125.15 167.76 125.678 168.063C126.205 168.366 126.606 168.786 126.882 169.323V167.832H127.904V175H126.882V173.488C126.574 174.029 126.161 174.454 125.643 174.762C125.125 175.07 124.548 175.224 123.914 175.224ZM124.166 174.335C124.702 174.335 125.176 174.211 125.587 173.964C126.002 173.712 126.329 173.367 126.567 172.928C126.805 172.485 126.924 171.981 126.924 171.416C126.924 170.847 126.805 170.343 126.567 169.904C126.333 169.465 126.009 169.122 125.594 168.875C125.178 168.623 124.702 168.497 124.166 168.497C123.629 168.497 123.153 168.623 122.738 168.875C122.322 169.122 121.996 169.465 121.758 169.904C121.52 170.343 121.401 170.847 121.401 171.416C121.401 171.981 121.52 172.485 121.758 172.928C121.996 173.367 122.322 173.712 122.738 173.964C123.153 174.211 123.629 174.335 124.166 174.335ZM137.572 175.224C136.9 175.224 136.293 175.061 135.752 174.734C135.215 174.403 134.788 173.95 134.471 173.376C134.158 172.802 134.002 172.146 134.002 171.409C134.002 170.681 134.156 170.032 134.464 169.463C134.776 168.889 135.201 168.436 135.738 168.105C136.279 167.774 136.89 167.608 137.572 167.608C138.22 167.608 138.808 167.76 139.336 168.063C139.863 168.366 140.264 168.786 140.54 169.323V167.832H141.562V175H140.54V173.488C140.232 174.029 139.819 174.454 139.301 174.762C138.783 175.07 138.206 175.224 137.572 175.224ZM137.824 174.335C138.36 174.335 138.834 174.211 139.245 173.964C139.66 173.712 139.987 173.367 140.225 172.928C140.463 172.485 140.582 171.981 140.582 171.416C140.582 170.847 140.463 170.343 140.225 169.904C139.991 169.465 139.667 169.122 139.252 168.875C138.836 168.623 138.36 168.497 137.824 168.497C137.287 168.497 136.811 168.623 136.396 168.875C135.98 169.122 135.654 169.465 135.416 169.904C135.178 170.343 135.059 170.847 135.059 171.416C135.059 171.981 135.178 172.485 135.416 172.928C135.654 173.367 135.98 173.712 136.396 173.964C136.811 174.211 137.287 174.335 137.824 174.335ZM144.575 175V162.96H145.597V175H144.575ZM148.602 175V167.832H149.624V175H148.602ZM149.12 166.397C148.994 166.397 148.879 166.367 148.777 166.306C148.679 166.245 148.599 166.164 148.539 166.061C148.478 165.958 148.448 165.846 148.448 165.725C148.448 165.604 148.478 165.494 148.539 165.396C148.599 165.293 148.679 165.212 148.777 165.151C148.879 165.09 148.994 165.06 149.12 165.06C149.241 165.06 149.351 165.09 149.449 165.151C149.547 165.212 149.626 165.291 149.687 165.389C149.752 165.487 149.785 165.599 149.785 165.725C149.785 165.846 149.752 165.958 149.687 166.061C149.626 166.164 149.547 166.245 149.449 166.306C149.351 166.367 149.241 166.397 149.12 166.397ZM152.642 175V167.832H153.664V168.812C153.948 168.415 154.289 168.117 154.686 167.916C155.082 167.711 155.526 167.608 156.016 167.608C156.604 167.608 157.115 167.743 157.549 168.014C157.987 168.285 158.291 168.653 158.459 169.12C158.734 168.663 159.084 168.296 159.509 168.021C159.938 167.746 160.447 167.608 161.035 167.608C161.543 167.608 161.996 167.713 162.393 167.923C162.789 168.128 163.1 168.432 163.324 168.833C163.552 169.23 163.667 169.715 163.667 170.289V175H162.645V170.576C162.645 169.923 162.474 169.405 162.134 169.022C161.793 168.639 161.338 168.448 160.769 168.448C160.377 168.448 160.022 168.534 159.705 168.707C159.387 168.88 159.135 169.104 158.949 169.379C158.762 169.65 158.669 169.93 158.669 170.219V175H157.647V170.471C157.647 169.85 157.476 169.358 157.136 168.994C156.8 168.63 156.354 168.448 155.799 168.448C155.407 168.448 155.047 168.532 154.721 168.7C154.399 168.863 154.142 169.076 153.951 169.337C153.759 169.598 153.664 169.867 153.664 170.142V175H152.642ZM169.92 175.224C169.168 175.224 168.496 175.058 167.904 174.727C167.316 174.396 166.854 173.945 166.518 173.376C166.182 172.802 166.014 172.158 166.014 171.444C166.014 170.907 166.109 170.408 166.301 169.946C166.497 169.479 166.767 169.071 167.113 168.721C167.458 168.371 167.859 168.098 168.317 167.902C168.774 167.706 169.262 167.608 169.78 167.608C170.489 167.608 171.119 167.764 171.67 168.077C172.225 168.385 172.664 168.812 172.986 169.358C173.312 169.904 173.485 170.534 173.504 171.248C173.504 171.304 173.501 171.351 173.497 171.388C173.497 171.421 173.492 171.463 173.483 171.514H167.029C167.029 172.074 167.155 172.569 167.407 172.998C167.659 173.427 168.004 173.766 168.443 174.013C168.886 174.256 169.392 174.377 169.962 174.377C170.503 174.377 170.988 174.265 171.418 174.041C171.852 173.812 172.213 173.486 172.503 173.061L173.259 173.467C172.918 174.022 172.454 174.454 171.866 174.762C171.282 175.07 170.634 175.224 169.92 175.224ZM167.085 170.744H172.482C172.421 170.296 172.265 169.902 172.013 169.561C171.761 169.216 171.441 168.945 171.054 168.749C170.671 168.553 170.251 168.455 169.794 168.455C169.322 168.455 168.893 168.553 168.506 168.749C168.118 168.94 167.799 169.209 167.547 169.554C167.299 169.895 167.145 170.291 167.085 170.744ZM175.884 175V167.832H176.906V168.812C177.102 168.476 177.405 168.191 177.816 167.958C178.227 167.725 178.728 167.608 179.321 167.608C179.876 167.608 180.355 167.722 180.756 167.951C181.157 168.18 181.465 168.513 181.68 168.952C181.895 169.386 182.002 169.911 182.002 170.527V175H180.98V170.723C180.98 169.981 180.807 169.416 180.462 169.029C180.117 168.637 179.629 168.441 178.999 168.441C178.56 168.441 178.185 168.53 177.872 168.707C177.564 168.88 177.326 169.111 177.158 169.4C176.99 169.685 176.906 169.995 176.906 170.331V175H175.884ZM186.583 175.224C186.046 175.224 185.629 175.044 185.33 174.685C185.036 174.321 184.889 173.81 184.889 173.152V168.602H184.161V167.832H184.889V165.151H185.911V167.832H187.696V168.602H185.911V173.096C185.911 173.493 185.988 173.796 186.142 174.006C186.296 174.216 186.515 174.321 186.8 174.321C187.075 174.321 187.318 174.244 187.528 174.09L187.787 174.902C187.628 175 187.442 175.077 187.227 175.133C187.012 175.194 186.798 175.224 186.583 175.224ZM193.052 175.224C192.38 175.224 191.774 175.061 191.232 174.734C190.696 174.403 190.269 173.95 189.951 173.376C189.639 172.802 189.482 172.146 189.482 171.409C189.482 170.681 189.636 170.032 189.944 169.463C190.257 168.889 190.682 168.436 191.218 168.105C191.76 167.774 192.371 167.608 193.052 167.608C193.701 167.608 194.289 167.76 194.816 168.063C195.344 168.366 195.745 168.786 196.02 169.323V167.832H197.042V175H196.02V173.488C195.712 174.029 195.299 174.454 194.781 174.762C194.263 175.07 193.687 175.224 193.052 175.224ZM193.304 174.335C193.841 174.335 194.315 174.211 194.725 173.964C195.141 173.712 195.467 173.367 195.705 172.928C195.943 172.485 196.062 171.981 196.062 171.416C196.062 170.847 195.943 170.343 195.705 169.904C195.472 169.465 195.148 169.122 194.732 168.875C194.317 168.623 193.841 168.497 193.304 168.497C192.768 168.497 192.292 168.623 191.876 168.875C191.461 169.122 191.134 169.465 190.896 169.904C190.658 170.343 190.539 170.847 190.539 171.416C190.539 171.981 190.658 172.485 190.896 172.928C191.134 173.367 191.461 173.712 191.876 173.964C192.292 174.211 192.768 174.335 193.304 174.335ZM203.388 175.224C202.851 175.224 202.347 175.131 201.876 174.944C201.404 174.753 200.991 174.484 200.637 174.139C200.282 173.794 200.004 173.39 199.804 172.928C199.603 172.466 199.503 171.962 199.503 171.416C199.503 170.875 199.601 170.373 199.797 169.911C199.993 169.449 200.266 169.045 200.616 168.7C200.97 168.355 201.383 168.086 201.855 167.895C202.326 167.704 202.837 167.608 203.388 167.608C203.859 167.608 204.307 167.678 204.732 167.818C205.156 167.958 205.523 168.152 205.831 168.399L205.411 169.085C204.888 168.679 204.253 168.476 203.507 168.476C202.919 168.476 202.401 168.607 201.953 168.868C201.509 169.125 201.164 169.477 200.917 169.925C200.669 170.368 200.546 170.865 200.546 171.416C200.546 171.971 200.672 172.473 200.924 172.921C201.176 173.364 201.526 173.714 201.974 173.971C202.422 174.228 202.935 174.356 203.514 174.356C203.878 174.356 204.221 174.305 204.543 174.202C204.869 174.095 205.156 173.943 205.404 173.747L205.831 174.433C205.518 174.676 205.152 174.867 204.732 175.007C204.312 175.152 203.864 175.224 203.388 175.224ZM208.019 175V167.832H209.041V175H208.019ZM208.537 166.397C208.411 166.397 208.297 166.367 208.194 166.306C208.096 166.245 208.017 166.164 207.956 166.061C207.896 165.958 207.865 165.846 207.865 165.725C207.865 165.604 207.896 165.494 207.956 165.396C208.017 165.293 208.096 165.212 208.194 165.151C208.297 165.09 208.411 165.06 208.537 165.06C208.659 165.06 208.768 165.09 208.866 165.151C208.964 165.212 209.044 165.291 209.104 165.389C209.17 165.487 209.202 165.599 209.202 165.725C209.202 165.846 209.17 165.958 209.104 166.061C209.044 166.164 208.964 166.245 208.866 166.306C208.768 166.367 208.659 166.397 208.537 166.397ZM215.483 175.224C214.736 175.224 214.062 175.063 213.46 174.741C212.862 174.419 212.389 173.971 212.039 173.397C211.689 172.823 211.514 172.163 211.514 171.416C211.514 170.665 211.689 170.004 212.039 169.435C212.389 168.861 212.862 168.413 213.46 168.091C214.057 167.769 214.731 167.608 215.483 167.608C216.229 167.608 216.901 167.769 217.499 168.091C218.101 168.413 218.577 168.861 218.927 169.435C219.277 170.004 219.452 170.665 219.452 171.416C219.452 172.163 219.277 172.823 218.927 173.397C218.577 173.971 218.101 174.419 217.499 174.741C216.901 175.063 216.229 175.224 215.483 175.224ZM215.483 174.314C216.043 174.314 216.542 174.19 216.981 173.943C217.419 173.696 217.765 173.355 218.017 172.921C218.269 172.482 218.395 171.981 218.395 171.416C218.395 170.851 218.269 170.352 218.017 169.918C217.765 169.479 217.419 169.136 216.981 168.889C216.542 168.642 216.043 168.518 215.483 168.518C214.923 168.518 214.423 168.642 213.985 168.889C213.546 169.136 213.201 169.479 212.949 169.918C212.697 170.352 212.571 170.851 212.571 171.416C212.571 171.976 212.697 172.475 212.949 172.914C213.201 173.353 213.546 173.696 213.985 173.943C214.423 174.19 214.923 174.314 215.483 174.314ZM215.406 166.677L214.881 166.292L216.211 163.639L217.016 164.213L215.406 166.677ZM221.917 175V167.832H222.939V168.812C223.135 168.476 223.438 168.191 223.849 167.958C224.26 167.725 224.761 167.608 225.354 167.608C225.909 167.608 226.388 167.722 226.789 167.951C227.19 168.18 227.498 168.513 227.713 168.952C227.928 169.386 228.035 169.911 228.035 170.527V175H227.013V170.723C227.013 169.981 226.84 169.416 226.495 169.029C226.15 168.637 225.662 168.441 225.032 168.441C224.593 168.441 224.218 168.53 223.905 168.707C223.597 168.88 223.359 169.111 223.191 169.4C223.023 169.685 222.939 169.995 222.939 170.331V175H221.917ZM237.568 175.224C236.896 175.224 236.289 175.061 235.748 174.734C235.211 174.407 234.784 173.957 234.467 173.383C234.154 172.809 233.998 172.153 233.998 171.416C233.998 170.683 234.154 170.032 234.467 169.463C234.78 168.889 235.204 168.436 235.741 168.105C236.282 167.774 236.896 167.608 237.582 167.608C238.221 167.608 238.8 167.76 239.318 168.063C239.836 168.366 240.242 168.786 240.536 169.323V162.953H241.558V175H240.536V173.488C240.233 174.029 239.82 174.454 239.297 174.762C238.779 175.07 238.203 175.224 237.568 175.224ZM237.813 174.335C238.35 174.335 238.826 174.211 239.241 173.964C239.656 173.712 239.983 173.367 240.221 172.928C240.459 172.485 240.578 171.983 240.578 171.423C240.578 170.854 240.459 170.35 240.221 169.911C239.988 169.468 239.661 169.122 239.241 168.875C238.826 168.623 238.35 168.497 237.813 168.497C237.281 168.497 236.807 168.623 236.392 168.875C235.977 169.122 235.65 169.468 235.412 169.911C235.174 170.35 235.055 170.854 235.055 171.423C235.055 171.988 235.172 172.489 235.405 172.928C235.643 173.367 235.97 173.712 236.385 173.964C236.805 174.211 237.281 174.335 237.813 174.335ZM244.564 175V167.832H245.586V175H244.564ZM245.082 166.397C244.956 166.397 244.842 166.367 244.739 166.306C244.641 166.245 244.562 166.164 244.501 166.061C244.441 165.958 244.41 165.846 244.41 165.725C244.41 165.604 244.441 165.494 244.501 165.396C244.562 165.293 244.641 165.212 244.739 165.151C244.842 165.09 244.956 165.06 245.082 165.06C245.204 165.06 245.313 165.09 245.411 165.151C245.509 165.212 245.589 165.291 245.649 165.389C245.715 165.487 245.747 165.599 245.747 165.725C245.747 165.846 245.715 165.958 245.649 166.061C245.589 166.164 245.509 166.245 245.411 166.306C245.313 166.367 245.204 166.397 245.082 166.397ZM251.664 175.224C250.992 175.224 250.385 175.061 249.844 174.734C249.307 174.403 248.88 173.95 248.563 173.376C248.25 172.802 248.094 172.146 248.094 171.409C248.094 170.681 248.248 170.032 248.556 169.463C248.868 168.889 249.293 168.436 249.83 168.105C250.371 167.774 250.982 167.608 251.664 167.608C252.312 167.608 252.9 167.76 253.428 168.063C253.955 168.366 254.356 168.786 254.632 169.323V167.832H255.654V175H254.632V173.488C254.324 174.029 253.911 174.454 253.393 174.762C252.875 175.07 252.298 175.224 251.664 175.224ZM251.916 174.335C252.452 174.335 252.926 174.211 253.337 173.964C253.752 173.712 254.079 173.367 254.317 172.928C254.555 172.485 254.674 171.981 254.674 171.416C254.674 170.847 254.555 170.343 254.317 169.904C254.083 169.465 253.759 169.122 253.344 168.875C252.928 168.623 252.452 168.497 251.916 168.497C251.379 168.497 250.903 168.623 250.488 168.875C250.072 169.122 249.746 169.465 249.508 169.904C249.27 170.343 249.151 170.847 249.151 171.416C249.151 171.981 249.27 172.485 249.508 172.928C249.746 173.367 250.072 173.712 250.488 173.964C250.903 174.211 251.379 174.335 251.916 174.335ZM258.667 175V167.832H259.689V168.889C259.918 168.469 260.212 168.152 260.571 167.937C260.935 167.718 261.355 167.608 261.831 167.608C262.041 167.608 262.253 167.631 262.468 167.678C262.687 167.725 262.876 167.785 263.035 167.86L262.615 168.721C262.475 168.651 262.314 168.597 262.132 168.56C261.955 168.523 261.784 168.504 261.621 168.504C261.29 168.504 260.977 168.588 260.683 168.756C260.389 168.924 260.149 169.143 259.962 169.414C259.78 169.68 259.689 169.965 259.689 170.268V175H258.667ZM264.908 175V167.832H265.93V175H264.908ZM265.426 166.397C265.3 166.397 265.186 166.367 265.083 166.306C264.985 166.245 264.906 166.164 264.845 166.061C264.784 165.958 264.754 165.846 264.754 165.725C264.754 165.604 264.784 165.494 264.845 165.396C264.906 165.293 264.985 165.212 265.083 165.151C265.186 165.09 265.3 165.06 265.426 165.06C265.547 165.06 265.657 165.09 265.755 165.151C265.853 165.212 265.932 165.291 265.993 165.389C266.058 165.487 266.091 165.599 266.091 165.725C266.091 165.846 266.058 165.958 265.993 166.061C265.932 166.164 265.853 166.245 265.755 166.306C265.657 166.367 265.547 166.397 265.426 166.397ZM272.007 175.224C271.335 175.224 270.729 175.061 270.187 174.734C269.651 174.403 269.224 173.95 268.906 173.376C268.594 172.802 268.437 172.146 268.437 171.409C268.437 170.681 268.591 170.032 268.899 169.463C269.212 168.889 269.637 168.436 270.173 168.105C270.715 167.774 271.326 167.608 272.007 167.608C272.656 167.608 273.244 167.76 273.771 168.063C274.299 168.366 274.7 168.786 274.975 169.323V167.832H275.997V175H274.975V173.488C274.667 174.029 274.254 174.454 273.736 174.762C273.218 175.07 272.642 175.224 272.007 175.224ZM272.259 174.335C272.796 174.335 273.27 174.211 273.68 173.964C274.096 173.712 274.422 173.367 274.66 172.928C274.898 172.485 275.017 171.981 275.017 171.416C275.017 170.847 274.898 170.343 274.66 169.904C274.427 169.465 274.103 169.122 273.687 168.875C273.272 168.623 272.796 168.497 272.259 168.497C271.723 168.497 271.247 168.623 270.831 168.875C270.416 169.122 270.089 169.465 269.851 169.904C269.613 170.343 269.494 170.847 269.494 171.416C269.494 171.981 269.613 172.485 269.851 172.928C270.089 173.367 270.416 173.712 270.831 173.964C271.247 174.211 271.723 174.335 272.259 174.335ZM280.18 175.224C280.045 175.224 279.921 175.191 279.809 175.126C279.702 175.061 279.615 174.974 279.55 174.867C279.489 174.755 279.459 174.634 279.459 174.503C279.459 174.372 279.489 174.253 279.55 174.146C279.615 174.039 279.704 173.952 279.816 173.887C279.928 173.822 280.047 173.789 280.173 173.789C280.308 173.789 280.43 173.822 280.537 173.887C280.644 173.952 280.728 174.039 280.789 174.146C280.854 174.253 280.887 174.372 280.887 174.503C280.887 174.634 280.854 174.755 280.789 174.867C280.728 174.974 280.644 175.061 280.537 175.126C280.43 175.191 280.311 175.224 280.18 175.224Z" fill="black"/>
<rect x="129.25" y="86.25" width="114.5" height="19.5" rx="9.75" stroke="#C5D751" stroke-width="0.5"/>
<path d="M161.312 100.176C160.63 100.176 159.994 100.057 159.404 99.8185C158.817 99.5765 158.302 99.2428 157.858 98.8175C157.418 98.3885 157.075 97.888 156.83 97.316C156.584 96.744 156.461 96.128 156.461 95.468C156.461 94.808 156.584 94.192 156.83 93.62C157.079 93.048 157.424 92.5493 157.864 92.124C158.304 91.695 158.817 91.3613 159.404 91.123C159.99 90.881 160.625 90.76 161.307 90.76C161.871 90.76 162.403 90.8425 162.902 91.0075C163.404 91.1688 163.842 91.3907 164.216 91.673L163.71 92.6135C163.41 92.3715 163.058 92.1863 162.654 92.058C162.251 91.926 161.826 91.86 161.378 91.86C160.839 91.86 160.344 91.9517 159.893 92.135C159.442 92.3183 159.05 92.575 158.716 92.905C158.386 93.2313 158.13 93.6145 157.946 94.0545C157.767 94.4908 157.677 94.962 157.677 95.468C157.677 95.974 157.767 96.447 157.946 96.887C158.13 97.3233 158.386 97.7065 158.716 98.0365C159.05 98.3628 159.442 98.6177 159.893 98.801C160.344 98.9843 160.839 99.076 161.378 99.076C161.826 99.076 162.251 99.0118 162.654 98.8835C163.058 98.7515 163.41 98.5645 163.71 98.3225L164.216 99.263C163.85 99.538 163.417 99.7598 162.918 99.9285C162.42 100.094 161.884 100.176 161.312 100.176ZM166.036 100V90.925H168.61C169.212 90.925 169.732 91.0295 170.172 91.2385C170.612 91.4475 170.952 91.7482 171.19 92.1405C171.432 92.5292 171.553 92.9967 171.553 93.543C171.553 94.0197 171.459 94.4432 171.272 94.8135C171.085 95.1838 170.818 95.4863 170.469 95.721C170.125 95.9557 169.712 96.1097 169.232 96.183L172.235 100H170.816L168.005 96.2985H167.153V100H166.036ZM167.153 95.347H168.308C168.741 95.347 169.113 95.2755 169.424 95.1325C169.736 94.9895 169.976 94.786 170.145 94.522C170.314 94.2543 170.398 93.9372 170.398 93.5705C170.398 93.0242 170.213 92.597 169.842 92.289C169.476 91.981 168.964 91.827 168.308 91.827H167.153V95.347ZM173.91 100V90.925H178.624V91.9095H175.027V94.962H178.492V95.941H175.027V99.0155H178.624V100H173.91ZM180.097 100L183.688 90.925H184.728L188.319 100H187.115L186.108 97.3545H182.308L181.296 100H180.097ZM182.687 96.37H185.729L184.205 92.4155L182.687 96.37ZM191.364 100V91.926H188.735V90.925H195.115V91.926H192.48V100H191.364ZM197.017 100V90.925H198.133V100H197.017ZM202.852 100L199.046 90.925H200.311L203.292 98.317L206.273 90.925H207.532L203.726 100H202.852ZM207.425 100L211.017 90.925H212.056L215.648 100H214.443L213.437 97.3545H209.636L208.624 100H207.425ZM210.016 96.37H213.057L211.534 92.4155L210.016 96.37Z" fill="black"/>
<g clip-path="url(#clip0_1226_98)">
<g filter="url(#filter1_d_1226_98)">
<path d="M168.568 39.7959C168.048 39.5407 165.178 38.0707 164.274 34.9322C164.086 34.2783 163.326 31.2736 165.592 28.6825C165.86 28.3756 168.006 26.003 171.463 25.9809C173.856 25.9659 175.475 27.0856 177.056 28.1806C178.334 29.0653 182.756 32.1257 181.769 35.177C181.476 36.0803 180.873 35.8993 178.802 37.9467C176.699 40.026 176.711 40.7695 175.645 41.2786C174.526 41.8127 172.506 41.9537 168.568 39.7959Z" fill="#AEBC26"/>
<path d="M186.621 29.7176C186.927 29.2704 188.683 26.7956 192.287 26.0899C193.038 25.9428 196.487 25.3598 199.382 27.4153C199.725 27.6588 202.373 29.6024 202.303 32.6322C202.254 34.7288 200.932 36.1151 199.64 37.4708C198.593 38.5665 194.979 42.356 191.526 41.4072C190.504 41.1253 190.727 40.6045 188.448 38.7328C186.134 36.8332 185.285 36.8234 184.734 35.8759C184.156 34.8824 184.05 33.1091 186.621 29.7176Z" fill="#AEBC26"/>
<path d="M174.785 27.6416C174.796 27.1208 174.917 24.2078 177.645 22.0257C178.213 21.57 180.875 19.5632 184.552 20.0863C184.987 20.1485 188.388 20.6817 190.045 23.3414C191.192 25.1818 190.832 26.9603 190.479 28.6998C190.194 30.105 189.209 34.9667 185.674 35.6477C184.628 35.8495 184.523 35.2984 181.486 34.6679C178.4 34.0277 177.66 34.3883 176.642 33.8063C175.576 33.1963 174.479 31.7036 174.785 27.6416Z" fill="#C4D650"/>
<path d="M199.5 44.5754C199.607 37.704 193.432 32.039 185.638 31.7831C177.32 31.5071 170.436 37.4918 170.681 44.7821C170.698 45.274 170.748 45.7646 170.83 46.2515C170.858 46.4207 170.881 46.591 170.904 46.7612C170.971 47.3002 171.092 47.8331 171.266 48.3536C171.948 51.0188 175.815 65.8657 180.329 70.8925C181.005 71.6447 182.582 73.3988 184.541 73.3012C186.138 73.2198 187.296 72.0148 188.01 71.1932C194.777 63.4137 198.411 49.5303 198.661 48.9151C198.661 48.9121 198.674 48.8841 198.689 48.8451C198.741 48.711 198.85 48.4261 198.952 48.0639C199.004 47.8794 199.049 47.695 199.088 47.5105C199.127 47.3217 199.168 47.1329 199.211 46.9448C199.392 46.1647 199.489 45.3714 199.5 44.5754V44.5754Z" fill="#E37A39"/>
<path d="M173.095 55.5516C177.373 55.2131 180.542 52.045 180.174 48.4755C179.806 44.9059 176.04 42.2866 171.763 42.625C167.485 42.9635 164.316 46.1316 164.684 49.7012C165.052 53.2708 168.818 55.8901 173.095 55.5516Z" fill="#E2E2E2"/>
<path d="M175.133 54.1983C178.053 53.9672 180.217 51.8044 179.966 49.3674C179.715 46.9305 177.144 45.1423 174.224 45.3733C171.303 45.6044 169.14 47.7673 169.391 50.2042C169.642 52.6412 172.213 54.4294 175.133 54.1983Z" fill="black"/>
<path d="M173.289 47.1029C173.468 46.4679 172.564 45.7264 171.27 45.4465C169.975 45.1667 168.781 45.4546 168.602 46.0896C168.424 46.7245 169.328 47.4661 170.622 47.7459C171.916 48.0258 173.111 47.7379 173.289 47.1029Z" fill="white"/>
<path d="M197.255 54.1761C201.532 53.8377 204.708 50.7259 204.347 47.2258C203.986 43.7257 200.226 41.1627 195.949 41.5011C191.671 41.8396 188.496 44.9514 188.857 48.4515C189.217 51.9516 192.977 54.5146 197.255 54.1761Z" fill="#E2E2E2"/>
<path d="M194.621 52.6654C197.541 52.4343 199.709 50.3099 199.463 47.9204C199.216 45.5309 196.65 43.7812 193.729 44.0123C190.809 44.2433 188.642 46.3677 188.888 48.7572C189.134 51.1467 191.701 52.8965 194.621 52.6654Z" fill="black"/>
<path d="M198.141 46.6563C199.333 46.1345 200.034 45.246 199.706 44.6719C199.379 44.0978 198.147 44.0554 196.956 44.5773C195.764 45.0991 195.063 45.9875 195.39 46.5616C195.718 47.1357 196.949 47.1781 198.141 46.6563Z" fill="white"/>
</g>
</g>
<defs>
<filter id="filter0_d_1226_98" x="0" y="4" width="357" height="252" filterUnits="userSpaceOnUse" color-interpolation-filters="sRGB">
<feFlood flood-opacity="0" result="BackgroundImageFix"/>
<feColorMatrix in="SourceAlpha" type="matrix" values="0 0 0 0 0 0 0 0 0 0 0 0 0 0 0 0 0 0 127 0" result="hardAlpha"/>
<feOffset dy="12"/>
<feGaussianBlur stdDeviation="12"/>
<feComposite in2="hardAlpha" operator="out"/>
<feColorMatrix type="matrix" values="0 0 0 0 0.486275 0 0 0 0 0.419608 0 0 0 0 0.686275 0 0 0 0.22 0"/>
<feBlend mode="normal" in2="BackgroundImageFix" result="effect1_dropShadow_1226_98"/>
<feBlend mode="normal" in="SourceGraphic" in2="effect1_dropShadow_1226_98" result="shape"/>
</filter>
<filter id="filter1_d_1226_98" x="160" y="20" width="48.3748" height="61.3051" filterUnits="userSpaceOnUse" color-interpolation-filters="sRGB">
<feFlood flood-opacity="0" result="BackgroundImageFix"/>
<feColorMatrix in="SourceAlpha" type="matrix" values="0 0 0 0 0 0 0 0 0 0 0 0 0 0 0 0 0 0 127 0" result="hardAlpha"/>
<feOffset dy="4"/>
<feGaussianBlur stdDeviation="2"/>
<feComposite in2="hardAlpha" operator="out"/>
<feColorMatrix type="matrix" values="0 0 0 0 0 0 0 0 0 0 0 0 0 0 0 0 0 0 0.25 0"/>
<feBlend mode="normal" in2="BackgroundImageFix" result="effect1_dropShadow_1226_98"/>
<feBlend mode="normal" in="SourceGraphic" in2="effect1_dropShadow_1226_98" result="shape"/>
</filter>
<clipPath id="clip0_1226_98">
<rect width="60" height="94" fill="white" transform="translate(145)"/>
</clipPath>
</defs>
</svg>
