<svg width="284" height="362" viewBox="0 0 284 362" fill="none" xmlns="http://www.w3.org/2000/svg">
<g filter="url(#filter0_d_1203_27)">
<path d="M24 32C24 20.9543 32.9543 12 44 12H240C251.046 12 260 20.9543 260 32V306C260 317.046 251.046 326 240 326H44C32.9543 326 24 317.046 24 306V32Z" fill="white"/>
</g>
<path d="M92.9835 176.224C92.1202 176.224 91.3175 176.072 90.5755 175.769C89.8335 175.466 89.1849 175.043 88.6295 174.502C88.0789 173.956 87.6495 173.319 87.3415 172.591C87.0335 171.863 86.8795 171.077 86.8795 170.232C86.8795 169.387 87.0335 168.601 87.3415 167.873C87.6495 167.145 88.0789 166.51 88.6295 165.969C89.1849 165.423 89.8312 164.998 90.5685 164.695C91.3105 164.392 92.1155 164.24 92.9835 164.24C93.7069 164.24 94.3859 164.347 95.0205 164.562C95.6552 164.772 96.2152 165.061 96.7005 165.43L96.1965 166.319C95.7859 165.988 95.3099 165.733 94.7685 165.556C94.2272 165.379 93.6532 165.29 93.0465 165.29C92.3139 165.29 91.6419 165.416 91.0305 165.668C90.4239 165.92 89.8965 166.27 89.4485 166.718C89.0005 167.166 88.6529 167.691 88.4055 168.293C88.1629 168.895 88.0415 169.541 88.0415 170.232C88.0415 170.923 88.1629 171.569 88.4055 172.171C88.6529 172.773 89.0005 173.298 89.4485 173.746C89.8965 174.194 90.4239 174.544 91.0305 174.796C91.6419 175.048 92.3139 175.174 93.0465 175.174C93.6532 175.174 94.2272 175.085 94.7685 174.908C95.3099 174.731 95.7859 174.476 96.1965 174.145L96.7005 175.034C96.2199 175.398 95.6622 175.687 95.0275 175.902C94.3975 176.117 93.7162 176.224 92.9835 176.224ZM102.241 176.224C101.494 176.224 100.82 176.063 100.218 175.741C99.6202 175.419 99.1465 174.971 98.7965 174.397C98.4465 173.823 98.2715 173.163 98.2715 172.416C98.2715 171.665 98.4465 171.004 98.7965 170.435C99.1465 169.861 99.6202 169.413 100.218 169.091C100.815 168.769 101.489 168.608 102.241 168.608C102.987 168.608 103.659 168.769 104.257 169.091C104.859 169.413 105.335 169.861 105.685 170.435C106.035 171.004 106.21 171.665 106.21 172.416C106.21 173.163 106.035 173.823 105.685 174.397C105.335 174.971 104.859 175.419 104.257 175.741C103.659 176.063 102.987 176.224 102.241 176.224ZM102.241 175.314C102.801 175.314 103.3 175.19 103.739 174.943C104.177 174.696 104.523 174.355 104.775 173.921C105.027 173.482 105.153 172.981 105.153 172.416C105.153 171.851 105.027 171.352 104.775 170.918C104.523 170.479 104.177 170.136 103.739 169.889C103.3 169.642 102.801 169.518 102.241 169.518C101.681 169.518 101.181 169.642 100.743 169.889C100.304 170.136 99.9585 170.479 99.7065 170.918C99.4545 171.352 99.3285 171.851 99.3285 172.416C99.3285 172.976 99.4545 173.475 99.7065 173.914C99.9585 174.353 100.304 174.696 100.743 174.943C101.181 175.19 101.681 175.314 102.241 175.314ZM108.648 176V168.832H109.67V169.812C109.866 169.476 110.169 169.191 110.58 168.958C110.99 168.725 111.492 168.608 112.085 168.608C112.64 168.608 113.118 168.722 113.52 168.951C113.921 169.18 114.229 169.513 114.444 169.952C114.658 170.386 114.766 170.911 114.766 171.527V176H113.744V171.723C113.744 170.981 113.571 170.416 113.226 170.029C112.88 169.637 112.393 169.441 111.763 169.441C111.324 169.441 110.948 169.53 110.636 169.707C110.328 169.88 110.09 170.111 109.922 170.4C109.754 170.685 109.67 170.995 109.67 171.331V176H108.648ZM124.137 176.224C123.05 176.224 122.273 175.979 121.806 175.489C121.34 174.999 121.106 174.18 121.106 173.032V168.832H122.128V172.85C122.128 173.755 122.282 174.402 122.59 174.789C122.898 175.172 123.414 175.363 124.137 175.363C124.865 175.363 125.381 175.172 125.684 174.789C125.992 174.402 126.146 173.755 126.146 172.85V168.832H127.168V173.032C127.168 174.18 126.935 174.999 126.468 175.489C126.006 175.979 125.229 176.224 124.137 176.224ZM130.058 176V168.832H131.08V169.812C131.276 169.476 131.579 169.191 131.99 168.958C132.4 168.725 132.902 168.608 133.495 168.608C134.05 168.608 134.528 168.722 134.93 168.951C135.331 169.18 135.639 169.513 135.854 169.952C136.068 170.386 136.176 170.911 136.176 171.527V176H135.154V171.723C135.154 170.981 134.981 170.416 134.636 170.029C134.29 169.637 133.803 169.441 133.173 169.441C132.734 169.441 132.358 169.53 132.046 169.707C131.738 169.88 131.5 170.111 131.332 170.4C131.164 170.685 131.08 170.995 131.08 171.331V176H130.058ZM142.113 176.224C141.441 176.224 140.834 176.061 140.293 175.734C139.756 175.403 139.329 174.95 139.012 174.376C138.699 173.802 138.543 173.146 138.543 172.409C138.543 171.681 138.697 171.032 139.005 170.463C139.317 169.889 139.742 169.436 140.279 169.105C140.82 168.774 141.431 168.608 142.113 168.608C142.761 168.608 143.349 168.76 143.877 169.063C144.404 169.366 144.805 169.786 145.081 170.323V168.832H146.103V176H145.081V174.488C144.773 175.029 144.36 175.454 143.842 175.762C143.324 176.07 142.747 176.224 142.113 176.224ZM142.365 175.335C142.901 175.335 143.375 175.211 143.786 174.964C144.201 174.712 144.528 174.367 144.766 173.928C145.004 173.485 145.123 172.981 145.123 172.416C145.123 171.847 145.004 171.343 144.766 170.904C144.532 170.465 144.208 170.122 143.793 169.875C143.377 169.623 142.901 169.497 142.365 169.497C141.828 169.497 141.352 169.623 140.937 169.875C140.521 170.122 140.195 170.465 139.957 170.904C139.719 171.343 139.6 171.847 139.6 172.416C139.6 172.981 139.719 173.485 139.957 173.928C140.195 174.367 140.521 174.712 140.937 174.964C141.352 175.211 141.828 175.335 142.365 175.335ZM152.705 176V168.832H153.727V176H152.705ZM153.223 167.397C153.097 167.397 152.983 167.367 152.88 167.306C152.782 167.245 152.703 167.164 152.642 167.061C152.581 166.958 152.551 166.846 152.551 166.725C152.551 166.604 152.581 166.494 152.642 166.396C152.703 166.293 152.782 166.212 152.88 166.151C152.983 166.09 153.097 166.06 153.223 166.06C153.344 166.06 153.454 166.09 153.552 166.151C153.65 166.212 153.729 166.291 153.79 166.389C153.855 166.487 153.888 166.599 153.888 166.725C153.888 166.846 153.855 166.958 153.79 167.061C153.729 167.164 153.65 167.245 153.552 167.306C153.454 167.367 153.344 167.397 153.223 167.397ZM156.745 176V168.832H157.767V169.812C158.052 169.415 158.393 169.117 158.789 168.916C159.186 168.711 159.629 168.608 160.119 168.608C160.707 168.608 161.218 168.743 161.652 169.014C162.091 169.285 162.394 169.653 162.562 170.12C162.838 169.663 163.188 169.296 163.612 169.021C164.042 168.746 164.55 168.608 165.138 168.608C165.647 168.608 166.1 168.713 166.496 168.923C166.893 169.128 167.203 169.432 167.427 169.833C167.656 170.23 167.77 170.715 167.77 171.289V176H166.748V171.576C166.748 170.923 166.578 170.405 166.237 170.022C165.897 169.639 165.442 169.448 164.872 169.448C164.48 169.448 164.126 169.534 163.808 169.707C163.491 169.88 163.239 170.104 163.052 170.379C162.866 170.65 162.772 170.93 162.772 171.219V176H161.75V171.471C161.75 170.85 161.58 170.358 161.239 169.994C160.903 169.63 160.458 169.448 159.902 169.448C159.51 169.448 159.151 169.532 158.824 169.7C158.502 169.863 158.246 170.076 158.054 170.337C157.863 170.598 157.767 170.867 157.767 171.142V176H156.745ZM173.722 176.224C173.05 176.224 172.444 176.061 171.902 175.734C171.366 175.403 170.939 174.95 170.621 174.376C170.309 173.802 170.152 173.146 170.152 172.409C170.152 171.681 170.306 171.032 170.614 170.463C170.927 169.889 171.352 169.436 171.888 169.105C172.43 168.774 173.041 168.608 173.722 168.608C174.371 168.608 174.959 168.76 175.486 169.063C176.014 169.366 176.415 169.786 176.69 170.323V168.832H177.712V176H176.69V174.488C176.382 175.029 175.969 175.454 175.451 175.762C174.933 176.07 174.357 176.224 173.722 176.224ZM173.974 175.335C174.511 175.335 174.985 175.211 175.395 174.964C175.811 174.712 176.137 174.367 176.375 173.928C176.613 173.485 176.732 172.981 176.732 172.416C176.732 171.847 176.613 171.343 176.375 170.904C176.142 170.465 175.818 170.122 175.402 169.875C174.987 169.623 174.511 169.497 173.974 169.497C173.438 169.497 172.962 169.623 172.546 169.875C172.131 170.122 171.804 170.465 171.566 170.904C171.328 171.343 171.209 171.847 171.209 172.416C171.209 172.981 171.328 173.485 171.566 173.928C171.804 174.367 172.131 174.712 172.546 174.964C172.962 175.211 173.438 175.335 173.974 175.335ZM183.89 179.85C182.984 179.85 182.219 179.673 181.594 179.318C180.968 178.963 180.504 178.445 180.201 177.764L181.062 177.365C181.281 177.86 181.645 178.252 182.154 178.541C182.662 178.835 183.241 178.982 183.89 178.982C184.436 178.982 184.923 178.872 185.353 178.653C185.787 178.438 186.127 178.126 186.375 177.715C186.627 177.304 186.753 176.812 186.753 176.238V174.488C186.454 175.029 186.043 175.454 185.521 175.762C185.003 176.07 184.424 176.224 183.785 176.224C183.117 176.224 182.513 176.061 181.972 175.734C181.435 175.407 181.008 174.957 180.691 174.383C180.378 173.809 180.222 173.153 180.222 172.416C180.222 171.683 180.378 171.032 180.691 170.463C181.003 169.889 181.428 169.436 181.965 169.105C182.506 168.774 183.12 168.608 183.806 168.608C184.44 168.608 185.017 168.76 185.535 169.063C186.057 169.366 186.463 169.786 186.753 170.323V168.832H187.775V176.196C187.775 176.989 187.618 177.657 187.306 178.198C186.993 178.744 186.545 179.155 185.962 179.43C185.383 179.71 184.692 179.85 183.89 179.85ZM184.03 175.335C184.571 175.335 185.049 175.211 185.465 174.964C185.88 174.712 186.207 174.367 186.445 173.928C186.683 173.485 186.802 172.983 186.802 172.423C186.802 171.854 186.683 171.35 186.445 170.911C186.207 170.468 185.88 170.122 185.465 169.875C185.049 169.623 184.573 169.497 184.037 169.497C183.5 169.497 183.024 169.623 182.609 169.875C182.193 170.122 181.867 170.468 181.629 170.911C181.391 171.35 181.272 171.854 181.272 172.423C181.272 172.983 181.388 173.485 181.622 173.928C181.86 174.367 182.186 174.712 182.602 174.964C183.022 175.211 183.498 175.335 184.03 175.335ZM194.08 176.224C193.329 176.224 192.657 176.058 192.064 175.727C191.476 175.396 191.014 174.945 190.678 174.376C190.342 173.802 190.174 173.158 190.174 172.444C190.174 171.907 190.27 171.408 190.461 170.946C190.657 170.479 190.928 170.071 191.273 169.721C191.618 169.371 192.02 169.098 192.477 168.902C192.934 168.706 193.422 168.608 193.94 168.608C194.649 168.608 195.279 168.764 195.83 169.077C196.385 169.385 196.824 169.812 197.146 170.358C197.473 170.904 197.645 171.534 197.664 172.248C197.664 172.304 197.662 172.351 197.657 172.388C197.657 172.421 197.652 172.463 197.643 172.514H191.189C191.189 173.074 191.315 173.569 191.567 173.998C191.819 174.427 192.164 174.766 192.603 175.013C193.046 175.256 193.553 175.377 194.122 175.377C194.663 175.377 195.149 175.265 195.578 175.041C196.012 174.812 196.374 174.486 196.663 174.061L197.419 174.467C197.078 175.022 196.614 175.454 196.026 175.762C195.443 176.07 194.794 176.224 194.08 176.224ZM191.245 171.744H196.642C196.581 171.296 196.425 170.902 196.173 170.561C195.921 170.216 195.601 169.945 195.214 169.749C194.831 169.553 194.411 169.455 193.954 169.455C193.483 169.455 193.053 169.553 192.666 169.749C192.279 169.94 191.959 170.209 191.707 170.554C191.46 170.895 191.306 171.291 191.245 171.744ZM200.044 176V168.832H201.066V169.812C201.262 169.476 201.565 169.191 201.976 168.958C202.387 168.725 202.888 168.608 203.481 168.608C204.036 168.608 204.515 168.722 204.916 168.951C205.317 169.18 205.625 169.513 205.84 169.952C206.055 170.386 206.162 170.911 206.162 171.527V176H205.14V171.723C205.14 170.981 204.967 170.416 204.622 170.029C204.277 169.637 203.789 169.441 203.159 169.441C202.72 169.441 202.345 169.53 202.032 169.707C201.724 169.88 201.486 170.111 201.318 170.4C201.15 170.685 201.066 170.995 201.066 171.331V176H200.044ZM79.5128 192V179.96H80.5348V192H79.5128ZM83.546 192V179.96H84.568V192H83.546ZM90.6382 192.224C89.9662 192.224 89.3596 192.061 88.8182 191.734C88.2816 191.403 87.8546 190.95 87.5372 190.376C87.2246 189.802 87.0682 189.146 87.0682 188.409C87.0682 187.681 87.2222 187.032 87.5302 186.463C87.8429 185.889 88.2676 185.436 88.8042 185.105C89.3456 184.774 89.9569 184.608 90.6382 184.608C91.2869 184.608 91.8749 184.76 92.4022 185.063C92.9296 185.366 93.3309 185.786 93.6062 186.323V184.832H94.6282V192H93.6062V190.488C93.2982 191.029 92.8852 191.454 92.3672 191.762C91.8492 192.07 91.2729 192.224 90.6382 192.224ZM90.8902 191.335C91.4269 191.335 91.9006 191.211 92.3112 190.964C92.7266 190.712 93.0532 190.367 93.2912 189.928C93.5292 189.485 93.6482 188.981 93.6482 188.416C93.6482 187.847 93.5292 187.343 93.2912 186.904C93.0579 186.465 92.7336 186.122 92.3182 185.875C91.9029 185.623 91.4269 185.497 90.8902 185.497C90.3536 185.497 89.8776 185.623 89.4622 185.875C89.0469 186.122 88.7202 186.465 88.4822 186.904C88.2442 187.343 88.1252 187.847 88.1252 188.416C88.1252 188.981 88.2442 189.485 88.4822 189.928C88.7202 190.367 89.0469 190.712 89.4622 190.964C89.8776 191.211 90.3536 191.335 90.8902 191.335ZM97.6417 192V184.832H98.6637V185.812C98.9484 185.415 99.2891 185.117 99.6857 184.916C100.082 184.711 100.526 184.608 101.016 184.608C101.604 184.608 102.115 184.743 102.549 185.014C102.987 185.285 103.291 185.653 103.459 186.12C103.734 185.663 104.084 185.296 104.509 185.021C104.938 184.746 105.447 184.608 106.035 184.608C106.543 184.608 106.996 184.713 107.393 184.923C107.789 185.128 108.1 185.432 108.324 185.833C108.552 186.23 108.667 186.715 108.667 187.289V192H107.645V187.576C107.645 186.923 107.474 186.405 107.134 186.022C106.793 185.639 106.338 185.448 105.769 185.448C105.377 185.448 105.022 185.534 104.705 185.707C104.387 185.88 104.135 186.104 103.949 186.379C103.762 186.65 103.669 186.93 103.669 187.219V192H102.647V187.471C102.647 186.85 102.476 186.358 102.136 185.994C101.8 185.63 101.354 185.448 100.799 185.448C100.407 185.448 100.047 185.532 99.7207 185.7C99.3987 185.863 99.1421 186.076 98.9507 186.337C98.7594 186.598 98.6637 186.867 98.6637 187.142V192H97.6417ZM114.619 192.224C113.947 192.224 113.34 192.061 112.799 191.734C112.262 191.403 111.835 190.95 111.518 190.376C111.205 189.802 111.049 189.146 111.049 188.409C111.049 187.681 111.203 187.032 111.511 186.463C111.823 185.889 112.248 185.436 112.785 185.105C113.326 184.774 113.937 184.608 114.619 184.608C115.267 184.608 115.855 184.76 116.383 185.063C116.91 185.366 117.311 185.786 117.587 186.323V184.832H118.609V192H117.587V190.488C117.279 191.029 116.866 191.454 116.348 191.762C115.83 192.07 115.253 192.224 114.619 192.224ZM114.871 191.335C115.407 191.335 115.881 191.211 116.292 190.964C116.707 190.712 117.034 190.367 117.272 189.928C117.51 189.485 117.629 188.981 117.629 188.416C117.629 187.847 117.51 187.343 117.272 186.904C117.038 186.465 116.714 186.122 116.299 185.875C115.883 185.623 115.407 185.497 114.871 185.497C114.334 185.497 113.858 185.623 113.443 185.875C113.027 186.122 112.701 186.465 112.463 186.904C112.225 187.343 112.106 187.847 112.106 188.416C112.106 188.981 112.225 189.485 112.463 189.928C112.701 190.367 113.027 190.712 113.443 190.964C113.858 191.211 114.334 191.335 114.871 191.335ZM123.311 192.224C122.775 192.224 122.357 192.044 122.058 191.685C121.764 191.321 121.617 190.81 121.617 190.152V185.602H120.889V184.832H121.617V182.151H122.639V184.832H124.424V185.602H122.639V190.096C122.639 190.493 122.716 190.796 122.87 191.006C123.024 191.216 123.244 191.321 123.528 191.321C123.804 191.321 124.046 191.244 124.256 191.09L124.515 191.902C124.357 192 124.17 192.077 123.955 192.133C123.741 192.194 123.526 192.224 123.311 192.224ZM126.742 192V184.832H127.764V192H126.742ZM127.26 183.397C127.134 183.397 127.02 183.367 126.917 183.306C126.819 183.245 126.74 183.164 126.679 183.061C126.618 182.958 126.588 182.846 126.588 182.725C126.588 182.604 126.618 182.494 126.679 182.396C126.74 182.293 126.819 182.212 126.917 182.151C127.02 182.09 127.134 182.06 127.26 182.06C127.381 182.06 127.491 182.09 127.589 182.151C127.687 182.212 127.766 182.291 127.827 182.389C127.892 182.487 127.925 182.599 127.925 182.725C127.925 182.846 127.892 182.958 127.827 183.061C127.766 183.164 127.687 183.245 127.589 183.306C127.491 183.367 127.381 183.397 127.26 183.397ZM133.122 192L129.643 184.832H130.84L133.458 190.544L136.083 184.832H137.28L133.794 192H133.122ZM142.195 192.224C141.523 192.224 140.916 192.061 140.375 191.734C139.838 191.403 139.411 190.95 139.094 190.376C138.781 189.802 138.625 189.146 138.625 188.409C138.625 187.681 138.779 187.032 139.087 186.463C139.4 185.889 139.824 185.436 140.361 185.105C140.902 184.774 141.514 184.608 142.195 184.608C142.844 184.608 143.432 184.76 143.959 185.063C144.486 185.366 144.888 185.786 145.163 186.323V184.832H146.185V192H145.163V190.488C144.855 191.029 144.442 191.454 143.924 191.762C143.406 192.07 142.83 192.224 142.195 192.224ZM142.447 191.335C142.984 191.335 143.457 191.211 143.868 190.964C144.283 190.712 144.61 190.367 144.848 189.928C145.086 189.485 145.205 188.981 145.205 188.416C145.205 187.847 145.086 187.343 144.848 186.904C144.615 186.465 144.29 186.122 143.875 185.875C143.46 185.623 142.984 185.497 142.447 185.497C141.91 185.497 141.434 185.623 141.019 185.875C140.604 186.122 140.277 186.465 140.039 186.904C139.801 187.343 139.682 187.847 139.682 188.416C139.682 188.981 139.801 189.485 140.039 189.928C140.277 190.367 140.604 190.712 141.019 190.964C141.434 191.211 141.91 191.335 142.447 191.335ZM156.791 192.224C156.156 192.224 155.578 192.07 155.055 191.762C154.532 191.454 154.119 191.029 153.816 190.488V192H152.794V179.96H153.816V186.323C154.11 185.786 154.516 185.366 155.034 185.063C155.552 184.76 156.131 184.608 156.77 184.608C157.456 184.608 158.07 184.774 158.611 185.105C159.152 185.436 159.577 185.889 159.885 186.463C160.198 187.032 160.354 187.683 160.354 188.416C160.354 189.153 160.195 189.809 159.878 190.383C159.565 190.957 159.141 191.407 158.604 191.734C158.067 192.061 157.463 192.224 156.791 192.224ZM156.539 191.335C157.076 191.335 157.552 191.211 157.967 190.964C158.382 190.712 158.707 190.367 158.94 189.928C159.178 189.485 159.297 188.983 159.297 188.423C159.297 187.854 159.178 187.35 158.94 186.911C158.702 186.468 158.375 186.122 157.96 185.875C157.549 185.623 157.076 185.497 156.539 185.497C156.002 185.497 155.526 185.623 155.111 185.875C154.696 186.122 154.369 186.468 154.131 186.911C153.893 187.35 153.774 187.854 153.774 188.423C153.774 188.983 153.891 189.485 154.124 189.928C154.362 190.367 154.689 190.712 155.104 190.964C155.524 191.211 156.002 191.335 156.539 191.335ZM165.755 192.224C164.667 192.224 163.89 191.979 163.424 191.489C162.957 190.999 162.724 190.18 162.724 189.032V184.832H163.746V188.85C163.746 189.755 163.9 190.402 164.208 190.789C164.516 191.172 165.031 191.363 165.755 191.363C166.483 191.363 166.998 191.172 167.302 190.789C167.61 190.402 167.764 189.755 167.764 188.85V184.832H168.786V189.032C168.786 190.18 168.552 190.999 168.086 191.489C167.624 191.979 166.847 192.224 165.755 192.224ZM173.482 192.224C172.89 192.224 172.367 192.082 171.914 191.797C171.462 191.508 171.109 191.099 170.857 190.572L171.403 189.984C171.627 190.441 171.919 190.798 172.278 191.055C172.638 191.307 173.037 191.433 173.475 191.433C173.769 191.433 174.038 191.372 174.28 191.251C174.528 191.13 174.724 190.957 174.868 190.733C175.018 190.504 175.092 190.234 175.092 189.921C175.092 189.636 175.022 189.412 174.882 189.249C174.747 189.086 174.546 188.946 174.28 188.829C174.019 188.708 173.692 188.572 173.3 188.423C172.997 188.302 172.703 188.164 172.418 188.01C172.134 187.856 171.898 187.662 171.711 187.429C171.529 187.191 171.438 186.89 171.438 186.526C171.438 186.157 171.536 185.831 171.732 185.546C171.928 185.257 172.199 185.03 172.544 184.867C172.89 184.699 173.282 184.615 173.72 184.615C174.122 184.615 174.497 184.701 174.847 184.874C175.202 185.047 175.519 185.292 175.799 185.609L175.33 186.204C174.901 185.639 174.367 185.357 173.727 185.357C173.335 185.357 173.016 185.46 172.768 185.665C172.526 185.87 172.404 186.139 172.404 186.47C172.404 186.708 172.481 186.906 172.635 187.065C172.789 187.224 172.99 187.359 173.237 187.471C173.489 187.583 173.76 187.695 174.049 187.807C174.469 187.966 174.833 188.124 175.141 188.283C175.454 188.442 175.697 188.645 175.869 188.892C176.042 189.135 176.128 189.466 176.128 189.886C176.128 190.367 176.016 190.782 175.792 191.132C175.568 191.482 175.256 191.753 174.854 191.944C174.458 192.131 174 192.224 173.482 192.224ZM181.884 192.224C181.347 192.224 180.843 192.131 180.372 191.944C179.901 191.753 179.488 191.484 179.133 191.139C178.778 190.794 178.501 190.39 178.3 189.928C178.099 189.466 177.999 188.962 177.999 188.416C177.999 187.875 178.097 187.373 178.293 186.911C178.489 186.449 178.762 186.045 179.112 185.7C179.467 185.355 179.88 185.086 180.351 184.895C180.822 184.704 181.333 184.608 181.884 184.608C182.355 184.608 182.803 184.678 183.228 184.818C183.653 184.958 184.019 185.152 184.327 185.399L183.907 186.085C183.384 185.679 182.75 185.476 182.003 185.476C181.415 185.476 180.897 185.607 180.449 185.868C180.006 186.125 179.66 186.477 179.413 186.925C179.166 187.368 179.042 187.865 179.042 188.416C179.042 188.971 179.168 189.473 179.42 189.921C179.672 190.364 180.022 190.714 180.47 190.971C180.918 191.228 181.431 191.356 182.01 191.356C182.374 191.356 182.717 191.305 183.039 191.202C183.366 191.095 183.653 190.943 183.9 190.747L184.327 191.433C184.014 191.676 183.648 191.867 183.228 192.007C182.808 192.152 182.36 192.224 181.884 192.224ZM189.541 192.224C188.869 192.224 188.262 192.061 187.721 191.734C187.184 191.403 186.757 190.95 186.44 190.376C186.127 189.802 185.971 189.146 185.971 188.409C185.971 187.681 186.125 187.032 186.433 186.463C186.745 185.889 187.17 185.436 187.707 185.105C188.248 184.774 188.859 184.608 189.541 184.608C190.189 184.608 190.777 184.76 191.305 185.063C191.832 185.366 192.233 185.786 192.509 186.323V184.832H193.531V192H192.509V190.488C192.201 191.029 191.788 191.454 191.27 191.762C190.752 192.07 190.175 192.224 189.541 192.224ZM189.793 191.335C190.329 191.335 190.803 191.211 191.214 190.964C191.629 190.712 191.956 190.367 192.194 189.928C192.432 189.485 192.551 188.981 192.551 188.416C192.551 187.847 192.432 187.343 192.194 186.904C191.96 186.465 191.636 186.122 191.221 185.875C190.805 185.623 190.329 185.497 189.793 185.497C189.256 185.497 188.78 185.623 188.365 185.875C187.949 186.122 187.623 186.465 187.385 186.904C187.147 187.343 187.028 187.847 187.028 188.416C187.028 188.981 187.147 189.485 187.385 189.928C187.623 190.367 187.949 190.712 188.365 190.964C188.78 191.211 189.256 191.335 189.793 191.335ZM203.5 192.224C202.748 192.224 202.076 192.058 201.484 191.727C200.896 191.396 200.434 190.945 200.098 190.376C199.762 189.802 199.594 189.158 199.594 188.444C199.594 187.907 199.689 187.408 199.881 186.946C200.077 186.479 200.347 186.071 200.693 185.721C201.038 185.371 201.439 185.098 201.897 184.902C202.354 184.706 202.842 184.608 203.36 184.608C204.069 184.608 204.699 184.764 205.25 185.077C205.805 185.385 206.244 185.812 206.566 186.358C206.892 186.904 207.065 187.534 207.084 188.248C207.084 188.304 207.081 188.351 207.077 188.388C207.077 188.421 207.072 188.463 207.063 188.514H200.609C200.609 189.074 200.735 189.569 200.987 189.998C201.239 190.427 201.584 190.766 202.023 191.013C202.466 191.256 202.972 191.377 203.542 191.377C204.083 191.377 204.568 191.265 204.998 191.041C205.432 190.812 205.793 190.486 206.083 190.061L206.839 190.467C206.498 191.022 206.034 191.454 205.446 191.762C204.862 192.07 204.214 192.224 203.5 192.224ZM200.665 187.744H206.062C206.001 187.296 205.845 186.902 205.593 186.561C205.341 186.216 205.021 185.945 204.634 185.749C204.251 185.553 203.831 185.455 203.374 185.455C202.902 185.455 202.473 185.553 202.086 185.749C201.698 185.94 201.379 186.209 201.127 186.554C200.879 186.895 200.725 187.291 200.665 187.744ZM209.464 192V179.96H210.486V192H209.464ZM68.0113 208.224C67.3393 208.224 66.7326 208.061 66.1913 207.734C65.6546 207.403 65.2276 206.95 64.9103 206.376C64.5976 205.802 64.4413 205.146 64.4413 204.409C64.4413 203.681 64.5953 203.032 64.9033 202.463C65.2159 201.889 65.6406 201.436 66.1773 201.105C66.7186 200.774 67.3299 200.608 68.0113 200.608C68.6599 200.608 69.2479 200.76 69.7753 201.063C70.3026 201.366 70.7039 201.786 70.9793 202.323V200.832H72.0013V208H70.9793V206.488C70.6713 207.029 70.2583 207.454 69.7403 207.762C69.2223 208.07 68.6459 208.224 68.0113 208.224ZM68.2633 207.335C68.7999 207.335 69.2736 207.211 69.6843 206.964C70.0996 206.712 70.4263 206.367 70.6643 205.928C70.9023 205.485 71.0213 204.981 71.0213 204.416C71.0213 203.847 70.9023 203.343 70.6643 202.904C70.4309 202.465 70.1066 202.122 69.6913 201.875C69.2759 201.623 68.7999 201.497 68.2633 201.497C67.7266 201.497 67.2506 201.623 66.8353 201.875C66.4199 202.122 66.0933 202.465 65.8553 202.904C65.6173 203.343 65.4983 203.847 65.4983 204.416C65.4983 204.981 65.6173 205.485 65.8553 205.928C66.0933 206.367 66.4199 206.712 66.8353 206.964C67.2506 207.211 67.7266 207.335 68.2633 207.335ZM75.0148 211.64V200.832H76.0368V202.316C76.3261 201.779 76.7298 201.362 77.2478 201.063C77.7704 200.76 78.3491 200.608 78.9838 200.608C79.6698 200.608 80.2834 200.774 80.8248 201.105C81.3661 201.436 81.7931 201.889 82.1058 202.463C82.4184 203.032 82.5748 203.683 82.5748 204.416C82.5748 205.139 82.4184 205.79 82.1058 206.369C81.7978 206.943 81.3731 207.396 80.8318 207.727C80.2951 208.058 79.6838 208.224 78.9978 208.224C78.3724 208.224 77.7984 208.07 77.2758 207.762C76.7531 207.454 76.3401 207.029 76.0368 206.488V211.64H75.0148ZM78.7598 207.335C79.2964 207.335 79.7724 207.211 80.1878 206.964C80.6031 206.712 80.9274 206.367 81.1608 205.928C81.3988 205.489 81.5178 204.988 81.5178 204.423C81.5178 203.854 81.3988 203.35 81.1608 202.911C80.9228 202.468 80.5961 202.122 80.1808 201.875C79.7701 201.623 79.2964 201.497 78.7598 201.497C78.2231 201.497 77.7471 201.623 77.3318 201.875C76.9164 202.122 76.5898 202.465 76.3518 202.904C76.1138 203.343 75.9948 203.847 75.9948 204.416C75.9948 204.981 76.1138 205.485 76.3518 205.928C76.5898 206.367 76.9164 206.712 77.3318 206.964C77.7518 207.211 78.2278 207.335 78.7598 207.335ZM85.0773 208V200.832H86.0993V201.889C86.3279 201.469 86.6219 201.152 86.9813 200.937C87.3453 200.718 87.7653 200.608 88.2413 200.608C88.4513 200.608 88.6636 200.631 88.8783 200.678C89.0976 200.725 89.2866 200.785 89.4453 200.86L89.0253 201.721C88.8853 201.651 88.7243 201.597 88.5423 201.56C88.3649 201.523 88.1946 201.504 88.0313 201.504C87.6999 201.504 87.3873 201.588 87.0933 201.756C86.7993 201.924 86.5589 202.143 86.3723 202.414C86.1903 202.68 86.0993 202.965 86.0993 203.268V208H85.0773ZM94.6033 208.224C93.8519 208.224 93.1799 208.058 92.5873 207.727C91.9993 207.396 91.5373 206.945 91.2013 206.376C90.8653 205.802 90.6973 205.158 90.6973 204.444C90.6973 203.907 90.7929 203.408 90.9843 202.946C91.1803 202.479 91.4509 202.071 91.7963 201.721C92.1416 201.371 92.5429 201.098 93.0003 200.902C93.4576 200.706 93.9453 200.608 94.4633 200.608C95.1726 200.608 95.8026 200.764 96.3533 201.077C96.9086 201.385 97.3473 201.812 97.6693 202.358C97.9959 202.904 98.1686 203.534 98.1873 204.248C98.1873 204.304 98.1849 204.351 98.1803 204.388C98.1803 204.421 98.1756 204.463 98.1663 204.514H91.7123C91.7123 205.074 91.8383 205.569 92.0903 205.998C92.3423 206.427 92.6876 206.766 93.1263 207.013C93.5696 207.256 94.0759 207.377 94.6453 207.377C95.1866 207.377 95.6719 207.265 96.1013 207.041C96.5353 206.812 96.8969 206.486 97.1863 206.061L97.9423 206.467C97.6016 207.022 97.1373 207.454 96.5493 207.762C95.9659 208.07 95.3173 208.224 94.6033 208.224ZM91.7683 203.744H97.1653C97.1046 203.296 96.9483 202.902 96.6963 202.561C96.4443 202.216 96.1246 201.945 95.7373 201.749C95.3546 201.553 94.9346 201.455 94.4773 201.455C94.0059 201.455 93.5766 201.553 93.1893 201.749C92.8019 201.94 92.4823 202.209 92.2303 202.554C91.9829 202.895 91.8289 203.291 91.7683 203.744ZM100.568 208V200.832H101.59V201.812C101.786 201.476 102.089 201.191 102.5 200.958C102.91 200.725 103.412 200.608 104.005 200.608C104.56 200.608 105.038 200.722 105.44 200.951C105.841 201.18 106.149 201.513 106.364 201.952C106.578 202.386 106.686 202.911 106.686 203.527V208H105.664V203.723C105.664 202.981 105.491 202.416 105.146 202.029C104.8 201.637 104.313 201.441 103.683 201.441C103.244 201.441 102.868 201.53 102.556 201.707C102.248 201.88 102.01 202.111 101.842 202.4C101.674 202.685 101.59 202.995 101.59 203.331V208H100.568ZM112.623 208.224C111.951 208.224 111.344 208.061 110.803 207.734C110.266 207.407 109.839 206.957 109.522 206.383C109.209 205.809 109.053 205.153 109.053 204.416C109.053 203.683 109.209 203.032 109.522 202.463C109.834 201.889 110.259 201.436 110.796 201.105C111.337 200.774 111.951 200.608 112.637 200.608C113.276 200.608 113.855 200.76 114.373 201.063C114.891 201.366 115.297 201.786 115.591 202.323V195.953H116.613V208H115.591V206.488C115.287 207.029 114.874 207.454 114.352 207.762C113.834 208.07 113.257 208.224 112.623 208.224ZM112.868 207.335C113.404 207.335 113.88 207.211 114.296 206.964C114.711 206.712 115.038 206.367 115.276 205.928C115.514 205.485 115.633 204.983 115.633 204.423C115.633 203.854 115.514 203.35 115.276 202.911C115.042 202.468 114.716 202.122 114.296 201.875C113.88 201.623 113.404 201.497 112.868 201.497C112.336 201.497 111.862 201.623 111.447 201.875C111.031 202.122 110.705 202.468 110.467 202.911C110.229 203.35 110.11 203.854 110.11 204.423C110.11 204.988 110.226 205.489 110.46 205.928C110.698 206.367 111.024 206.712 111.44 206.964C111.86 207.211 112.336 207.335 112.868 207.335ZM119.619 208V200.832H120.641V208H119.619ZM120.137 199.397C120.011 199.397 119.897 199.367 119.794 199.306C119.696 199.245 119.617 199.164 119.556 199.061C119.495 198.958 119.465 198.846 119.465 198.725C119.465 198.604 119.495 198.494 119.556 198.396C119.617 198.293 119.696 198.212 119.794 198.151C119.897 198.09 120.011 198.06 120.137 198.06C120.258 198.06 120.368 198.09 120.466 198.151C120.564 198.212 120.643 198.291 120.704 198.389C120.769 198.487 120.802 198.599 120.802 198.725C120.802 198.846 120.769 198.958 120.704 199.061C120.643 199.164 120.564 199.245 120.466 199.306C120.368 199.367 120.258 199.397 120.137 199.397ZM122.714 208L128.02 201.672H123.26V200.832H129.882L124.569 207.16H129.721V208H122.714ZM135.099 208.224C134.427 208.224 133.82 208.061 133.279 207.734C132.742 207.403 132.315 206.95 131.998 206.376C131.685 205.802 131.529 205.146 131.529 204.409C131.529 203.681 131.683 203.032 131.991 202.463C132.304 201.889 132.728 201.436 133.265 201.105C133.806 200.774 134.418 200.608 135.099 200.608C135.748 200.608 136.336 200.76 136.863 201.063C137.39 201.366 137.792 201.786 138.067 202.323V200.832H139.089V208H138.067V206.488C137.759 207.029 137.346 207.454 136.828 207.762C136.31 208.07 135.734 208.224 135.099 208.224ZM135.351 207.335C135.888 207.335 136.361 207.211 136.772 206.964C137.187 206.712 137.514 206.367 137.752 205.928C137.99 205.485 138.109 204.981 138.109 204.416C138.109 203.847 137.99 203.343 137.752 202.904C137.519 202.465 137.194 202.122 136.779 201.875C136.364 201.623 135.888 201.497 135.351 201.497C134.814 201.497 134.338 201.623 133.923 201.875C133.508 202.122 133.181 202.465 132.943 202.904C132.705 203.343 132.586 203.847 132.586 204.416C132.586 204.981 132.705 205.485 132.943 205.928C133.181 206.367 133.508 206.712 133.923 206.964C134.338 207.211 134.814 207.335 135.351 207.335ZM141.193 211.85C140.945 211.85 140.705 211.82 140.472 211.759C140.238 211.698 140.047 211.61 139.898 211.493L140.199 210.674C140.413 210.851 140.684 210.94 141.011 210.94C141.743 210.94 142.11 210.455 142.11 209.484V200.832H143.132V209.575C143.132 210.312 142.966 210.875 142.635 211.262C142.303 211.654 141.823 211.85 141.193 211.85ZM142.621 199.383C142.499 199.383 142.387 199.355 142.285 199.299C142.182 199.238 142.1 199.157 142.04 199.054C141.979 198.951 141.949 198.839 141.949 198.718C141.949 198.592 141.979 198.478 142.04 198.375C142.1 198.272 142.182 198.193 142.285 198.137C142.387 198.076 142.499 198.046 142.621 198.046C142.742 198.046 142.854 198.076 142.957 198.137C143.059 198.193 143.141 198.272 143.202 198.375C143.262 198.478 143.293 198.59 143.293 198.711C143.293 198.832 143.262 198.944 143.202 199.047C143.141 199.15 143.059 199.231 142.957 199.292C142.854 199.353 142.742 199.383 142.621 199.383ZM149.51 208.224C148.758 208.224 148.086 208.058 147.494 207.727C146.906 207.396 146.444 206.945 146.108 206.376C145.772 205.802 145.604 205.158 145.604 204.444C145.604 203.907 145.699 203.408 145.891 202.946C146.087 202.479 146.357 202.071 146.703 201.721C147.048 201.371 147.449 201.098 147.907 200.902C148.364 200.706 148.852 200.608 149.37 200.608C150.079 200.608 150.709 200.764 151.26 201.077C151.815 201.385 152.254 201.812 152.576 202.358C152.902 202.904 153.075 203.534 153.094 204.248C153.094 204.304 153.091 204.351 153.087 204.388C153.087 204.421 153.082 204.463 153.073 204.514H146.619C146.619 205.074 146.745 205.569 146.997 205.998C147.249 206.427 147.594 206.766 148.033 207.013C148.476 207.256 148.982 207.377 149.552 207.377C150.093 207.377 150.578 207.265 151.008 207.041C151.442 206.812 151.803 206.486 152.093 206.061L152.849 206.467C152.508 207.022 152.044 207.454 151.456 207.762C150.872 208.07 150.224 208.224 149.51 208.224ZM146.675 203.744H152.072C152.011 203.296 151.855 202.902 151.603 202.561C151.351 202.216 151.031 201.945 150.644 201.749C150.261 201.553 149.841 201.455 149.384 201.455C148.912 201.455 148.483 201.553 148.096 201.749C147.708 201.94 147.389 202.209 147.137 202.554C146.889 202.895 146.735 203.291 146.675 203.744ZM162.156 208.224C161.484 208.224 160.877 208.061 160.336 207.734C159.799 207.407 159.372 206.957 159.055 206.383C158.742 205.809 158.586 205.153 158.586 204.416C158.586 203.683 158.742 203.032 159.055 202.463C159.367 201.889 159.792 201.436 160.329 201.105C160.87 200.774 161.484 200.608 162.17 200.608C162.809 200.608 163.388 200.76 163.906 201.063C164.424 201.366 164.83 201.786 165.124 202.323V195.953H166.146V208H165.124V206.488C164.82 207.029 164.407 207.454 163.885 207.762C163.367 208.07 162.79 208.224 162.156 208.224ZM162.401 207.335C162.937 207.335 163.413 207.211 163.829 206.964C164.244 206.712 164.571 206.367 164.809 205.928C165.047 205.485 165.166 204.983 165.166 204.423C165.166 203.854 165.047 203.35 164.809 202.911C164.575 202.468 164.249 202.122 163.829 201.875C163.413 201.623 162.937 201.497 162.401 201.497C161.869 201.497 161.395 201.623 160.98 201.875C160.564 202.122 160.238 202.468 160 202.911C159.762 203.35 159.643 203.854 159.643 204.423C159.643 204.988 159.759 205.489 159.993 205.928C160.231 206.367 160.557 206.712 160.973 206.964C161.393 207.211 161.869 207.335 162.401 207.335ZM169.152 208V200.832H170.174V208H169.152ZM169.67 199.397C169.544 199.397 169.43 199.367 169.327 199.306C169.229 199.245 169.15 199.164 169.089 199.061C169.029 198.958 168.998 198.846 168.998 198.725C168.998 198.604 169.029 198.494 169.089 198.396C169.15 198.293 169.229 198.212 169.327 198.151C169.43 198.09 169.544 198.06 169.67 198.06C169.792 198.06 169.901 198.09 169.999 198.151C170.097 198.212 170.177 198.291 170.237 198.389C170.303 198.487 170.335 198.599 170.335 198.725C170.335 198.846 170.303 198.958 170.237 199.061C170.177 199.164 170.097 199.245 169.999 199.306C169.901 199.367 169.792 199.397 169.67 199.397ZM173.193 208V200.832H174.215V201.812C174.411 201.476 174.714 201.191 175.125 200.958C175.535 200.725 176.037 200.608 176.63 200.608C177.185 200.608 177.663 200.722 178.065 200.951C178.466 201.18 178.774 201.513 178.989 201.952C179.203 202.386 179.311 202.911 179.311 203.527V208H178.289V203.723C178.289 202.981 178.116 202.416 177.771 202.029C177.425 201.637 176.938 201.441 176.308 201.441C175.869 201.441 175.493 201.53 175.181 201.707C174.873 201.88 174.635 202.111 174.467 202.4C174.299 202.685 174.215 202.995 174.215 203.331V208H173.193ZM185.248 208.224C184.576 208.224 183.969 208.061 183.428 207.734C182.891 207.403 182.464 206.95 182.147 206.376C181.834 205.802 181.678 205.146 181.678 204.409C181.678 203.681 181.832 203.032 182.14 202.463C182.452 201.889 182.877 201.436 183.414 201.105C183.955 200.774 184.566 200.608 185.248 200.608C185.896 200.608 186.484 200.76 187.012 201.063C187.539 201.366 187.94 201.786 188.216 202.323V200.832H189.238V208H188.216V206.488C187.908 207.029 187.495 207.454 186.977 207.762C186.459 208.07 185.882 208.224 185.248 208.224ZM185.5 207.335C186.036 207.335 186.51 207.211 186.921 206.964C187.336 206.712 187.663 206.367 187.901 205.928C188.139 205.485 188.258 204.981 188.258 204.416C188.258 203.847 188.139 203.343 187.901 202.904C187.667 202.465 187.343 202.122 186.928 201.875C186.512 201.623 186.036 201.497 185.5 201.497C184.963 201.497 184.487 201.623 184.072 201.875C183.656 202.122 183.33 202.465 183.092 202.904C182.854 203.343 182.735 203.847 182.735 204.416C182.735 204.981 182.854 205.485 183.092 205.928C183.33 206.367 183.656 206.712 184.072 206.964C184.487 207.211 184.963 207.335 185.5 207.335ZM185.892 199.677L185.367 199.292L186.697 196.639L187.502 197.213L185.892 199.677ZM192.251 208V200.832H193.273V201.812C193.558 201.415 193.898 201.117 194.295 200.916C194.692 200.711 195.135 200.608 195.625 200.608C196.213 200.608 196.724 200.743 197.158 201.014C197.597 201.285 197.9 201.653 198.068 202.12C198.343 201.663 198.693 201.296 199.118 201.021C199.547 200.746 200.056 200.608 200.644 200.608C201.153 200.608 201.605 200.713 202.002 200.923C202.399 201.128 202.709 201.432 202.933 201.833C203.162 202.23 203.276 202.715 203.276 203.289V208H202.254V203.576C202.254 202.923 202.084 202.405 201.743 202.022C201.402 201.639 200.947 201.448 200.378 201.448C199.986 201.448 199.631 201.534 199.314 201.707C198.997 201.88 198.745 202.104 198.558 202.379C198.371 202.65 198.278 202.93 198.278 203.219V208H197.256V203.471C197.256 202.85 197.086 202.358 196.745 201.994C196.409 201.63 195.963 201.448 195.408 201.448C195.016 201.448 194.657 201.532 194.33 201.7C194.008 201.863 193.751 202.076 193.56 202.337C193.369 202.598 193.273 202.867 193.273 203.142V208H192.251ZM206.162 208V200.832H207.184V208H206.162ZM206.68 199.397C206.554 199.397 206.44 199.367 206.337 199.306C206.239 199.245 206.16 199.164 206.099 199.061C206.038 198.958 206.008 198.846 206.008 198.725C206.008 198.604 206.038 198.494 206.099 198.396C206.16 198.293 206.239 198.212 206.337 198.151C206.44 198.09 206.554 198.06 206.68 198.06C206.801 198.06 206.911 198.09 207.009 198.151C207.107 198.212 207.186 198.291 207.247 198.389C207.312 198.487 207.345 198.599 207.345 198.725C207.345 198.846 207.312 198.958 207.247 199.061C207.186 199.164 207.107 199.245 207.009 199.306C206.911 199.367 206.801 199.397 206.68 199.397ZM213.534 208.224C212.998 208.224 212.494 208.131 212.022 207.944C211.551 207.753 211.138 207.484 210.783 207.139C210.429 206.794 210.151 206.39 209.95 205.928C209.75 205.466 209.649 204.962 209.649 204.416C209.649 203.875 209.747 203.373 209.943 202.911C210.139 202.449 210.412 202.045 210.762 201.7C211.117 201.355 211.53 201.086 212.001 200.895C212.473 200.704 212.984 200.608 213.534 200.608C214.006 200.608 214.454 200.678 214.878 200.818C215.303 200.958 215.669 201.152 215.977 201.399L215.557 202.085C215.035 201.679 214.4 201.476 213.653 201.476C213.065 201.476 212.547 201.607 212.099 201.868C211.656 202.125 211.311 202.477 211.063 202.925C210.816 203.368 210.692 203.865 210.692 204.416C210.692 204.971 210.818 205.473 211.07 205.921C211.322 206.364 211.672 206.714 212.12 206.971C212.568 207.228 213.082 207.356 213.66 207.356C214.024 207.356 214.367 207.305 214.689 207.202C215.016 207.095 215.303 206.943 215.55 206.747L215.977 207.433C215.665 207.676 215.298 207.867 214.878 208.007C214.458 208.152 214.01 208.224 213.534 208.224ZM221.623 208.224C220.877 208.224 220.202 208.063 219.6 207.741C219.003 207.419 218.529 206.971 218.179 206.397C217.829 205.823 217.654 205.163 217.654 204.416C217.654 203.665 217.829 203.004 218.179 202.435C218.529 201.861 219.003 201.413 219.6 201.091C220.198 200.769 220.872 200.608 221.623 200.608C222.37 200.608 223.042 200.769 223.639 201.091C224.241 201.413 224.717 201.861 225.067 202.435C225.417 203.004 225.592 203.665 225.592 204.416C225.592 205.163 225.417 205.823 225.067 206.397C224.717 206.971 224.241 207.419 223.639 207.741C223.042 208.063 222.37 208.224 221.623 208.224ZM221.623 207.314C222.183 207.314 222.683 207.19 223.121 206.943C223.56 206.696 223.905 206.355 224.157 205.921C224.409 205.482 224.535 204.981 224.535 204.416C224.535 203.851 224.409 203.352 224.157 202.918C223.905 202.479 223.56 202.136 223.121 201.889C222.683 201.642 222.183 201.518 221.623 201.518C221.063 201.518 220.564 201.642 220.125 201.889C219.687 202.136 219.341 202.479 219.089 202.918C218.837 203.352 218.711 203.851 218.711 204.416C218.711 204.976 218.837 205.475 219.089 205.914C219.341 206.353 219.687 206.696 220.125 206.943C220.564 207.19 221.063 207.314 221.623 207.314ZM59.8279 224.224C59.2353 224.224 58.7126 224.082 58.2599 223.797C57.8073 223.508 57.4549 223.099 57.2029 222.572L57.7489 221.984C57.9729 222.441 58.2646 222.798 58.6239 223.055C58.9833 223.307 59.3823 223.433 59.8209 223.433C60.1149 223.433 60.3833 223.372 60.6259 223.251C60.8733 223.13 61.0693 222.957 61.2139 222.733C61.3633 222.504 61.4379 222.234 61.4379 221.921C61.4379 221.636 61.3679 221.412 61.2279 221.249C61.0926 221.086 60.8919 220.946 60.6259 220.829C60.3646 220.708 60.0379 220.572 59.6459 220.423C59.3426 220.302 59.0486 220.164 58.7639 220.01C58.4793 219.856 58.2436 219.662 58.0569 219.429C57.8749 219.191 57.7839 218.89 57.7839 218.526C57.7839 218.157 57.8819 217.831 58.0779 217.546C58.2739 217.257 58.5446 217.03 58.8899 216.867C59.2353 216.699 59.6273 216.615 60.0659 216.615C60.4673 216.615 60.8429 216.701 61.1929 216.874C61.5476 217.047 61.8649 217.292 62.1449 217.609L61.6759 218.204C61.2466 217.639 60.7123 217.357 60.0729 217.357C59.6809 217.357 59.3613 217.46 59.1139 217.665C58.8713 217.87 58.7499 218.139 58.7499 218.47C58.7499 218.708 58.8269 218.906 58.9809 219.065C59.1349 219.224 59.3356 219.359 59.5829 219.471C59.8349 219.583 60.1056 219.695 60.3949 219.807C60.8149 219.966 61.1789 220.124 61.4869 220.283C61.7996 220.442 62.0423 220.645 62.2149 220.892C62.3876 221.135 62.4739 221.466 62.4739 221.886C62.4739 222.367 62.3619 222.782 62.1379 223.132C61.9139 223.482 61.6013 223.753 61.1999 223.944C60.8033 224.131 60.3459 224.224 59.8279 224.224ZM68.3206 224.224C67.5739 224.224 66.8996 224.063 66.2976 223.741C65.7002 223.419 65.2266 222.971 64.8766 222.397C64.5266 221.823 64.3516 221.163 64.3516 220.416C64.3516 219.665 64.5266 219.004 64.8766 218.435C65.2266 217.861 65.7002 217.413 66.2976 217.091C66.8949 216.769 67.5692 216.608 68.3206 216.608C69.0672 216.608 69.7392 216.769 70.3366 217.091C70.9386 217.413 71.4146 217.861 71.7646 218.435C72.1146 219.004 72.2896 219.665 72.2896 220.416C72.2896 221.163 72.1146 221.823 71.7646 222.397C71.4146 222.971 70.9386 223.419 70.3366 223.741C69.7392 224.063 69.0672 224.224 68.3206 224.224ZM68.3206 223.314C68.8806 223.314 69.3799 223.19 69.8186 222.943C70.2572 222.696 70.6026 222.355 70.8546 221.921C71.1066 221.482 71.2326 220.981 71.2326 220.416C71.2326 219.851 71.1066 219.352 70.8546 218.918C70.6026 218.479 70.2572 218.136 69.8186 217.889C69.3799 217.642 68.8806 217.518 68.3206 217.518C67.7606 217.518 67.2612 217.642 66.8226 217.889C66.3839 218.136 66.0386 218.479 65.7866 218.918C65.5346 219.352 65.4086 219.851 65.4086 220.416C65.4086 220.976 65.5346 221.475 65.7866 221.914C66.0386 222.353 66.3839 222.696 66.8226 222.943C67.2612 223.19 67.7606 223.314 68.3206 223.314ZM78.752 224.224C78.1173 224.224 77.5387 224.07 77.016 223.762C76.4933 223.454 76.0803 223.029 75.777 222.488V224H74.755V211.96H75.777V218.323C76.071 217.786 76.477 217.366 76.995 217.063C77.513 216.76 78.0917 216.608 78.731 216.608C79.417 216.608 80.0307 216.774 80.572 217.105C81.1133 217.436 81.538 217.889 81.846 218.463C82.1587 219.032 82.315 219.683 82.315 220.416C82.315 221.153 82.1563 221.809 81.839 222.383C81.5263 222.957 81.1017 223.407 80.565 223.734C80.0283 224.061 79.424 224.224 78.752 224.224ZM78.5 223.335C79.0367 223.335 79.5127 223.211 79.928 222.964C80.3433 222.712 80.6677 222.367 80.901 221.928C81.139 221.485 81.258 220.983 81.258 220.423C81.258 219.854 81.139 219.35 80.901 218.911C80.663 218.468 80.3363 218.122 79.921 217.875C79.5103 217.623 79.0367 217.497 78.5 217.497C77.9633 217.497 77.4873 217.623 77.072 217.875C76.6567 218.122 76.33 218.468 76.092 218.911C75.854 219.35 75.735 219.854 75.735 220.423C75.735 220.983 75.8517 221.485 76.085 221.928C76.323 222.367 76.6497 222.712 77.065 222.964C77.485 223.211 77.9633 223.335 78.5 223.335ZM84.8175 224V216.832H85.8395V217.889C86.0682 217.469 86.3622 217.152 86.7215 216.937C87.0855 216.718 87.5055 216.608 87.9815 216.608C88.1915 216.608 88.4038 216.631 88.6185 216.678C88.8378 216.725 89.0268 216.785 89.1855 216.86L88.7655 217.721C88.6255 217.651 88.4645 217.597 88.2825 217.56C88.1052 217.523 87.9348 217.504 87.7715 217.504C87.4402 217.504 87.1275 217.588 86.8335 217.756C86.5395 217.924 86.2992 218.143 86.1125 218.414C85.9305 218.68 85.8395 218.965 85.8395 219.268V224H84.8175ZM94.3435 224.224C93.5922 224.224 92.9202 224.058 92.3275 223.727C91.7395 223.396 91.2775 222.945 90.9415 222.376C90.6055 221.802 90.4375 221.158 90.4375 220.444C90.4375 219.907 90.5332 219.408 90.7245 218.946C90.9205 218.479 91.1912 218.071 91.5365 217.721C91.8818 217.371 92.2832 217.098 92.7405 216.902C93.1978 216.706 93.6855 216.608 94.2035 216.608C94.9128 216.608 95.5428 216.764 96.0935 217.077C96.6488 217.385 97.0875 217.812 97.4095 218.358C97.7362 218.904 97.9088 219.534 97.9275 220.248C97.9275 220.304 97.9252 220.351 97.9205 220.388C97.9205 220.421 97.9158 220.463 97.9065 220.514H91.4525C91.4525 221.074 91.5785 221.569 91.8305 221.998C92.0825 222.427 92.4278 222.766 92.8665 223.013C93.3098 223.256 93.8162 223.377 94.3855 223.377C94.9268 223.377 95.4122 223.265 95.8415 223.041C96.2755 222.812 96.6372 222.486 96.9265 222.061L97.6825 222.467C97.3418 223.022 96.8775 223.454 96.2895 223.762C95.7062 224.07 95.0575 224.224 94.3435 224.224ZM91.5085 219.744H96.9055C96.8448 219.296 96.6885 218.902 96.4365 218.561C96.1845 218.216 95.8648 217.945 95.4775 217.749C95.0948 217.553 94.6748 217.455 94.2175 217.455C93.7462 217.455 93.3168 217.553 92.9295 217.749C92.5422 217.94 92.2225 218.209 91.9705 218.554C91.7232 218.895 91.5692 219.291 91.5085 219.744ZM103.931 224V211.96H104.953V224H103.931ZM111.023 224.224C110.351 224.224 109.744 224.061 109.203 223.734C108.666 223.403 108.239 222.95 107.922 222.376C107.609 221.802 107.453 221.146 107.453 220.409C107.453 219.681 107.607 219.032 107.915 218.463C108.228 217.889 108.652 217.436 109.189 217.105C109.73 216.774 110.342 216.608 111.023 216.608C111.672 216.608 112.26 216.76 112.787 217.063C113.314 217.366 113.716 217.786 113.991 218.323V216.832H115.013V224H113.991V222.488C113.683 223.029 113.27 223.454 112.752 223.762C112.234 224.07 111.658 224.224 111.023 224.224ZM111.275 223.335C111.812 223.335 112.285 223.211 112.696 222.964C113.111 222.712 113.438 222.367 113.676 221.928C113.914 221.485 114.033 220.981 114.033 220.416C114.033 219.847 113.914 219.343 113.676 218.904C113.443 218.465 113.118 218.122 112.703 217.875C112.288 217.623 111.812 217.497 111.275 217.497C110.738 217.497 110.262 217.623 109.847 217.875C109.432 218.122 109.105 218.465 108.867 218.904C108.629 219.343 108.51 219.847 108.51 220.416C108.51 220.981 108.629 221.485 108.867 221.928C109.105 222.367 109.432 222.712 109.847 222.964C110.262 223.211 110.738 223.335 111.275 223.335ZM121.615 224V216.832H122.637V224H121.615ZM122.133 215.397C122.007 215.397 121.893 215.367 121.79 215.306C121.692 215.245 121.613 215.164 121.552 215.061C121.492 214.958 121.461 214.846 121.461 214.725C121.461 214.604 121.492 214.494 121.552 214.396C121.613 214.293 121.692 214.212 121.79 214.151C121.893 214.09 122.007 214.06 122.133 214.06C122.255 214.06 122.364 214.09 122.462 214.151C122.56 214.212 122.64 214.291 122.7 214.389C122.766 214.487 122.798 214.599 122.798 214.725C122.798 214.846 122.766 214.958 122.7 215.061C122.64 215.164 122.56 215.245 122.462 215.306C122.364 215.367 122.255 215.397 122.133 215.397ZM125.655 224V216.832H126.677V217.812C126.962 217.415 127.303 217.117 127.699 216.916C128.096 216.711 128.539 216.608 129.029 216.608C129.617 216.608 130.128 216.743 130.562 217.014C131.001 217.285 131.304 217.653 131.472 218.12C131.748 217.663 132.098 217.296 132.522 217.021C132.952 216.746 133.46 216.608 134.048 216.608C134.557 216.608 135.01 216.713 135.406 216.923C135.803 217.128 136.113 217.432 136.337 217.833C136.566 218.23 136.68 218.715 136.68 219.289V224H135.658V219.576C135.658 218.923 135.488 218.405 135.147 218.022C134.807 217.639 134.352 217.448 133.782 217.448C133.39 217.448 133.036 217.534 132.718 217.707C132.401 217.88 132.149 218.104 131.962 218.379C131.776 218.65 131.682 218.93 131.682 219.219V224H130.66V219.471C130.66 218.85 130.49 218.358 130.149 217.994C129.813 217.63 129.368 217.448 128.812 217.448C128.42 217.448 128.061 217.532 127.734 217.7C127.412 217.863 127.156 218.076 126.964 218.337C126.773 218.598 126.677 218.867 126.677 219.142V224H125.655ZM139.573 227.64V216.832H140.595V218.316C140.885 217.779 141.288 217.362 141.806 217.063C142.329 216.76 142.908 216.608 143.542 216.608C144.228 216.608 144.842 216.774 145.383 217.105C145.925 217.436 146.352 217.889 146.664 218.463C146.977 219.032 147.133 219.683 147.133 220.416C147.133 221.139 146.977 221.79 146.664 222.369C146.356 222.943 145.932 223.396 145.39 223.727C144.854 224.058 144.242 224.224 143.556 224.224C142.931 224.224 142.357 224.07 141.834 223.762C141.312 223.454 140.899 223.029 140.595 222.488V227.64H139.573ZM143.318 223.335C143.855 223.335 144.331 223.211 144.746 222.964C145.162 222.712 145.486 222.367 145.719 221.928C145.957 221.489 146.076 220.988 146.076 220.423C146.076 219.854 145.957 219.35 145.719 218.911C145.481 218.468 145.155 218.122 144.739 217.875C144.329 217.623 143.855 217.497 143.318 217.497C142.782 217.497 142.306 217.623 141.89 217.875C141.475 218.122 141.148 218.465 140.91 218.904C140.672 219.343 140.553 219.847 140.553 220.416C140.553 220.981 140.672 221.485 140.91 221.928C141.148 222.367 141.475 222.712 141.89 222.964C142.31 223.211 142.786 223.335 143.318 223.335ZM153.059 224.224C152.312 224.224 151.638 224.063 151.036 223.741C150.439 223.419 149.965 222.971 149.615 222.397C149.265 221.823 149.09 221.163 149.09 220.416C149.09 219.665 149.265 219.004 149.615 218.435C149.965 217.861 150.439 217.413 151.036 217.091C151.633 216.769 152.308 216.608 153.059 216.608C153.806 216.608 154.478 216.769 155.075 217.091C155.677 217.413 156.153 217.861 156.503 218.435C156.853 219.004 157.028 219.665 157.028 220.416C157.028 221.163 156.853 221.823 156.503 222.397C156.153 222.971 155.677 223.419 155.075 223.741C154.478 224.063 153.806 224.224 153.059 224.224ZM153.059 223.314C153.619 223.314 154.118 223.19 154.557 222.943C154.996 222.696 155.341 222.355 155.593 221.921C155.845 221.482 155.971 220.981 155.971 220.416C155.971 219.851 155.845 219.352 155.593 218.918C155.341 218.479 154.996 218.136 154.557 217.889C154.118 217.642 153.619 217.518 153.059 217.518C152.499 217.518 152 217.642 151.561 217.889C151.122 218.136 150.777 218.479 150.525 218.918C150.273 219.352 150.147 219.851 150.147 220.416C150.147 220.976 150.273 221.475 150.525 221.914C150.777 222.353 151.122 222.696 151.561 222.943C152 223.19 152.499 223.314 153.059 223.314ZM159.466 224V216.832H160.488V217.889C160.717 217.469 161.011 217.152 161.37 216.937C161.734 216.718 162.154 216.608 162.63 216.608C162.84 216.608 163.052 216.631 163.267 216.678C163.486 216.725 163.675 216.785 163.834 216.86L163.414 217.721C163.274 217.651 163.113 217.597 162.931 217.56C162.754 217.523 162.583 217.504 162.42 217.504C162.089 217.504 161.776 217.588 161.482 217.756C161.188 217.924 160.948 218.143 160.761 218.414C160.579 218.68 160.488 218.965 160.488 219.268V224H159.466ZM167.499 224.224C166.962 224.224 166.545 224.044 166.246 223.685C165.952 223.321 165.805 222.81 165.805 222.152V217.602H165.077V216.832H165.805V214.151H166.827V216.832H168.612V217.602H166.827V222.096C166.827 222.493 166.904 222.796 167.058 223.006C167.212 223.216 167.431 223.321 167.716 223.321C167.991 223.321 168.234 223.244 168.444 223.09L168.703 223.902C168.544 224 168.358 224.077 168.143 224.133C167.928 224.194 167.714 224.224 167.499 224.224ZM173.968 224.224C173.296 224.224 172.69 224.061 172.148 223.734C171.612 223.403 171.185 222.95 170.867 222.376C170.555 221.802 170.398 221.146 170.398 220.409C170.398 219.681 170.552 219.032 170.86 218.463C171.173 217.889 171.598 217.436 172.134 217.105C172.676 216.774 173.287 216.608 173.968 216.608C174.617 216.608 175.205 216.76 175.732 217.063C176.26 217.366 176.661 217.786 176.936 218.323V216.832H177.958V224H176.936V222.488C176.628 223.029 176.215 223.454 175.697 223.762C175.179 224.07 174.603 224.224 173.968 224.224ZM174.22 223.335C174.757 223.335 175.231 223.211 175.641 222.964C176.057 222.712 176.383 222.367 176.621 221.928C176.859 221.485 176.978 220.981 176.978 220.416C176.978 219.847 176.859 219.343 176.621 218.904C176.388 218.465 176.064 218.122 175.648 217.875C175.233 217.623 174.757 217.497 174.22 217.497C173.684 217.497 173.208 217.623 172.792 217.875C172.377 218.122 172.05 218.465 171.812 218.904C171.574 219.343 171.455 219.847 171.455 220.416C171.455 220.981 171.574 221.485 171.812 221.928C172.05 222.367 172.377 222.712 172.792 222.964C173.208 223.211 173.684 223.335 174.22 223.335ZM180.972 224V216.832H181.994V217.812C182.19 217.476 182.493 217.191 182.904 216.958C183.314 216.725 183.816 216.608 184.409 216.608C184.964 216.608 185.442 216.722 185.844 216.951C186.245 217.18 186.553 217.513 186.768 217.952C186.982 218.386 187.09 218.911 187.09 219.527V224H186.068V219.723C186.068 218.981 185.895 218.416 185.55 218.029C185.204 217.637 184.717 217.441 184.087 217.441C183.648 217.441 183.272 217.53 182.96 217.707C182.652 217.88 182.414 218.111 182.246 218.4C182.078 218.685 181.994 218.995 181.994 219.331V224H180.972ZM193.3 224.224C192.763 224.224 192.259 224.131 191.788 223.944C191.317 223.753 190.904 223.484 190.549 223.139C190.194 222.794 189.917 222.39 189.716 221.928C189.515 221.466 189.415 220.962 189.415 220.416C189.415 219.875 189.513 219.373 189.709 218.911C189.905 218.449 190.178 218.045 190.528 217.7C190.883 217.355 191.296 217.086 191.767 216.895C192.238 216.704 192.749 216.608 193.3 216.608C193.771 216.608 194.219 216.678 194.644 216.818C195.069 216.958 195.435 217.152 195.743 217.399L195.323 218.085C194.8 217.679 194.166 217.476 193.419 217.476C192.831 217.476 192.313 217.607 191.865 217.868C191.422 218.125 191.076 218.477 190.829 218.925C190.582 219.368 190.458 219.865 190.458 220.416C190.458 220.971 190.584 221.473 190.836 221.921C191.088 222.364 191.438 222.714 191.886 222.971C192.334 223.228 192.847 223.356 193.426 223.356C193.79 223.356 194.133 223.305 194.455 223.202C194.782 223.095 195.069 222.943 195.316 222.747L195.743 223.433C195.43 223.676 195.064 223.867 194.644 224.007C194.224 224.152 193.776 224.224 193.3 224.224ZM197.932 224V216.832H198.954V224H197.932ZM198.45 215.397C198.324 215.397 198.209 215.367 198.107 215.306C198.009 215.245 197.929 215.164 197.869 215.061C197.808 214.958 197.778 214.846 197.778 214.725C197.778 214.604 197.808 214.494 197.869 214.396C197.929 214.293 198.009 214.212 198.107 214.151C198.209 214.09 198.324 214.06 198.45 214.06C198.571 214.06 198.681 214.09 198.779 214.151C198.877 214.212 198.956 214.291 199.017 214.389C199.082 214.487 199.115 214.599 199.115 214.725C199.115 214.846 199.082 214.958 199.017 215.061C198.956 215.164 198.877 215.245 198.779 215.306C198.681 215.367 198.571 215.397 198.45 215.397ZM205.031 224.224C204.359 224.224 203.752 224.061 203.211 223.734C202.674 223.403 202.247 222.95 201.93 222.376C201.617 221.802 201.461 221.146 201.461 220.409C201.461 219.681 201.615 219.032 201.923 218.463C202.235 217.889 202.66 217.436 203.197 217.105C203.738 216.774 204.349 216.608 205.031 216.608C205.679 216.608 206.267 216.76 206.795 217.063C207.322 217.366 207.723 217.786 207.999 218.323V216.832H209.021V224H207.999V222.488C207.691 223.029 207.278 223.454 206.76 223.762C206.242 224.07 205.665 224.224 205.031 224.224ZM205.283 223.335C205.819 223.335 206.293 223.211 206.704 222.964C207.119 222.712 207.446 222.367 207.684 221.928C207.922 221.485 208.041 220.981 208.041 220.416C208.041 219.847 207.922 219.343 207.684 218.904C207.45 218.465 207.126 218.122 206.711 217.875C206.295 217.623 205.819 217.497 205.283 217.497C204.746 217.497 204.27 217.623 203.855 217.875C203.439 218.122 203.113 218.465 202.875 218.904C202.637 219.343 202.518 219.847 202.518 220.416C202.518 220.981 202.637 221.485 202.875 221.928C203.113 222.367 203.439 222.712 203.855 222.964C204.27 223.211 204.746 223.335 205.283 223.335ZM218.689 224.224C218.017 224.224 217.41 224.061 216.869 223.734C216.332 223.407 215.905 222.957 215.588 222.383C215.275 221.809 215.119 221.153 215.119 220.416C215.119 219.683 215.275 219.032 215.588 218.463C215.901 217.889 216.325 217.436 216.862 217.105C217.403 216.774 218.017 216.608 218.703 216.608C219.342 216.608 219.921 216.76 220.439 217.063C220.957 217.366 221.363 217.786 221.657 218.323V211.953H222.679V224H221.657V222.488C221.354 223.029 220.941 223.454 220.418 223.762C219.9 224.07 219.324 224.224 218.689 224.224ZM218.934 223.335C219.471 223.335 219.947 223.211 220.362 222.964C220.777 222.712 221.104 222.367 221.342 221.928C221.58 221.485 221.699 220.983 221.699 220.423C221.699 219.854 221.58 219.35 221.342 218.911C221.109 218.468 220.782 218.122 220.362 217.875C219.947 217.623 219.471 217.497 218.934 217.497C218.402 217.497 217.928 217.623 217.513 217.875C217.098 218.122 216.771 218.468 216.533 218.911C216.295 219.35 216.176 219.854 216.176 220.423C216.176 220.988 216.293 221.489 216.526 221.928C216.764 222.367 217.091 222.712 217.506 222.964C217.926 223.211 218.402 223.335 218.934 223.335ZM229.053 224.224C228.301 224.224 227.629 224.058 227.037 223.727C226.449 223.396 225.987 222.945 225.651 222.376C225.315 221.802 225.147 221.158 225.147 220.444C225.147 219.907 225.242 219.408 225.434 218.946C225.63 218.479 225.9 218.071 226.245 217.721C226.591 217.371 226.992 217.098 227.45 216.902C227.907 216.706 228.395 216.608 228.913 216.608C229.622 216.608 230.252 216.764 230.803 217.077C231.358 217.385 231.797 217.812 232.119 218.358C232.445 218.904 232.618 219.534 232.637 220.248C232.637 220.304 232.634 220.351 232.63 220.388C232.63 220.421 232.625 220.463 232.616 220.514H226.162C226.162 221.074 226.288 221.569 226.54 221.998C226.792 222.427 227.137 222.766 227.576 223.013C228.019 223.256 228.525 223.377 229.095 223.377C229.636 223.377 230.121 223.265 230.551 223.041C230.985 222.812 231.346 222.486 231.636 222.061L232.392 222.467C232.051 223.022 231.587 223.454 230.999 223.762C230.415 224.07 229.767 224.224 229.053 224.224ZM226.218 219.744H231.615C231.554 219.296 231.398 218.902 231.146 218.561C230.894 218.216 230.574 217.945 230.187 217.749C229.804 217.553 229.384 217.455 228.927 217.455C228.455 217.455 228.026 217.553 227.639 217.749C227.251 217.94 226.932 218.209 226.68 218.554C226.432 218.895 226.278 219.291 226.218 219.744ZM114.027 240V227.96H115.049V240H114.027ZM121.12 240.224C120.448 240.224 119.841 240.061 119.3 239.734C118.763 239.403 118.336 238.95 118.019 238.376C117.706 237.802 117.55 237.146 117.55 236.409C117.55 235.681 117.704 235.032 118.012 234.463C118.324 233.889 118.749 233.436 119.286 233.105C119.827 232.774 120.438 232.608 121.12 232.608C121.768 232.608 122.356 232.76 122.884 233.063C123.411 233.366 123.812 233.786 124.088 234.323V232.832H125.11V240H124.088V238.488C123.78 239.029 123.367 239.454 122.849 239.762C122.331 240.07 121.754 240.224 121.12 240.224ZM121.372 239.335C121.908 239.335 122.382 239.211 122.793 238.964C123.208 238.712 123.535 238.367 123.773 237.928C124.011 237.485 124.13 236.981 124.13 236.416C124.13 235.847 124.011 235.343 123.773 234.904C123.539 234.465 123.215 234.122 122.8 233.875C122.384 233.623 121.908 233.497 121.372 233.497C120.835 233.497 120.359 233.623 119.944 233.875C119.528 234.122 119.202 234.465 118.964 234.904C118.726 235.343 118.607 235.847 118.607 236.416C118.607 236.981 118.726 237.485 118.964 237.928C119.202 238.367 119.528 238.712 119.944 238.964C120.359 239.211 120.835 239.335 121.372 239.335ZM135.716 240.224C135.081 240.224 134.503 240.07 133.98 239.762C133.457 239.454 133.044 239.029 132.741 238.488V240H131.719V227.96H132.741V234.323C133.035 233.786 133.441 233.366 133.959 233.063C134.477 232.76 135.056 232.608 135.695 232.608C136.381 232.608 136.995 232.774 137.536 233.105C138.077 233.436 138.502 233.889 138.81 234.463C139.123 235.032 139.279 235.683 139.279 236.416C139.279 237.153 139.12 237.809 138.803 238.383C138.49 238.957 138.066 239.407 137.529 239.734C136.992 240.061 136.388 240.224 135.716 240.224ZM135.464 239.335C136.001 239.335 136.477 239.211 136.892 238.964C137.307 238.712 137.632 238.367 137.865 237.928C138.103 237.485 138.222 236.983 138.222 236.423C138.222 235.854 138.103 235.35 137.865 234.911C137.627 234.468 137.3 234.122 136.885 233.875C136.474 233.623 136.001 233.497 135.464 233.497C134.927 233.497 134.451 233.623 134.036 233.875C133.621 234.122 133.294 234.468 133.056 234.911C132.818 235.35 132.699 235.854 132.699 236.423C132.699 236.983 132.816 237.485 133.049 237.928C133.287 238.367 133.614 238.712 134.029 238.964C134.449 239.211 134.927 239.335 135.464 239.335ZM144.679 240.224C143.592 240.224 142.815 239.979 142.348 239.489C141.882 238.999 141.648 238.18 141.648 237.032V232.832H142.67V236.85C142.67 237.755 142.824 238.402 143.132 238.789C143.44 239.172 143.956 239.363 144.679 239.363C145.407 239.363 145.923 239.172 146.226 238.789C146.534 238.402 146.688 237.755 146.688 236.85V232.832H147.71V237.032C147.71 238.18 147.477 238.999 147.01 239.489C146.548 239.979 145.771 240.224 144.679 240.224ZM153.96 240.224C153.208 240.224 152.536 240.058 151.944 239.727C151.356 239.396 150.894 238.945 150.558 238.376C150.222 237.802 150.054 237.158 150.054 236.444C150.054 235.907 150.149 235.408 150.341 234.946C150.537 234.479 150.807 234.071 151.153 233.721C151.498 233.371 151.899 233.098 152.357 232.902C152.814 232.706 153.302 232.608 153.82 232.608C154.529 232.608 155.159 232.764 155.71 233.077C156.265 233.385 156.704 233.812 157.026 234.358C157.352 234.904 157.525 235.534 157.544 236.248C157.544 236.304 157.541 236.351 157.537 236.388C157.537 236.421 157.532 236.463 157.523 236.514H151.069C151.069 237.074 151.195 237.569 151.447 237.998C151.699 238.427 152.044 238.766 152.483 239.013C152.926 239.256 153.432 239.377 154.002 239.377C154.543 239.377 155.028 239.265 155.458 239.041C155.892 238.812 156.253 238.486 156.543 238.061L157.299 238.467C156.958 239.022 156.494 239.454 155.906 239.762C155.322 240.07 154.674 240.224 153.96 240.224ZM151.125 235.744H156.522C156.461 235.296 156.305 234.902 156.053 234.561C155.801 234.216 155.481 233.945 155.094 233.749C154.711 233.553 154.291 233.455 153.834 233.455C153.362 233.455 152.933 233.553 152.546 233.749C152.158 233.94 151.839 234.209 151.587 234.554C151.339 234.895 151.185 235.291 151.125 235.744ZM159.924 240V232.832H160.946V233.812C161.142 233.476 161.445 233.191 161.856 232.958C162.267 232.725 162.768 232.608 163.361 232.608C163.916 232.608 164.395 232.722 164.796 232.951C165.197 233.18 165.505 233.513 165.72 233.952C165.935 234.386 166.042 234.911 166.042 235.527V240H165.02V235.723C165.02 234.981 164.847 234.416 164.502 234.029C164.157 233.637 163.669 233.441 163.039 233.441C162.6 233.441 162.225 233.53 161.912 233.707C161.604 233.88 161.366 234.111 161.198 234.4C161.03 234.685 160.946 234.995 160.946 235.331V240H159.924ZM171.979 240.224C171.307 240.224 170.7 240.061 170.159 239.734C169.622 239.403 169.195 238.95 168.878 238.376C168.565 237.802 168.409 237.146 168.409 236.409C168.409 235.681 168.563 235.032 168.871 234.463C169.184 233.889 169.608 233.436 170.145 233.105C170.686 232.774 171.298 232.608 171.979 232.608C172.628 232.608 173.216 232.76 173.743 233.063C174.27 233.366 174.672 233.786 174.947 234.323V232.832H175.969V240H174.947V238.488C174.639 239.029 174.226 239.454 173.708 239.762C173.19 240.07 172.614 240.224 171.979 240.224ZM172.231 239.335C172.768 239.335 173.241 239.211 173.652 238.964C174.067 238.712 174.394 238.367 174.632 237.928C174.87 237.485 174.989 236.981 174.989 236.416C174.989 235.847 174.87 235.343 174.632 234.904C174.399 234.465 174.074 234.122 173.659 233.875C173.244 233.623 172.768 233.497 172.231 233.497C171.694 233.497 171.218 233.623 170.803 233.875C170.388 234.122 170.061 234.465 169.823 234.904C169.585 235.343 169.466 235.847 169.466 236.416C169.466 236.981 169.585 237.485 169.823 237.928C170.061 238.367 170.388 238.712 170.803 238.964C171.218 239.211 171.694 239.335 172.231 239.335ZM74.6421 256.224C73.9701 256.224 73.3635 256.061 72.8221 255.734C72.2855 255.403 71.8585 254.95 71.5411 254.376C71.2285 253.802 71.0721 253.146 71.0721 252.409C71.0721 251.681 71.2261 251.032 71.5341 250.463C71.8468 249.889 72.2715 249.436 72.8081 249.105C73.3495 248.774 73.9608 248.608 74.6421 248.608C75.2908 248.608 75.8788 248.76 76.4061 249.063C76.9335 249.366 77.3348 249.786 77.6101 250.323V248.832H78.6321V256H77.6101V254.488C77.3021 255.029 76.8891 255.454 76.3711 255.762C75.8531 256.07 75.2768 256.224 74.6421 256.224ZM74.8941 255.335C75.4308 255.335 75.9045 255.211 76.3151 254.964C76.7305 254.712 77.0571 254.367 77.2951 253.928C77.5331 253.485 77.6521 252.981 77.6521 252.416C77.6521 251.847 77.5331 251.343 77.2951 250.904C77.0618 250.465 76.7375 250.122 76.3221 249.875C75.9068 249.623 75.4308 249.497 74.8941 249.497C74.3575 249.497 73.8815 249.623 73.4661 249.875C73.0508 250.122 72.7241 250.465 72.4861 250.904C72.2481 251.343 72.1291 251.847 72.1291 252.416C72.1291 252.981 72.2481 253.485 72.4861 253.928C72.7241 254.367 73.0508 254.712 73.4661 254.964C73.8815 255.211 74.3575 255.335 74.8941 255.335ZM81.6456 256V243.96H82.6676V256H81.6456ZM85.6718 256V248.832H86.6938V256H85.6718ZM86.1898 247.397C86.0638 247.397 85.9495 247.367 85.8468 247.306C85.7488 247.245 85.6695 247.164 85.6088 247.061C85.5482 246.958 85.5178 246.846 85.5178 246.725C85.5178 246.604 85.5482 246.494 85.6088 246.396C85.6695 246.293 85.7488 246.212 85.8468 246.151C85.9495 246.09 86.0638 246.06 86.1898 246.06C86.3112 246.06 86.4208 246.09 86.5188 246.151C86.6168 246.212 86.6962 246.291 86.7568 246.389C86.8222 246.487 86.8548 246.599 86.8548 246.725C86.8548 246.846 86.8222 246.958 86.7568 247.061C86.6962 247.164 86.6168 247.245 86.5188 247.306C86.4208 247.367 86.3112 247.397 86.1898 247.397ZM89.712 256V248.832H90.734V249.812C91.0187 249.415 91.3594 249.117 91.756 248.916C92.1527 248.711 92.596 248.608 93.086 248.608C93.674 248.608 94.185 248.743 94.619 249.014C95.0577 249.285 95.361 249.653 95.529 250.12C95.8044 249.663 96.1544 249.296 96.579 249.021C97.0084 248.746 97.517 248.608 98.105 248.608C98.6137 248.608 99.0664 248.713 99.463 248.923C99.8597 249.128 100.17 249.432 100.394 249.833C100.623 250.23 100.737 250.715 100.737 251.289V256H99.715V251.576C99.715 250.923 99.5447 250.405 99.204 250.022C98.8634 249.639 98.4084 249.448 97.839 249.448C97.447 249.448 97.0924 249.534 96.775 249.707C96.4577 249.88 96.2057 250.104 96.019 250.379C95.8324 250.65 95.739 250.93 95.739 251.219V256H94.717V251.471C94.717 250.85 94.5467 250.358 94.206 249.994C93.87 249.63 93.4244 249.448 92.869 249.448C92.477 249.448 92.1177 249.532 91.791 249.7C91.469 249.863 91.2124 250.076 91.021 250.337C90.8297 250.598 90.734 250.867 90.734 251.142V256H89.712ZM106.99 256.224C106.239 256.224 105.567 256.058 104.974 255.727C104.386 255.396 103.924 254.945 103.588 254.376C103.252 253.802 103.084 253.158 103.084 252.444C103.084 251.907 103.18 251.408 103.371 250.946C103.567 250.479 103.838 250.071 104.183 249.721C104.528 249.371 104.93 249.098 105.387 248.902C105.844 248.706 106.332 248.608 106.85 248.608C107.559 248.608 108.189 248.764 108.74 249.077C109.295 249.385 109.734 249.812 110.056 250.358C110.383 250.904 110.555 251.534 110.574 252.248C110.574 252.304 110.572 252.351 110.567 252.388C110.567 252.421 110.562 252.463 110.553 252.514H104.099C104.099 253.074 104.225 253.569 104.477 253.998C104.729 254.427 105.074 254.766 105.513 255.013C105.956 255.256 106.463 255.377 107.032 255.377C107.573 255.377 108.059 255.265 108.488 255.041C108.922 254.812 109.284 254.486 109.573 254.061L110.329 254.467C109.988 255.022 109.524 255.454 108.936 255.762C108.353 256.07 107.704 256.224 106.99 256.224ZM104.155 251.744H109.552C109.491 251.296 109.335 250.902 109.083 250.561C108.831 250.216 108.511 249.945 108.124 249.749C107.741 249.553 107.321 249.455 106.864 249.455C106.393 249.455 105.963 249.553 105.576 249.749C105.189 249.94 104.869 250.209 104.617 250.554C104.37 250.895 104.216 251.291 104.155 251.744ZM112.954 256V248.832H113.976V249.812C114.172 249.476 114.476 249.191 114.886 248.958C115.297 248.725 115.799 248.608 116.391 248.608C116.947 248.608 117.425 248.722 117.826 248.951C118.228 249.18 118.536 249.513 118.75 249.952C118.965 250.386 119.072 250.911 119.072 251.527V256H118.05V251.723C118.05 250.981 117.878 250.416 117.532 250.029C117.187 249.637 116.699 249.441 116.069 249.441C115.631 249.441 115.255 249.53 114.942 249.707C114.634 249.88 114.396 250.111 114.228 250.4C114.06 250.685 113.976 250.995 113.976 251.331V256H112.954ZM123.653 256.224C123.117 256.224 122.699 256.044 122.4 255.685C122.106 255.321 121.959 254.81 121.959 254.152V249.602H121.231V248.832H121.959V246.151H122.981V248.832H124.766V249.602H122.981V254.096C122.981 254.493 123.058 254.796 123.212 255.006C123.366 255.216 123.586 255.321 123.87 255.321C124.146 255.321 124.388 255.244 124.598 255.09L124.857 255.902C124.699 256 124.512 256.077 124.297 256.133C124.083 256.194 123.868 256.224 123.653 256.224ZM130.123 256.224C129.451 256.224 128.844 256.061 128.303 255.734C127.766 255.403 127.339 254.95 127.022 254.376C126.709 253.802 126.553 253.146 126.553 252.409C126.553 251.681 126.707 251.032 127.015 250.463C127.327 249.889 127.752 249.436 128.289 249.105C128.83 248.774 129.441 248.608 130.123 248.608C130.771 248.608 131.359 248.76 131.887 249.063C132.414 249.366 132.815 249.786 133.091 250.323V248.832H134.113V256H133.091V254.488C132.783 255.029 132.37 255.454 131.852 255.762C131.334 256.07 130.757 256.224 130.123 256.224ZM130.375 255.335C130.911 255.335 131.385 255.211 131.796 254.964C132.211 254.712 132.538 254.367 132.776 253.928C133.014 253.485 133.133 252.981 133.133 252.416C133.133 251.847 133.014 251.343 132.776 250.904C132.542 250.465 132.218 250.122 131.803 249.875C131.387 249.623 130.911 249.497 130.375 249.497C129.838 249.497 129.362 249.623 128.947 249.875C128.531 250.122 128.205 250.465 127.967 250.904C127.729 251.343 127.61 251.847 127.61 252.416C127.61 252.981 127.729 253.485 127.967 253.928C128.205 254.367 128.531 254.712 128.947 254.964C129.362 255.211 129.838 255.335 130.375 255.335ZM140.458 256.224C139.921 256.224 139.417 256.131 138.946 255.944C138.475 255.753 138.062 255.484 137.707 255.139C137.352 254.794 137.075 254.39 136.874 253.928C136.673 253.466 136.573 252.962 136.573 252.416C136.573 251.875 136.671 251.373 136.867 250.911C137.063 250.449 137.336 250.045 137.686 249.7C138.041 249.355 138.454 249.086 138.925 248.895C139.396 248.704 139.907 248.608 140.458 248.608C140.929 248.608 141.377 248.678 141.802 248.818C142.227 248.958 142.593 249.152 142.901 249.399L142.481 250.085C141.958 249.679 141.324 249.476 140.577 249.476C139.989 249.476 139.471 249.607 139.023 249.868C138.58 250.125 138.234 250.477 137.987 250.925C137.74 251.368 137.616 251.865 137.616 252.416C137.616 252.971 137.742 253.473 137.994 253.921C138.246 254.364 138.596 254.714 139.044 254.971C139.492 255.228 140.005 255.356 140.584 255.356C140.948 255.356 141.291 255.305 141.613 255.202C141.94 255.095 142.227 254.943 142.474 254.747L142.901 255.433C142.588 255.676 142.222 255.867 141.802 256.007C141.382 256.152 140.934 256.224 140.458 256.224ZM145.09 256V248.832H146.112V256H145.09ZM145.608 247.397C145.482 247.397 145.367 247.367 145.265 247.306C145.167 247.245 145.087 247.164 145.027 247.061C144.966 246.958 144.936 246.846 144.936 246.725C144.936 246.604 144.966 246.494 145.027 246.396C145.087 246.293 145.167 246.212 145.265 246.151C145.367 246.09 145.482 246.06 145.608 246.06C145.729 246.06 145.839 246.09 145.937 246.151C146.035 246.212 146.114 246.291 146.175 246.389C146.24 246.487 146.273 246.599 146.273 246.725C146.273 246.846 146.24 246.958 146.175 247.061C146.114 247.164 146.035 247.245 145.937 247.306C145.839 247.367 145.729 247.397 145.608 247.397ZM152.553 256.224C151.806 256.224 151.132 256.063 150.53 255.741C149.933 255.419 149.459 254.971 149.109 254.397C148.759 253.823 148.584 253.163 148.584 252.416C148.584 251.665 148.759 251.004 149.109 250.435C149.459 249.861 149.933 249.413 150.53 249.091C151.127 248.769 151.802 248.608 152.553 248.608C153.3 248.608 153.972 248.769 154.569 249.091C155.171 249.413 155.647 249.861 155.997 250.435C156.347 251.004 156.522 251.665 156.522 252.416C156.522 253.163 156.347 253.823 155.997 254.397C155.647 254.971 155.171 255.419 154.569 255.741C153.972 256.063 153.3 256.224 152.553 256.224ZM152.553 255.314C153.113 255.314 153.612 255.19 154.051 254.943C154.49 254.696 154.835 254.355 155.087 253.921C155.339 253.482 155.465 252.981 155.465 252.416C155.465 251.851 155.339 251.352 155.087 250.918C154.835 250.479 154.49 250.136 154.051 249.889C153.612 249.642 153.113 249.518 152.553 249.518C151.993 249.518 151.494 249.642 151.055 249.889C150.616 250.136 150.271 250.479 150.019 250.918C149.767 251.352 149.641 251.851 149.641 252.416C149.641 252.976 149.767 253.475 150.019 253.914C150.271 254.353 150.616 254.696 151.055 254.943C151.494 255.19 151.993 255.314 152.553 255.314ZM152.476 247.677L151.951 247.292L153.281 244.639L154.086 245.213L152.476 247.677ZM158.987 256V248.832H160.009V249.812C160.205 249.476 160.509 249.191 160.919 248.958C161.33 248.725 161.832 248.608 162.424 248.608C162.98 248.608 163.458 248.722 163.859 248.951C164.261 249.18 164.569 249.513 164.783 249.952C164.998 250.386 165.105 250.911 165.105 251.527V256H164.083V251.723C164.083 250.981 163.911 250.416 163.565 250.029C163.22 249.637 162.732 249.441 162.102 249.441C161.664 249.441 161.288 249.53 160.975 249.707C160.667 249.88 160.429 250.111 160.261 250.4C160.093 250.685 160.009 250.995 160.009 251.331V256H158.987ZM174.638 256.224C173.966 256.224 173.36 256.061 172.818 255.734C172.282 255.407 171.855 254.957 171.537 254.383C171.225 253.809 171.068 253.153 171.068 252.416C171.068 251.683 171.225 251.032 171.537 250.463C171.85 249.889 172.275 249.436 172.811 249.105C173.353 248.774 173.966 248.608 174.652 248.608C175.292 248.608 175.87 248.76 176.388 249.063C176.906 249.366 177.312 249.786 177.606 250.323V243.953H178.628V256H177.606V254.488C177.303 255.029 176.89 255.454 176.367 255.762C175.849 256.07 175.273 256.224 174.638 256.224ZM174.883 255.335C175.42 255.335 175.896 255.211 176.311 254.964C176.727 254.712 177.053 254.367 177.291 253.928C177.529 253.485 177.648 252.983 177.648 252.423C177.648 251.854 177.529 251.35 177.291 250.911C177.058 250.468 176.731 250.122 176.311 249.875C175.896 249.623 175.42 249.497 174.883 249.497C174.351 249.497 173.878 249.623 173.462 249.875C173.047 250.122 172.72 250.468 172.482 250.911C172.244 251.35 172.125 251.854 172.125 252.423C172.125 252.988 172.242 253.489 172.475 253.928C172.713 254.367 173.04 254.712 173.455 254.964C173.875 255.211 174.351 255.335 174.883 255.335ZM181.635 256V248.832H182.657V256H181.635ZM182.153 247.397C182.027 247.397 181.912 247.367 181.81 247.306C181.712 247.245 181.632 247.164 181.572 247.061C181.511 246.958 181.481 246.846 181.481 246.725C181.481 246.604 181.511 246.494 181.572 246.396C181.632 246.293 181.712 246.212 181.81 246.151C181.912 246.09 182.027 246.06 182.153 246.06C182.274 246.06 182.384 246.09 182.482 246.151C182.58 246.212 182.659 246.291 182.72 246.389C182.785 246.487 182.818 246.599 182.818 246.725C182.818 246.846 182.785 246.958 182.72 247.061C182.659 247.164 182.58 247.245 182.482 247.306C182.384 247.367 182.274 247.397 182.153 247.397ZM188.734 256.224C188.062 256.224 187.455 256.061 186.914 255.734C186.377 255.403 185.95 254.95 185.633 254.376C185.32 253.802 185.164 253.146 185.164 252.409C185.164 251.681 185.318 251.032 185.626 250.463C185.939 249.889 186.363 249.436 186.9 249.105C187.441 248.774 188.053 248.608 188.734 248.608C189.383 248.608 189.971 248.76 190.498 249.063C191.025 249.366 191.427 249.786 191.702 250.323V248.832H192.724V256H191.702V254.488C191.394 255.029 190.981 255.454 190.463 255.762C189.945 256.07 189.369 256.224 188.734 256.224ZM188.986 255.335C189.523 255.335 189.996 255.211 190.407 254.964C190.822 254.712 191.149 254.367 191.387 253.928C191.625 253.485 191.744 252.981 191.744 252.416C191.744 251.847 191.625 251.343 191.387 250.904C191.154 250.465 190.829 250.122 190.414 249.875C189.999 249.623 189.523 249.497 188.986 249.497C188.449 249.497 187.973 249.623 187.558 249.875C187.143 250.122 186.816 250.465 186.578 250.904C186.34 251.343 186.221 251.847 186.221 252.416C186.221 252.981 186.34 253.485 186.578 253.928C186.816 254.367 187.143 254.712 187.558 254.964C187.973 255.211 188.449 255.335 188.986 255.335ZM195.737 256V248.832H196.759V249.889C196.988 249.469 197.282 249.152 197.641 248.937C198.005 248.718 198.425 248.608 198.901 248.608C199.111 248.608 199.324 248.631 199.538 248.678C199.758 248.725 199.947 248.785 200.105 248.86L199.685 249.721C199.545 249.651 199.384 249.597 199.202 249.56C199.025 249.523 198.855 249.504 198.691 249.504C198.36 249.504 198.047 249.588 197.753 249.756C197.459 249.924 197.219 250.143 197.032 250.414C196.85 250.68 196.759 250.965 196.759 251.268V256H195.737ZM201.978 256V248.832H203V256H201.978ZM202.496 247.397C202.37 247.397 202.256 247.367 202.153 247.306C202.055 247.245 201.976 247.164 201.915 247.061C201.855 246.958 201.824 246.846 201.824 246.725C201.824 246.604 201.855 246.494 201.915 246.396C201.976 246.293 202.055 246.212 202.153 246.151C202.256 246.09 202.37 246.06 202.496 246.06C202.618 246.06 202.727 246.09 202.825 246.151C202.923 246.212 203.003 246.291 203.063 246.389C203.129 246.487 203.161 246.599 203.161 246.725C203.161 246.846 203.129 246.958 203.063 247.061C203.003 247.164 202.923 247.245 202.825 247.306C202.727 247.367 202.618 247.397 202.496 247.397ZM209.078 256.224C208.406 256.224 207.799 256.061 207.258 255.734C206.721 255.403 206.294 254.95 205.977 254.376C205.664 253.802 205.508 253.146 205.508 252.409C205.508 251.681 205.662 251.032 205.97 250.463C206.282 249.889 206.707 249.436 207.244 249.105C207.785 248.774 208.396 248.608 209.078 248.608C209.726 248.608 210.314 248.76 210.842 249.063C211.369 249.366 211.77 249.786 212.046 250.323V248.832H213.068V256H212.046V254.488C211.738 255.029 211.325 255.454 210.807 255.762C210.289 256.07 209.712 256.224 209.078 256.224ZM209.33 255.335C209.866 255.335 210.34 255.211 210.751 254.964C211.166 254.712 211.493 254.367 211.731 253.928C211.969 253.485 212.088 252.981 212.088 252.416C212.088 251.847 211.969 251.343 211.731 250.904C211.497 250.465 211.173 250.122 210.758 249.875C210.342 249.623 209.866 249.497 209.33 249.497C208.793 249.497 208.317 249.623 207.902 249.875C207.486 250.122 207.16 250.465 206.922 250.904C206.684 251.343 206.565 251.847 206.565 252.416C206.565 252.981 206.684 253.485 206.922 253.928C207.16 254.367 207.486 254.712 207.902 254.964C208.317 255.211 208.793 255.335 209.33 255.335ZM217.25 256.224C217.115 256.224 216.991 256.191 216.879 256.126C216.772 256.061 216.686 255.974 216.62 255.867C216.56 255.755 216.529 255.634 216.529 255.503C216.529 255.372 216.56 255.253 216.62 255.146C216.686 255.039 216.774 254.952 216.886 254.887C216.998 254.822 217.117 254.789 217.243 254.789C217.379 254.789 217.5 254.822 217.607 254.887C217.715 254.952 217.799 255.039 217.859 255.146C217.925 255.253 217.957 255.372 217.957 255.503C217.957 255.634 217.925 255.755 217.859 255.867C217.799 255.974 217.715 256.061 217.607 256.126C217.5 256.191 217.381 256.224 217.25 256.224Z" fill="black"/>
<rect x="104.25" y="120.25" width="87.5" height="29.5" rx="14.75" stroke="#C5D751" stroke-width="0.5"/>
<path d="M123.312 139.176C122.63 139.176 121.994 139.057 121.404 138.819C120.817 138.576 120.302 138.243 119.858 137.817C119.418 137.388 119.075 136.888 118.83 136.316C118.584 135.744 118.461 135.128 118.461 134.468C118.461 133.808 118.584 133.192 118.83 132.62C119.079 132.048 119.424 131.549 119.864 131.124C120.304 130.695 120.817 130.361 121.404 130.123C121.99 129.881 122.625 129.76 123.307 129.76C123.871 129.76 124.403 129.842 124.902 130.007C125.404 130.169 125.842 130.391 126.216 130.673L125.71 131.613C125.41 131.371 125.058 131.186 124.654 131.058C124.251 130.926 123.826 130.86 123.378 130.86C122.839 130.86 122.344 130.952 121.893 131.135C121.442 131.318 121.05 131.575 120.716 131.905C120.386 132.231 120.13 132.614 119.946 133.054C119.767 133.491 119.677 133.962 119.677 134.468C119.677 134.974 119.767 135.447 119.946 135.887C120.13 136.323 120.386 136.706 120.716 137.036C121.05 137.363 121.442 137.618 121.893 137.801C122.344 137.984 122.839 138.076 123.378 138.076C123.826 138.076 124.251 138.012 124.654 137.883C125.058 137.751 125.41 137.564 125.71 137.322L126.216 138.263C125.85 138.538 125.417 138.76 124.918 138.928C124.42 139.094 123.884 139.176 123.312 139.176ZM128.036 139V129.925H130.61C131.212 129.925 131.732 130.029 132.172 130.238C132.612 130.447 132.952 130.748 133.19 131.14C133.432 131.529 133.553 131.997 133.553 132.543C133.553 133.02 133.459 133.443 133.272 133.813C133.085 134.184 132.818 134.486 132.469 134.721C132.125 134.956 131.712 135.11 131.232 135.183L134.235 139H132.816L130.005 135.298H129.153V139H128.036ZM129.153 134.347H130.308C130.741 134.347 131.113 134.275 131.424 134.132C131.736 133.989 131.976 133.786 132.145 133.522C132.314 133.254 132.398 132.937 132.398 132.57C132.398 132.024 132.213 131.597 131.842 131.289C131.476 130.981 130.964 130.827 130.308 130.827H129.153V134.347ZM135.91 139V129.925H140.624V130.909H137.027V133.962H140.492V134.941H137.027V138.015H140.624V139H135.91ZM142.097 139L145.688 129.925H146.728L150.319 139H149.115L148.108 136.354H144.308L143.296 139H142.097ZM144.687 135.37H147.729L146.205 131.415L144.687 135.37ZM153.364 139V130.926H150.735V129.925H157.115V130.926H154.48V139H153.364ZM159.017 139V129.925H160.133V139H159.017ZM164.852 139L161.046 129.925H162.311L165.292 137.317L168.273 129.925H169.532L165.726 139H164.852ZM169.425 139L173.017 129.925H174.056L177.648 139H176.443L175.437 136.354H171.636L170.624 139H169.425ZM172.016 135.37H175.057L173.534 131.415L172.016 135.37Z" fill="black"/>
<g clip-path="url(#clip0_1203_27)">
<g filter="url(#filter1_d_1203_27)">
<path d="M126.035 52.8228C125.348 52.4384 121.557 50.2238 120.362 45.4956C120.113 44.5104 119.11 39.9838 122.103 36.0804C122.457 35.6179 125.293 32.0436 129.86 32.0102C133.021 31.9877 135.16 33.6746 137.248 35.3242C138.937 36.6571 144.779 41.2676 143.474 45.8644C143.088 47.2252 142.291 46.9525 139.555 50.037C136.776 53.1695 136.792 54.2896 135.384 55.0565C133.906 55.8612 131.237 56.0736 126.035 52.8228Z" fill="#AEBC26"/>
<path d="M149.885 37.6399C150.288 36.9661 152.609 33.2378 157.37 32.1746C158.363 31.953 162.919 31.0747 166.744 34.1715C167.197 34.5383 170.695 37.4663 170.602 42.0307C170.538 45.1893 168.791 47.2778 167.084 49.3202C165.701 50.9708 160.927 56.6798 156.365 55.2503C155.015 54.8257 155.309 54.0411 152.299 51.2214C149.241 48.3596 148.12 48.3449 147.392 46.9174C146.628 45.4207 146.488 42.7492 149.885 37.6399Z" fill="#AEBC26"/>
<path d="M134.247 34.5122C134.263 33.7276 134.422 29.3392 138.026 26.0517C138.777 25.3652 142.293 22.342 147.151 23.13C147.726 23.2237 152.218 24.0269 154.408 28.0338C155.924 30.8064 155.448 33.4858 154.982 36.1064C154.605 38.2234 153.304 45.5476 148.634 46.5735C147.251 46.8775 147.112 46.0473 143.101 45.0975C139.024 44.1329 138.046 44.6762 136.702 43.7994C135.293 42.8805 133.844 40.6316 134.247 34.5122Z" fill="#C4D650"/>
<path d="M166.899 60.0235C167.041 49.6716 158.882 41.1371 148.585 40.7516C137.597 40.3358 128.503 49.3519 128.827 60.3349C128.849 61.0759 128.915 61.815 129.023 62.5484C129.061 62.8034 129.091 63.0599 129.121 63.3164C129.209 64.1284 129.369 64.9312 129.599 65.7153C130.5 69.7305 135.608 92.0976 141.573 99.6705C142.465 100.804 144.549 103.446 147.137 103.299C149.247 103.177 150.776 101.361 151.72 100.124C160.66 88.4036 165.461 67.488 165.791 66.5612C165.791 66.5568 165.807 66.5146 165.827 66.4557C165.897 66.2537 166.04 65.8246 166.175 65.2788C166.243 65.001 166.303 64.7231 166.354 64.4452C166.406 64.1608 166.46 63.8764 166.518 63.5929C166.756 62.4177 166.884 61.2226 166.899 60.0235V60.0235Z" fill="#E37A39"/>
<path d="M132.016 76.5591C137.667 76.0491 141.854 71.2764 141.368 65.8987C140.882 60.5211 135.907 56.5751 130.256 57.085C124.605 57.5949 120.418 62.3677 120.904 67.7453C121.39 73.123 126.365 77.069 132.016 76.5591Z" fill="#E2E2E2"/>
<path d="M134.708 74.5204C138.566 74.1722 141.424 70.9138 141.092 67.2425C140.761 63.5712 137.364 60.8773 133.506 61.2254C129.649 61.5735 126.79 64.8319 127.122 68.5032C127.454 72.1745 130.85 74.8685 134.708 74.5204Z" fill="black"/>
<path d="M132.272 63.831C132.508 62.8744 131.314 61.7572 129.604 61.3356C127.894 60.914 126.316 61.3477 126.08 62.3043C125.844 63.2609 127.039 64.3781 128.748 64.7997C130.458 65.2213 132.036 64.7876 132.272 63.831Z" fill="white"/>
<path d="M163.933 74.487C169.584 73.977 173.779 69.2891 173.303 64.0161C172.826 58.7432 167.859 54.882 162.208 55.3919C156.557 55.9018 152.362 60.5898 152.838 65.8627C153.315 71.1357 158.282 74.9969 163.933 74.487Z" fill="#E2E2E2"/>
<path d="M160.454 72.211C164.312 71.8628 167.175 68.6624 166.85 65.0626C166.525 61.4628 163.134 58.8267 159.276 59.1749C155.418 59.523 152.554 62.7234 152.879 66.3232C153.205 69.9231 156.596 72.5591 160.454 72.211Z" fill="black"/>
<path d="M165.104 63.1581C166.678 62.372 167.604 61.0336 167.172 60.1687C166.739 59.3038 165.112 59.2399 163.538 60.0261C161.963 60.8122 161.037 62.1506 161.47 63.0155C161.902 63.8804 163.529 63.9442 165.104 63.1581Z" fill="white"/>
</g>
</g>
<defs>
<filter id="filter0_d_1203_27" x="0" y="0" width="284" height="362" filterUnits="userSpaceOnUse" color-interpolation-filters="sRGB">
<feFlood flood-opacity="0" result="BackgroundImageFix"/>
<feColorMatrix in="SourceAlpha" type="matrix" values="0 0 0 0 0 0 0 0 0 0 0 0 0 0 0 0 0 0 127 0" result="hardAlpha"/>
<feOffset dy="12"/>
<feGaussianBlur stdDeviation="12"/>
<feComposite in2="hardAlpha" operator="out"/>
<feColorMatrix type="matrix" values="0 0 0 0 0.486275 0 0 0 0 0.419608 0 0 0 0 0.686275 0 0 0 0.22 0"/>
<feBlend mode="normal" in2="BackgroundImageFix" result="effect1_dropShadow_1203_27"/>
<feBlend mode="normal" in="SourceGraphic" in2="effect1_dropShadow_1203_27" result="shape"/>
</filter>
<filter id="filter1_d_1203_27" x="116" y="23" width="61.3392" height="88.3052" filterUnits="userSpaceOnUse" color-interpolation-filters="sRGB">
<feFlood flood-opacity="0" result="BackgroundImageFix"/>
<feColorMatrix in="SourceAlpha" type="matrix" values="0 0 0 0 0 0 0 0 0 0 0 0 0 0 0 0 0 0 127 0" result="hardAlpha"/>
<feOffset dy="4"/>
<feGaussianBlur stdDeviation="2"/>
<feComposite in2="hardAlpha" operator="out"/>
<feColorMatrix type="matrix" values="0 0 0 0 0 0 0 0 0 0 0 0 0 0 0 0 0 0 0.25 0"/>
<feBlend mode="normal" in2="BackgroundImageFix" result="effect1_dropShadow_1203_27"/>
<feBlend mode="normal" in="SourceGraphic" in2="effect1_dropShadow_1203_27" result="shape"/>
</filter>
<clipPath id="clip0_1203_27">
<rect width="60" height="94" fill="white" transform="translate(117 16)"/>
</clipPath>
</defs>
</svg>
