<svg width="357" height="252" viewBox="0 0 357 252" fill="none" xmlns="http://www.w3.org/2000/svg">
<g filter="url(#filter0_d_1226_79)">
<path d="M24 32C24 20.9543 32.9543 12 44 12H313C324.046 12 333 20.9543 333 32V196C333 207.046 324.046 216 313 216H44C32.9543 216 24 207.046 24 196V32Z" fill="white"/>
</g>
<path d="M76.4605 123V117.995L72.4915 111.45H73.7725L76.9925 116.861L80.2125 111.45H81.5005L77.5245 117.995V123H76.4605ZM85.3589 123.224C84.6869 123.224 84.0803 123.061 83.5389 122.734C83.0023 122.403 82.5753 121.95 82.2579 121.376C81.9453 120.802 81.7889 120.146 81.7889 119.409C81.7889 118.681 81.9429 118.032 82.2509 117.463C82.5636 116.889 82.9883 116.436 83.5249 116.105C84.0663 115.774 84.6776 115.608 85.3589 115.608C86.0076 115.608 86.5956 115.76 87.1229 116.063C87.6503 116.366 88.0516 116.786 88.3269 117.323V115.832H89.3489V123H88.3269V121.488C88.0189 122.029 87.6059 122.454 87.0879 122.762C86.5699 123.07 85.9936 123.224 85.3589 123.224ZM85.6109 122.335C86.1476 122.335 86.6213 122.211 87.0319 121.964C87.4473 121.712 87.7739 121.367 88.0119 120.928C88.2499 120.485 88.3689 119.981 88.3689 119.416C88.3689 118.847 88.2499 118.343 88.0119 117.904C87.7786 117.465 87.4543 117.122 87.0389 116.875C86.6236 116.623 86.1476 116.497 85.6109 116.497C85.0743 116.497 84.5983 116.623 84.1829 116.875C83.7676 117.122 83.4409 117.465 83.2029 117.904C82.9649 118.343 82.8459 118.847 82.8459 119.416C82.8459 119.981 82.9649 120.485 83.2029 120.928C83.4409 121.367 83.7676 121.712 84.1829 121.964C84.5983 122.211 85.0743 122.335 85.6109 122.335ZM101.985 126.64V121.488C101.677 122.029 101.264 122.454 100.746 122.762C100.228 123.07 99.6541 123.224 99.0241 123.224C98.3381 123.224 97.7268 123.058 97.1901 122.727C96.6535 122.396 96.2288 121.943 95.9161 121.369C95.6035 120.79 95.4471 120.139 95.4471 119.416C95.4471 118.683 95.6035 118.032 95.9161 117.463C96.2288 116.889 96.6558 116.436 97.1971 116.105C97.7385 115.774 98.3545 115.608 99.0451 115.608C99.6751 115.608 100.249 115.76 100.767 116.063C101.285 116.366 101.691 116.786 101.985 117.323V115.832H103.007V126.64H101.985ZM99.2621 122.335C99.7988 122.335 100.275 122.211 100.69 121.964C101.105 121.712 101.432 121.367 101.67 120.928C101.908 120.485 102.027 119.981 102.027 119.416C102.027 118.847 101.908 118.343 101.67 117.904C101.437 117.465 101.11 117.122 100.69 116.875C100.275 116.623 99.7988 116.497 99.2621 116.497C98.7301 116.497 98.2565 116.623 97.8411 116.875C97.4258 117.122 97.0991 117.465 96.8611 117.904C96.6231 118.343 96.5041 118.847 96.5041 119.416C96.5041 119.981 96.6208 120.482 96.8541 120.921C97.0921 121.36 97.4188 121.705 97.8341 121.957C98.2541 122.209 98.7301 122.335 99.2621 122.335ZM108.919 123.224C107.831 123.224 107.054 122.979 106.588 122.489C106.121 121.999 105.888 121.18 105.888 120.032V115.832H106.91V119.85C106.91 120.755 107.064 121.402 107.372 121.789C107.68 122.172 108.195 122.363 108.919 122.363C109.647 122.363 110.162 122.172 110.466 121.789C110.774 121.402 110.928 120.755 110.928 119.85V115.832H111.95V120.032C111.95 121.18 111.716 121.999 111.25 122.489C110.788 122.979 110.011 123.224 108.919 123.224ZM118.199 123.224C117.448 123.224 116.776 123.058 116.183 122.727C115.595 122.396 115.133 121.945 114.797 121.376C114.461 120.802 114.293 120.158 114.293 119.444C114.293 118.907 114.389 118.408 114.58 117.946C114.776 117.479 115.047 117.071 115.392 116.721C115.737 116.371 116.139 116.098 116.596 115.902C117.053 115.706 117.541 115.608 118.059 115.608C118.768 115.608 119.398 115.764 119.949 116.077C120.504 116.385 120.943 116.812 121.265 117.358C121.592 117.904 121.764 118.534 121.783 119.248C121.783 119.304 121.781 119.351 121.776 119.388C121.776 119.421 121.771 119.463 121.762 119.514H115.308C115.308 120.074 115.434 120.569 115.686 120.998C115.938 121.427 116.283 121.766 116.722 122.013C117.165 122.256 117.672 122.377 118.241 122.377C118.782 122.377 119.268 122.265 119.697 122.041C120.131 121.812 120.493 121.486 120.782 121.061L121.538 121.467C121.197 122.022 120.733 122.454 120.145 122.762C119.562 123.07 118.913 123.224 118.199 123.224ZM115.364 118.744H120.761C120.7 118.296 120.544 117.902 120.292 117.561C120.04 117.216 119.72 116.945 119.333 116.749C118.95 116.553 118.53 116.455 118.073 116.455C117.602 116.455 117.172 116.553 116.785 116.749C116.398 116.94 116.078 117.209 115.826 117.554C115.579 117.895 115.425 118.291 115.364 118.744ZM129.648 123.224C129.056 123.224 128.533 123.082 128.08 122.797C127.628 122.508 127.275 122.099 127.023 121.572L127.569 120.984C127.793 121.441 128.085 121.798 128.444 122.055C128.804 122.307 129.203 122.433 129.641 122.433C129.935 122.433 130.204 122.372 130.446 122.251C130.694 122.13 130.89 121.957 131.034 121.733C131.184 121.504 131.258 121.234 131.258 120.921C131.258 120.636 131.188 120.412 131.048 120.249C130.913 120.086 130.712 119.946 130.446 119.829C130.185 119.708 129.858 119.572 129.466 119.423C129.163 119.302 128.869 119.164 128.584 119.01C128.3 118.856 128.064 118.662 127.877 118.429C127.695 118.191 127.604 117.89 127.604 117.526C127.604 117.157 127.702 116.831 127.898 116.546C128.094 116.257 128.365 116.03 128.71 115.867C129.056 115.699 129.448 115.615 129.886 115.615C130.288 115.615 130.663 115.701 131.013 115.874C131.368 116.047 131.685 116.292 131.965 116.609L131.496 117.204C131.067 116.639 130.533 116.357 129.893 116.357C129.501 116.357 129.182 116.46 128.934 116.665C128.692 116.87 128.57 117.139 128.57 117.47C128.57 117.708 128.647 117.906 128.801 118.065C128.955 118.224 129.156 118.359 129.403 118.471C129.655 118.583 129.926 118.695 130.215 118.807C130.635 118.966 130.999 119.124 131.307 119.283C131.62 119.442 131.863 119.645 132.035 119.892C132.208 120.135 132.294 120.466 132.294 120.886C132.294 121.367 132.182 121.782 131.958 122.132C131.734 122.482 131.422 122.753 131.02 122.944C130.624 123.131 130.166 123.224 129.648 123.224ZM137.616 123.224C136.529 123.224 135.752 122.979 135.285 122.489C134.818 121.999 134.585 121.18 134.585 120.032V115.832H135.607V119.85C135.607 120.755 135.761 121.402 136.069 121.789C136.377 122.172 136.893 122.363 137.616 122.363C138.344 122.363 138.86 122.172 139.163 121.789C139.471 121.402 139.625 120.755 139.625 119.85V115.832H140.647V120.032C140.647 121.18 140.414 121.999 139.947 122.489C139.485 122.979 138.708 123.224 137.616 123.224ZM149.472 123L145.993 115.832H147.19L149.808 121.544L152.433 115.832H153.63L150.144 123H149.472ZM155.574 123V115.832H156.596V123H155.574ZM156.092 114.397C155.966 114.397 155.852 114.367 155.749 114.306C155.651 114.245 155.572 114.164 155.511 114.061C155.451 113.958 155.42 113.846 155.42 113.725C155.42 113.604 155.451 113.494 155.511 113.396C155.572 113.293 155.651 113.212 155.749 113.151C155.852 113.09 155.966 113.06 156.092 113.06C156.214 113.06 156.323 113.09 156.421 113.151C156.519 113.212 156.599 113.291 156.659 113.389C156.725 113.487 156.757 113.599 156.757 113.725C156.757 113.846 156.725 113.958 156.659 114.061C156.599 114.164 156.519 114.245 156.421 114.306C156.323 114.367 156.214 114.397 156.092 114.397ZM162.673 123.224C162.001 123.224 161.395 123.061 160.853 122.734C160.317 122.407 159.89 121.957 159.572 121.383C159.26 120.809 159.103 120.153 159.103 119.416C159.103 118.683 159.26 118.032 159.572 117.463C159.885 116.889 160.31 116.436 160.846 116.105C161.388 115.774 162.001 115.608 162.687 115.608C163.327 115.608 163.905 115.76 164.423 116.063C164.941 116.366 165.347 116.786 165.641 117.323V110.953H166.663V123H165.641V121.488C165.338 122.029 164.925 122.454 164.402 122.762C163.884 123.07 163.308 123.224 162.673 123.224ZM162.918 122.335C163.455 122.335 163.931 122.211 164.346 121.964C164.762 121.712 165.088 121.367 165.326 120.928C165.564 120.485 165.683 119.983 165.683 119.423C165.683 118.854 165.564 118.35 165.326 117.911C165.093 117.468 164.766 117.122 164.346 116.875C163.931 116.623 163.455 116.497 162.918 116.497C162.386 116.497 161.913 116.623 161.497 116.875C161.082 117.122 160.755 117.468 160.517 117.911C160.279 118.35 160.16 118.854 160.16 119.423C160.16 119.988 160.277 120.489 160.51 120.928C160.748 121.367 161.075 121.712 161.49 121.964C161.91 122.211 162.386 122.335 162.918 122.335ZM172.736 123.224C172.064 123.224 171.457 123.061 170.916 122.734C170.379 122.403 169.952 121.95 169.635 121.376C169.322 120.802 169.166 120.146 169.166 119.409C169.166 118.681 169.32 118.032 169.628 117.463C169.941 116.889 170.365 116.436 170.902 116.105C171.443 115.774 172.055 115.608 172.736 115.608C173.385 115.608 173.973 115.76 174.5 116.063C175.027 116.366 175.429 116.786 175.704 117.323V115.832H176.726V123H175.704V121.488C175.396 122.029 174.983 122.454 174.465 122.762C173.947 123.07 173.371 123.224 172.736 123.224ZM172.988 122.335C173.525 122.335 173.998 122.211 174.409 121.964C174.824 121.712 175.151 121.367 175.389 120.928C175.627 120.485 175.746 119.981 175.746 119.416C175.746 118.847 175.627 118.343 175.389 117.904C175.156 117.465 174.831 117.122 174.416 116.875C174.001 116.623 173.525 116.497 172.988 116.497C172.451 116.497 171.975 116.623 171.56 116.875C171.145 117.122 170.818 117.465 170.58 117.904C170.342 118.343 170.223 118.847 170.223 119.416C170.223 119.981 170.342 120.485 170.58 120.928C170.818 121.367 171.145 121.712 171.56 121.964C171.975 122.211 172.451 122.335 172.988 122.335ZM185.197 123.224C184.604 123.224 184.082 123.082 183.629 122.797C183.176 122.508 182.824 122.099 182.572 121.572L183.118 120.984C183.342 121.441 183.634 121.798 183.993 122.055C184.352 122.307 184.751 122.433 185.19 122.433C185.484 122.433 185.752 122.372 185.995 122.251C186.242 122.13 186.438 121.957 186.583 121.733C186.732 121.504 186.807 121.234 186.807 120.921C186.807 120.636 186.737 120.412 186.597 120.249C186.462 120.086 186.261 119.946 185.995 119.829C185.734 119.708 185.407 119.572 185.015 119.423C184.712 119.302 184.418 119.164 184.133 119.01C183.848 118.856 183.613 118.662 183.426 118.429C183.244 118.191 183.153 117.89 183.153 117.526C183.153 117.157 183.251 116.831 183.447 116.546C183.643 116.257 183.914 116.03 184.259 115.867C184.604 115.699 184.996 115.615 185.435 115.615C185.836 115.615 186.212 115.701 186.562 115.874C186.917 116.047 187.234 116.292 187.514 116.609L187.045 117.204C186.616 116.639 186.081 116.357 185.442 116.357C185.05 116.357 184.73 116.46 184.483 116.665C184.24 116.87 184.119 117.139 184.119 117.47C184.119 117.708 184.196 117.906 184.35 118.065C184.504 118.224 184.705 118.359 184.952 118.471C185.204 118.583 185.475 118.695 185.764 118.807C186.184 118.966 186.548 119.124 186.856 119.283C187.169 119.442 187.411 119.645 187.584 119.892C187.757 120.135 187.843 120.466 187.843 120.886C187.843 121.367 187.731 121.782 187.507 122.132C187.283 122.482 186.97 122.753 186.569 122.944C186.172 123.131 185.715 123.224 185.197 123.224ZM193.165 123.224C192.077 123.224 191.3 122.979 190.834 122.489C190.367 121.999 190.134 121.18 190.134 120.032V115.832H191.156V119.85C191.156 120.755 191.31 121.402 191.618 121.789C191.926 122.172 192.441 122.363 193.165 122.363C193.893 122.363 194.408 122.172 194.712 121.789C195.02 121.402 195.174 120.755 195.174 119.85V115.832H196.196V120.032C196.196 121.18 195.962 121.999 195.496 122.489C195.034 122.979 194.257 123.224 193.165 123.224ZM199.085 123V115.832H200.107V116.889C200.336 116.469 200.63 116.152 200.989 115.937C201.353 115.718 201.773 115.608 202.249 115.608C202.459 115.608 202.671 115.631 202.886 115.678C203.105 115.725 203.294 115.785 203.453 115.86L203.033 116.721C202.893 116.651 202.732 116.597 202.55 116.56C202.373 116.523 202.202 116.504 202.039 116.504C201.708 116.504 201.395 116.588 201.101 116.756C200.807 116.924 200.567 117.143 200.38 117.414C200.198 117.68 200.107 117.965 200.107 118.268V123H199.085ZM208.388 126.85C207.482 126.85 206.717 126.673 206.092 126.318C205.466 125.963 205.002 125.445 204.699 124.764L205.56 124.365C205.779 124.86 206.143 125.252 206.652 125.541C207.16 125.835 207.739 125.982 208.388 125.982C208.934 125.982 209.421 125.872 209.851 125.653C210.285 125.438 210.625 125.126 210.873 124.715C211.125 124.304 211.251 123.812 211.251 123.238V121.488C210.952 122.029 210.541 122.454 210.019 122.762C209.501 123.07 208.922 123.224 208.283 123.224C207.615 123.224 207.011 123.061 206.47 122.734C205.933 122.407 205.506 121.957 205.189 121.383C204.876 120.809 204.72 120.153 204.72 119.416C204.72 118.683 204.876 118.032 205.189 117.463C205.501 116.889 205.926 116.436 206.463 116.105C207.004 115.774 207.618 115.608 208.304 115.608C208.938 115.608 209.515 115.76 210.033 116.063C210.555 116.366 210.961 116.786 211.251 117.323V115.832H212.273V123.196C212.273 123.989 212.116 124.657 211.804 125.198C211.491 125.744 211.043 126.155 210.46 126.43C209.881 126.71 209.19 126.85 208.388 126.85ZM208.528 122.335C209.069 122.335 209.547 122.211 209.963 121.964C210.378 121.712 210.705 121.367 210.943 120.928C211.181 120.485 211.3 119.983 211.3 119.423C211.3 118.854 211.181 118.35 210.943 117.911C210.705 117.468 210.378 117.122 209.963 116.875C209.547 116.623 209.071 116.497 208.535 116.497C207.998 116.497 207.522 116.623 207.107 116.875C206.691 117.122 206.365 117.468 206.127 117.911C205.889 118.35 205.77 118.854 205.77 119.423C205.77 119.983 205.886 120.485 206.12 120.928C206.358 121.367 206.684 121.712 207.1 121.964C207.52 122.211 207.996 122.335 208.528 122.335ZM218.578 123.224C217.827 123.224 217.155 123.058 216.562 122.727C215.974 122.396 215.512 121.945 215.176 121.376C214.84 120.802 214.672 120.158 214.672 119.444C214.672 118.907 214.768 118.408 214.959 117.946C215.155 117.479 215.426 117.071 215.771 116.721C216.116 116.371 216.518 116.098 216.975 115.902C217.432 115.706 217.92 115.608 218.438 115.608C219.147 115.608 219.777 115.764 220.328 116.077C220.883 116.385 221.322 116.812 221.644 117.358C221.971 117.904 222.143 118.534 222.162 119.248C222.162 119.304 222.16 119.351 222.155 119.388C222.155 119.421 222.15 119.463 222.141 119.514H215.687C215.687 120.074 215.813 120.569 216.065 120.998C216.317 121.427 216.662 121.766 217.101 122.013C217.544 122.256 218.051 122.377 218.62 122.377C219.161 122.377 219.647 122.265 220.076 122.041C220.51 121.812 220.872 121.486 221.161 121.061L221.917 121.467C221.576 122.022 221.112 122.454 220.524 122.762C219.941 123.07 219.292 123.224 218.578 123.224ZM215.743 118.744H221.14C221.079 118.296 220.923 117.902 220.671 117.561C220.419 117.216 220.099 116.945 219.712 116.749C219.329 116.553 218.909 116.455 218.452 116.455C217.981 116.455 217.551 116.553 217.164 116.749C216.777 116.94 216.457 117.209 216.205 117.554C215.958 117.895 215.804 118.291 215.743 118.744ZM231.329 126.85C230.424 126.85 229.658 126.673 229.033 126.318C228.408 125.963 227.943 125.445 227.64 124.764L228.501 124.365C228.72 124.86 229.084 125.252 229.593 125.541C230.102 125.835 230.68 125.982 231.329 125.982C231.875 125.982 232.363 125.872 232.792 125.653C233.226 125.438 233.567 125.126 233.814 124.715C234.066 124.304 234.192 123.812 234.192 123.238V121.488C233.893 122.029 233.483 122.454 232.96 122.762C232.442 123.07 231.863 123.224 231.224 123.224C230.557 123.224 229.952 123.061 229.411 122.734C228.874 122.407 228.447 121.957 228.13 121.383C227.817 120.809 227.661 120.153 227.661 119.416C227.661 118.683 227.817 118.032 228.13 117.463C228.443 116.889 228.867 116.436 229.404 116.105C229.945 115.774 230.559 115.608 231.245 115.608C231.88 115.608 232.456 115.76 232.974 116.063C233.497 116.366 233.903 116.786 234.192 117.323V115.832H235.214V123.196C235.214 123.989 235.058 124.657 234.745 125.198C234.432 125.744 233.984 126.155 233.401 126.43C232.822 126.71 232.132 126.85 231.329 126.85ZM231.469 122.335C232.01 122.335 232.489 122.211 232.904 121.964C233.319 121.712 233.646 121.367 233.884 120.928C234.122 120.485 234.241 119.983 234.241 119.423C234.241 118.854 234.122 118.35 233.884 117.911C233.646 117.468 233.319 117.122 232.904 116.875C232.489 116.623 232.013 116.497 231.476 116.497C230.939 116.497 230.463 116.623 230.048 116.875C229.633 117.122 229.306 117.468 229.068 117.911C228.83 118.35 228.711 118.854 228.711 119.423C228.711 119.983 228.828 120.485 229.061 120.928C229.299 121.367 229.626 121.712 230.041 121.964C230.461 122.211 230.937 122.335 231.469 122.335ZM238.228 123V115.832H239.25V116.889C239.478 116.469 239.772 116.152 240.132 115.937C240.496 115.718 240.916 115.608 241.392 115.608C241.602 115.608 241.814 115.631 242.029 115.678C242.248 115.725 242.437 115.785 242.596 115.86L242.176 116.721C242.036 116.651 241.875 116.597 241.693 116.56C241.515 116.523 241.345 116.504 241.182 116.504C240.85 116.504 240.538 116.588 240.244 116.756C239.95 116.924 239.709 117.143 239.523 117.414C239.341 117.68 239.25 117.965 239.25 118.268V123H238.228ZM247.425 123.224C246.753 123.224 246.147 123.061 245.605 122.734C245.069 122.403 244.642 121.95 244.324 121.376C244.012 120.802 243.855 120.146 243.855 119.409C243.855 118.681 244.009 118.032 244.317 117.463C244.63 116.889 245.055 116.436 245.591 116.105C246.133 115.774 246.744 115.608 247.425 115.608C248.074 115.608 248.662 115.76 249.189 116.063C249.717 116.366 250.118 116.786 250.393 117.323V115.832H251.415V123H250.393V121.488C250.085 122.029 249.672 122.454 249.154 122.762C248.636 123.07 248.06 123.224 247.425 123.224ZM247.677 122.335C248.214 122.335 248.688 122.211 249.098 121.964C249.514 121.712 249.84 121.367 250.078 120.928C250.316 120.485 250.435 119.981 250.435 119.416C250.435 118.847 250.316 118.343 250.078 117.904C249.845 117.465 249.521 117.122 249.105 116.875C248.69 116.623 248.214 116.497 247.677 116.497C247.141 116.497 246.665 116.623 246.249 116.875C245.834 117.122 245.507 117.465 245.269 117.904C245.031 118.343 244.912 118.847 244.912 119.416C244.912 119.981 245.031 120.485 245.269 120.928C245.507 121.367 245.834 121.712 246.249 121.964C246.665 122.211 247.141 122.335 247.677 122.335ZM257.761 123.224C257.224 123.224 256.72 123.131 256.249 122.944C255.777 122.753 255.364 122.484 255.01 122.139C254.655 121.794 254.377 121.39 254.177 120.928C253.976 120.466 253.876 119.962 253.876 119.416C253.876 118.875 253.974 118.373 254.17 117.911C254.366 117.449 254.639 117.045 254.989 116.7C255.343 116.355 255.756 116.086 256.228 115.895C256.699 115.704 257.21 115.608 257.761 115.608C258.232 115.608 258.68 115.678 259.105 115.818C259.529 115.958 259.896 116.152 260.204 116.399L259.784 117.085C259.261 116.679 258.626 116.476 257.88 116.476C257.292 116.476 256.774 116.607 256.326 116.868C255.882 117.125 255.537 117.477 255.29 117.925C255.042 118.368 254.919 118.865 254.919 119.416C254.919 119.971 255.045 120.473 255.297 120.921C255.549 121.364 255.899 121.714 256.347 121.971C256.795 122.228 257.308 122.356 257.887 122.356C258.251 122.356 258.594 122.305 258.916 122.202C259.242 122.095 259.529 121.943 259.777 121.747L260.204 122.433C259.891 122.676 259.525 122.867 259.105 123.007C258.685 123.152 258.237 123.224 257.761 123.224ZM262.393 123V115.832H263.415V123H262.393ZM262.911 114.397C262.785 114.397 262.67 114.367 262.568 114.306C262.47 114.245 262.39 114.164 262.33 114.061C262.269 113.958 262.239 113.846 262.239 113.725C262.239 113.604 262.269 113.494 262.33 113.396C262.39 113.293 262.47 113.212 262.568 113.151C262.67 113.09 262.785 113.06 262.911 113.06C263.032 113.06 263.142 113.09 263.24 113.151C263.338 113.212 263.417 113.291 263.478 113.389C263.543 113.487 263.576 113.599 263.576 113.725C263.576 113.846 263.543 113.958 263.478 114.061C263.417 114.164 263.338 114.245 263.24 114.306C263.142 114.367 263.032 114.397 262.911 114.397ZM269.492 123.224C268.82 123.224 268.213 123.061 267.672 122.734C267.135 122.403 266.708 121.95 266.391 121.376C266.078 120.802 265.922 120.146 265.922 119.409C265.922 118.681 266.076 118.032 266.384 117.463C266.696 116.889 267.121 116.436 267.658 116.105C268.199 115.774 268.81 115.608 269.492 115.608C270.14 115.608 270.728 115.76 271.256 116.063C271.783 116.366 272.184 116.786 272.46 117.323V115.832H273.482V123H272.46V121.488C272.152 122.029 271.739 122.454 271.221 122.762C270.703 123.07 270.126 123.224 269.492 123.224ZM269.744 122.335C270.28 122.335 270.754 122.211 271.165 121.964C271.58 121.712 271.907 121.367 272.145 120.928C272.383 120.485 272.502 119.981 272.502 119.416C272.502 118.847 272.383 118.343 272.145 117.904C271.911 117.465 271.587 117.122 271.172 116.875C270.756 116.623 270.28 116.497 269.744 116.497C269.207 116.497 268.731 116.623 268.316 116.875C267.9 117.122 267.574 117.465 267.336 117.904C267.098 118.343 266.979 118.847 266.979 119.416C266.979 119.981 267.098 120.485 267.336 120.928C267.574 121.367 267.9 121.712 268.316 121.964C268.731 122.211 269.207 122.335 269.744 122.335ZM278.303 123.224C277.71 123.224 277.187 123.082 276.735 122.797C276.282 122.508 275.93 122.099 275.678 121.572L276.224 120.984C276.448 121.441 276.739 121.798 277.099 122.055C277.458 122.307 277.857 122.433 278.296 122.433C278.59 122.433 278.858 122.372 279.101 122.251C279.348 122.13 279.544 121.957 279.689 121.733C279.838 121.504 279.913 121.234 279.913 120.921C279.913 120.636 279.843 120.412 279.703 120.249C279.567 120.086 279.367 119.946 279.101 119.829C278.839 119.708 278.513 119.572 278.121 119.423C277.817 119.302 277.523 119.164 277.239 119.01C276.954 118.856 276.718 118.662 276.532 118.429C276.35 118.191 276.259 117.89 276.259 117.526C276.259 117.157 276.357 116.831 276.553 116.546C276.749 116.257 277.019 116.03 277.365 115.867C277.71 115.699 278.102 115.615 278.541 115.615C278.942 115.615 279.318 115.701 279.668 115.874C280.022 116.047 280.34 116.292 280.62 116.609L280.151 117.204C279.721 116.639 279.187 116.357 278.548 116.357C278.156 116.357 277.836 116.46 277.589 116.665C277.346 116.87 277.225 117.139 277.225 117.47C277.225 117.708 277.302 117.906 277.456 118.065C277.61 118.224 277.81 118.359 278.058 118.471C278.31 118.583 278.58 118.695 278.87 118.807C279.29 118.966 279.654 119.124 279.962 119.283C280.274 119.442 280.517 119.645 280.69 119.892C280.862 120.135 280.949 120.466 280.949 120.886C280.949 121.367 280.837 121.782 280.613 122.132C280.389 122.482 280.076 122.753 279.675 122.944C279.278 123.131 278.821 123.224 278.303 123.224ZM290.027 123.224C289.355 123.224 288.748 123.061 288.207 122.734C287.67 122.403 287.243 121.95 286.926 121.376C286.613 120.802 286.457 120.146 286.457 119.409C286.457 118.681 286.611 118.032 286.919 117.463C287.232 116.889 287.656 116.436 288.193 116.105C288.734 115.774 289.346 115.608 290.027 115.608C290.676 115.608 291.264 115.76 291.791 116.063C292.318 116.366 292.72 116.786 292.995 117.323V115.832H294.017V123H292.995V121.488C292.687 122.029 292.274 122.454 291.756 122.762C291.238 123.07 290.662 123.224 290.027 123.224ZM290.279 122.335C290.816 122.335 291.289 122.211 291.7 121.964C292.115 121.712 292.442 121.367 292.68 120.928C292.918 120.485 293.037 119.981 293.037 119.416C293.037 118.847 292.918 118.343 292.68 117.904C292.447 117.465 292.122 117.122 291.707 116.875C291.292 116.623 290.816 116.497 290.279 116.497C289.742 116.497 289.266 116.623 288.851 116.875C288.436 117.122 288.109 117.465 287.871 117.904C287.633 118.343 287.514 118.847 287.514 119.416C287.514 119.981 287.633 120.485 287.871 120.928C288.109 121.367 288.436 121.712 288.851 121.964C289.266 122.211 289.742 122.335 290.279 122.335ZM67.7868 139.224C66.6995 139.224 65.9225 138.979 65.4558 138.489C64.9891 137.999 64.7558 137.18 64.7558 136.032V131.832H65.7778V135.85C65.7778 136.755 65.9318 137.402 66.2398 137.789C66.5478 138.172 67.0635 138.363 67.7868 138.363C68.5148 138.363 69.0305 138.172 69.3338 137.789C69.6418 137.402 69.7958 136.755 69.7958 135.85V131.832H70.8178V136.032C70.8178 137.18 70.5845 137.999 70.1178 138.489C69.6558 138.979 68.8788 139.224 67.7868 139.224ZM73.7071 139V131.832H74.7291V132.812C74.9251 132.476 75.2285 132.191 75.6391 131.958C76.0498 131.725 76.5515 131.608 77.1441 131.608C77.6995 131.608 78.1778 131.722 78.5791 131.951C78.9805 132.18 79.2885 132.513 79.5031 132.952C79.7178 133.386 79.8251 133.911 79.8251 134.527V139H78.8031V134.723C78.8031 133.981 78.6305 133.416 78.2851 133.029C77.9398 132.637 77.4521 132.441 76.8221 132.441C76.3835 132.441 76.0078 132.53 75.6951 132.707C75.3871 132.88 75.1491 133.111 74.9811 133.4C74.8131 133.685 74.7291 133.995 74.7291 134.331V139H73.7071ZM85.7622 139.224C85.0902 139.224 84.4836 139.061 83.9422 138.734C83.4056 138.403 82.9786 137.95 82.6612 137.376C82.3486 136.802 82.1922 136.146 82.1922 135.409C82.1922 134.681 82.3462 134.032 82.6542 133.463C82.9669 132.889 83.3916 132.436 83.9282 132.105C84.4696 131.774 85.0809 131.608 85.7622 131.608C86.4109 131.608 86.9989 131.76 87.5262 132.063C88.0536 132.366 88.4549 132.786 88.7302 133.323V131.832H89.7522V139H88.7302V137.488C88.4222 138.029 88.0092 138.454 87.4912 138.762C86.9732 139.07 86.3969 139.224 85.7622 139.224ZM86.0142 138.335C86.5509 138.335 87.0246 138.211 87.4352 137.964C87.8506 137.712 88.1772 137.367 88.4152 136.928C88.6532 136.485 88.7722 135.981 88.7722 135.416C88.7722 134.847 88.6532 134.343 88.4152 133.904C88.1819 133.465 87.8576 133.122 87.4422 132.875C87.0269 132.623 86.5509 132.497 86.0142 132.497C85.4776 132.497 85.0016 132.623 84.5862 132.875C84.1709 133.122 83.8442 133.465 83.6062 133.904C83.3682 134.343 83.2492 134.847 83.2492 135.416C83.2492 135.981 83.3682 136.485 83.6062 136.928C83.8442 137.367 84.1709 137.712 84.5862 137.964C85.0016 138.211 85.4776 138.335 86.0142 138.335ZM96.3614 142.64V131.832H97.3834V133.316C97.6728 132.779 98.0764 132.362 98.5944 132.063C99.1171 131.76 99.6958 131.608 100.33 131.608C101.016 131.608 101.63 131.774 102.171 132.105C102.713 132.436 103.14 132.889 103.452 133.463C103.765 134.032 103.921 134.683 103.921 135.416C103.921 136.139 103.765 136.79 103.452 137.369C103.144 137.943 102.72 138.396 102.178 138.727C101.642 139.058 101.03 139.224 100.344 139.224C99.7191 139.224 99.1451 139.07 98.6224 138.762C98.0998 138.454 97.6868 138.029 97.3834 137.488V142.64H96.3614ZM100.106 138.335C100.643 138.335 101.119 138.211 101.534 137.964C101.95 137.712 102.274 137.367 102.507 136.928C102.745 136.489 102.864 135.988 102.864 135.423C102.864 134.854 102.745 134.35 102.507 133.911C102.269 133.468 101.943 133.122 101.527 132.875C101.117 132.623 100.643 132.497 100.106 132.497C99.5698 132.497 99.0938 132.623 98.6784 132.875C98.2631 133.122 97.9364 133.465 97.6984 133.904C97.4604 134.343 97.3414 134.847 97.3414 135.416C97.3414 135.981 97.4604 136.485 97.6984 136.928C97.9364 137.367 98.2631 137.712 98.6784 137.964C99.0984 138.211 99.5744 138.335 100.106 138.335ZM109.483 139.224C108.811 139.224 108.204 139.061 107.663 138.734C107.126 138.403 106.699 137.95 106.382 137.376C106.069 136.802 105.913 136.146 105.913 135.409C105.913 134.681 106.067 134.032 106.375 133.463C106.688 132.889 107.112 132.436 107.649 132.105C108.19 131.774 108.802 131.608 109.483 131.608C110.132 131.608 110.72 131.76 111.247 132.063C111.774 132.366 112.176 132.786 112.451 133.323V131.832H113.473V139H112.451V137.488C112.143 138.029 111.73 138.454 111.212 138.762C110.694 139.07 110.118 139.224 109.483 139.224ZM109.735 138.335C110.272 138.335 110.745 138.211 111.156 137.964C111.571 137.712 111.898 137.367 112.136 136.928C112.374 136.485 112.493 135.981 112.493 135.416C112.493 134.847 112.374 134.343 112.136 133.904C111.903 133.465 111.578 133.122 111.163 132.875C110.748 132.623 110.272 132.497 109.735 132.497C109.198 132.497 108.722 132.623 108.307 132.875C107.892 133.122 107.565 133.465 107.327 133.904C107.089 134.343 106.97 134.847 106.97 135.416C106.97 135.981 107.089 136.485 107.327 136.928C107.565 137.367 107.892 137.712 108.307 137.964C108.722 138.211 109.198 138.335 109.735 138.335ZM119.65 142.85C118.745 142.85 117.98 142.673 117.354 142.318C116.729 141.963 116.265 141.445 115.961 140.764L116.822 140.365C117.042 140.86 117.406 141.252 117.914 141.541C118.423 141.835 119.002 141.982 119.65 141.982C120.196 141.982 120.684 141.872 121.113 141.653C121.547 141.438 121.888 141.126 122.135 140.715C122.387 140.304 122.513 139.812 122.513 139.238V137.488C122.215 138.029 121.804 138.454 121.281 138.762C120.763 139.07 120.185 139.224 119.545 139.224C118.878 139.224 118.274 139.061 117.732 138.734C117.196 138.407 116.769 137.957 116.451 137.383C116.139 136.809 115.982 136.153 115.982 135.416C115.982 134.683 116.139 134.032 116.451 133.463C116.764 132.889 117.189 132.436 117.725 132.105C118.267 131.774 118.88 131.608 119.566 131.608C120.201 131.608 120.777 131.76 121.295 132.063C121.818 132.366 122.224 132.786 122.513 133.323V131.832H123.535V139.196C123.535 139.989 123.379 140.657 123.066 141.198C122.754 141.744 122.306 142.155 121.722 142.43C121.144 142.71 120.453 142.85 119.65 142.85ZM119.79 138.335C120.332 138.335 120.81 138.211 121.225 137.964C121.641 137.712 121.967 137.367 122.205 136.928C122.443 136.485 122.562 135.983 122.562 135.423C122.562 134.854 122.443 134.35 122.205 133.911C121.967 133.468 121.641 133.122 121.225 132.875C120.81 132.623 120.334 132.497 119.797 132.497C119.261 132.497 118.785 132.623 118.369 132.875C117.954 133.122 117.627 133.468 117.389 133.911C117.151 134.35 117.032 134.854 117.032 135.423C117.032 135.983 117.149 136.485 117.382 136.928C117.62 137.367 117.947 137.712 118.362 137.964C118.782 138.211 119.258 138.335 119.79 138.335ZM126.542 139V131.832H127.564V139H126.542ZM127.06 130.397C126.934 130.397 126.82 130.367 126.717 130.306C126.619 130.245 126.54 130.164 126.479 130.061C126.418 129.958 126.388 129.846 126.388 129.725C126.388 129.604 126.418 129.494 126.479 129.396C126.54 129.293 126.619 129.212 126.717 129.151C126.82 129.09 126.934 129.06 127.06 129.06C127.181 129.06 127.291 129.09 127.389 129.151C127.487 129.212 127.566 129.291 127.627 129.389C127.692 129.487 127.725 129.599 127.725 129.725C127.725 129.846 127.692 129.958 127.627 130.061C127.566 130.164 127.487 130.245 127.389 130.306C127.291 130.367 127.181 130.397 127.06 130.397ZM130.582 139V131.832H131.604V132.812C131.8 132.476 132.103 132.191 132.514 131.958C132.925 131.725 133.426 131.608 134.019 131.608C134.574 131.608 135.053 131.722 135.454 131.951C135.855 132.18 136.163 132.513 136.378 132.952C136.593 133.386 136.7 133.911 136.7 134.527V139H135.678V134.723C135.678 133.981 135.505 133.416 135.16 133.029C134.815 132.637 134.327 132.441 133.697 132.441C133.258 132.441 132.883 132.53 132.57 132.707C132.262 132.88 132.024 133.111 131.856 133.4C131.688 133.685 131.604 133.995 131.604 134.331V139H130.582ZM142.637 139.224C141.965 139.224 141.359 139.061 140.817 138.734C140.281 138.403 139.854 137.95 139.536 137.376C139.224 136.802 139.067 136.146 139.067 135.409C139.067 134.681 139.221 134.032 139.529 133.463C139.842 132.889 140.267 132.436 140.803 132.105C141.345 131.774 141.956 131.608 142.637 131.608C143.286 131.608 143.874 131.76 144.401 132.063C144.929 132.366 145.33 132.786 145.605 133.323V131.832H146.627V139H145.605V137.488C145.297 138.029 144.884 138.454 144.366 138.762C143.848 139.07 143.272 139.224 142.637 139.224ZM142.889 138.335C143.426 138.335 143.9 138.211 144.31 137.964C144.726 137.712 145.052 137.367 145.29 136.928C145.528 136.485 145.647 135.981 145.647 135.416C145.647 134.847 145.528 134.343 145.29 133.904C145.057 133.465 144.733 133.122 144.317 132.875C143.902 132.623 143.426 132.497 142.889 132.497C142.353 132.497 141.877 132.623 141.461 132.875C141.046 133.122 140.719 133.465 140.481 133.904C140.243 134.343 140.124 134.847 140.124 135.416C140.124 135.981 140.243 136.485 140.481 136.928C140.719 137.367 141.046 137.712 141.461 137.964C141.877 138.211 142.353 138.335 142.889 138.335ZM155.576 139L152.097 131.832H153.266L155.891 137.53L158.152 131.832H158.838L161.099 137.53L163.724 131.832H164.893L161.414 139H160.735L158.495 133.421L156.248 139H155.576ZM170.159 139.224C169.408 139.224 168.736 139.058 168.143 138.727C167.555 138.396 167.093 137.945 166.757 137.376C166.421 136.802 166.253 136.158 166.253 135.444C166.253 134.907 166.349 134.408 166.54 133.946C166.736 133.479 167.007 133.071 167.352 132.721C167.697 132.371 168.099 132.098 168.556 131.902C169.013 131.706 169.501 131.608 170.019 131.608C170.728 131.608 171.358 131.764 171.909 132.077C172.464 132.385 172.903 132.812 173.225 133.358C173.552 133.904 173.724 134.534 173.743 135.248C173.743 135.304 173.741 135.351 173.736 135.388C173.736 135.421 173.731 135.463 173.722 135.514H167.268C167.268 136.074 167.394 136.569 167.646 136.998C167.898 137.427 168.243 137.766 168.682 138.013C169.125 138.256 169.632 138.377 170.201 138.377C170.742 138.377 171.228 138.265 171.657 138.041C172.091 137.812 172.453 137.486 172.742 137.061L173.498 137.467C173.157 138.022 172.693 138.454 172.105 138.762C171.522 139.07 170.873 139.224 170.159 139.224ZM167.324 134.744H172.721C172.66 134.296 172.504 133.902 172.252 133.561C172 133.216 171.68 132.945 171.293 132.749C170.91 132.553 170.49 132.455 170.033 132.455C169.562 132.455 169.132 132.553 168.745 132.749C168.358 132.94 168.038 133.209 167.786 133.554C167.539 133.895 167.385 134.291 167.324 134.744ZM180.148 139.224C179.513 139.224 178.934 139.07 178.412 138.762C177.889 138.454 177.476 138.029 177.173 137.488V139H176.151V126.96H177.173V133.323C177.467 132.786 177.873 132.366 178.391 132.063C178.909 131.76 179.487 131.608 180.127 131.608C180.813 131.608 181.426 131.774 181.968 132.105C182.509 132.436 182.934 132.889 183.242 133.463C183.554 134.032 183.711 134.683 183.711 135.416C183.711 136.153 183.552 136.809 183.235 137.383C182.922 137.957 182.497 138.407 181.961 138.734C181.424 139.061 180.82 139.224 180.148 139.224ZM179.896 138.335C180.432 138.335 180.908 138.211 181.324 137.964C181.739 137.712 182.063 137.367 182.297 136.928C182.535 136.485 182.654 135.983 182.654 135.423C182.654 134.854 182.535 134.35 182.297 133.911C182.059 133.468 181.732 133.122 181.317 132.875C180.906 132.623 180.432 132.497 179.896 132.497C179.359 132.497 178.883 132.623 178.468 132.875C178.052 133.122 177.726 133.468 177.488 133.911C177.25 134.35 177.131 134.854 177.131 135.423C177.131 135.983 177.247 136.485 177.481 136.928C177.719 137.367 178.045 137.712 178.461 137.964C178.881 138.211 179.359 138.335 179.896 138.335ZM195.836 142.64V137.488C195.528 138.029 195.115 138.454 194.597 138.762C194.079 139.07 193.505 139.224 192.875 139.224C192.189 139.224 191.577 139.058 191.041 138.727C190.504 138.396 190.079 137.943 189.767 137.369C189.454 136.79 189.298 136.139 189.298 135.416C189.298 134.683 189.454 134.032 189.767 133.463C190.079 132.889 190.506 132.436 191.048 132.105C191.589 131.774 192.205 131.608 192.896 131.608C193.526 131.608 194.1 131.76 194.618 132.063C195.136 132.366 195.542 132.786 195.836 133.323V131.832H196.858V142.64H195.836ZM193.113 138.335C193.649 138.335 194.125 138.211 194.541 137.964C194.956 137.712 195.283 137.367 195.521 136.928C195.759 136.485 195.878 135.981 195.878 135.416C195.878 134.847 195.759 134.343 195.521 133.904C195.287 133.465 194.961 133.122 194.541 132.875C194.125 132.623 193.649 132.497 193.113 132.497C192.581 132.497 192.107 132.623 191.692 132.875C191.276 133.122 190.95 133.465 190.712 133.904C190.474 134.343 190.355 134.847 190.355 135.416C190.355 135.981 190.471 136.482 190.705 136.921C190.943 137.36 191.269 137.705 191.685 137.957C192.105 138.209 192.581 138.335 193.113 138.335ZM202.769 139.224C201.682 139.224 200.905 138.979 200.438 138.489C199.972 137.999 199.738 137.18 199.738 136.032V131.832H200.76V135.85C200.76 136.755 200.914 137.402 201.222 137.789C201.53 138.172 202.046 138.363 202.769 138.363C203.497 138.363 204.013 138.172 204.316 137.789C204.624 137.402 204.778 136.755 204.778 135.85V131.832H205.8V136.032C205.8 137.18 205.567 137.999 205.1 138.489C204.638 138.979 203.861 139.224 202.769 139.224ZM212.05 139.224C211.298 139.224 210.626 139.058 210.034 138.727C209.446 138.396 208.984 137.945 208.648 137.376C208.312 136.802 208.144 136.158 208.144 135.444C208.144 134.907 208.239 134.408 208.431 133.946C208.627 133.479 208.897 133.071 209.243 132.721C209.588 132.371 209.989 132.098 210.447 131.902C210.904 131.706 211.392 131.608 211.91 131.608C212.619 131.608 213.249 131.764 213.8 132.077C214.355 132.385 214.794 132.812 215.116 133.358C215.442 133.904 215.615 134.534 215.634 135.248C215.634 135.304 215.631 135.351 215.627 135.388C215.627 135.421 215.622 135.463 215.613 135.514H209.159C209.159 136.074 209.285 136.569 209.537 136.998C209.789 137.427 210.134 137.766 210.573 138.013C211.016 138.256 211.522 138.377 212.092 138.377C212.633 138.377 213.118 138.265 213.548 138.041C213.982 137.812 214.343 137.486 214.633 137.061L215.389 137.467C215.048 138.022 214.584 138.454 213.996 138.762C213.412 139.07 212.764 139.224 212.05 139.224ZM209.215 134.744H214.612C214.551 134.296 214.395 133.902 214.143 133.561C213.891 133.216 213.571 132.945 213.184 132.749C212.801 132.553 212.381 132.455 211.924 132.455C211.452 132.455 211.023 132.553 210.636 132.749C210.248 132.94 209.929 133.209 209.677 133.554C209.429 133.895 209.275 134.291 209.215 134.744ZM221.637 139V131.832H222.659V132.889C222.888 132.469 223.182 132.152 223.541 131.937C223.905 131.718 224.325 131.608 224.801 131.608C225.011 131.608 225.223 131.631 225.438 131.678C225.657 131.725 225.846 131.785 226.005 131.86L225.585 132.721C225.445 132.651 225.284 132.597 225.102 132.56C224.925 132.523 224.754 132.504 224.591 132.504C224.26 132.504 223.947 132.588 223.653 132.756C223.359 132.924 223.119 133.143 222.932 133.414C222.75 133.68 222.659 133.965 222.659 134.268V139H221.637ZM231.163 139.224C230.412 139.224 229.74 139.058 229.147 138.727C228.559 138.396 228.097 137.945 227.761 137.376C227.425 136.802 227.257 136.158 227.257 135.444C227.257 134.907 227.353 134.408 227.544 133.946C227.74 133.479 228.011 133.071 228.356 132.721C228.701 132.371 229.103 132.098 229.56 131.902C230.017 131.706 230.505 131.608 231.023 131.608C231.732 131.608 232.362 131.764 232.913 132.077C233.468 132.385 233.907 132.812 234.229 133.358C234.556 133.904 234.728 134.534 234.747 135.248C234.747 135.304 234.745 135.351 234.74 135.388C234.74 135.421 234.735 135.463 234.726 135.514H228.272C228.272 136.074 228.398 136.569 228.65 136.998C228.902 137.427 229.247 137.766 229.686 138.013C230.129 138.256 230.636 138.377 231.205 138.377C231.746 138.377 232.232 138.265 232.661 138.041C233.095 137.812 233.457 137.486 233.746 137.061L234.502 137.467C234.161 138.022 233.697 138.454 233.109 138.762C232.526 139.07 231.877 139.224 231.163 139.224ZM228.328 134.744H233.725C233.664 134.296 233.508 133.902 233.256 133.561C233.004 133.216 232.684 132.945 232.297 132.749C231.914 132.553 231.494 132.455 231.037 132.455C230.566 132.455 230.136 132.553 229.749 132.749C229.362 132.94 229.042 133.209 228.79 133.554C228.543 133.895 228.389 134.291 228.328 134.744ZM240.052 139.224C238.965 139.224 238.188 138.979 237.721 138.489C237.255 137.999 237.021 137.18 237.021 136.032V131.832H238.043V135.85C238.043 136.755 238.197 137.402 238.505 137.789C238.813 138.172 239.329 138.363 240.052 138.363C240.78 138.363 241.296 138.172 241.599 137.789C241.907 137.402 242.061 136.755 242.061 135.85V131.832H243.083V136.032C243.083 137.18 242.85 137.999 242.383 138.489C241.921 138.979 241.144 139.224 240.052 139.224ZM239.975 130.894L239.45 130.509L240.78 127.856L241.585 128.43L239.975 130.894ZM245.973 139V131.832H246.995V132.812C247.191 132.476 247.494 132.191 247.905 131.958C248.315 131.725 248.817 131.608 249.41 131.608C249.965 131.608 250.443 131.722 250.845 131.951C251.246 132.18 251.554 132.513 251.769 132.952C251.983 133.386 252.091 133.911 252.091 134.527V139H251.069V134.723C251.069 133.981 250.896 133.416 250.551 133.029C250.205 132.637 249.718 132.441 249.088 132.441C248.649 132.441 248.273 132.53 247.961 132.707C247.653 132.88 247.415 133.111 247.247 133.4C247.079 133.685 246.995 133.995 246.995 134.331V139H245.973ZM258.329 139.224C257.578 139.224 256.906 139.058 256.313 138.727C255.725 138.396 255.263 137.945 254.927 137.376C254.591 136.802 254.423 136.158 254.423 135.444C254.423 134.907 254.519 134.408 254.71 133.946C254.906 133.479 255.177 133.071 255.522 132.721C255.867 132.371 256.269 132.098 256.726 131.902C257.183 131.706 257.671 131.608 258.189 131.608C258.898 131.608 259.528 131.764 260.079 132.077C260.634 132.385 261.073 132.812 261.395 133.358C261.722 133.904 261.894 134.534 261.913 135.248C261.913 135.304 261.911 135.351 261.906 135.388C261.906 135.421 261.901 135.463 261.892 135.514H255.438C255.438 136.074 255.564 136.569 255.816 136.998C256.068 137.427 256.413 137.766 256.852 138.013C257.295 138.256 257.802 138.377 258.371 138.377C258.912 138.377 259.398 138.265 259.827 138.041C260.261 137.812 260.623 137.486 260.912 137.061L261.668 137.467C261.327 138.022 260.863 138.454 260.275 138.762C259.692 139.07 259.043 139.224 258.329 139.224ZM255.494 134.744H260.891C260.83 134.296 260.674 133.902 260.422 133.561C260.17 133.216 259.85 132.945 259.463 132.749C259.08 132.553 258.66 132.455 258.203 132.455C257.732 132.455 257.302 132.553 256.915 132.749C256.528 132.94 256.208 133.209 255.956 133.554C255.709 133.895 255.555 134.291 255.494 134.744ZM269.701 139.224C269.164 139.224 268.747 139.044 268.448 138.685C268.154 138.321 268.007 137.81 268.007 137.152V132.602H267.279V131.832H268.007V129.151H269.029V131.832H270.814V132.602H269.029V137.096C269.029 137.493 269.106 137.796 269.26 138.006C269.414 138.216 269.633 138.321 269.918 138.321C270.193 138.321 270.436 138.244 270.646 138.09L270.905 138.902C270.746 139 270.56 139.077 270.345 139.133C270.13 139.194 269.916 139.224 269.701 139.224ZM276.562 139.224C275.815 139.224 275.141 139.063 274.539 138.741C273.941 138.419 273.468 137.971 273.118 137.397C272.768 136.823 272.593 136.163 272.593 135.416C272.593 134.665 272.768 134.004 273.118 133.435C273.468 132.861 273.941 132.413 274.539 132.091C275.136 131.769 275.81 131.608 276.562 131.608C277.308 131.608 277.98 131.769 278.578 132.091C279.18 132.413 279.656 132.861 280.006 133.435C280.356 134.004 280.531 134.665 280.531 135.416C280.531 136.163 280.356 136.823 280.006 137.397C279.656 137.971 279.18 138.419 278.578 138.741C277.98 139.063 277.308 139.224 276.562 139.224ZM276.562 138.314C277.122 138.314 277.621 138.19 278.06 137.943C278.498 137.696 278.844 137.355 279.096 136.921C279.348 136.482 279.474 135.981 279.474 135.416C279.474 134.851 279.348 134.352 279.096 133.918C278.844 133.479 278.498 133.136 278.06 132.889C277.621 132.642 277.122 132.518 276.562 132.518C276.002 132.518 275.502 132.642 275.064 132.889C274.625 133.136 274.28 133.479 274.028 133.918C273.776 134.352 273.65 134.851 273.65 135.416C273.65 135.976 273.776 136.475 274.028 136.914C274.28 137.353 274.625 137.696 275.064 137.943C275.502 138.19 276.002 138.314 276.562 138.314ZM286.055 139.224C285.383 139.224 284.777 139.061 284.235 138.734C283.699 138.407 283.272 137.957 282.954 137.383C282.642 136.809 282.485 136.153 282.485 135.416C282.485 134.683 282.642 134.032 282.954 133.463C283.267 132.889 283.692 132.436 284.228 132.105C284.77 131.774 285.383 131.608 286.069 131.608C286.709 131.608 287.287 131.76 287.805 132.063C288.323 132.366 288.729 132.786 289.023 133.323V126.953H290.045V139H289.023V137.488C288.72 138.029 288.307 138.454 287.784 138.762C287.266 139.07 286.69 139.224 286.055 139.224ZM286.3 138.335C286.837 138.335 287.313 138.211 287.728 137.964C288.144 137.712 288.47 137.367 288.708 136.928C288.946 136.485 289.065 135.983 289.065 135.423C289.065 134.854 288.946 134.35 288.708 133.911C288.475 133.468 288.148 133.122 287.728 132.875C287.313 132.623 286.837 132.497 286.3 132.497C285.768 132.497 285.295 132.623 284.879 132.875C284.464 133.122 284.137 133.468 283.899 133.911C283.661 134.35 283.542 134.854 283.542 135.423C283.542 135.988 283.659 136.489 283.892 136.928C284.13 137.367 284.457 137.712 284.872 137.964C285.292 138.211 285.768 138.335 286.3 138.335ZM296.118 139.224C295.446 139.224 294.839 139.061 294.298 138.734C293.761 138.403 293.334 137.95 293.017 137.376C292.704 136.802 292.548 136.146 292.548 135.409C292.548 134.681 292.702 134.032 293.01 133.463C293.322 132.889 293.747 132.436 294.284 132.105C294.825 131.774 295.436 131.608 296.118 131.608C296.766 131.608 297.354 131.76 297.882 132.063C298.409 132.366 298.81 132.786 299.086 133.323V131.832H300.108V139H299.086V137.488C298.778 138.029 298.365 138.454 297.847 138.762C297.329 139.07 296.752 139.224 296.118 139.224ZM296.37 138.335C296.906 138.335 297.38 138.211 297.791 137.964C298.206 137.712 298.533 137.367 298.771 136.928C299.009 136.485 299.128 135.981 299.128 135.416C299.128 134.847 299.009 134.343 298.771 133.904C298.537 133.465 298.213 133.122 297.798 132.875C297.382 132.623 296.906 132.497 296.37 132.497C295.833 132.497 295.357 132.623 294.942 132.875C294.526 133.122 294.2 133.465 293.962 133.904C293.724 134.343 293.605 134.847 293.605 135.416C293.605 135.981 293.724 136.485 293.962 136.928C294.2 137.367 294.526 137.712 294.942 137.964C295.357 138.211 295.833 138.335 296.37 138.335ZM70.4669 155V142.96H71.4889V155H70.4669ZM77.5591 155.224C76.8871 155.224 76.2805 155.061 75.7391 154.734C75.2025 154.403 74.7755 153.95 74.4581 153.376C74.1455 152.802 73.9891 152.146 73.9891 151.409C73.9891 150.681 74.1431 150.032 74.4511 149.463C74.7638 148.889 75.1885 148.436 75.7251 148.105C76.2665 147.774 76.8778 147.608 77.5591 147.608C78.2078 147.608 78.7958 147.76 79.3231 148.063C79.8505 148.366 80.2518 148.786 80.5271 149.323V147.832H81.5491V155H80.5271V153.488C80.2191 154.029 79.8061 154.454 79.2881 154.762C78.7701 155.07 78.1938 155.224 77.5591 155.224ZM77.8111 154.335C78.3478 154.335 78.8215 154.211 79.2321 153.964C79.6475 153.712 79.9741 153.367 80.2121 152.928C80.4501 152.485 80.5691 151.981 80.5691 151.416C80.5691 150.847 80.4501 150.343 80.2121 149.904C79.9788 149.465 79.6545 149.122 79.2391 148.875C78.8238 148.623 78.3478 148.497 77.8111 148.497C77.2745 148.497 76.7985 148.623 76.3831 148.875C75.9678 149.122 75.6411 149.465 75.4031 149.904C75.1651 150.343 75.0461 150.847 75.0461 151.416C75.0461 151.981 75.1651 152.485 75.4031 152.928C75.6411 153.367 75.9678 153.712 76.3831 153.964C76.7985 154.211 77.2745 154.335 77.8111 154.335ZM88.1513 155V147.832H89.1733V155H88.1513ZM88.6693 146.397C88.5433 146.397 88.429 146.367 88.3263 146.306C88.2283 146.245 88.149 146.164 88.0883 146.061C88.0277 145.958 87.9973 145.846 87.9973 145.725C87.9973 145.604 88.0277 145.494 88.0883 145.396C88.149 145.293 88.2283 145.212 88.3263 145.151C88.429 145.09 88.5433 145.06 88.6693 145.06C88.7907 145.06 88.9003 145.09 88.9983 145.151C89.0963 145.212 89.1757 145.291 89.2363 145.389C89.3017 145.487 89.3343 145.599 89.3343 145.725C89.3343 145.846 89.3017 145.958 89.2363 146.061C89.1757 146.164 89.0963 146.245 88.9983 146.306C88.9003 146.367 88.7907 146.397 88.6693 146.397ZM92.1915 155V147.832H93.2135V148.812C93.4095 148.476 93.7129 148.191 94.1235 147.958C94.5342 147.725 95.0359 147.608 95.6285 147.608C96.1839 147.608 96.6622 147.722 97.0635 147.951C97.4649 148.18 97.7729 148.513 97.9875 148.952C98.2022 149.386 98.3095 149.911 98.3095 150.527V155H97.2875V150.723C97.2875 149.981 97.1149 149.416 96.7695 149.029C96.4242 148.637 95.9365 148.441 95.3065 148.441C94.8679 148.441 94.4922 148.53 94.1795 148.707C93.8715 148.88 93.6335 149.111 93.4655 149.4C93.2975 149.685 93.2135 149.995 93.2135 150.331V155H92.1915ZM103.61 155L100.131 147.832H101.328L103.946 153.544L106.571 147.832H107.768L104.282 155H103.61ZM113.038 155.224C112.287 155.224 111.615 155.058 111.022 154.727C110.434 154.396 109.972 153.945 109.636 153.376C109.3 152.802 109.132 152.158 109.132 151.444C109.132 150.907 109.228 150.408 109.419 149.946C109.615 149.479 109.886 149.071 110.231 148.721C110.576 148.371 110.978 148.098 111.435 147.902C111.892 147.706 112.38 147.608 112.898 147.608C113.607 147.608 114.237 147.764 114.788 148.077C115.343 148.385 115.782 148.812 116.104 149.358C116.431 149.904 116.603 150.534 116.622 151.248C116.622 151.304 116.62 151.351 116.615 151.388C116.615 151.421 116.61 151.463 116.601 151.514H110.147C110.147 152.074 110.273 152.569 110.525 152.998C110.777 153.427 111.122 153.766 111.561 154.013C112.004 154.256 112.511 154.377 113.08 154.377C113.621 154.377 114.107 154.265 114.536 154.041C114.97 153.812 115.332 153.486 115.621 153.061L116.377 153.467C116.036 154.022 115.572 154.454 114.984 154.762C114.401 155.07 113.752 155.224 113.038 155.224ZM110.203 150.744H115.6C115.539 150.296 115.383 149.902 115.131 149.561C114.879 149.216 114.559 148.945 114.172 148.749C113.789 148.553 113.369 148.455 112.912 148.455C112.441 148.455 112.011 148.553 111.624 148.749C111.237 148.94 110.917 149.209 110.665 149.554C110.418 149.895 110.264 150.291 110.203 150.744ZM120.837 155.224C120.244 155.224 119.721 155.082 119.269 154.797C118.816 154.508 118.464 154.099 118.212 153.572L118.758 152.984C118.982 153.441 119.273 153.798 119.633 154.055C119.992 154.307 120.391 154.433 120.83 154.433C121.124 154.433 121.392 154.372 121.635 154.251C121.882 154.13 122.078 153.957 122.223 153.733C122.372 153.504 122.447 153.234 122.447 152.921C122.447 152.636 122.377 152.412 122.237 152.249C122.101 152.086 121.901 151.946 121.635 151.829C121.373 151.708 121.047 151.572 120.655 151.423C120.351 151.302 120.057 151.164 119.773 151.01C119.488 150.856 119.252 150.662 119.066 150.429C118.884 150.191 118.793 149.89 118.793 149.526C118.793 149.157 118.891 148.831 119.087 148.546C119.283 148.257 119.553 148.03 119.899 147.867C120.244 147.699 120.636 147.615 121.075 147.615C121.476 147.615 121.852 147.701 122.202 147.874C122.556 148.047 122.874 148.292 123.154 148.609L122.685 149.204C122.255 148.639 121.721 148.357 121.082 148.357C120.69 148.357 120.37 148.46 120.123 148.665C119.88 148.87 119.759 149.139 119.759 149.47C119.759 149.708 119.836 149.906 119.99 150.065C120.144 150.224 120.344 150.359 120.592 150.471C120.844 150.583 121.114 150.695 121.404 150.807C121.824 150.966 122.188 151.124 122.496 151.283C122.808 151.442 123.051 151.645 123.224 151.892C123.396 152.135 123.483 152.466 123.483 152.886C123.483 153.367 123.371 153.782 123.147 154.132C122.923 154.482 122.61 154.753 122.209 154.944C121.812 155.131 121.355 155.224 120.837 155.224ZM127.568 155.224C127.032 155.224 126.614 155.044 126.315 154.685C126.021 154.321 125.874 153.81 125.874 153.152V148.602H125.146V147.832H125.874V145.151H126.896V147.832H128.681V148.602H126.896V153.096C126.896 153.493 126.973 153.796 127.127 154.006C127.281 154.216 127.501 154.321 127.785 154.321C128.061 154.321 128.303 154.244 128.513 154.09L128.772 154.902C128.614 155 128.427 155.077 128.212 155.133C127.998 155.194 127.783 155.224 127.568 155.224ZM130.999 155V147.832H132.021V155H130.999ZM131.517 146.397C131.391 146.397 131.277 146.367 131.174 146.306C131.076 146.245 130.997 146.164 130.936 146.061C130.875 145.958 130.845 145.846 130.845 145.725C130.845 145.604 130.875 145.494 130.936 145.396C130.997 145.293 131.076 145.212 131.174 145.151C131.277 145.09 131.391 145.06 131.517 145.06C131.638 145.06 131.748 145.09 131.846 145.151C131.944 145.212 132.023 145.291 132.084 145.389C132.149 145.487 132.182 145.599 132.182 145.725C132.182 145.846 132.149 145.958 132.084 146.061C132.023 146.164 131.944 146.245 131.846 146.306C131.748 146.367 131.638 146.397 131.517 146.397ZM138.203 158.85C137.298 158.85 136.533 158.673 135.907 158.318C135.282 157.963 134.818 157.445 134.514 156.764L135.375 156.365C135.595 156.86 135.959 157.252 136.467 157.541C136.976 157.835 137.555 157.982 138.203 157.982C138.749 157.982 139.237 157.872 139.666 157.653C140.1 157.438 140.441 157.126 140.688 156.715C140.94 156.304 141.066 155.812 141.066 155.238V153.488C140.768 154.029 140.357 154.454 139.834 154.762C139.316 155.07 138.738 155.224 138.098 155.224C137.431 155.224 136.827 155.061 136.285 154.734C135.749 154.407 135.322 153.957 135.004 153.383C134.692 152.809 134.535 152.153 134.535 151.416C134.535 150.683 134.692 150.032 135.004 149.463C135.317 148.889 135.742 148.436 136.278 148.105C136.82 147.774 137.433 147.608 138.119 147.608C138.754 147.608 139.33 147.76 139.848 148.063C140.371 148.366 140.777 148.786 141.066 149.323V147.832H142.088V155.196C142.088 155.989 141.932 156.657 141.619 157.198C141.307 157.744 140.859 158.155 140.275 158.43C139.697 158.71 139.006 158.85 138.203 158.85ZM138.343 154.335C138.885 154.335 139.363 154.211 139.778 153.964C140.194 153.712 140.52 153.367 140.758 152.928C140.996 152.485 141.115 151.983 141.115 151.423C141.115 150.854 140.996 150.35 140.758 149.911C140.52 149.468 140.194 149.122 139.778 148.875C139.363 148.623 138.887 148.497 138.35 148.497C137.814 148.497 137.338 148.623 136.922 148.875C136.507 149.122 136.18 149.468 135.942 149.911C135.704 150.35 135.585 150.854 135.585 151.423C135.585 151.983 135.702 152.485 135.935 152.928C136.173 153.367 136.5 153.712 136.915 153.964C137.335 154.211 137.811 154.335 138.343 154.335ZM148.161 155.224C147.489 155.224 146.882 155.061 146.341 154.734C145.804 154.403 145.377 153.95 145.06 153.376C144.747 152.802 144.591 152.146 144.591 151.409C144.591 150.681 144.745 150.032 145.053 149.463C145.365 148.889 145.79 148.436 146.327 148.105C146.868 147.774 147.479 147.608 148.161 147.608C148.809 147.608 149.397 147.76 149.925 148.063C150.452 148.366 150.853 148.786 151.129 149.323V147.832H152.151V155H151.129V153.488C150.821 154.029 150.408 154.454 149.89 154.762C149.372 155.07 148.795 155.224 148.161 155.224ZM148.413 154.335C148.949 154.335 149.423 154.211 149.834 153.964C150.249 153.712 150.576 153.367 150.814 152.928C151.052 152.485 151.171 151.981 151.171 151.416C151.171 150.847 151.052 150.343 150.814 149.904C150.58 149.465 150.256 149.122 149.841 148.875C149.425 148.623 148.949 148.497 148.413 148.497C147.876 148.497 147.4 148.623 146.985 148.875C146.569 149.122 146.243 149.465 146.005 149.904C145.767 150.343 145.648 150.847 145.648 151.416C145.648 151.981 145.767 152.485 146.005 152.928C146.243 153.367 146.569 153.712 146.985 153.964C147.4 154.211 147.876 154.335 148.413 154.335ZM158.496 155.224C157.96 155.224 157.456 155.131 156.984 154.944C156.513 154.753 156.1 154.484 155.745 154.139C155.391 153.794 155.113 153.39 154.912 152.928C154.712 152.466 154.611 151.962 154.611 151.416C154.611 150.875 154.709 150.373 154.905 149.911C155.101 149.449 155.374 149.045 155.724 148.7C156.079 148.355 156.492 148.086 156.963 147.895C157.435 147.704 157.946 147.608 158.496 147.608C158.968 147.608 159.416 147.678 159.84 147.818C160.265 147.958 160.631 148.152 160.939 148.399L160.519 149.085C159.997 148.679 159.362 148.476 158.615 148.476C158.027 148.476 157.509 148.607 157.061 148.868C156.618 149.125 156.273 149.477 156.025 149.925C155.778 150.368 155.654 150.865 155.654 151.416C155.654 151.971 155.78 152.473 156.032 152.921C156.284 153.364 156.634 153.714 157.082 153.971C157.53 154.228 158.044 154.356 158.622 154.356C158.986 154.356 159.329 154.305 159.651 154.202C159.978 154.095 160.265 153.943 160.512 153.747L160.939 154.433C160.627 154.676 160.26 154.867 159.84 155.007C159.42 155.152 158.972 155.224 158.496 155.224ZM163.128 155V147.832H164.15V155H163.128ZM163.646 146.397C163.52 146.397 163.406 146.367 163.303 146.306C163.205 146.245 163.126 146.164 163.065 146.061C163.004 145.958 162.974 145.846 162.974 145.725C162.974 145.604 163.004 145.494 163.065 145.396C163.126 145.293 163.205 145.212 163.303 145.151C163.406 145.09 163.52 145.06 163.646 145.06C163.767 145.06 163.877 145.09 163.975 145.151C164.073 145.212 164.152 145.291 164.213 145.389C164.278 145.487 164.311 145.599 164.311 145.725C164.311 145.846 164.278 145.958 164.213 146.061C164.152 146.164 164.073 146.245 163.975 146.306C163.877 146.367 163.767 146.397 163.646 146.397ZM170.591 155.224C169.844 155.224 169.17 155.063 168.568 154.741C167.971 154.419 167.497 153.971 167.147 153.397C166.797 152.823 166.622 152.163 166.622 151.416C166.622 150.665 166.797 150.004 167.147 149.435C167.497 148.861 167.971 148.413 168.568 148.091C169.165 147.769 169.84 147.608 170.591 147.608C171.338 147.608 172.01 147.769 172.607 148.091C173.209 148.413 173.685 148.861 174.035 149.435C174.385 150.004 174.56 150.665 174.56 151.416C174.56 152.163 174.385 152.823 174.035 153.397C173.685 153.971 173.209 154.419 172.607 154.741C172.01 155.063 171.338 155.224 170.591 155.224ZM170.591 154.314C171.151 154.314 171.65 154.19 172.089 153.943C172.528 153.696 172.873 153.355 173.125 152.921C173.377 152.482 173.503 151.981 173.503 151.416C173.503 150.851 173.377 150.352 173.125 149.918C172.873 149.479 172.528 149.136 172.089 148.889C171.65 148.642 171.151 148.518 170.591 148.518C170.031 148.518 169.532 148.642 169.093 148.889C168.654 149.136 168.309 149.479 168.057 149.918C167.805 150.352 167.679 150.851 167.679 151.416C167.679 151.976 167.805 152.475 168.057 152.914C168.309 153.353 168.654 153.696 169.093 153.943C169.532 154.19 170.031 154.314 170.591 154.314ZM170.514 146.677L169.989 146.292L171.319 143.639L172.124 144.213L170.514 146.677ZM177.026 155V147.832H178.048V148.812C178.244 148.476 178.547 148.191 178.958 147.958C179.368 147.725 179.87 147.608 180.463 147.608C181.018 147.608 181.496 147.722 181.898 147.951C182.299 148.18 182.607 148.513 182.822 148.952C183.036 149.386 183.144 149.911 183.144 150.527V155H182.122V150.723C182.122 149.981 181.949 149.416 181.604 149.029C181.258 148.637 180.771 148.441 180.141 148.441C179.702 148.441 179.326 148.53 179.014 148.707C178.706 148.88 178.468 149.111 178.3 149.4C178.132 149.685 178.048 149.995 178.048 150.331V155H177.026ZM192.949 155.224C192.413 155.224 191.909 155.131 191.437 154.944C190.966 154.753 190.553 154.484 190.198 154.139C189.844 153.794 189.566 153.39 189.365 152.928C189.165 152.466 189.064 151.962 189.064 151.416C189.064 150.875 189.162 150.373 189.358 149.911C189.554 149.449 189.827 149.045 190.177 148.7C190.532 148.355 190.945 148.086 191.416 147.895C191.888 147.704 192.399 147.608 192.949 147.608C193.421 147.608 193.869 147.678 194.293 147.818C194.718 147.958 195.084 148.152 195.392 148.399L194.972 149.085C194.45 148.679 193.815 148.476 193.068 148.476C192.48 148.476 191.962 148.607 191.514 148.868C191.071 149.125 190.726 149.477 190.478 149.925C190.231 150.368 190.107 150.865 190.107 151.416C190.107 151.971 190.233 152.473 190.485 152.921C190.737 153.364 191.087 153.714 191.535 153.971C191.983 154.228 192.497 154.356 193.075 154.356C193.439 154.356 193.782 154.305 194.104 154.202C194.431 154.095 194.718 153.943 194.965 153.747L195.392 154.433C195.08 154.676 194.713 154.867 194.293 155.007C193.873 155.152 193.425 155.224 192.949 155.224ZM197.581 155V147.832H198.603V155H197.581ZM198.099 146.397C197.973 146.397 197.859 146.367 197.756 146.306C197.658 146.245 197.579 146.164 197.518 146.061C197.457 145.958 197.427 145.846 197.427 145.725C197.427 145.604 197.457 145.494 197.518 145.396C197.579 145.293 197.658 145.212 197.756 145.151C197.859 145.09 197.973 145.06 198.099 145.06C198.22 145.06 198.33 145.09 198.428 145.151C198.526 145.212 198.605 145.291 198.666 145.389C198.731 145.487 198.764 145.599 198.764 145.725C198.764 145.846 198.731 145.958 198.666 146.061C198.605 146.164 198.526 146.245 198.428 146.306C198.33 146.367 198.22 146.397 198.099 146.397ZM204.981 155.224C204.23 155.224 203.558 155.058 202.965 154.727C202.377 154.396 201.915 153.945 201.579 153.376C201.243 152.802 201.075 152.158 201.075 151.444C201.075 150.907 201.171 150.408 201.362 149.946C201.558 149.479 201.829 149.071 202.174 148.721C202.52 148.371 202.921 148.098 203.378 147.902C203.836 147.706 204.323 147.608 204.841 147.608C205.551 147.608 206.181 147.764 206.731 148.077C207.287 148.385 207.725 148.812 208.047 149.358C208.374 149.904 208.547 150.534 208.565 151.248C208.565 151.304 208.563 151.351 208.558 151.388C208.558 151.421 208.554 151.463 208.544 151.514H202.09C202.09 152.074 202.216 152.569 202.468 152.998C202.72 153.427 203.066 153.766 203.504 154.013C203.948 154.256 204.454 154.377 205.023 154.377C205.565 154.377 206.05 154.265 206.479 154.041C206.913 153.812 207.275 153.486 207.564 153.061L208.32 153.467C207.98 154.022 207.515 154.454 206.927 154.762C206.344 155.07 205.695 155.224 204.981 155.224ZM202.146 150.744H207.543C207.483 150.296 207.326 149.902 207.074 149.561C206.822 149.216 206.503 148.945 206.115 148.749C205.733 148.553 205.313 148.455 204.855 148.455C204.384 148.455 203.955 148.553 203.567 148.749C203.18 148.94 202.86 149.209 202.608 149.554C202.361 149.895 202.207 150.291 202.146 150.744ZM210.945 155V147.832H211.967V148.812C212.163 148.476 212.467 148.191 212.877 147.958C213.288 147.725 213.79 147.608 214.382 147.608C214.938 147.608 215.416 147.722 215.817 147.951C216.219 148.18 216.527 148.513 216.741 148.952C216.956 149.386 217.063 149.911 217.063 150.527V155H216.041V150.723C216.041 149.981 215.869 149.416 215.523 149.029C215.178 148.637 214.69 148.441 214.06 148.441C213.622 148.441 213.246 148.53 212.933 148.707C212.625 148.88 212.387 149.111 212.219 149.4C212.051 149.685 211.967 149.995 211.967 150.331V155H210.945ZM221.644 155.224C221.108 155.224 220.69 155.044 220.391 154.685C220.097 154.321 219.95 153.81 219.95 153.152V148.602H219.222V147.832H219.95V145.151H220.972V147.832H222.757V148.602H220.972V153.096C220.972 153.493 221.049 153.796 221.203 154.006C221.357 154.216 221.577 154.321 221.861 154.321C222.137 154.321 222.379 154.244 222.589 154.09L222.848 154.902C222.69 155 222.503 155.077 222.288 155.133C222.074 155.194 221.859 155.224 221.644 155.224ZM225.082 155V147.832H226.104V155H225.082ZM225.516 146.894L224.991 146.509L226.321 143.856L227.126 144.43L225.516 146.894ZM229.227 155V148.602H228.513V147.832H229.227V145.263C229.227 144.694 229.309 144.225 229.472 143.856C229.64 143.483 229.874 143.205 230.172 143.023C230.471 142.841 230.821 142.75 231.222 142.75C231.498 142.75 231.761 142.792 232.013 142.876C232.27 142.96 232.499 143.072 232.699 143.212C232.9 143.352 233.061 143.515 233.182 143.702L232.706 144.318C232.594 144.122 232.417 143.961 232.174 143.835C231.936 143.704 231.698 143.639 231.46 143.639C231.059 143.639 230.756 143.763 230.55 144.01C230.35 144.257 230.249 144.666 230.249 145.235V147.832H233.532V155H232.51V148.602H230.249V155H229.227ZM239.557 155.224C239.02 155.224 238.516 155.131 238.045 154.944C237.573 154.753 237.16 154.484 236.806 154.139C236.451 153.794 236.173 153.39 235.973 152.928C235.772 152.466 235.672 151.962 235.672 151.416C235.672 150.875 235.77 150.373 235.966 149.911C236.162 149.449 236.435 149.045 236.785 148.7C237.139 148.355 237.552 148.086 238.024 147.895C238.495 147.704 239.006 147.608 239.557 147.608C240.028 147.608 240.476 147.678 240.901 147.818C241.325 147.958 241.692 148.152 242 148.399L241.58 149.085C241.057 148.679 240.422 148.476 239.676 148.476C239.088 148.476 238.57 148.607 238.122 148.868C237.678 149.125 237.333 149.477 237.086 149.925C236.838 150.368 236.715 150.865 236.715 151.416C236.715 151.971 236.841 152.473 237.093 152.921C237.345 153.364 237.695 153.714 238.143 153.971C238.591 154.228 239.104 154.356 239.683 154.356C240.047 154.356 240.39 154.305 240.712 154.202C241.038 154.095 241.325 153.943 241.573 153.747L242 154.433C241.687 154.676 241.321 154.867 240.901 155.007C240.481 155.152 240.033 155.224 239.557 155.224ZM247.213 155.224C246.541 155.224 245.935 155.061 245.393 154.734C244.857 154.403 244.43 153.95 244.112 153.376C243.8 152.802 243.643 152.146 243.643 151.409C243.643 150.681 243.797 150.032 244.105 149.463C244.418 148.889 244.843 148.436 245.379 148.105C245.921 147.774 246.532 147.608 247.213 147.608C247.862 147.608 248.45 147.76 248.977 148.063C249.505 148.366 249.906 148.786 250.181 149.323V147.832H251.203V155H250.181V153.488C249.873 154.029 249.46 154.454 248.942 154.762C248.424 155.07 247.848 155.224 247.213 155.224ZM247.465 154.335C248.002 154.335 248.476 154.211 248.886 153.964C249.302 153.712 249.628 153.367 249.866 152.928C250.104 152.485 250.223 151.981 250.223 151.416C250.223 150.847 250.104 150.343 249.866 149.904C249.633 149.465 249.309 149.122 248.893 148.875C248.478 148.623 248.002 148.497 247.465 148.497C246.929 148.497 246.453 148.623 246.037 148.875C245.622 149.122 245.295 149.465 245.057 149.904C244.819 150.343 244.7 150.847 244.7 151.416C244.7 151.981 244.819 152.485 245.057 152.928C245.295 153.367 245.622 153.712 246.037 153.964C246.453 154.211 246.929 154.335 247.465 154.335ZM261.173 155.224C260.421 155.224 259.749 155.058 259.157 154.727C258.569 154.396 258.107 153.945 257.771 153.376C257.435 152.802 257.267 152.158 257.267 151.444C257.267 150.907 257.362 150.408 257.554 149.946C257.75 149.479 258.02 149.071 258.366 148.721C258.711 148.371 259.112 148.098 259.57 147.902C260.027 147.706 260.515 147.608 261.033 147.608C261.742 147.608 262.372 147.764 262.923 148.077C263.478 148.385 263.917 148.812 264.239 149.358C264.565 149.904 264.738 150.534 264.757 151.248C264.757 151.304 264.754 151.351 264.75 151.388C264.75 151.421 264.745 151.463 264.736 151.514H258.282C258.282 152.074 258.408 152.569 258.66 152.998C258.912 153.427 259.257 153.766 259.696 154.013C260.139 154.256 260.645 154.377 261.215 154.377C261.756 154.377 262.241 154.265 262.671 154.041C263.105 153.812 263.466 153.486 263.756 153.061L264.512 153.467C264.171 154.022 263.707 154.454 263.119 154.762C262.535 155.07 261.887 155.224 261.173 155.224ZM258.338 150.744H263.735C263.674 150.296 263.518 149.902 263.266 149.561C263.014 149.216 262.694 148.945 262.307 148.749C261.924 148.553 261.504 148.455 261.047 148.455C260.575 148.455 260.146 148.553 259.759 148.749C259.371 148.94 259.052 149.209 258.8 149.554C258.552 149.895 258.398 150.291 258.338 150.744ZM267.137 155V147.832H268.159V148.812C268.355 148.476 268.658 148.191 269.069 147.958C269.48 147.725 269.981 147.608 270.574 147.608C271.129 147.608 271.608 147.722 272.009 147.951C272.41 148.18 272.718 148.513 272.933 148.952C273.148 149.386 273.255 149.911 273.255 150.527V155H272.233V150.723C272.233 149.981 272.06 149.416 271.715 149.029C271.37 148.637 270.882 148.441 270.252 148.441C269.813 148.441 269.438 148.53 269.125 148.707C268.817 148.88 268.579 149.111 268.411 149.4C268.243 149.685 268.159 149.995 268.159 150.331V155H267.137ZM282.627 155.224C281.539 155.224 280.762 154.979 280.296 154.489C279.829 153.999 279.596 153.18 279.596 152.032V147.832H280.618V151.85C280.618 152.755 280.772 153.402 281.08 153.789C281.388 154.172 281.903 154.363 282.627 154.363C283.355 154.363 283.87 154.172 284.174 153.789C284.482 153.402 284.636 152.755 284.636 151.85V147.832H285.658V152.032C285.658 153.18 285.424 153.999 284.958 154.489C284.496 154.979 283.719 155.224 282.627 155.224ZM288.547 155V147.832H289.569V148.812C289.765 148.476 290.068 148.191 290.479 147.958C290.89 147.725 291.391 147.608 291.984 147.608C292.539 147.608 293.018 147.722 293.419 147.951C293.82 148.18 294.128 148.513 294.343 148.952C294.558 149.386 294.665 149.911 294.665 150.527V155H293.643V150.723C293.643 149.981 293.47 149.416 293.125 149.029C292.78 148.637 292.292 148.441 291.662 148.441C291.223 148.441 290.848 148.53 290.535 148.707C290.227 148.88 289.989 149.111 289.821 149.4C289.653 149.685 289.569 149.995 289.569 150.331V155H288.547ZM80.5157 174.64V163.832H81.5377V165.316C81.8271 164.779 82.2307 164.362 82.7487 164.063C83.2714 163.76 83.8501 163.608 84.4847 163.608C85.1707 163.608 85.7844 163.774 86.3257 164.105C86.8671 164.436 87.2941 164.889 87.6067 165.463C87.9194 166.032 88.0757 166.683 88.0757 167.416C88.0757 168.139 87.9194 168.79 87.6067 169.369C87.2987 169.943 86.8741 170.396 86.3327 170.727C85.7961 171.058 85.1847 171.224 84.4987 171.224C83.8734 171.224 83.2994 171.07 82.7767 170.762C82.2541 170.454 81.8411 170.029 81.5377 169.488V174.64H80.5157ZM84.2607 170.335C84.7974 170.335 85.2734 170.211 85.6887 169.964C86.1041 169.712 86.4284 169.367 86.6617 168.928C86.8997 168.489 87.0187 167.988 87.0187 167.423C87.0187 166.854 86.8997 166.35 86.6617 165.911C86.4237 165.468 86.0971 165.122 85.6817 164.875C85.2711 164.623 84.7974 164.497 84.2607 164.497C83.7241 164.497 83.2481 164.623 82.8327 164.875C82.4174 165.122 82.0907 165.465 81.8527 165.904C81.6147 166.343 81.4957 166.847 81.4957 167.416C81.4957 167.981 81.6147 168.485 81.8527 168.928C82.0907 169.367 82.4174 169.712 82.8327 169.964C83.2527 170.211 83.7287 170.335 84.2607 170.335ZM93.4762 171.224C92.3889 171.224 91.6119 170.979 91.1452 170.489C90.6786 169.999 90.4452 169.18 90.4452 168.032V163.832H91.4672V167.85C91.4672 168.755 91.6212 169.402 91.9292 169.789C92.2372 170.172 92.7529 170.363 93.4762 170.363C94.2042 170.363 94.7199 170.172 95.0232 169.789C95.3312 169.402 95.4852 168.755 95.4852 167.85V163.832H96.5072V168.032C96.5072 169.18 96.2739 169.999 95.8072 170.489C95.3452 170.979 94.5682 171.224 93.4762 171.224ZM99.3966 171V163.832H100.419V164.812C100.615 164.476 100.918 164.191 101.329 163.958C101.739 163.725 102.241 163.608 102.834 163.608C103.389 163.608 103.867 163.722 104.269 163.951C104.67 164.18 104.978 164.513 105.193 164.952C105.407 165.386 105.515 165.911 105.515 166.527V171H104.493V166.723C104.493 165.981 104.32 165.416 103.975 165.029C103.629 164.637 103.142 164.441 102.512 164.441C102.073 164.441 101.697 164.53 101.385 164.707C101.077 164.88 100.839 165.111 100.671 165.4C100.503 165.685 100.419 165.995 100.419 166.331V171H99.3966ZM110.096 171.224C109.559 171.224 109.141 171.044 108.843 170.685C108.549 170.321 108.402 169.81 108.402 169.152V164.602H107.674V163.832H108.402V161.151H109.424V163.832H111.209V164.602H109.424V169.096C109.424 169.493 109.501 169.796 109.655 170.006C109.809 170.216 110.028 170.321 110.313 170.321C110.588 170.321 110.831 170.244 111.041 170.09L111.3 170.902C111.141 171 110.954 171.077 110.74 171.133C110.525 171.194 110.31 171.224 110.096 171.224ZM116.956 171.224C116.21 171.224 115.535 171.063 114.933 170.741C114.336 170.419 113.862 169.971 113.512 169.397C113.162 168.823 112.987 168.163 112.987 167.416C112.987 166.665 113.162 166.004 113.512 165.435C113.862 164.861 114.336 164.413 114.933 164.091C115.531 163.769 116.205 163.608 116.956 163.608C117.703 163.608 118.375 163.769 118.972 164.091C119.574 164.413 120.05 164.861 120.4 165.435C120.75 166.004 120.925 166.665 120.925 167.416C120.925 168.163 120.75 168.823 120.4 169.397C120.05 169.971 119.574 170.419 118.972 170.741C118.375 171.063 117.703 171.224 116.956 171.224ZM116.956 170.314C117.516 170.314 118.016 170.19 118.454 169.943C118.893 169.696 119.238 169.355 119.49 168.921C119.742 168.482 119.868 167.981 119.868 167.416C119.868 166.851 119.742 166.352 119.49 165.918C119.238 165.479 118.893 165.136 118.454 164.889C118.016 164.642 117.516 164.518 116.956 164.518C116.396 164.518 115.897 164.642 115.458 164.889C115.02 165.136 114.674 165.479 114.422 165.918C114.17 166.352 114.044 166.851 114.044 167.416C114.044 167.976 114.17 168.475 114.422 168.914C114.674 169.353 115.02 169.696 115.458 169.943C115.897 170.19 116.396 170.314 116.956 170.314ZM130.045 171.224C129.373 171.224 128.767 171.061 128.225 170.734C127.689 170.403 127.262 169.95 126.944 169.376C126.632 168.802 126.475 168.146 126.475 167.409C126.475 166.681 126.629 166.032 126.937 165.463C127.25 164.889 127.675 164.436 128.211 164.105C128.753 163.774 129.364 163.608 130.045 163.608C130.694 163.608 131.282 163.76 131.809 164.063C132.337 164.366 132.738 164.786 133.013 165.323V163.832H134.035V171H133.013V169.488C132.705 170.029 132.292 170.454 131.774 170.762C131.256 171.07 130.68 171.224 130.045 171.224ZM130.297 170.335C130.834 170.335 131.308 170.211 131.718 169.964C132.134 169.712 132.46 169.367 132.698 168.928C132.936 168.485 133.055 167.981 133.055 167.416C133.055 166.847 132.936 166.343 132.698 165.904C132.465 165.465 132.141 165.122 131.725 164.875C131.31 164.623 130.834 164.497 130.297 164.497C129.761 164.497 129.285 164.623 128.869 164.875C128.454 165.122 128.127 165.465 127.889 165.904C127.651 166.343 127.532 166.847 127.532 167.416C127.532 167.981 127.651 168.485 127.889 168.928C128.127 169.367 128.454 169.712 128.869 169.964C129.285 170.211 129.761 170.335 130.297 170.335ZM140.381 171.224C139.844 171.224 139.34 171.131 138.869 170.944C138.398 170.753 137.985 170.484 137.63 170.139C137.275 169.794 136.998 169.39 136.797 168.928C136.596 168.466 136.496 167.962 136.496 167.416C136.496 166.875 136.594 166.373 136.79 165.911C136.986 165.449 137.259 165.045 137.609 164.7C137.964 164.355 138.377 164.086 138.848 163.895C139.319 163.704 139.83 163.608 140.381 163.608C140.852 163.608 141.3 163.678 141.725 163.818C142.15 163.958 142.516 164.152 142.824 164.399L142.404 165.085C141.881 164.679 141.247 164.476 140.5 164.476C139.912 164.476 139.394 164.607 138.946 164.868C138.503 165.125 138.157 165.477 137.91 165.925C137.663 166.368 137.539 166.865 137.539 167.416C137.539 167.971 137.665 168.473 137.917 168.921C138.169 169.364 138.519 169.714 138.967 169.971C139.415 170.228 139.928 170.356 140.507 170.356C140.871 170.356 141.214 170.305 141.536 170.202C141.863 170.095 142.15 169.943 142.397 169.747L142.824 170.433C142.511 170.676 142.145 170.867 141.725 171.007C141.305 171.152 140.857 171.224 140.381 171.224ZM148.379 171.224C147.842 171.224 147.338 171.131 146.867 170.944C146.396 170.753 145.983 170.484 145.628 170.139C145.273 169.794 144.996 169.39 144.795 168.928C144.594 168.466 144.494 167.962 144.494 167.416C144.494 166.875 144.592 166.373 144.788 165.911C144.984 165.449 145.257 165.045 145.607 164.7C145.962 164.355 146.375 164.086 146.846 163.895C147.317 163.704 147.828 163.608 148.379 163.608C148.85 163.608 149.298 163.678 149.723 163.818C150.148 163.958 150.514 164.152 150.822 164.399L150.402 165.085C149.879 164.679 149.245 164.476 148.498 164.476C147.91 164.476 147.392 164.607 146.944 164.868C146.501 165.125 146.155 165.477 145.908 165.925C145.661 166.368 145.537 166.865 145.537 167.416C145.537 167.971 145.663 168.473 145.915 168.921C146.167 169.364 146.517 169.714 146.965 169.971C147.413 170.228 147.926 170.356 148.505 170.356C148.869 170.356 149.212 170.305 149.534 170.202C149.861 170.095 150.148 169.943 150.395 169.747L150.822 170.433C150.509 170.676 150.143 170.867 149.723 171.007C149.303 171.152 148.855 171.224 148.379 171.224ZM156.405 171.224C155.654 171.224 154.982 171.058 154.389 170.727C153.801 170.396 153.339 169.945 153.003 169.376C152.667 168.802 152.499 168.158 152.499 167.444C152.499 166.907 152.595 166.408 152.786 165.946C152.982 165.479 153.253 165.071 153.598 164.721C153.943 164.371 154.345 164.098 154.802 163.902C155.259 163.706 155.747 163.608 156.265 163.608C156.974 163.608 157.604 163.764 158.155 164.077C158.71 164.385 159.149 164.812 159.471 165.358C159.798 165.904 159.97 166.534 159.989 167.248C159.989 167.304 159.987 167.351 159.982 167.388C159.982 167.421 159.977 167.463 159.968 167.514H153.514C153.514 168.074 153.64 168.569 153.892 168.998C154.144 169.427 154.489 169.766 154.928 170.013C155.371 170.256 155.878 170.377 156.447 170.377C156.988 170.377 157.474 170.265 157.903 170.041C158.337 169.812 158.699 169.486 158.988 169.061L159.744 169.467C159.403 170.022 158.939 170.454 158.351 170.762C157.768 171.07 157.119 171.224 156.405 171.224ZM153.57 166.744H158.967C158.906 166.296 158.75 165.902 158.498 165.561C158.246 165.216 157.926 164.945 157.539 164.749C157.156 164.553 156.736 164.455 156.279 164.455C155.808 164.455 155.378 164.553 154.991 164.749C154.604 164.94 154.284 165.209 154.032 165.554C153.785 165.895 153.631 166.291 153.57 166.744ZM164.204 171.224C163.611 171.224 163.089 171.082 162.636 170.797C162.183 170.508 161.831 170.099 161.579 169.572L162.125 168.984C162.349 169.441 162.641 169.798 163 170.055C163.359 170.307 163.758 170.433 164.197 170.433C164.491 170.433 164.759 170.372 165.002 170.251C165.249 170.13 165.445 169.957 165.59 169.733C165.739 169.504 165.814 169.234 165.814 168.921C165.814 168.636 165.744 168.412 165.604 168.249C165.469 168.086 165.268 167.946 165.002 167.829C164.741 167.708 164.414 167.572 164.022 167.423C163.719 167.302 163.425 167.164 163.14 167.01C162.855 166.856 162.62 166.662 162.433 166.429C162.251 166.191 162.16 165.89 162.16 165.526C162.16 165.157 162.258 164.831 162.454 164.546C162.65 164.257 162.921 164.03 163.266 163.867C163.611 163.699 164.003 163.615 164.442 163.615C164.843 163.615 165.219 163.701 165.569 163.874C165.924 164.047 166.241 164.292 166.521 164.609L166.052 165.204C165.623 164.639 165.088 164.357 164.449 164.357C164.057 164.357 163.737 164.46 163.49 164.665C163.247 164.87 163.126 165.139 163.126 165.47C163.126 165.708 163.203 165.906 163.357 166.065C163.511 166.224 163.712 166.359 163.959 166.471C164.211 166.583 164.482 166.695 164.771 166.807C165.191 166.966 165.555 167.124 165.863 167.283C166.176 167.442 166.418 167.645 166.591 167.892C166.764 168.135 166.85 168.466 166.85 168.886C166.85 169.367 166.738 169.782 166.514 170.132C166.29 170.482 165.977 170.753 165.576 170.944C165.179 171.131 164.722 171.224 164.204 171.224ZM169.267 171V163.832H170.289V171H169.267ZM169.785 162.397C169.659 162.397 169.544 162.367 169.442 162.306C169.344 162.245 169.264 162.164 169.204 162.061C169.143 161.958 169.113 161.846 169.113 161.725C169.113 161.604 169.143 161.494 169.204 161.396C169.264 161.293 169.344 161.212 169.442 161.151C169.544 161.09 169.659 161.06 169.785 161.06C169.906 161.06 170.016 161.09 170.114 161.151C170.212 161.212 170.291 161.291 170.352 161.389C170.417 161.487 170.45 161.599 170.45 161.725C170.45 161.846 170.417 161.958 170.352 162.061C170.291 162.164 170.212 162.245 170.114 162.306C170.016 162.367 169.906 162.397 169.785 162.397ZM177.304 171.224C176.669 171.224 176.09 171.07 175.568 170.762C175.045 170.454 174.632 170.029 174.329 169.488V171H173.307V158.96H174.329V165.323C174.623 164.786 175.029 164.366 175.547 164.063C176.065 163.76 176.643 163.608 177.283 163.608C177.969 163.608 178.582 163.774 179.124 164.105C179.665 164.436 180.09 164.889 180.398 165.463C180.71 166.032 180.867 166.683 180.867 167.416C180.867 168.153 180.708 168.809 180.391 169.383C180.078 169.957 179.653 170.407 179.117 170.734C178.58 171.061 177.976 171.224 177.304 171.224ZM177.052 170.335C177.588 170.335 178.064 170.211 178.48 169.964C178.895 169.712 179.219 169.367 179.453 168.928C179.691 168.485 179.81 167.983 179.81 167.423C179.81 166.854 179.691 166.35 179.453 165.911C179.215 165.468 178.888 165.122 178.473 164.875C178.062 164.623 177.588 164.497 177.052 164.497C176.515 164.497 176.039 164.623 175.624 164.875C175.208 165.122 174.882 165.468 174.644 165.911C174.406 166.35 174.287 166.854 174.287 167.423C174.287 167.983 174.403 168.485 174.637 168.928C174.875 169.367 175.201 169.712 175.617 169.964C176.037 170.211 176.515 170.335 177.052 170.335ZM183.369 171V158.96H184.391V171H183.369ZM190.762 171.224C190.011 171.224 189.339 171.058 188.746 170.727C188.158 170.396 187.696 169.945 187.36 169.376C187.024 168.802 186.856 168.158 186.856 167.444C186.856 166.907 186.952 166.408 187.143 165.946C187.339 165.479 187.61 165.071 187.955 164.721C188.301 164.371 188.702 164.098 189.159 163.902C189.617 163.706 190.104 163.608 190.622 163.608C191.332 163.608 191.962 163.764 192.512 164.077C193.068 164.385 193.506 164.812 193.828 165.358C194.155 165.904 194.328 166.534 194.346 167.248C194.346 167.304 194.344 167.351 194.339 167.388C194.339 167.421 194.335 167.463 194.325 167.514H187.871C187.871 168.074 187.997 168.569 188.249 168.998C188.501 169.427 188.847 169.766 189.285 170.013C189.729 170.256 190.235 170.377 190.804 170.377C191.346 170.377 191.831 170.265 192.26 170.041C192.694 169.812 193.056 169.486 193.345 169.061L194.101 169.467C193.761 170.022 193.296 170.454 192.708 170.762C192.125 171.07 191.476 171.224 190.762 171.224ZM187.927 166.744H193.324C193.264 166.296 193.107 165.902 192.855 165.561C192.603 165.216 192.284 164.945 191.896 164.749C191.514 164.553 191.094 164.455 190.636 164.455C190.165 164.455 189.736 164.553 189.348 164.749C188.961 164.94 188.641 165.209 188.389 165.554C188.142 165.895 187.988 166.291 187.927 166.744ZM200.35 174.64V163.832H201.372V165.316C201.661 164.779 202.065 164.362 202.583 164.063C203.105 163.76 203.684 163.608 204.319 163.608C205.005 163.608 205.618 163.774 206.16 164.105C206.701 164.436 207.128 164.889 207.441 165.463C207.753 166.032 207.91 166.683 207.91 167.416C207.91 168.139 207.753 168.79 207.441 169.369C207.133 169.943 206.708 170.396 206.167 170.727C205.63 171.058 205.019 171.224 204.333 171.224C203.707 171.224 203.133 171.07 202.611 170.762C202.088 170.454 201.675 170.029 201.372 169.488V174.64H200.35ZM204.095 170.335C204.631 170.335 205.107 170.211 205.523 169.964C205.938 169.712 206.262 169.367 206.496 168.928C206.734 168.489 206.853 167.988 206.853 167.423C206.853 166.854 206.734 166.35 206.496 165.911C206.258 165.468 205.931 165.122 205.516 164.875C205.105 164.623 204.631 164.497 204.095 164.497C203.558 164.497 203.082 164.623 202.667 164.875C202.251 165.122 201.925 165.465 201.687 165.904C201.449 166.343 201.33 166.847 201.33 167.416C201.33 167.981 201.449 168.485 201.687 168.928C201.925 169.367 202.251 169.712 202.667 169.964C203.087 170.211 203.563 170.335 204.095 170.335ZM213.471 171.224C212.799 171.224 212.193 171.061 211.651 170.734C211.115 170.403 210.688 169.95 210.37 169.376C210.058 168.802 209.901 168.146 209.901 167.409C209.901 166.681 210.055 166.032 210.363 165.463C210.676 164.889 211.101 164.436 211.637 164.105C212.179 163.774 212.79 163.608 213.471 163.608C214.12 163.608 214.708 163.76 215.235 164.063C215.763 164.366 216.164 164.786 216.439 165.323V163.832H217.461V171H216.439V169.488C216.131 170.029 215.718 170.454 215.2 170.762C214.682 171.07 214.106 171.224 213.471 171.224ZM213.723 170.335C214.26 170.335 214.734 170.211 215.144 169.964C215.56 169.712 215.886 169.367 216.124 168.928C216.362 168.485 216.481 167.981 216.481 167.416C216.481 166.847 216.362 166.343 216.124 165.904C215.891 165.465 215.567 165.122 215.151 164.875C214.736 164.623 214.26 164.497 213.723 164.497C213.187 164.497 212.711 164.623 212.295 164.875C211.88 165.122 211.553 165.465 211.315 165.904C211.077 166.343 210.958 166.847 210.958 167.416C210.958 167.981 211.077 168.485 211.315 168.928C211.553 169.367 211.88 169.712 212.295 169.964C212.711 170.211 213.187 170.335 213.723 170.335ZM220.475 171V163.832H221.497V164.889C221.725 164.469 222.019 164.152 222.379 163.937C222.743 163.718 223.163 163.608 223.639 163.608C223.849 163.608 224.061 163.631 224.276 163.678C224.495 163.725 224.684 163.785 224.843 163.86L224.423 164.721C224.283 164.651 224.122 164.597 223.94 164.56C223.762 164.523 223.592 164.504 223.429 164.504C223.097 164.504 222.785 164.588 222.491 164.756C222.197 164.924 221.956 165.143 221.77 165.414C221.588 165.68 221.497 165.965 221.497 166.268V171H220.475ZM229.672 171.224C229 171.224 228.394 171.061 227.852 170.734C227.316 170.403 226.889 169.95 226.571 169.376C226.259 168.802 226.102 168.146 226.102 167.409C226.102 166.681 226.256 166.032 226.564 165.463C226.877 164.889 227.302 164.436 227.838 164.105C228.38 163.774 228.991 163.608 229.672 163.608C230.321 163.608 230.909 163.76 231.436 164.063C231.964 164.366 232.365 164.786 232.64 165.323V163.832H233.662V171H232.64V169.488C232.332 170.029 231.919 170.454 231.401 170.762C230.883 171.07 230.307 171.224 229.672 171.224ZM229.924 170.335C230.461 170.335 230.935 170.211 231.345 169.964C231.761 169.712 232.087 169.367 232.325 168.928C232.563 168.485 232.682 167.981 232.682 167.416C232.682 166.847 232.563 166.343 232.325 165.904C232.092 165.465 231.768 165.122 231.352 164.875C230.937 164.623 230.461 164.497 229.924 164.497C229.388 164.497 228.912 164.623 228.496 164.875C228.081 165.122 227.754 165.465 227.516 165.904C227.278 166.343 227.159 166.847 227.159 167.416C227.159 167.981 227.278 168.485 227.516 168.928C227.754 169.367 228.081 169.712 228.496 169.964C228.912 170.211 229.388 170.335 229.924 170.335ZM242.057 171.224C241.52 171.224 241.102 171.044 240.804 170.685C240.51 170.321 240.363 169.81 240.363 169.152V164.602H239.635V163.832H240.363V161.151H241.385V163.832H243.17V164.602H241.385V169.096C241.385 169.493 241.462 169.796 241.616 170.006C241.77 170.216 241.989 170.321 242.274 170.321C242.549 170.321 242.792 170.244 243.002 170.09L243.261 170.902C243.102 171 242.915 171.077 242.701 171.133C242.486 171.194 242.271 171.224 242.057 171.224ZM248.917 171.224C248.171 171.224 247.496 171.063 246.894 170.741C246.297 170.419 245.823 169.971 245.473 169.397C245.123 168.823 244.948 168.163 244.948 167.416C244.948 166.665 245.123 166.004 245.473 165.435C245.823 164.861 246.297 164.413 246.894 164.091C247.492 163.769 248.166 163.608 248.917 163.608C249.664 163.608 250.336 163.769 250.933 164.091C251.535 164.413 252.011 164.861 252.361 165.435C252.711 166.004 252.886 166.665 252.886 167.416C252.886 168.163 252.711 168.823 252.361 169.397C252.011 169.971 251.535 170.419 250.933 170.741C250.336 171.063 249.664 171.224 248.917 171.224ZM248.917 170.314C249.477 170.314 249.977 170.19 250.415 169.943C250.854 169.696 251.199 169.355 251.451 168.921C251.703 168.482 251.829 167.981 251.829 167.416C251.829 166.851 251.703 166.352 251.451 165.918C251.199 165.479 250.854 165.136 250.415 164.889C249.977 164.642 249.477 164.518 248.917 164.518C248.357 164.518 247.858 164.642 247.419 164.889C246.981 165.136 246.635 165.479 246.383 165.918C246.131 166.352 246.005 166.851 246.005 167.416C246.005 167.976 246.131 168.475 246.383 168.914C246.635 169.353 246.981 169.696 247.419 169.943C247.858 170.19 248.357 170.314 248.917 170.314ZM258.411 171.224C257.739 171.224 257.132 171.061 256.591 170.734C256.054 170.407 255.627 169.957 255.31 169.383C254.997 168.809 254.841 168.153 254.841 167.416C254.841 166.683 254.997 166.032 255.31 165.463C255.622 164.889 256.047 164.436 256.584 164.105C257.125 163.774 257.739 163.608 258.425 163.608C259.064 163.608 259.643 163.76 260.161 164.063C260.679 164.366 261.085 164.786 261.379 165.323V158.953H262.401V171H261.379V169.488C261.075 170.029 260.662 170.454 260.14 170.762C259.622 171.07 259.045 171.224 258.411 171.224ZM258.656 170.335C259.192 170.335 259.668 170.211 260.084 169.964C260.499 169.712 260.826 169.367 261.064 168.928C261.302 168.485 261.421 167.983 261.421 167.423C261.421 166.854 261.302 166.35 261.064 165.911C260.83 165.468 260.504 165.122 260.084 164.875C259.668 164.623 259.192 164.497 258.656 164.497C258.124 164.497 257.65 164.623 257.235 164.875C256.819 165.122 256.493 165.468 256.255 165.911C256.017 166.35 255.898 166.854 255.898 167.423C255.898 167.988 256.014 168.489 256.248 168.928C256.486 169.367 256.812 169.712 257.228 169.964C257.648 170.211 258.124 170.335 258.656 170.335ZM268.837 171.224C268.091 171.224 267.416 171.063 266.814 170.741C266.217 170.419 265.743 169.971 265.393 169.397C265.043 168.823 264.868 168.163 264.868 167.416C264.868 166.665 265.043 166.004 265.393 165.435C265.743 164.861 266.217 164.413 266.814 164.091C267.412 163.769 268.086 163.608 268.837 163.608C269.584 163.608 270.256 163.769 270.853 164.091C271.455 164.413 271.931 164.861 272.281 165.435C272.631 166.004 272.806 166.665 272.806 167.416C272.806 168.163 272.631 168.823 272.281 169.397C271.931 169.971 271.455 170.419 270.853 170.741C270.256 171.063 269.584 171.224 268.837 171.224ZM268.837 170.314C269.397 170.314 269.897 170.19 270.335 169.943C270.774 169.696 271.119 169.355 271.371 168.921C271.623 168.482 271.749 167.981 271.749 167.416C271.749 166.851 271.623 166.352 271.371 165.918C271.119 165.479 270.774 165.136 270.335 164.889C269.897 164.642 269.397 164.518 268.837 164.518C268.277 164.518 267.778 164.642 267.339 164.889C266.901 165.136 266.555 165.479 266.303 165.918C266.051 166.352 265.925 166.851 265.925 167.416C265.925 167.976 266.051 168.475 266.303 168.914C266.555 169.353 266.901 169.696 267.339 169.943C267.778 170.19 268.277 170.314 268.837 170.314ZM277.079 171.224C276.486 171.224 275.964 171.082 275.511 170.797C275.058 170.508 274.706 170.099 274.454 169.572L275 168.984C275.224 169.441 275.516 169.798 275.875 170.055C276.234 170.307 276.633 170.433 277.072 170.433C277.366 170.433 277.634 170.372 277.877 170.251C278.124 170.13 278.32 169.957 278.465 169.733C278.614 169.504 278.689 169.234 278.689 168.921C278.689 168.636 278.619 168.412 278.479 168.249C278.344 168.086 278.143 167.946 277.877 167.829C277.616 167.708 277.289 167.572 276.897 167.423C276.594 167.302 276.3 167.164 276.015 167.01C275.73 166.856 275.495 166.662 275.308 166.429C275.126 166.191 275.035 165.89 275.035 165.526C275.035 165.157 275.133 164.831 275.329 164.546C275.525 164.257 275.796 164.03 276.141 163.867C276.486 163.699 276.878 163.615 277.317 163.615C277.718 163.615 278.094 163.701 278.444 163.874C278.799 164.047 279.116 164.292 279.396 164.609L278.927 165.204C278.498 164.639 277.963 164.357 277.324 164.357C276.932 164.357 276.612 164.46 276.365 164.665C276.122 164.87 276.001 165.139 276.001 165.47C276.001 165.708 276.078 165.906 276.232 166.065C276.386 166.224 276.587 166.359 276.834 166.471C277.086 166.583 277.357 166.695 277.646 166.807C278.066 166.966 278.43 167.124 278.738 167.283C279.051 167.442 279.293 167.645 279.466 167.892C279.639 168.135 279.725 168.466 279.725 168.886C279.725 169.367 279.613 169.782 279.389 170.132C279.165 170.482 278.852 170.753 278.451 170.944C278.054 171.131 277.597 171.224 277.079 171.224ZM283.318 171.224C283.182 171.224 283.059 171.191 282.947 171.126C282.839 171.061 282.753 170.974 282.688 170.867C282.627 170.755 282.597 170.634 282.597 170.503C282.597 170.372 282.627 170.253 282.688 170.146C282.753 170.039 282.842 169.952 282.954 169.887C283.066 169.822 283.185 169.789 283.311 169.789C283.446 169.789 283.567 169.822 283.675 169.887C283.782 169.952 283.866 170.039 283.927 170.146C283.992 170.253 284.025 170.372 284.025 170.503C284.025 170.634 283.992 170.755 283.927 170.867C283.866 170.974 283.782 171.061 283.675 171.126C283.567 171.191 283.448 171.224 283.318 171.224Z" fill="black"/>
<rect x="129.25" y="82.25" width="114.5" height="19.5" rx="9.75" stroke="#C5D751" stroke-width="0.5"/>
<path d="M147.109 96V86.925H149.287C149.932 86.925 150.532 87.0405 151.085 87.2715C151.639 87.5025 152.123 87.8252 152.537 88.2395C152.955 88.6502 153.28 89.1323 153.511 89.686C153.745 90.236 153.863 90.83 153.863 91.468C153.863 92.106 153.747 92.7 153.516 93.25C153.285 93.8 152.961 94.2822 152.543 94.6965C152.128 95.1072 151.643 95.428 151.085 95.659C150.532 95.8863 149.932 96 149.287 96H147.109ZM148.225 94.999H149.177C149.672 94.999 150.132 94.911 150.557 94.735C150.983 94.5553 151.353 94.306 151.668 93.987C151.987 93.6643 152.235 93.2885 152.411 92.8595C152.587 92.4305 152.675 91.9648 152.675 91.4625C152.675 90.9602 152.587 90.4945 152.411 90.0655C152.235 89.6365 151.987 89.2625 151.668 88.9435C151.353 88.6245 150.983 88.3752 150.557 88.1955C150.132 88.0158 149.672 87.926 149.177 87.926H148.225V94.999ZM156.078 96V86.925H157.195V96H156.078ZM164.009 96.176C163.327 96.176 162.69 96.0568 162.1 95.8185C161.513 95.5765 160.998 95.2428 160.555 94.8175C160.115 94.3885 159.772 93.888 159.526 93.316C159.28 92.744 159.158 92.128 159.158 91.468C159.158 90.808 159.28 90.192 159.526 89.62C159.775 89.048 160.12 88.5493 160.56 88.124C161 87.695 161.513 87.3613 162.1 87.123C162.687 86.881 163.321 86.76 164.003 86.76C164.568 86.76 165.099 86.8425 165.598 87.0075C166.1 87.1688 166.539 87.3907 166.913 87.673L166.407 88.6135C166.106 88.3715 165.754 88.1863 165.351 88.058C164.947 87.926 164.522 87.86 164.075 87.86C163.536 87.86 163.041 87.9517 162.59 88.135C162.139 88.3183 161.746 88.575 161.413 88.905C161.083 89.2313 160.826 89.6145 160.643 90.0545C160.463 90.4908 160.373 90.962 160.373 91.468C160.373 91.974 160.463 92.447 160.643 92.887C160.826 93.3233 161.083 93.7065 161.413 94.0365C161.746 94.3628 162.139 94.6177 162.59 94.801C163.041 94.9843 163.536 95.076 164.075 95.076C164.522 95.076 164.947 95.0118 165.351 94.8835C165.754 94.7515 166.106 94.5645 166.407 94.3225L166.913 95.263C166.546 95.538 166.113 95.7598 165.615 95.9285C165.116 96.0935 164.581 96.176 164.009 96.176ZM168.733 96V86.925H169.849V96H168.733ZM172.664 96V86.925H175.238C175.832 86.925 176.349 87.0277 176.789 87.233C177.229 87.4383 177.57 87.7353 177.812 88.124C178.058 88.5127 178.181 88.9857 178.181 89.543C178.181 90.093 178.058 90.5733 177.812 90.984C177.57 91.391 177.229 91.7063 176.789 91.93C176.349 92.1537 175.832 92.2655 175.238 92.2655H173.781V96H172.664ZM173.781 91.347H174.936C175.347 91.347 175.708 91.2773 176.019 91.138C176.335 90.9987 176.58 90.797 176.756 90.533C176.936 90.269 177.026 89.9482 177.026 89.5705C177.026 89.1892 176.936 88.8702 176.756 88.6135C176.58 88.3532 176.335 88.157 176.019 88.025C175.708 87.893 175.347 87.827 174.936 87.827H173.781V91.347ZM180.27 96V86.925H181.386V95.0155H185.033V96H180.27ZM186.93 96V86.925H188.046V96H186.93ZM190.862 96V86.925H191.978L196.565 94.1135V86.925H197.682V96H196.565L191.978 88.817V96H190.862ZM199.54 96L203.132 86.925H204.171L207.763 96H206.558L205.552 93.3545H201.751L200.739 96H199.54ZM202.131 92.37H205.172L203.649 88.4155L202.131 92.37ZM209.617 96V86.925H211.795C212.441 86.925 213.04 87.0405 213.594 87.2715C214.148 87.5025 214.632 87.8252 215.046 88.2395C215.464 88.6502 215.788 89.1323 216.019 89.686C216.254 90.236 216.371 90.83 216.371 91.468C216.371 92.106 216.256 92.7 216.025 93.25C215.794 93.8 215.469 94.2822 215.051 94.6965C214.637 95.1072 214.151 95.428 213.594 95.659C213.04 95.8863 212.441 96 211.795 96H209.617ZM210.734 94.999H211.685C212.18 94.999 212.641 94.911 213.066 94.735C213.491 94.5553 213.862 94.306 214.177 93.987C214.496 93.6643 214.743 93.2885 214.919 92.8595C215.095 92.4305 215.183 91.9648 215.183 91.4625C215.183 90.9602 215.095 90.4945 214.919 90.0655C214.743 89.6365 214.496 89.2625 214.177 88.9435C213.862 88.6245 213.491 88.3752 213.066 88.1955C212.641 88.0158 212.18 87.926 211.685 87.926H210.734V94.999ZM217.63 96L221.222 86.925H222.261L225.853 96H224.648L223.642 93.3545H219.841L218.829 96H217.63ZM220.221 92.37H223.262L221.739 88.4155L220.221 92.37Z" fill="black"/>
<g filter="url(#filter1_d_1226_79)">
<path d="M184.723 81.5674C200.892 81.5674 214 69.2816 214 54.1263C214 38.9711 200.892 26.6853 184.723 26.6853C168.553 26.6853 155.445 38.9711 155.445 54.1263C155.445 69.2816 168.553 81.5674 184.723 81.5674Z" fill="#4EADAF"/>
<path d="M193.942 26.5826C194.425 26.2028 195.044 25.6968 195.316 24.8518C195.411 24.557 195.662 23.7755 195.273 23.3624C194.677 22.7292 192.742 23.1324 191.494 24.0065C190.778 24.5077 189.612 25.6369 189.218 26.0191C188.84 26.3852 188.494 26.7369 188.359 26.6632C188.176 26.5634 188.669 25.8514 188.745 24.8121C188.825 23.7285 188.408 22.9 187.972 22.0354C187.537 21.1709 187.134 20.3708 186.512 20.3437C186.138 20.3276 185.847 20.5987 185.567 20.8668C185.322 21.1016 184.818 21.6477 184.279 23.4433C184.006 24.3507 183.784 25.0925 183.678 26.1401C183.641 26.4935 183.613 26.9433 183.549 26.9453C183.427 26.9487 183.707 25.3191 182.817 24.1686C182.184 23.3483 181.214 23.1032 179.855 22.7597C178.912 22.5218 176.437 21.8966 175.861 22.7597C175.47 23.3456 176.117 24.374 176.29 24.6517C176.667 25.2522 177.14 25.5985 177.708 25.98C179.09 26.9097 179.781 27.3742 180.843 27.8311C183.176 28.8359 186.975 30.4727 190.462 29.0388C191.21 28.732 192.121 28.0159 193.942 26.5826Z" fill="#387777"/>
<path d="M196.495 28.8301C197.179 28.2926 198.056 27.5771 198.44 26.3811C198.574 25.9639 198.929 24.8584 198.379 24.2736C197.536 23.3779 194.798 23.9483 193.032 25.1848C192.018 25.8943 190.369 27.4918 189.811 28.0327C189.276 28.5507 188.787 29.0484 188.596 28.9439C188.337 28.8033 189.035 27.7955 189.144 26.3239C189.257 24.7909 188.667 23.6182 188.05 22.394C187.434 21.1699 186.862 20.0393 185.984 20.001C185.455 19.9783 185.043 20.3619 184.648 20.7414C184.301 21.0732 183.587 21.8459 182.825 24.3864C182.437 25.6715 182.122 26.7198 181.972 28.2034C181.921 28.7032 181.881 29.3402 181.789 29.3426C181.616 29.3477 182.013 27.0417 180.756 25.4127C179.86 24.252 178.488 23.9044 176.563 23.4193C175.228 23.0824 171.726 22.1976 170.911 23.4193C170.359 24.2479 171.272 25.7031 171.519 26.0963C172.053 26.9461 172.721 27.4356 173.525 27.9758C175.48 29.2908 176.458 29.9483 177.961 30.5958C181.261 32.0178 186.638 34.3323 191.572 32.3043C192.63 31.87 193.918 30.8567 196.495 28.8301Z" fill="#4EADAF"/>
<path d="M167.24 54.9329C173.466 54.6699 178.296 49.9519 178.029 44.3949C177.762 38.8378 172.498 34.5461 166.273 34.8091C160.047 35.072 155.217 39.79 155.484 45.3471C155.751 50.9041 161.014 55.1958 167.24 54.9329Z" fill="#E2E2E2"/>
<path d="M170.485 52.9246C174.74 52.7252 178.024 49.485 177.822 45.6874C177.619 41.8897 174.006 38.9728 169.751 39.1722C165.497 39.3716 162.212 42.6118 162.415 46.4094C162.617 50.207 166.23 53.124 170.485 52.9246Z" fill="black"/>
<path d="M168.152 41.8403C168.458 40.8666 167.203 39.6615 165.347 39.1488C163.492 38.636 161.74 39.0096 161.433 39.9833C161.127 40.957 162.383 42.162 164.238 42.6748C166.093 43.1876 167.846 42.814 168.152 41.8403Z" fill="white"/>
<path d="M202.364 54.2793C208.589 54.0164 213.424 49.3859 213.162 43.9369C212.9 38.4879 207.641 34.2837 201.415 34.5466C195.189 34.8096 190.355 39.44 190.617 44.8891C190.879 50.3381 196.138 54.5423 202.364 54.2793Z" fill="#E2E2E2"/>
<path d="M198.659 51.7767C202.909 51.5972 206.209 48.436 206.031 44.716C205.852 40.996 202.261 38.1258 198.011 38.3054C193.761 38.4849 190.46 41.646 190.639 45.366C190.818 49.0861 194.408 51.9562 198.659 51.7767Z" fill="black"/>
<path d="M204.21 42.6738C205.977 41.9377 207.059 40.6032 206.627 39.6931C206.195 38.783 204.413 38.6419 202.647 39.3779C200.881 40.114 199.799 41.4485 200.23 42.3586C200.662 43.2687 202.444 43.4099 204.21 42.6738Z" fill="white"/>
</g>
<defs>
<filter id="filter0_d_1226_79" x="0" y="0" width="357" height="252" filterUnits="userSpaceOnUse" color-interpolation-filters="sRGB">
<feFlood flood-opacity="0" result="BackgroundImageFix"/>
<feColorMatrix in="SourceAlpha" type="matrix" values="0 0 0 0 0 0 0 0 0 0 0 0 0 0 0 0 0 0 127 0" result="hardAlpha"/>
<feOffset dy="12"/>
<feGaussianBlur stdDeviation="12"/>
<feComposite in2="hardAlpha" operator="out"/>
<feColorMatrix type="matrix" values="0 0 0 0 0.486275 0 0 0 0 0.419608 0 0 0 0 0.686275 0 0 0 0.22 0"/>
<feBlend mode="normal" in2="BackgroundImageFix" result="effect1_dropShadow_1226_79"/>
<feBlend mode="normal" in="SourceGraphic" in2="effect1_dropShadow_1226_79" result="shape"/>
</filter>
<filter id="filter1_d_1226_79" x="155.445" y="16" width="66.5549" height="69.5674" filterUnits="userSpaceOnUse" color-interpolation-filters="sRGB">
<feFlood flood-opacity="0" result="BackgroundImageFix"/>
<feColorMatrix in="SourceAlpha" type="matrix" values="0 0 0 0 0 0 0 0 0 0 0 0 0 0 0 0 0 0 127 0" result="hardAlpha"/>
<feOffset dx="4"/>
<feGaussianBlur stdDeviation="2"/>
<feComposite in2="hardAlpha" operator="out"/>
<feColorMatrix type="matrix" values="0 0 0 0 0.870833 0 0 0 0 0.845434 0 0 0 0 0.845434 0 0 0 0.76 0"/>
<feBlend mode="normal" in2="BackgroundImageFix" result="effect1_dropShadow_1226_79"/>
<feBlend mode="normal" in="SourceGraphic" in2="effect1_dropShadow_1226_79" result="shape"/>
</filter>
</defs>
</svg>
