<svg width="284" height="362" viewBox="0 0 284 362" fill="none" xmlns="http://www.w3.org/2000/svg">
<g filter="url(#filter0_d_1202_168)">
<path d="M24 32C24 20.9543 32.9543 12 44 12H240C251.046 12 260 20.9543 260 32V306C260 317.046 251.046 326 240 326H44C32.9543 326 24 317.046 24 306V32Z" fill="white"/>
</g>
<rect x="102.25" y="123.25" width="87.5" height="29.5" rx="14.75" stroke="#C5D751" stroke-width="0.5"/>
<path d="M71.191 174V168.995L67.222 162.45H68.503L71.723 167.861L74.943 162.45H76.231L72.255 168.995V174H71.191ZM80.0894 174.224C79.4174 174.224 78.8107 174.061 78.2694 173.734C77.7327 173.403 77.3057 172.95 76.9884 172.376C76.6757 171.802 76.5194 171.146 76.5194 170.409C76.5194 169.681 76.6734 169.032 76.9814 168.463C77.2941 167.889 77.7187 167.436 78.2554 167.105C78.7967 166.774 79.4081 166.608 80.0894 166.608C80.7381 166.608 81.3261 166.76 81.8534 167.063C82.3807 167.366 82.7821 167.786 83.0574 168.323V166.832H84.0794V174H83.0574V172.488C82.7494 173.029 82.3364 173.454 81.8184 173.762C81.3004 174.07 80.7241 174.224 80.0894 174.224ZM80.3414 173.335C80.8781 173.335 81.3517 173.211 81.7624 172.964C82.1777 172.712 82.5044 172.367 82.7424 171.928C82.9804 171.485 83.0994 170.981 83.0994 170.416C83.0994 169.847 82.9804 169.343 82.7424 168.904C82.5091 168.465 82.1847 168.122 81.7694 167.875C81.3541 167.623 80.8781 167.497 80.3414 167.497C79.8047 167.497 79.3287 167.623 78.9134 167.875C78.4981 168.122 78.1714 168.465 77.9334 168.904C77.6954 169.343 77.5764 169.847 77.5764 170.416C77.5764 170.981 77.6954 171.485 77.9334 171.928C78.1714 172.367 78.4981 172.712 78.9134 172.964C79.3287 173.211 79.8047 173.335 80.3414 173.335ZM96.7156 177.64V172.488C96.4076 173.029 95.9946 173.454 95.4766 173.762C94.9586 174.07 94.3846 174.224 93.7546 174.224C93.0686 174.224 92.4573 174.058 91.9206 173.727C91.3839 173.396 90.9593 172.943 90.6466 172.369C90.3339 171.79 90.1776 171.139 90.1776 170.416C90.1776 169.683 90.3339 169.032 90.6466 168.463C90.9593 167.889 91.3863 167.436 91.9276 167.105C92.4689 166.774 93.0849 166.608 93.7756 166.608C94.4056 166.608 94.9796 166.76 95.4976 167.063C96.0156 167.366 96.4216 167.786 96.7156 168.323V166.832H97.7376V177.64H96.7156ZM93.9926 173.335C94.5293 173.335 95.0053 173.211 95.4206 172.964C95.8359 172.712 96.1626 172.367 96.4006 171.928C96.6386 171.485 96.7576 170.981 96.7576 170.416C96.7576 169.847 96.6386 169.343 96.4006 168.904C96.1673 168.465 95.8406 168.122 95.4206 167.875C95.0053 167.623 94.5293 167.497 93.9926 167.497C93.4606 167.497 92.9869 167.623 92.5716 167.875C92.1563 168.122 91.8296 168.465 91.5916 168.904C91.3536 169.343 91.2346 169.847 91.2346 170.416C91.2346 170.981 91.3513 171.482 91.5846 171.921C91.8226 172.36 92.1493 172.705 92.5646 172.957C92.9846 173.209 93.4606 173.335 93.9926 173.335ZM103.649 174.224C102.562 174.224 101.785 173.979 101.318 173.489C100.851 172.999 100.618 172.18 100.618 171.032V166.832H101.64V170.85C101.64 171.755 101.794 172.402 102.102 172.789C102.41 173.172 102.926 173.363 103.649 173.363C104.377 173.363 104.893 173.172 105.196 172.789C105.504 172.402 105.658 171.755 105.658 170.85V166.832H106.68V171.032C106.68 172.18 106.447 172.999 105.98 173.489C105.518 173.979 104.741 174.224 103.649 174.224ZM112.929 174.224C112.178 174.224 111.506 174.058 110.913 173.727C110.325 173.396 109.863 172.945 109.527 172.376C109.191 171.802 109.023 171.158 109.023 170.444C109.023 169.907 109.119 169.408 109.31 168.946C109.506 168.479 109.777 168.071 110.122 167.721C110.468 167.371 110.869 167.098 111.326 166.902C111.784 166.706 112.271 166.608 112.789 166.608C113.499 166.608 114.129 166.764 114.679 167.077C115.235 167.385 115.673 167.812 115.995 168.358C116.322 168.904 116.495 169.534 116.513 170.248C116.513 170.304 116.511 170.351 116.506 170.388C116.506 170.421 116.502 170.463 116.492 170.514H110.038C110.038 171.074 110.164 171.569 110.416 171.998C110.668 172.427 111.014 172.766 111.452 173.013C111.896 173.256 112.402 173.377 112.971 173.377C113.513 173.377 113.998 173.265 114.427 173.041C114.861 172.812 115.223 172.486 115.512 172.061L116.268 172.467C115.928 173.022 115.463 173.454 114.875 173.762C114.292 174.07 113.643 174.224 112.929 174.224ZM110.094 169.744H115.491C115.431 169.296 115.274 168.902 115.022 168.561C114.77 168.216 114.451 167.945 114.063 167.749C113.681 167.553 113.261 167.455 112.803 167.455C112.332 167.455 111.903 167.553 111.515 167.749C111.128 167.94 110.808 168.209 110.556 168.554C110.309 168.895 110.155 169.291 110.094 169.744ZM124.379 174.224C123.786 174.224 123.263 174.082 122.811 173.797C122.358 173.508 122.006 173.099 121.754 172.572L122.3 171.984C122.524 172.441 122.815 172.798 123.175 173.055C123.534 173.307 123.933 173.433 124.372 173.433C124.666 173.433 124.934 173.372 125.177 173.251C125.424 173.13 125.62 172.957 125.765 172.733C125.914 172.504 125.989 172.234 125.989 171.921C125.989 171.636 125.919 171.412 125.779 171.249C125.643 171.086 125.443 170.946 125.177 170.829C124.915 170.708 124.589 170.572 124.197 170.423C123.893 170.302 123.599 170.164 123.315 170.01C123.03 169.856 122.794 169.662 122.608 169.429C122.426 169.191 122.335 168.89 122.335 168.526C122.335 168.157 122.433 167.831 122.629 167.546C122.825 167.257 123.095 167.03 123.441 166.867C123.786 166.699 124.178 166.615 124.617 166.615C125.018 166.615 125.394 166.701 125.744 166.874C126.098 167.047 126.416 167.292 126.696 167.609L126.227 168.204C125.797 167.639 125.263 167.357 124.624 167.357C124.232 167.357 123.912 167.46 123.665 167.665C123.422 167.87 123.301 168.139 123.301 168.47C123.301 168.708 123.378 168.906 123.532 169.065C123.686 169.224 123.886 169.359 124.134 169.471C124.386 169.583 124.656 169.695 124.946 169.807C125.366 169.966 125.73 170.124 126.038 170.283C126.35 170.442 126.593 170.645 126.766 170.892C126.938 171.135 127.025 171.466 127.025 171.886C127.025 172.367 126.913 172.782 126.689 173.132C126.465 173.482 126.152 173.753 125.751 173.944C125.354 174.131 124.897 174.224 124.379 174.224ZM132.346 174.224C131.259 174.224 130.482 173.979 130.015 173.489C129.549 172.999 129.315 172.18 129.315 171.032V166.832H130.337V170.85C130.337 171.755 130.491 172.402 130.799 172.789C131.107 173.172 131.623 173.363 132.346 173.363C133.074 173.363 133.59 173.172 133.893 172.789C134.201 172.402 134.355 171.755 134.355 170.85V166.832H135.377V171.032C135.377 172.18 135.144 172.999 134.677 173.489C134.215 173.979 133.438 174.224 132.346 174.224ZM144.202 174L140.723 166.832H141.92L144.538 172.544L147.163 166.832H148.36L144.874 174H144.202ZM150.305 174V166.832H151.327V174H150.305ZM150.823 165.397C150.697 165.397 150.582 165.367 150.48 165.306C150.382 165.245 150.302 165.164 150.242 165.061C150.181 164.958 150.151 164.846 150.151 164.725C150.151 164.604 150.181 164.494 150.242 164.396C150.302 164.293 150.382 164.212 150.48 164.151C150.582 164.09 150.697 164.06 150.823 164.06C150.944 164.06 151.054 164.09 151.152 164.151C151.25 164.212 151.329 164.291 151.39 164.389C151.455 164.487 151.488 164.599 151.488 164.725C151.488 164.846 151.455 164.958 151.39 165.061C151.329 165.164 151.25 165.245 151.152 165.306C151.054 165.367 150.944 165.397 150.823 165.397ZM157.404 174.224C156.732 174.224 156.125 174.061 155.584 173.734C155.047 173.407 154.62 172.957 154.303 172.383C153.99 171.809 153.834 171.153 153.834 170.416C153.834 169.683 153.99 169.032 154.303 168.463C154.616 167.889 155.04 167.436 155.577 167.105C156.118 166.774 156.732 166.608 157.418 166.608C158.057 166.608 158.636 166.76 159.154 167.063C159.672 167.366 160.078 167.786 160.372 168.323V161.953H161.394V174H160.372V172.488C160.069 173.029 159.656 173.454 159.133 173.762C158.615 174.07 158.039 174.224 157.404 174.224ZM157.649 173.335C158.186 173.335 158.662 173.211 159.077 172.964C159.492 172.712 159.819 172.367 160.057 171.928C160.295 171.485 160.414 170.983 160.414 170.423C160.414 169.854 160.295 169.35 160.057 168.911C159.824 168.468 159.497 168.122 159.077 167.875C158.662 167.623 158.186 167.497 157.649 167.497C157.117 167.497 156.643 167.623 156.228 167.875C155.813 168.122 155.486 168.468 155.248 168.911C155.01 169.35 154.891 169.854 154.891 170.423C154.891 170.988 155.008 171.489 155.241 171.928C155.479 172.367 155.806 172.712 156.221 172.964C156.641 173.211 157.117 173.335 157.649 173.335ZM167.466 174.224C166.794 174.224 166.188 174.061 165.646 173.734C165.11 173.403 164.683 172.95 164.365 172.376C164.053 171.802 163.896 171.146 163.896 170.409C163.896 169.681 164.05 169.032 164.358 168.463C164.671 167.889 165.096 167.436 165.632 167.105C166.174 166.774 166.785 166.608 167.466 166.608C168.115 166.608 168.703 166.76 169.23 167.063C169.758 167.366 170.159 167.786 170.434 168.323V166.832H171.456V174H170.434V172.488C170.126 173.029 169.713 173.454 169.195 173.762C168.677 174.07 168.101 174.224 167.466 174.224ZM167.718 173.335C168.255 173.335 168.729 173.211 169.139 172.964C169.555 172.712 169.881 172.367 170.119 171.928C170.357 171.485 170.476 170.981 170.476 170.416C170.476 169.847 170.357 169.343 170.119 168.904C169.886 168.465 169.562 168.122 169.146 167.875C168.731 167.623 168.255 167.497 167.718 167.497C167.182 167.497 166.706 167.623 166.29 167.875C165.875 168.122 165.548 168.465 165.31 168.904C165.072 169.343 164.953 169.847 164.953 170.416C164.953 170.981 165.072 171.485 165.31 171.928C165.548 172.367 165.875 172.712 166.29 172.964C166.706 173.211 167.182 173.335 167.718 173.335ZM179.928 174.224C179.335 174.224 178.812 174.082 178.36 173.797C177.907 173.508 177.555 173.099 177.303 172.572L177.849 171.984C178.073 172.441 178.364 172.798 178.724 173.055C179.083 173.307 179.482 173.433 179.921 173.433C180.215 173.433 180.483 173.372 180.726 173.251C180.973 173.13 181.169 172.957 181.314 172.733C181.463 172.504 181.538 172.234 181.538 171.921C181.538 171.636 181.468 171.412 181.328 171.249C181.192 171.086 180.992 170.946 180.726 170.829C180.464 170.708 180.138 170.572 179.746 170.423C179.442 170.302 179.148 170.164 178.864 170.01C178.579 169.856 178.343 169.662 178.157 169.429C177.975 169.191 177.884 168.89 177.884 168.526C177.884 168.157 177.982 167.831 178.178 167.546C178.374 167.257 178.644 167.03 178.99 166.867C179.335 166.699 179.727 166.615 180.166 166.615C180.567 166.615 180.943 166.701 181.293 166.874C181.647 167.047 181.965 167.292 182.245 167.609L181.776 168.204C181.346 167.639 180.812 167.357 180.173 167.357C179.781 167.357 179.461 167.46 179.214 167.665C178.971 167.87 178.85 168.139 178.85 168.47C178.85 168.708 178.927 168.906 179.081 169.065C179.235 169.224 179.435 169.359 179.683 169.471C179.935 169.583 180.205 169.695 180.495 169.807C180.915 169.966 181.279 170.124 181.587 170.283C181.899 170.442 182.142 170.645 182.315 170.892C182.487 171.135 182.574 171.466 182.574 171.886C182.574 172.367 182.462 172.782 182.238 173.132C182.014 173.482 181.701 173.753 181.3 173.944C180.903 174.131 180.446 174.224 179.928 174.224ZM187.895 174.224C186.808 174.224 186.031 173.979 185.564 173.489C185.098 172.999 184.864 172.18 184.864 171.032V166.832H185.886V170.85C185.886 171.755 186.04 172.402 186.348 172.789C186.656 173.172 187.172 173.363 187.895 173.363C188.623 173.363 189.139 173.172 189.442 172.789C189.75 172.402 189.904 171.755 189.904 170.85V166.832H190.926V171.032C190.926 172.18 190.693 172.999 190.226 173.489C189.764 173.979 188.987 174.224 187.895 174.224ZM193.816 174V166.832H194.838V167.889C195.066 167.469 195.36 167.152 195.72 166.937C196.084 166.718 196.504 166.608 196.98 166.608C197.19 166.608 197.402 166.631 197.617 166.678C197.836 166.725 198.025 166.785 198.184 166.86L197.764 167.721C197.624 167.651 197.463 167.597 197.281 167.56C197.103 167.523 196.933 167.504 196.77 167.504C196.438 167.504 196.126 167.588 195.832 167.756C195.538 167.924 195.297 168.143 195.111 168.414C194.929 168.68 194.838 168.965 194.838 169.268V174H193.816ZM203.118 177.85C202.213 177.85 201.448 177.673 200.822 177.318C200.197 176.963 199.733 176.445 199.429 175.764L200.29 175.365C200.51 175.86 200.874 176.252 201.382 176.541C201.891 176.835 202.47 176.982 203.118 176.982C203.664 176.982 204.152 176.872 204.581 176.653C205.015 176.438 205.356 176.126 205.603 175.715C205.855 175.304 205.981 174.812 205.981 174.238V172.488C205.683 173.029 205.272 173.454 204.749 173.762C204.231 174.07 203.653 174.224 203.013 174.224C202.346 174.224 201.742 174.061 201.2 173.734C200.664 173.407 200.237 172.957 199.919 172.383C199.607 171.809 199.45 171.153 199.45 170.416C199.45 169.683 199.607 169.032 199.919 168.463C200.232 167.889 200.657 167.436 201.193 167.105C201.735 166.774 202.348 166.608 203.034 166.608C203.669 166.608 204.245 166.76 204.763 167.063C205.286 167.366 205.692 167.786 205.981 168.323V166.832H207.003V174.196C207.003 174.989 206.847 175.657 206.534 176.198C206.222 176.744 205.774 177.155 205.19 177.43C204.612 177.71 203.921 177.85 203.118 177.85ZM203.258 173.335C203.8 173.335 204.278 173.211 204.693 172.964C205.109 172.712 205.435 172.367 205.673 171.928C205.911 171.485 206.03 170.983 206.03 170.423C206.03 169.854 205.911 169.35 205.673 168.911C205.435 168.468 205.109 168.122 204.693 167.875C204.278 167.623 203.802 167.497 203.265 167.497C202.729 167.497 202.253 167.623 201.837 167.875C201.422 168.122 201.095 168.468 200.857 168.911C200.619 169.35 200.5 169.854 200.5 170.423C200.5 170.983 200.617 171.485 200.85 171.928C201.088 172.367 201.415 172.712 201.83 172.964C202.25 173.211 202.726 173.335 203.258 173.335ZM213.308 174.224C212.557 174.224 211.885 174.058 211.292 173.727C210.704 173.396 210.242 172.945 209.906 172.376C209.57 171.802 209.402 171.158 209.402 170.444C209.402 169.907 209.498 169.408 209.689 168.946C209.885 168.479 210.156 168.071 210.501 167.721C210.847 167.371 211.248 167.098 211.705 166.902C212.163 166.706 212.65 166.608 213.168 166.608C213.878 166.608 214.508 166.764 215.058 167.077C215.614 167.385 216.052 167.812 216.374 168.358C216.701 168.904 216.874 169.534 216.892 170.248C216.892 170.304 216.89 170.351 216.885 170.388C216.885 170.421 216.881 170.463 216.871 170.514H210.417C210.417 171.074 210.543 171.569 210.795 171.998C211.047 172.427 211.393 172.766 211.831 173.013C212.275 173.256 212.781 173.377 213.35 173.377C213.892 173.377 214.377 173.265 214.806 173.041C215.24 172.812 215.602 172.486 215.891 172.061L216.647 172.467C216.307 173.022 215.842 173.454 215.254 173.762C214.671 174.07 214.022 174.224 213.308 174.224ZM210.473 169.744H215.87C215.81 169.296 215.653 168.902 215.401 168.561C215.149 168.216 214.83 167.945 214.442 167.749C214.06 167.553 213.64 167.455 213.182 167.455C212.711 167.455 212.282 167.553 211.894 167.749C211.507 167.94 211.187 168.209 210.935 168.554C210.688 168.895 210.534 169.291 210.473 169.744ZM67.0626 193.85C66.1572 193.85 65.3919 193.673 64.7666 193.318C64.1412 192.963 63.6769 192.445 63.3736 191.764L64.2346 191.365C64.4539 191.86 64.8179 192.252 65.3266 192.541C65.8352 192.835 66.4139 192.982 67.0626 192.982C67.6086 192.982 68.0962 192.872 68.5256 192.653C68.9596 192.438 69.3002 192.126 69.5476 191.715C69.7996 191.304 69.9256 190.812 69.9256 190.238V188.488C69.6269 189.029 69.2162 189.454 68.6936 189.762C68.1756 190.07 67.5969 190.224 66.9576 190.224C66.2902 190.224 65.6859 190.061 65.1446 189.734C64.6079 189.407 64.1809 188.957 63.8636 188.383C63.5509 187.809 63.3946 187.153 63.3946 186.416C63.3946 185.683 63.5509 185.032 63.8636 184.463C64.1762 183.889 64.6009 183.436 65.1376 183.105C65.6789 182.774 66.2926 182.608 66.9786 182.608C67.6132 182.608 68.1896 182.76 68.7076 183.063C69.2302 183.366 69.6362 183.786 69.9256 184.323V182.832H70.9476V190.196C70.9476 190.989 70.7912 191.657 70.4786 192.198C70.1659 192.744 69.7179 193.155 69.1346 193.43C68.5559 193.71 67.8652 193.85 67.0626 193.85ZM67.2026 189.335C67.7439 189.335 68.2222 189.211 68.6376 188.964C69.0529 188.712 69.3796 188.367 69.6176 187.928C69.8556 187.485 69.9746 186.983 69.9746 186.423C69.9746 185.854 69.8556 185.35 69.6176 184.911C69.3796 184.468 69.0529 184.122 68.6376 183.875C68.2222 183.623 67.7462 183.497 67.2096 183.497C66.6729 183.497 66.1969 183.623 65.7816 183.875C65.3662 184.122 65.0396 184.468 64.8016 184.911C64.5636 185.35 64.4446 185.854 64.4446 186.423C64.4446 186.983 64.5612 187.485 64.7946 187.928C65.0326 188.367 65.3592 188.712 65.7746 188.964C66.1946 189.211 66.6706 189.335 67.2026 189.335ZM73.9611 190V182.832H74.9831V183.889C75.2117 183.469 75.5057 183.152 75.8651 182.937C76.2291 182.718 76.6491 182.608 77.1251 182.608C77.3351 182.608 77.5474 182.631 77.7621 182.678C77.9814 182.725 78.1704 182.785 78.3291 182.86L77.9091 183.721C77.7691 183.651 77.6081 183.597 77.4261 183.56C77.2487 183.523 77.0784 183.504 76.9151 183.504C76.5837 183.504 76.2711 183.588 75.9771 183.756C75.6831 183.924 75.4427 184.143 75.2561 184.414C75.0741 184.68 74.9831 184.965 74.9831 185.268V190H73.9611ZM83.1587 190.224C82.4867 190.224 81.8801 190.061 81.3387 189.734C80.8021 189.403 80.3751 188.95 80.0577 188.376C79.7451 187.802 79.5887 187.146 79.5887 186.409C79.5887 185.681 79.7427 185.032 80.0507 184.463C80.3634 183.889 80.7881 183.436 81.3247 183.105C81.8661 182.774 82.4774 182.608 83.1587 182.608C83.8074 182.608 84.3954 182.76 84.9227 183.063C85.4501 183.366 85.8514 183.786 86.1267 184.323V182.832H87.1487V190H86.1267V188.488C85.8187 189.029 85.4057 189.454 84.8877 189.762C84.3697 190.07 83.7934 190.224 83.1587 190.224ZM83.4107 189.335C83.9474 189.335 84.4211 189.211 84.8317 188.964C85.2471 188.712 85.5737 188.367 85.8117 187.928C86.0497 187.485 86.1687 186.981 86.1687 186.416C86.1687 185.847 86.0497 185.343 85.8117 184.904C85.5784 184.465 85.2541 184.122 84.8387 183.875C84.4234 183.623 83.9474 183.497 83.4107 183.497C82.8741 183.497 82.3981 183.623 81.9827 183.875C81.5674 184.122 81.2407 184.465 81.0027 184.904C80.7647 185.343 80.6457 185.847 80.6457 186.416C80.6457 186.981 80.7647 187.485 81.0027 187.928C81.2407 188.367 81.5674 188.712 81.9827 188.964C82.3981 189.211 82.8741 189.335 83.4107 189.335ZM93.4942 190.224C92.9576 190.224 92.4536 190.131 91.9822 189.944C91.5109 189.753 91.0979 189.484 90.7432 189.139C90.3886 188.794 90.1109 188.39 89.9102 187.928C89.7096 187.466 89.6092 186.962 89.6092 186.416C89.6092 185.875 89.7072 185.373 89.9032 184.911C90.0992 184.449 90.3722 184.045 90.7222 183.7C91.0769 183.355 91.4899 183.086 91.9612 182.895C92.4326 182.704 92.9436 182.608 93.4942 182.608C93.9656 182.608 94.4136 182.678 94.8382 182.818C95.2629 182.958 95.6292 183.152 95.9372 183.399L95.5172 184.085C94.9946 183.679 94.3599 183.476 93.6132 183.476C93.0252 183.476 92.5072 183.607 92.0592 183.868C91.6159 184.125 91.2706 184.477 91.0232 184.925C90.7759 185.368 90.6522 185.865 90.6522 186.416C90.6522 186.971 90.7782 187.473 91.0302 187.921C91.2822 188.364 91.6322 188.714 92.0802 188.971C92.5282 189.228 93.0416 189.356 93.6202 189.356C93.9842 189.356 94.3272 189.305 94.6492 189.202C94.9759 189.095 95.2629 188.943 95.5102 188.747L95.9372 189.433C95.6246 189.676 95.2582 189.867 94.8382 190.007C94.4182 190.152 93.9702 190.224 93.4942 190.224ZM98.1259 190V182.832H99.1479V190H98.1259ZM98.6439 181.397C98.5179 181.397 98.4036 181.367 98.3009 181.306C98.2029 181.245 98.1236 181.164 98.0629 181.061C98.0023 180.958 97.9719 180.846 97.9719 180.725C97.9719 180.604 98.0023 180.494 98.0629 180.396C98.1236 180.293 98.2029 180.212 98.3009 180.151C98.4036 180.09 98.5179 180.06 98.6439 180.06C98.7653 180.06 98.8749 180.09 98.9729 180.151C99.0709 180.212 99.1503 180.291 99.2109 180.389C99.2763 180.487 99.3089 180.599 99.3089 180.725C99.3089 180.846 99.2763 180.958 99.2109 181.061C99.1503 181.164 99.0709 181.245 98.9729 181.306C98.8749 181.367 98.7653 181.397 98.6439 181.397ZM105.225 190.224C104.553 190.224 103.946 190.061 103.405 189.734C102.868 189.403 102.441 188.95 102.124 188.376C101.811 187.802 101.655 187.146 101.655 186.409C101.655 185.681 101.809 185.032 102.117 184.463C102.43 183.889 102.854 183.436 103.391 183.105C103.932 182.774 104.544 182.608 105.225 182.608C105.874 182.608 106.462 182.76 106.989 183.063C107.516 183.366 107.918 183.786 108.193 184.323V182.832H109.215V190H108.193V188.488C107.885 189.029 107.472 189.454 106.954 189.762C106.436 190.07 105.86 190.224 105.225 190.224ZM105.477 189.335C106.014 189.335 106.487 189.211 106.898 188.964C107.313 188.712 107.64 188.367 107.878 187.928C108.116 187.485 108.235 186.981 108.235 186.416C108.235 185.847 108.116 185.343 107.878 184.904C107.645 184.465 107.32 184.122 106.905 183.875C106.49 183.623 106.014 183.497 105.477 183.497C104.94 183.497 104.464 183.623 104.049 183.875C103.634 184.122 103.307 184.465 103.069 184.904C102.831 185.343 102.712 185.847 102.712 186.416C102.712 186.981 102.831 187.485 103.069 187.928C103.307 188.367 103.634 188.712 104.049 188.964C104.464 189.211 104.94 189.335 105.477 189.335ZM114.036 190.224C113.443 190.224 112.921 190.082 112.468 189.797C112.015 189.508 111.663 189.099 111.411 188.572L111.957 187.984C112.181 188.441 112.473 188.798 112.832 189.055C113.191 189.307 113.59 189.433 114.029 189.433C114.323 189.433 114.591 189.372 114.834 189.251C115.081 189.13 115.277 188.957 115.422 188.733C115.571 188.504 115.646 188.234 115.646 187.921C115.646 187.636 115.576 187.412 115.436 187.249C115.301 187.086 115.1 186.946 114.834 186.829C114.573 186.708 114.246 186.572 113.854 186.423C113.551 186.302 113.257 186.164 112.972 186.01C112.687 185.856 112.452 185.662 112.265 185.429C112.083 185.191 111.992 184.89 111.992 184.526C111.992 184.157 112.09 183.831 112.286 183.546C112.482 183.257 112.753 183.03 113.098 182.867C113.443 182.699 113.835 182.615 114.274 182.615C114.675 182.615 115.051 182.701 115.401 182.874C115.756 183.047 116.073 183.292 116.353 183.609L115.884 184.204C115.455 183.639 114.92 183.357 114.281 183.357C113.889 183.357 113.569 183.46 113.322 183.665C113.079 183.87 112.958 184.139 112.958 184.47C112.958 184.708 113.035 184.906 113.189 185.065C113.343 185.224 113.544 185.359 113.791 185.471C114.043 185.583 114.314 185.695 114.603 185.807C115.023 185.966 115.387 186.124 115.695 186.283C116.008 186.442 116.25 186.645 116.423 186.892C116.596 187.135 116.682 187.466 116.682 187.886C116.682 188.367 116.57 188.782 116.346 189.132C116.122 189.482 115.809 189.753 115.408 189.944C115.011 190.131 114.554 190.224 114.036 190.224ZM125.76 190.224C125.088 190.224 124.482 190.061 123.94 189.734C123.404 189.403 122.977 188.95 122.659 188.376C122.347 187.802 122.19 187.146 122.19 186.409C122.19 185.681 122.344 185.032 122.652 184.463C122.965 183.889 123.39 183.436 123.926 183.105C124.468 182.774 125.079 182.608 125.76 182.608C126.409 182.608 126.997 182.76 127.524 183.063C128.052 183.366 128.453 183.786 128.728 184.323V182.832H129.75V190H128.728V188.488C128.42 189.029 128.007 189.454 127.489 189.762C126.971 190.07 126.395 190.224 125.76 190.224ZM126.012 189.335C126.549 189.335 127.023 189.211 127.433 188.964C127.849 188.712 128.175 188.367 128.413 187.928C128.651 187.485 128.77 186.981 128.77 186.416C128.77 185.847 128.651 185.343 128.413 184.904C128.18 184.465 127.856 184.122 127.44 183.875C127.025 183.623 126.549 183.497 126.012 183.497C125.476 183.497 125 183.623 124.584 183.875C124.169 184.122 123.842 184.465 123.604 184.904C123.366 185.343 123.247 185.847 123.247 186.416C123.247 186.981 123.366 187.485 123.604 187.928C123.842 188.367 124.169 188.712 124.584 188.964C125 189.211 125.476 189.335 126.012 189.335ZM139.257 190.224C138.17 190.224 137.393 189.979 136.926 189.489C136.46 188.999 136.226 188.18 136.226 187.032V182.832H137.248V186.85C137.248 187.755 137.402 188.402 137.71 188.789C138.018 189.172 138.534 189.363 139.257 189.363C139.985 189.363 140.501 189.172 140.804 188.789C141.112 188.402 141.266 187.755 141.266 186.85V182.832H142.288V187.032C142.288 188.18 142.055 188.999 141.588 189.489C141.126 189.979 140.349 190.224 139.257 190.224ZM145.178 190V182.832H146.2V183.812C146.396 183.476 146.699 183.191 147.11 182.958C147.521 182.725 148.022 182.608 148.615 182.608C149.17 182.608 149.649 182.722 150.05 182.951C150.451 183.18 150.759 183.513 150.974 183.952C151.189 184.386 151.296 184.911 151.296 185.527V190H150.274V185.723C150.274 184.981 150.101 184.416 149.756 184.029C149.411 183.637 148.923 183.441 148.293 183.441C147.854 183.441 147.479 183.53 147.166 183.707C146.858 183.88 146.62 184.111 146.452 184.4C146.284 184.685 146.2 184.995 146.2 185.331V190H145.178ZM157.233 190.224C156.561 190.224 155.954 190.061 155.413 189.734C154.876 189.403 154.449 188.95 154.132 188.376C153.819 187.802 153.663 187.146 153.663 186.409C153.663 185.681 153.817 185.032 154.125 184.463C154.438 183.889 154.862 183.436 155.399 183.105C155.94 182.774 156.552 182.608 157.233 182.608C157.882 182.608 158.47 182.76 158.997 183.063C159.524 183.366 159.926 183.786 160.201 184.323V182.832H161.223V190H160.201V188.488C159.893 189.029 159.48 189.454 158.962 189.762C158.444 190.07 157.868 190.224 157.233 190.224ZM157.485 189.335C158.022 189.335 158.495 189.211 158.906 188.964C159.321 188.712 159.648 188.367 159.886 187.928C160.124 187.485 160.243 186.981 160.243 186.416C160.243 185.847 160.124 185.343 159.886 184.904C159.653 184.465 159.328 184.122 158.913 183.875C158.498 183.623 158.022 183.497 157.485 183.497C156.948 183.497 156.472 183.623 156.057 183.875C155.642 184.122 155.315 184.465 155.077 184.904C154.839 185.343 154.72 185.847 154.72 186.416C154.72 186.981 154.839 187.485 155.077 187.928C155.315 188.367 155.642 188.712 156.057 188.964C156.472 189.211 156.948 189.335 157.485 189.335ZM167.832 193.64V182.832H168.854V184.316C169.143 183.779 169.547 183.362 170.065 183.063C170.588 182.76 171.166 182.608 171.801 182.608C172.487 182.608 173.101 182.774 173.642 183.105C174.183 183.436 174.61 183.889 174.923 184.463C175.236 185.032 175.392 185.683 175.392 186.416C175.392 187.139 175.236 187.79 174.923 188.369C174.615 188.943 174.19 189.396 173.649 189.727C173.112 190.058 172.501 190.224 171.815 190.224C171.19 190.224 170.616 190.07 170.093 189.762C169.57 189.454 169.157 189.029 168.854 188.488V193.64H167.832ZM171.577 189.335C172.114 189.335 172.59 189.211 173.005 188.964C173.42 188.712 173.745 188.367 173.978 187.928C174.216 187.489 174.335 186.988 174.335 186.423C174.335 185.854 174.216 185.35 173.978 184.911C173.74 184.468 173.413 184.122 172.998 183.875C172.587 183.623 172.114 183.497 171.577 183.497C171.04 183.497 170.564 183.623 170.149 183.875C169.734 184.122 169.407 184.465 169.169 184.904C168.931 185.343 168.812 185.847 168.812 186.416C168.812 186.981 168.931 187.485 169.169 187.928C169.407 188.367 169.734 188.712 170.149 188.964C170.569 189.211 171.045 189.335 171.577 189.335ZM180.954 190.224C180.282 190.224 179.675 190.061 179.134 189.734C178.597 189.403 178.17 188.95 177.853 188.376C177.54 187.802 177.384 187.146 177.384 186.409C177.384 185.681 177.538 185.032 177.846 184.463C178.158 183.889 178.583 183.436 179.12 183.105C179.661 182.774 180.272 182.608 180.954 182.608C181.602 182.608 182.19 182.76 182.718 183.063C183.245 183.366 183.646 183.786 183.922 184.323V182.832H184.944V190H183.922V188.488C183.614 189.029 183.201 189.454 182.683 189.762C182.165 190.07 181.588 190.224 180.954 190.224ZM181.206 189.335C181.742 189.335 182.216 189.211 182.627 188.964C183.042 188.712 183.369 188.367 183.607 187.928C183.845 187.485 183.964 186.981 183.964 186.416C183.964 185.847 183.845 185.343 183.607 184.904C183.373 184.465 183.049 184.122 182.634 183.875C182.218 183.623 181.742 183.497 181.206 183.497C180.669 183.497 180.193 183.623 179.778 183.875C179.362 184.122 179.036 184.465 178.798 184.904C178.56 185.343 178.441 185.847 178.441 186.416C178.441 186.981 178.56 187.485 178.798 187.928C179.036 188.367 179.362 188.712 179.778 188.964C180.193 189.211 180.669 189.335 181.206 189.335ZM191.121 193.85C190.216 193.85 189.45 193.673 188.825 193.318C188.2 192.963 187.735 192.445 187.432 191.764L188.293 191.365C188.512 191.86 188.876 192.252 189.385 192.541C189.894 192.835 190.472 192.982 191.121 192.982C191.667 192.982 192.155 192.872 192.584 192.653C193.018 192.438 193.359 192.126 193.606 191.715C193.858 191.304 193.984 190.812 193.984 190.238V188.488C193.685 189.029 193.275 189.454 192.752 189.762C192.234 190.07 191.655 190.224 191.016 190.224C190.349 190.224 189.744 190.061 189.203 189.734C188.666 189.407 188.239 188.957 187.922 188.383C187.609 187.809 187.453 187.153 187.453 186.416C187.453 185.683 187.609 185.032 187.922 184.463C188.235 183.889 188.659 183.436 189.196 183.105C189.737 182.774 190.351 182.608 191.037 182.608C191.672 182.608 192.248 182.76 192.766 183.063C193.289 183.366 193.695 183.786 193.984 184.323V182.832H195.006V190.196C195.006 190.989 194.85 191.657 194.537 192.198C194.224 192.744 193.776 193.155 193.193 193.43C192.614 193.71 191.924 193.85 191.121 193.85ZM191.261 189.335C191.802 189.335 192.281 189.211 192.696 188.964C193.111 188.712 193.438 188.367 193.676 187.928C193.914 187.485 194.033 186.983 194.033 186.423C194.033 185.854 193.914 185.35 193.676 184.911C193.438 184.468 193.111 184.122 192.696 183.875C192.281 183.623 191.805 183.497 191.268 183.497C190.731 183.497 190.255 183.623 189.84 183.875C189.425 184.122 189.098 184.468 188.86 184.911C188.622 185.35 188.503 185.854 188.503 186.423C188.503 186.983 188.62 187.485 188.853 187.928C189.091 188.367 189.418 188.712 189.833 188.964C190.253 189.211 190.729 189.335 191.261 189.335ZM198.013 190V182.832H199.035V190H198.013ZM198.531 181.397C198.405 181.397 198.29 181.367 198.188 181.306C198.09 181.245 198.01 181.164 197.95 181.061C197.889 180.958 197.859 180.846 197.859 180.725C197.859 180.604 197.889 180.494 197.95 180.396C198.01 180.293 198.09 180.212 198.188 180.151C198.29 180.09 198.405 180.06 198.531 180.06C198.652 180.06 198.762 180.09 198.86 180.151C198.958 180.212 199.037 180.291 199.098 180.389C199.163 180.487 199.196 180.599 199.196 180.725C199.196 180.846 199.163 180.958 199.098 181.061C199.037 181.164 198.958 181.245 198.86 181.306C198.762 181.367 198.652 181.397 198.531 181.397ZM202.053 190V182.832H203.075V183.812C203.271 183.476 203.574 183.191 203.985 182.958C204.396 182.725 204.897 182.608 205.49 182.608C206.045 182.608 206.524 182.722 206.925 182.951C207.326 183.18 207.634 183.513 207.849 183.952C208.064 184.386 208.171 184.911 208.171 185.527V190H207.149V185.723C207.149 184.981 206.976 184.416 206.631 184.029C206.286 183.637 205.798 183.441 205.168 183.441C204.729 183.441 204.354 183.53 204.041 183.707C203.733 183.88 203.495 184.111 203.327 184.4C203.159 184.685 203.075 184.995 203.075 185.331V190H202.053ZM214.108 190.224C213.436 190.224 212.829 190.061 212.288 189.734C211.751 189.403 211.324 188.95 211.007 188.376C210.694 187.802 210.538 187.146 210.538 186.409C210.538 185.681 210.692 185.032 211 184.463C211.313 183.889 211.737 183.436 212.274 183.105C212.815 182.774 213.427 182.608 214.108 182.608C214.757 182.608 215.345 182.76 215.872 183.063C216.399 183.366 216.801 183.786 217.076 184.323V182.832H218.098V190H217.076V188.488C216.768 189.029 216.355 189.454 215.837 189.762C215.319 190.07 214.743 190.224 214.108 190.224ZM214.36 189.335C214.897 189.335 215.37 189.211 215.781 188.964C216.196 188.712 216.523 188.367 216.761 187.928C216.999 187.485 217.118 186.981 217.118 186.416C217.118 185.847 216.999 185.343 216.761 184.904C216.528 184.465 216.203 184.122 215.788 183.875C215.373 183.623 214.897 183.497 214.36 183.497C213.823 183.497 213.347 183.623 212.932 183.875C212.517 184.122 212.19 184.465 211.952 184.904C211.714 185.343 211.595 185.847 211.595 186.416C211.595 186.981 211.714 187.485 211.952 187.928C212.19 188.367 212.517 188.712 212.932 188.964C213.347 189.211 213.823 189.335 214.36 189.335ZM61.0979 206L57.6189 198.832H58.7879L61.4129 204.53L63.6739 198.832H64.3599L66.6209 204.53L69.2459 198.832H70.4149L66.9359 206H66.2569L64.0169 200.421L61.7699 206H61.0979ZM75.6804 206.224C74.9291 206.224 74.2571 206.058 73.6644 205.727C73.0764 205.396 72.6144 204.945 72.2784 204.376C71.9424 203.802 71.7744 203.158 71.7744 202.444C71.7744 201.907 71.8701 201.408 72.0614 200.946C72.2574 200.479 72.5281 200.071 72.8734 199.721C73.2188 199.371 73.6201 199.098 74.0774 198.902C74.5348 198.706 75.0224 198.608 75.5404 198.608C76.2498 198.608 76.8798 198.764 77.4304 199.077C77.9858 199.385 78.4244 199.812 78.7464 200.358C79.0731 200.904 79.2458 201.534 79.2644 202.248C79.2644 202.304 79.2621 202.351 79.2574 202.388C79.2574 202.421 79.2528 202.463 79.2434 202.514H72.7894C72.7894 203.074 72.9154 203.569 73.1674 203.998C73.4194 204.427 73.7648 204.766 74.2034 205.013C74.6468 205.256 75.1531 205.377 75.7224 205.377C76.2638 205.377 76.7491 205.265 77.1784 205.041C77.6124 204.812 77.9741 204.486 78.2634 204.061L79.0194 204.467C78.6788 205.022 78.2144 205.454 77.6264 205.762C77.0431 206.07 76.3944 206.224 75.6804 206.224ZM72.8454 201.744H78.2424C78.1818 201.296 78.0254 200.902 77.7734 200.561C77.5214 200.216 77.2018 199.945 76.8144 199.749C76.4318 199.553 76.0118 199.455 75.5544 199.455C75.0831 199.455 74.6538 199.553 74.2664 199.749C73.8791 199.94 73.5594 200.209 73.3074 200.554C73.0601 200.895 72.9061 201.291 72.8454 201.744ZM85.669 206.224C85.0343 206.224 84.4557 206.07 83.933 205.762C83.4103 205.454 82.9973 205.029 82.694 204.488V206H81.672V193.96H82.694V200.323C82.988 199.786 83.394 199.366 83.912 199.063C84.43 198.76 85.0087 198.608 85.648 198.608C86.334 198.608 86.9477 198.774 87.489 199.105C88.0303 199.436 88.455 199.889 88.763 200.463C89.0757 201.032 89.232 201.683 89.232 202.416C89.232 203.153 89.0733 203.809 88.756 204.383C88.4433 204.957 88.0187 205.407 87.482 205.734C86.9453 206.061 86.341 206.224 85.669 206.224ZM85.417 205.335C85.9537 205.335 86.4297 205.211 86.845 204.964C87.2603 204.712 87.5847 204.367 87.818 203.928C88.056 203.485 88.175 202.983 88.175 202.423C88.175 201.854 88.056 201.35 87.818 200.911C87.58 200.468 87.2533 200.122 86.838 199.875C86.4273 199.623 85.9537 199.497 85.417 199.497C84.8803 199.497 84.4043 199.623 83.989 199.875C83.5737 200.122 83.247 200.468 83.009 200.911C82.771 201.35 82.652 201.854 82.652 202.423C82.652 202.983 82.7687 203.485 83.002 203.928C83.24 204.367 83.5667 204.712 83.982 204.964C84.402 205.211 84.8803 205.335 85.417 205.335ZM101.357 209.64V204.488C101.049 205.029 100.636 205.454 100.118 205.762C99.6002 206.07 99.0262 206.224 98.3962 206.224C97.7102 206.224 97.0989 206.058 96.5622 205.727C96.0255 205.396 95.6009 204.943 95.2882 204.369C94.9755 203.79 94.8192 203.139 94.8192 202.416C94.8192 201.683 94.9755 201.032 95.2882 200.463C95.6009 199.889 96.0279 199.436 96.5692 199.105C97.1105 198.774 97.7265 198.608 98.4172 198.608C99.0472 198.608 99.6212 198.76 100.139 199.063C100.657 199.366 101.063 199.786 101.357 200.323V198.832H102.379V209.64H101.357ZM98.6342 205.335C99.1709 205.335 99.6469 205.211 100.062 204.964C100.478 204.712 100.804 204.367 101.042 203.928C101.28 203.485 101.399 202.981 101.399 202.416C101.399 201.847 101.28 201.343 101.042 200.904C100.809 200.465 100.482 200.122 100.062 199.875C99.6469 199.623 99.1709 199.497 98.6342 199.497C98.1022 199.497 97.6285 199.623 97.2132 199.875C96.7979 200.122 96.4712 200.465 96.2332 200.904C95.9952 201.343 95.8762 201.847 95.8762 202.416C95.8762 202.981 95.9929 203.482 96.2262 203.921C96.4642 204.36 96.7909 204.705 97.2062 204.957C97.6262 205.209 98.1022 205.335 98.6342 205.335ZM108.291 206.224C107.203 206.224 106.426 205.979 105.96 205.489C105.493 204.999 105.26 204.18 105.26 203.032V198.832H106.282V202.85C106.282 203.755 106.436 204.402 106.744 204.789C107.052 205.172 107.567 205.363 108.291 205.363C109.019 205.363 109.534 205.172 109.838 204.789C110.146 204.402 110.3 203.755 110.3 202.85V198.832H111.322V203.032C111.322 204.18 111.088 204.999 110.622 205.489C110.16 205.979 109.383 206.224 108.291 206.224ZM117.571 206.224C116.82 206.224 116.148 206.058 115.555 205.727C114.967 205.396 114.505 204.945 114.169 204.376C113.833 203.802 113.665 203.158 113.665 202.444C113.665 201.907 113.761 201.408 113.952 200.946C114.148 200.479 114.419 200.071 114.764 199.721C115.109 199.371 115.511 199.098 115.968 198.902C116.425 198.706 116.913 198.608 117.431 198.608C118.14 198.608 118.77 198.764 119.321 199.077C119.876 199.385 120.315 199.812 120.637 200.358C120.964 200.904 121.136 201.534 121.155 202.248C121.155 202.304 121.153 202.351 121.148 202.388C121.148 202.421 121.143 202.463 121.134 202.514H114.68C114.68 203.074 114.806 203.569 115.058 203.998C115.31 204.427 115.655 204.766 116.094 205.013C116.537 205.256 117.044 205.377 117.613 205.377C118.154 205.377 118.64 205.265 119.069 205.041C119.503 204.812 119.865 204.486 120.154 204.061L120.91 204.467C120.569 205.022 120.105 205.454 119.517 205.762C118.934 206.07 118.285 206.224 117.571 206.224ZM114.736 201.744H120.133C120.072 201.296 119.916 200.902 119.664 200.561C119.412 200.216 119.092 199.945 118.705 199.749C118.322 199.553 117.902 199.455 117.445 199.455C116.974 199.455 116.544 199.553 116.157 199.749C115.77 199.94 115.45 200.209 115.198 200.554C114.951 200.895 114.797 201.291 114.736 201.744ZM127.158 206V198.832H128.18V199.889C128.409 199.469 128.703 199.152 129.062 198.937C129.426 198.718 129.846 198.608 130.322 198.608C130.532 198.608 130.745 198.631 130.959 198.678C131.179 198.725 131.368 198.785 131.526 198.86L131.106 199.721C130.966 199.651 130.805 199.597 130.623 199.56C130.446 199.523 130.276 199.504 130.112 199.504C129.781 199.504 129.468 199.588 129.174 199.756C128.88 199.924 128.64 200.143 128.453 200.414C128.271 200.68 128.18 200.965 128.18 201.268V206H127.158ZM136.684 206.224C135.933 206.224 135.261 206.058 134.668 205.727C134.08 205.396 133.618 204.945 133.282 204.376C132.946 203.802 132.778 203.158 132.778 202.444C132.778 201.907 132.874 201.408 133.065 200.946C133.261 200.479 133.532 200.071 133.877 199.721C134.223 199.371 134.624 199.098 135.081 198.902C135.539 198.706 136.026 198.608 136.544 198.608C137.254 198.608 137.884 198.764 138.434 199.077C138.99 199.385 139.428 199.812 139.75 200.358C140.077 200.904 140.25 201.534 140.268 202.248C140.268 202.304 140.266 202.351 140.261 202.388C140.261 202.421 140.257 202.463 140.247 202.514H133.793C133.793 203.074 133.919 203.569 134.171 203.998C134.423 204.427 134.769 204.766 135.207 205.013C135.651 205.256 136.157 205.377 136.726 205.377C137.268 205.377 137.753 205.265 138.182 205.041C138.616 204.812 138.978 204.486 139.267 204.061L140.023 204.467C139.683 205.022 139.218 205.454 138.63 205.762C138.047 206.07 137.398 206.224 136.684 206.224ZM133.849 201.744H139.246C139.186 201.296 139.029 200.902 138.777 200.561C138.525 200.216 138.206 199.945 137.818 199.749C137.436 199.553 137.016 199.455 136.558 199.455C136.087 199.455 135.658 199.553 135.27 199.749C134.883 199.94 134.563 200.209 134.311 200.554C134.064 200.895 133.91 201.291 133.849 201.744ZM145.574 206.224C144.487 206.224 143.71 205.979 143.243 205.489C142.776 204.999 142.543 204.18 142.543 203.032V198.832H143.565V202.85C143.565 203.755 143.719 204.402 144.027 204.789C144.335 205.172 144.851 205.363 145.574 205.363C146.302 205.363 146.818 205.172 147.121 204.789C147.429 204.402 147.583 203.755 147.583 202.85V198.832H148.605V203.032C148.605 204.18 148.372 204.999 147.905 205.489C147.443 205.979 146.666 206.224 145.574 206.224ZM145.497 197.894L144.972 197.509L146.302 194.856L147.107 195.43L145.497 197.894ZM151.494 206V198.832H152.516V199.812C152.712 199.476 153.016 199.191 153.426 198.958C153.837 198.725 154.339 198.608 154.931 198.608C155.487 198.608 155.965 198.722 156.366 198.951C156.768 199.18 157.076 199.513 157.29 199.952C157.505 200.386 157.612 200.911 157.612 201.527V206H156.59V201.723C156.59 200.981 156.418 200.416 156.072 200.029C155.727 199.637 155.239 199.441 154.609 199.441C154.171 199.441 153.795 199.53 153.482 199.707C153.174 199.88 152.936 200.111 152.768 200.4C152.6 200.685 152.516 200.995 152.516 201.331V206H151.494ZM163.85 206.224C163.099 206.224 162.427 206.058 161.834 205.727C161.246 205.396 160.784 204.945 160.448 204.376C160.112 203.802 159.944 203.158 159.944 202.444C159.944 201.907 160.04 201.408 160.231 200.946C160.427 200.479 160.698 200.071 161.043 199.721C161.389 199.371 161.79 199.098 162.247 198.902C162.705 198.706 163.192 198.608 163.71 198.608C164.42 198.608 165.05 198.764 165.6 199.077C166.156 199.385 166.594 199.812 166.916 200.358C167.243 200.904 167.416 201.534 167.434 202.248C167.434 202.304 167.432 202.351 167.427 202.388C167.427 202.421 167.423 202.463 167.413 202.514H160.959C160.959 203.074 161.085 203.569 161.337 203.998C161.589 204.427 161.935 204.766 162.373 205.013C162.817 205.256 163.323 205.377 163.892 205.377C164.434 205.377 164.919 205.265 165.348 205.041C165.782 204.812 166.144 204.486 166.433 204.061L167.189 204.467C166.849 205.022 166.384 205.454 165.796 205.762C165.213 206.07 164.564 206.224 163.85 206.224ZM161.015 201.744H166.412C166.352 201.296 166.195 200.902 165.943 200.561C165.691 200.216 165.372 199.945 164.984 199.749C164.602 199.553 164.182 199.455 163.724 199.455C163.253 199.455 162.824 199.553 162.436 199.749C162.049 199.94 161.729 200.209 161.477 200.554C161.23 200.895 161.076 201.291 161.015 201.744ZM175.223 206.224C174.686 206.224 174.268 206.044 173.97 205.685C173.676 205.321 173.529 204.81 173.529 204.152V199.602H172.801V198.832H173.529V196.151H174.551V198.832H176.336V199.602H174.551V204.096C174.551 204.493 174.628 204.796 174.782 205.006C174.936 205.216 175.155 205.321 175.44 205.321C175.715 205.321 175.958 205.244 176.168 205.09L176.427 205.902C176.268 206 176.081 206.077 175.867 206.133C175.652 206.194 175.437 206.224 175.223 206.224ZM182.083 206.224C181.337 206.224 180.662 206.063 180.06 205.741C179.463 205.419 178.989 204.971 178.639 204.397C178.289 203.823 178.114 203.163 178.114 202.416C178.114 201.665 178.289 201.004 178.639 200.435C178.989 199.861 179.463 199.413 180.06 199.091C180.658 198.769 181.332 198.608 182.083 198.608C182.83 198.608 183.502 198.769 184.099 199.091C184.701 199.413 185.177 199.861 185.527 200.435C185.877 201.004 186.052 201.665 186.052 202.416C186.052 203.163 185.877 203.823 185.527 204.397C185.177 204.971 184.701 205.419 184.099 205.741C183.502 206.063 182.83 206.224 182.083 206.224ZM182.083 205.314C182.643 205.314 183.143 205.19 183.581 204.943C184.02 204.696 184.365 204.355 184.617 203.921C184.869 203.482 184.995 202.981 184.995 202.416C184.995 201.851 184.869 201.352 184.617 200.918C184.365 200.479 184.02 200.136 183.581 199.889C183.143 199.642 182.643 199.518 182.083 199.518C181.523 199.518 181.024 199.642 180.585 199.889C180.147 200.136 179.801 200.479 179.549 200.918C179.297 201.352 179.171 201.851 179.171 202.416C179.171 202.976 179.297 203.475 179.549 203.914C179.801 204.353 180.147 204.696 180.585 204.943C181.024 205.19 181.523 205.314 182.083 205.314ZM191.577 206.224C190.905 206.224 190.298 206.061 189.757 205.734C189.22 205.407 188.793 204.957 188.476 204.383C188.163 203.809 188.007 203.153 188.007 202.416C188.007 201.683 188.163 201.032 188.476 200.463C188.788 199.889 189.213 199.436 189.75 199.105C190.291 198.774 190.905 198.608 191.591 198.608C192.23 198.608 192.809 198.76 193.327 199.063C193.845 199.366 194.251 199.786 194.545 200.323V193.953H195.567V206H194.545V204.488C194.241 205.029 193.828 205.454 193.306 205.762C192.788 206.07 192.211 206.224 191.577 206.224ZM191.822 205.335C192.358 205.335 192.834 205.211 193.25 204.964C193.665 204.712 193.992 204.367 194.23 203.928C194.468 203.485 194.587 202.983 194.587 202.423C194.587 201.854 194.468 201.35 194.23 200.911C193.996 200.468 193.67 200.122 193.25 199.875C192.834 199.623 192.358 199.497 191.822 199.497C191.29 199.497 190.816 199.623 190.401 199.875C189.985 200.122 189.659 200.468 189.421 200.911C189.183 201.35 189.064 201.854 189.064 202.423C189.064 202.988 189.18 203.489 189.414 203.928C189.652 204.367 189.978 204.712 190.394 204.964C190.814 205.211 191.29 205.335 191.822 205.335ZM201.639 206.224C200.967 206.224 200.361 206.061 199.819 205.734C199.283 205.403 198.856 204.95 198.538 204.376C198.226 203.802 198.069 203.146 198.069 202.409C198.069 201.681 198.223 201.032 198.531 200.463C198.844 199.889 199.269 199.436 199.805 199.105C200.347 198.774 200.958 198.608 201.639 198.608C202.288 198.608 202.876 198.76 203.403 199.063C203.931 199.366 204.332 199.786 204.607 200.323V198.832H205.629V206H204.607V204.488C204.299 205.029 203.886 205.454 203.368 205.762C202.85 206.07 202.274 206.224 201.639 206.224ZM201.891 205.335C202.428 205.335 202.902 205.211 203.312 204.964C203.728 204.712 204.054 204.367 204.292 203.928C204.53 203.485 204.649 202.981 204.649 202.416C204.649 201.847 204.53 201.343 204.292 200.904C204.059 200.465 203.735 200.122 203.319 199.875C202.904 199.623 202.428 199.497 201.891 199.497C201.355 199.497 200.879 199.623 200.463 199.875C200.048 200.122 199.721 200.465 199.483 200.904C199.245 201.343 199.126 201.847 199.126 202.416C199.126 202.981 199.245 203.485 199.483 203.928C199.721 204.367 200.048 204.712 200.463 204.964C200.879 205.211 201.355 205.335 201.891 205.335ZM212.238 206V193.96H213.26V206H212.238ZM219.331 206.224C218.659 206.224 218.052 206.061 217.511 205.734C216.974 205.403 216.547 204.95 216.23 204.376C215.917 203.802 215.761 203.146 215.761 202.409C215.761 201.681 215.915 201.032 216.223 200.463C216.535 199.889 216.96 199.436 217.497 199.105C218.038 198.774 218.649 198.608 219.331 198.608C219.979 198.608 220.567 198.76 221.095 199.063C221.622 199.366 222.023 199.786 222.299 200.323V198.832H223.321V206H222.299V204.488C221.991 205.029 221.578 205.454 221.06 205.762C220.542 206.07 219.965 206.224 219.331 206.224ZM219.583 205.335C220.119 205.335 220.593 205.211 221.004 204.964C221.419 204.712 221.746 204.367 221.984 203.928C222.222 203.485 222.341 202.981 222.341 202.416C222.341 201.847 222.222 201.343 221.984 200.904C221.75 200.465 221.426 200.122 221.011 199.875C220.595 199.623 220.119 199.497 219.583 199.497C219.046 199.497 218.57 199.623 218.155 199.875C217.739 200.122 217.413 200.465 217.175 200.904C216.937 201.343 216.818 201.847 216.818 202.416C216.818 202.981 216.937 203.485 217.175 203.928C217.413 204.367 217.739 204.712 218.155 204.964C218.57 205.211 219.046 205.335 219.583 205.335ZM59.4687 222V214.832H60.4907V222H59.4687ZM59.9867 213.397C59.8607 213.397 59.7464 213.367 59.6437 213.306C59.5457 213.245 59.4664 213.164 59.4057 213.061C59.345 212.958 59.3147 212.846 59.3147 212.725C59.3147 212.604 59.345 212.494 59.4057 212.396C59.4664 212.293 59.5457 212.212 59.6437 212.151C59.7464 212.09 59.8607 212.06 59.9867 212.06C60.108 212.06 60.2177 212.09 60.3157 212.151C60.4137 212.212 60.493 212.291 60.5537 212.389C60.619 212.487 60.6517 212.599 60.6517 212.725C60.6517 212.846 60.619 212.958 60.5537 213.061C60.493 213.164 60.4137 213.245 60.3157 213.306C60.2177 213.367 60.108 213.397 59.9867 213.397ZM63.5089 222V214.832H64.5309V215.812C64.7269 215.476 65.0302 215.191 65.4409 214.958C65.8516 214.725 66.3532 214.608 66.9459 214.608C67.5012 214.608 67.9796 214.722 68.3809 214.951C68.7822 215.18 69.0902 215.513 69.3049 215.952C69.5196 216.386 69.6269 216.911 69.6269 217.527V222H68.6049V217.723C68.6049 216.981 68.4322 216.416 68.0869 216.029C67.7416 215.637 67.2539 215.441 66.6239 215.441C66.1852 215.441 65.8096 215.53 65.4969 215.707C65.1889 215.88 64.9509 216.111 64.7829 216.4C64.6149 216.685 64.5309 216.995 64.5309 217.331V222H63.5089ZM74.927 222L71.448 214.832H72.645L75.263 220.544L77.888 214.832H79.085L75.599 222H74.927ZM84.3552 222.224C83.6039 222.224 82.9319 222.058 82.3392 221.727C81.7512 221.396 81.2892 220.945 80.9532 220.376C80.6172 219.802 80.4492 219.158 80.4492 218.444C80.4492 217.907 80.5449 217.408 80.7362 216.946C80.9322 216.479 81.2029 216.071 81.5482 215.721C81.8936 215.371 82.2949 215.098 82.7522 214.902C83.2096 214.706 83.6972 214.608 84.2152 214.608C84.9246 214.608 85.5546 214.764 86.1052 215.077C86.6606 215.385 87.0992 215.812 87.4212 216.358C87.7479 216.904 87.9206 217.534 87.9392 218.248C87.9392 218.304 87.9369 218.351 87.9322 218.388C87.9322 218.421 87.9276 218.463 87.9182 218.514H81.4642C81.4642 219.074 81.5902 219.569 81.8422 219.998C82.0942 220.427 82.4396 220.766 82.8782 221.013C83.3216 221.256 83.8279 221.377 84.3972 221.377C84.9386 221.377 85.4239 221.265 85.8532 221.041C86.2872 220.812 86.6489 220.486 86.9382 220.061L87.6942 220.467C87.3536 221.022 86.8892 221.454 86.3012 221.762C85.7179 222.07 85.0692 222.224 84.3552 222.224ZM81.5202 217.744H86.9172C86.8566 217.296 86.7002 216.902 86.4482 216.561C86.1962 216.216 85.8766 215.945 85.4892 215.749C85.1066 215.553 84.6866 215.455 84.2292 215.455C83.7579 215.455 83.3286 215.553 82.9412 215.749C82.5539 215.94 82.2342 216.209 81.9822 216.554C81.7349 216.895 81.5809 217.291 81.5202 217.744ZM92.1541 222.224C91.5614 222.224 91.0388 222.082 90.5861 221.797C90.1334 221.508 89.7811 221.099 89.5291 220.572L90.0751 219.984C90.2991 220.441 90.5908 220.798 90.9501 221.055C91.3094 221.307 91.7084 221.433 92.1471 221.433C92.4411 221.433 92.7094 221.372 92.9521 221.251C93.1994 221.13 93.3954 220.957 93.5401 220.733C93.6894 220.504 93.7641 220.234 93.7641 219.921C93.7641 219.636 93.6941 219.412 93.5541 219.249C93.4188 219.086 93.2181 218.946 92.9521 218.829C92.6908 218.708 92.3641 218.572 91.9721 218.423C91.6688 218.302 91.3748 218.164 91.0901 218.01C90.8054 217.856 90.5698 217.662 90.3831 217.429C90.2011 217.191 90.1101 216.89 90.1101 216.526C90.1101 216.157 90.2081 215.831 90.4041 215.546C90.6001 215.257 90.8708 215.03 91.2161 214.867C91.5614 214.699 91.9534 214.615 92.3921 214.615C92.7934 214.615 93.1691 214.701 93.5191 214.874C93.8738 215.047 94.1911 215.292 94.4711 215.609L94.0021 216.204C93.5728 215.639 93.0384 215.357 92.3991 215.357C92.0071 215.357 91.6874 215.46 91.4401 215.665C91.1974 215.87 91.0761 216.139 91.0761 216.47C91.0761 216.708 91.1531 216.906 91.3071 217.065C91.4611 217.224 91.6618 217.359 91.9091 217.471C92.1611 217.583 92.4318 217.695 92.7211 217.807C93.1411 217.966 93.5051 218.124 93.8131 218.283C94.1258 218.442 94.3684 218.645 94.5411 218.892C94.7138 219.135 94.8001 219.466 94.8001 219.886C94.8001 220.367 94.6881 220.782 94.4641 221.132C94.2401 221.482 93.9274 221.753 93.5261 221.944C93.1294 222.131 92.6721 222.224 92.1541 222.224ZM98.8857 222.224C98.349 222.224 97.9314 222.044 97.6327 221.685C97.3387 221.321 97.1917 220.81 97.1917 220.152V215.602H96.4637V214.832H97.1917V212.151H98.2137V214.832H99.9987V215.602H98.2137V220.096C98.2137 220.493 98.2907 220.796 98.4447 221.006C98.5987 221.216 98.818 221.321 99.1027 221.321C99.378 221.321 99.6207 221.244 99.8307 221.09L100.09 221.902C99.931 222 99.7444 222.077 99.5297 222.133C99.315 222.194 99.1004 222.224 98.8857 222.224ZM102.316 222V214.832H103.338V222H102.316ZM102.834 213.397C102.708 213.397 102.594 213.367 102.491 213.306C102.393 213.245 102.314 213.164 102.253 213.061C102.193 212.958 102.162 212.846 102.162 212.725C102.162 212.604 102.193 212.494 102.253 212.396C102.314 212.293 102.393 212.212 102.491 212.151C102.594 212.09 102.708 212.06 102.834 212.06C102.956 212.06 103.065 212.09 103.163 212.151C103.261 212.212 103.341 212.291 103.401 212.389C103.467 212.487 103.499 212.599 103.499 212.725C103.499 212.846 103.467 212.958 103.401 213.061C103.341 213.164 103.261 213.245 103.163 213.306C103.065 213.367 102.956 213.397 102.834 213.397ZM109.521 225.85C108.615 225.85 107.85 225.673 107.225 225.318C106.599 224.963 106.135 224.445 105.832 223.764L106.693 223.365C106.912 223.86 107.276 224.252 107.785 224.541C108.293 224.835 108.872 224.982 109.521 224.982C110.067 224.982 110.554 224.872 110.984 224.653C111.418 224.438 111.758 224.126 112.006 223.715C112.258 223.304 112.384 222.812 112.384 222.238V220.488C112.085 221.029 111.674 221.454 111.152 221.762C110.634 222.07 110.055 222.224 109.416 222.224C108.748 222.224 108.144 222.061 107.603 221.734C107.066 221.407 106.639 220.957 106.322 220.383C106.009 219.809 105.853 219.153 105.853 218.416C105.853 217.683 106.009 217.032 106.322 216.463C106.634 215.889 107.059 215.436 107.596 215.105C108.137 214.774 108.751 214.608 109.437 214.608C110.071 214.608 110.648 214.76 111.166 215.063C111.688 215.366 112.094 215.786 112.384 216.323V214.832H113.406V222.196C113.406 222.989 113.249 223.657 112.937 224.198C112.624 224.744 112.176 225.155 111.593 225.43C111.014 225.71 110.323 225.85 109.521 225.85ZM109.661 221.335C110.202 221.335 110.68 221.211 111.096 220.964C111.511 220.712 111.838 220.367 112.076 219.928C112.314 219.485 112.433 218.983 112.433 218.423C112.433 217.854 112.314 217.35 112.076 216.911C111.838 216.468 111.511 216.122 111.096 215.875C110.68 215.623 110.204 215.497 109.668 215.497C109.131 215.497 108.655 215.623 108.24 215.875C107.824 216.122 107.498 216.468 107.26 216.911C107.022 217.35 106.903 217.854 106.903 218.423C106.903 218.983 107.019 219.485 107.253 219.928C107.491 220.367 107.817 220.712 108.233 220.964C108.653 221.211 109.129 221.335 109.661 221.335ZM119.478 222.224C118.806 222.224 118.199 222.061 117.658 221.734C117.121 221.403 116.694 220.95 116.377 220.376C116.064 219.802 115.908 219.146 115.908 218.409C115.908 217.681 116.062 217.032 116.37 216.463C116.683 215.889 117.107 215.436 117.644 215.105C118.185 214.774 118.797 214.608 119.478 214.608C120.127 214.608 120.715 214.76 121.242 215.063C121.769 215.366 122.171 215.786 122.446 216.323V214.832H123.468V222H122.446V220.488C122.138 221.029 121.725 221.454 121.207 221.762C120.689 222.07 120.113 222.224 119.478 222.224ZM119.73 221.335C120.267 221.335 120.74 221.211 121.151 220.964C121.566 220.712 121.893 220.367 122.131 219.928C122.369 219.485 122.488 218.981 122.488 218.416C122.488 217.847 122.369 217.343 122.131 216.904C121.898 216.465 121.573 216.122 121.158 215.875C120.743 215.623 120.267 215.497 119.73 215.497C119.193 215.497 118.717 215.623 118.302 215.875C117.887 216.122 117.56 216.465 117.322 216.904C117.084 217.343 116.965 217.847 116.965 218.416C116.965 218.981 117.084 219.485 117.322 219.928C117.56 220.367 117.887 220.712 118.302 220.964C118.717 221.211 119.193 221.335 119.73 221.335ZM129.814 222.224C129.277 222.224 128.773 222.131 128.302 221.944C127.83 221.753 127.417 221.484 127.063 221.139C126.708 220.794 126.43 220.39 126.23 219.928C126.029 219.466 125.929 218.962 125.929 218.416C125.929 217.875 126.027 217.373 126.223 216.911C126.419 216.449 126.692 216.045 127.042 215.7C127.396 215.355 127.809 215.086 128.281 214.895C128.752 214.704 129.263 214.608 129.814 214.608C130.285 214.608 130.733 214.678 131.158 214.818C131.582 214.958 131.949 215.152 132.257 215.399L131.837 216.085C131.314 215.679 130.679 215.476 129.933 215.476C129.345 215.476 128.827 215.607 128.379 215.868C127.935 216.125 127.59 216.477 127.343 216.925C127.095 217.368 126.972 217.865 126.972 218.416C126.972 218.971 127.098 219.473 127.35 219.921C127.602 220.364 127.952 220.714 128.4 220.971C128.848 221.228 129.361 221.356 129.94 221.356C130.304 221.356 130.647 221.305 130.969 221.202C131.295 221.095 131.582 220.943 131.83 220.747L132.257 221.433C131.944 221.676 131.578 221.867 131.158 222.007C130.738 222.152 130.29 222.224 129.814 222.224ZM134.445 222V214.832H135.467V222H134.445ZM134.963 213.397C134.837 213.397 134.723 213.367 134.62 213.306C134.522 213.245 134.443 213.164 134.382 213.061C134.322 212.958 134.291 212.846 134.291 212.725C134.291 212.604 134.322 212.494 134.382 212.396C134.443 212.293 134.522 212.212 134.62 212.151C134.723 212.09 134.837 212.06 134.963 212.06C135.085 212.06 135.194 212.09 135.292 212.151C135.39 212.212 135.47 212.291 135.53 212.389C135.596 212.487 135.628 212.599 135.628 212.725C135.628 212.846 135.596 212.958 135.53 213.061C135.47 213.164 135.39 213.245 135.292 213.306C135.194 213.367 135.085 213.397 134.963 213.397ZM141.908 222.224C141.162 222.224 140.487 222.063 139.885 221.741C139.288 221.419 138.814 220.971 138.464 220.397C138.114 219.823 137.939 219.163 137.939 218.416C137.939 217.665 138.114 217.004 138.464 216.435C138.814 215.861 139.288 215.413 139.885 215.091C140.483 214.769 141.157 214.608 141.908 214.608C142.655 214.608 143.327 214.769 143.924 215.091C144.526 215.413 145.002 215.861 145.352 216.435C145.702 217.004 145.877 217.665 145.877 218.416C145.877 219.163 145.702 219.823 145.352 220.397C145.002 220.971 144.526 221.419 143.924 221.741C143.327 222.063 142.655 222.224 141.908 222.224ZM141.908 221.314C142.468 221.314 142.968 221.19 143.406 220.943C143.845 220.696 144.19 220.355 144.442 219.921C144.694 219.482 144.82 218.981 144.82 218.416C144.82 217.851 144.694 217.352 144.442 216.918C144.19 216.479 143.845 216.136 143.406 215.889C142.968 215.642 142.468 215.518 141.908 215.518C141.348 215.518 140.849 215.642 140.41 215.889C139.972 216.136 139.626 216.479 139.374 216.918C139.122 217.352 138.996 217.851 138.996 218.416C138.996 218.976 139.122 219.475 139.374 219.914C139.626 220.353 139.972 220.696 140.41 220.943C140.849 221.19 141.348 221.314 141.908 221.314ZM141.831 213.677L141.306 213.292L142.636 210.639L143.441 211.213L141.831 213.677ZM148.343 222V214.832H149.365V215.812C149.561 215.476 149.864 215.191 150.275 214.958C150.686 214.725 151.187 214.608 151.78 214.608C152.335 214.608 152.814 214.722 153.215 214.951C153.616 215.18 153.924 215.513 154.139 215.952C154.354 216.386 154.461 216.911 154.461 217.527V222H153.439V217.723C153.439 216.981 153.266 216.416 152.921 216.029C152.576 215.637 152.088 215.441 151.458 215.441C151.019 215.441 150.644 215.53 150.331 215.707C150.023 215.88 149.785 216.111 149.617 216.4C149.449 216.685 149.365 216.995 149.365 217.331V222H148.343ZM164.267 222.224C163.73 222.224 163.226 222.131 162.755 221.944C162.283 221.753 161.87 221.484 161.516 221.139C161.161 220.794 160.883 220.39 160.683 219.928C160.482 219.466 160.382 218.962 160.382 218.416C160.382 217.875 160.48 217.373 160.676 216.911C160.872 216.449 161.145 216.045 161.495 215.7C161.849 215.355 162.262 215.086 162.734 214.895C163.205 214.704 163.716 214.608 164.267 214.608C164.738 214.608 165.186 214.678 165.611 214.818C166.035 214.958 166.402 215.152 166.71 215.399L166.29 216.085C165.767 215.679 165.132 215.476 164.386 215.476C163.798 215.476 163.28 215.607 162.832 215.868C162.388 216.125 162.043 216.477 161.796 216.925C161.548 217.368 161.425 217.865 161.425 218.416C161.425 218.971 161.551 219.473 161.803 219.921C162.055 220.364 162.405 220.714 162.853 220.971C163.301 221.228 163.814 221.356 164.393 221.356C164.757 221.356 165.1 221.305 165.422 221.202C165.748 221.095 166.035 220.943 166.283 220.747L166.71 221.433C166.397 221.676 166.031 221.867 165.611 222.007C165.191 222.152 164.743 222.224 164.267 222.224ZM168.898 222V214.832H169.92V222H168.898ZM169.416 213.397C169.29 213.397 169.176 213.367 169.073 213.306C168.975 213.245 168.896 213.164 168.835 213.061C168.775 212.958 168.744 212.846 168.744 212.725C168.744 212.604 168.775 212.494 168.835 212.396C168.896 212.293 168.975 212.212 169.073 212.151C169.176 212.09 169.29 212.06 169.416 212.06C169.538 212.06 169.647 212.09 169.745 212.151C169.843 212.212 169.923 212.291 169.983 212.389C170.049 212.487 170.081 212.599 170.081 212.725C170.081 212.846 170.049 212.958 169.983 213.061C169.923 213.164 169.843 213.245 169.745 213.306C169.647 213.367 169.538 213.397 169.416 213.397ZM176.299 222.224C175.547 222.224 174.875 222.058 174.283 221.727C173.695 221.396 173.233 220.945 172.897 220.376C172.561 219.802 172.393 219.158 172.393 218.444C172.393 217.907 172.488 217.408 172.68 216.946C172.876 216.479 173.146 216.071 173.492 215.721C173.837 215.371 174.238 215.098 174.696 214.902C175.153 214.706 175.641 214.608 176.159 214.608C176.868 214.608 177.498 214.764 178.049 215.077C178.604 215.385 179.043 215.812 179.365 216.358C179.691 216.904 179.864 217.534 179.883 218.248C179.883 218.304 179.88 218.351 179.876 218.388C179.876 218.421 179.871 218.463 179.862 218.514H173.408C173.408 219.074 173.534 219.569 173.786 219.998C174.038 220.427 174.383 220.766 174.822 221.013C175.265 221.256 175.771 221.377 176.341 221.377C176.882 221.377 177.367 221.265 177.797 221.041C178.231 220.812 178.592 220.486 178.882 220.061L179.638 220.467C179.297 221.022 178.833 221.454 178.245 221.762C177.661 222.07 177.013 222.224 176.299 222.224ZM173.464 217.744H178.861C178.8 217.296 178.644 216.902 178.392 216.561C178.14 216.216 177.82 215.945 177.433 215.749C177.05 215.553 176.63 215.455 176.173 215.455C175.701 215.455 175.272 215.553 174.885 215.749C174.497 215.94 174.178 216.209 173.926 216.554C173.678 216.895 173.524 217.291 173.464 217.744ZM182.263 222V214.832H183.285V215.812C183.481 215.476 183.784 215.191 184.195 214.958C184.605 214.725 185.107 214.608 185.7 214.608C186.255 214.608 186.733 214.722 187.135 214.951C187.536 215.18 187.844 215.513 188.059 215.952C188.273 216.386 188.381 216.911 188.381 217.527V222H187.359V217.723C187.359 216.981 187.186 216.416 186.841 216.029C186.495 215.637 186.008 215.441 185.378 215.441C184.939 215.441 184.563 215.53 184.251 215.707C183.943 215.88 183.705 216.111 183.537 216.4C183.369 216.685 183.285 216.995 183.285 217.331V222H182.263ZM192.962 222.224C192.425 222.224 192.008 222.044 191.709 221.685C191.415 221.321 191.268 220.81 191.268 220.152V215.602H190.54V214.832H191.268V212.151H192.29V214.832H194.075V215.602H192.29V220.096C192.29 220.493 192.367 220.796 192.521 221.006C192.675 221.216 192.894 221.321 193.179 221.321C193.454 221.321 193.697 221.244 193.907 221.09L194.166 221.902C194.007 222 193.821 222.077 193.606 222.133C193.391 222.194 193.177 222.224 192.962 222.224ZM196.4 222V214.832H197.422V222H196.4ZM196.834 213.894L196.309 213.509L197.639 210.856L198.444 211.43L196.834 213.894ZM200.545 222V215.602H199.831V214.832H200.545V212.263C200.545 211.694 200.626 211.225 200.79 210.856C200.958 210.483 201.191 210.205 201.49 210.023C201.788 209.841 202.138 209.75 202.54 209.75C202.815 209.75 203.079 209.792 203.331 209.876C203.587 209.96 203.816 210.072 204.017 210.212C204.217 210.352 204.378 210.515 204.5 210.702L204.024 211.318C203.912 211.122 203.734 210.961 203.492 210.835C203.254 210.704 203.016 210.639 202.778 210.639C202.376 210.639 202.073 210.763 201.868 211.01C201.667 211.257 201.567 211.666 201.567 212.235V214.832H204.85V222H203.828V215.602H201.567V222H200.545ZM210.874 222.224C210.337 222.224 209.833 222.131 209.362 221.944C208.891 221.753 208.478 221.484 208.123 221.139C207.768 220.794 207.491 220.39 207.29 219.928C207.089 219.466 206.989 218.962 206.989 218.416C206.989 217.875 207.087 217.373 207.283 216.911C207.479 216.449 207.752 216.045 208.102 215.7C208.457 215.355 208.87 215.086 209.341 214.895C209.812 214.704 210.323 214.608 210.874 214.608C211.345 214.608 211.793 214.678 212.218 214.818C212.643 214.958 213.009 215.152 213.317 215.399L212.897 216.085C212.374 215.679 211.74 215.476 210.993 215.476C210.405 215.476 209.887 215.607 209.439 215.868C208.996 216.125 208.65 216.477 208.403 216.925C208.156 217.368 208.032 217.865 208.032 218.416C208.032 218.971 208.158 219.473 208.41 219.921C208.662 220.364 209.012 220.714 209.46 220.971C209.908 221.228 210.421 221.356 211 221.356C211.364 221.356 211.707 221.305 212.029 221.202C212.356 221.095 212.643 220.943 212.89 220.747L213.317 221.433C213.004 221.676 212.638 221.867 212.218 222.007C211.798 222.152 211.35 222.224 210.874 222.224ZM218.531 222.224C217.859 222.224 217.252 222.061 216.711 221.734C216.174 221.403 215.747 220.95 215.43 220.376C215.117 219.802 214.961 219.146 214.961 218.409C214.961 217.681 215.115 217.032 215.423 216.463C215.735 215.889 216.16 215.436 216.697 215.105C217.238 214.774 217.849 214.608 218.531 214.608C219.179 214.608 219.767 214.76 220.295 215.063C220.822 215.366 221.223 215.786 221.499 216.323V214.832H222.521V222H221.499V220.488C221.191 221.029 220.778 221.454 220.26 221.762C219.742 222.07 219.165 222.224 218.531 222.224ZM218.783 221.335C219.319 221.335 219.793 221.211 220.204 220.964C220.619 220.712 220.946 220.367 221.184 219.928C221.422 219.485 221.541 218.981 221.541 218.416C221.541 217.847 221.422 217.343 221.184 216.904C220.95 216.465 220.626 216.122 220.211 215.875C219.795 215.623 219.319 215.497 218.783 215.497C218.246 215.497 217.77 215.623 217.355 215.875C216.939 216.122 216.613 216.465 216.375 216.904C216.137 217.343 216.018 217.847 216.018 218.416C216.018 218.981 216.137 219.485 216.375 219.928C216.613 220.367 216.939 220.712 217.355 220.964C217.77 221.211 218.246 221.335 218.783 221.335ZM102.764 238.224C102.013 238.224 101.341 238.058 100.748 237.727C100.16 237.396 99.6984 236.945 99.3624 236.376C99.0264 235.802 98.8584 235.158 98.8584 234.444C98.8584 233.907 98.9541 233.408 99.1454 232.946C99.3414 232.479 99.6121 232.071 99.9574 231.721C100.303 231.371 100.704 231.098 101.161 230.902C101.619 230.706 102.106 230.608 102.624 230.608C103.334 230.608 103.964 230.764 104.514 231.077C105.07 231.385 105.508 231.812 105.83 232.358C106.157 232.904 106.33 233.534 106.348 234.248C106.348 234.304 106.346 234.351 106.341 234.388C106.341 234.421 106.337 234.463 106.327 234.514H99.8734C99.8734 235.074 99.9994 235.569 100.251 235.998C100.503 236.427 100.849 236.766 101.287 237.013C101.731 237.256 102.237 237.377 102.806 237.377C103.348 237.377 103.833 237.265 104.262 237.041C104.696 236.812 105.058 236.486 105.347 236.061L106.103 236.467C105.763 237.022 105.298 237.454 104.71 237.762C104.127 238.07 103.478 238.224 102.764 238.224ZM99.9294 233.744H105.326C105.266 233.296 105.109 232.902 104.857 232.561C104.605 232.216 104.286 231.945 103.898 231.749C103.516 231.553 103.096 231.455 102.638 231.455C102.167 231.455 101.738 231.553 101.35 231.749C100.963 231.94 100.643 232.209 100.391 232.554C100.144 232.895 99.9901 233.291 99.9294 233.744ZM108.729 238V230.832H109.751V231.812C109.947 231.476 110.25 231.191 110.661 230.958C111.071 230.725 111.573 230.608 112.166 230.608C112.721 230.608 113.199 230.722 113.601 230.951C114.002 231.18 114.31 231.513 114.525 231.952C114.739 232.386 114.847 232.911 114.847 233.527V238H113.825V233.723C113.825 232.981 113.652 232.416 113.307 232.029C112.961 231.637 112.474 231.441 111.844 231.441C111.405 231.441 111.029 231.53 110.717 231.707C110.409 231.88 110.171 232.111 110.003 232.4C109.835 232.685 109.751 232.995 109.751 233.331V238H108.729ZM124.218 238.224C123.131 238.224 122.354 237.979 121.887 237.489C121.421 236.999 121.187 236.18 121.187 235.032V230.832H122.209V234.85C122.209 235.755 122.363 236.402 122.671 236.789C122.979 237.172 123.495 237.363 124.218 237.363C124.946 237.363 125.462 237.172 125.765 236.789C126.073 236.402 126.227 235.755 126.227 234.85V230.832H127.249V235.032C127.249 236.18 127.016 236.999 126.549 237.489C126.087 237.979 125.31 238.224 124.218 238.224ZM130.139 238V230.832H131.161V231.812C131.357 231.476 131.66 231.191 132.071 230.958C132.481 230.725 132.983 230.608 133.576 230.608C134.131 230.608 134.609 230.722 135.011 230.951C135.412 231.18 135.72 231.513 135.935 231.952C136.149 232.386 136.257 232.911 136.257 233.527V238H135.235V233.723C135.235 232.981 135.062 232.416 134.717 232.029C134.371 231.637 133.884 231.441 133.254 231.441C132.815 231.441 132.439 231.53 132.127 231.707C131.819 231.88 131.581 232.111 131.413 232.4C131.245 232.685 131.161 232.995 131.161 233.331V238H130.139ZM142.731 241.64V230.832H143.753V232.316C144.042 231.779 144.446 231.362 144.964 231.063C145.486 230.76 146.065 230.608 146.7 230.608C147.386 230.608 147.999 230.774 148.541 231.105C149.082 231.436 149.509 231.889 149.822 232.463C150.134 233.032 150.291 233.683 150.291 234.416C150.291 235.139 150.134 235.79 149.822 236.369C149.514 236.943 149.089 237.396 148.548 237.727C148.011 238.058 147.4 238.224 146.714 238.224C146.088 238.224 145.514 238.07 144.992 237.762C144.469 237.454 144.056 237.029 143.753 236.488V241.64H142.731ZM146.476 237.335C147.012 237.335 147.488 237.211 147.904 236.964C148.319 236.712 148.643 236.367 148.877 235.928C149.115 235.489 149.234 234.988 149.234 234.423C149.234 233.854 149.115 233.35 148.877 232.911C148.639 232.468 148.312 232.122 147.897 231.875C147.486 231.623 147.012 231.497 146.476 231.497C145.939 231.497 145.463 231.623 145.048 231.875C144.632 232.122 144.306 232.465 144.068 232.904C143.83 233.343 143.711 233.847 143.711 234.416C143.711 234.981 143.83 235.485 144.068 235.928C144.306 236.367 144.632 236.712 145.048 236.964C145.468 237.211 145.944 237.335 146.476 237.335ZM155.691 238.224C154.604 238.224 153.827 237.979 153.36 237.489C152.893 236.999 152.66 236.18 152.66 235.032V230.832H153.682V234.85C153.682 235.755 153.836 236.402 154.144 236.789C154.452 237.172 154.968 237.363 155.691 237.363C156.419 237.363 156.935 237.172 157.238 236.789C157.546 236.402 157.7 235.755 157.7 234.85V230.832H158.722V235.032C158.722 236.18 158.489 236.999 158.022 237.489C157.56 237.979 156.783 238.224 155.691 238.224ZM161.611 238V230.832H162.633V231.812C162.829 231.476 163.133 231.191 163.543 230.958C163.954 230.725 164.456 230.608 165.048 230.608C165.604 230.608 166.082 230.722 166.483 230.951C166.885 231.18 167.193 231.513 167.407 231.952C167.622 232.386 167.729 232.911 167.729 233.527V238H166.707V233.723C166.707 232.981 166.535 232.416 166.189 232.029C165.844 231.637 165.356 231.441 164.726 231.441C164.288 231.441 163.912 231.53 163.599 231.707C163.291 231.88 163.053 232.111 162.885 232.4C162.717 232.685 162.633 232.995 162.633 233.331V238H161.611ZM172.311 238.224C171.774 238.224 171.356 238.044 171.058 237.685C170.764 237.321 170.617 236.81 170.617 236.152V231.602H169.889V230.832H170.617V228.151H171.639V230.832H173.424V231.602H171.639V236.096C171.639 236.493 171.716 236.796 171.87 237.006C172.024 237.216 172.243 237.321 172.528 237.321C172.803 237.321 173.046 237.244 173.256 237.09L173.515 237.902C173.356 238 173.169 238.077 172.955 238.133C172.74 238.194 172.525 238.224 172.311 238.224ZM179.171 238.224C178.424 238.224 177.75 238.063 177.148 237.741C176.551 237.419 176.077 236.971 175.727 236.397C175.377 235.823 175.202 235.163 175.202 234.416C175.202 233.665 175.377 233.004 175.727 232.435C176.077 231.861 176.551 231.413 177.148 231.091C177.745 230.769 178.42 230.608 179.171 230.608C179.918 230.608 180.59 230.769 181.187 231.091C181.789 231.413 182.265 231.861 182.615 232.435C182.965 233.004 183.14 233.665 183.14 234.416C183.14 235.163 182.965 235.823 182.615 236.397C182.265 236.971 181.789 237.419 181.187 237.741C180.59 238.063 179.918 238.224 179.171 238.224ZM179.171 237.314C179.731 237.314 180.23 237.19 180.669 236.943C181.108 236.696 181.453 236.355 181.705 235.921C181.957 235.482 182.083 234.981 182.083 234.416C182.083 233.851 181.957 233.352 181.705 232.918C181.453 232.479 181.108 232.136 180.669 231.889C180.23 231.642 179.731 231.518 179.171 231.518C178.611 231.518 178.112 231.642 177.673 231.889C177.234 232.136 176.889 232.479 176.637 232.918C176.385 233.352 176.259 233.851 176.259 234.416C176.259 234.976 176.385 235.475 176.637 235.914C176.889 236.353 177.234 236.696 177.673 236.943C178.112 237.19 178.611 237.314 179.171 237.314ZM65.3101 254.224C64.6381 254.224 64.0314 254.061 63.4901 253.734C62.9534 253.403 62.5264 252.95 62.2091 252.376C61.8964 251.802 61.7401 251.146 61.7401 250.409C61.7401 249.681 61.8941 249.032 62.2021 248.463C62.5148 247.889 62.9394 247.436 63.4761 247.105C64.0174 246.774 64.6288 246.608 65.3101 246.608C65.9588 246.608 66.5468 246.76 67.0741 247.063C67.6014 247.366 68.0028 247.786 68.2781 248.323V246.832H69.3001V254H68.2781V252.488C67.9701 253.029 67.5571 253.454 67.0391 253.762C66.5211 254.07 65.9448 254.224 65.3101 254.224ZM65.5621 253.335C66.0988 253.335 66.5724 253.211 66.9831 252.964C67.3984 252.712 67.7251 252.367 67.9631 251.928C68.2011 251.485 68.3201 250.981 68.3201 250.416C68.3201 249.847 68.2011 249.343 67.9631 248.904C67.7298 248.465 67.4054 248.122 66.9901 247.875C66.5748 247.623 66.0988 247.497 65.5621 247.497C65.0254 247.497 64.5494 247.623 64.1341 247.875C63.7188 248.122 63.3921 248.465 63.1541 248.904C62.9161 249.343 62.7971 249.847 62.7971 250.416C62.7971 250.981 62.9161 251.485 63.1541 251.928C63.3921 252.367 63.7188 252.712 64.1341 252.964C64.5494 253.211 65.0254 253.335 65.5621 253.335ZM75.6456 254.224C75.1089 254.224 74.6049 254.131 74.1336 253.944C73.6623 253.753 73.2493 253.484 72.8946 253.139C72.5399 252.794 72.2623 252.39 72.0616 251.928C71.8609 251.466 71.7606 250.962 71.7606 250.416C71.7606 249.875 71.8586 249.373 72.0546 248.911C72.2506 248.449 72.5236 248.045 72.8736 247.7C73.2283 247.355 73.6413 247.086 74.1126 246.895C74.5839 246.704 75.0949 246.608 75.6456 246.608C76.1169 246.608 76.5649 246.678 76.9896 246.818C77.4143 246.958 77.7806 247.152 78.0886 247.399L77.6686 248.085C77.1459 247.679 76.5113 247.476 75.7646 247.476C75.1766 247.476 74.6586 247.607 74.2106 247.868C73.7673 248.125 73.4219 248.477 73.1746 248.925C72.9273 249.368 72.8036 249.865 72.8036 250.416C72.8036 250.971 72.9296 251.473 73.1816 251.921C73.4336 252.364 73.7836 252.714 74.2316 252.971C74.6796 253.228 75.1929 253.356 75.7716 253.356C76.1356 253.356 76.4786 253.305 76.8006 253.202C77.1273 253.095 77.4143 252.943 77.6616 252.747L78.0886 253.433C77.7759 253.676 77.4096 253.867 76.9896 254.007C76.5696 254.152 76.1216 254.224 75.6456 254.224ZM83.6436 254.224C83.107 254.224 82.603 254.131 82.1316 253.944C81.6603 253.753 81.2473 253.484 80.8926 253.139C80.538 252.794 80.2603 252.39 80.0596 251.928C79.859 251.466 79.7586 250.962 79.7586 250.416C79.7586 249.875 79.8566 249.373 80.0526 248.911C80.2486 248.449 80.5216 248.045 80.8716 247.7C81.2263 247.355 81.6393 247.086 82.1106 246.895C82.582 246.704 83.093 246.608 83.6436 246.608C84.115 246.608 84.563 246.678 84.9876 246.818C85.4123 246.958 85.7786 247.152 86.0866 247.399L85.6666 248.085C85.144 247.679 84.5093 247.476 83.7626 247.476C83.1746 247.476 82.6566 247.607 82.2086 247.868C81.7653 248.125 81.42 248.477 81.1726 248.925C80.9253 249.368 80.8016 249.865 80.8016 250.416C80.8016 250.971 80.9276 251.473 81.1796 251.921C81.4316 252.364 81.7816 252.714 82.2296 252.971C82.6776 253.228 83.191 253.356 83.7696 253.356C84.1336 253.356 84.4766 253.305 84.7986 253.202C85.1253 253.095 85.4123 252.943 85.6596 252.747L86.0866 253.433C85.774 253.676 85.4076 253.867 84.9876 254.007C84.5676 254.152 84.1196 254.224 83.6436 254.224ZM91.6697 254.224C90.9184 254.224 90.2464 254.058 89.6537 253.727C89.0657 253.396 88.6037 252.945 88.2677 252.376C87.9317 251.802 87.7637 251.158 87.7637 250.444C87.7637 249.907 87.8594 249.408 88.0507 248.946C88.2467 248.479 88.5174 248.071 88.8627 247.721C89.208 247.371 89.6094 247.098 90.0667 246.902C90.524 246.706 91.0117 246.608 91.5297 246.608C92.239 246.608 92.869 246.764 93.4197 247.077C93.975 247.385 94.4137 247.812 94.7357 248.358C95.0624 248.904 95.235 249.534 95.2537 250.248C95.2537 250.304 95.2514 250.351 95.2467 250.388C95.2467 250.421 95.242 250.463 95.2327 250.514H88.7787C88.7787 251.074 88.9047 251.569 89.1567 251.998C89.4087 252.427 89.754 252.766 90.1927 253.013C90.636 253.256 91.1424 253.377 91.7117 253.377C92.253 253.377 92.7384 253.265 93.1677 253.041C93.6017 252.812 93.9634 252.486 94.2527 252.061L95.0087 252.467C94.668 253.022 94.2037 253.454 93.6157 253.762C93.0324 254.07 92.3837 254.224 91.6697 254.224ZM88.8347 249.744H94.2317C94.171 249.296 94.0147 248.902 93.7627 248.561C93.5107 248.216 93.191 247.945 92.8037 247.749C92.421 247.553 92.001 247.455 91.5437 247.455C91.0724 247.455 90.643 247.553 90.2557 247.749C89.8684 247.94 89.5487 248.209 89.2967 248.554C89.0494 248.895 88.8954 249.291 88.8347 249.744ZM99.4686 254.224C98.8759 254.224 98.3532 254.082 97.9006 253.797C97.4479 253.508 97.0956 253.099 96.8436 252.572L97.3896 251.984C97.6136 252.441 97.9052 252.798 98.2646 253.055C98.6239 253.307 99.0229 253.433 99.4616 253.433C99.7556 253.433 100.024 253.372 100.267 253.251C100.514 253.13 100.71 252.957 100.855 252.733C101.004 252.504 101.079 252.234 101.079 251.921C101.079 251.636 101.009 251.412 100.869 251.249C100.733 251.086 100.533 250.946 100.267 250.829C100.005 250.708 99.6786 250.572 99.2866 250.423C98.9832 250.302 98.6892 250.164 98.4046 250.01C98.1199 249.856 97.8842 249.662 97.6976 249.429C97.5156 249.191 97.4246 248.89 97.4246 248.526C97.4246 248.157 97.5226 247.831 97.7186 247.546C97.9146 247.257 98.1852 247.03 98.5306 246.867C98.8759 246.699 99.2679 246.615 99.7066 246.615C100.108 246.615 100.484 246.701 100.834 246.874C101.188 247.047 101.506 247.292 101.786 247.609L101.317 248.204C100.887 247.639 100.353 247.357 99.7136 247.357C99.3216 247.357 99.0019 247.46 98.7546 247.665C98.5119 247.87 98.3906 248.139 98.3906 248.47C98.3906 248.708 98.4676 248.906 98.6216 249.065C98.7756 249.224 98.9762 249.359 99.2236 249.471C99.4756 249.583 99.7462 249.695 100.036 249.807C100.456 249.966 100.82 250.124 101.128 250.283C101.44 250.442 101.683 250.645 101.856 250.892C102.028 251.135 102.115 251.466 102.115 251.886C102.115 252.367 102.003 252.782 101.779 253.132C101.555 253.482 101.242 253.753 100.841 253.944C100.444 254.131 99.9866 254.224 99.4686 254.224ZM104.531 254V246.832H105.553V254H104.531ZM105.049 245.397C104.923 245.397 104.809 245.367 104.706 245.306C104.608 245.245 104.529 245.164 104.468 245.061C104.408 244.958 104.377 244.846 104.377 244.725C104.377 244.604 104.408 244.494 104.468 244.396C104.529 244.293 104.608 244.212 104.706 244.151C104.809 244.09 104.923 244.06 105.049 244.06C105.171 244.06 105.28 244.09 105.378 244.151C105.476 244.212 105.556 244.291 105.616 244.389C105.682 244.487 105.714 244.599 105.714 244.725C105.714 244.846 105.682 244.958 105.616 245.061C105.556 245.164 105.476 245.245 105.378 245.306C105.28 245.367 105.171 245.397 105.049 245.397ZM112.568 254.224C111.934 254.224 111.355 254.07 110.832 253.762C110.31 253.454 109.897 253.029 109.593 252.488V254H108.571V241.96H109.593V248.323C109.887 247.786 110.293 247.366 110.811 247.063C111.329 246.76 111.908 246.608 112.547 246.608C113.233 246.608 113.847 246.774 114.388 247.105C114.93 247.436 115.354 247.889 115.662 248.463C115.975 249.032 116.131 249.683 116.131 250.416C116.131 251.153 115.973 251.809 115.655 252.383C115.343 252.957 114.918 253.407 114.381 253.734C113.845 254.061 113.24 254.224 112.568 254.224ZM112.316 253.335C112.853 253.335 113.329 253.211 113.744 252.964C114.16 252.712 114.484 252.367 114.717 251.928C114.955 251.485 115.074 250.983 115.074 250.423C115.074 249.854 114.955 249.35 114.717 248.911C114.479 248.468 114.153 248.122 113.737 247.875C113.327 247.623 112.853 247.497 112.316 247.497C111.78 247.497 111.304 247.623 110.888 247.875C110.473 248.122 110.146 248.468 109.908 248.911C109.67 249.35 109.551 249.854 109.551 250.423C109.551 250.983 109.668 251.485 109.901 251.928C110.139 252.367 110.466 252.712 110.881 252.964C111.301 253.211 111.78 253.335 112.316 253.335ZM118.634 254V241.96H119.656V254H118.634ZM126.027 254.224C125.276 254.224 124.604 254.058 124.011 253.727C123.423 253.396 122.961 252.945 122.625 252.376C122.289 251.802 122.121 251.158 122.121 250.444C122.121 249.907 122.217 249.408 122.408 248.946C122.604 248.479 122.875 248.071 123.22 247.721C123.565 247.371 123.967 247.098 124.424 246.902C124.881 246.706 125.369 246.608 125.887 246.608C126.596 246.608 127.226 246.764 127.777 247.077C128.332 247.385 128.771 247.812 129.093 248.358C129.42 248.904 129.592 249.534 129.611 250.248C129.611 250.304 129.609 250.351 129.604 250.388C129.604 250.421 129.599 250.463 129.59 250.514H123.136C123.136 251.074 123.262 251.569 123.514 251.998C123.766 252.427 124.111 252.766 124.55 253.013C124.993 253.256 125.5 253.377 126.069 253.377C126.61 253.377 127.096 253.265 127.525 253.041C127.959 252.812 128.321 252.486 128.61 252.061L129.366 252.467C129.025 253.022 128.561 253.454 127.973 253.762C127.39 254.07 126.741 254.224 126.027 254.224ZM123.192 249.744H128.589C128.528 249.296 128.372 248.902 128.12 248.561C127.868 248.216 127.548 247.945 127.161 247.749C126.778 247.553 126.358 247.455 125.901 247.455C125.43 247.455 125 247.553 124.613 247.749C124.226 247.94 123.906 248.209 123.654 248.554C123.407 248.895 123.253 249.291 123.192 249.744ZM135.614 257.64V246.832H136.636V248.316C136.926 247.779 137.329 247.362 137.847 247.063C138.37 246.76 138.949 246.608 139.583 246.608C140.269 246.608 140.883 246.774 141.424 247.105C141.966 247.436 142.393 247.889 142.705 248.463C143.018 249.032 143.174 249.683 143.174 250.416C143.174 251.139 143.018 251.79 142.705 252.369C142.397 252.943 141.973 253.396 141.431 253.727C140.895 254.058 140.283 254.224 139.597 254.224C138.972 254.224 138.398 254.07 137.875 253.762C137.353 253.454 136.94 253.029 136.636 252.488V257.64H135.614ZM139.359 253.335C139.896 253.335 140.372 253.211 140.787 252.964C141.203 252.712 141.527 252.367 141.76 251.928C141.998 251.489 142.117 250.988 142.117 250.423C142.117 249.854 141.998 249.35 141.76 248.911C141.522 248.468 141.196 248.122 140.78 247.875C140.37 247.623 139.896 247.497 139.359 247.497C138.823 247.497 138.347 247.623 137.931 247.875C137.516 248.122 137.189 248.465 136.951 248.904C136.713 249.343 136.594 249.847 136.594 250.416C136.594 250.981 136.713 251.485 136.951 251.928C137.189 252.367 137.516 252.712 137.931 252.964C138.351 253.211 138.827 253.335 139.359 253.335ZM148.736 254.224C148.064 254.224 147.457 254.061 146.916 253.734C146.379 253.403 145.952 252.95 145.635 252.376C145.322 251.802 145.166 251.146 145.166 250.409C145.166 249.681 145.32 249.032 145.628 248.463C145.941 247.889 146.365 247.436 146.902 247.105C147.443 246.774 148.055 246.608 148.736 246.608C149.385 246.608 149.973 246.76 150.5 247.063C151.027 247.366 151.429 247.786 151.704 248.323V246.832H152.726V254H151.704V252.488C151.396 253.029 150.983 253.454 150.465 253.762C149.947 254.07 149.371 254.224 148.736 254.224ZM148.988 253.335C149.525 253.335 149.998 253.211 150.409 252.964C150.824 252.712 151.151 252.367 151.389 251.928C151.627 251.485 151.746 250.981 151.746 250.416C151.746 249.847 151.627 249.343 151.389 248.904C151.156 248.465 150.831 248.122 150.416 247.875C150.001 247.623 149.525 247.497 148.988 247.497C148.451 247.497 147.975 247.623 147.56 247.875C147.145 248.122 146.818 248.465 146.58 248.904C146.342 249.343 146.223 249.847 146.223 250.416C146.223 250.981 146.342 251.485 146.58 251.928C146.818 252.367 147.145 252.712 147.56 252.964C147.975 253.211 148.451 253.335 148.988 253.335ZM155.739 254V246.832H156.761V247.889C156.99 247.469 157.284 247.152 157.643 246.937C158.007 246.718 158.427 246.608 158.903 246.608C159.113 246.608 159.326 246.631 159.54 246.678C159.76 246.725 159.949 246.785 160.107 246.86L159.687 247.721C159.547 247.651 159.386 247.597 159.204 247.56C159.027 247.523 158.857 247.504 158.693 247.504C158.362 247.504 158.049 247.588 157.755 247.756C157.461 247.924 157.221 248.143 157.034 248.414C156.852 248.68 156.761 248.965 156.761 249.268V254H155.739ZM164.937 254.224C164.265 254.224 163.658 254.061 163.117 253.734C162.58 253.403 162.153 252.95 161.836 252.376C161.523 251.802 161.367 251.146 161.367 250.409C161.367 249.681 161.521 249.032 161.829 248.463C162.142 247.889 162.566 247.436 163.103 247.105C163.644 246.774 164.256 246.608 164.937 246.608C165.586 246.608 166.174 246.76 166.701 247.063C167.228 247.366 167.63 247.786 167.905 248.323V246.832H168.927V254H167.905V252.488C167.597 253.029 167.184 253.454 166.666 253.762C166.148 254.07 165.572 254.224 164.937 254.224ZM165.189 253.335C165.726 253.335 166.199 253.211 166.61 252.964C167.025 252.712 167.352 252.367 167.59 251.928C167.828 251.485 167.947 250.981 167.947 250.416C167.947 249.847 167.828 249.343 167.59 248.904C167.357 248.465 167.032 248.122 166.617 247.875C166.202 247.623 165.726 247.497 165.189 247.497C164.652 247.497 164.176 247.623 163.761 247.875C163.346 248.122 163.019 248.465 162.781 248.904C162.543 249.343 162.424 249.847 162.424 250.416C162.424 250.981 162.543 251.485 162.781 251.928C163.019 252.367 163.346 252.712 163.761 252.964C164.176 253.211 164.652 253.335 165.189 253.335ZM177.321 254.224C176.785 254.224 176.367 254.044 176.068 253.685C175.774 253.321 175.627 252.81 175.627 252.152V247.602H174.899V246.832H175.627V244.151H176.649V246.832H178.434V247.602H176.649V252.096C176.649 252.493 176.726 252.796 176.88 253.006C177.034 253.216 177.254 253.321 177.538 253.321C177.814 253.321 178.056 253.244 178.266 253.09L178.525 253.902C178.367 254 178.18 254.077 177.965 254.133C177.751 254.194 177.536 254.224 177.321 254.224ZM184.182 254.224C183.435 254.224 182.761 254.063 182.159 253.741C181.562 253.419 181.088 252.971 180.738 252.397C180.388 251.823 180.213 251.163 180.213 250.416C180.213 249.665 180.388 249.004 180.738 248.435C181.088 247.861 181.562 247.413 182.159 247.091C182.756 246.769 183.431 246.608 184.182 246.608C184.929 246.608 185.601 246.769 186.198 247.091C186.8 247.413 187.276 247.861 187.626 248.435C187.976 249.004 188.151 249.665 188.151 250.416C188.151 251.163 187.976 251.823 187.626 252.397C187.276 252.971 186.8 253.419 186.198 253.741C185.601 254.063 184.929 254.224 184.182 254.224ZM184.182 253.314C184.742 253.314 185.241 253.19 185.68 252.943C186.119 252.696 186.464 252.355 186.716 251.921C186.968 251.482 187.094 250.981 187.094 250.416C187.094 249.851 186.968 249.352 186.716 248.918C186.464 248.479 186.119 248.136 185.68 247.889C185.241 247.642 184.742 247.518 184.182 247.518C183.622 247.518 183.123 247.642 182.684 247.889C182.245 248.136 181.9 248.479 181.648 248.918C181.396 249.352 181.27 249.851 181.27 250.416C181.27 250.976 181.396 251.475 181.648 251.914C181.9 252.353 182.245 252.696 182.684 252.943C183.123 253.19 183.622 253.314 184.182 253.314ZM193.675 254.224C193.003 254.224 192.397 254.061 191.855 253.734C191.319 253.407 190.892 252.957 190.574 252.383C190.262 251.809 190.105 251.153 190.105 250.416C190.105 249.683 190.262 249.032 190.574 248.463C190.887 247.889 191.312 247.436 191.848 247.105C192.39 246.774 193.003 246.608 193.689 246.608C194.329 246.608 194.907 246.76 195.425 247.063C195.943 247.366 196.349 247.786 196.643 248.323V241.953H197.665V254H196.643V252.488C196.34 253.029 195.927 253.454 195.404 253.762C194.886 254.07 194.31 254.224 193.675 254.224ZM193.92 253.335C194.457 253.335 194.933 253.211 195.348 252.964C195.764 252.712 196.09 252.367 196.328 251.928C196.566 251.485 196.685 250.983 196.685 250.423C196.685 249.854 196.566 249.35 196.328 248.911C196.095 248.468 195.768 248.122 195.348 247.875C194.933 247.623 194.457 247.497 193.92 247.497C193.388 247.497 192.915 247.623 192.499 247.875C192.084 248.122 191.757 248.468 191.519 248.911C191.281 249.35 191.162 249.854 191.162 250.423C191.162 250.988 191.279 251.489 191.512 251.928C191.75 252.367 192.077 252.712 192.492 252.964C192.912 253.211 193.388 253.335 193.92 253.335ZM204.102 254.224C203.355 254.224 202.681 254.063 202.079 253.741C201.481 253.419 201.008 252.971 200.658 252.397C200.308 251.823 200.133 251.163 200.133 250.416C200.133 249.665 200.308 249.004 200.658 248.435C201.008 247.861 201.481 247.413 202.079 247.091C202.676 246.769 203.35 246.608 204.102 246.608C204.848 246.608 205.52 246.769 206.118 247.091C206.72 247.413 207.196 247.861 207.546 248.435C207.896 249.004 208.071 249.665 208.071 250.416C208.071 251.163 207.896 251.823 207.546 252.397C207.196 252.971 206.72 253.419 206.118 253.741C205.52 254.063 204.848 254.224 204.102 254.224ZM204.102 253.314C204.662 253.314 205.161 253.19 205.6 252.943C206.038 252.696 206.384 252.355 206.636 251.921C206.888 251.482 207.014 250.981 207.014 250.416C207.014 249.851 206.888 249.352 206.636 248.918C206.384 248.479 206.038 248.136 205.6 247.889C205.161 247.642 204.662 247.518 204.102 247.518C203.542 247.518 203.042 247.642 202.604 247.889C202.165 248.136 201.82 248.479 201.568 248.918C201.316 249.352 201.19 249.851 201.19 250.416C201.19 250.976 201.316 251.475 201.568 251.914C201.82 252.353 202.165 252.696 202.604 252.943C203.042 253.19 203.542 253.314 204.102 253.314ZM212.344 254.224C211.751 254.224 211.228 254.082 210.776 253.797C210.323 253.508 209.971 253.099 209.719 252.572L210.265 251.984C210.489 252.441 210.78 252.798 211.14 253.055C211.499 253.307 211.898 253.433 212.337 253.433C212.631 253.433 212.899 253.372 213.142 253.251C213.389 253.13 213.585 252.957 213.73 252.733C213.879 252.504 213.954 252.234 213.954 251.921C213.954 251.636 213.884 251.412 213.744 251.249C213.608 251.086 213.408 250.946 213.142 250.829C212.88 250.708 212.554 250.572 212.162 250.423C211.858 250.302 211.564 250.164 211.28 250.01C210.995 249.856 210.759 249.662 210.573 249.429C210.391 249.191 210.3 248.89 210.3 248.526C210.3 248.157 210.398 247.831 210.594 247.546C210.79 247.257 211.06 247.03 211.406 246.867C211.751 246.699 212.143 246.615 212.582 246.615C212.983 246.615 213.359 246.701 213.709 246.874C214.063 247.047 214.381 247.292 214.661 247.609L214.192 248.204C213.762 247.639 213.228 247.357 212.589 247.357C212.197 247.357 211.877 247.46 211.63 247.665C211.387 247.87 211.266 248.139 211.266 248.47C211.266 248.708 211.343 248.906 211.497 249.065C211.651 249.224 211.851 249.359 212.099 249.471C212.351 249.583 212.621 249.695 212.911 249.807C213.331 249.966 213.695 250.124 214.003 250.283C214.315 250.442 214.558 250.645 214.731 250.892C214.903 251.135 214.99 251.466 214.99 251.886C214.99 252.367 214.878 252.782 214.654 253.132C214.43 253.482 214.117 253.753 213.716 253.944C213.319 254.131 212.862 254.224 212.344 254.224ZM218.582 254.224C218.447 254.224 218.323 254.191 218.211 254.126C218.104 254.061 218.018 253.974 217.952 253.867C217.892 253.755 217.861 253.634 217.861 253.503C217.861 253.372 217.892 253.253 217.952 253.146C218.018 253.039 218.106 252.952 218.218 252.887C218.33 252.822 218.449 252.789 218.575 252.789C218.711 252.789 218.832 252.822 218.939 252.887C219.047 252.952 219.131 253.039 219.191 253.146C219.257 253.253 219.289 253.372 219.289 253.503C219.289 253.634 219.257 253.755 219.191 253.867C219.131 253.974 219.047 254.061 218.939 254.126C218.832 254.191 218.713 254.224 218.582 254.224Z" fill="black"/>
<path d="M107.109 143V133.925H109.287C109.932 133.925 110.532 134.04 111.085 134.271C111.639 134.502 112.123 134.825 112.537 135.239C112.955 135.65 113.28 136.132 113.511 136.686C113.745 137.236 113.863 137.83 113.863 138.468C113.863 139.106 113.747 139.7 113.516 140.25C113.285 140.8 112.961 141.282 112.543 141.696C112.128 142.107 111.643 142.428 111.085 142.659C110.532 142.886 109.932 143 109.287 143H107.109ZM108.225 141.999H109.177C109.672 141.999 110.132 141.911 110.557 141.735C110.983 141.555 111.353 141.306 111.668 140.987C111.987 140.664 112.235 140.288 112.411 139.859C112.587 139.43 112.675 138.965 112.675 138.462C112.675 137.96 112.587 137.494 112.411 137.066C112.235 136.636 111.987 136.262 111.668 135.943C111.353 135.624 110.983 135.375 110.557 135.195C110.132 135.016 109.672 134.926 109.177 134.926H108.225V141.999ZM116.078 143V133.925H117.195V143H116.078ZM124.009 143.176C123.327 143.176 122.69 143.057 122.1 142.819C121.513 142.576 120.998 142.243 120.555 141.817C120.115 141.388 119.772 140.888 119.526 140.316C119.28 139.744 119.158 139.128 119.158 138.468C119.158 137.808 119.28 137.192 119.526 136.62C119.775 136.048 120.12 135.549 120.56 135.124C121 134.695 121.513 134.361 122.1 134.123C122.687 133.881 123.321 133.76 124.003 133.76C124.568 133.76 125.099 133.842 125.598 134.007C126.1 134.169 126.539 134.391 126.913 134.673L126.407 135.613C126.106 135.371 125.754 135.186 125.351 135.058C124.947 134.926 124.522 134.86 124.075 134.86C123.536 134.86 123.041 134.952 122.59 135.135C122.139 135.318 121.746 135.575 121.413 135.905C121.083 136.231 120.826 136.614 120.643 137.054C120.463 137.491 120.373 137.962 120.373 138.468C120.373 138.974 120.463 139.447 120.643 139.887C120.826 140.323 121.083 140.706 121.413 141.036C121.746 141.363 122.139 141.618 122.59 141.801C123.041 141.984 123.536 142.076 124.075 142.076C124.522 142.076 124.947 142.012 125.351 141.883C125.754 141.751 126.106 141.564 126.407 141.322L126.913 142.263C126.546 142.538 126.113 142.76 125.615 142.928C125.116 143.094 124.581 143.176 124.009 143.176ZM128.733 143V133.925H129.849V143H128.733ZM132.664 143V133.925H135.238C135.832 133.925 136.349 134.028 136.789 134.233C137.229 134.438 137.57 134.735 137.812 135.124C138.058 135.513 138.181 135.986 138.181 136.543C138.181 137.093 138.058 137.573 137.812 137.984C137.57 138.391 137.229 138.706 136.789 138.93C136.349 139.154 135.832 139.265 135.238 139.265H133.781V143H132.664ZM133.781 138.347H134.936C135.347 138.347 135.708 138.277 136.019 138.138C136.335 137.999 136.58 137.797 136.756 137.533C136.936 137.269 137.026 136.948 137.026 136.57C137.026 136.189 136.936 135.87 136.756 135.613C136.58 135.353 136.335 135.157 136.019 135.025C135.708 134.893 135.347 134.827 134.936 134.827H133.781V138.347ZM140.27 143V133.925H141.386V142.015H145.033V143H140.27ZM146.93 143V133.925H148.046V143H146.93ZM150.862 143V133.925H151.978L156.565 141.113V133.925H157.682V143H156.565L151.978 135.817V143H150.862ZM159.54 143L163.132 133.925H164.171L167.763 143H166.558L165.552 140.354H161.751L160.739 143H159.54ZM162.131 139.37H165.172L163.649 135.415L162.131 139.37ZM169.617 143V133.925H171.795C172.441 133.925 173.04 134.04 173.594 134.271C174.148 134.502 174.632 134.825 175.046 135.239C175.464 135.65 175.788 136.132 176.019 136.686C176.254 137.236 176.371 137.83 176.371 138.468C176.371 139.106 176.256 139.7 176.025 140.25C175.794 140.8 175.469 141.282 175.051 141.696C174.637 142.107 174.151 142.428 173.594 142.659C173.04 142.886 172.441 143 171.795 143H169.617ZM170.734 141.999H171.685C172.18 141.999 172.641 141.911 173.066 141.735C173.491 141.555 173.862 141.306 174.177 140.987C174.496 140.664 174.743 140.288 174.919 139.859C175.095 139.43 175.183 138.965 175.183 138.462C175.183 137.96 175.095 137.494 174.919 137.066C174.743 136.636 174.496 136.262 174.177 135.943C173.862 135.624 173.491 135.375 173.066 135.195C172.641 135.016 172.18 134.926 171.685 134.926H170.734V141.999ZM177.63 143L181.222 133.925H182.261L185.853 143H184.648L183.642 140.354H179.841L178.829 143H177.63ZM180.221 139.37H183.262L181.739 135.415L180.221 139.37Z" fill="black"/>
<g filter="url(#filter1_d_1202_168)">
<path d="M140.723 104.687C156.892 104.687 170 91.5795 170 75.41C170 59.2405 156.892 46.1326 140.723 46.1326C124.553 46.1326 111.445 59.2405 111.445 75.41C111.445 91.5795 124.553 104.687 140.723 104.687Z" fill="#4EADAF"/>
<path d="M149.942 46.0232C150.425 45.6179 151.044 45.0781 151.316 44.1765C151.411 43.862 151.662 43.0281 151.273 42.5874C150.677 41.9119 148.742 42.342 147.494 43.2746C146.778 43.8093 145.612 45.0141 145.218 45.4219C144.84 45.8125 144.494 46.1877 144.359 46.1091C144.176 46.0027 144.669 45.243 144.745 44.1341C144.825 42.978 144.408 42.094 143.972 41.1716C143.537 40.2492 143.134 39.3956 142.512 39.3667C142.138 39.3495 141.847 39.6388 141.567 39.9248C141.322 40.1753 140.818 40.758 140.279 42.6737C140.006 43.6418 139.784 44.4333 139.678 45.551C139.641 45.9281 139.613 46.4079 139.549 46.4101C139.427 46.4138 139.707 44.675 138.817 43.4476C138.184 42.5724 137.214 42.3109 135.855 41.9444C134.912 41.6906 132.437 41.0235 131.861 41.9444C131.47 42.5695 132.117 43.6667 132.29 43.9629C132.667 44.6037 133.14 44.9731 133.708 45.3802C135.09 46.3721 135.781 46.8676 136.843 47.3552C139.176 48.4272 142.975 50.1736 146.462 48.6437C147.21 48.3163 148.121 47.5523 149.942 46.0232Z" fill="#387777"/>
<path d="M152.495 48.421C153.179 47.8475 154.056 47.0842 154.44 45.8082C154.574 45.3631 154.929 44.1835 154.379 43.5596C153.536 42.6039 150.798 43.2125 149.032 44.5317C148.018 45.2888 146.369 46.9932 145.811 47.5703C145.276 48.1229 144.787 48.654 144.596 48.5424C144.337 48.3925 145.035 47.3172 145.144 45.7471C145.257 44.1115 144.667 42.8603 144.05 41.5542C143.434 40.2482 142.862 39.042 141.984 39.001C141.455 38.9769 141.043 39.3861 140.648 39.791C140.301 40.1451 139.587 40.9694 138.825 43.6799C138.437 45.0511 138.122 46.1695 137.972 47.7524C137.921 48.2857 137.881 48.9652 137.789 48.9678C137.616 48.9733 138.013 46.5129 136.756 44.7749C135.86 43.5366 134.488 43.1657 132.563 42.6482C131.228 42.2887 127.726 41.3447 126.911 42.6482C126.359 43.5322 127.272 45.0847 127.519 45.5042C128.053 46.4109 128.721 46.9332 129.525 47.5096C131.48 48.9126 132.458 49.614 133.961 50.3049C137.261 51.822 142.638 54.2915 147.572 52.1278C148.63 51.6644 149.918 50.5833 152.495 48.421Z" fill="#4EADAF"/>
<path d="M123.24 76.2707C129.466 75.9902 134.296 70.9564 134.029 65.0275C133.762 59.0986 128.498 54.5196 122.273 54.8002C116.047 55.0807 111.217 60.1144 111.484 66.0434C111.751 71.9723 117.014 76.5512 123.24 76.2707Z" fill="#E2E2E2"/>
<path d="M126.485 74.1279C130.74 73.9152 134.024 70.4581 133.822 66.4063C133.619 62.3546 130.006 59.2424 125.751 59.4552C121.497 59.6679 118.212 63.1249 118.415 67.1767C118.617 71.2285 122.23 74.3406 126.485 74.1279Z" fill="black"/>
<path d="M124.152 62.3019C124.458 61.263 123.203 59.9773 121.347 59.4302C119.492 58.8831 117.74 59.2818 117.433 60.3206C117.127 61.3595 118.383 62.6452 120.238 63.1923C122.093 63.7394 123.846 63.3407 124.152 62.3019Z" fill="white"/>
<path d="M158.364 75.5737C164.589 75.2931 169.424 70.3528 169.162 64.5391C168.9 58.7254 163.641 54.2398 157.415 54.5204C151.189 54.8009 146.355 59.7413 146.617 65.555C146.878 71.3687 152.138 75.8542 158.364 75.5737Z" fill="#E2E2E2"/>
<path d="M154.659 72.9033C158.909 72.7118 162.209 69.3391 162.031 65.3701C161.852 61.4011 158.261 58.3389 154.011 58.5304C149.761 58.7219 146.46 62.0947 146.639 66.0636C146.818 70.0326 150.408 73.0948 154.659 72.9033Z" fill="black"/>
<path d="M160.21 63.1914C161.977 62.4061 163.059 60.9823 162.627 60.0112C162.195 59.0402 160.413 58.8896 158.647 59.675C156.881 60.4603 155.799 61.8841 156.23 62.8551C156.662 63.8262 158.444 63.9767 160.21 63.1914Z" fill="white"/>
</g>
<defs>
<filter id="filter0_d_1202_168" x="0" y="0" width="284" height="362" filterUnits="userSpaceOnUse" color-interpolation-filters="sRGB">
<feFlood flood-opacity="0" result="BackgroundImageFix"/>
<feColorMatrix in="SourceAlpha" type="matrix" values="0 0 0 0 0 0 0 0 0 0 0 0 0 0 0 0 0 0 127 0" result="hardAlpha"/>
<feOffset dy="12"/>
<feGaussianBlur stdDeviation="12"/>
<feComposite in2="hardAlpha" operator="out"/>
<feColorMatrix type="matrix" values="0 0 0 0 0.486275 0 0 0 0 0.419608 0 0 0 0 0.686275 0 0 0 0.22 0"/>
<feBlend mode="normal" in2="BackgroundImageFix" result="effect1_dropShadow_1202_168"/>
<feBlend mode="normal" in="SourceGraphic" in2="effect1_dropShadow_1202_168" result="shape"/>
</filter>
<filter id="filter1_d_1202_168" x="111.445" y="35" width="66.5549" height="73.6875" filterUnits="userSpaceOnUse" color-interpolation-filters="sRGB">
<feFlood flood-opacity="0" result="BackgroundImageFix"/>
<feColorMatrix in="SourceAlpha" type="matrix" values="0 0 0 0 0 0 0 0 0 0 0 0 0 0 0 0 0 0 127 0" result="hardAlpha"/>
<feOffset dx="4"/>
<feGaussianBlur stdDeviation="2"/>
<feComposite in2="hardAlpha" operator="out"/>
<feColorMatrix type="matrix" values="0 0 0 0 0.870833 0 0 0 0 0.845434 0 0 0 0 0.845434 0 0 0 0.76 0"/>
<feBlend mode="normal" in2="BackgroundImageFix" result="effect1_dropShadow_1202_168"/>
<feBlend mode="normal" in="SourceGraphic" in2="effect1_dropShadow_1202_168" result="shape"/>
</filter>
</defs>
</svg>
