<svg width="312" height="336" viewBox="0 0 312 336" fill="none" xmlns="http://www.w3.org/2000/svg">
<rect y="176" width="312" height="160" rx="29" fill="#F3BD37"/>
<rect x="17" y="192" width="103" height="128" rx="29" fill="white" fill-opacity="0.5"/>
<path d="M136.504 311V310.716C137.117 310.236 137.645 309.811 138.088 309.44C138.531 309.067 138.901 308.736 139.2 308.448C139.499 308.16 139.736 307.901 139.912 307.672C140.088 307.443 140.213 307.231 140.288 307.036C140.363 306.841 140.4 306.649 140.4 306.46C140.4 306.161 140.328 305.891 140.184 305.648C140.043 305.405 139.852 305.212 139.612 305.068C139.372 304.924 139.105 304.852 138.812 304.852C138.519 304.852 138.252 304.924 138.012 305.068C137.772 305.212 137.575 305.409 137.42 305.66C137.265 305.911 137.173 306.199 137.144 306.524L136.596 306.34C136.625 306.047 136.701 305.775 136.824 305.524C136.949 305.273 137.112 305.055 137.312 304.868C137.515 304.681 137.745 304.536 138.004 304.432C138.263 304.328 138.541 304.276 138.84 304.276C139.253 304.276 139.628 304.372 139.964 304.564C140.3 304.753 140.567 305.012 140.764 305.34C140.961 305.668 141.06 306.039 141.06 306.452C141.06 306.665 141.028 306.875 140.964 307.08C140.9 307.285 140.792 307.5 140.64 307.724C140.491 307.948 140.289 308.192 140.036 308.456C139.783 308.717 139.467 309.009 139.088 309.332C138.712 309.655 138.263 310.02 137.74 310.428H141.18V311H136.504ZM145.189 311.128C144.65 311.128 144.178 310.985 143.773 310.7C143.37 310.412 143.057 310.011 142.833 309.496C142.609 308.981 142.497 308.384 142.497 307.704C142.497 307.021 142.609 306.424 142.833 305.912C143.057 305.397 143.37 304.997 143.773 304.712C144.178 304.424 144.65 304.28 145.189 304.28C145.727 304.28 146.198 304.424 146.601 304.712C147.003 304.997 147.317 305.397 147.541 305.912C147.767 306.424 147.881 307.021 147.881 307.704C147.881 308.384 147.767 308.981 147.541 309.496C147.317 310.011 147.003 310.412 146.601 310.7C146.198 310.985 145.727 311.128 145.189 311.128ZM145.189 310.58C145.599 310.58 145.958 310.461 146.265 310.224C146.571 309.987 146.81 309.652 146.981 309.22C147.151 308.788 147.237 308.283 147.237 307.704C147.237 307.123 147.151 306.617 146.981 306.188C146.81 305.756 146.571 305.421 146.265 305.184C145.958 304.947 145.599 304.828 145.189 304.828C144.778 304.828 144.418 304.947 144.109 305.184C143.802 305.421 143.563 305.756 143.393 306.188C143.225 306.617 143.141 307.123 143.141 307.704C143.141 308.283 143.225 308.788 143.393 309.22C143.563 309.652 143.802 309.987 144.109 310.224C144.418 310.461 144.778 310.58 145.189 310.58ZM149.067 311V310.716C149.68 310.236 150.208 309.811 150.651 309.44C151.093 309.067 151.464 308.736 151.763 308.448C152.061 308.16 152.299 307.901 152.475 307.672C152.651 307.443 152.776 307.231 152.851 307.036C152.925 306.841 152.963 306.649 152.963 306.46C152.963 306.161 152.891 305.891 152.747 305.648C152.605 305.405 152.415 305.212 152.175 305.068C151.935 304.924 151.668 304.852 151.375 304.852C151.081 304.852 150.815 304.924 150.575 305.068C150.335 305.212 150.137 305.409 149.983 305.66C149.828 305.911 149.736 306.199 149.707 306.524L149.159 306.34C149.188 306.047 149.264 305.775 149.387 305.524C149.512 305.273 149.675 305.055 149.875 304.868C150.077 304.681 150.308 304.536 150.567 304.432C150.825 304.328 151.104 304.276 151.403 304.276C151.816 304.276 152.191 304.372 152.527 304.564C152.863 304.753 153.129 305.012 153.327 305.34C153.524 305.668 153.623 306.039 153.623 306.452C153.623 306.665 153.591 306.875 153.527 307.08C153.463 307.285 153.355 307.5 153.203 307.724C153.053 307.948 152.852 308.192 152.599 308.456C152.345 308.717 152.029 309.009 151.651 309.332C151.275 309.655 150.825 310.02 150.303 310.428H153.743V311H149.067ZM154.879 311V310.716C155.492 310.236 156.02 309.811 156.463 309.44C156.906 309.067 157.276 308.736 157.575 308.448C157.874 308.16 158.111 307.901 158.287 307.672C158.463 307.443 158.588 307.231 158.663 307.036C158.738 306.841 158.775 306.649 158.775 306.46C158.775 306.161 158.703 305.891 158.559 305.648C158.418 305.405 158.227 305.212 157.987 305.068C157.747 304.924 157.48 304.852 157.187 304.852C156.894 304.852 156.627 304.924 156.387 305.068C156.147 305.212 155.95 305.409 155.795 305.66C155.64 305.911 155.548 306.199 155.519 306.524L154.971 306.34C155 306.047 155.076 305.775 155.199 305.524C155.324 305.273 155.487 305.055 155.687 304.868C155.89 304.681 156.12 304.536 156.379 304.432C156.638 304.328 156.916 304.276 157.215 304.276C157.628 304.276 158.003 304.372 158.339 304.564C158.675 304.753 158.942 305.012 159.139 305.34C159.336 305.668 159.435 306.039 159.435 306.452C159.435 306.665 159.403 306.875 159.339 307.08C159.275 307.285 159.167 307.5 159.015 307.724C158.866 307.948 158.664 308.192 158.411 308.456C158.158 308.717 157.842 309.009 157.463 309.332C157.087 309.655 156.638 310.02 156.115 310.428H159.555V311H154.879Z" fill="white"/>
<path d="M139.196 296L136.428 289.4H137.116L139.436 295.084L141.752 289.4H142.44L139.672 296H139.196ZM145.998 296V289.4H147.486C147.953 289.4 148.387 289.484 148.79 289.652C149.195 289.82 149.549 290.055 149.85 290.356C150.151 290.655 150.387 291.004 150.558 291.404C150.729 291.804 150.814 292.237 150.814 292.704C150.814 293.168 150.73 293.6 150.562 294C150.394 294.4 150.158 294.751 149.854 295.052C149.553 295.351 149.199 295.584 148.794 295.752C148.391 295.917 147.955 296 147.486 296H145.998ZM146.606 295.456H147.43C147.819 295.456 148.179 295.387 148.51 295.248C148.843 295.107 149.134 294.912 149.382 294.664C149.633 294.413 149.827 294.121 149.966 293.788C150.105 293.452 150.174 293.089 150.174 292.7C150.174 292.311 150.105 291.949 149.966 291.616C149.827 291.283 149.633 290.991 149.382 290.74C149.134 290.489 148.843 290.295 148.51 290.156C148.177 290.015 147.817 289.944 147.43 289.944H146.606V295.456ZM152.333 296V291.904H152.917V296H152.333ZM152.629 291.084C152.557 291.084 152.491 291.067 152.433 291.032C152.377 290.997 152.331 290.951 152.297 290.892C152.262 290.833 152.245 290.769 152.245 290.7C152.245 290.631 152.262 290.568 152.297 290.512C152.331 290.453 152.377 290.407 152.433 290.372C152.491 290.337 152.557 290.32 152.629 290.32C152.698 290.32 152.761 290.337 152.817 290.372C152.873 290.407 152.918 290.452 152.953 290.508C152.99 290.564 153.009 290.628 153.009 290.7C153.009 290.769 152.99 290.833 152.953 290.892C152.918 290.951 152.873 290.997 152.817 291.032C152.761 291.067 152.698 291.084 152.629 291.084ZM155.705 296.128C155.367 296.128 155.068 296.047 154.809 295.884C154.551 295.719 154.349 295.485 154.205 295.184L154.517 294.848C154.645 295.109 154.812 295.313 155.017 295.46C155.223 295.604 155.451 295.676 155.701 295.676C155.869 295.676 156.023 295.641 156.161 295.572C156.303 295.503 156.415 295.404 156.497 295.276C156.583 295.145 156.625 294.991 156.625 294.812C156.625 294.649 156.585 294.521 156.505 294.428C156.428 294.335 156.313 294.255 156.161 294.188C156.012 294.119 155.825 294.041 155.601 293.956C155.428 293.887 155.26 293.808 155.097 293.72C154.935 293.632 154.8 293.521 154.693 293.388C154.589 293.252 154.537 293.08 154.537 292.872C154.537 292.661 154.593 292.475 154.705 292.312C154.817 292.147 154.972 292.017 155.169 291.924C155.367 291.828 155.591 291.78 155.841 291.78C156.071 291.78 156.285 291.829 156.485 291.928C156.688 292.027 156.869 292.167 157.029 292.348L156.761 292.688C156.516 292.365 156.211 292.204 155.845 292.204C155.621 292.204 155.439 292.263 155.297 292.38C155.159 292.497 155.089 292.651 155.089 292.84C155.089 292.976 155.133 293.089 155.221 293.18C155.309 293.271 155.424 293.348 155.565 293.412C155.709 293.476 155.864 293.54 156.029 293.604C156.269 293.695 156.477 293.785 156.653 293.876C156.832 293.967 156.971 294.083 157.069 294.224C157.168 294.363 157.217 294.552 157.217 294.792C157.217 295.067 157.153 295.304 157.025 295.504C156.897 295.704 156.719 295.859 156.489 295.968C156.263 296.075 156.001 296.128 155.705 296.128ZM160.522 296.128C160.093 296.128 159.709 296.033 159.37 295.844C159.034 295.655 158.77 295.397 158.578 295.072C158.386 294.744 158.29 294.376 158.29 293.968C158.29 293.661 158.345 293.376 158.454 293.112C158.566 292.845 158.721 292.612 158.918 292.412C159.116 292.212 159.345 292.056 159.606 291.944C159.868 291.832 160.146 291.776 160.442 291.776C160.848 291.776 161.208 291.865 161.522 292.044C161.84 292.22 162.09 292.464 162.274 292.776C162.461 293.088 162.56 293.448 162.57 293.856C162.57 293.888 162.569 293.915 162.566 293.936C162.566 293.955 162.564 293.979 162.558 294.008H158.87C158.87 294.328 158.942 294.611 159.086 294.856C159.23 295.101 159.428 295.295 159.678 295.436C159.932 295.575 160.221 295.644 160.546 295.644C160.856 295.644 161.133 295.58 161.378 295.452C161.626 295.321 161.833 295.135 161.998 294.892L162.43 295.124C162.236 295.441 161.97 295.688 161.634 295.864C161.301 296.04 160.93 296.128 160.522 296.128ZM158.902 293.568H161.986C161.952 293.312 161.862 293.087 161.718 292.892C161.574 292.695 161.392 292.54 161.17 292.428C160.952 292.316 160.712 292.26 160.45 292.26C160.181 292.26 159.936 292.316 159.714 292.428C159.493 292.537 159.31 292.691 159.166 292.888C159.025 293.083 158.937 293.309 158.902 293.568ZM163.946 296V291.904H164.53V292.464C164.642 292.272 164.815 292.109 165.05 291.976C165.285 291.843 165.571 291.776 165.91 291.776C166.227 291.776 166.501 291.841 166.73 291.972C166.959 292.103 167.135 292.293 167.258 292.544C167.381 292.792 167.442 293.092 167.442 293.444V296H166.858V293.556C166.858 293.132 166.759 292.809 166.562 292.588C166.365 292.364 166.086 292.252 165.726 292.252C165.475 292.252 165.261 292.303 165.082 292.404C164.906 292.503 164.77 292.635 164.674 292.8C164.578 292.963 164.53 293.14 164.53 293.332V296H163.946ZM166.554 290.808C166.383 290.808 166.231 290.776 166.098 290.712C165.967 290.645 165.843 290.569 165.726 290.484C165.609 290.399 165.487 290.324 165.362 290.26C165.239 290.196 165.099 290.164 164.942 290.164C164.731 290.164 164.554 290.227 164.41 290.352C164.269 290.475 164.157 290.617 164.074 290.78L163.754 290.496C163.877 290.275 164.039 290.088 164.242 289.936C164.445 289.781 164.675 289.704 164.934 289.704C165.113 289.704 165.271 289.737 165.41 289.804C165.551 289.868 165.682 289.943 165.802 290.028C165.925 290.113 166.047 290.188 166.17 290.252C166.295 290.316 166.429 290.348 166.57 290.348C166.749 290.348 166.913 290.292 167.062 290.18C167.211 290.068 167.334 289.919 167.43 289.732L167.746 290.016C167.655 290.179 167.545 290.32 167.414 290.44C167.286 290.557 167.147 290.648 166.998 290.712C166.851 290.776 166.703 290.808 166.554 290.808ZM171.043 296.128C170.616 296.128 170.231 296.036 169.887 295.852C169.545 295.668 169.275 295.412 169.075 295.084C168.875 294.756 168.775 294.379 168.775 293.952C168.775 293.523 168.875 293.145 169.075 292.82C169.275 292.492 169.545 292.236 169.887 292.052C170.228 291.868 170.613 291.776 171.043 291.776C171.469 291.776 171.853 291.868 172.195 292.052C172.539 292.236 172.811 292.492 173.011 292.82C173.211 293.145 173.311 293.523 173.311 293.952C173.311 294.379 173.211 294.756 173.011 295.084C172.811 295.412 172.539 295.668 172.195 295.852C171.853 296.036 171.469 296.128 171.043 296.128ZM171.043 295.608C171.363 295.608 171.648 295.537 171.899 295.396C172.149 295.255 172.347 295.06 172.491 294.812C172.635 294.561 172.707 294.275 172.707 293.952C172.707 293.629 172.635 293.344 172.491 293.096C172.347 292.845 172.149 292.649 171.899 292.508C171.648 292.367 171.363 292.296 171.043 292.296C170.723 292.296 170.437 292.367 170.187 292.508C169.936 292.649 169.739 292.845 169.595 293.096C169.451 293.344 169.379 293.629 169.379 293.952C169.379 294.272 169.451 294.557 169.595 294.808C169.739 295.059 169.936 295.255 170.187 295.396C170.437 295.537 170.723 295.608 171.043 295.608ZM179.842 296.128C179.383 296.128 178.957 296.04 178.562 295.864C178.17 295.688 177.826 295.444 177.53 295.132C177.237 294.82 177.007 294.457 176.842 294.044C176.677 293.628 176.594 293.181 176.594 292.704C176.594 292.264 176.667 291.839 176.814 291.428C176.961 291.017 177.175 290.652 177.458 290.332C177.741 290.009 178.086 289.753 178.494 289.564C178.905 289.375 179.37 289.28 179.89 289.28C180.231 289.28 180.554 289.323 180.858 289.408C181.162 289.493 181.441 289.612 181.694 289.764C181.95 289.916 182.173 290.095 182.362 290.3L182.046 290.764C181.795 290.479 181.481 290.251 181.102 290.08C180.723 289.907 180.317 289.82 179.882 289.82C179.466 289.82 179.094 289.897 178.766 290.052C178.441 290.207 178.165 290.419 177.938 290.688C177.711 290.955 177.539 291.26 177.422 291.604C177.305 291.945 177.246 292.305 177.246 292.684C177.246 293.092 177.311 293.472 177.442 293.824C177.575 294.173 177.761 294.48 177.998 294.744C178.235 295.005 178.513 295.209 178.83 295.356C179.147 295.5 179.489 295.572 179.854 295.572C180.15 295.572 180.441 295.523 180.726 295.424C181.011 295.325 181.267 295.183 181.494 294.996C181.723 294.809 181.905 294.587 182.038 294.328C182.174 294.067 182.242 293.773 182.242 293.448V293.22H179.81V292.728H182.866V293.316C182.866 293.783 182.778 294.192 182.602 294.544C182.426 294.896 182.191 295.189 181.898 295.424C181.605 295.656 181.279 295.832 180.922 295.952C180.565 296.069 180.205 296.128 179.842 296.128ZM184.344 296V291.904H184.928V292.508C185.059 292.268 185.227 292.087 185.432 291.964C185.64 291.839 185.88 291.776 186.152 291.776C186.272 291.776 186.394 291.789 186.516 291.816C186.642 291.843 186.75 291.877 186.84 291.92L186.6 292.412C186.52 292.372 186.428 292.341 186.324 292.32C186.223 292.299 186.126 292.288 186.032 292.288C185.843 292.288 185.664 292.336 185.496 292.432C185.328 292.528 185.191 292.653 185.084 292.808C184.98 292.96 184.928 293.123 184.928 293.296V296H184.344ZM189.663 296.128C189.279 296.128 188.932 296.035 188.623 295.848C188.316 295.659 188.072 295.4 187.891 295.072C187.712 294.744 187.623 294.369 187.623 293.948C187.623 293.532 187.711 293.161 187.887 292.836C188.065 292.508 188.308 292.249 188.615 292.06C188.924 291.871 189.273 291.776 189.663 291.776C190.033 291.776 190.369 291.863 190.671 292.036C190.972 292.209 191.201 292.449 191.359 292.756V291.904H191.943V296H191.359V295.136C191.183 295.445 190.947 295.688 190.651 295.864C190.355 296.04 190.025 296.128 189.663 296.128ZM189.807 295.62C190.113 295.62 190.384 295.549 190.619 295.408C190.856 295.264 191.043 295.067 191.179 294.816C191.315 294.563 191.383 294.275 191.383 293.952C191.383 293.627 191.315 293.339 191.179 293.088C191.045 292.837 190.86 292.641 190.623 292.5C190.385 292.356 190.113 292.284 189.807 292.284C189.5 292.284 189.228 292.356 188.991 292.5C188.753 292.641 188.567 292.837 188.431 293.088C188.295 293.339 188.227 293.627 188.227 293.952C188.227 294.275 188.295 294.563 188.431 294.816C188.567 295.067 188.753 295.264 188.991 295.408C189.228 295.549 189.5 295.62 189.807 295.62ZM190.031 291.244L189.731 291.024L190.491 289.508L190.951 289.836L190.031 291.244ZM193.729 296V292.344H193.321V291.904H193.729V290.436C193.729 290.111 193.775 289.843 193.869 289.632C193.965 289.419 194.098 289.26 194.269 289.156C194.439 289.052 194.639 289 194.869 289C195.026 289 195.177 289.024 195.321 289.072C195.467 289.12 195.598 289.184 195.713 289.264C195.827 289.344 195.919 289.437 195.989 289.544L195.717 289.896C195.653 289.784 195.551 289.692 195.413 289.62C195.277 289.545 195.141 289.508 195.005 289.508C194.775 289.508 194.602 289.579 194.485 289.72C194.37 289.861 194.313 290.095 194.313 290.42V291.904H196.189V296H195.605V292.344H194.313V296H193.729ZM199.631 296.128C199.325 296.128 199.037 296.075 198.767 295.968C198.498 295.859 198.262 295.705 198.059 295.508C197.857 295.311 197.698 295.08 197.583 294.816C197.469 294.552 197.411 294.264 197.411 293.952C197.411 293.643 197.467 293.356 197.579 293.092C197.691 292.828 197.847 292.597 198.047 292.4C198.25 292.203 198.486 292.049 198.755 291.94C199.025 291.831 199.317 291.776 199.631 291.776C199.901 291.776 200.157 291.816 200.399 291.896C200.642 291.976 200.851 292.087 201.027 292.228L200.787 292.62C200.489 292.388 200.126 292.272 199.699 292.272C199.363 292.272 199.067 292.347 198.811 292.496C198.558 292.643 198.361 292.844 198.219 293.1C198.078 293.353 198.007 293.637 198.007 293.952C198.007 294.269 198.079 294.556 198.223 294.812C198.367 295.065 198.567 295.265 198.823 295.412C199.079 295.559 199.373 295.632 199.703 295.632C199.911 295.632 200.107 295.603 200.291 295.544C200.478 295.483 200.642 295.396 200.783 295.284L201.027 295.676C200.849 295.815 200.639 295.924 200.399 296.004C200.159 296.087 199.903 296.128 199.631 296.128ZM204.254 296.128C203.827 296.128 203.442 296.036 203.098 295.852C202.756 295.668 202.486 295.412 202.286 295.084C202.086 294.756 201.986 294.379 201.986 293.952C201.986 293.523 202.086 293.145 202.286 292.82C202.486 292.492 202.756 292.236 203.098 292.052C203.439 291.868 203.824 291.776 204.254 291.776C204.68 291.776 205.064 291.868 205.406 292.052C205.75 292.236 206.022 292.492 206.222 292.82C206.422 293.145 206.522 293.523 206.522 293.952C206.522 294.379 206.422 294.756 206.222 295.084C206.022 295.412 205.75 295.668 205.406 295.852C205.064 296.036 204.68 296.128 204.254 296.128ZM204.254 295.608C204.574 295.608 204.859 295.537 205.11 295.396C205.36 295.255 205.558 295.06 205.702 294.812C205.846 294.561 205.918 294.275 205.918 293.952C205.918 293.629 205.846 293.344 205.702 293.096C205.558 292.845 205.36 292.649 205.11 292.508C204.859 292.367 204.574 292.296 204.254 292.296C203.934 292.296 203.648 292.367 203.398 292.508C203.147 292.649 202.95 292.845 202.806 293.096C202.662 293.344 202.59 293.629 202.59 293.952C202.59 294.272 202.662 294.557 202.806 294.808C202.95 295.059 203.147 295.255 203.398 295.396C203.648 295.537 203.934 295.608 204.254 295.608Z" fill="white"/>
<path d="M137.125 263V254.75H139.39C139.977 254.75 140.522 254.855 141.025 255.065C141.528 255.275 141.968 255.568 142.345 255.945C142.725 256.322 143.02 256.76 143.23 257.26C143.443 257.76 143.55 258.3 143.55 258.88C143.55 259.463 143.445 260.005 143.235 260.505C143.025 261.002 142.73 261.438 142.35 261.815C141.973 262.188 141.532 262.48 141.025 262.69C140.522 262.897 139.977 263 139.39 263H137.125ZM138.745 261.55H139.21C139.583 261.55 139.928 261.483 140.245 261.35C140.562 261.217 140.837 261.03 141.07 260.79C141.303 260.55 141.485 260.268 141.615 259.945C141.745 259.618 141.81 259.262 141.81 258.875C141.81 258.492 141.745 258.138 141.615 257.815C141.485 257.488 141.303 257.205 141.07 256.965C140.837 256.722 140.562 256.533 140.245 256.4C139.928 256.267 139.583 256.2 139.21 256.2H138.745V261.55ZM147.472 263.16C146.538 263.16 145.865 262.975 145.452 262.605C145.038 262.235 144.832 261.63 144.832 260.79V257.88H146.367V260.43C146.367 260.97 146.45 261.352 146.617 261.575C146.787 261.798 147.072 261.91 147.472 261.91C147.878 261.91 148.163 261.798 148.327 261.575C148.493 261.352 148.577 260.97 148.577 260.43V257.88H150.112V260.79C150.112 261.63 149.905 262.235 149.492 262.605C149.082 262.975 148.408 263.16 147.472 263.16ZM151.798 263V254.4H153.333V263H151.798ZM157.532 263.16C157.142 263.16 156.774 263.09 156.427 262.95C156.084 262.81 155.781 262.617 155.517 262.37C155.254 262.12 155.047 261.832 154.897 261.505C154.747 261.175 154.672 260.822 154.672 260.445C154.672 260.082 154.742 259.737 154.882 259.41C155.026 259.083 155.226 258.793 155.482 258.54C155.742 258.287 156.046 258.087 156.392 257.94C156.742 257.793 157.121 257.72 157.527 257.72C157.857 257.72 158.174 257.767 158.477 257.86C158.784 257.953 159.031 258.073 159.217 258.22L158.692 259.255C158.442 259.072 158.132 258.98 157.762 258.98C157.446 258.98 157.177 259.05 156.957 259.19C156.737 259.33 156.569 259.512 156.452 259.735C156.339 259.958 156.282 260.193 156.282 260.44C156.282 260.71 156.344 260.957 156.467 261.18C156.591 261.4 156.764 261.575 156.987 261.705C157.214 261.835 157.476 261.9 157.772 261.9C157.956 261.9 158.127 261.875 158.287 261.825C158.447 261.775 158.582 261.708 158.692 261.625L159.217 262.66C159.027 262.803 158.782 262.922 158.482 263.015C158.182 263.112 157.866 263.16 157.532 263.16ZM162.92 263.16C162.366 263.16 161.87 263.042 161.43 262.805C160.993 262.565 160.646 262.24 160.39 261.83C160.133 261.42 160.005 260.957 160.005 260.44C160.005 260.06 160.076 259.705 160.22 259.375C160.366 259.045 160.57 258.757 160.83 258.51C161.09 258.26 161.391 258.067 161.735 257.93C162.078 257.79 162.45 257.72 162.85 257.72C163.383 257.72 163.85 257.832 164.25 258.055C164.653 258.275 164.966 258.582 165.19 258.975C165.416 259.368 165.53 259.827 165.53 260.35C165.53 260.393 165.528 260.432 165.525 260.465C165.525 260.495 165.52 260.553 165.51 260.64H161.585C161.585 260.9 161.643 261.127 161.76 261.32C161.88 261.513 162.046 261.665 162.26 261.775C162.473 261.882 162.721 261.935 163.005 261.935C163.271 261.935 163.506 261.883 163.71 261.78C163.916 261.677 164.115 261.512 164.305 261.285L165.41 261.84C165.17 262.253 164.83 262.577 164.39 262.81C163.95 263.043 163.46 263.16 162.92 263.16ZM161.64 259.79H164.02C163.986 259.593 163.915 259.423 163.805 259.28C163.698 259.137 163.561 259.027 163.395 258.95C163.228 258.873 163.04 258.835 162.83 258.835C162.606 258.835 162.41 258.873 162.24 258.95C162.07 259.027 161.933 259.137 161.83 259.28C161.726 259.423 161.663 259.593 161.64 259.79ZM169.45 263L170.27 254.75H171.99L173.96 259.91L175.93 254.75H177.65L178.47 263H176.85L176.34 257.66L174.455 262.795H173.46L171.58 257.66L171.065 263H169.45ZM182.253 263.16C181.783 263.16 181.355 263.043 180.968 262.81C180.585 262.573 180.28 262.25 180.053 261.84C179.83 261.427 179.718 260.957 179.718 260.43C179.718 259.917 179.826 259.457 180.043 259.05C180.26 258.64 180.558 258.317 180.938 258.08C181.321 257.84 181.76 257.72 182.253 257.72C182.616 257.72 182.955 257.79 183.268 257.93C183.585 258.067 183.843 258.258 184.043 258.505V257.88H185.578V263H184.043V262.325C183.81 262.595 183.541 262.802 183.238 262.945C182.935 263.088 182.606 263.16 182.253 263.16ZM182.708 261.855C182.975 261.855 183.211 261.795 183.418 261.675C183.625 261.552 183.786 261.383 183.903 261.17C184.02 260.957 184.078 260.713 184.078 260.44C184.078 260.163 184.018 259.92 183.898 259.71C183.781 259.497 183.62 259.33 183.413 259.21C183.21 259.087 182.975 259.025 182.708 259.025C182.445 259.025 182.21 259.087 182.003 259.21C181.796 259.33 181.633 259.497 181.513 259.71C181.393 259.923 181.333 260.167 181.333 260.44C181.333 260.713 181.391 260.957 181.508 261.17C181.628 261.383 181.791 261.552 181.998 261.675C182.205 261.795 182.441 261.855 182.708 261.855ZM189.504 263.16C189.04 263.16 188.617 263.045 188.234 262.815C187.854 262.582 187.55 262.26 187.324 261.85C187.097 261.44 186.984 260.97 186.984 260.44C186.984 259.92 187.094 259.457 187.314 259.05C187.534 258.64 187.835 258.317 188.219 258.08C188.605 257.84 189.047 257.72 189.544 257.72C189.904 257.72 190.237 257.79 190.544 257.93C190.85 258.067 191.105 258.258 191.309 258.505V254.4H192.844V263H191.309V262.325C191.082 262.588 190.814 262.793 190.504 262.94C190.194 263.087 189.86 263.16 189.504 263.16ZM189.964 261.855C190.234 261.855 190.472 261.795 190.679 261.675C190.885 261.552 191.047 261.383 191.164 261.17C191.284 260.957 191.344 260.715 191.344 260.445C191.344 260.172 191.284 259.928 191.164 259.715C191.047 259.502 190.885 259.333 190.679 259.21C190.472 259.087 190.235 259.025 189.969 259.025C189.705 259.025 189.47 259.087 189.264 259.21C189.06 259.333 188.899 259.503 188.779 259.72C188.659 259.933 188.599 260.177 188.599 260.45C188.599 260.72 188.657 260.962 188.774 261.175C188.89 261.385 189.052 261.552 189.259 261.675C189.465 261.795 189.7 261.855 189.964 261.855ZM196.784 263.16C196.314 263.16 195.886 263.043 195.499 262.81C195.116 262.573 194.811 262.25 194.584 261.84C194.361 261.427 194.249 260.957 194.249 260.43C194.249 259.917 194.357 259.457 194.574 259.05C194.791 258.64 195.089 258.317 195.469 258.08C195.852 257.84 196.291 257.72 196.784 257.72C197.147 257.72 197.486 257.79 197.799 257.93C198.116 258.067 198.374 258.258 198.574 258.505V257.88H200.109V263H198.574V262.325C198.341 262.595 198.072 262.802 197.769 262.945C197.466 263.088 197.137 263.16 196.784 263.16ZM197.239 261.855C197.506 261.855 197.742 261.795 197.949 261.675C198.156 261.552 198.317 261.383 198.434 261.17C198.551 260.957 198.609 260.713 198.609 260.44C198.609 260.163 198.549 259.92 198.429 259.71C198.312 259.497 198.151 259.33 197.944 259.21C197.741 259.087 197.506 259.025 197.239 259.025C196.976 259.025 196.741 259.087 196.534 259.21C196.327 259.33 196.164 259.497 196.044 259.71C195.924 259.923 195.864 260.167 195.864 260.44C195.864 260.713 195.922 260.957 196.039 261.17C196.159 261.383 196.322 261.552 196.529 261.675C196.736 261.795 196.972 261.855 197.239 261.855ZM201.915 263V257.88H203.45V263H201.915ZM202.435 257.46L201.785 256.93L203.17 254.725L204.2 255.5L202.435 257.46ZM207.14 263L210.455 254.75H211.96L215.27 263H213.525L212.825 261.12H209.585L208.885 263H207.14ZM210.14 259.7H212.275L211.205 256.935L210.14 259.7ZM216.27 263V257.88H217.805V258.45C218.002 258.23 218.247 258.053 218.54 257.92C218.837 257.787 219.164 257.72 219.52 257.72C219.914 257.72 220.259 257.807 220.555 257.98C220.855 258.15 221.09 258.388 221.26 258.695C221.43 258.998 221.515 259.353 221.515 259.76V263H219.98V260.085C219.98 259.718 219.884 259.433 219.69 259.23C219.5 259.023 219.239 258.92 218.905 258.92C218.679 258.92 218.482 258.967 218.315 259.06C218.152 259.15 218.025 259.275 217.935 259.435C217.849 259.592 217.805 259.77 217.805 259.97V263H216.27ZM224.93 263.16C224.42 263.16 224.023 262.998 223.74 262.675C223.456 262.348 223.315 261.893 223.315 261.31V259.045H222.63V257.88H223.315V255.96H224.85V257.88H225.975V259.045H224.85V261.2C224.85 261.393 224.888 261.54 224.965 261.64C225.045 261.74 225.156 261.79 225.3 261.79C225.46 261.79 225.613 261.737 225.76 261.63L226.145 262.86C225.971 262.953 225.776 263.027 225.56 263.08C225.346 263.133 225.136 263.16 224.93 263.16ZM230.021 263.16C229.458 263.16 228.95 263.045 228.496 262.815C228.043 262.582 227.683 262.262 227.416 261.855C227.15 261.445 227.016 260.973 227.016 260.44C227.016 259.907 227.148 259.437 227.411 259.03C227.678 258.62 228.038 258.3 228.491 258.07C228.948 257.837 229.458 257.72 230.021 257.72C230.588 257.72 231.098 257.837 231.551 258.07C232.005 258.3 232.363 258.62 232.626 259.03C232.893 259.437 233.026 259.907 233.026 260.44C233.026 260.973 232.893 261.445 232.626 261.855C232.363 262.262 232.005 262.582 231.551 262.815C231.098 263.045 230.588 263.16 230.021 263.16ZM230.026 261.85C230.286 261.85 230.523 261.79 230.736 261.67C230.95 261.55 231.118 261.385 231.241 261.175C231.365 260.962 231.426 260.717 231.426 260.44C231.426 260.163 231.365 259.92 231.241 259.71C231.118 259.497 230.95 259.33 230.736 259.21C230.523 259.09 230.286 259.03 230.026 259.03C229.763 259.03 229.525 259.09 229.311 259.21C229.101 259.33 228.935 259.497 228.811 259.71C228.688 259.92 228.626 260.163 228.626 260.44C228.626 260.717 228.688 260.962 228.811 261.175C228.935 261.385 229.101 261.55 229.311 261.67C229.525 261.79 229.763 261.85 230.026 261.85ZM234.366 263V257.88H235.901V258.45C236.098 258.23 236.343 258.053 236.636 257.92C236.933 257.787 237.259 257.72 237.616 257.72C238.009 257.72 238.354 257.807 238.651 257.98C238.951 258.15 239.186 258.388 239.356 258.695C239.526 258.998 239.611 259.353 239.611 259.76V263H238.076V260.085C238.076 259.718 237.979 259.433 237.786 259.23C237.596 259.023 237.334 258.92 237.001 258.92C236.774 258.92 236.578 258.967 236.411 259.06C236.248 259.15 236.121 259.275 236.031 259.435C235.944 259.592 235.901 259.77 235.901 259.97V263H234.366ZM241.314 263V257.88H242.849V263H241.314ZM242.084 256.815C241.917 256.815 241.764 256.775 241.624 256.695C241.487 256.612 241.377 256.5 241.294 256.36C241.211 256.22 241.169 256.067 241.169 255.9C241.169 255.733 241.211 255.582 241.294 255.445C241.377 255.308 241.487 255.2 241.624 255.12C241.764 255.037 241.917 254.995 242.084 254.995C242.251 254.995 242.402 255.037 242.539 255.12C242.676 255.2 242.784 255.308 242.864 255.445C242.947 255.582 242.989 255.733 242.989 255.9C242.989 256.067 242.947 256.22 242.864 256.36C242.784 256.5 242.676 256.612 242.539 256.695C242.402 256.775 242.251 256.815 242.084 256.815ZM247.209 263.16C246.646 263.16 246.137 263.045 245.684 262.815C245.231 262.582 244.871 262.262 244.604 261.855C244.337 261.445 244.204 260.973 244.204 260.44C244.204 259.907 244.336 259.437 244.599 259.03C244.866 258.62 245.226 258.3 245.679 258.07C246.136 257.837 246.646 257.72 247.209 257.72C247.776 257.72 248.286 257.837 248.739 258.07C249.192 258.3 249.551 258.62 249.814 259.03C250.081 259.437 250.214 259.907 250.214 260.44C250.214 260.973 250.081 261.445 249.814 261.855C249.551 262.262 249.192 262.582 248.739 262.815C248.286 263.045 247.776 263.16 247.209 263.16ZM247.214 261.85C247.474 261.85 247.711 261.79 247.924 261.67C248.137 261.55 248.306 261.385 248.429 261.175C248.552 260.962 248.614 260.717 248.614 260.44C248.614 260.163 248.552 259.92 248.429 259.71C248.306 259.497 248.137 259.33 247.924 259.21C247.711 259.09 247.474 259.03 247.214 259.03C246.951 259.03 246.712 259.09 246.499 259.21C246.289 259.33 246.122 259.497 245.999 259.71C245.876 259.92 245.814 260.163 245.814 260.44C245.814 260.717 245.876 260.962 245.999 261.175C246.122 261.385 246.289 261.55 246.499 261.67C246.712 261.79 246.951 261.85 247.214 261.85ZM137.125 274V265.75H139.935C140.498 265.75 140.987 265.85 141.4 266.05C141.817 266.247 142.138 266.532 142.365 266.905C142.595 267.275 142.71 267.722 142.71 268.245C142.71 268.658 142.637 269.032 142.49 269.365C142.343 269.695 142.133 269.973 141.86 270.2C141.587 270.427 141.255 270.595 140.865 270.705L143.565 274H141.51L139.13 270.89H138.745V274H137.125ZM138.745 269.54H139.435C139.772 269.54 140.057 269.492 140.29 269.395C140.523 269.298 140.702 269.157 140.825 268.97C140.952 268.78 141.015 268.553 141.015 268.29C141.015 267.89 140.877 267.583 140.6 267.37C140.327 267.153 139.938 267.045 139.435 267.045H138.745V269.54ZM146.76 274.16C146.196 274.16 145.688 274.045 145.235 273.815C144.781 273.582 144.421 273.262 144.155 272.855C143.888 272.445 143.755 271.973 143.755 271.44C143.755 270.907 143.886 270.437 144.15 270.03C144.416 269.62 144.776 269.3 145.23 269.07C145.686 268.837 146.196 268.72 146.76 268.72C147.326 268.72 147.836 268.837 148.29 269.07C148.743 269.3 149.101 269.62 149.365 270.03C149.631 270.437 149.765 270.907 149.765 271.44C149.765 271.973 149.631 272.445 149.365 272.855C149.101 273.262 148.743 273.582 148.29 273.815C147.836 274.045 147.326 274.16 146.76 274.16ZM146.765 272.85C147.025 272.85 147.261 272.79 147.475 272.67C147.688 272.55 147.856 272.385 147.98 272.175C148.103 271.962 148.165 271.717 148.165 271.44C148.165 271.163 148.103 270.92 147.98 270.71C147.856 270.497 147.688 270.33 147.475 270.21C147.261 270.09 147.025 270.03 146.765 270.03C146.501 270.03 146.263 270.09 146.05 270.21C145.84 270.33 145.673 270.497 145.55 270.71C145.426 270.92 145.365 271.163 145.365 271.44C145.365 271.717 145.426 271.962 145.55 272.175C145.673 272.385 145.84 272.55 146.05 272.67C146.263 272.79 146.501 272.85 146.765 272.85ZM153.244 274.16C152.78 274.16 152.357 274.045 151.974 273.815C151.594 273.582 151.29 273.26 151.064 272.85C150.837 272.44 150.724 271.97 150.724 271.44C150.724 270.92 150.834 270.457 151.054 270.05C151.274 269.64 151.575 269.317 151.959 269.08C152.345 268.84 152.787 268.72 153.284 268.72C153.644 268.72 153.977 268.79 154.284 268.93C154.59 269.067 154.845 269.258 155.049 269.505V265.4H156.584V274H155.049V273.325C154.822 273.588 154.554 273.793 154.244 273.94C153.934 274.087 153.6 274.16 153.244 274.16ZM153.704 272.855C153.974 272.855 154.212 272.795 154.419 272.675C154.625 272.552 154.787 272.383 154.904 272.17C155.024 271.957 155.084 271.715 155.084 271.445C155.084 271.172 155.024 270.928 154.904 270.715C154.787 270.502 154.625 270.333 154.419 270.21C154.212 270.087 153.975 270.025 153.709 270.025C153.445 270.025 153.21 270.087 153.004 270.21C152.8 270.333 152.639 270.503 152.519 270.72C152.399 270.933 152.339 271.177 152.339 271.45C152.339 271.72 152.397 271.962 152.514 272.175C152.63 272.385 152.792 272.552 152.999 272.675C153.205 272.795 153.44 272.855 153.704 272.855ZM158.389 274V268.88H159.924V269.615C160.114 269.328 160.346 269.108 160.619 268.955C160.896 268.798 161.193 268.72 161.509 268.72C161.689 268.72 161.876 268.747 162.069 268.8C162.263 268.853 162.424 268.922 162.554 269.005L161.914 270.3C161.801 270.223 161.668 270.163 161.514 270.12C161.364 270.073 161.224 270.05 161.094 270.05C160.894 270.05 160.704 270.102 160.524 270.205C160.344 270.308 160.199 270.443 160.089 270.61C159.979 270.773 159.924 270.95 159.924 271.14V274H158.389ZM163.409 274V268.88H164.944V274H163.409ZM163.929 268.46L163.279 267.93L164.664 265.725L165.694 266.5L163.929 268.46ZM169.214 276.75C168.524 276.75 167.944 276.623 167.474 276.37C167.004 276.12 166.662 275.75 166.449 275.26L167.699 274.65C167.839 274.887 168.045 275.075 168.319 275.215C168.592 275.355 168.889 275.425 169.209 275.425C169.499 275.425 169.754 275.367 169.974 275.25C170.194 275.137 170.365 274.975 170.489 274.765C170.612 274.558 170.674 274.318 170.674 274.045V273.325C170.447 273.588 170.179 273.793 169.869 273.94C169.559 274.087 169.225 274.16 168.869 274.16C168.405 274.16 167.982 274.045 167.599 273.815C167.219 273.582 166.915 273.26 166.689 272.85C166.462 272.44 166.349 271.97 166.349 271.44C166.349 270.92 166.459 270.457 166.679 270.05C166.902 269.64 167.205 269.317 167.589 269.08C167.975 268.84 168.415 268.72 168.909 268.72C169.269 268.72 169.602 268.79 169.909 268.93C170.215 269.067 170.47 269.258 170.674 269.505V268.88H172.209V274.14C172.209 274.643 172.099 275.092 171.879 275.485C171.662 275.878 171.332 276.187 170.889 276.41C170.445 276.637 169.887 276.75 169.214 276.75ZM169.329 272.855C169.599 272.855 169.837 272.795 170.044 272.675C170.254 272.552 170.417 272.385 170.534 272.175C170.65 271.962 170.709 271.72 170.709 271.45C170.709 271.173 170.649 270.928 170.529 270.715C170.412 270.502 170.25 270.333 170.044 270.21C169.837 270.087 169.602 270.025 169.339 270.025C169.075 270.025 168.84 270.087 168.634 270.21C168.427 270.333 168.264 270.503 168.144 270.72C168.024 270.933 167.964 271.177 167.964 271.45C167.964 271.72 168.022 271.962 168.139 272.175C168.255 272.385 168.417 272.552 168.624 272.675C168.83 272.795 169.065 272.855 169.329 272.855ZM176.524 274.16C175.591 274.16 174.918 273.975 174.504 273.605C174.091 273.235 173.884 272.63 173.884 271.79V268.88H175.419V271.43C175.419 271.97 175.503 272.352 175.669 272.575C175.839 272.798 176.124 272.91 176.524 272.91C176.931 272.91 177.216 272.798 177.379 272.575C177.546 272.352 177.629 271.97 177.629 271.43V268.88H179.164V271.79C179.164 272.63 178.958 273.235 178.544 273.605C178.134 273.975 177.461 274.16 176.524 274.16ZM183.31 274.16C182.757 274.16 182.26 274.042 181.82 273.805C181.384 273.565 181.037 273.24 180.78 272.83C180.524 272.42 180.395 271.957 180.395 271.44C180.395 271.06 180.467 270.705 180.61 270.375C180.757 270.045 180.96 269.757 181.22 269.51C181.48 269.26 181.782 269.067 182.125 268.93C182.469 268.79 182.84 268.72 183.24 268.72C183.774 268.72 184.24 268.832 184.64 269.055C185.044 269.275 185.357 269.582 185.58 269.975C185.807 270.368 185.92 270.827 185.92 271.35C185.92 271.393 185.919 271.432 185.915 271.465C185.915 271.495 185.91 271.553 185.9 271.64H181.975C181.975 271.9 182.034 272.127 182.15 272.32C182.27 272.513 182.437 272.665 182.65 272.775C182.864 272.882 183.112 272.935 183.395 272.935C183.662 272.935 183.897 272.883 184.1 272.78C184.307 272.677 184.505 272.512 184.695 272.285L185.8 272.84C185.56 273.253 185.22 273.577 184.78 273.81C184.34 274.043 183.85 274.16 183.31 274.16ZM182.03 270.79H184.41C184.377 270.593 184.305 270.423 184.195 270.28C184.089 270.137 183.952 270.027 183.785 269.95C183.619 269.873 183.43 269.835 183.22 269.835C182.997 269.835 182.8 269.873 182.63 269.95C182.46 270.027 182.324 270.137 182.22 270.28C182.117 270.423 182.054 270.593 182.03 270.79ZM186.61 274L189.44 270.05H187.025V268.88H192.025L189.195 272.83H191.85V274H186.61Z" fill="white"/>
<rect width="312" height="160" rx="29" fill="#F3BD37"/>
<rect x="192" y="16" width="104" height="128" rx="29" fill="white" fill-opacity="0.5"/>
<path d="M17.504 135V134.716C18.1173 134.236 18.6453 133.811 19.088 133.44C19.5307 133.067 19.9013 132.736 20.2 132.448C20.4987 132.16 20.736 131.901 20.912 131.672C21.088 131.443 21.2133 131.231 21.288 131.036C21.3627 130.841 21.4 130.649 21.4 130.46C21.4 130.161 21.328 129.891 21.184 129.648C21.0427 129.405 20.852 129.212 20.612 129.068C20.372 128.924 20.1053 128.852 19.812 128.852C19.5187 128.852 19.252 128.924 19.012 129.068C18.772 129.212 18.5747 129.409 18.42 129.66C18.2653 129.911 18.1733 130.199 18.144 130.524L17.596 130.34C17.6253 130.047 17.7013 129.775 17.824 129.524C17.9493 129.273 18.112 129.055 18.312 128.868C18.5147 128.681 18.7453 128.536 19.004 128.432C19.2627 128.328 19.5413 128.276 19.84 128.276C20.2533 128.276 20.628 128.372 20.964 128.564C21.3 128.753 21.5667 129.012 21.764 129.34C21.9613 129.668 22.06 130.039 22.06 130.452C22.06 130.665 22.028 130.875 21.964 131.08C21.9 131.285 21.792 131.5 21.64 131.724C21.4907 131.948 21.2893 132.192 21.036 132.456C20.7827 132.717 20.4667 133.009 20.088 133.332C19.712 133.655 19.2627 134.02 18.74 134.428H22.18V135H17.504ZM26.1885 135.128C25.6498 135.128 25.1778 134.985 24.7725 134.7C24.3698 134.412 24.0565 134.011 23.8325 133.496C23.6085 132.981 23.4965 132.384 23.4965 131.704C23.4965 131.021 23.6085 130.424 23.8325 129.912C24.0565 129.397 24.3698 128.997 24.7725 128.712C25.1778 128.424 25.6498 128.28 26.1885 128.28C26.7272 128.28 27.1978 128.424 27.6005 128.712C28.0032 128.997 28.3165 129.397 28.5405 129.912C28.7672 130.424 28.8805 131.021 28.8805 131.704C28.8805 132.384 28.7672 132.981 28.5405 133.496C28.3165 134.011 28.0032 134.412 27.6005 134.7C27.1978 134.985 26.7272 135.128 26.1885 135.128ZM26.1885 134.58C26.5992 134.58 26.9578 134.461 27.2645 134.224C27.5712 133.987 27.8098 133.652 27.9805 133.22C28.1512 132.788 28.2365 132.283 28.2365 131.704C28.2365 131.123 28.1512 130.617 27.9805 130.188C27.8098 129.756 27.5712 129.421 27.2645 129.184C26.9578 128.947 26.5992 128.828 26.1885 128.828C25.7778 128.828 25.4178 128.947 25.1085 129.184C24.8018 129.421 24.5632 129.756 24.3925 130.188C24.2245 130.617 24.1405 131.123 24.1405 131.704C24.1405 132.283 24.2245 132.788 24.3925 133.22C24.5632 133.652 24.8018 133.987 25.1085 134.224C25.4178 134.461 25.7778 134.58 26.1885 134.58ZM30.0665 135V134.716C30.6798 134.236 31.2078 133.811 31.6505 133.44C32.0932 133.067 32.4638 132.736 32.7625 132.448C33.0612 132.16 33.2985 131.901 33.4745 131.672C33.6505 131.443 33.7758 131.231 33.8505 131.036C33.9252 130.841 33.9625 130.649 33.9625 130.46C33.9625 130.161 33.8905 129.891 33.7465 129.648C33.6052 129.405 33.4145 129.212 33.1745 129.068C32.9345 128.924 32.6678 128.852 32.3745 128.852C32.0812 128.852 31.8145 128.924 31.5745 129.068C31.3345 129.212 31.1372 129.409 30.9825 129.66C30.8278 129.911 30.7358 130.199 30.7065 130.524L30.1585 130.34C30.1878 130.047 30.2638 129.775 30.3865 129.524C30.5118 129.273 30.6745 129.055 30.8745 128.868C31.0772 128.681 31.3078 128.536 31.5665 128.432C31.8252 128.328 32.1038 128.276 32.4025 128.276C32.8158 128.276 33.1905 128.372 33.5265 128.564C33.8625 128.753 34.1292 129.012 34.3265 129.34C34.5238 129.668 34.6225 130.039 34.6225 130.452C34.6225 130.665 34.5905 130.875 34.5265 131.08C34.4625 131.285 34.3545 131.5 34.2025 131.724C34.0532 131.948 33.8518 132.192 33.5985 132.456C33.3452 132.717 33.0292 133.009 32.6505 133.332C32.2745 133.655 31.8252 134.02 31.3025 134.428H34.7425V135H30.0665ZM35.879 135V134.716C36.4923 134.236 37.0203 133.811 37.463 133.44C37.9057 133.067 38.2763 132.736 38.575 132.448C38.8737 132.16 39.111 131.901 39.287 131.672C39.463 131.443 39.5883 131.231 39.663 131.036C39.7377 130.841 39.775 130.649 39.775 130.46C39.775 130.161 39.703 129.891 39.559 129.648C39.4177 129.405 39.227 129.212 38.987 129.068C38.747 128.924 38.4803 128.852 38.187 128.852C37.8937 128.852 37.627 128.924 37.387 129.068C37.147 129.212 36.9497 129.409 36.795 129.66C36.6403 129.911 36.5483 130.199 36.519 130.524L35.971 130.34C36.0003 130.047 36.0763 129.775 36.199 129.524C36.3243 129.273 36.487 129.055 36.687 128.868C36.8897 128.681 37.1203 128.536 37.379 128.432C37.6377 128.328 37.9163 128.276 38.215 128.276C38.6283 128.276 39.003 128.372 39.339 128.564C39.675 128.753 39.9417 129.012 40.139 129.34C40.3363 129.668 40.435 130.039 40.435 130.452C40.435 130.665 40.403 130.875 40.339 131.08C40.275 131.285 40.167 131.5 40.015 131.724C39.8657 131.948 39.6643 132.192 39.411 132.456C39.1577 132.717 38.8417 133.009 38.463 133.332C38.087 133.655 37.6377 134.02 37.115 134.428H40.555V135H35.879Z" fill="white"/>
<path d="M20.196 120L17.428 113.4H18.116L20.436 119.084L22.752 113.4H23.44L20.672 120H20.196ZM26.9979 120V113.4H28.4859C28.9525 113.4 29.3872 113.484 29.7899 113.652C30.1952 113.82 30.5485 114.055 30.8499 114.356C31.1512 114.655 31.3872 115.004 31.5579 115.404C31.7285 115.804 31.8139 116.237 31.8139 116.704C31.8139 117.168 31.7299 117.6 31.5619 118C31.3939 118.4 31.1579 118.751 30.8539 119.052C30.5525 119.351 30.1992 119.584 29.7939 119.752C29.3912 119.917 28.9552 120 28.4859 120H26.9979ZM27.6059 119.456H28.4299C28.8192 119.456 29.1792 119.387 29.5099 119.248C29.8432 119.107 30.1339 118.912 30.3819 118.664C30.6325 118.413 30.8272 118.121 30.9659 117.788C31.1045 117.452 31.1739 117.089 31.1739 116.7C31.1739 116.311 31.1045 115.949 30.9659 115.616C30.8272 115.283 30.6325 114.991 30.3819 114.74C30.1339 114.489 29.8432 114.295 29.5099 114.156C29.1765 114.015 28.8165 113.944 28.4299 113.944H27.6059V119.456ZM33.3326 120V115.904H33.9166V120H33.3326ZM33.6286 115.084C33.5566 115.084 33.4912 115.067 33.4326 115.032C33.3766 114.997 33.3312 114.951 33.2966 114.892C33.2619 114.833 33.2446 114.769 33.2446 114.7C33.2446 114.631 33.2619 114.568 33.2966 114.512C33.3312 114.453 33.3766 114.407 33.4326 114.372C33.4912 114.337 33.5566 114.32 33.6286 114.32C33.6979 114.32 33.7606 114.337 33.8166 114.372C33.8726 114.407 33.9179 114.452 33.9526 114.508C33.9899 114.564 34.0086 114.628 34.0086 114.7C34.0086 114.769 33.9899 114.833 33.9526 114.892C33.9179 114.951 33.8726 114.997 33.8166 115.032C33.7606 115.067 33.6979 115.084 33.6286 115.084ZM36.7053 120.128C36.3666 120.128 36.0679 120.047 35.8092 119.884C35.5506 119.719 35.3493 119.485 35.2053 119.184L35.5173 118.848C35.6453 119.109 35.8119 119.313 36.0173 119.46C36.2226 119.604 36.4506 119.676 36.7013 119.676C36.8693 119.676 37.0226 119.641 37.1613 119.572C37.3026 119.503 37.4146 119.404 37.4973 119.276C37.5826 119.145 37.6253 118.991 37.6253 118.812C37.6253 118.649 37.5853 118.521 37.5053 118.428C37.4279 118.335 37.3133 118.255 37.1613 118.188C37.0119 118.119 36.8253 118.041 36.6013 117.956C36.4279 117.887 36.2599 117.808 36.0973 117.72C35.9346 117.632 35.7999 117.521 35.6933 117.388C35.5893 117.252 35.5373 117.08 35.5373 116.872C35.5373 116.661 35.5933 116.475 35.7053 116.312C35.8173 116.147 35.9719 116.017 36.1693 115.924C36.3666 115.828 36.5906 115.78 36.8413 115.78C37.0706 115.78 37.2853 115.829 37.4853 115.928C37.6879 116.027 37.8693 116.167 38.0293 116.348L37.7613 116.688C37.5159 116.365 37.2106 116.204 36.8453 116.204C36.6213 116.204 36.4386 116.263 36.2973 116.38C36.1586 116.497 36.0893 116.651 36.0893 116.84C36.0893 116.976 36.1333 117.089 36.2213 117.18C36.3093 117.271 36.4239 117.348 36.5653 117.412C36.7093 117.476 36.8639 117.54 37.0293 117.604C37.2693 117.695 37.4773 117.785 37.6533 117.876C37.8319 117.967 37.9706 118.083 38.0693 118.224C38.1679 118.363 38.2173 118.552 38.2173 118.792C38.2173 119.067 38.1533 119.304 38.0253 119.504C37.8973 119.704 37.7186 119.859 37.4893 119.968C37.2626 120.075 37.0013 120.128 36.7053 120.128ZM41.5222 120.128C41.0929 120.128 40.7089 120.033 40.3702 119.844C40.0342 119.655 39.7702 119.397 39.5782 119.072C39.3862 118.744 39.2902 118.376 39.2902 117.968C39.2902 117.661 39.3449 117.376 39.4542 117.112C39.5662 116.845 39.7209 116.612 39.9182 116.412C40.1155 116.212 40.3449 116.056 40.6062 115.944C40.8675 115.832 41.1462 115.776 41.4422 115.776C41.8475 115.776 42.2075 115.865 42.5222 116.044C42.8395 116.22 43.0902 116.464 43.2742 116.776C43.4609 117.088 43.5595 117.448 43.5702 117.856C43.5702 117.888 43.5689 117.915 43.5662 117.936C43.5662 117.955 43.5635 117.979 43.5582 118.008H39.8702C39.8702 118.328 39.9422 118.611 40.0862 118.856C40.2302 119.101 40.4275 119.295 40.6782 119.436C40.9315 119.575 41.2209 119.644 41.5462 119.644C41.8555 119.644 42.1329 119.58 42.3782 119.452C42.6262 119.321 42.8329 119.135 42.9982 118.892L43.4302 119.124C43.2355 119.441 42.9702 119.688 42.6342 119.864C42.3009 120.04 41.9302 120.128 41.5222 120.128ZM39.9022 117.568H42.9862C42.9515 117.312 42.8622 117.087 42.7182 116.892C42.5742 116.695 42.3915 116.54 42.1702 116.428C41.9515 116.316 41.7115 116.26 41.4502 116.26C41.1809 116.26 40.9355 116.316 40.7142 116.428C40.4929 116.537 40.3102 116.691 40.1662 116.888C40.0249 117.083 39.9369 117.309 39.9022 117.568ZM44.9459 120V115.904H45.5299V116.464C45.6419 116.272 45.8153 116.109 46.0499 115.976C46.2846 115.843 46.5713 115.776 46.9099 115.776C47.2273 115.776 47.5006 115.841 47.7299 115.972C47.9593 116.103 48.1353 116.293 48.2579 116.544C48.3806 116.792 48.4419 117.092 48.4419 117.444V120H47.8579V117.556C47.8579 117.132 47.7593 116.809 47.5619 116.588C47.3646 116.364 47.0859 116.252 46.7259 116.252C46.4753 116.252 46.2606 116.303 46.0819 116.404C45.9059 116.503 45.7699 116.635 45.6739 116.8C45.5779 116.963 45.5299 117.14 45.5299 117.332V120H44.9459ZM47.5539 114.808C47.3833 114.808 47.2313 114.776 47.0979 114.712C46.9673 114.645 46.8433 114.569 46.7259 114.484C46.6086 114.399 46.4873 114.324 46.3619 114.26C46.2393 114.196 46.0993 114.164 45.9419 114.164C45.7313 114.164 45.5539 114.227 45.4099 114.352C45.2686 114.475 45.1566 114.617 45.0739 114.78L44.7539 114.496C44.8766 114.275 45.0393 114.088 45.2419 113.936C45.4446 113.781 45.6753 113.704 45.9339 113.704C46.1126 113.704 46.2713 113.737 46.4099 113.804C46.5513 113.868 46.6819 113.943 46.8019 114.028C46.9246 114.113 47.0473 114.188 47.1699 114.252C47.2953 114.316 47.4286 114.348 47.5699 114.348C47.7486 114.348 47.9126 114.292 48.0619 114.18C48.2113 114.068 48.3339 113.919 48.4299 113.732L48.7459 114.016C48.6553 114.179 48.5446 114.32 48.4139 114.44C48.2859 114.557 48.1473 114.648 47.9979 114.712C47.8513 114.776 47.7033 114.808 47.5539 114.808ZM52.0426 120.128C51.6159 120.128 51.2306 120.036 50.8866 119.852C50.5452 119.668 50.2746 119.412 50.0746 119.084C49.8746 118.756 49.7746 118.379 49.7746 117.952C49.7746 117.523 49.8746 117.145 50.0746 116.82C50.2746 116.492 50.5452 116.236 50.8866 116.052C51.2279 115.868 51.6132 115.776 52.0426 115.776C52.4692 115.776 52.8532 115.868 53.1946 116.052C53.5386 116.236 53.8106 116.492 54.0106 116.82C54.2106 117.145 54.3106 117.523 54.3106 117.952C54.3106 118.379 54.2106 118.756 54.0106 119.084C53.8106 119.412 53.5386 119.668 53.1946 119.852C52.8532 120.036 52.4692 120.128 52.0426 120.128ZM52.0426 119.608C52.3626 119.608 52.6479 119.537 52.8986 119.396C53.1492 119.255 53.3466 119.06 53.4906 118.812C53.6346 118.561 53.7066 118.275 53.7066 117.952C53.7066 117.629 53.6346 117.344 53.4906 117.096C53.3466 116.845 53.1492 116.649 52.8986 116.508C52.6479 116.367 52.3626 116.296 52.0426 116.296C51.7226 116.296 51.4372 116.367 51.1866 116.508C50.9359 116.649 50.7386 116.845 50.5946 117.096C50.4506 117.344 50.3786 117.629 50.3786 117.952C50.3786 118.272 50.4506 118.557 50.5946 118.808C50.7386 119.059 50.9359 119.255 51.1866 119.396C51.4372 119.537 51.7226 119.608 52.0426 119.608ZM60.8421 120.128C60.3834 120.128 59.9567 120.04 59.5621 119.864C59.1701 119.688 58.8261 119.444 58.5301 119.132C58.2367 118.82 58.0074 118.457 57.8421 118.044C57.6767 117.628 57.5941 117.181 57.5941 116.704C57.5941 116.264 57.6674 115.839 57.8141 115.428C57.9607 115.017 58.1754 114.652 58.4581 114.332C58.7407 114.009 59.0861 113.753 59.4941 113.564C59.9047 113.375 60.3701 113.28 60.8901 113.28C61.2314 113.28 61.5541 113.323 61.8581 113.408C62.1621 113.493 62.4407 113.612 62.6941 113.764C62.9501 113.916 63.1727 114.095 63.3621 114.3L63.0461 114.764C62.7954 114.479 62.4807 114.251 62.1021 114.08C61.7234 113.907 61.3167 113.82 60.8821 113.82C60.4661 113.82 60.0941 113.897 59.7661 114.052C59.4407 114.207 59.1647 114.419 58.9381 114.688C58.7114 114.955 58.5394 115.26 58.4221 115.604C58.3047 115.945 58.2461 116.305 58.2461 116.684C58.2461 117.092 58.3114 117.472 58.4421 117.824C58.5754 118.173 58.7607 118.48 58.9981 118.744C59.2354 119.005 59.5127 119.209 59.8301 119.356C60.1474 119.5 60.4887 119.572 60.8541 119.572C61.1501 119.572 61.4407 119.523 61.7261 119.424C62.0114 119.325 62.2674 119.183 62.4941 118.996C62.7234 118.809 62.9047 118.587 63.0381 118.328C63.1741 118.067 63.2421 117.773 63.2421 117.448V117.22H60.8101V116.728H63.8661V117.316C63.8661 117.783 63.7781 118.192 63.6021 118.544C63.4261 118.896 63.1914 119.189 62.8981 119.424C62.6047 119.656 62.2794 119.832 61.9221 119.952C61.5647 120.069 61.2047 120.128 60.8421 120.128ZM65.3444 120V115.904H65.9284V116.508C66.059 116.268 66.227 116.087 66.4324 115.964C66.6404 115.839 66.8804 115.776 67.1524 115.776C67.2724 115.776 67.3937 115.789 67.5164 115.816C67.6417 115.843 67.7497 115.877 67.8404 115.92L67.6004 116.412C67.5204 116.372 67.4284 116.341 67.3244 116.32C67.223 116.299 67.1257 116.288 67.0324 116.288C66.843 116.288 66.6644 116.336 66.4964 116.432C66.3284 116.528 66.191 116.653 66.0844 116.808C65.9804 116.96 65.9284 117.123 65.9284 117.296V120H65.3444ZM70.6627 120.128C70.2787 120.128 69.932 120.035 69.6227 119.848C69.316 119.659 69.072 119.4 68.8907 119.072C68.712 118.744 68.6227 118.369 68.6227 117.948C68.6227 117.532 68.7107 117.161 68.8867 116.836C69.0654 116.508 69.308 116.249 69.6147 116.06C69.924 115.871 70.2734 115.776 70.6627 115.776C71.0334 115.776 71.3694 115.863 71.6707 116.036C71.972 116.209 72.2014 116.449 72.3587 116.756V115.904H72.9427V120H72.3587V119.136C72.1827 119.445 71.9467 119.688 71.6507 119.864C71.3547 120.04 71.0254 120.128 70.6627 120.128ZM70.8067 119.62C71.1134 119.62 71.384 119.549 71.6187 119.408C71.856 119.264 72.0427 119.067 72.1787 118.816C72.3147 118.563 72.3827 118.275 72.3827 117.952C72.3827 117.627 72.3147 117.339 72.1787 117.088C72.0454 116.837 71.86 116.641 71.6227 116.5C71.3854 116.356 71.1134 116.284 70.8067 116.284C70.5 116.284 70.228 116.356 69.9907 116.5C69.7534 116.641 69.5667 116.837 69.4307 117.088C69.2947 117.339 69.2267 117.627 69.2267 117.952C69.2267 118.275 69.2947 118.563 69.4307 118.816C69.5667 119.067 69.7534 119.264 69.9907 119.408C70.228 119.549 70.5 119.62 70.8067 119.62ZM71.0307 115.244L70.7307 115.024L71.4907 113.508L71.9507 113.836L71.0307 115.244ZM74.7287 120V116.344H74.3207V115.904H74.7287V114.436C74.7287 114.111 74.7754 113.843 74.8687 113.632C74.9647 113.419 75.098 113.26 75.2687 113.156C75.4394 113.052 75.6394 113 75.8687 113C76.026 113 76.1767 113.024 76.3207 113.072C76.4674 113.12 76.598 113.184 76.7127 113.264C76.8274 113.344 76.9194 113.437 76.9887 113.544L76.7167 113.896C76.6527 113.784 76.5514 113.692 76.4127 113.62C76.2767 113.545 76.1407 113.508 76.0047 113.508C75.7754 113.508 75.602 113.579 75.4847 113.72C75.37 113.861 75.3127 114.095 75.3127 114.42V115.904H77.1887V120H76.6047V116.344H75.3127V120H74.7287ZM80.6312 120.128C80.3245 120.128 80.0365 120.075 79.7672 119.968C79.4979 119.859 79.2619 119.705 79.0592 119.508C78.8565 119.311 78.6979 119.08 78.5832 118.816C78.4685 118.552 78.4112 118.264 78.4112 117.952C78.4112 117.643 78.4672 117.356 78.5792 117.092C78.6912 116.828 78.8472 116.597 79.0472 116.4C79.2499 116.203 79.4859 116.049 79.7552 115.94C80.0245 115.831 80.3165 115.776 80.6312 115.776C80.9005 115.776 81.1565 115.816 81.3992 115.896C81.6419 115.976 81.8512 116.087 82.0272 116.228L81.7872 116.62C81.4885 116.388 81.1259 116.272 80.6992 116.272C80.3632 116.272 80.0672 116.347 79.8112 116.496C79.5579 116.643 79.3605 116.844 79.2192 117.1C79.0779 117.353 79.0072 117.637 79.0072 117.952C79.0072 118.269 79.0792 118.556 79.2232 118.812C79.3672 119.065 79.5672 119.265 79.8232 119.412C80.0792 119.559 80.3725 119.632 80.7032 119.632C80.9112 119.632 81.1072 119.603 81.2912 119.544C81.4779 119.483 81.6419 119.396 81.7832 119.284L82.0272 119.676C81.8485 119.815 81.6392 119.924 81.3992 120.004C81.1592 120.087 80.9032 120.128 80.6312 120.128ZM85.2535 120.128C84.8268 120.128 84.4415 120.036 84.0975 119.852C83.7562 119.668 83.4855 119.412 83.2855 119.084C83.0855 118.756 82.9855 118.379 82.9855 117.952C82.9855 117.523 83.0855 117.145 83.2855 116.82C83.4855 116.492 83.7562 116.236 84.0975 116.052C84.4388 115.868 84.8242 115.776 85.2535 115.776C85.6802 115.776 86.0642 115.868 86.4055 116.052C86.7495 116.236 87.0215 116.492 87.2215 116.82C87.4215 117.145 87.5215 117.523 87.5215 117.952C87.5215 118.379 87.4215 118.756 87.2215 119.084C87.0215 119.412 86.7495 119.668 86.4055 119.852C86.0642 120.036 85.6802 120.128 85.2535 120.128ZM85.2535 119.608C85.5735 119.608 85.8588 119.537 86.1095 119.396C86.3602 119.255 86.5575 119.06 86.7015 118.812C86.8455 118.561 86.9175 118.275 86.9175 117.952C86.9175 117.629 86.8455 117.344 86.7015 117.096C86.5575 116.845 86.3602 116.649 86.1095 116.508C85.8588 116.367 85.5735 116.296 85.2535 116.296C84.9335 116.296 84.6482 116.367 84.3975 116.508C84.1468 116.649 83.9495 116.845 83.8055 117.096C83.6615 117.344 83.5895 117.629 83.5895 117.952C83.5895 118.272 83.6615 118.557 83.8055 118.808C83.9495 119.059 84.1468 119.255 84.3975 119.396C84.6482 119.537 84.9335 119.608 85.2535 119.608Z" fill="white"/>
<path d="M17.095 99L20.41 90.75H21.915L25.225 99H23.48L22.78 97.12H19.54L18.84 99H17.095ZM20.095 95.7H22.23L21.16 92.935L20.095 95.7ZM26.2253 99V93.88H27.7603V94.45C28.0136 94.1967 28.2653 94.0117 28.5153 93.895C28.7653 93.7783 29.0353 93.72 29.3253 93.72C29.7186 93.72 30.0736 93.8083 30.3903 93.985C30.707 94.1617 30.9336 94.3983 31.0703 94.695C31.3203 94.3717 31.5886 94.1283 31.8753 93.965C32.162 93.8017 32.4903 93.72 32.8603 93.72C33.2303 93.72 33.5586 93.7967 33.8453 93.95C34.132 94.1033 34.357 94.3217 34.5203 94.605C34.687 94.885 34.7703 95.2167 34.7703 95.6V99H33.2353V96.02C33.2353 95.6867 33.1486 95.425 32.9753 95.235C32.802 95.0417 32.5703 94.945 32.2803 94.945C32.0803 94.945 31.9036 94.9867 31.7503 95.07C31.6003 95.1533 31.482 95.265 31.3953 95.405C31.3086 95.545 31.2653 95.7 31.2653 95.87V99H29.7303V95.99C29.7303 95.6733 29.6453 95.42 29.4753 95.23C29.3086 95.04 29.077 94.945 28.7803 94.945C28.5836 94.945 28.407 94.9867 28.2503 95.07C28.097 95.1533 27.977 95.2667 27.8903 95.41C27.8036 95.5533 27.7603 95.7117 27.7603 95.885V99H26.2253ZM36.2888 101.6L37.9438 98.36L35.5087 93.88H37.2688L38.8388 96.88L40.1988 93.88H41.9588L38.0438 101.6H36.2888ZM45.7227 99V90.75H47.3427V97.58H50.3227V99H45.7227ZM53.9706 99.16C53.4073 99.16 52.899 99.045 52.4456 98.815C51.9923 98.5817 51.6323 98.2617 51.3656 97.855C51.099 97.445 50.9656 96.9733 50.9656 96.44C50.9656 95.9067 51.0973 95.4367 51.3606 95.03C51.6273 94.62 51.9873 94.3 52.4406 94.07C52.8973 93.8367 53.4073 93.72 53.9706 93.72C54.5373 93.72 55.0473 93.8367 55.5006 94.07C55.954 94.3 56.3123 94.62 56.5756 95.03C56.8423 95.4367 56.9756 95.9067 56.9756 96.44C56.9756 96.9733 56.8423 97.445 56.5756 97.855C56.3123 98.2617 55.954 98.5817 55.5006 98.815C55.0473 99.045 54.5373 99.16 53.9706 99.16ZM53.9756 97.85C54.2356 97.85 54.4723 97.79 54.6856 97.67C54.899 97.55 55.0673 97.385 55.1906 97.175C55.314 96.9617 55.3756 96.7167 55.3756 96.44C55.3756 96.1633 55.314 95.92 55.1906 95.71C55.0673 95.4967 54.899 95.33 54.6856 95.21C54.4723 95.09 54.2356 95.03 53.9756 95.03C53.7123 95.03 53.474 95.09 53.2606 95.21C53.0506 95.33 52.884 95.4967 52.7606 95.71C52.6373 95.92 52.5756 96.1633 52.5756 96.44C52.5756 96.7167 52.6373 96.9617 52.7606 97.175C52.884 97.385 53.0506 97.55 53.2606 97.67C53.474 97.79 53.7123 97.85 53.9756 97.85ZM60.8447 99.16C59.9114 99.16 59.238 98.975 58.8247 98.605C58.4114 98.235 58.2047 97.63 58.2047 96.79V93.88H59.7397V96.43C59.7397 96.97 59.823 97.3517 59.9897 97.575C60.1597 97.7983 60.4447 97.91 60.8447 97.91C61.2514 97.91 61.5364 97.7983 61.6997 97.575C61.8664 97.3517 61.9497 96.97 61.9497 96.43V93.88H63.4847V96.79C63.4847 97.63 63.278 98.235 62.8647 98.605C62.4547 98.975 61.7814 99.16 60.8447 99.16ZM65.1706 99V93.88H66.7056V94.615C66.8956 94.3283 67.1273 94.1083 67.4006 93.955C67.6773 93.7983 67.974 93.72 68.2906 93.72C68.4706 93.72 68.6573 93.7467 68.8506 93.8C69.044 93.8533 69.2056 93.9217 69.3356 94.005L68.6956 95.3C68.5823 95.2233 68.449 95.1633 68.2956 95.12C68.1456 95.0733 68.0056 95.05 67.8756 95.05C67.6756 95.05 67.4856 95.1017 67.3056 95.205C67.1256 95.3083 66.9806 95.4433 66.8706 95.61C66.7606 95.7733 66.7056 95.95 66.7056 96.14V99H65.1706ZM72.3102 99.16C71.8468 99.16 71.4235 99.045 71.0402 98.815C70.6602 98.5817 70.3568 98.26 70.1302 97.85C69.9035 97.44 69.7902 96.97 69.7902 96.44C69.7902 95.92 69.9002 95.4567 70.1202 95.05C70.3402 94.64 70.6418 94.3167 71.0252 94.08C71.4118 93.84 71.8535 93.72 72.3502 93.72C72.7102 93.72 73.0435 93.79 73.3502 93.93C73.6568 94.0667 73.9118 94.2583 74.1152 94.505V90.4H75.6502V99H74.1152V98.325C73.8885 98.5883 73.6202 98.7933 73.3102 98.94C73.0002 99.0867 72.6668 99.16 72.3102 99.16ZM72.7702 97.855C73.0402 97.855 73.2785 97.795 73.4852 97.675C73.6918 97.5517 73.8535 97.3833 73.9702 97.17C74.0902 96.9567 74.1502 96.715 74.1502 96.445C74.1502 96.1717 74.0902 95.9283 73.9702 95.715C73.8535 95.5017 73.6918 95.3333 73.4852 95.21C73.2785 95.0867 73.0418 95.025 72.7752 95.025C72.5118 95.025 72.2768 95.0867 72.0702 95.21C71.8668 95.3333 71.7052 95.5033 71.5852 95.72C71.4652 95.9333 71.4052 96.1767 71.4052 96.45C71.4052 96.72 71.4635 96.9617 71.5802 97.175C71.6968 97.385 71.8585 97.5517 72.0652 97.675C72.2718 97.795 72.5068 97.855 72.7702 97.855ZM79.9158 99.16C79.3624 99.16 78.8658 99.0417 78.4258 98.805C77.9891 98.565 77.6424 98.24 77.3858 97.83C77.1291 97.42 77.0008 96.9567 77.0008 96.44C77.0008 96.06 77.0724 95.705 77.2158 95.375C77.3624 95.045 77.5658 94.7567 77.8258 94.51C78.0858 94.26 78.3874 94.0667 78.7308 93.93C79.0741 93.79 79.4458 93.72 79.8458 93.72C80.3791 93.72 80.8458 93.8317 81.2458 94.055C81.6491 94.275 81.9624 94.5817 82.1858 94.975C82.4124 95.3683 82.5258 95.8267 82.5258 96.35C82.5258 96.3933 82.5241 96.4317 82.5208 96.465C82.5208 96.495 82.5158 96.5533 82.5058 96.64H78.5808C78.5808 96.9 78.6391 97.1267 78.7558 97.32C78.8758 97.5133 79.0424 97.665 79.2558 97.775C79.4691 97.8817 79.7174 97.935 80.0008 97.935C80.2674 97.935 80.5024 97.8833 80.7058 97.78C80.9124 97.6767 81.1108 97.5117 81.3008 97.285L82.4058 97.84C82.1658 98.2533 81.8258 98.5767 81.3858 98.81C80.9458 99.0433 80.4558 99.16 79.9158 99.16ZM78.6358 95.79H81.0158C80.9824 95.5933 80.9108 95.4233 80.8008 95.28C80.6941 95.1367 80.5574 95.0267 80.3908 94.95C80.2241 94.8733 80.0358 94.835 79.8258 94.835C79.6024 94.835 79.4058 94.8733 79.2358 94.95C79.0658 95.0267 78.9291 95.1367 78.8258 95.28C78.7224 95.4233 78.6591 95.5933 78.6358 95.79ZM85.3218 99.16C84.8885 99.16 84.5001 99.0917 84.1568 98.955C83.8168 98.8183 83.5335 98.6183 83.3068 98.355L83.9518 97.325C84.1651 97.5517 84.3885 97.725 84.6218 97.845C84.8551 97.965 85.0885 98.025 85.3218 98.025C85.4518 98.025 85.5635 98.0033 85.6568 97.96C85.7535 97.9167 85.8285 97.855 85.8818 97.775C85.9385 97.6917 85.9668 97.5917 85.9668 97.475C85.9668 97.3417 85.9285 97.2367 85.8518 97.16C85.7785 97.0833 85.6651 97.0133 85.5118 96.95C85.3585 96.8833 85.1601 96.8 84.9168 96.7C84.7101 96.6133 84.5118 96.515 84.3218 96.405C84.1318 96.295 83.9768 96.155 83.8568 95.985C83.7401 95.815 83.6818 95.6 83.6818 95.34C83.6818 95.0233 83.7701 94.745 83.9468 94.505C84.1235 94.2617 84.3668 94.0717 84.6768 93.935C84.9901 93.7983 85.3501 93.73 85.7568 93.73C86.0101 93.73 86.2751 93.7683 86.5518 93.845C86.8318 93.9217 87.1301 94.0383 87.4468 94.195L86.9218 95.18C86.4918 94.9033 86.1068 94.765 85.7668 94.765C85.5768 94.765 85.4251 94.8067 85.3118 94.89C85.1985 94.9733 85.1418 95.0783 85.1418 95.205C85.1418 95.325 85.2001 95.43 85.3168 95.52C85.4368 95.6067 85.5818 95.685 85.7518 95.755C85.9251 95.8217 86.0901 95.8833 86.2468 95.94C86.5035 96.0333 86.7301 96.1367 86.9268 96.25C87.1268 96.3633 87.2835 96.5117 87.3968 96.695C87.5101 96.875 87.5668 97.1167 87.5668 97.42C87.5668 97.79 87.4768 98.105 87.2968 98.365C87.1201 98.6217 86.8635 98.8183 86.5268 98.955C86.1935 99.0917 85.7918 99.16 85.3218 99.16ZM95.4643 99.16C94.8876 99.16 94.3476 99.05 93.8443 98.83C93.341 98.61 92.8993 98.305 92.5193 97.915C92.1393 97.5217 91.841 97.0667 91.6243 96.55C91.411 96.03 91.3043 95.4733 91.3043 94.88C91.3043 94.2867 91.411 93.7317 91.6243 93.215C91.841 92.695 92.1393 92.24 92.5193 91.85C92.8993 91.4567 93.341 91.15 93.8443 90.93C94.3476 90.71 94.8876 90.6 95.4643 90.6C96.041 90.6 96.581 90.71 97.0843 90.93C97.5876 91.15 98.0293 91.4567 98.4093 91.85C98.7893 92.24 99.086 92.695 99.2993 93.215C99.516 93.7317 99.6243 94.2867 99.6243 94.88C99.6243 95.4733 99.516 96.03 99.2993 96.55C99.086 97.0667 98.7893 97.5217 98.4093 97.915C98.0293 98.305 97.5876 98.61 97.0843 98.83C96.581 99.05 96.041 99.16 95.4643 99.16ZM95.4593 97.6C95.8126 97.6 96.136 97.5333 96.4293 97.4C96.7226 97.2667 96.9776 97.0783 97.1943 96.835C97.411 96.5917 97.5793 96.305 97.6993 95.975C97.8193 95.6417 97.8793 95.2767 97.8793 94.88C97.8793 94.4833 97.8193 94.12 97.6993 93.79C97.5793 93.4567 97.411 93.1683 97.1943 92.925C96.9776 92.6817 96.7226 92.4933 96.4293 92.36C96.136 92.2267 95.8126 92.16 95.4593 92.16C95.1126 92.16 94.791 92.2267 94.4943 92.36C94.201 92.4933 93.946 92.6817 93.7293 92.925C93.5126 93.1683 93.3443 93.4567 93.2243 93.79C93.1076 94.12 93.0493 94.4833 93.0493 94.88C93.0493 95.2767 93.1076 95.6417 93.2243 95.975C93.3443 96.305 93.5126 96.5917 93.7293 96.835C93.946 97.0783 94.201 97.2667 94.4943 97.4C94.791 97.5333 95.1126 97.6 95.4593 97.6ZM101.05 99V93.88H102.585V94.615C102.775 94.3283 103.006 94.1083 103.28 93.955C103.556 93.7983 103.853 93.72 104.17 93.72C104.35 93.72 104.536 93.7467 104.73 93.8C104.923 93.8533 105.085 93.9217 105.215 94.005L104.575 95.3C104.461 95.2233 104.328 95.1633 104.175 95.12C104.025 95.0733 103.885 95.05 103.755 95.05C103.555 95.05 103.365 95.1017 103.185 95.205C103.005 95.3083 102.86 95.4433 102.75 95.61C102.64 95.7733 102.585 95.95 102.585 96.14V99H101.05ZM107.834 99.16C107.324 99.16 106.927 98.9983 106.644 98.675C106.361 98.3483 106.219 97.8933 106.219 97.31V95.045H105.534V93.88H106.219V91.96H107.754V93.88H108.879V95.045H107.754V97.2C107.754 97.3933 107.792 97.54 107.869 97.64C107.949 97.74 108.061 97.79 108.204 97.79C108.364 97.79 108.517 97.7367 108.664 97.63L109.049 98.86C108.876 98.9533 108.681 99.0267 108.464 99.08C108.251 99.1333 108.041 99.16 107.834 99.16ZM112.836 99.16C112.282 99.16 111.786 99.0417 111.346 98.805C110.909 98.565 110.562 98.24 110.306 97.83C110.049 97.42 109.921 96.9567 109.921 96.44C109.921 96.06 109.992 95.705 110.136 95.375C110.282 95.045 110.486 94.7567 110.746 94.51C111.006 94.26 111.307 94.0667 111.651 93.93C111.994 93.79 112.366 93.72 112.766 93.72C113.299 93.72 113.766 93.8317 114.166 94.055C114.569 94.275 114.882 94.5817 115.106 94.975C115.332 95.3683 115.446 95.8267 115.446 96.35C115.446 96.3933 115.444 96.4317 115.441 96.465C115.441 96.495 115.436 96.5533 115.426 96.64H111.501C111.501 96.9 111.559 97.1267 111.676 97.32C111.796 97.5133 111.962 97.665 112.176 97.775C112.389 97.8817 112.637 97.935 112.921 97.935C113.187 97.935 113.422 97.8833 113.626 97.78C113.832 97.6767 114.031 97.5117 114.221 97.285L115.326 97.84C115.086 98.2533 114.746 98.5767 114.306 98.81C113.866 99.0433 113.376 99.16 112.836 99.16ZM111.556 95.79H113.936C113.902 95.5933 113.831 95.4233 113.721 95.28C113.614 95.1367 113.477 95.0267 113.311 94.95C113.144 94.8733 112.956 94.835 112.746 94.835C112.522 94.835 112.326 94.8733 112.156 94.95C111.986 95.0267 111.849 95.1367 111.746 95.28C111.642 95.4233 111.579 95.5933 111.556 95.79ZM119.296 101.75C118.606 101.75 118.026 101.623 117.556 101.37C117.086 101.12 116.744 100.75 116.531 100.26L117.781 99.65C117.921 99.8867 118.127 100.075 118.401 100.215C118.674 100.355 118.971 100.425 119.291 100.425C119.581 100.425 119.836 100.367 120.056 100.25C120.276 100.137 120.447 99.975 120.571 99.765C120.694 99.5583 120.756 99.3183 120.756 99.045V98.325C120.529 98.5883 120.261 98.7933 119.951 98.94C119.641 99.0867 119.307 99.16 118.951 99.16C118.487 99.16 118.064 99.045 117.681 98.815C117.301 98.5817 116.997 98.26 116.771 97.85C116.544 97.44 116.431 96.97 116.431 96.44C116.431 95.92 116.541 95.4567 116.761 95.05C116.984 94.64 117.287 94.3167 117.671 94.08C118.057 93.84 118.497 93.72 118.991 93.72C119.351 93.72 119.684 93.79 119.991 93.93C120.297 94.0667 120.552 94.2583 120.756 94.505V93.88H122.291V99.14C122.291 99.6433 122.181 100.092 121.961 100.485C121.744 100.878 121.414 101.187 120.971 101.41C120.527 101.637 119.969 101.75 119.296 101.75ZM119.411 97.855C119.681 97.855 119.919 97.795 120.126 97.675C120.336 97.5517 120.499 97.385 120.616 97.175C120.732 96.9617 120.791 96.72 120.791 96.45C120.791 96.1733 120.731 95.9283 120.611 95.715C120.494 95.5017 120.332 95.3333 120.126 95.21C119.919 95.0867 119.684 95.025 119.421 95.025C119.157 95.025 118.922 95.0867 118.716 95.21C118.509 95.3333 118.346 95.5033 118.226 95.72C118.106 95.9333 118.046 96.1767 118.046 96.45C118.046 96.72 118.104 96.9617 118.221 97.175C118.337 97.385 118.499 97.5517 118.706 97.675C118.912 97.795 119.147 97.855 119.411 97.855ZM126.231 99.16C125.761 99.16 125.333 99.0433 124.946 98.81C124.563 98.5733 124.258 98.25 124.031 97.84C123.808 97.4267 123.696 96.9567 123.696 96.43C123.696 95.9167 123.805 95.4567 124.021 95.05C124.238 94.64 124.536 94.3167 124.916 94.08C125.3 93.84 125.738 93.72 126.231 93.72C126.595 93.72 126.933 93.79 127.246 93.93C127.563 94.0667 127.821 94.2583 128.021 94.505V93.88H129.556V99H128.021V98.325C127.788 98.595 127.52 98.8017 127.216 98.945C126.913 99.0883 126.585 99.16 126.231 99.16ZM126.686 97.855C126.953 97.855 127.19 97.795 127.396 97.675C127.603 97.5517 127.765 97.3833 127.881 97.17C127.998 96.9567 128.056 96.7133 128.056 96.44C128.056 96.1633 127.996 95.92 127.876 95.71C127.76 95.4967 127.598 95.33 127.391 95.21C127.188 95.0867 126.953 95.025 126.686 95.025C126.423 95.025 126.188 95.0867 125.981 95.21C125.775 95.33 125.611 95.4967 125.491 95.71C125.371 95.9233 125.311 96.1667 125.311 96.44C125.311 96.7133 125.37 96.9567 125.486 97.17C125.606 97.3833 125.77 97.5517 125.976 97.675C126.183 97.795 126.42 97.855 126.686 97.855ZM136.177 99.16C135.714 99.16 135.291 99.045 134.907 98.815C134.527 98.5817 134.224 98.26 133.997 97.85C133.771 97.44 133.657 96.97 133.657 96.44C133.657 95.92 133.767 95.4567 133.987 95.05C134.207 94.64 134.509 94.3167 134.892 94.08C135.279 93.84 135.721 93.72 136.217 93.72C136.577 93.72 136.911 93.79 137.217 93.93C137.524 94.0667 137.779 94.2583 137.982 94.505V90.4H139.517V99H137.982V98.325C137.756 98.5883 137.487 98.7933 137.177 98.94C136.867 99.0867 136.534 99.16 136.177 99.16ZM136.637 97.855C136.907 97.855 137.146 97.795 137.352 97.675C137.559 97.5517 137.721 97.3833 137.837 97.17C137.957 96.9567 138.017 96.715 138.017 96.445C138.017 96.1717 137.957 95.9283 137.837 95.715C137.721 95.5017 137.559 95.3333 137.352 95.21C137.146 95.0867 136.909 95.025 136.642 95.025C136.379 95.025 136.144 95.0867 135.937 95.21C135.734 95.3333 135.572 95.5033 135.452 95.72C135.332 95.9333 135.272 96.1767 135.272 96.45C135.272 96.72 135.331 96.9617 135.447 97.175C135.564 97.385 135.726 97.5517 135.932 97.675C136.139 97.795 136.374 97.855 136.637 97.855ZM143.783 99.16C143.23 99.16 142.733 99.0417 142.293 98.805C141.856 98.565 141.51 98.24 141.253 97.83C140.996 97.42 140.868 96.9567 140.868 96.44C140.868 96.06 140.94 95.705 141.083 95.375C141.23 95.045 141.433 94.7567 141.693 94.51C141.953 94.26 142.255 94.0667 142.598 93.93C142.941 93.79 143.313 93.72 143.713 93.72C144.246 93.72 144.713 93.8317 145.113 94.055C145.516 94.275 145.83 94.5817 146.053 94.975C146.28 95.3683 146.393 95.8267 146.393 96.35C146.393 96.3933 146.391 96.4317 146.388 96.465C146.388 96.495 146.383 96.5533 146.373 96.64H142.448C142.448 96.9 142.506 97.1267 142.623 97.32C142.743 97.5133 142.91 97.665 143.123 97.775C143.336 97.8817 143.585 97.935 143.868 97.935C144.135 97.935 144.37 97.8833 144.573 97.78C144.78 97.6767 144.978 97.5117 145.168 97.285L146.273 97.84C146.033 98.2533 145.693 98.5767 145.253 98.81C144.813 99.0433 144.323 99.16 143.783 99.16ZM142.503 95.79H144.883C144.85 95.5933 144.778 95.4233 144.668 95.28C144.561 95.1367 144.425 95.0267 144.258 94.95C144.091 94.8733 143.903 94.835 143.693 94.835C143.47 94.835 143.273 94.8733 143.103 94.95C142.933 95.0267 142.796 95.1367 142.693 95.28C142.59 95.4233 142.526 95.5933 142.503 95.79ZM150.693 99V90.75H152.313V97.58H155.293V99H150.693ZM158.851 99.16C158.298 99.16 157.801 99.0417 157.361 98.805C156.925 98.565 156.578 98.24 156.321 97.83C156.065 97.42 155.936 96.9567 155.936 96.44C155.936 96.06 156.008 95.705 156.151 95.375C156.298 95.045 156.501 94.7567 156.761 94.51C157.021 94.26 157.323 94.0667 157.666 93.93C158.01 93.79 158.381 93.72 158.781 93.72C159.315 93.72 159.781 93.8317 160.181 94.055C160.585 94.275 160.898 94.5817 161.121 94.975C161.348 95.3683 161.461 95.8267 161.461 96.35C161.461 96.3933 161.46 96.4317 161.456 96.465C161.456 96.495 161.451 96.5533 161.441 96.64H157.516C157.516 96.9 157.575 97.1267 157.691 97.32C157.811 97.5133 157.978 97.665 158.191 97.775C158.405 97.8817 158.653 97.935 158.936 97.935C159.203 97.935 159.438 97.8833 159.641 97.78C159.848 97.6767 160.046 97.5117 160.236 97.285L161.341 97.84C161.101 98.2533 160.761 98.5767 160.321 98.81C159.881 99.0433 159.391 99.16 158.851 99.16ZM157.571 95.79H159.951C159.918 95.5933 159.846 95.4233 159.736 95.28C159.63 95.1367 159.493 95.0267 159.326 94.95C159.16 94.8733 158.971 94.835 158.761 94.835C158.538 94.835 158.341 94.8733 158.171 94.95C158.001 95.0267 157.865 95.1367 157.761 95.28C157.658 95.4233 157.595 95.5933 157.571 95.79ZM165.396 99.16C164.833 99.16 164.325 99.045 163.871 98.815C163.418 98.5817 163.058 98.2617 162.791 97.855C162.525 97.445 162.391 96.9733 162.391 96.44C162.391 95.9067 162.523 95.4367 162.786 95.03C163.053 94.62 163.413 94.3 163.866 94.07C164.323 93.8367 164.833 93.72 165.396 93.72C165.963 93.72 166.473 93.8367 166.926 94.07C167.38 94.3 167.738 94.62 168.001 95.03C168.268 95.4367 168.401 95.9067 168.401 96.44C168.401 96.9733 168.268 97.445 168.001 97.855C167.738 98.2617 167.38 98.5817 166.926 98.815C166.473 99.045 165.963 99.16 165.396 99.16ZM165.401 97.85C165.661 97.85 165.898 97.79 166.111 97.67C166.325 97.55 166.493 97.385 166.616 97.175C166.74 96.9617 166.801 96.7167 166.801 96.44C166.801 96.1633 166.74 95.92 166.616 95.71C166.493 95.4967 166.325 95.33 166.111 95.21C165.898 95.09 165.661 95.03 165.401 95.03C165.138 95.03 164.9 95.09 164.686 95.21C164.476 95.33 164.31 95.4967 164.186 95.71C164.063 95.92 164.001 96.1633 164.001 96.44C164.001 96.7167 164.063 96.9617 164.186 97.175C164.31 97.385 164.476 97.55 164.686 97.67C164.9 97.79 165.138 97.85 165.401 97.85ZM165.151 93.3L164.501 92.77L165.886 90.565L166.916 91.34L165.151 93.3ZM169.76 99V93.88H171.295V94.45C171.492 94.23 171.737 94.0533 172.03 93.92C172.327 93.7867 172.654 93.72 173.01 93.72C173.404 93.72 173.749 93.8067 174.045 93.98C174.345 94.15 174.58 94.3883 174.75 94.695C174.92 94.9983 175.005 95.3533 175.005 95.76V99H173.47V96.085C173.47 95.7183 173.374 95.4333 173.18 95.23C172.99 95.0233 172.729 94.92 172.395 94.92C172.169 94.92 171.972 94.9667 171.805 95.06C171.642 95.15 171.515 95.275 171.425 95.435C171.339 95.5917 171.295 95.77 171.295 95.97V99H169.76Z" fill="white"/>
</svg>
