<svg width="436" height="168" viewBox="0 0 436 168" fill="none" xmlns="http://www.w3.org/2000/svg">
<rect x="221" width="215" height="168" rx="29" fill="#F3BD37"/>
<rect x="232" y="11" width="88" height="146" rx="29" fill="white" fill-opacity="0.5"/>
<path d="M336.995 112L333.535 103.75H334.395L337.295 110.855L340.19 103.75H341.05L337.59 112H336.995ZM345.497 112V103.75H347.357C347.941 103.75 348.484 103.855 348.987 104.065C349.494 104.275 349.936 104.568 350.312 104.945C350.689 105.318 350.984 105.755 351.197 106.255C351.411 106.755 351.517 107.297 351.517 107.88C351.517 108.46 351.412 109 351.202 109.5C350.992 110 350.697 110.438 350.317 110.815C349.941 111.188 349.499 111.48 348.992 111.69C348.489 111.897 347.944 112 347.357 112H345.497ZM346.257 111.32H347.287C347.774 111.32 348.224 111.233 348.637 111.06C349.054 110.883 349.417 110.64 349.727 110.33C350.041 110.017 350.284 109.652 350.457 109.235C350.631 108.815 350.717 108.362 350.717 107.875C350.717 107.388 350.631 106.937 350.457 106.52C350.284 106.103 350.041 105.738 349.727 105.425C349.417 105.112 349.054 104.868 348.637 104.695C348.221 104.518 347.771 104.43 347.287 104.43H346.257V111.32ZM353.416 112V106.88H354.146V112H353.416ZM353.786 105.855C353.696 105.855 353.614 105.833 353.541 105.79C353.471 105.747 353.414 105.688 353.371 105.615C353.327 105.542 353.306 105.462 353.306 105.375C353.306 105.288 353.327 105.21 353.371 105.14C353.414 105.067 353.471 105.008 353.541 104.965C353.614 104.922 353.696 104.9 353.786 104.9C353.872 104.9 353.951 104.922 354.021 104.965C354.091 105.008 354.147 105.065 354.191 105.135C354.237 105.205 354.261 105.285 354.261 105.375C354.261 105.462 354.237 105.542 354.191 105.615C354.147 105.688 354.091 105.747 354.021 105.79C353.951 105.833 353.872 105.855 353.786 105.855ZM357.632 112.16C357.208 112.16 356.835 112.058 356.512 111.855C356.188 111.648 355.937 111.357 355.757 110.98L356.147 110.56C356.307 110.887 356.515 111.142 356.772 111.325C357.028 111.505 357.313 111.595 357.627 111.595C357.837 111.595 358.028 111.552 358.202 111.465C358.378 111.378 358.518 111.255 358.622 111.095C358.728 110.932 358.782 110.738 358.782 110.515C358.782 110.312 358.732 110.152 358.632 110.035C358.535 109.918 358.392 109.818 358.202 109.735C358.015 109.648 357.782 109.552 357.502 109.445C357.285 109.358 357.075 109.26 356.872 109.15C356.668 109.04 356.5 108.902 356.367 108.735C356.237 108.565 356.172 108.35 356.172 108.09C356.172 107.827 356.242 107.593 356.382 107.39C356.522 107.183 356.715 107.022 356.962 106.905C357.208 106.785 357.488 106.725 357.802 106.725C358.088 106.725 358.357 106.787 358.607 106.91C358.86 107.033 359.087 107.208 359.287 107.435L358.952 107.86C358.645 107.457 358.263 107.255 357.807 107.255C357.527 107.255 357.298 107.328 357.122 107.475C356.948 107.622 356.862 107.813 356.862 108.05C356.862 108.22 356.917 108.362 357.027 108.475C357.137 108.588 357.28 108.685 357.457 108.765C357.637 108.845 357.83 108.925 358.037 109.005C358.337 109.118 358.597 109.232 358.817 109.345C359.04 109.458 359.213 109.603 359.337 109.78C359.46 109.953 359.522 110.19 359.522 110.49C359.522 110.833 359.442 111.13 359.282 111.38C359.122 111.63 358.898 111.823 358.612 111.96C358.328 112.093 358.002 112.16 357.632 112.16ZM363.653 112.16C363.116 112.16 362.636 112.042 362.213 111.805C361.793 111.568 361.463 111.247 361.223 110.84C360.983 110.43 360.863 109.97 360.863 109.46C360.863 109.077 360.931 108.72 361.068 108.39C361.208 108.057 361.401 107.765 361.648 107.515C361.894 107.265 362.181 107.07 362.508 106.93C362.834 106.79 363.183 106.72 363.553 106.72C364.059 106.72 364.509 106.832 364.903 107.055C365.299 107.275 365.613 107.58 365.843 107.97C366.076 108.36 366.199 108.81 366.213 109.32C366.213 109.36 366.211 109.393 366.208 109.42C366.208 109.443 366.204 109.473 366.198 109.51H361.588C361.588 109.91 361.678 110.263 361.858 110.57C362.038 110.877 362.284 111.118 362.598 111.295C362.914 111.468 363.276 111.555 363.683 111.555C364.069 111.555 364.416 111.475 364.723 111.315C365.033 111.152 365.291 110.918 365.498 110.615L366.038 110.905C365.794 111.302 365.463 111.61 365.043 111.83C364.626 112.05 364.163 112.16 363.653 112.16ZM361.628 108.96H365.483C365.439 108.64 365.328 108.358 365.148 108.115C364.968 107.868 364.739 107.675 364.463 107.535C364.189 107.395 363.889 107.325 363.563 107.325C363.226 107.325 362.919 107.395 362.643 107.535C362.366 107.672 362.138 107.863 361.958 108.11C361.781 108.353 361.671 108.637 361.628 108.96ZM367.932 112V106.88H368.662V107.58C368.802 107.34 369.019 107.137 369.312 106.97C369.606 106.803 369.964 106.72 370.387 106.72C370.784 106.72 371.126 106.802 371.412 106.965C371.699 107.128 371.919 107.367 372.072 107.68C372.226 107.99 372.302 108.365 372.302 108.805V112H371.572V108.945C371.572 108.415 371.449 108.012 371.202 107.735C370.956 107.455 370.607 107.315 370.157 107.315C369.844 107.315 369.576 107.378 369.352 107.505C369.132 107.628 368.962 107.793 368.842 108C368.722 108.203 368.662 108.425 368.662 108.665V112H367.932ZM371.192 105.51C370.979 105.51 370.789 105.47 370.622 105.39C370.459 105.307 370.304 105.212 370.157 105.105C370.011 104.998 369.859 104.905 369.702 104.825C369.549 104.745 369.374 104.705 369.177 104.705C368.914 104.705 368.692 104.783 368.512 104.94C368.336 105.093 368.196 105.272 368.092 105.475L367.692 105.12C367.846 104.843 368.049 104.61 368.302 104.42C368.556 104.227 368.844 104.13 369.167 104.13C369.391 104.13 369.589 104.172 369.762 104.255C369.939 104.335 370.102 104.428 370.252 104.535C370.406 104.642 370.559 104.735 370.712 104.815C370.869 104.895 371.036 104.935 371.212 104.935C371.436 104.935 371.641 104.865 371.827 104.725C372.014 104.585 372.167 104.398 372.287 104.165L372.682 104.52C372.569 104.723 372.431 104.9 372.267 105.05C372.107 105.197 371.934 105.31 371.747 105.39C371.564 105.47 371.379 105.51 371.192 105.51ZM376.803 112.16C376.27 112.16 375.788 112.045 375.358 111.815C374.932 111.585 374.593 111.265 374.343 110.855C374.093 110.445 373.968 109.973 373.968 109.44C373.968 108.903 374.093 108.432 374.343 108.025C374.593 107.615 374.932 107.295 375.358 107.065C375.785 106.835 376.267 106.72 376.803 106.72C377.337 106.72 377.817 106.835 378.243 107.065C378.673 107.295 379.013 107.615 379.263 108.025C379.513 108.432 379.638 108.903 379.638 109.44C379.638 109.973 379.513 110.445 379.263 110.855C379.013 111.265 378.673 111.585 378.243 111.815C377.817 112.045 377.337 112.16 376.803 112.16ZM376.803 111.51C377.203 111.51 377.56 111.422 377.873 111.245C378.187 111.068 378.433 110.825 378.613 110.515C378.793 110.202 378.883 109.843 378.883 109.44C378.883 109.037 378.793 108.68 378.613 108.37C378.433 108.057 378.187 107.812 377.873 107.635C377.56 107.458 377.203 107.37 376.803 107.37C376.403 107.37 376.047 107.458 375.733 107.635C375.42 107.812 375.173 108.057 374.993 108.37C374.813 108.68 374.723 109.037 374.723 109.44C374.723 109.84 374.813 110.197 374.993 110.51C375.173 110.823 375.42 111.068 375.733 111.245C376.047 111.422 376.403 111.51 376.803 111.51ZM387.803 112.16C387.229 112.16 386.696 112.05 386.203 111.83C385.713 111.61 385.283 111.305 384.913 110.915C384.546 110.525 384.259 110.072 384.053 109.555C383.846 109.035 383.743 108.477 383.743 107.88C383.743 107.33 383.834 106.798 384.018 106.285C384.201 105.772 384.469 105.315 384.823 104.915C385.176 104.512 385.608 104.192 386.118 103.955C386.631 103.718 387.213 103.6 387.863 103.6C388.289 103.6 388.693 103.653 389.073 103.76C389.453 103.867 389.801 104.015 390.118 104.205C390.438 104.395 390.716 104.618 390.953 104.875L390.558 105.455C390.244 105.098 389.851 104.813 389.378 104.6C388.904 104.383 388.396 104.275 387.853 104.275C387.333 104.275 386.868 104.372 386.458 104.565C386.051 104.758 385.706 105.023 385.423 105.36C385.139 105.693 384.924 106.075 384.778 106.505C384.631 106.932 384.558 107.382 384.558 107.855C384.558 108.365 384.639 108.84 384.803 109.28C384.969 109.717 385.201 110.1 385.498 110.43C385.794 110.757 386.141 111.012 386.538 111.195C386.934 111.375 387.361 111.465 387.818 111.465C388.188 111.465 388.551 111.403 388.908 111.28C389.264 111.157 389.584 110.978 389.868 110.745C390.154 110.512 390.381 110.233 390.548 109.91C390.718 109.583 390.803 109.217 390.803 108.81V108.525H387.763V107.91H391.583V108.645C391.583 109.228 391.473 109.74 391.253 110.18C391.033 110.62 390.739 110.987 390.373 111.28C390.006 111.57 389.599 111.79 389.153 111.94C388.706 112.087 388.256 112.16 387.803 112.16ZM393.43 112V106.88H394.16V107.635C394.324 107.335 394.534 107.108 394.79 106.955C395.05 106.798 395.35 106.72 395.69 106.72C395.84 106.72 395.992 106.737 396.145 106.77C396.302 106.803 396.437 106.847 396.55 106.9L396.25 107.515C396.15 107.465 396.035 107.427 395.905 107.4C395.779 107.373 395.657 107.36 395.54 107.36C395.304 107.36 395.08 107.42 394.87 107.54C394.66 107.66 394.489 107.817 394.355 108.01C394.225 108.2 394.16 108.403 394.16 108.62V112H393.43ZM400.078 112.16C399.598 112.16 399.165 112.043 398.778 111.81C398.395 111.573 398.09 111.25 397.863 110.84C397.64 110.43 397.528 109.962 397.528 109.435C397.528 108.915 397.638 108.452 397.858 108.045C398.082 107.635 398.385 107.312 398.768 107.075C399.155 106.838 399.592 106.72 400.078 106.72C400.542 106.72 400.962 106.828 401.338 107.045C401.715 107.262 402.002 107.562 402.198 107.945V106.88H402.928V112H402.198V110.92C401.978 111.307 401.683 111.61 401.313 111.83C400.943 112.05 400.532 112.16 400.078 112.16ZM400.258 111.525C400.642 111.525 400.98 111.437 401.273 111.26C401.57 111.08 401.803 110.833 401.973 110.52C402.143 110.203 402.228 109.843 402.228 109.44C402.228 109.033 402.143 108.673 401.973 108.36C401.807 108.047 401.575 107.802 401.278 107.625C400.982 107.445 400.642 107.355 400.258 107.355C399.875 107.355 399.535 107.445 399.238 107.625C398.942 107.802 398.708 108.047 398.538 108.36C398.368 108.673 398.283 109.033 398.283 109.44C398.283 109.843 398.368 110.203 398.538 110.52C398.708 110.833 398.942 111.08 399.238 111.26C399.535 111.437 399.875 111.525 400.258 111.525ZM400.538 106.055L400.163 105.78L401.113 103.885L401.688 104.295L400.538 106.055ZM405.161 112V107.43H404.651V106.88H405.161V105.045C405.161 104.638 405.219 104.303 405.336 104.04C405.456 103.773 405.623 103.575 405.836 103.445C406.049 103.315 406.299 103.25 406.586 103.25C406.783 103.25 406.971 103.28 407.151 103.34C407.334 103.4 407.498 103.48 407.641 103.58C407.784 103.68 407.899 103.797 407.986 103.93L407.646 104.37C407.566 104.23 407.439 104.115 407.266 104.025C407.096 103.932 406.926 103.885 406.756 103.885C406.469 103.885 406.253 103.973 406.106 104.15C405.963 104.327 405.891 104.618 405.891 105.025V106.88H408.236V112H407.506V107.43H405.891V112H405.161ZM412.539 112.16C412.156 112.16 411.796 112.093 411.459 111.96C411.122 111.823 410.827 111.632 410.574 111.385C410.321 111.138 410.122 110.85 409.979 110.52C409.836 110.19 409.764 109.83 409.764 109.44C409.764 109.053 409.834 108.695 409.974 108.365C410.114 108.035 410.309 107.747 410.559 107.5C410.812 107.253 411.107 107.062 411.444 106.925C411.781 106.788 412.146 106.72 412.539 106.72C412.876 106.72 413.196 106.77 413.499 106.87C413.802 106.97 414.064 107.108 414.284 107.285L413.984 107.775C413.611 107.485 413.157 107.34 412.624 107.34C412.204 107.34 411.834 107.433 411.514 107.62C411.197 107.803 410.951 108.055 410.774 108.375C410.597 108.692 410.509 109.047 410.509 109.44C410.509 109.837 410.599 110.195 410.779 110.515C410.959 110.832 411.209 111.082 411.529 111.265C411.849 111.448 412.216 111.54 412.629 111.54C412.889 111.54 413.134 111.503 413.364 111.43C413.597 111.353 413.802 111.245 413.979 111.105L414.284 111.595C414.061 111.768 413.799 111.905 413.499 112.005C413.199 112.108 412.879 112.16 412.539 112.16ZM418.317 112.16C417.784 112.16 417.302 112.045 416.872 111.815C416.445 111.585 416.107 111.265 415.857 110.855C415.607 110.445 415.482 109.973 415.482 109.44C415.482 108.903 415.607 108.432 415.857 108.025C416.107 107.615 416.445 107.295 416.872 107.065C417.299 106.835 417.78 106.72 418.317 106.72C418.85 106.72 419.33 106.835 419.757 107.065C420.187 107.295 420.527 107.615 420.777 108.025C421.027 108.432 421.152 108.903 421.152 109.44C421.152 109.973 421.027 110.445 420.777 110.855C420.527 111.265 420.187 111.585 419.757 111.815C419.33 112.045 418.85 112.16 418.317 112.16ZM418.317 111.51C418.717 111.51 419.074 111.422 419.387 111.245C419.7 111.068 419.947 110.825 420.127 110.515C420.307 110.202 420.397 109.843 420.397 109.44C420.397 109.037 420.307 108.68 420.127 108.37C419.947 108.057 419.7 107.812 419.387 107.635C419.074 107.458 418.717 107.37 418.317 107.37C417.917 107.37 417.56 107.458 417.247 107.635C416.934 107.812 416.687 108.057 416.507 108.37C416.327 108.68 416.237 109.037 416.237 109.44C416.237 109.84 416.327 110.197 416.507 110.51C416.687 110.823 416.934 111.068 417.247 111.245C417.56 111.422 417.917 111.51 418.317 111.51ZM333.63 123V122.645C334.397 122.045 335.057 121.513 335.61 121.05C336.163 120.583 336.627 120.17 337 119.81C337.373 119.45 337.67 119.127 337.89 118.84C338.11 118.553 338.267 118.288 338.36 118.045C338.453 117.802 338.5 117.562 338.5 117.325C338.5 116.952 338.41 116.613 338.23 116.31C338.053 116.007 337.815 115.765 337.515 115.585C337.215 115.405 336.882 115.315 336.515 115.315C336.148 115.315 335.815 115.405 335.515 115.585C335.215 115.765 334.968 116.012 334.775 116.325C334.582 116.638 334.467 116.998 334.43 117.405L333.745 117.175C333.782 116.808 333.877 116.468 334.03 116.155C334.187 115.842 334.39 115.568 334.64 115.335C334.893 115.102 335.182 114.92 335.505 114.79C335.828 114.66 336.177 114.595 336.55 114.595C337.067 114.595 337.535 114.715 337.955 114.955C338.375 115.192 338.708 115.515 338.955 115.925C339.202 116.335 339.325 116.798 339.325 117.315C339.325 117.582 339.285 117.843 339.205 118.1C339.125 118.357 338.99 118.625 338.8 118.905C338.613 119.185 338.362 119.49 338.045 119.82C337.728 120.147 337.333 120.512 336.86 120.915C336.39 121.318 335.828 121.775 335.175 122.285H339.475V123H333.63ZM344.486 123.16C343.812 123.16 343.222 122.982 342.716 122.625C342.212 122.265 341.821 121.763 341.541 121.12C341.261 120.477 341.121 119.73 341.121 118.88C341.121 118.027 341.261 117.28 341.541 116.64C341.821 115.997 342.212 115.497 342.716 115.14C343.222 114.78 343.812 114.6 344.486 114.6C345.159 114.6 345.747 114.78 346.251 115.14C346.754 115.497 347.146 115.997 347.426 116.64C347.709 117.28 347.851 118.027 347.851 118.88C347.851 119.73 347.709 120.477 347.426 121.12C347.146 121.763 346.754 122.265 346.251 122.625C345.747 122.982 345.159 123.16 344.486 123.16ZM344.486 122.475C344.999 122.475 345.447 122.327 345.831 122.03C346.214 121.733 346.512 121.315 346.726 120.775C346.939 120.235 347.046 119.603 347.046 118.88C347.046 118.153 346.939 117.522 346.726 116.985C346.512 116.445 346.214 116.027 345.831 115.73C345.447 115.433 344.999 115.285 344.486 115.285C343.972 115.285 343.522 115.433 343.136 115.73C342.752 116.027 342.454 116.445 342.241 116.985C342.031 117.522 341.926 118.153 341.926 118.88C341.926 119.603 342.031 120.235 342.241 120.775C342.454 121.315 342.752 121.733 343.136 122.03C343.522 122.327 343.972 122.475 344.486 122.475ZM349.333 123V122.645C350.1 122.045 350.76 121.513 351.313 121.05C351.866 120.583 352.33 120.17 352.703 119.81C353.076 119.45 353.373 119.127 353.593 118.84C353.813 118.553 353.97 118.288 354.063 118.045C354.156 117.802 354.203 117.562 354.203 117.325C354.203 116.952 354.113 116.613 353.933 116.31C353.756 116.007 353.518 115.765 353.218 115.585C352.918 115.405 352.585 115.315 352.218 115.315C351.851 115.315 351.518 115.405 351.218 115.585C350.918 115.765 350.671 116.012 350.478 116.325C350.285 116.638 350.17 116.998 350.133 117.405L349.448 117.175C349.485 116.808 349.58 116.468 349.733 116.155C349.89 115.842 350.093 115.568 350.343 115.335C350.596 115.102 350.885 114.92 351.208 114.79C351.531 114.66 351.88 114.595 352.253 114.595C352.77 114.595 353.238 114.715 353.658 114.955C354.078 115.192 354.411 115.515 354.658 115.925C354.905 116.335 355.028 116.798 355.028 117.315C355.028 117.582 354.988 117.843 354.908 118.1C354.828 118.357 354.693 118.625 354.503 118.905C354.316 119.185 354.065 119.49 353.748 119.82C353.431 120.147 353.036 120.512 352.563 120.915C352.093 121.318 351.531 121.775 350.878 122.285H355.178V123H349.333ZM356.599 123V122.645C357.365 122.045 358.025 121.513 358.579 121.05C359.132 120.583 359.595 120.17 359.969 119.81C360.342 119.45 360.639 119.127 360.859 118.84C361.079 118.553 361.235 118.288 361.329 118.045C361.422 117.802 361.469 117.562 361.469 117.325C361.469 116.952 361.379 116.613 361.199 116.31C361.022 116.007 360.784 115.765 360.484 115.585C360.184 115.405 359.85 115.315 359.484 115.315C359.117 115.315 358.784 115.405 358.484 115.585C358.184 115.765 357.937 116.012 357.744 116.325C357.55 116.638 357.435 116.998 357.399 117.405L356.714 117.175C356.75 116.808 356.845 116.468 356.999 116.155C357.155 115.842 357.359 115.568 357.609 115.335C357.862 115.102 358.15 114.92 358.474 114.79C358.797 114.66 359.145 114.595 359.519 114.595C360.035 114.595 360.504 114.715 360.924 114.955C361.344 115.192 361.677 115.515 361.924 115.925C362.17 116.335 362.294 116.798 362.294 117.315C362.294 117.582 362.254 117.843 362.174 118.1C362.094 118.357 361.959 118.625 361.769 118.905C361.582 119.185 361.33 119.49 361.014 119.82C360.697 120.147 360.302 120.512 359.829 120.915C359.359 121.318 358.797 121.775 358.144 122.285H362.444V123H356.599Z" fill="white"/>
<path d="M334.35 57V47.1H337.068C337.772 47.1 338.426 47.226 339.03 47.478C339.634 47.73 340.162 48.082 340.614 48.534C341.07 48.986 341.424 49.512 341.676 50.112C341.932 50.712 342.06 51.36 342.06 52.056C342.06 52.756 341.934 53.406 341.682 54.006C341.43 54.602 341.076 55.126 340.62 55.578C340.168 56.026 339.638 56.376 339.03 56.628C338.426 56.876 337.772 57 337.068 57H334.35ZM336.294 55.26H336.852C337.3 55.26 337.714 55.18 338.094 55.02C338.474 54.86 338.804 54.636 339.084 54.348C339.364 54.06 339.582 53.722 339.738 53.334C339.894 52.942 339.972 52.514 339.972 52.05C339.972 51.59 339.894 51.166 339.738 50.778C339.582 50.386 339.364 50.046 339.084 49.758C338.804 49.466 338.474 49.24 338.094 49.08C337.714 48.92 337.3 48.84 336.852 48.84H336.294V55.26ZM346.766 57.192C345.646 57.192 344.838 56.97 344.342 56.526C343.846 56.082 343.598 55.356 343.598 54.348V50.856H345.44V53.916C345.44 54.564 345.54 55.022 345.74 55.29C345.944 55.558 346.286 55.692 346.766 55.692C347.254 55.692 347.596 55.558 347.792 55.29C347.992 55.022 348.092 54.564 348.092 53.916V50.856H349.934V54.348C349.934 55.356 349.686 56.082 349.19 56.526C348.698 56.97 347.89 57.192 346.766 57.192ZM351.957 57V46.68H353.799V57H351.957ZM358.839 57.192C358.371 57.192 357.929 57.108 357.513 56.94C357.101 56.772 356.737 56.54 356.421 56.244C356.105 55.944 355.857 55.598 355.677 55.206C355.497 54.81 355.407 54.386 355.407 53.934C355.407 53.498 355.491 53.084 355.659 52.692C355.831 52.3 356.071 51.952 356.379 51.648C356.691 51.344 357.055 51.104 357.471 50.928C357.891 50.752 358.345 50.664 358.833 50.664C359.229 50.664 359.609 50.72 359.973 50.832C360.341 50.944 360.637 51.088 360.861 51.264L360.231 52.506C359.931 52.286 359.559 52.176 359.115 52.176C358.735 52.176 358.413 52.26 358.149 52.428C357.885 52.596 357.683 52.814 357.543 53.082C357.407 53.35 357.339 53.632 357.339 53.928C357.339 54.252 357.413 54.548 357.561 54.816C357.709 55.08 357.917 55.29 358.185 55.446C358.457 55.602 358.771 55.68 359.127 55.68C359.347 55.68 359.553 55.65 359.745 55.59C359.937 55.53 360.099 55.45 360.231 55.35L360.861 56.592C360.633 56.764 360.339 56.906 359.979 57.018C359.619 57.134 359.239 57.192 358.839 57.192ZM365.304 57.192C364.64 57.192 364.044 57.05 363.516 56.766C362.992 56.478 362.576 56.088 362.268 55.596C361.96 55.104 361.806 54.548 361.806 53.928C361.806 53.472 361.892 53.046 362.064 52.65C362.24 52.254 362.484 51.908 362.796 51.612C363.108 51.312 363.47 51.08 363.882 50.916C364.294 50.748 364.74 50.664 365.22 50.664C365.86 50.664 366.42 50.798 366.9 51.066C367.384 51.33 367.76 51.698 368.028 52.17C368.3 52.642 368.436 53.192 368.436 53.82C368.436 53.872 368.434 53.918 368.43 53.958C368.43 53.994 368.424 54.064 368.412 54.168H363.702C363.702 54.48 363.772 54.752 363.912 54.984C364.056 55.216 364.256 55.398 364.512 55.53C364.768 55.658 365.066 55.722 365.406 55.722C365.726 55.722 366.008 55.66 366.252 55.536C366.5 55.412 366.738 55.214 366.966 54.942L368.292 55.608C368.004 56.104 367.596 56.492 367.068 56.772C366.54 57.052 365.952 57.192 365.304 57.192ZM363.768 53.148H366.624C366.584 52.912 366.498 52.708 366.366 52.536C366.238 52.364 366.074 52.232 365.874 52.14C365.674 52.048 365.448 52.002 365.196 52.002C364.928 52.002 364.692 52.048 364.488 52.14C364.284 52.232 364.12 52.364 363.996 52.536C363.872 52.708 363.796 52.912 363.768 53.148ZM373.14 57L374.124 47.1H376.188L378.552 53.292L380.916 47.1H382.98L383.964 57H382.02L381.408 50.592L379.146 56.754H377.952L375.696 50.592L375.078 57H373.14ZM388.503 57.192C387.939 57.192 387.425 57.052 386.961 56.772C386.501 56.488 386.135 56.1 385.863 55.608C385.595 55.112 385.461 54.548 385.461 53.916C385.461 53.3 385.591 52.748 385.851 52.26C386.111 51.768 386.469 51.38 386.925 51.096C387.385 50.808 387.911 50.664 388.503 50.664C388.939 50.664 389.345 50.748 389.721 50.916C390.101 51.08 390.411 51.31 390.651 51.606V50.856H392.493V57H390.651V56.19C390.371 56.514 390.049 56.762 389.685 56.934C389.321 57.106 388.927 57.192 388.503 57.192ZM389.049 55.626C389.369 55.626 389.653 55.554 389.901 55.41C390.149 55.262 390.343 55.06 390.483 54.804C390.623 54.548 390.693 54.256 390.693 53.928C390.693 53.596 390.621 53.304 390.477 53.052C390.337 52.796 390.143 52.596 389.895 52.452C389.651 52.304 389.369 52.23 389.049 52.23C388.733 52.23 388.451 52.304 388.203 52.452C387.955 52.596 387.759 52.796 387.615 53.052C387.471 53.308 387.399 53.6 387.399 53.928C387.399 54.256 387.469 54.548 387.609 54.804C387.753 55.06 387.949 55.262 388.197 55.41C388.445 55.554 388.729 55.626 389.049 55.626ZM397.204 57.192C396.648 57.192 396.14 57.054 395.68 56.778C395.224 56.498 394.86 56.112 394.588 55.62C394.316 55.128 394.18 54.564 394.18 53.928C394.18 53.304 394.312 52.748 394.576 52.26C394.84 51.768 395.202 51.38 395.662 51.096C396.126 50.808 396.656 50.664 397.252 50.664C397.684 50.664 398.084 50.748 398.452 50.916C398.82 51.08 399.126 51.31 399.37 51.606V46.68H401.212V57H399.37V56.19C399.098 56.506 398.776 56.752 398.404 56.928C398.032 57.104 397.632 57.192 397.204 57.192ZM397.756 55.626C398.08 55.626 398.366 55.554 398.614 55.41C398.862 55.262 399.056 55.06 399.196 54.804C399.34 54.548 399.412 54.258 399.412 53.934C399.412 53.606 399.34 53.314 399.196 53.058C399.056 52.802 398.862 52.6 398.614 52.452C398.366 52.304 398.082 52.23 397.762 52.23C397.446 52.23 397.164 52.304 396.916 52.452C396.672 52.6 396.478 52.804 396.334 53.064C396.19 53.32 396.118 53.612 396.118 53.94C396.118 54.264 396.188 54.554 396.328 54.81C396.468 55.062 396.662 55.262 396.91 55.41C397.158 55.554 397.44 55.626 397.756 55.626ZM405.941 57.192C405.377 57.192 404.863 57.052 404.399 56.772C403.939 56.488 403.573 56.1 403.301 55.608C403.033 55.112 402.899 54.548 402.899 53.916C402.899 53.3 403.029 52.748 403.289 52.26C403.549 51.768 403.907 51.38 404.363 51.096C404.823 50.808 405.349 50.664 405.941 50.664C406.377 50.664 406.783 50.748 407.159 50.916C407.539 51.08 407.849 51.31 408.089 51.606V50.856H409.931V57H408.089V56.19C407.809 56.514 407.487 56.762 407.123 56.934C406.759 57.106 406.365 57.192 405.941 57.192ZM406.487 55.626C406.807 55.626 407.091 55.554 407.339 55.41C407.587 55.262 407.781 55.06 407.921 54.804C408.061 54.548 408.131 54.256 408.131 53.928C408.131 53.596 408.059 53.304 407.915 53.052C407.775 52.796 407.581 52.596 407.333 52.452C407.089 52.304 406.807 52.23 406.487 52.23C406.171 52.23 405.889 52.304 405.641 52.452C405.393 52.596 405.197 52.796 405.053 53.052C404.909 53.308 404.837 53.6 404.837 53.928C404.837 54.256 404.907 54.548 405.047 54.804C405.191 55.06 405.387 55.262 405.635 55.41C405.883 55.554 406.167 55.626 406.487 55.626ZM412.098 57V50.856H413.94V57H412.098ZM412.722 50.352L411.942 49.716L413.604 47.07L414.84 48L412.722 50.352ZM333.114 70L337.092 60.1H338.898L342.87 70H340.776L339.936 67.744H336.048L335.208 70H333.114ZM336.714 66.04H339.276L337.992 62.722L336.714 66.04ZM344.07 70V63.856H345.912V64.54C346.148 64.276 346.442 64.064 346.794 63.904C347.15 63.744 347.542 63.664 347.97 63.664C348.442 63.664 348.856 63.768 349.212 63.976C349.572 64.18 349.854 64.466 350.058 64.834C350.262 65.198 350.364 65.624 350.364 66.112V70H348.522V66.502C348.522 66.062 348.406 65.72 348.174 65.476C347.946 65.228 347.632 65.104 347.232 65.104C346.96 65.104 346.724 65.16 346.524 65.272C346.328 65.38 346.176 65.53 346.068 65.722C345.964 65.91 345.912 66.124 345.912 66.364V70H344.07ZM354.462 70.192C353.85 70.192 353.374 69.998 353.034 69.61C352.694 69.218 352.524 68.672 352.524 67.972V65.254H351.702V63.856H352.524V61.552H354.366V63.856H355.716V65.254H354.366V67.84C354.366 68.072 354.412 68.248 354.504 68.368C354.6 68.488 354.734 68.548 354.906 68.548C355.098 68.548 355.282 68.484 355.458 68.356L355.92 69.832C355.712 69.944 355.478 70.032 355.218 70.096C354.962 70.16 354.71 70.192 354.462 70.192ZM360.572 70.192C359.896 70.192 359.286 70.054 358.742 69.778C358.198 69.498 357.766 69.114 357.446 68.626C357.126 68.134 356.966 67.568 356.966 66.928C356.966 66.288 357.124 65.724 357.44 65.236C357.76 64.744 358.192 64.36 358.736 64.084C359.284 63.804 359.896 63.664 360.572 63.664C361.252 63.664 361.864 63.804 362.408 64.084C362.952 64.36 363.382 64.744 363.698 65.236C364.018 65.724 364.178 66.288 364.178 66.928C364.178 67.568 364.018 68.134 363.698 68.626C363.382 69.114 362.952 69.498 362.408 69.778C361.864 70.054 361.252 70.192 360.572 70.192ZM360.578 68.62C360.89 68.62 361.174 68.548 361.43 68.404C361.686 68.26 361.888 68.062 362.036 67.81C362.184 67.554 362.258 67.26 362.258 66.928C362.258 66.596 362.184 66.304 362.036 66.052C361.888 65.796 361.686 65.596 361.43 65.452C361.174 65.308 360.89 65.236 360.578 65.236C360.262 65.236 359.976 65.308 359.72 65.452C359.468 65.596 359.268 65.796 359.12 66.052C358.972 66.304 358.898 66.596 358.898 66.928C358.898 67.26 358.972 67.554 359.12 67.81C359.268 68.062 359.468 68.26 359.72 68.404C359.976 68.548 360.262 68.62 360.578 68.62ZM365.785 70V63.856H367.627V64.54C367.863 64.276 368.157 64.064 368.509 63.904C368.865 63.744 369.257 63.664 369.685 63.664C370.157 63.664 370.571 63.768 370.927 63.976C371.287 64.18 371.569 64.466 371.773 64.834C371.977 65.198 372.079 65.624 372.079 66.112V70H370.237V66.502C370.237 66.062 370.121 65.72 369.889 65.476C369.661 65.228 369.347 65.104 368.947 65.104C368.675 65.104 368.439 65.16 368.239 65.272C368.043 65.38 367.891 65.53 367.783 65.722C367.679 65.91 367.627 66.124 367.627 66.364V70H365.785ZM374.123 70V63.856H375.965V70H374.123ZM375.047 62.578C374.847 62.578 374.663 62.53 374.495 62.434C374.331 62.334 374.199 62.2 374.099 62.032C373.999 61.864 373.949 61.68 373.949 61.48C373.949 61.28 373.999 61.098 374.099 60.934C374.199 60.77 374.331 60.64 374.495 60.544C374.663 60.444 374.847 60.394 375.047 60.394C375.247 60.394 375.429 60.444 375.593 60.544C375.757 60.64 375.887 60.77 375.983 60.934C376.083 61.098 376.133 61.28 376.133 61.48C376.133 61.68 376.083 61.864 375.983 62.032C375.887 62.2 375.757 62.334 375.593 62.434C375.429 62.53 375.247 62.578 375.047 62.578ZM381.197 70.192C380.521 70.192 379.911 70.054 379.367 69.778C378.823 69.498 378.391 69.114 378.071 68.626C377.751 68.134 377.591 67.568 377.591 66.928C377.591 66.288 377.749 65.724 378.065 65.236C378.385 64.744 378.817 64.36 379.361 64.084C379.909 63.804 380.521 63.664 381.197 63.664C381.877 63.664 382.489 63.804 383.033 64.084C383.577 64.36 384.007 64.744 384.323 65.236C384.643 65.724 384.803 66.288 384.803 66.928C384.803 67.568 384.643 68.134 384.323 68.626C384.007 69.114 383.577 69.498 383.033 69.778C382.489 70.054 381.877 70.192 381.197 70.192ZM381.203 68.62C381.515 68.62 381.799 68.548 382.055 68.404C382.311 68.26 382.513 68.062 382.661 67.81C382.809 67.554 382.883 67.26 382.883 66.928C382.883 66.596 382.809 66.304 382.661 66.052C382.513 65.796 382.311 65.596 382.055 65.452C381.799 65.308 381.515 65.236 381.203 65.236C380.887 65.236 380.601 65.308 380.345 65.452C380.093 65.596 379.893 65.796 379.745 66.052C379.597 66.304 379.523 66.596 379.523 66.928C379.523 67.26 379.597 67.554 379.745 67.81C379.893 68.062 380.093 68.26 380.345 68.404C380.601 68.548 380.887 68.62 381.203 68.62ZM334.35 83V73.1H337.722C338.398 73.1 338.984 73.22 339.48 73.46C339.98 73.696 340.366 74.038 340.638 74.486C340.914 74.93 341.052 75.466 341.052 76.094C341.052 76.59 340.964 77.038 340.788 77.438C340.612 77.834 340.36 78.168 340.032 78.44C339.704 78.712 339.306 78.914 338.838 79.046L342.078 83H339.612L336.756 79.268H336.294V83H334.35ZM336.294 77.648H337.122C337.526 77.648 337.868 77.59 338.148 77.474C338.428 77.358 338.642 77.188 338.79 76.964C338.942 76.736 339.018 76.464 339.018 76.148C339.018 75.668 338.852 75.3 338.52 75.044C338.192 74.784 337.726 74.654 337.122 74.654H336.294V77.648ZM345.912 83.192C345.236 83.192 344.626 83.054 344.082 82.778C343.538 82.498 343.106 82.114 342.786 81.626C342.466 81.134 342.306 80.568 342.306 79.928C342.306 79.288 342.464 78.724 342.78 78.236C343.1 77.744 343.532 77.36 344.076 77.084C344.624 76.804 345.236 76.664 345.912 76.664C346.592 76.664 347.204 76.804 347.748 77.084C348.292 77.36 348.722 77.744 349.038 78.236C349.358 78.724 349.518 79.288 349.518 79.928C349.518 80.568 349.358 81.134 349.038 81.626C348.722 82.114 348.292 82.498 347.748 82.778C347.204 83.054 346.592 83.192 345.912 83.192ZM345.918 81.62C346.23 81.62 346.514 81.548 346.77 81.404C347.026 81.26 347.228 81.062 347.376 80.81C347.524 80.554 347.598 80.26 347.598 79.928C347.598 79.596 347.524 79.304 347.376 79.052C347.228 78.796 347.026 78.596 346.77 78.452C346.514 78.308 346.23 78.236 345.918 78.236C345.602 78.236 345.316 78.308 345.06 78.452C344.808 78.596 344.608 78.796 344.46 79.052C344.312 79.304 344.238 79.596 344.238 79.928C344.238 80.26 344.312 80.554 344.46 80.81C344.608 81.062 344.808 81.26 345.06 81.404C345.316 81.548 345.602 81.62 345.918 81.62ZM353.693 83.192C353.137 83.192 352.629 83.054 352.169 82.778C351.713 82.498 351.349 82.112 351.077 81.62C350.805 81.128 350.669 80.564 350.669 79.928C350.669 79.304 350.801 78.748 351.065 78.26C351.329 77.768 351.691 77.38 352.151 77.096C352.615 76.808 353.145 76.664 353.741 76.664C354.173 76.664 354.573 76.748 354.941 76.916C355.309 77.08 355.615 77.31 355.859 77.606V72.68H357.701V83H355.859V82.19C355.587 82.506 355.265 82.752 354.893 82.928C354.521 83.104 354.121 83.192 353.693 83.192ZM354.245 81.626C354.569 81.626 354.855 81.554 355.103 81.41C355.351 81.262 355.545 81.06 355.685 80.804C355.829 80.548 355.901 80.258 355.901 79.934C355.901 79.606 355.829 79.314 355.685 79.058C355.545 78.802 355.351 78.6 355.103 78.452C354.855 78.304 354.571 78.23 354.251 78.23C353.935 78.23 353.653 78.304 353.405 78.452C353.161 78.6 352.967 78.804 352.823 79.064C352.679 79.32 352.607 79.612 352.607 79.94C352.607 80.264 352.677 80.554 352.817 80.81C352.957 81.062 353.151 81.262 353.399 81.41C353.647 81.554 353.929 81.626 354.245 81.626ZM359.867 83V76.856H361.709V77.738C361.937 77.394 362.215 77.13 362.543 76.946C362.875 76.758 363.231 76.664 363.611 76.664C363.827 76.664 364.051 76.696 364.283 76.76C364.515 76.824 364.709 76.906 364.865 77.006L364.097 78.56C363.961 78.468 363.801 78.396 363.617 78.344C363.437 78.288 363.269 78.26 363.113 78.26C362.873 78.26 362.645 78.322 362.429 78.446C362.213 78.57 362.039 78.732 361.907 78.932C361.775 79.128 361.709 79.34 361.709 79.568V83H359.867ZM365.891 83V76.856H367.733V83H365.891ZM366.515 76.352L365.735 75.716L367.397 73.07L368.633 74L366.515 76.352ZM372.857 86.3C372.029 86.3 371.333 86.148 370.769 85.844C370.205 85.544 369.795 85.1 369.539 84.512L371.039 83.78C371.207 84.064 371.455 84.29 371.783 84.458C372.111 84.626 372.467 84.71 372.851 84.71C373.199 84.71 373.505 84.64 373.769 84.5C374.033 84.364 374.239 84.17 374.387 83.918C374.535 83.67 374.609 83.382 374.609 83.054V82.19C374.337 82.506 374.015 82.752 373.643 82.928C373.271 83.104 372.871 83.192 372.443 83.192C371.887 83.192 371.379 83.054 370.919 82.778C370.463 82.498 370.099 82.112 369.827 81.62C369.555 81.128 369.419 80.564 369.419 79.928C369.419 79.304 369.551 78.748 369.815 78.26C370.083 77.768 370.447 77.38 370.907 77.096C371.371 76.808 371.899 76.664 372.491 76.664C372.923 76.664 373.323 76.748 373.691 76.916C374.059 77.08 374.365 77.31 374.609 77.606V76.856H376.451V83.168C376.451 83.772 376.319 84.31 376.055 84.782C375.795 85.254 375.399 85.624 374.867 85.892C374.335 86.164 373.665 86.3 372.857 86.3ZM372.995 81.626C373.319 81.626 373.605 81.554 373.853 81.41C374.105 81.262 374.301 81.062 374.441 80.81C374.581 80.554 374.651 80.264 374.651 79.94C374.651 79.608 374.579 79.314 374.435 79.058C374.295 78.802 374.101 78.6 373.853 78.452C373.605 78.304 373.323 78.23 373.007 78.23C372.691 78.23 372.409 78.304 372.161 78.452C371.913 78.6 371.717 78.804 371.573 79.064C371.429 79.32 371.357 79.612 371.357 79.94C371.357 80.264 371.427 80.554 371.567 80.81C371.707 81.062 371.901 81.262 372.149 81.41C372.397 81.554 372.679 81.626 372.995 81.626ZM381.629 83.192C380.509 83.192 379.701 82.97 379.205 82.526C378.709 82.082 378.461 81.356 378.461 80.348V76.856H380.303V79.916C380.303 80.564 380.403 81.022 380.603 81.29C380.807 81.558 381.149 81.692 381.629 81.692C382.117 81.692 382.459 81.558 382.655 81.29C382.855 81.022 382.955 80.564 382.955 79.916V76.856H384.797V80.348C384.797 81.356 384.549 82.082 384.053 82.526C383.561 82.97 382.753 83.192 381.629 83.192ZM389.772 83.192C389.108 83.192 388.512 83.05 387.984 82.766C387.46 82.478 387.044 82.088 386.736 81.596C386.428 81.104 386.274 80.548 386.274 79.928C386.274 79.472 386.36 79.046 386.532 78.65C386.708 78.254 386.952 77.908 387.264 77.612C387.576 77.312 387.938 77.08 388.35 76.916C388.762 76.748 389.208 76.664 389.688 76.664C390.328 76.664 390.888 76.798 391.368 77.066C391.852 77.33 392.228 77.698 392.496 78.17C392.768 78.642 392.904 79.192 392.904 79.82C392.904 79.872 392.902 79.918 392.898 79.958C392.898 79.994 392.892 80.064 392.88 80.168H388.17C388.17 80.48 388.24 80.752 388.38 80.984C388.524 81.216 388.724 81.398 388.98 81.53C389.236 81.658 389.534 81.722 389.874 81.722C390.194 81.722 390.476 81.66 390.72 81.536C390.968 81.412 391.206 81.214 391.434 80.942L392.76 81.608C392.472 82.104 392.064 82.492 391.536 82.772C391.008 83.052 390.42 83.192 389.772 83.192ZM388.236 79.148H391.092C391.052 78.912 390.966 78.708 390.834 78.536C390.706 78.364 390.542 78.232 390.342 78.14C390.142 78.048 389.916 78.002 389.664 78.002C389.396 78.002 389.16 78.048 388.956 78.14C388.752 78.232 388.588 78.364 388.464 78.536C388.34 78.708 388.264 78.912 388.236 79.148ZM393.732 83L397.128 78.26H394.23V76.856H400.23L396.834 81.596H400.02V83H393.732Z" fill="white"/>
<rect width="215" height="168" rx="29" fill="#F3BD37"/>
<rect x="11" y="11" width="88" height="146" rx="29" fill="white" fill-opacity="0.5"/>
<path d="M115.995 108L112.535 99.75H113.395L116.295 106.855L119.19 99.75H120.05L116.59 108H115.995ZM124.497 108V99.75H126.357C126.941 99.75 127.484 99.855 127.987 100.065C128.494 100.275 128.936 100.568 129.312 100.945C129.689 101.318 129.984 101.755 130.197 102.255C130.411 102.755 130.517 103.297 130.517 103.88C130.517 104.46 130.412 105 130.202 105.5C129.992 106 129.697 106.438 129.317 106.815C128.941 107.188 128.499 107.48 127.992 107.69C127.489 107.897 126.944 108 126.357 108H124.497ZM125.257 107.32H126.287C126.774 107.32 127.224 107.233 127.637 107.06C128.054 106.883 128.417 106.64 128.727 106.33C129.041 106.017 129.284 105.652 129.457 105.235C129.631 104.815 129.717 104.362 129.717 103.875C129.717 103.388 129.631 102.937 129.457 102.52C129.284 102.103 129.041 101.738 128.727 101.425C128.417 101.112 128.054 100.868 127.637 100.695C127.221 100.518 126.771 100.43 126.287 100.43H125.257V107.32ZM132.416 108V102.88H133.146V108H132.416ZM132.786 101.855C132.696 101.855 132.614 101.833 132.541 101.79C132.471 101.747 132.414 101.688 132.371 101.615C132.327 101.542 132.306 101.462 132.306 101.375C132.306 101.288 132.327 101.21 132.371 101.14C132.414 101.067 132.471 101.008 132.541 100.965C132.614 100.922 132.696 100.9 132.786 100.9C132.872 100.9 132.951 100.922 133.021 100.965C133.091 101.008 133.147 101.065 133.191 101.135C133.237 101.205 133.261 101.285 133.261 101.375C133.261 101.462 133.237 101.542 133.191 101.615C133.147 101.688 133.091 101.747 133.021 101.79C132.951 101.833 132.872 101.855 132.786 101.855ZM136.632 108.16C136.208 108.16 135.835 108.058 135.512 107.855C135.188 107.648 134.937 107.357 134.757 106.98L135.147 106.56C135.307 106.887 135.515 107.142 135.772 107.325C136.028 107.505 136.313 107.595 136.627 107.595C136.837 107.595 137.028 107.552 137.202 107.465C137.378 107.378 137.518 107.255 137.622 107.095C137.728 106.932 137.782 106.738 137.782 106.515C137.782 106.312 137.732 106.152 137.632 106.035C137.535 105.918 137.392 105.818 137.202 105.735C137.015 105.648 136.782 105.552 136.502 105.445C136.285 105.358 136.075 105.26 135.872 105.15C135.668 105.04 135.5 104.902 135.367 104.735C135.237 104.565 135.172 104.35 135.172 104.09C135.172 103.827 135.242 103.593 135.382 103.39C135.522 103.183 135.715 103.022 135.962 102.905C136.208 102.785 136.488 102.725 136.802 102.725C137.088 102.725 137.357 102.787 137.607 102.91C137.86 103.033 138.087 103.208 138.287 103.435L137.952 103.86C137.645 103.457 137.263 103.255 136.807 103.255C136.527 103.255 136.298 103.328 136.122 103.475C135.948 103.622 135.862 103.813 135.862 104.05C135.862 104.22 135.917 104.362 136.027 104.475C136.137 104.588 136.28 104.685 136.457 104.765C136.637 104.845 136.83 104.925 137.037 105.005C137.337 105.118 137.597 105.232 137.817 105.345C138.04 105.458 138.213 105.603 138.337 105.78C138.46 105.953 138.522 106.19 138.522 106.49C138.522 106.833 138.442 107.13 138.282 107.38C138.122 107.63 137.898 107.823 137.612 107.96C137.328 108.093 137.002 108.16 136.632 108.16ZM142.653 108.16C142.116 108.16 141.636 108.042 141.213 107.805C140.793 107.568 140.463 107.247 140.223 106.84C139.983 106.43 139.863 105.97 139.863 105.46C139.863 105.077 139.931 104.72 140.068 104.39C140.208 104.057 140.401 103.765 140.648 103.515C140.894 103.265 141.181 103.07 141.508 102.93C141.834 102.79 142.183 102.72 142.553 102.72C143.059 102.72 143.509 102.832 143.903 103.055C144.299 103.275 144.613 103.58 144.843 103.97C145.076 104.36 145.199 104.81 145.213 105.32C145.213 105.36 145.211 105.393 145.208 105.42C145.208 105.443 145.204 105.473 145.198 105.51H140.588C140.588 105.91 140.678 106.263 140.858 106.57C141.038 106.877 141.284 107.118 141.598 107.295C141.914 107.468 142.276 107.555 142.683 107.555C143.069 107.555 143.416 107.475 143.723 107.315C144.033 107.152 144.291 106.918 144.498 106.615L145.038 106.905C144.794 107.302 144.463 107.61 144.043 107.83C143.626 108.05 143.163 108.16 142.653 108.16ZM140.628 104.96H144.483C144.439 104.64 144.328 104.358 144.148 104.115C143.968 103.868 143.739 103.675 143.463 103.535C143.189 103.395 142.889 103.325 142.563 103.325C142.226 103.325 141.919 103.395 141.643 103.535C141.366 103.672 141.138 103.863 140.958 104.11C140.781 104.353 140.671 104.637 140.628 104.96ZM146.932 108V102.88H147.662V103.58C147.802 103.34 148.019 103.137 148.312 102.97C148.606 102.803 148.964 102.72 149.387 102.72C149.784 102.72 150.126 102.802 150.412 102.965C150.699 103.128 150.919 103.367 151.072 103.68C151.226 103.99 151.302 104.365 151.302 104.805V108H150.572V104.945C150.572 104.415 150.449 104.012 150.202 103.735C149.956 103.455 149.607 103.315 149.157 103.315C148.844 103.315 148.576 103.378 148.352 103.505C148.132 103.628 147.962 103.793 147.842 104C147.722 104.203 147.662 104.425 147.662 104.665V108H146.932ZM150.192 101.51C149.979 101.51 149.789 101.47 149.622 101.39C149.459 101.307 149.304 101.212 149.157 101.105C149.011 100.998 148.859 100.905 148.702 100.825C148.549 100.745 148.374 100.705 148.177 100.705C147.914 100.705 147.692 100.783 147.512 100.94C147.336 101.093 147.196 101.272 147.092 101.475L146.692 101.12C146.846 100.843 147.049 100.61 147.302 100.42C147.556 100.227 147.844 100.13 148.167 100.13C148.391 100.13 148.589 100.172 148.762 100.255C148.939 100.335 149.102 100.428 149.252 100.535C149.406 100.642 149.559 100.735 149.712 100.815C149.869 100.895 150.036 100.935 150.212 100.935C150.436 100.935 150.641 100.865 150.827 100.725C151.014 100.585 151.167 100.398 151.287 100.165L151.682 100.52C151.569 100.723 151.431 100.9 151.267 101.05C151.107 101.197 150.934 101.31 150.747 101.39C150.564 101.47 150.379 101.51 150.192 101.51ZM155.803 108.16C155.27 108.16 154.788 108.045 154.358 107.815C153.932 107.585 153.593 107.265 153.343 106.855C153.093 106.445 152.968 105.973 152.968 105.44C152.968 104.903 153.093 104.432 153.343 104.025C153.593 103.615 153.932 103.295 154.358 103.065C154.785 102.835 155.267 102.72 155.803 102.72C156.337 102.72 156.817 102.835 157.243 103.065C157.673 103.295 158.013 103.615 158.263 104.025C158.513 104.432 158.638 104.903 158.638 105.44C158.638 105.973 158.513 106.445 158.263 106.855C158.013 107.265 157.673 107.585 157.243 107.815C156.817 108.045 156.337 108.16 155.803 108.16ZM155.803 107.51C156.203 107.51 156.56 107.422 156.873 107.245C157.187 107.068 157.433 106.825 157.613 106.515C157.793 106.202 157.883 105.843 157.883 105.44C157.883 105.037 157.793 104.68 157.613 104.37C157.433 104.057 157.187 103.812 156.873 103.635C156.56 103.458 156.203 103.37 155.803 103.37C155.403 103.37 155.047 103.458 154.733 103.635C154.42 103.812 154.173 104.057 153.993 104.37C153.813 104.68 153.723 105.037 153.723 105.44C153.723 105.84 153.813 106.197 153.993 106.51C154.173 106.823 154.42 107.068 154.733 107.245C155.047 107.422 155.403 107.51 155.803 107.51ZM166.803 108.16C166.229 108.16 165.696 108.05 165.203 107.83C164.713 107.61 164.283 107.305 163.913 106.915C163.546 106.525 163.259 106.072 163.053 105.555C162.846 105.035 162.743 104.477 162.743 103.88C162.743 103.33 162.834 102.798 163.018 102.285C163.201 101.772 163.469 101.315 163.823 100.915C164.176 100.512 164.608 100.192 165.118 99.955C165.631 99.7183 166.213 99.6 166.863 99.6C167.289 99.6 167.693 99.6533 168.073 99.76C168.453 99.8667 168.801 100.015 169.118 100.205C169.438 100.395 169.716 100.618 169.953 100.875L169.558 101.455C169.244 101.098 168.851 100.813 168.378 100.6C167.904 100.383 167.396 100.275 166.853 100.275C166.333 100.275 165.868 100.372 165.458 100.565C165.051 100.758 164.706 101.023 164.423 101.36C164.139 101.693 163.924 102.075 163.778 102.505C163.631 102.932 163.558 103.382 163.558 103.855C163.558 104.365 163.639 104.84 163.803 105.28C163.969 105.717 164.201 106.1 164.498 106.43C164.794 106.757 165.141 107.012 165.538 107.195C165.934 107.375 166.361 107.465 166.818 107.465C167.188 107.465 167.551 107.403 167.908 107.28C168.264 107.157 168.584 106.978 168.868 106.745C169.154 106.512 169.381 106.233 169.548 105.91C169.718 105.583 169.803 105.217 169.803 104.81V104.525H166.763V103.91H170.583V104.645C170.583 105.228 170.473 105.74 170.253 106.18C170.033 106.62 169.739 106.987 169.373 107.28C169.006 107.57 168.599 107.79 168.153 107.94C167.706 108.087 167.256 108.16 166.803 108.16ZM172.43 108V102.88H173.16V103.635C173.324 103.335 173.534 103.108 173.79 102.955C174.05 102.798 174.35 102.72 174.69 102.72C174.84 102.72 174.992 102.737 175.145 102.77C175.302 102.803 175.437 102.847 175.55 102.9L175.25 103.515C175.15 103.465 175.035 103.427 174.905 103.4C174.779 103.373 174.657 103.36 174.54 103.36C174.304 103.36 174.08 103.42 173.87 103.54C173.66 103.66 173.489 103.817 173.355 104.01C173.225 104.2 173.16 104.403 173.16 104.62V108H172.43ZM179.078 108.16C178.598 108.16 178.165 108.043 177.778 107.81C177.395 107.573 177.09 107.25 176.863 106.84C176.64 106.43 176.528 105.962 176.528 105.435C176.528 104.915 176.638 104.452 176.858 104.045C177.082 103.635 177.385 103.312 177.768 103.075C178.155 102.838 178.592 102.72 179.078 102.72C179.542 102.72 179.962 102.828 180.338 103.045C180.715 103.262 181.002 103.562 181.198 103.945V102.88H181.928V108H181.198V106.92C180.978 107.307 180.683 107.61 180.313 107.83C179.943 108.05 179.532 108.16 179.078 108.16ZM179.258 107.525C179.642 107.525 179.98 107.437 180.273 107.26C180.57 107.08 180.803 106.833 180.973 106.52C181.143 106.203 181.228 105.843 181.228 105.44C181.228 105.033 181.143 104.673 180.973 104.36C180.807 104.047 180.575 103.802 180.278 103.625C179.982 103.445 179.642 103.355 179.258 103.355C178.875 103.355 178.535 103.445 178.238 103.625C177.942 103.802 177.708 104.047 177.538 104.36C177.368 104.673 177.283 105.033 177.283 105.44C177.283 105.843 177.368 106.203 177.538 106.52C177.708 106.833 177.942 107.08 178.238 107.26C178.535 107.437 178.875 107.525 179.258 107.525ZM179.538 102.055L179.163 101.78L180.113 99.885L180.688 100.295L179.538 102.055ZM184.161 108V103.43H183.651V102.88H184.161V101.045C184.161 100.638 184.219 100.303 184.336 100.04C184.456 99.7733 184.623 99.575 184.836 99.445C185.049 99.315 185.299 99.25 185.586 99.25C185.783 99.25 185.971 99.28 186.151 99.34C186.334 99.4 186.498 99.48 186.641 99.58C186.784 99.68 186.899 99.7967 186.986 99.93L186.646 100.37C186.566 100.23 186.439 100.115 186.266 100.025C186.096 99.9317 185.926 99.885 185.756 99.885C185.469 99.885 185.253 99.9733 185.106 100.15C184.963 100.327 184.891 100.618 184.891 101.025V102.88H187.236V108H186.506V103.43H184.891V108H184.161ZM191.539 108.16C191.156 108.16 190.796 108.093 190.459 107.96C190.122 107.823 189.827 107.632 189.574 107.385C189.321 107.138 189.122 106.85 188.979 106.52C188.836 106.19 188.764 105.83 188.764 105.44C188.764 105.053 188.834 104.695 188.974 104.365C189.114 104.035 189.309 103.747 189.559 103.5C189.812 103.253 190.107 103.062 190.444 102.925C190.781 102.788 191.146 102.72 191.539 102.72C191.876 102.72 192.196 102.77 192.499 102.87C192.802 102.97 193.064 103.108 193.284 103.285L192.984 103.775C192.611 103.485 192.157 103.34 191.624 103.34C191.204 103.34 190.834 103.433 190.514 103.62C190.197 103.803 189.951 104.055 189.774 104.375C189.597 104.692 189.509 105.047 189.509 105.44C189.509 105.837 189.599 106.195 189.779 106.515C189.959 106.832 190.209 107.082 190.529 107.265C190.849 107.448 191.216 107.54 191.629 107.54C191.889 107.54 192.134 107.503 192.364 107.43C192.597 107.353 192.802 107.245 192.979 107.105L193.284 107.595C193.061 107.768 192.799 107.905 192.499 108.005C192.199 108.108 191.879 108.16 191.539 108.16ZM197.317 108.16C196.784 108.16 196.302 108.045 195.872 107.815C195.445 107.585 195.107 107.265 194.857 106.855C194.607 106.445 194.482 105.973 194.482 105.44C194.482 104.903 194.607 104.432 194.857 104.025C195.107 103.615 195.445 103.295 195.872 103.065C196.299 102.835 196.78 102.72 197.317 102.72C197.85 102.72 198.33 102.835 198.757 103.065C199.187 103.295 199.527 103.615 199.777 104.025C200.027 104.432 200.152 104.903 200.152 105.44C200.152 105.973 200.027 106.445 199.777 106.855C199.527 107.265 199.187 107.585 198.757 107.815C198.33 108.045 197.85 108.16 197.317 108.16ZM197.317 107.51C197.717 107.51 198.074 107.422 198.387 107.245C198.7 107.068 198.947 106.825 199.127 106.515C199.307 106.202 199.397 105.843 199.397 105.44C199.397 105.037 199.307 104.68 199.127 104.37C198.947 104.057 198.7 103.812 198.387 103.635C198.074 103.458 197.717 103.37 197.317 103.37C196.917 103.37 196.56 103.458 196.247 103.635C195.934 103.812 195.687 104.057 195.507 104.37C195.327 104.68 195.237 105.037 195.237 105.44C195.237 105.84 195.327 106.197 195.507 106.51C195.687 106.823 195.934 107.068 196.247 107.245C196.56 107.422 196.917 107.51 197.317 107.51ZM112.63 119V118.645C113.397 118.045 114.057 117.513 114.61 117.05C115.163 116.583 115.627 116.17 116 115.81C116.373 115.45 116.67 115.127 116.89 114.84C117.11 114.553 117.267 114.288 117.36 114.045C117.453 113.802 117.5 113.562 117.5 113.325C117.5 112.952 117.41 112.613 117.23 112.31C117.053 112.007 116.815 111.765 116.515 111.585C116.215 111.405 115.882 111.315 115.515 111.315C115.148 111.315 114.815 111.405 114.515 111.585C114.215 111.765 113.968 112.012 113.775 112.325C113.582 112.638 113.467 112.998 113.43 113.405L112.745 113.175C112.782 112.808 112.877 112.468 113.03 112.155C113.187 111.842 113.39 111.568 113.64 111.335C113.893 111.102 114.182 110.92 114.505 110.79C114.828 110.66 115.177 110.595 115.55 110.595C116.067 110.595 116.535 110.715 116.955 110.955C117.375 111.192 117.708 111.515 117.955 111.925C118.202 112.335 118.325 112.798 118.325 113.315C118.325 113.582 118.285 113.843 118.205 114.1C118.125 114.357 117.99 114.625 117.8 114.905C117.613 115.185 117.362 115.49 117.045 115.82C116.728 116.147 116.333 116.512 115.86 116.915C115.39 117.318 114.828 117.775 114.175 118.285H118.475V119H112.63ZM123.486 119.16C122.812 119.16 122.222 118.982 121.716 118.625C121.212 118.265 120.821 117.763 120.541 117.12C120.261 116.477 120.121 115.73 120.121 114.88C120.121 114.027 120.261 113.28 120.541 112.64C120.821 111.997 121.212 111.497 121.716 111.14C122.222 110.78 122.812 110.6 123.486 110.6C124.159 110.6 124.747 110.78 125.251 111.14C125.754 111.497 126.146 111.997 126.426 112.64C126.709 113.28 126.851 114.027 126.851 114.88C126.851 115.73 126.709 116.477 126.426 117.12C126.146 117.763 125.754 118.265 125.251 118.625C124.747 118.982 124.159 119.16 123.486 119.16ZM123.486 118.475C123.999 118.475 124.447 118.327 124.831 118.03C125.214 117.733 125.512 117.315 125.726 116.775C125.939 116.235 126.046 115.603 126.046 114.88C126.046 114.153 125.939 113.522 125.726 112.985C125.512 112.445 125.214 112.027 124.831 111.73C124.447 111.433 123.999 111.285 123.486 111.285C122.972 111.285 122.522 111.433 122.136 111.73C121.752 112.027 121.454 112.445 121.241 112.985C121.031 113.522 120.926 114.153 120.926 114.88C120.926 115.603 121.031 116.235 121.241 116.775C121.454 117.315 121.752 117.733 122.136 118.03C122.522 118.327 122.972 118.475 123.486 118.475ZM128.333 119V118.645C129.1 118.045 129.76 117.513 130.313 117.05C130.866 116.583 131.33 116.17 131.703 115.81C132.076 115.45 132.373 115.127 132.593 114.84C132.813 114.553 132.97 114.288 133.063 114.045C133.156 113.802 133.203 113.562 133.203 113.325C133.203 112.952 133.113 112.613 132.933 112.31C132.756 112.007 132.518 111.765 132.218 111.585C131.918 111.405 131.585 111.315 131.218 111.315C130.851 111.315 130.518 111.405 130.218 111.585C129.918 111.765 129.671 112.012 129.478 112.325C129.285 112.638 129.17 112.998 129.133 113.405L128.448 113.175C128.485 112.808 128.58 112.468 128.733 112.155C128.89 111.842 129.093 111.568 129.343 111.335C129.596 111.102 129.885 110.92 130.208 110.79C130.531 110.66 130.88 110.595 131.253 110.595C131.77 110.595 132.238 110.715 132.658 110.955C133.078 111.192 133.411 111.515 133.658 111.925C133.905 112.335 134.028 112.798 134.028 113.315C134.028 113.582 133.988 113.843 133.908 114.1C133.828 114.357 133.693 114.625 133.503 114.905C133.316 115.185 133.065 115.49 132.748 115.82C132.431 116.147 132.036 116.512 131.563 116.915C131.093 117.318 130.531 117.775 129.878 118.285H134.178V119H128.333ZM135.599 119V118.645C136.365 118.045 137.025 117.513 137.579 117.05C138.132 116.583 138.595 116.17 138.969 115.81C139.342 115.45 139.639 115.127 139.859 114.84C140.079 114.553 140.235 114.288 140.329 114.045C140.422 113.802 140.469 113.562 140.469 113.325C140.469 112.952 140.379 112.613 140.199 112.31C140.022 112.007 139.784 111.765 139.484 111.585C139.184 111.405 138.85 111.315 138.484 111.315C138.117 111.315 137.784 111.405 137.484 111.585C137.184 111.765 136.937 112.012 136.744 112.325C136.55 112.638 136.435 112.998 136.399 113.405L135.714 113.175C135.75 112.808 135.845 112.468 135.999 112.155C136.155 111.842 136.359 111.568 136.609 111.335C136.862 111.102 137.15 110.92 137.474 110.79C137.797 110.66 138.145 110.595 138.519 110.595C139.035 110.595 139.504 110.715 139.924 110.955C140.344 111.192 140.677 111.515 140.924 111.925C141.17 112.335 141.294 112.798 141.294 113.315C141.294 113.582 141.254 113.843 141.174 114.1C141.094 114.357 140.959 114.625 140.769 114.905C140.582 115.185 140.33 115.49 140.014 115.82C139.697 116.147 139.302 116.512 138.829 116.915C138.359 117.318 137.797 117.775 137.144 118.285H141.444V119H135.599Z" fill="white"/>
<path d="M112.114 56L116.092 46.1H117.898L121.87 56H119.776L118.936 53.744H115.048L114.208 56H112.114ZM115.714 52.04H118.276L116.992 48.722L115.714 52.04ZM123.07 56V49.856H124.912V50.54C125.216 50.236 125.518 50.014 125.818 49.874C126.118 49.734 126.442 49.664 126.79 49.664C127.262 49.664 127.688 49.77 128.068 49.982C128.448 50.194 128.72 50.478 128.884 50.834C129.184 50.446 129.506 50.154 129.85 49.958C130.194 49.762 130.588 49.664 131.032 49.664C131.476 49.664 131.87 49.756 132.214 49.94C132.558 50.124 132.828 50.386 133.024 50.726C133.224 51.062 133.324 51.46 133.324 51.92V56H131.482V52.424C131.482 52.024 131.378 51.71 131.17 51.482C130.962 51.25 130.684 51.134 130.336 51.134C130.096 51.134 129.884 51.184 129.7 51.284C129.52 51.384 129.378 51.518 129.274 51.686C129.17 51.854 129.118 52.04 129.118 52.244V56H127.276V52.388C127.276 52.008 127.174 51.704 126.97 51.476C126.77 51.248 126.492 51.134 126.136 51.134C125.9 51.134 125.688 51.184 125.5 51.284C125.316 51.384 125.172 51.52 125.068 51.692C124.964 51.864 124.912 52.054 124.912 52.262V56H123.07ZM135.147 59.12L137.133 55.232L134.21 49.856H136.323L138.207 53.456L139.839 49.856H141.951L137.253 59.12H135.147ZM146.467 56V46.1H148.411V54.296H151.987V56H146.467ZM156.365 56.192C155.689 56.192 155.079 56.054 154.535 55.778C153.991 55.498 153.559 55.114 153.239 54.626C152.919 54.134 152.759 53.568 152.759 52.928C152.759 52.288 152.917 51.724 153.233 51.236C153.553 50.744 153.985 50.36 154.529 50.084C155.077 49.804 155.689 49.664 156.365 49.664C157.045 49.664 157.657 49.804 158.201 50.084C158.745 50.36 159.175 50.744 159.491 51.236C159.811 51.724 159.971 52.288 159.971 52.928C159.971 53.568 159.811 54.134 159.491 54.626C159.175 55.114 158.745 55.498 158.201 55.778C157.657 56.054 157.045 56.192 156.365 56.192ZM156.371 54.62C156.683 54.62 156.967 54.548 157.223 54.404C157.479 54.26 157.681 54.062 157.829 53.81C157.977 53.554 158.051 53.26 158.051 52.928C158.051 52.596 157.977 52.304 157.829 52.052C157.681 51.796 157.479 51.596 157.223 51.452C156.967 51.308 156.683 51.236 156.371 51.236C156.055 51.236 155.769 51.308 155.513 51.452C155.261 51.596 155.061 51.796 154.913 52.052C154.765 52.304 154.691 52.596 154.691 52.928C154.691 53.26 154.765 53.554 154.913 53.81C155.061 54.062 155.261 54.26 155.513 54.404C155.769 54.548 156.055 54.62 156.371 54.62ZM164.614 56.192C163.494 56.192 162.686 55.97 162.19 55.526C161.694 55.082 161.446 54.356 161.446 53.348V49.856H163.288V52.916C163.288 53.564 163.388 54.022 163.588 54.29C163.792 54.558 164.134 54.692 164.614 54.692C165.102 54.692 165.444 54.558 165.64 54.29C165.84 54.022 165.94 53.564 165.94 52.916V49.856H167.782V53.348C167.782 54.356 167.534 55.082 167.038 55.526C166.546 55.97 165.738 56.192 164.614 56.192ZM169.805 56V49.856H171.647V50.738C171.875 50.394 172.153 50.13 172.481 49.946C172.813 49.758 173.169 49.664 173.549 49.664C173.765 49.664 173.989 49.696 174.221 49.76C174.453 49.824 174.647 49.906 174.803 50.006L174.035 51.56C173.899 51.468 173.739 51.396 173.555 51.344C173.375 51.288 173.207 51.26 173.051 51.26C172.811 51.26 172.583 51.322 172.367 51.446C172.151 51.57 171.977 51.732 171.845 51.932C171.713 52.128 171.647 52.34 171.647 52.568V56H169.805ZM178.372 56.192C177.816 56.192 177.308 56.054 176.848 55.778C176.392 55.498 176.028 55.112 175.756 54.62C175.484 54.128 175.348 53.564 175.348 52.928C175.348 52.304 175.48 51.748 175.744 51.26C176.008 50.768 176.37 50.38 176.83 50.096C177.294 49.808 177.824 49.664 178.42 49.664C178.852 49.664 179.252 49.748 179.62 49.916C179.988 50.08 180.294 50.31 180.538 50.606V45.68H182.38V56H180.538V55.19C180.266 55.506 179.944 55.752 179.572 55.928C179.2 56.104 178.8 56.192 178.372 56.192ZM178.924 54.626C179.248 54.626 179.534 54.554 179.782 54.41C180.03 54.262 180.224 54.06 180.364 53.804C180.508 53.548 180.58 53.258 180.58 52.934C180.58 52.606 180.508 52.314 180.364 52.058C180.224 51.802 180.03 51.6 179.782 51.452C179.534 51.304 179.25 51.23 178.93 51.23C178.614 51.23 178.332 51.304 178.084 51.452C177.84 51.6 177.646 51.804 177.502 52.064C177.358 52.32 177.286 52.612 177.286 52.94C177.286 53.264 177.356 53.554 177.496 53.81C177.636 54.062 177.83 54.262 178.078 54.41C178.326 54.554 178.608 54.626 178.924 54.626ZM187.499 56.192C186.835 56.192 186.239 56.05 185.711 55.766C185.187 55.478 184.771 55.088 184.463 54.596C184.155 54.104 184.001 53.548 184.001 52.928C184.001 52.472 184.087 52.046 184.259 51.65C184.435 51.254 184.679 50.908 184.991 50.612C185.303 50.312 185.665 50.08 186.077 49.916C186.489 49.748 186.935 49.664 187.415 49.664C188.055 49.664 188.615 49.798 189.095 50.066C189.579 50.33 189.955 50.698 190.223 51.17C190.495 51.642 190.631 52.192 190.631 52.82C190.631 52.872 190.629 52.918 190.625 52.958C190.625 52.994 190.619 53.064 190.607 53.168H185.897C185.897 53.48 185.967 53.752 186.107 53.984C186.251 54.216 186.451 54.398 186.707 54.53C186.963 54.658 187.261 54.722 187.601 54.722C187.921 54.722 188.203 54.66 188.447 54.536C188.695 54.412 188.933 54.214 189.161 53.942L190.487 54.608C190.199 55.104 189.791 55.492 189.263 55.772C188.735 56.052 188.147 56.192 187.499 56.192ZM185.963 52.148H188.819C188.779 51.912 188.693 51.708 188.561 51.536C188.433 51.364 188.269 51.232 188.069 51.14C187.869 51.048 187.643 51.002 187.391 51.002C187.123 51.002 186.887 51.048 186.683 51.14C186.479 51.232 186.315 51.364 186.191 51.536C186.067 51.708 185.991 51.912 185.963 52.148ZM193.986 56.192C193.466 56.192 193 56.11 192.588 55.946C192.18 55.782 191.84 55.542 191.568 55.226L192.342 53.99C192.598 54.262 192.866 54.47 193.146 54.614C193.426 54.758 193.706 54.83 193.986 54.83C194.142 54.83 194.276 54.804 194.388 54.752C194.504 54.7 194.594 54.626 194.658 54.53C194.726 54.43 194.76 54.31 194.76 54.17C194.76 54.01 194.714 53.884 194.622 53.792C194.534 53.7 194.398 53.616 194.214 53.54C194.03 53.46 193.792 53.36 193.5 53.24C193.252 53.136 193.014 53.018 192.786 52.886C192.558 52.754 192.372 52.586 192.228 52.382C192.088 52.178 192.018 51.92 192.018 51.608C192.018 51.228 192.124 50.894 192.336 50.606C192.548 50.314 192.84 50.086 193.212 49.922C193.588 49.758 194.02 49.676 194.508 49.676C194.812 49.676 195.13 49.722 195.462 49.814C195.798 49.906 196.156 50.046 196.536 50.234L195.906 51.416C195.39 51.084 194.928 50.918 194.52 50.918C194.292 50.918 194.11 50.968 193.974 51.068C193.838 51.168 193.77 51.294 193.77 51.446C193.77 51.59 193.84 51.716 193.98 51.824C194.124 51.928 194.298 52.022 194.502 52.106C194.71 52.186 194.908 52.26 195.096 52.328C195.404 52.44 195.676 52.564 195.912 52.7C196.152 52.836 196.34 53.014 196.476 53.234C196.612 53.45 196.68 53.74 196.68 54.104C196.68 54.548 196.572 54.926 196.356 55.238C196.144 55.546 195.836 55.782 195.432 55.946C195.032 56.11 194.55 56.192 193.986 56.192ZM117.622 69.192C116.93 69.192 116.282 69.06 115.678 68.796C115.074 68.532 114.544 68.166 114.088 67.698C113.632 67.226 113.274 66.68 113.014 66.06C112.758 65.436 112.63 64.768 112.63 64.056C112.63 63.344 112.758 62.678 113.014 62.058C113.274 61.434 113.632 60.888 114.088 60.42C114.544 59.948 115.074 59.58 115.678 59.316C116.282 59.052 116.93 58.92 117.622 58.92C118.314 58.92 118.962 59.052 119.566 59.316C120.17 59.58 120.7 59.948 121.156 60.42C121.612 60.888 121.968 61.434 122.224 62.058C122.484 62.678 122.614 63.344 122.614 64.056C122.614 64.768 122.484 65.436 122.224 66.06C121.968 66.68 121.612 67.226 121.156 67.698C120.7 68.166 120.17 68.532 119.566 68.796C118.962 69.06 118.314 69.192 117.622 69.192ZM117.616 67.32C118.04 67.32 118.428 67.24 118.78 67.08C119.132 66.92 119.438 66.694 119.698 66.402C119.958 66.11 120.16 65.766 120.304 65.37C120.448 64.97 120.52 64.532 120.52 64.056C120.52 63.58 120.448 63.144 120.304 62.748C120.16 62.348 119.958 62.002 119.698 61.71C119.438 61.418 119.132 61.192 118.78 61.032C118.428 60.872 118.04 60.792 117.616 60.792C117.2 60.792 116.814 60.872 116.458 61.032C116.106 61.192 115.8 61.418 115.54 61.71C115.28 62.002 115.078 62.348 114.934 62.748C114.794 63.144 114.724 63.58 114.724 64.056C114.724 64.532 114.794 64.97 114.934 65.37C115.078 65.766 115.28 66.11 115.54 66.402C115.8 66.694 116.106 66.92 116.458 67.08C116.814 67.24 117.2 67.32 117.616 67.32ZM124.324 69V62.856H126.166V63.738C126.394 63.394 126.672 63.13 127 62.946C127.332 62.758 127.688 62.664 128.068 62.664C128.284 62.664 128.508 62.696 128.74 62.76C128.972 62.824 129.166 62.906 129.322 63.006L128.554 64.56C128.418 64.468 128.258 64.396 128.074 64.344C127.894 64.288 127.726 64.26 127.57 64.26C127.33 64.26 127.102 64.322 126.886 64.446C126.67 64.57 126.496 64.732 126.364 64.932C126.232 65.128 126.166 65.34 126.166 65.568V69H124.324ZM132.466 69.192C131.854 69.192 131.378 68.998 131.038 68.61C130.698 68.218 130.528 67.672 130.528 66.972V64.254H129.706V62.856H130.528V60.552H132.37V62.856H133.72V64.254H132.37V66.84C132.37 67.072 132.416 67.248 132.508 67.368C132.604 67.488 132.738 67.548 132.91 67.548C133.102 67.548 133.286 67.484 133.462 67.356L133.924 68.832C133.716 68.944 133.482 69.032 133.222 69.096C132.966 69.16 132.714 69.192 132.466 69.192ZM138.468 69.192C137.804 69.192 137.208 69.05 136.68 68.766C136.156 68.478 135.74 68.088 135.432 67.596C135.124 67.104 134.97 66.548 134.97 65.928C134.97 65.472 135.056 65.046 135.228 64.65C135.404 64.254 135.648 63.908 135.96 63.612C136.272 63.312 136.634 63.08 137.046 62.916C137.458 62.748 137.904 62.664 138.384 62.664C139.024 62.664 139.584 62.798 140.064 63.066C140.548 63.33 140.924 63.698 141.192 64.17C141.464 64.642 141.6 65.192 141.6 65.82C141.6 65.872 141.598 65.918 141.594 65.958C141.594 65.994 141.588 66.064 141.576 66.168H136.866C136.866 66.48 136.936 66.752 137.076 66.984C137.22 67.216 137.42 67.398 137.676 67.53C137.932 67.658 138.23 67.722 138.57 67.722C138.89 67.722 139.172 67.66 139.416 67.536C139.664 67.412 139.902 67.214 140.13 66.942L141.456 67.608C141.168 68.104 140.76 68.492 140.232 68.772C139.704 69.052 139.116 69.192 138.468 69.192ZM136.932 65.148H139.788C139.748 64.912 139.662 64.708 139.53 64.536C139.402 64.364 139.238 64.232 139.038 64.14C138.838 64.048 138.612 64.002 138.36 64.002C138.092 64.002 137.856 64.048 137.652 64.14C137.448 64.232 137.284 64.364 137.16 64.536C137.036 64.708 136.96 64.912 136.932 65.148ZM146.22 72.3C145.392 72.3 144.696 72.148 144.132 71.844C143.568 71.544 143.158 71.1 142.902 70.512L144.402 69.78C144.57 70.064 144.818 70.29 145.146 70.458C145.474 70.626 145.83 70.71 146.214 70.71C146.562 70.71 146.868 70.64 147.132 70.5C147.396 70.364 147.602 70.17 147.75 69.918C147.898 69.67 147.972 69.382 147.972 69.054V68.19C147.7 68.506 147.378 68.752 147.006 68.928C146.634 69.104 146.234 69.192 145.806 69.192C145.25 69.192 144.742 69.054 144.282 68.778C143.826 68.498 143.462 68.112 143.19 67.62C142.918 67.128 142.782 66.564 142.782 65.928C142.782 65.304 142.914 64.748 143.178 64.26C143.446 63.768 143.81 63.38 144.27 63.096C144.734 62.808 145.262 62.664 145.854 62.664C146.286 62.664 146.686 62.748 147.054 62.916C147.422 63.08 147.728 63.31 147.972 63.606V62.856H149.814V69.168C149.814 69.772 149.682 70.31 149.418 70.782C149.158 71.254 148.762 71.624 148.23 71.892C147.698 72.164 147.028 72.3 146.22 72.3ZM146.358 67.626C146.682 67.626 146.968 67.554 147.216 67.41C147.468 67.262 147.664 67.062 147.804 66.81C147.944 66.554 148.014 66.264 148.014 65.94C148.014 65.608 147.942 65.314 147.798 65.058C147.658 64.802 147.464 64.6 147.216 64.452C146.968 64.304 146.686 64.23 146.37 64.23C146.054 64.23 145.772 64.304 145.524 64.452C145.276 64.6 145.08 64.804 144.936 65.064C144.792 65.32 144.72 65.612 144.72 65.94C144.72 66.264 144.79 66.554 144.93 66.81C145.07 67.062 145.264 67.262 145.512 67.41C145.76 67.554 146.042 67.626 146.358 67.626ZM154.543 69.192C153.979 69.192 153.465 69.052 153.001 68.772C152.541 68.488 152.175 68.1 151.903 67.608C151.635 67.112 151.501 66.548 151.501 65.916C151.501 65.3 151.631 64.748 151.891 64.26C152.151 63.768 152.509 63.38 152.965 63.096C153.425 62.808 153.951 62.664 154.543 62.664C154.979 62.664 155.385 62.748 155.761 62.916C156.141 63.08 156.451 63.31 156.691 63.606V62.856H158.533V69H156.691V68.19C156.411 68.514 156.089 68.762 155.725 68.934C155.361 69.106 154.967 69.192 154.543 69.192ZM155.089 67.626C155.409 67.626 155.693 67.554 155.941 67.41C156.189 67.262 156.383 67.06 156.523 66.804C156.663 66.548 156.733 66.256 156.733 65.928C156.733 65.596 156.661 65.304 156.517 65.052C156.377 64.796 156.183 64.596 155.935 64.452C155.691 64.304 155.409 64.23 155.089 64.23C154.773 64.23 154.491 64.304 154.243 64.452C153.995 64.596 153.799 64.796 153.655 65.052C153.511 65.308 153.439 65.6 153.439 65.928C153.439 66.256 153.509 66.548 153.649 66.804C153.793 67.06 153.989 67.262 154.237 67.41C154.485 67.554 154.769 67.626 155.089 67.626ZM166.478 69.192C165.922 69.192 165.414 69.054 164.954 68.778C164.498 68.498 164.134 68.112 163.862 67.62C163.59 67.128 163.454 66.564 163.454 65.928C163.454 65.304 163.586 64.748 163.85 64.26C164.114 63.768 164.476 63.38 164.936 63.096C165.4 62.808 165.93 62.664 166.526 62.664C166.958 62.664 167.358 62.748 167.726 62.916C168.094 63.08 168.4 63.31 168.644 63.606V58.68H170.486V69H168.644V68.19C168.372 68.506 168.05 68.752 167.678 68.928C167.306 69.104 166.906 69.192 166.478 69.192ZM167.03 67.626C167.354 67.626 167.64 67.554 167.888 67.41C168.136 67.262 168.33 67.06 168.47 66.804C168.614 66.548 168.686 66.258 168.686 65.934C168.686 65.606 168.614 65.314 168.47 65.058C168.33 64.802 168.136 64.6 167.888 64.452C167.64 64.304 167.356 64.23 167.036 64.23C166.72 64.23 166.438 64.304 166.19 64.452C165.946 64.6 165.752 64.804 165.608 65.064C165.464 65.32 165.392 65.612 165.392 65.94C165.392 66.264 165.462 66.554 165.602 66.81C165.742 67.062 165.936 67.262 166.184 67.41C166.432 67.554 166.714 67.626 167.03 67.626ZM175.604 69.192C174.94 69.192 174.344 69.05 173.816 68.766C173.292 68.478 172.876 68.088 172.568 67.596C172.26 67.104 172.106 66.548 172.106 65.928C172.106 65.472 172.192 65.046 172.364 64.65C172.54 64.254 172.784 63.908 173.096 63.612C173.408 63.312 173.77 63.08 174.182 62.916C174.594 62.748 175.04 62.664 175.52 62.664C176.16 62.664 176.72 62.798 177.2 63.066C177.684 63.33 178.06 63.698 178.328 64.17C178.6 64.642 178.736 65.192 178.736 65.82C178.736 65.872 178.734 65.918 178.73 65.958C178.73 65.994 178.724 66.064 178.712 66.168H174.002C174.002 66.48 174.072 66.752 174.212 66.984C174.356 67.216 174.556 67.398 174.812 67.53C175.068 67.658 175.366 67.722 175.706 67.722C176.026 67.722 176.308 67.66 176.552 67.536C176.8 67.412 177.038 67.214 177.266 66.942L178.592 67.608C178.304 68.104 177.896 68.492 177.368 68.772C176.84 69.052 176.252 69.192 175.604 69.192ZM174.068 65.148H176.924C176.884 64.912 176.798 64.708 176.666 64.536C176.538 64.364 176.374 64.232 176.174 64.14C175.974 64.048 175.748 64.002 175.496 64.002C175.228 64.002 174.992 64.048 174.788 64.14C174.584 64.232 174.42 64.364 174.296 64.536C174.172 64.708 174.096 64.912 174.068 65.148ZM113.35 82V72.1H115.294V80.296H118.87V82H113.35ZM123.14 82.192C122.476 82.192 121.88 82.05 121.352 81.766C120.828 81.478 120.412 81.088 120.104 80.596C119.796 80.104 119.642 79.548 119.642 78.928C119.642 78.472 119.728 78.046 119.9 77.65C120.076 77.254 120.32 76.908 120.632 76.612C120.944 76.312 121.306 76.08 121.718 75.916C122.13 75.748 122.576 75.664 123.056 75.664C123.696 75.664 124.256 75.798 124.736 76.066C125.22 76.33 125.596 76.698 125.864 77.17C126.136 77.642 126.272 78.192 126.272 78.82C126.272 78.872 126.27 78.918 126.266 78.958C126.266 78.994 126.26 79.064 126.248 79.168H121.538C121.538 79.48 121.608 79.752 121.748 79.984C121.892 80.216 122.092 80.398 122.348 80.53C122.604 80.658 122.902 80.722 123.242 80.722C123.562 80.722 123.844 80.66 124.088 80.536C124.336 80.412 124.574 80.214 124.802 79.942L126.128 80.608C125.84 81.104 125.432 81.492 124.904 81.772C124.376 82.052 123.788 82.192 123.14 82.192ZM121.604 78.148H124.46C124.42 77.912 124.334 77.708 124.202 77.536C124.074 77.364 123.91 77.232 123.71 77.14C123.51 77.048 123.284 77.002 123.032 77.002C122.764 77.002 122.528 77.048 122.324 77.14C122.12 77.232 121.956 77.364 121.832 77.536C121.708 77.708 121.632 77.912 121.604 78.148ZM130.994 82.192C130.318 82.192 129.708 82.054 129.164 81.778C128.62 81.498 128.188 81.114 127.868 80.626C127.548 80.134 127.388 79.568 127.388 78.928C127.388 78.288 127.546 77.724 127.862 77.236C128.182 76.744 128.614 76.36 129.158 76.084C129.706 75.804 130.318 75.664 130.994 75.664C131.674 75.664 132.286 75.804 132.83 76.084C133.374 76.36 133.804 76.744 134.12 77.236C134.44 77.724 134.6 78.288 134.6 78.928C134.6 79.568 134.44 80.134 134.12 80.626C133.804 81.114 133.374 81.498 132.83 81.778C132.286 82.054 131.674 82.192 130.994 82.192ZM131 80.62C131.312 80.62 131.596 80.548 131.852 80.404C132.108 80.26 132.31 80.062 132.458 79.81C132.606 79.554 132.68 79.26 132.68 78.928C132.68 78.596 132.606 78.304 132.458 78.052C132.31 77.796 132.108 77.596 131.852 77.452C131.596 77.308 131.312 77.236 131 77.236C130.684 77.236 130.398 77.308 130.142 77.452C129.89 77.596 129.69 77.796 129.542 78.052C129.394 78.304 129.32 78.596 129.32 78.928C129.32 79.26 129.394 79.554 129.542 79.81C129.69 80.062 129.89 80.26 130.142 80.404C130.398 80.548 130.684 80.62 131 80.62ZM130.7 75.16L129.92 74.524L131.582 71.878L132.818 72.808L130.7 75.16ZM136.231 82V75.856H138.073V76.54C138.309 76.276 138.603 76.064 138.955 75.904C139.311 75.744 139.703 75.664 140.131 75.664C140.603 75.664 141.017 75.768 141.373 75.976C141.733 76.18 142.015 76.466 142.219 76.834C142.423 77.198 142.525 77.624 142.525 78.112V82H140.683V78.502C140.683 78.062 140.567 77.72 140.335 77.476C140.107 77.228 139.793 77.104 139.393 77.104C139.121 77.104 138.885 77.16 138.685 77.272C138.489 77.38 138.337 77.53 138.229 77.722C138.125 77.91 138.073 78.124 138.073 78.364V82H136.231Z" fill="white"/>
</svg>
