<svg width="841" height="339" viewBox="0 0 841 339" fill="none" xmlns="http://www.w3.org/2000/svg">
<path fill-rule="evenodd" clip-rule="evenodd" d="M702.794 65.2774H420.5H29C12.9837 65.2774 0 78.2612 0 94.2774V291.704C0 317.661 21.0426 338.704 47 338.704H794C819.957 338.704 841 317.661 841 291.704L841 78.478V4.31901C841 0.886212 833.06 -0.630725 831.31 2.32269C824.93 13.092 816.074 23.1975 805.246 32.0624C794.419 40.9273 781.833 48.3778 768.206 53.9887C754.579 59.5996 740.179 63.2609 725.828 64.7635C724.444 64.9085 723.062 65.0331 721.685 65.1374C721.62 65.1423 721.558 65.1665 721.507 65.2069C721.449 65.2526 721.378 65.2774 721.305 65.2774H719.64C713.936 65.6267 708.303 65.6259 702.794 65.2774Z" fill="#C5D751"/>
</svg>
