<svg width="538" height="305" viewBox="0 0 538 305" fill="none" xmlns="http://www.w3.org/2000/svg">
<rect x="0.5" y="0.5" width="537" height="304" rx="28.5" fill="white" stroke="#7C6BAF"/>
<rect x="34.5" y="255.5" width="478" height="16" rx="8" stroke="#E27B38"/>
<path d="M40.762 232.004C41.47 232.352 41.824 232.736 41.824 233.156C41.824 233.348 41.734 233.636 41.554 234.02L36.586 244.1C36.454 244.364 36.25 244.58 35.974 244.748C35.71 244.904 35.434 244.982 35.146 244.982H34.966C34.666 244.982 34.378 244.904 34.102 244.748C33.838 244.58 33.64 244.364 33.508 244.1L28.54 234.02C28.36 233.636 28.27 233.348 28.27 233.156C28.27 232.736 28.624 232.352 29.332 232.004C29.728 231.8 30.028 231.698 30.232 231.698C30.448 231.698 30.61 231.722 30.718 231.77C30.826 231.818 30.928 231.902 31.024 232.022C31.132 232.166 31.228 232.328 31.312 232.508C31.408 232.676 31.642 233.174 32.014 234.002C32.386 234.818 32.782 235.688 33.202 236.612C33.634 237.536 34.036 238.412 34.408 239.24C34.792 240.056 35.008 240.512 35.056 240.608L38.656 232.724C38.752 232.496 38.836 232.316 38.908 232.184C39.124 231.86 39.388 231.698 39.7 231.698C40.012 231.698 40.366 231.8 40.762 232.004ZM42.3606 237.098C42.3606 236.822 42.3666 236.618 42.3786 236.486C42.4026 236.342 42.4566 236.18 42.5406 236C42.7086 235.688 43.1766 235.532 43.9446 235.532C44.5206 235.532 44.9286 235.634 45.1686 235.838C45.3726 236.006 45.4806 236.264 45.4926 236.612C45.5046 236.732 45.5106 236.906 45.5106 237.134V243.434C45.5106 243.71 45.4986 243.92 45.4746 244.064C45.4626 244.196 45.4086 244.352 45.3126 244.532C45.1566 244.844 44.6946 245 43.9266 245C43.1706 245 42.7086 244.838 42.5406 244.514C42.4566 244.334 42.4026 244.178 42.3786 244.046C42.3666 243.914 42.3606 243.704 42.3606 243.416V237.098ZM45.3126 233.768C45.2286 233.936 45.0726 234.056 44.8446 234.128C44.6166 234.2 44.3106 234.236 43.9266 234.236C43.5546 234.236 43.2546 234.2 43.0266 234.128C42.7986 234.056 42.6366 233.93 42.5406 233.75C42.4566 233.57 42.4026 233.414 42.3786 233.282C42.3666 233.138 42.3606 232.928 42.3606 232.652C42.3606 232.376 42.3666 232.172 42.3786 232.04C42.4026 231.896 42.4566 231.74 42.5406 231.572C42.7086 231.248 43.1766 231.086 43.9446 231.086C44.7006 231.086 45.1566 231.248 45.3126 231.572C45.4086 231.752 45.4626 231.914 45.4746 232.058C45.4986 232.19 45.5106 232.394 45.5106 232.67C45.5106 232.946 45.4986 233.156 45.4746 233.3C45.4626 233.432 45.4086 233.588 45.3126 233.768ZM52.4565 238.7L51.2865 238.628V241.112C51.2865 241.436 51.3345 241.67 51.4305 241.814C51.5385 241.958 51.7305 242.03 52.0065 242.03C52.2945 242.03 52.5105 242.042 52.6545 242.066C52.8105 242.078 52.9725 242.132 53.1405 242.228C53.4165 242.384 53.5545 242.786 53.5545 243.434C53.5545 244.19 53.3865 244.652 53.0505 244.82C52.8705 244.904 52.7085 244.958 52.5645 244.982C52.4325 244.994 52.2345 245 51.9705 245C50.7225 245 49.7745 244.718 49.1265 244.154C48.4785 243.59 48.1545 242.636 48.1545 241.292V238.628C47.9265 238.664 47.6805 238.682 47.4165 238.682C47.1525 238.682 46.9305 238.58 46.7505 238.376C46.5825 238.172 46.4985 237.824 46.4985 237.332C46.4985 236.84 46.5285 236.486 46.5885 236.27C46.6485 236.042 46.7325 235.88 46.8405 235.784C47.0325 235.628 47.2725 235.55 47.5605 235.55L48.1545 235.622V233.768C48.1545 233.492 48.1605 233.288 48.1725 233.156C48.1965 233.024 48.2565 232.88 48.3525 232.724C48.5085 232.424 48.9705 232.274 49.7385 232.274C50.5545 232.274 51.0405 232.496 51.1965 232.94C51.2565 233.132 51.2865 233.438 51.2865 233.858V235.622C51.8145 235.574 52.2105 235.55 52.4745 235.55C52.7505 235.55 52.9545 235.562 53.0865 235.586C53.2305 235.598 53.3925 235.652 53.5725 235.748C53.8845 235.904 54.0405 236.366 54.0405 237.134C54.0405 237.89 53.8785 238.352 53.5545 238.52C53.3745 238.604 53.2125 238.658 53.0685 238.682C52.9365 238.694 52.7325 238.7 52.4565 238.7ZM61.1905 236.522C61.2625 235.85 61.7365 235.514 62.6125 235.514C63.0805 235.514 63.4285 235.55 63.6565 235.622C63.8845 235.694 64.0405 235.82 64.1245 236C64.2205 236.18 64.2745 236.342 64.2865 236.486C64.3105 236.618 64.3225 236.822 64.3225 237.098V243.398C64.3225 243.674 64.3105 243.884 64.2865 244.028C64.2745 244.16 64.2265 244.316 64.1425 244.496C63.9745 244.808 63.5605 244.964 62.9005 244.964C62.2525 244.964 61.8145 244.886 61.5865 244.73C61.3705 244.562 61.2445 244.322 61.2085 244.01C60.7645 244.646 60.0205 244.964 58.9765 244.964C57.9445 244.964 56.9845 244.49 56.0965 243.542C55.2085 242.594 54.7645 241.496 54.7645 240.248C54.7645 238.988 55.2085 237.89 56.0965 236.954C56.9965 236.006 57.9805 235.532 59.0485 235.532C59.4565 235.532 59.8285 235.604 60.1645 235.748C60.5005 235.892 60.7345 236.03 60.8665 236.162C60.9985 236.282 61.1065 236.402 61.1905 236.522ZM57.9145 240.266C57.9145 240.662 58.0705 241.022 58.3825 241.346C58.6945 241.658 59.0725 241.814 59.5165 241.814C59.9605 241.814 60.3265 241.652 60.6145 241.328C60.9145 241.004 61.0645 240.65 61.0645 240.266C61.0645 239.87 60.9205 239.504 60.6325 239.168C60.3565 238.832 59.9785 238.664 59.4985 238.664C59.0305 238.664 58.6465 238.832 58.3465 239.168C58.0585 239.504 57.9145 239.87 57.9145 240.266ZM68.8531 236.774C69.4171 235.922 70.0951 235.496 70.8871 235.496C72.1111 235.496 73.0231 236.018 73.6231 237.062C73.7551 236.882 73.9111 236.696 74.0911 236.504C74.2831 236.3 74.5831 236.084 74.9911 235.856C75.3991 235.616 75.8191 235.496 76.2511 235.496C77.2111 235.496 78.0151 235.868 78.6631 236.612C79.3111 237.344 79.6351 238.562 79.6351 240.266V243.416C79.6351 243.692 79.6231 243.902 79.5991 244.046C79.5871 244.178 79.5331 244.334 79.4371 244.514C79.2811 244.838 78.8191 245 78.0511 245C77.2951 245 76.8331 244.832 76.6651 244.496C76.5811 244.316 76.5271 244.16 76.5031 244.028C76.4911 243.884 76.4851 243.674 76.4851 243.398V240.248C76.4851 239.204 76.1131 238.682 75.3691 238.682C74.9491 238.682 74.6611 238.82 74.5051 239.096C74.3611 239.372 74.2891 239.762 74.2891 240.266V243.416C74.2891 243.704 74.2771 243.914 74.2531 244.046C74.2411 244.178 74.1871 244.334 74.0911 244.514C73.9231 244.838 73.4551 245 72.6871 245C71.9311 245 71.4691 244.832 71.3011 244.496C71.2171 244.316 71.1631 244.16 71.1391 244.028C71.1271 243.884 71.1211 243.674 71.1211 243.398V240.248C71.1211 239.204 70.7491 238.682 70.0051 238.682C69.2851 238.682 68.9251 239.204 68.9251 240.248V243.434C68.9251 243.71 68.9131 243.92 68.8891 244.064C68.8771 244.196 68.8231 244.352 68.7271 244.532C68.5471 244.844 68.0791 245 67.3231 245C66.5671 245 66.1051 244.838 65.9371 244.514C65.8531 244.334 65.7991 244.178 65.7751 244.046C65.7631 243.914 65.7571 243.704 65.7571 243.416V237.08C65.7571 236.804 65.7631 236.6 65.7751 236.468C65.7991 236.324 65.8591 236.168 65.9551 236C66.1351 235.676 66.5611 235.514 67.2331 235.514C67.9051 235.514 68.3431 235.622 68.5471 235.838C68.7511 236.054 68.8531 236.366 68.8531 236.774ZM81.0677 237.098C81.0677 236.822 81.0737 236.618 81.0857 236.486C81.1097 236.342 81.1637 236.18 81.2477 236C81.4157 235.688 81.8837 235.532 82.6517 235.532C83.2277 235.532 83.6357 235.634 83.8757 235.838C84.0797 236.006 84.1877 236.264 84.1997 236.612C84.2117 236.732 84.2177 236.906 84.2177 237.134V243.434C84.2177 243.71 84.2057 243.92 84.1817 244.064C84.1697 244.196 84.1157 244.352 84.0197 244.532C83.8637 244.844 83.4017 245 82.6337 245C81.8777 245 81.4157 244.838 81.2477 244.514C81.1637 244.334 81.1097 244.178 81.0857 244.046C81.0737 243.914 81.0677 243.704 81.0677 243.416V237.098ZM84.0197 233.768C83.9357 233.936 83.7797 234.056 83.5517 234.128C83.3237 234.2 83.0177 234.236 82.6337 234.236C82.2617 234.236 81.9617 234.2 81.7337 234.128C81.5057 234.056 81.3437 233.93 81.2477 233.75C81.1637 233.57 81.1097 233.414 81.0857 233.282C81.0737 233.138 81.0677 232.928 81.0677 232.652C81.0677 232.376 81.0737 232.172 81.0857 232.04C81.1097 231.896 81.1637 231.74 81.2477 231.572C81.4157 231.248 81.8837 231.086 82.6517 231.086C83.4077 231.086 83.8637 231.248 84.0197 231.572C84.1157 231.752 84.1697 231.914 84.1817 232.058C84.2057 232.19 84.2177 232.394 84.2177 232.67C84.2177 232.946 84.2057 233.156 84.1817 233.3C84.1697 233.432 84.1157 233.588 84.0197 233.768ZM90.9295 235.514C92.1295 235.514 93.1255 235.976 93.9175 236.9C94.7215 237.812 95.1235 238.928 95.1235 240.248V243.416C95.1235 243.692 95.1115 243.902 95.0875 244.046C95.0755 244.178 95.0275 244.328 94.9435 244.496C94.7755 244.82 94.3075 244.982 93.5395 244.982C92.6875 244.982 92.1955 244.76 92.0635 244.316C91.9915 244.112 91.9555 243.806 91.9555 243.398V240.23C91.9555 239.738 91.8115 239.354 91.5235 239.078C91.2475 238.802 90.8695 238.664 90.3895 238.664C89.9215 238.664 89.5375 238.808 89.2375 239.096C88.9495 239.384 88.8055 239.762 88.8055 240.23V243.416C88.8055 243.692 88.7935 243.902 88.7695 244.046C88.7575 244.178 88.7035 244.328 88.6075 244.496C88.4515 244.82 87.9895 244.982 87.2215 244.982C86.4655 244.982 86.0035 244.82 85.8355 244.496C85.7515 244.316 85.6975 244.16 85.6735 244.028C85.6615 243.884 85.6555 243.674 85.6555 243.398V237.026C85.6555 236.762 85.6615 236.564 85.6735 236.432C85.6975 236.288 85.7575 236.132 85.8535 235.964C86.0215 235.664 86.4835 235.514 87.2395 235.514C87.9715 235.514 88.4215 235.652 88.5895 235.928C88.7095 236.132 88.7695 236.378 88.7695 236.666C88.8175 236.582 88.9255 236.462 89.0935 236.306C89.2615 236.15 89.4235 236.024 89.5795 235.928C89.9875 235.652 90.4375 235.514 90.9295 235.514ZM102.728 236.522C102.8 235.85 103.274 235.514 104.15 235.514C104.618 235.514 104.966 235.55 105.194 235.622C105.422 235.694 105.578 235.82 105.662 236C105.758 236.18 105.812 236.342 105.824 236.486C105.848 236.618 105.86 236.822 105.86 237.098V243.398C105.86 243.674 105.848 243.884 105.824 244.028C105.812 244.16 105.764 244.316 105.68 244.496C105.512 244.808 105.098 244.964 104.438 244.964C103.79 244.964 103.352 244.886 103.124 244.73C102.908 244.562 102.782 244.322 102.746 244.01C102.302 244.646 101.558 244.964 100.514 244.964C99.4816 244.964 98.5216 244.49 97.6336 243.542C96.7456 242.594 96.3016 241.496 96.3016 240.248C96.3016 238.988 96.7456 237.89 97.6336 236.954C98.5336 236.006 99.5176 235.532 100.586 235.532C100.994 235.532 101.366 235.604 101.702 235.748C102.038 235.892 102.272 236.03 102.404 236.162C102.536 236.282 102.644 236.402 102.728 236.522ZM99.4516 240.266C99.4516 240.662 99.6076 241.022 99.9196 241.346C100.232 241.658 100.61 241.814 101.054 241.814C101.498 241.814 101.864 241.652 102.152 241.328C102.452 241.004 102.602 240.65 102.602 240.266C102.602 239.87 102.458 239.504 102.17 239.168C101.894 238.832 101.516 238.664 101.036 238.664C100.568 238.664 100.184 238.832 99.8836 239.168C99.5956 239.504 99.4516 239.87 99.4516 240.266ZM107.366 244.154C107.138 244.01 107.024 243.782 107.024 243.47C107.024 243.158 107.252 242.684 107.708 242.048C107.84 241.844 108.05 241.742 108.338 241.742C108.638 241.742 109.04 241.892 109.544 242.192C110.048 242.48 110.504 242.624 110.912 242.624C111.644 242.624 112.01 242.48 112.01 242.192C112.01 241.964 111.608 241.796 110.804 241.688C110.048 241.58 109.298 241.298 108.554 240.842C108.206 240.626 107.918 240.29 107.69 239.834C107.462 239.366 107.348 238.814 107.348 238.178C107.348 236.282 108.65 235.334 111.254 235.334C112.106 235.334 112.982 235.538 113.882 235.946C114.302 236.138 114.512 236.378 114.512 236.666C114.512 236.954 114.38 237.308 114.116 237.728C113.852 238.148 113.582 238.358 113.306 238.358C113.162 238.358 112.892 238.268 112.496 238.088C112.112 237.908 111.692 237.818 111.236 237.818C110.528 237.818 110.174 237.95 110.174 238.214C110.174 238.574 110.582 238.808 111.398 238.916C112.19 239 112.958 239.228 113.702 239.6C114.05 239.768 114.338 240.062 114.566 240.482C114.806 240.89 114.926 241.406 114.926 242.03C114.926 242.654 114.806 243.188 114.566 243.632C114.338 244.064 114.014 244.388 113.594 244.604C112.826 244.976 111.86 245.162 110.696 245.162C109.544 245.162 108.434 244.826 107.366 244.154Z" fill="#E27B38"/>
<rect x="34.5" y="190.5" width="478" height="16" rx="8" stroke="#F3BD37"/>
<path d="M31.906 177.336H36.802C37.198 177.336 37.486 177.384 37.666 177.48C37.846 177.564 37.966 177.702 38.026 177.894C38.086 178.086 38.116 178.344 38.116 178.668C38.116 178.98 38.086 179.232 38.026 179.424C37.966 179.616 37.864 179.748 37.72 179.82C37.492 179.94 37.18 180 36.784 180H30.304C29.464 180 28.972 179.772 28.828 179.316C28.756 179.124 28.72 178.818 28.72 178.398V168.39C28.72 168.114 28.726 167.91 28.738 167.778C28.762 167.634 28.822 167.472 28.918 167.292C29.086 166.968 29.554 166.806 30.322 166.806C31.162 166.806 31.66 167.028 31.816 167.472C31.876 167.676 31.906 167.988 31.906 168.408V177.336ZM39.2845 172.098C39.2845 171.822 39.2905 171.618 39.3025 171.486C39.3265 171.342 39.3805 171.18 39.4645 171C39.6325 170.688 40.1005 170.532 40.8685 170.532C41.4445 170.532 41.8525 170.634 42.0925 170.838C42.2965 171.006 42.4045 171.264 42.4165 171.612C42.4285 171.732 42.4345 171.906 42.4345 172.134V178.434C42.4345 178.71 42.4225 178.92 42.3985 179.064C42.3865 179.196 42.3325 179.352 42.2365 179.532C42.0805 179.844 41.6185 180 40.8505 180C40.0945 180 39.6325 179.838 39.4645 179.514C39.3805 179.334 39.3265 179.178 39.3025 179.046C39.2905 178.914 39.2845 178.704 39.2845 178.416V172.098ZM40.4185 169.632C40.4185 169.632 40.2385 169.674 39.8785 169.758C39.5185 169.758 39.2245 169.404 38.9965 168.696C38.9005 168.408 38.8525 168.162 38.8525 167.958C38.8525 167.754 38.8885 167.598 38.9605 167.49C39.0805 167.334 39.3025 167.208 39.6265 167.112L42.5965 166.194C42.9085 166.11 43.0885 166.068 43.1365 166.068C43.4965 166.068 43.7845 166.422 44.0005 167.13C44.0965 167.418 44.1445 167.664 44.1445 167.868C44.1445 168.06 44.1085 168.21 44.0365 168.318C43.9165 168.474 43.6945 168.6 43.3705 168.696L40.4185 169.632ZM43.8723 182.574V172.062C43.8723 171.786 43.8783 171.582 43.8903 171.45C43.9143 171.318 43.9683 171.168 44.0523 171C44.2203 170.676 44.6223 170.514 45.2583 170.514C45.8943 170.514 46.3203 170.598 46.5363 170.766C46.7643 170.922 46.8963 171.156 46.9323 171.468C47.3883 170.844 48.1023 170.532 49.0743 170.532C50.0583 170.532 50.9883 170.994 51.8643 171.918C52.7403 172.842 53.1783 173.916 53.1783 175.14C53.1783 176.364 52.7403 177.438 51.8643 178.362C51.0003 179.286 50.0763 179.748 49.0923 179.748C48.1083 179.748 47.3943 179.472 46.9503 178.92V182.556C46.9503 182.832 46.9383 183.036 46.9143 183.168C46.9023 183.3 46.8483 183.45 46.7523 183.618C46.6683 183.798 46.5183 183.924 46.3023 183.996C46.0863 184.068 45.7923 184.104 45.4203 184.104C45.0483 184.104 44.7483 184.068 44.5203 183.996C44.3043 183.924 44.1483 183.804 44.0523 183.636C43.9683 183.468 43.9143 183.318 43.8903 183.186C43.8783 183.054 43.8723 182.85 43.8723 182.574ZM47.4363 174.096C47.1603 174.42 47.0223 174.774 47.0223 175.158C47.0223 175.542 47.1603 175.896 47.4363 176.22C47.7243 176.532 48.0843 176.688 48.5163 176.688C48.9603 176.688 49.3323 176.532 49.6323 176.22C49.9443 175.908 50.1003 175.554 50.1003 175.158C50.1003 174.762 49.9563 174.408 49.6683 174.096C49.3803 173.772 49.0023 173.61 48.5343 173.61C48.0783 173.61 47.7123 173.772 47.4363 174.096ZM54.3489 172.098C54.3489 171.822 54.3549 171.618 54.3669 171.486C54.3909 171.342 54.4449 171.18 54.5289 171C54.6969 170.688 55.1649 170.532 55.9329 170.532C56.5089 170.532 56.9169 170.634 57.1569 170.838C57.3609 171.006 57.4689 171.264 57.4809 171.612C57.4929 171.732 57.4989 171.906 57.4989 172.134V178.434C57.4989 178.71 57.4869 178.92 57.4629 179.064C57.4509 179.196 57.3969 179.352 57.3009 179.532C57.1449 179.844 56.6829 180 55.9149 180C55.1589 180 54.6969 179.838 54.5289 179.514C54.4449 179.334 54.3909 179.178 54.3669 179.046C54.3549 178.914 54.3489 178.704 54.3489 178.416V172.098ZM57.3009 168.768C57.2169 168.936 57.0609 169.056 56.8329 169.128C56.6049 169.2 56.2989 169.236 55.9149 169.236C55.5429 169.236 55.2429 169.2 55.0149 169.128C54.7869 169.056 54.6249 168.93 54.5289 168.75C54.4449 168.57 54.3909 168.414 54.3669 168.282C54.3549 168.138 54.3489 167.928 54.3489 167.652C54.3489 167.376 54.3549 167.172 54.3669 167.04C54.3909 166.896 54.4449 166.74 54.5289 166.572C54.6969 166.248 55.1649 166.086 55.9329 166.086C56.6889 166.086 57.1449 166.248 57.3009 166.572C57.3969 166.752 57.4509 166.914 57.4629 167.058C57.4869 167.19 57.4989 167.394 57.4989 167.67C57.4989 167.946 57.4869 168.156 57.4629 168.3C57.4509 168.432 57.3969 168.588 57.3009 168.768ZM65.2908 166.572C65.3868 166.392 65.5488 166.266 65.7768 166.194C66.0048 166.122 66.3048 166.086 66.6768 166.086C67.0608 166.086 67.3668 166.122 67.5948 166.194C67.8228 166.266 67.9788 166.392 68.0628 166.572C68.1588 166.752 68.2128 166.914 68.2248 167.058C68.2488 167.19 68.2608 167.394 68.2608 167.67V178.416C68.2608 178.692 68.2488 178.902 68.2248 179.046C68.2128 179.178 68.1588 179.328 68.0628 179.496C67.8828 179.82 67.3728 179.982 66.5328 179.982C65.7048 179.982 65.2428 179.688 65.1468 179.1C64.6428 179.676 63.9408 179.964 63.0408 179.964C61.9608 179.964 60.9768 179.496 60.0888 178.56C59.2008 177.612 58.7568 176.514 58.7568 175.266C58.7568 174.006 59.2008 172.902 60.0888 171.954C60.9888 171.006 61.9728 170.532 63.0408 170.532C63.9288 170.532 64.6188 170.832 65.1108 171.432V167.652C65.1108 167.376 65.1168 167.172 65.1288 167.04C65.1528 166.896 65.2068 166.74 65.2908 166.572ZM62.3748 176.346C62.6868 176.67 63.0648 176.832 63.5088 176.832C63.9528 176.832 64.3188 176.67 64.6068 176.346C64.9068 176.022 65.0568 175.668 65.0568 175.284C65.0568 174.888 64.9128 174.522 64.6248 174.186C64.3488 173.85 63.9708 173.682 63.4908 173.682C63.0108 173.682 62.6268 173.85 62.3388 174.186C62.0508 174.51 61.9068 174.87 61.9068 175.266C61.9068 175.662 62.0628 176.022 62.3748 176.346ZM69.4246 175.266C69.4246 173.826 69.9286 172.638 70.9366 171.702C71.9446 170.766 73.0966 170.298 74.3926 170.298C75.6886 170.298 76.8346 170.766 77.8306 171.702C78.8266 172.626 79.3246 173.808 79.3246 175.248C79.3246 176.244 79.0666 177.132 78.5506 177.912C78.0346 178.68 77.4046 179.25 76.6606 179.622C75.9286 179.982 75.1666 180.162 74.3746 180.162C73.5826 180.162 72.8146 179.97 72.0706 179.586C71.3266 179.19 70.6966 178.614 70.1806 177.858C69.6766 177.09 69.4246 176.226 69.4246 175.266ZM73.1866 176.562C73.5706 176.85 73.9606 176.994 74.3566 176.994C74.7526 176.994 75.1486 176.844 75.5446 176.544C75.9406 176.244 76.1386 175.8 76.1386 175.212C76.1386 174.624 75.9526 174.186 75.5806 173.898C75.2086 173.61 74.8066 173.466 74.3746 173.466C73.9426 173.466 73.5406 173.616 73.1686 173.916C72.7966 174.216 72.6106 174.66 72.6106 175.248C72.6106 175.824 72.8026 176.262 73.1866 176.562ZM80.5596 179.154C80.3316 179.01 80.2176 178.782 80.2176 178.47C80.2176 178.158 80.4456 177.684 80.9016 177.048C81.0336 176.844 81.2436 176.742 81.5316 176.742C81.8316 176.742 82.2336 176.892 82.7376 177.192C83.2416 177.48 83.6976 177.624 84.1056 177.624C84.8376 177.624 85.2036 177.48 85.2036 177.192C85.2036 176.964 84.8016 176.796 83.9976 176.688C83.2416 176.58 82.4916 176.298 81.7476 175.842C81.3996 175.626 81.1116 175.29 80.8836 174.834C80.6556 174.366 80.5416 173.814 80.5416 173.178C80.5416 171.282 81.8436 170.334 84.4476 170.334C85.2996 170.334 86.1756 170.538 87.0756 170.946C87.4956 171.138 87.7056 171.378 87.7056 171.666C87.7056 171.954 87.5736 172.308 87.3096 172.728C87.0456 173.148 86.7756 173.358 86.4996 173.358C86.3556 173.358 86.0856 173.268 85.6896 173.088C85.3056 172.908 84.8856 172.818 84.4296 172.818C83.7216 172.818 83.3676 172.95 83.3676 173.214C83.3676 173.574 83.7756 173.808 84.5916 173.916C85.3836 174 86.1516 174.228 86.8956 174.6C87.2436 174.768 87.5316 175.062 87.7596 175.482C87.9996 175.89 88.1196 176.406 88.1196 177.03C88.1196 177.654 87.9996 178.188 87.7596 178.632C87.5316 179.064 87.2076 179.388 86.7876 179.604C86.0196 179.976 85.0536 180.162 83.8896 180.162C82.7376 180.162 81.6276 179.826 80.5596 179.154Z" fill="#F3BD37"/>
<rect x="34.5" y="125.5" width="478" height="16" rx="8" stroke="#4AAEAD"/>
<path d="M36.964 111.544L37.288 111.31C37.696 111.07 37.984 110.95 38.152 110.95C38.524 110.95 38.926 111.286 39.358 111.958C39.622 112.378 39.754 112.714 39.754 112.966C39.754 113.218 39.67 113.428 39.502 113.596C39.346 113.764 39.16 113.914 38.944 114.046C38.728 114.178 38.518 114.304 38.314 114.424C38.122 114.544 37.72 114.7 37.108 114.892C36.496 115.084 35.902 115.18 35.326 115.18C34.762 115.18 34.186 115.108 33.598 114.964C33.022 114.808 32.422 114.556 31.798 114.208C31.186 113.848 30.634 113.416 30.142 112.912C29.65 112.396 29.242 111.742 28.918 110.95C28.606 110.146 28.45 109.276 28.45 108.34C28.45 107.404 28.606 106.558 28.918 105.802C29.23 105.034 29.626 104.404 30.106 103.912C30.598 103.408 31.156 102.988 31.78 102.652C32.956 102.004 34.138 101.68 35.326 101.68C35.89 101.68 36.46 101.77 37.036 101.95C37.624 102.118 38.068 102.292 38.368 102.472L38.8 102.724C39.016 102.856 39.184 102.964 39.304 103.048C39.616 103.3 39.772 103.588 39.772 103.912C39.772 104.224 39.646 104.554 39.394 104.902C38.926 105.55 38.506 105.874 38.134 105.874C37.918 105.874 37.612 105.742 37.216 105.478C36.712 105.07 36.04 104.866 35.2 104.866C34.42 104.866 33.652 105.136 32.896 105.676C32.536 105.94 32.236 106.312 31.996 106.792C31.756 107.272 31.636 107.818 31.636 108.43C31.636 109.03 31.756 109.57 31.996 110.05C32.236 110.53 32.542 110.908 32.914 111.184C33.646 111.712 34.408 111.976 35.2 111.976C35.572 111.976 35.92 111.928 36.244 111.832C36.58 111.736 36.82 111.64 36.964 111.544ZM46.7412 106.522C46.8132 105.85 47.2872 105.514 48.1632 105.514C48.6312 105.514 48.9792 105.55 49.2072 105.622C49.4352 105.694 49.5912 105.82 49.6752 106C49.7712 106.18 49.8252 106.342 49.8372 106.486C49.8612 106.618 49.8732 106.822 49.8732 107.098V113.398C49.8732 113.674 49.8612 113.884 49.8372 114.028C49.8252 114.16 49.7772 114.316 49.6932 114.496C49.5252 114.808 49.1112 114.964 48.4512 114.964C47.8032 114.964 47.3652 114.886 47.1372 114.73C46.9212 114.562 46.7952 114.322 46.7592 114.01C46.3152 114.646 45.5712 114.964 44.5272 114.964C43.4952 114.964 42.5352 114.49 41.6472 113.542C40.7592 112.594 40.3152 111.496 40.3152 110.248C40.3152 108.988 40.7592 107.89 41.6472 106.954C42.5472 106.006 43.5312 105.532 44.5992 105.532C45.0072 105.532 45.3792 105.604 45.7152 105.748C46.0512 105.892 46.2852 106.03 46.4172 106.162C46.5492 106.282 46.6572 106.402 46.7412 106.522ZM43.4652 110.266C43.4652 110.662 43.6212 111.022 43.9332 111.346C44.2452 111.658 44.6232 111.814 45.0672 111.814C45.5112 111.814 45.8772 111.652 46.1652 111.328C46.4652 111.004 46.6152 110.65 46.6152 110.266C46.6152 109.87 46.4712 109.504 46.1832 109.168C45.9072 108.832 45.5292 108.664 45.0492 108.664C44.5812 108.664 44.1972 108.832 43.8972 109.168C43.6092 109.504 43.4652 109.87 43.4652 110.266ZM57.7519 105.622C57.9799 105.694 58.1659 105.82 58.3099 106C58.4659 106.168 58.5439 106.444 58.5439 106.828C58.5439 107.212 58.4299 107.632 58.2019 108.088C57.9739 108.544 57.6439 108.772 57.2119 108.772C56.9959 108.772 56.7859 108.724 56.5819 108.628C56.3899 108.532 56.1319 108.484 55.8079 108.484C55.4839 108.484 55.1779 108.598 54.8899 108.826C54.6139 109.054 54.4759 109.33 54.4759 109.654V113.434C54.4759 113.71 54.4639 113.92 54.4399 114.064C54.4279 114.196 54.3739 114.352 54.2779 114.532C54.0979 114.844 53.6299 115 52.8739 115C52.2979 115 51.8839 114.898 51.6319 114.694C51.4399 114.526 51.3319 114.268 51.3079 113.92C51.3079 113.8 51.3079 113.626 51.3079 113.398V107.08C51.3079 106.804 51.3139 106.6 51.3259 106.468C51.3499 106.324 51.4039 106.168 51.4879 106C51.6559 105.676 52.1239 105.514 52.8919 105.514C53.6119 105.514 54.0619 105.652 54.2419 105.928C54.3739 106.12 54.4399 106.318 54.4399 106.522C54.4999 106.438 54.5839 106.336 54.6919 106.216C54.8119 106.096 55.0579 105.934 55.4299 105.73C55.8019 105.526 56.1259 105.424 56.4019 105.424C56.6899 105.424 56.9299 105.442 57.1219 105.478C57.3139 105.502 57.5239 105.55 57.7519 105.622ZM64.7365 105.532C65.8045 105.532 66.7825 106.006 67.6705 106.954C68.5705 107.902 69.0205 109.006 69.0205 110.266C69.0205 111.514 68.5765 112.612 67.6885 113.56C66.8005 114.496 65.8465 114.964 64.8265 114.964C63.8065 114.964 63.0805 114.676 62.6485 114.1C62.5525 114.688 62.0365 114.982 61.1005 114.982C60.3445 114.982 59.8825 114.82 59.7145 114.496C59.6305 114.316 59.5765 114.16 59.5525 114.028C59.5405 113.884 59.5345 113.674 59.5345 113.398V102.652C59.5345 102.376 59.5405 102.172 59.5525 102.04C59.5765 101.896 59.6305 101.74 59.7145 101.572C59.8825 101.248 60.3505 101.086 61.1185 101.086C61.8745 101.086 62.3305 101.248 62.4865 101.572C62.5825 101.752 62.6365 101.914 62.6485 102.058C62.6725 102.19 62.6845 102.394 62.6845 102.67V106.414C63.1645 105.826 63.8485 105.532 64.7365 105.532ZM63.1525 111.346C63.4525 111.67 63.8245 111.832 64.2685 111.832C64.7125 111.832 65.0905 111.67 65.4025 111.346C65.7145 111.022 65.8705 110.662 65.8705 110.266C65.8705 109.87 65.7265 109.51 65.4385 109.186C65.1505 108.85 64.7665 108.682 64.2865 108.682C63.8065 108.682 63.4225 108.85 63.1345 109.186C62.8585 109.522 62.7205 109.888 62.7205 110.284C62.7205 110.668 62.8645 111.022 63.1525 111.346ZM69.9168 110.266C69.9168 108.826 70.4208 107.638 71.4288 106.702C72.4368 105.766 73.5888 105.298 74.8848 105.298C76.1808 105.298 77.3268 105.766 78.3228 106.702C79.3188 107.626 79.8168 108.808 79.8168 110.248C79.8168 111.244 79.5588 112.132 79.0428 112.912C78.5268 113.68 77.8968 114.25 77.1528 114.622C76.4208 114.982 75.6588 115.162 74.8668 115.162C74.0748 115.162 73.3068 114.97 72.5628 114.586C71.8188 114.19 71.1888 113.614 70.6728 112.858C70.1688 112.09 69.9168 111.226 69.9168 110.266ZM73.6788 111.562C74.0628 111.85 74.4528 111.994 74.8488 111.994C75.2448 111.994 75.6408 111.844 76.0368 111.544C76.4328 111.244 76.6308 110.8 76.6308 110.212C76.6308 109.624 76.4448 109.186 76.0728 108.898C75.7008 108.61 75.2988 108.466 74.8668 108.466C74.4348 108.466 74.0328 108.616 73.6608 108.916C73.2888 109.216 73.1028 109.66 73.1028 110.248C73.1028 110.824 73.2948 111.262 73.6788 111.562ZM86.2358 105.55C87.4358 105.55 88.4318 106.006 89.2238 106.918C90.0278 107.83 90.4298 108.946 90.4298 110.266V113.434C90.4298 113.71 90.4178 113.92 90.3938 114.064C90.3818 114.196 90.3278 114.352 90.2318 114.532C90.0758 114.844 89.6138 115 88.8458 115C88.1138 115 87.6578 114.844 87.4778 114.532C87.3818 114.352 87.3218 114.19 87.2978 114.046C87.2858 113.902 87.2798 113.686 87.2798 113.398V110.248C87.2798 109.756 87.1418 109.372 86.8658 109.096C86.5898 108.82 86.2358 108.682 85.8038 108.682C85.3838 108.682 85.0118 108.814 84.6878 109.078C84.3638 109.33 84.1778 109.618 84.1298 109.942V113.434C84.1298 113.71 84.1178 113.92 84.0938 114.064C84.0818 114.196 84.0278 114.352 83.9318 114.532C83.7758 114.844 83.3138 115 82.5458 115C81.7898 115 81.3278 114.838 81.1598 114.514C81.0758 114.334 81.0218 114.178 80.9978 114.046C80.9858 113.914 80.9798 113.704 80.9798 113.416V102.652C80.9798 102.376 80.9858 102.172 80.9978 102.04C81.0218 101.896 81.0758 101.74 81.1598 101.572C81.3278 101.248 81.7958 101.086 82.5638 101.086C83.3198 101.086 83.7758 101.248 83.9318 101.572C84.0278 101.752 84.0818 101.914 84.0938 102.058C84.1178 102.19 84.1298 102.394 84.1298 102.67V106.648C84.7298 105.916 85.4318 105.55 86.2358 105.55ZM91.8782 107.098C91.8782 106.822 91.8842 106.618 91.8962 106.486C91.9202 106.342 91.9742 106.18 92.0582 106C92.2262 105.688 92.6942 105.532 93.4622 105.532C94.0382 105.532 94.4462 105.634 94.6862 105.838C94.8902 106.006 94.9982 106.264 95.0102 106.612C95.0222 106.732 95.0282 106.906 95.0282 107.134V113.434C95.0282 113.71 95.0162 113.92 94.9922 114.064C94.9802 114.196 94.9262 114.352 94.8302 114.532C94.6742 114.844 94.2122 115 93.4442 115C92.6882 115 92.2262 114.838 92.0582 114.514C91.9742 114.334 91.9202 114.178 91.8962 114.046C91.8842 113.914 91.8782 113.704 91.8782 113.416V107.098ZM94.8302 103.768C94.7462 103.936 94.5902 104.056 94.3622 104.128C94.1342 104.2 93.8282 104.236 93.4442 104.236C93.0722 104.236 92.7722 104.2 92.5442 104.128C92.3162 104.056 92.1542 103.93 92.0582 103.75C91.9742 103.57 91.9202 103.414 91.8962 103.282C91.8842 103.138 91.8782 102.928 91.8782 102.652C91.8782 102.376 91.8842 102.172 91.8962 102.04C91.9202 101.896 91.9742 101.74 92.0582 101.572C92.2262 101.248 92.6942 101.086 93.4622 101.086C94.2182 101.086 94.6742 101.248 94.8302 101.572C94.9262 101.752 94.9802 101.914 94.9922 102.058C95.0162 102.19 95.0282 102.394 95.0282 102.67C95.0282 102.946 95.0162 103.156 94.9922 103.3C94.9802 103.432 94.9262 103.588 94.8302 103.768ZM102.82 101.572C102.916 101.392 103.078 101.266 103.306 101.194C103.534 101.122 103.834 101.086 104.206 101.086C104.59 101.086 104.896 101.122 105.124 101.194C105.352 101.266 105.508 101.392 105.592 101.572C105.688 101.752 105.742 101.914 105.754 102.058C105.778 102.19 105.79 102.394 105.79 102.67V113.416C105.79 113.692 105.778 113.902 105.754 114.046C105.742 114.178 105.688 114.328 105.592 114.496C105.412 114.82 104.902 114.982 104.062 114.982C103.234 114.982 102.772 114.688 102.676 114.1C102.172 114.676 101.47 114.964 100.57 114.964C99.4901 114.964 98.5061 114.496 97.6181 113.56C96.7301 112.612 96.2861 111.514 96.2861 110.266C96.2861 109.006 96.7301 107.902 97.6181 106.954C98.5181 106.006 99.5021 105.532 100.57 105.532C101.458 105.532 102.148 105.832 102.64 106.432V102.652C102.64 102.376 102.646 102.172 102.658 102.04C102.682 101.896 102.736 101.74 102.82 101.572ZM99.9041 111.346C100.216 111.67 100.594 111.832 101.038 111.832C101.482 111.832 101.848 111.67 102.136 111.346C102.436 111.022 102.586 110.668 102.586 110.284C102.586 109.888 102.442 109.522 102.154 109.186C101.878 108.85 101.5 108.682 101.02 108.682C100.54 108.682 100.156 108.85 99.8681 109.186C99.5801 109.51 99.4361 109.87 99.4361 110.266C99.4361 110.662 99.5921 111.022 99.9041 111.346ZM113.668 105.622C113.896 105.694 114.082 105.82 114.226 106C114.382 106.168 114.46 106.444 114.46 106.828C114.46 107.212 114.346 107.632 114.118 108.088C113.89 108.544 113.56 108.772 113.128 108.772C112.912 108.772 112.702 108.724 112.498 108.628C112.306 108.532 112.048 108.484 111.724 108.484C111.4 108.484 111.094 108.598 110.806 108.826C110.53 109.054 110.392 109.33 110.392 109.654V113.434C110.392 113.71 110.38 113.92 110.356 114.064C110.344 114.196 110.29 114.352 110.194 114.532C110.014 114.844 109.546 115 108.79 115C108.214 115 107.8 114.898 107.548 114.694C107.356 114.526 107.248 114.268 107.224 113.92C107.224 113.8 107.224 113.626 107.224 113.398V107.08C107.224 106.804 107.23 106.6 107.242 106.468C107.266 106.324 107.32 106.168 107.404 106C107.572 105.676 108.04 105.514 108.808 105.514C109.528 105.514 109.978 105.652 110.158 105.928C110.29 106.12 110.356 106.318 110.356 106.522C110.416 106.438 110.5 106.336 110.608 106.216C110.728 106.096 110.974 105.934 111.346 105.73C111.718 105.526 112.042 105.424 112.318 105.424C112.606 105.424 112.846 105.442 113.038 105.478C113.23 105.502 113.44 105.55 113.668 105.622ZM121.062 106.522C121.134 105.85 121.608 105.514 122.484 105.514C122.952 105.514 123.3 105.55 123.528 105.622C123.756 105.694 123.912 105.82 123.996 106C124.092 106.18 124.146 106.342 124.158 106.486C124.182 106.618 124.194 106.822 124.194 107.098V113.398C124.194 113.674 124.182 113.884 124.158 114.028C124.146 114.16 124.098 114.316 124.014 114.496C123.846 114.808 123.432 114.964 122.772 114.964C122.124 114.964 121.686 114.886 121.458 114.73C121.242 114.562 121.116 114.322 121.08 114.01C120.636 114.646 119.892 114.964 118.848 114.964C117.816 114.964 116.856 114.49 115.968 113.542C115.08 112.594 114.636 111.496 114.636 110.248C114.636 108.988 115.08 107.89 115.968 106.954C116.868 106.006 117.852 105.532 118.92 105.532C119.328 105.532 119.7 105.604 120.036 105.748C120.372 105.892 120.606 106.03 120.738 106.162C120.87 106.282 120.978 106.402 121.062 106.522ZM117.786 110.266C117.786 110.662 117.942 111.022 118.254 111.346C118.566 111.658 118.944 111.814 119.388 111.814C119.832 111.814 120.198 111.652 120.486 111.328C120.786 111.004 120.936 110.65 120.936 110.266C120.936 109.87 120.792 109.504 120.504 109.168C120.228 108.832 119.85 108.664 119.37 108.664C118.902 108.664 118.518 108.832 118.218 109.168C117.93 109.504 117.786 109.87 117.786 110.266ZM131.136 108.7L129.966 108.628V111.112C129.966 111.436 130.014 111.67 130.11 111.814C130.218 111.958 130.41 112.03 130.686 112.03C130.974 112.03 131.19 112.042 131.334 112.066C131.49 112.078 131.652 112.132 131.82 112.228C132.096 112.384 132.234 112.786 132.234 113.434C132.234 114.19 132.066 114.652 131.73 114.82C131.55 114.904 131.388 114.958 131.244 114.982C131.112 114.994 130.914 115 130.65 115C129.402 115 128.454 114.718 127.806 114.154C127.158 113.59 126.834 112.636 126.834 111.292V108.628C126.606 108.664 126.36 108.682 126.096 108.682C125.832 108.682 125.61 108.58 125.43 108.376C125.262 108.172 125.178 107.824 125.178 107.332C125.178 106.84 125.208 106.486 125.268 106.27C125.328 106.042 125.412 105.88 125.52 105.784C125.712 105.628 125.952 105.55 126.24 105.55L126.834 105.622V103.768C126.834 103.492 126.84 103.288 126.852 103.156C126.876 103.024 126.936 102.88 127.032 102.724C127.188 102.424 127.65 102.274 128.418 102.274C129.234 102.274 129.72 102.496 129.876 102.94C129.936 103.132 129.966 103.438 129.966 103.858V105.622C130.494 105.574 130.89 105.55 131.154 105.55C131.43 105.55 131.634 105.562 131.766 105.586C131.91 105.598 132.072 105.652 132.252 105.748C132.564 105.904 132.72 106.366 132.72 107.134C132.72 107.89 132.558 108.352 132.234 108.52C132.054 108.604 131.892 108.658 131.748 108.682C131.616 108.694 131.412 108.7 131.136 108.7ZM133.444 110.266C133.444 108.826 133.948 107.638 134.956 106.702C135.964 105.766 137.116 105.298 138.412 105.298C139.708 105.298 140.854 105.766 141.85 106.702C142.846 107.626 143.344 108.808 143.344 110.248C143.344 111.244 143.086 112.132 142.57 112.912C142.054 113.68 141.424 114.25 140.68 114.622C139.948 114.982 139.186 115.162 138.394 115.162C137.602 115.162 136.834 114.97 136.09 114.586C135.346 114.19 134.716 113.614 134.2 112.858C133.696 112.09 133.444 111.226 133.444 110.266ZM137.206 111.562C137.59 111.85 137.98 111.994 138.376 111.994C138.772 111.994 139.168 111.844 139.564 111.544C139.96 111.244 140.158 110.8 140.158 110.212C140.158 109.624 139.972 109.186 139.6 108.898C139.228 108.61 138.826 108.466 138.394 108.466C137.962 108.466 137.56 108.616 137.188 108.916C136.816 109.216 136.63 109.66 136.63 110.248C136.63 110.824 136.822 111.262 137.206 111.562ZM144.579 114.154C144.351 114.01 144.237 113.782 144.237 113.47C144.237 113.158 144.465 112.684 144.921 112.048C145.053 111.844 145.263 111.742 145.551 111.742C145.851 111.742 146.253 111.892 146.757 112.192C147.261 112.48 147.717 112.624 148.125 112.624C148.857 112.624 149.223 112.48 149.223 112.192C149.223 111.964 148.821 111.796 148.017 111.688C147.261 111.58 146.511 111.298 145.767 110.842C145.419 110.626 145.131 110.29 144.903 109.834C144.675 109.366 144.561 108.814 144.561 108.178C144.561 106.282 145.863 105.334 148.467 105.334C149.319 105.334 150.195 105.538 151.095 105.946C151.515 106.138 151.725 106.378 151.725 106.666C151.725 106.954 151.593 107.308 151.329 107.728C151.065 108.148 150.795 108.358 150.519 108.358C150.375 108.358 150.105 108.268 149.709 108.088C149.325 107.908 148.905 107.818 148.449 107.818C147.741 107.818 147.387 107.95 147.387 108.214C147.387 108.574 147.795 108.808 148.611 108.916C149.403 109 150.171 109.228 150.915 109.6C151.263 109.768 151.551 110.062 151.779 110.482C152.019 110.89 152.139 111.406 152.139 112.03C152.139 112.654 152.019 113.188 151.779 113.632C151.551 114.064 151.227 114.388 150.807 114.604C150.039 114.976 149.073 115.162 147.909 115.162C146.757 115.162 145.647 114.826 144.579 114.154Z" fill="#4AAEAD"/>
<rect x="34.5" y="60.5" width="478" height="16" rx="8" stroke="#C5D751"/>
<path d="M38.458 39.47C38.77 40.106 38.926 40.814 38.926 41.594C38.926 42.374 38.77 43.082 38.458 43.718C38.146 44.342 37.744 44.84 37.252 45.212C36.256 45.98 35.224 46.364 34.156 46.364H31.906V48.398C31.906 48.674 31.894 48.884 31.87 49.028C31.858 49.16 31.804 49.316 31.708 49.496C31.54 49.82 31.072 49.982 30.304 49.982C29.464 49.982 28.972 49.76 28.828 49.316C28.756 49.112 28.72 48.8 28.72 48.38V38.39C28.72 38.114 28.726 37.91 28.738 37.778C28.762 37.634 28.822 37.472 28.918 37.292C29.086 36.968 29.554 36.806 30.322 36.806H34.174C35.23 36.806 36.256 37.19 37.252 37.958C37.744 38.33 38.146 38.834 38.458 39.47ZM34.174 43.178C34.534 43.178 34.888 43.046 35.236 42.782C35.584 42.518 35.758 42.122 35.758 41.594C35.758 41.066 35.584 40.67 35.236 40.406C34.888 40.13 34.528 39.992 34.156 39.992H31.906V43.178H34.174ZM46.537 40.622C46.765 40.694 46.951 40.82 47.095 41C47.251 41.168 47.329 41.444 47.329 41.828C47.329 42.212 47.215 42.632 46.987 43.088C46.759 43.544 46.429 43.772 45.997 43.772C45.781 43.772 45.571 43.724 45.367 43.628C45.175 43.532 44.917 43.484 44.593 43.484C44.269 43.484 43.963 43.598 43.675 43.826C43.399 44.054 43.261 44.33 43.261 44.654V48.434C43.261 48.71 43.249 48.92 43.225 49.064C43.213 49.196 43.159 49.352 43.063 49.532C42.883 49.844 42.415 50 41.659 50C41.083 50 40.669 49.898 40.417 49.694C40.225 49.526 40.117 49.268 40.093 48.92C40.093 48.8 40.093 48.626 40.093 48.398V42.08C40.093 41.804 40.099 41.6 40.111 41.468C40.135 41.324 40.189 41.168 40.273 41C40.441 40.676 40.909 40.514 41.677 40.514C42.397 40.514 42.847 40.652 43.027 40.928C43.159 41.12 43.225 41.318 43.225 41.522C43.285 41.438 43.369 41.336 43.477 41.216C43.597 41.096 43.843 40.934 44.215 40.73C44.587 40.526 44.911 40.424 45.187 40.424C45.475 40.424 45.715 40.442 45.907 40.478C46.099 40.502 46.309 40.55 46.537 40.622ZM47.5047 45.266C47.5047 43.826 48.0087 42.638 49.0167 41.702C50.0247 40.766 51.1767 40.298 52.4727 40.298C53.7687 40.298 54.9147 40.766 55.9107 41.702C56.9067 42.626 57.4047 43.808 57.4047 45.248C57.4047 46.244 57.1467 47.132 56.6307 47.912C56.1147 48.68 55.4847 49.25 54.7407 49.622C54.0087 49.982 53.2467 50.162 52.4547 50.162C51.6627 50.162 50.8947 49.97 50.1507 49.586C49.4067 49.19 48.7767 48.614 48.2607 47.858C47.7567 47.09 47.5047 46.226 47.5047 45.266ZM51.2667 46.562C51.6507 46.85 52.0407 46.994 52.4367 46.994C52.8327 46.994 53.2287 46.844 53.6247 46.544C54.0207 46.244 54.2187 45.8 54.2187 45.212C54.2187 44.624 54.0327 44.186 53.6607 43.898C53.2887 43.61 52.8867 43.466 52.4547 43.466C52.0227 43.466 51.6207 43.616 51.2487 43.916C50.8767 44.216 50.6907 44.66 50.6907 45.248C50.6907 45.824 50.8827 46.262 51.2667 46.562ZM63.812 43.7L62.642 43.628V46.112C62.642 46.436 62.69 46.67 62.786 46.814C62.894 46.958 63.086 47.03 63.362 47.03C63.65 47.03 63.866 47.042 64.01 47.066C64.166 47.078 64.328 47.132 64.496 47.228C64.772 47.384 64.91 47.786 64.91 48.434C64.91 49.19 64.742 49.652 64.406 49.82C64.226 49.904 64.064 49.958 63.92 49.982C63.788 49.994 63.59 50 63.326 50C62.078 50 61.13 49.718 60.482 49.154C59.834 48.59 59.51 47.636 59.51 46.292V43.628C59.282 43.664 59.036 43.682 58.772 43.682C58.508 43.682 58.286 43.58 58.106 43.376C57.938 43.172 57.854 42.824 57.854 42.332C57.854 41.84 57.884 41.486 57.944 41.27C58.004 41.042 58.088 40.88 58.196 40.784C58.388 40.628 58.628 40.55 58.916 40.55L59.51 40.622V38.768C59.51 38.492 59.516 38.288 59.528 38.156C59.552 38.024 59.612 37.88 59.708 37.724C59.864 37.424 60.326 37.274 61.094 37.274C61.91 37.274 62.396 37.496 62.552 37.94C62.612 38.132 62.642 38.438 62.642 38.858V40.622C63.17 40.574 63.566 40.55 63.83 40.55C64.106 40.55 64.31 40.562 64.442 40.586C64.586 40.598 64.748 40.652 64.928 40.748C65.24 40.904 65.396 41.366 65.396 42.134C65.396 42.89 65.234 43.352 64.91 43.52C64.73 43.604 64.568 43.658 64.424 43.682C64.292 43.694 64.088 43.7 63.812 43.7ZM75.1824 44.132C75.1824 44.864 74.9964 45.41 74.6244 45.77C74.2644 46.118 73.8624 46.292 73.4184 46.292H69.1524C69.1524 46.628 69.3504 46.91 69.7464 47.138C70.1424 47.366 70.5384 47.48 70.9344 47.48C71.6304 47.48 72.1764 47.408 72.5724 47.264L72.7704 47.192C73.0584 47.06 73.2984 46.994 73.4904 46.994C73.8744 46.994 74.2044 47.264 74.4804 47.804C74.6364 48.128 74.7144 48.404 74.7144 48.632C74.7144 49.7 73.4364 50.234 70.8804 50.234C69.9924 50.234 69.2004 50.084 68.5044 49.784C67.8204 49.472 67.2864 49.064 66.9024 48.56C66.1464 47.588 65.7684 46.502 65.7684 45.302C65.7684 43.79 66.2544 42.584 67.2264 41.684C68.2104 40.772 69.4344 40.316 70.8984 40.316C72.5664 40.316 73.7904 40.904 74.5704 42.08C74.9784 42.704 75.1824 43.388 75.1824 44.132ZM71.3844 44.654C71.8404 44.654 72.0684 44.462 72.0684 44.078C72.0684 43.802 71.9604 43.58 71.7444 43.412C71.5404 43.244 71.2404 43.16 70.8444 43.16C70.4604 43.16 70.0764 43.322 69.6924 43.646C69.3084 43.958 69.1164 44.294 69.1164 44.654H71.3844ZM76.3567 42.098C76.3567 41.822 76.3627 41.618 76.3747 41.486C76.3987 41.342 76.4527 41.18 76.5367 41C76.7047 40.688 77.1727 40.532 77.9407 40.532C78.5167 40.532 78.9247 40.634 79.1647 40.838C79.3687 41.006 79.4767 41.264 79.4887 41.612C79.5007 41.732 79.5067 41.906 79.5067 42.134V48.434C79.5067 48.71 79.4947 48.92 79.4707 49.064C79.4587 49.196 79.4047 49.352 79.3087 49.532C79.1527 49.844 78.6907 50 77.9227 50C77.1667 50 76.7047 49.838 76.5367 49.514C76.4527 49.334 76.3987 49.178 76.3747 49.046C76.3627 48.914 76.3567 48.704 76.3567 48.416V42.098ZM77.4907 39.632C77.4907 39.632 77.3107 39.674 76.9507 39.758C76.5907 39.758 76.2967 39.404 76.0687 38.696C75.9727 38.408 75.9247 38.162 75.9247 37.958C75.9247 37.754 75.9607 37.598 76.0327 37.49C76.1527 37.334 76.3747 37.208 76.6987 37.112L79.6687 36.194C79.9807 36.11 80.1607 36.068 80.2087 36.068C80.5687 36.068 80.8567 36.422 81.0727 37.13C81.1687 37.418 81.2167 37.664 81.2167 37.868C81.2167 38.06 81.1807 38.21 81.1087 38.318C80.9887 38.474 80.7667 38.6 80.4427 38.696L77.4907 39.632ZM86.2186 40.514C87.4186 40.514 88.4146 40.976 89.2066 41.9C90.0106 42.812 90.4126 43.928 90.4126 45.248V48.416C90.4126 48.692 90.4006 48.902 90.3766 49.046C90.3646 49.178 90.3166 49.328 90.2326 49.496C90.0646 49.82 89.5966 49.982 88.8286 49.982C87.9766 49.982 87.4846 49.76 87.3526 49.316C87.2806 49.112 87.2446 48.806 87.2446 48.398V45.23C87.2446 44.738 87.1006 44.354 86.8126 44.078C86.5366 43.802 86.1586 43.664 85.6786 43.664C85.2106 43.664 84.8266 43.808 84.5266 44.096C84.2386 44.384 84.0946 44.762 84.0946 45.23V48.416C84.0946 48.692 84.0826 48.902 84.0586 49.046C84.0466 49.178 83.9926 49.328 83.8966 49.496C83.7406 49.82 83.2786 49.982 82.5106 49.982C81.7546 49.982 81.2926 49.82 81.1246 49.496C81.0406 49.316 80.9866 49.16 80.9626 49.028C80.9506 48.884 80.9446 48.674 80.9446 48.398V42.026C80.9446 41.762 80.9506 41.564 80.9626 41.432C80.9866 41.288 81.0466 41.132 81.1426 40.964C81.3106 40.664 81.7726 40.514 82.5286 40.514C83.2606 40.514 83.7106 40.652 83.8786 40.928C83.9986 41.132 84.0586 41.378 84.0586 41.666C84.1066 41.582 84.2146 41.462 84.3826 41.306C84.5506 41.15 84.7126 41.024 84.8686 40.928C85.2766 40.652 85.7266 40.514 86.2186 40.514ZM98.0166 41.522C98.0886 40.85 98.5626 40.514 99.4386 40.514C99.9066 40.514 100.255 40.55 100.483 40.622C100.711 40.694 100.867 40.82 100.951 41C101.047 41.18 101.101 41.342 101.113 41.486C101.137 41.618 101.149 41.822 101.149 42.098V48.398C101.149 48.674 101.137 48.884 101.113 49.028C101.101 49.16 101.053 49.316 100.969 49.496C100.801 49.808 100.387 49.964 99.7266 49.964C99.0786 49.964 98.6406 49.886 98.4126 49.73C98.1966 49.562 98.0706 49.322 98.0346 49.01C97.5906 49.646 96.8466 49.964 95.8026 49.964C94.7706 49.964 93.8106 49.49 92.9226 48.542C92.0346 47.594 91.5906 46.496 91.5906 45.248C91.5906 43.988 92.0346 42.89 92.9226 41.954C93.8226 41.006 94.8066 40.532 95.8746 40.532C96.2826 40.532 96.6546 40.604 96.9906 40.748C97.3266 40.892 97.5606 41.03 97.6926 41.162C97.8246 41.282 97.9326 41.402 98.0166 41.522ZM94.7406 45.266C94.7406 45.662 94.8966 46.022 95.2086 46.346C95.5206 46.658 95.8986 46.814 96.3426 46.814C96.7866 46.814 97.1526 46.652 97.4406 46.328C97.7406 46.004 97.8906 45.65 97.8906 45.266C97.8906 44.87 97.7466 44.504 97.4586 44.168C97.1826 43.832 96.8046 43.664 96.3246 43.664C95.8566 43.664 95.4726 43.832 95.1726 44.168C94.8846 44.504 94.7406 44.87 94.7406 45.266ZM102.655 49.154C102.427 49.01 102.313 48.782 102.313 48.47C102.313 48.158 102.541 47.684 102.997 47.048C103.129 46.844 103.339 46.742 103.627 46.742C103.927 46.742 104.329 46.892 104.833 47.192C105.337 47.48 105.793 47.624 106.201 47.624C106.933 47.624 107.299 47.48 107.299 47.192C107.299 46.964 106.897 46.796 106.093 46.688C105.337 46.58 104.587 46.298 103.843 45.842C103.495 45.626 103.207 45.29 102.979 44.834C102.751 44.366 102.637 43.814 102.637 43.178C102.637 41.282 103.939 40.334 106.543 40.334C107.395 40.334 108.271 40.538 109.171 40.946C109.591 41.138 109.801 41.378 109.801 41.666C109.801 41.954 109.669 42.308 109.405 42.728C109.141 43.148 108.871 43.358 108.595 43.358C108.451 43.358 108.181 43.268 107.785 43.088C107.401 42.908 106.981 42.818 106.525 42.818C105.817 42.818 105.463 42.95 105.463 43.214C105.463 43.574 105.871 43.808 106.687 43.916C107.479 44 108.247 44.228 108.991 44.6C109.339 44.768 109.627 45.062 109.855 45.482C110.095 45.89 110.215 46.406 110.215 47.03C110.215 47.654 110.095 48.188 109.855 48.632C109.627 49.064 109.303 49.388 108.883 49.604C108.115 49.976 107.149 50.162 105.985 50.162C104.833 50.162 103.723 49.826 102.655 49.154Z" fill="#C5D751"/>
</svg>
