<svg width="21" height="22" viewBox="0 0 21 22" fill="none" xmlns="http://www.w3.org/2000/svg">
<path fill-rule="evenodd" clip-rule="evenodd" d="M14.7776 4.14815C14.7776 4.79893 14.6278 5.41472 14.3607 5.96287H16.7654C17.5432 5.90526 19.116 6.30855 19.1852 8.38262L21 19.8765C21 20.4238 20.637 21.6048 19.1852 21.9505H2.41975C1.69959 21.9505 0.207407 21.5357 0 19.8765L1.90123 8.38262C1.95885 7.60485 2.55802 6.03201 4.49383 5.96287H6.89829C6.63119 5.41472 6.48132 4.79893 6.48132 4.14815C6.48132 1.85719 8.33851 0 10.6295 0C12.9204 0 14.7776 1.85719 14.7776 4.14815ZM10.5429 5.87657C11.6884 5.87657 12.617 4.94798 12.617 3.8025C12.617 2.65702 11.6884 1.72842 10.5429 1.72842C9.39747 1.72842 8.46887 2.65702 8.46887 3.8025C8.46887 4.94798 9.39747 5.87657 10.5429 5.87657Z" fill="#C5D751"/>
</svg>
