<svg width="191" height="66" viewBox="0 0 191 66" fill="none" xmlns="http://www.w3.org/2000/svg">
<g clip-path="url(#clip0_210_13)">
<path d="M64.4121 52.1758C63.7721 53.2705 62.7316 54.0684 61.5144 54.3979L61.4827 54.4067C59.0516 55.0658 56.9165 54.1298 56.3039 53.8356L43.3835 47.1079C40.0338 45.3641 38.6799 41.4115 40.3591 38.2765C42.0378 35.1425 46.1146 34.016 49.4638 35.7598C49.5125 35.8025 52.4779 37.9082 62.6823 45.1314C65.0292 46.7941 65.7743 49.826 64.4121 52.1758Z" fill="#459696"/>
<path d="M74.3423 32.8129C75.358 32.0507 76.6277 31.7162 77.8833 31.8799L77.9155 31.8843C80.41 32.2148 82.0025 33.9021 82.4491 34.4094L91.6662 45.6014C94.0555 48.5027 93.7385 52.6728 90.9581 54.9141C88.1778 57.1563 83.987 56.622 81.5978 53.7208C81.57 53.6623 79.677 50.5779 73.152 39.9747C71.6506 37.5385 72.1629 34.4546 74.3423 32.8129Z" fill="#459696"/>
<path d="M67.3132 63.3428L62.1305 63.912C60.6237 64.078 59.2751 63.4155 59.0107 62.3803L57.9646 58.2843C57.6349 56.9933 59.1095 55.7224 60.9923 55.6753L66.8243 55.5279C68.3116 55.4906 69.516 56.2464 69.6285 57.2879L70.0249 60.9607C70.1481 62.099 68.934 63.1651 67.3132 63.3428Z" fill="#459696"/>
<path d="M73.0488 62.9588L77.7158 62.4461C79.0726 62.2988 80.1226 61.3712 80.1446 60.3045L80.2322 56.0843C80.26 54.7535 78.7069 53.815 77.0437 54.1573L71.8926 55.2175C70.5777 55.4881 69.6743 56.4757 69.7868 57.5172L70.1837 61.19C70.3064 62.3273 71.5907 63.1189 73.0488 62.9588Z" fill="#459696"/>
<path d="M32.7798 15.2277C33.8155 15.2277 34.5927 15.2619 35.1116 15.3303C35.6304 15.3987 36.2155 15.6145 36.8668 15.9775C37.5194 16.3419 37.9812 16.9553 38.2523 17.8176C38.5234 18.6799 38.6586 19.8385 38.658 21.2934C38.658 22.7479 38.5228 23.9064 38.2523 24.7687C37.9819 25.631 37.5088 26.2331 36.8332 26.5748C36.1572 26.9157 35.5601 27.1201 35.0419 27.1882C34.5238 27.2563 33.7241 27.2905 32.6429 27.2908H15.3759C14.9277 27.2908 14.4839 27.3797 14.0698 27.5527C13.6556 27.7256 13.2794 27.9791 12.9624 28.2987C12.6455 28.6182 12.3941 28.9976 12.2226 29.4152C12.0511 29.8328 11.9629 30.2803 11.9629 30.7323C11.9629 31.645 12.3225 32.5203 12.9626 33.1657C13.6026 33.8111 14.4707 34.1737 15.3759 34.1737H25.2759C26.3571 34.1737 27.1567 34.2077 27.6749 34.2758C28.1931 34.3439 28.7902 34.5598 29.4661 34.9236C30.6382 35.6055 31.2246 37.4 31.2252 40.3072C31.2252 43.4883 30.3692 45.3739 28.6572 45.9638C27.9355 46.193 26.7864 46.3066 25.2101 46.3046H15.3759C14.4708 46.3046 13.6028 46.6671 12.9628 47.3124C12.3227 47.9577 11.9631 48.8329 11.9629 49.7456V59.1844C11.9629 60.2753 11.9292 61.0703 11.8616 61.5696C11.7941 62.0688 11.58 62.6596 11.2193 63.3419C10.5881 64.5686 8.83098 65.1819 5.94787 65.1819C2.79301 65.1819 0.945614 64.3186 0.40568 62.592C0.135227 61.8662 0 60.7078 0 59.1167V21.2251C0 18.9082 0.428083 17.3294 1.28425 16.4887C2.14041 15.648 3.76249 15.2277 6.15047 15.2277H32.7798Z" fill="#7C6BAF"/>
<path d="M153.827 15.1599L166.331 15.2277C172.864 15.2277 178.608 17.6012 183.565 22.3482C188.522 27.0952 191 32.9334 191 39.8628C191 46.7918 188.578 52.7323 183.734 57.6842C178.89 62.6362 173.022 65.1135 166.128 65.1161H153.758C151.009 65.1161 149.296 64.5483 148.621 63.4126C148.08 62.4586 147.81 61.0047 147.81 59.0509V21.1569C147.81 20.0667 147.844 19.2717 147.911 18.7717C147.979 18.2718 148.193 17.6812 148.554 17C149.185 15.7733 150.943 15.1599 153.827 15.1599ZM175.117 49.4053C177.73 46.9754 179.037 43.9202 179.037 40.2394C179.037 36.5587 177.765 33.4813 175.218 31.0073C172.672 28.5313 169.687 27.2933 166.263 27.2933H163.188C162.283 27.2933 161.414 27.6559 160.774 28.3013C160.134 28.9467 159.775 29.822 159.775 30.7347V49.6125C159.775 50.5252 160.135 51.4004 160.775 52.0458C161.415 52.6912 162.283 53.0538 163.188 53.0539H166.331C169.575 53.0523 172.503 51.8361 175.117 49.4053Z" fill="#7C6BAF"/>
<path d="M118.685 14.6147C125.353 14.6147 131.143 17.0454 136.054 21.9067C140.966 26.7679 143.422 32.7993 143.421 40.0007C143.421 47.2031 141.078 53.3366 136.392 58.4011C131.706 63.4657 125.938 65.9987 119.088 66C112.237 66 106.413 63.5011 101.616 58.5033C96.8193 53.5055 94.42 47.5537 94.4184 40.6479C94.4184 36.8775 95.0943 33.345 96.4463 30.0506C97.7982 26.7562 99.6002 23.9962 101.852 21.7706C104.098 19.5495 106.734 17.7698 109.626 16.5226C112.554 15.2513 115.573 14.6154 118.685 14.6147ZM106.381 40.3071C106.381 44.3516 107.677 47.6342 110.268 50.1551C112.859 52.6759 115.754 53.9363 118.953 53.9363C122.151 53.9363 125.035 52.7096 127.604 50.2562C130.173 47.8028 131.457 44.5089 131.457 40.3744C131.457 36.2406 130.161 32.9239 127.57 30.4243C124.979 27.9247 122.084 26.6753 118.885 26.676C115.685 26.676 112.802 27.9364 110.234 30.4572C107.667 32.978 106.382 36.2613 106.381 40.3071Z" fill="#7C6BAF"/>
<path d="M85.7627 42.6963C85.6955 42.462 85.5294 41.8801 85.1754 41.8374C85.1524 41.8352 85.1292 41.8352 85.1062 41.8374C85.0867 41.8385 85.0675 41.832 85.0526 41.8192C85.0377 41.8063 85.0283 41.7882 85.0263 41.7686C84.8882 40.4976 84.6292 39.2428 84.253 38.0217C84.2489 38.0075 84.2489 37.9924 84.253 37.9782C84.2572 37.964 84.2652 37.9512 84.2762 37.9415C84.2872 37.9317 84.3008 37.9253 84.3153 37.9229C84.3298 37.9206 84.3447 37.9225 84.3582 37.9284C84.6207 38.0355 84.8398 38.0635 84.8729 38.0154C84.9523 37.9 84.066 37.1761 83.896 36.9434C83.8918 36.9375 83.8885 36.931 83.8862 36.9242L83.8697 36.8795V36.8766C83.9184 36.8206 84.4054 37.2473 84.5559 37.127C84.6762 37.0313 84.5427 36.6148 84.3061 36.3413C84.2827 36.3138 83.8945 35.8718 83.6082 35.9833C83.5888 35.9918 83.567 35.9923 83.5473 35.9846C83.5276 35.977 83.5117 35.9619 83.503 35.9425C83.1265 35.0318 82.6871 34.1488 82.188 33.3001C79.5348 28.8313 73.5226 22.8481 65.8498 23.2926C65.8368 23.2936 65.8238 23.2912 65.8119 23.2857C65.8001 23.2802 65.7899 23.2717 65.7823 23.261C65.7746 23.2504 65.7698 23.2379 65.7684 23.2249C65.7669 23.2118 65.7688 23.1986 65.7738 23.1865C66.0061 22.6463 66.1746 22.0992 65.9769 21.9667C65.7602 21.8193 65.149 22.1989 64.9123 22.6301C64.8658 22.7163 64.8295 22.8078 64.8042 22.9026C64.7722 23.038 64.7677 23.1785 64.791 23.3156C64.7923 23.326 64.7916 23.3364 64.7889 23.3465C64.7861 23.3565 64.7815 23.3659 64.7751 23.3741C64.7688 23.3823 64.7609 23.3892 64.7519 23.3943C64.743 23.3994 64.7331 23.4027 64.7228 23.404L64.5879 23.4222C64.5763 23.424 64.5643 23.4232 64.553 23.4197C64.5417 23.4162 64.5313 23.4102 64.5227 23.4021C64.3186 23.2056 64.0634 22.9341 63.9168 22.9959C63.8151 23.0387 63.7746 23.238 63.7975 23.4939C63.7989 23.5127 63.7935 23.5314 63.7822 23.5464C63.7709 23.5614 63.7545 23.5717 63.7362 23.5754C54.2448 25.5805 50.9959 36.5299 50.6594 37.734C50.6063 37.9235 50.524 38.2172 50.432 38.5997C50.2238 39.4787 50.0725 40.3704 49.9791 41.2692C49.9777 41.2806 49.9739 41.2915 49.9679 41.3013C49.9619 41.311 49.9538 41.3193 49.9444 41.3256C49.9349 41.3319 49.9241 41.3361 49.9129 41.3378C49.9016 41.3395 49.8901 41.3387 49.8792 41.3355C49.7781 41.3066 49.6731 41.2937 49.568 41.2972C48.9407 41.3198 48.4674 41.9425 48.5575 42.1143C48.6154 42.2238 48.8901 42.1197 49.1906 42.077C49.208 42.0743 49.2258 42.0776 49.241 42.0866C49.2562 42.0955 49.2679 42.1095 49.2741 42.1261C49.2803 42.1427 49.2806 42.161 49.2749 42.1778C49.2693 42.1946 49.2581 42.209 49.2432 42.2184C48.9963 42.3736 48.8151 42.5784 48.8385 42.7193C48.8774 42.9565 49.4998 43.0277 49.8047 43.1539C49.8193 43.1594 49.8318 43.1692 49.8405 43.1822C49.8493 43.1951 49.8538 43.2105 49.8534 43.2261C49.8534 43.2752 49.8534 43.3243 49.851 43.3774C49.8507 43.3919 49.8464 43.4061 49.8384 43.4183C49.8305 43.4304 49.8193 43.4401 49.8062 43.4461C49.6776 43.506 49.5042 43.5812 49.3995 43.7579C49.175 44.1371 49.3907 44.7784 49.6279 44.8128C49.6748 44.8173 49.7216 44.8046 49.7599 44.7769C49.7712 44.7693 49.7842 44.7648 49.7978 44.7639C49.8113 44.763 49.8248 44.7657 49.837 44.7717C49.8492 44.7777 49.8596 44.7869 49.8672 44.7982C49.8748 44.8095 49.8792 44.8227 49.8802 44.8363C50.0093 47.1935 50.562 49.8944 52.0167 52.4406C52.0224 52.4506 52.0257 52.4619 52.0265 52.4734C52.0273 52.485 52.0254 52.4965 52.0211 52.5073C52.0168 52.518 52.0101 52.5276 52.0016 52.5354C51.9931 52.5431 51.9829 52.5488 51.9719 52.5521C51.4479 52.7112 51.0154 52.9091 51.0281 52.9626C51.0432 53.0274 51.7347 52.9218 52.2398 52.8943C52.2536 52.8934 52.2673 52.8963 52.2796 52.9027C52.2919 52.9091 52.3022 52.9188 52.3094 52.9307C52.3532 53.0009 52.3976 53.0706 52.4428 53.1409C52.4536 53.1571 52.4577 53.177 52.4542 53.1963C52.4506 53.2156 52.4397 53.2327 52.4239 53.244C52.2524 53.3672 52.0644 53.5386 51.9855 53.8008C51.9597 53.8863 51.914 54.0375 51.9855 54.1682C52.138 54.4515 52.7672 54.5222 53.1792 54.2816C53.1954 54.2724 53.2144 54.2693 53.2327 54.2729C53.251 54.2765 53.2674 54.2865 53.279 54.3013C53.3107 54.3415 53.3424 54.3818 53.3764 54.4216L53.394 54.4432C53.4033 54.4547 53.4091 54.4688 53.4106 54.4837C53.412 54.4985 53.4091 54.5135 53.4023 54.5267C53.1909 54.947 53.2021 55.444 53.3019 55.4936C53.3915 55.5383 53.5576 55.221 53.8084 55.0359C53.8241 55.0243 53.8435 55.019 53.8629 55.0208C53.8822 55.0226 53.9003 55.0314 53.9136 55.0457C54.678 55.8865 55.5376 56.634 56.4748 57.2727C56.4857 57.28 56.4945 57.29 56.5004 57.3018C56.5062 57.3135 56.509 57.3266 56.5083 57.3398C56.5076 57.3529 56.5035 57.3656 56.4964 57.3767C56.4894 57.3878 56.4796 57.3968 56.468 57.4029C56.312 57.485 56.1877 57.6174 56.1149 57.779C56.0229 57.9926 56.0068 58.3192 56.1461 58.3933C56.3774 58.5186 56.8328 57.8463 57.0714 57.9602C57.348 58.0933 56.974 59.1295 57.1333 59.1879C57.256 59.2341 57.7664 58.7386 57.7839 58.1969C57.7846 58.1837 57.7886 58.1709 57.7956 58.1596C57.8025 58.1484 57.8122 58.1391 57.8237 58.1326C57.8351 58.1261 57.8481 58.1227 57.8612 58.1226C57.8743 58.1225 57.8873 58.1258 57.8988 58.1321C63.5866 61.1684 70.041 60.1214 70.4063 60.0561C71.4032 59.8779 76.826 58.8191 80.8663 54.4859C80.8751 54.4762 80.8862 54.4689 80.8985 54.4647C80.9108 54.4604 80.924 54.4593 80.9368 54.4615C80.9496 54.4637 80.9617 54.4691 80.9719 54.4772C80.9822 54.4854 80.9902 54.4959 80.9953 54.508C81.0173 54.5643 81.0438 54.6187 81.0747 54.6705C81.1152 54.7393 81.2876 55.0285 81.4887 55.0084C81.6762 54.9897 81.8452 54.7054 81.8325 54.4771C81.8286 54.4113 81.813 54.4058 81.7249 54.0552C81.6762 53.8671 81.6762 53.8475 81.6884 53.8249C81.7858 53.6388 82.4101 53.8824 82.4944 53.7267C82.5324 53.657 82.434 53.5548 82.06 53.1482C82.0476 53.1352 82.0403 53.1181 82.0394 53.1C82.0385 53.082 82.0441 53.0642 82.0551 53.05C82.5412 52.3891 82.9758 51.6911 83.3549 50.9625L83.3617 50.9492C83.4367 51.2591 83.5156 51.4737 83.5565 51.4697C83.6184 51.4638 83.6121 50.8804 83.6418 50.4007C83.6423 50.3911 83.6448 50.3817 83.6491 50.3732C83.7065 50.2509 83.7621 50.1276 83.8156 50.0058C83.8216 49.9921 83.8313 49.9804 83.8437 49.9721C83.856 49.9637 83.8704 49.959 83.8853 49.9586C83.9001 49.9582 83.9148 49.9621 83.9275 49.9697C83.9403 49.9774 83.9506 49.9886 83.9574 50.0019C84.0582 50.2082 84.2101 50.4979 84.5262 50.6364C84.608 50.6727 84.7536 50.7346 84.8944 50.6855C85.2192 50.5647 85.3741 49.8816 85.1276 49.4465C84.9689 49.1666 84.6776 49.0478 84.3236 48.9368C84.3139 48.9337 84.305 48.9287 84.2972 48.922C84.2895 48.9153 84.2832 48.9072 84.2787 48.898C84.2741 48.8889 84.2715 48.8789 84.2708 48.8687C84.2702 48.8585 84.2715 48.8482 84.2749 48.8386C84.7615 47.4284 85.0446 45.955 85.1155 44.4636C85.1164 44.4491 85.1213 44.4351 85.1296 44.4232C85.1379 44.4113 85.1493 44.4019 85.1625 44.3961C85.1758 44.3903 85.1903 44.3884 85.2046 44.3904C85.2189 44.3924 85.2324 44.3984 85.2435 44.4076C85.3838 44.526 85.4958 44.5874 85.5358 44.5658C85.6054 44.5275 85.4466 44.2269 85.3093 43.2575C85.2372 42.7493 85.2606 42.6977 85.2786 42.6938C85.3643 42.6717 85.6283 43.7496 85.7749 43.725C85.8601 43.7108 85.9 43.1829 85.7627 42.6963Z" fill="#4EADAF"/>
<path d="M66.3027 14.6147C72.9702 14.6147 78.7601 17.0454 83.6724 21.9067C88.5848 26.7679 91.0404 32.7993 91.0395 40.0007C91.0395 47.2031 88.6965 53.3366 84.0104 58.4011C79.3244 63.4657 73.5569 65.9987 66.7079 66C59.8573 66 54.0336 63.5011 49.2368 58.5033C44.4401 53.5055 42.0408 47.5537 42.0388 40.6479C42.0388 36.8775 42.7146 33.345 44.0662 30.0506C45.4179 26.7562 47.2198 23.9962 49.4721 21.7706C51.7174 19.5499 54.3532 17.7702 57.2448 16.5226C60.174 15.2513 63.1933 14.6154 66.3027 14.6147ZM49.6513 40.7137C49.6513 46.2648 51.4294 50.7702 54.9855 54.23C58.5407 57.691 61.0079 59.4216 66.9061 59.4216C71.2967 59.4216 75.2546 57.7379 78.7799 54.3704C82.3052 51.003 84.0677 46.4822 84.0674 40.808C84.0674 35.1342 82.2895 30.5819 78.7337 27.1513C75.1778 23.7207 71.2043 22.0055 66.8131 22.0059C62.4212 22.0059 58.4633 23.7364 54.9393 27.1975C51.4152 30.6585 49.6526 35.164 49.6513 40.7137Z" fill="#7C6BAF"/>
<path d="M53.9717 47.4894C56.8809 47.1697 59.0639 45.2888 58.8477 43.2883C58.6314 41.2877 56.0978 39.9251 53.1887 40.2449C50.2795 40.5646 48.0965 42.4455 48.3127 44.446C48.5289 46.4466 51.0626 47.8092 53.9717 47.4894Z" fill="#E37A39"/>
<path d="M81.4713 44.6843C84.3804 44.3646 86.5635 42.4836 86.3472 40.4831C86.131 38.4826 83.5974 37.12 80.6882 37.4397C77.7791 37.7594 75.596 39.6403 75.8123 41.6409C76.0285 43.6414 78.5621 45.004 81.4713 44.6843Z" fill="#E37A39"/>
<path d="M72.1293 27.44C71.0051 27.1336 69.9479 26.6172 69.0124 25.9177C68.7777 25.7429 68.5512 25.5573 68.333 25.3609C68.1158 25.1644 67.9079 24.9557 67.7072 24.7406C67.6098 24.6301 67.5124 24.5221 67.4189 24.4067C67.3727 24.3492 67.3254 24.2928 67.2801 24.2348L67.1467 24.059C67.1014 24.0011 67.059 23.9407 67.0167 23.8803L66.89 23.6996L66.7693 23.5139L66.7089 23.4216L66.6519 23.3263L66.5399 23.1358C66.5033 23.072 66.4693 23.0062 66.4342 22.9394C66.3616 22.8112 66.3007 22.6767 66.2369 22.5436C66.1045 22.2799 65.9988 22.0034 65.8921 21.7289L65.7543 21.3085C65.7295 21.2393 65.7134 21.1671 65.6939 21.0959L65.637 20.8823C65.5956 20.7409 65.5697 20.5955 65.5396 20.4516C65.5254 20.3789 65.5094 20.3072 65.4972 20.2346L65.4646 20.016L65.4319 19.798L65.4095 19.5785L65.3871 19.359C65.3808 19.2858 65.3793 19.2117 65.3754 19.139L65.3652 18.919V18.699C65.3652 18.6258 65.3652 18.5517 65.3652 18.479L65.3735 18.2595C65.3972 17.6754 65.4811 17.0955 65.6238 16.5289C65.4709 17.6744 65.502 18.8373 65.7158 19.9728C65.8238 20.5347 65.9799 21.0861 66.1824 21.6209C66.292 21.8836 66.3933 22.1507 66.5233 22.4066C66.5861 22.5342 66.6456 22.6639 66.7181 22.7871C66.7527 22.8495 66.7858 22.9124 66.8214 22.9738L66.9309 23.1569C67.5225 24.1356 68.2797 25.0021 69.1683 25.7169C70.0644 26.4372 71.0625 27.0181 72.1293 27.44Z" fill="#29ABE2"/>
<path d="M67.8446 25.905C67.6037 25.5062 67.4412 25.0644 67.3658 24.6037C67.2901 24.1395 67.2877 23.6661 67.3585 23.2012C67.3932 22.9686 67.4443 22.7389 67.5115 22.5137C67.578 22.2886 67.6575 22.0675 67.7496 21.8517C67.9369 21.4212 68.1652 21.01 68.4314 20.624L68.4801 20.5514L68.5318 20.4806L68.636 20.3407C68.7056 20.2469 68.7738 20.1526 68.8498 20.0642L69.0719 19.7951L69.3061 19.5373C69.624 19.1996 69.9619 18.8818 70.3181 18.5856C71.0289 17.9973 71.8027 17.491 72.6251 17.076C71.8596 17.5752 71.132 18.131 70.4481 18.7388C70.1108 19.0435 69.789 19.3653 69.4839 19.7028C69.1783 20.0391 68.8963 20.3965 68.6399 20.7723L68.4524 21.0552C68.392 21.151 68.3345 21.2482 68.2775 21.3459C68.1675 21.5423 68.0628 21.7437 67.9707 21.9499C67.7826 22.3605 67.643 22.7921 67.5548 23.2356C67.4684 23.6805 67.4464 24.1357 67.4896 24.587C67.5335 25.0434 67.6535 25.489 67.8446 25.905Z" fill="#29ABE2"/>
<path d="M76.2119 17.6295L75.5228 17.2685L75.9942 16.5751C76.0347 16.5147 76.0574 16.4439 76.0598 16.371C76.0622 16.2981 76.0441 16.2259 76.0076 16.1629C75.9711 16.0999 75.9177 16.0486 75.8536 16.0148C75.7894 15.9811 75.7172 15.9663 75.645 15.9721L74.6379 16.0374L74.5405 15.207C74.504 14.8878 74.1124 14.7498 73.8782 14.9742L73.4296 15.4029L72.9338 14.7778C72.888 14.7208 72.8276 14.6777 72.7591 14.6531C72.6906 14.6285 72.6167 14.6234 72.5455 14.6384C72.4743 14.6534 72.4086 14.6878 72.3555 14.738C72.3025 14.7881 72.2641 14.852 72.2447 14.9227L71.9652 15.9908L71.0252 15.8051C70.7067 15.7423 70.4515 16.0683 70.5938 16.3571L70.8533 16.8845L70.2475 17.1055C70.1791 17.1292 70.1187 17.1719 70.0734 17.2289C70.0282 17.2858 69.9999 17.3545 69.9919 17.427C69.9839 17.4995 69.9965 17.5728 70.0282 17.6384C70.0599 17.704 70.1094 17.7591 70.171 17.7974L71.0428 18.3435L70.4998 19.2927C70.4641 19.3563 70.4469 19.4288 70.4503 19.5017C70.4536 19.5747 70.4774 19.6453 70.5188 19.7053C70.5601 19.7652 70.6175 19.8122 70.6841 19.8408C70.7508 19.8694 70.8242 19.8784 70.8957 19.8668L71.6262 19.7637L71.6467 20.3407C71.6579 20.6623 72.0363 20.8317 72.2885 20.624L72.966 20.0691L73.6916 20.8504C73.7415 20.9038 73.8049 20.9423 73.875 20.9616C73.9452 20.981 74.0192 20.9805 74.0891 20.9602C74.1589 20.9399 74.2219 20.9006 74.271 20.8466C74.3202 20.7925 74.3536 20.7259 74.3676 20.654L74.5166 19.8245L75.1984 20.0141C75.5111 20.1015 75.7907 19.7956 75.6718 19.497L75.3558 18.7049L76.1905 18.3263C76.2571 18.2973 76.3141 18.2498 76.3549 18.1893C76.3957 18.1288 76.4186 18.0579 76.4208 17.9847C76.4231 17.9116 76.4046 17.8394 76.3676 17.7765C76.3306 17.7135 76.2766 17.6625 76.2119 17.6295Z" fill="#F4BE38"/>
<path opacity="0.47" d="M69.1522 16.3272L68.2449 15.8523L68.8634 14.9394C68.917 14.8599 68.9471 14.7667 68.9503 14.6706C68.9536 14.5745 68.9298 14.4794 68.8817 14.3964C68.8336 14.3134 68.7632 14.2458 68.6786 14.2015C68.594 14.1571 68.4987 14.1378 68.4037 14.1458L67.0785 14.2313L66.9534 13.1386C66.9047 12.7183 66.3899 12.5371 66.0811 12.8322L65.4933 13.3964L64.8402 12.5739C64.78 12.4988 64.7004 12.442 64.6102 12.4095C64.52 12.3771 64.4227 12.3704 64.3289 12.3901C64.2352 12.4098 64.1486 12.4551 64.0787 12.5211C64.0089 12.5872 63.9584 12.6714 63.9329 12.7644L63.5652 14.1704L62.3282 13.9248C61.9084 13.8418 61.5728 14.2715 61.7599 14.6511L62.1008 15.3455L61.303 15.6362C61.2129 15.6674 61.1335 15.7238 61.0739 15.7988C61.0143 15.8738 60.9771 15.9643 60.9665 16.0598C60.9559 16.1552 60.9725 16.2518 61.0142 16.3382C61.0559 16.4245 61.1211 16.4972 61.2022 16.5476L62.3501 17.2661L61.6352 18.5159C61.4243 18.8851 61.7326 19.3315 62.1563 19.2716L63.1157 19.1351L63.143 19.8953C63.1581 20.3186 63.6573 20.5386 63.9879 20.268L64.8797 19.5378L65.8347 20.5656C66.124 20.8769 66.6499 20.7237 66.7249 20.3063L66.9197 19.2147L67.8149 19.4641C68.2264 19.579 68.5941 19.1764 68.4378 18.783L68.0219 17.7409L69.1206 17.242C69.2079 17.2041 69.2828 17.1419 69.3364 17.0627C69.3901 16.9835 69.4204 16.8906 69.4237 16.7947C69.427 16.6988 69.4032 16.604 69.3552 16.5212C69.3071 16.4385 69.2367 16.3712 69.1522 16.3272Z" fill="#F4BE38"/>
<path opacity="0.47" d="M77.3184 17.6564L76.4121 17.1816L77.033 16.2687C77.0864 16.1891 77.1164 16.0959 77.1195 15.9998C77.1226 15.9038 77.0988 15.8088 77.0507 15.7258C77.0025 15.6428 76.9322 15.5753 76.8476 15.5309C76.7631 15.4866 76.6678 15.4672 76.5728 15.4751L75.2476 15.5606L75.1225 14.4679C75.0738 14.0476 74.559 13.8659 74.2502 14.161L73.6605 14.7252L73.0079 13.9027C72.9475 13.8278 72.8678 13.7712 72.7776 13.7389C72.6875 13.7066 72.5902 13.6999 72.4965 13.7195C72.4028 13.7392 72.3163 13.7845 72.2464 13.8504C72.1764 13.9163 72.1258 14.0003 72.1001 14.0932L71.7324 15.4997L70.4954 15.2541C70.0756 15.1711 69.74 15.6003 69.927 15.9804L70.2679 16.6748L69.4702 16.9655C69.3801 16.9967 69.3006 17.0531 69.2411 17.1281C69.1815 17.2031 69.1442 17.2936 69.1337 17.389C69.1231 17.4845 69.1397 17.5811 69.1814 17.6675C69.2231 17.7538 69.2883 17.8265 69.3694 17.8769L70.5192 18.5959L69.8048 19.8456C69.5934 20.2154 69.9022 20.6618 70.3254 20.6014L71.2848 20.4654L71.3121 21.2256C71.3272 21.6489 71.8269 21.8689 72.1571 21.5983L73.0463 20.8705L74.0019 21.8983C74.2907 22.2097 74.8166 22.0564 74.8916 21.639L75.0864 20.5469L75.9816 20.7969C76.3931 20.9113 76.7608 20.5091 76.6044 20.1157L76.189 19.0732L77.2887 18.5723C77.3761 18.5341 77.4509 18.4717 77.5044 18.3923C77.558 18.3129 77.5881 18.2198 77.5912 18.1239C77.5943 18.0279 77.5703 17.933 77.522 17.8503C77.4737 17.7675 77.4031 17.7003 77.3184 17.6564Z" fill="#F4BE38"/>
<path d="M68.1119 16.3989L67.4228 16.0384L67.8942 15.345C67.9349 15.2846 67.9578 15.2138 67.9603 15.1408C67.9628 15.0678 67.9447 14.9956 67.9082 14.9325C67.8717 14.8694 67.8182 14.8181 67.7539 14.7844C67.6897 14.7506 67.6173 14.736 67.5451 14.742L66.5379 14.8068L66.4405 13.9769C66.404 13.6572 66.0124 13.5197 65.7782 13.7436L65.3296 14.1723L64.8339 13.5477C64.7881 13.4907 64.7276 13.4476 64.6591 13.423C64.5906 13.3984 64.5167 13.3933 64.4455 13.4083C64.3743 13.4233 64.3086 13.4577 64.2555 13.5079C64.2025 13.558 64.1642 13.6219 64.1447 13.6926L63.8652 14.7606L62.9253 14.575C62.6068 14.5122 62.3516 14.8382 62.4938 15.127L62.7534 15.6539L62.1475 15.8749C62.0791 15.8987 62.0188 15.9415 61.9735 15.9985C61.9283 16.0554 61.9001 16.1242 61.8921 16.1967C61.884 16.2692 61.8966 16.3425 61.9283 16.4082C61.96 16.4738 62.0095 16.5289 62.0711 16.5673L62.9428 17.1129L62.3998 18.0626C62.3641 18.1262 62.347 18.1987 62.3503 18.2716C62.3537 18.3446 62.3774 18.4152 62.4188 18.4752C62.4602 18.5351 62.5175 18.5821 62.5842 18.6107C62.6509 18.6393 62.7242 18.6483 62.7957 18.6367L63.5262 18.5331L63.5467 19.1106C63.5579 19.4322 63.9363 19.5992 64.1886 19.3939L64.866 18.839L65.5917 19.6198C65.6415 19.6732 65.705 19.7117 65.7751 19.731C65.8452 19.7504 65.9192 19.7499 65.9891 19.7296C66.059 19.7093 66.1219 19.67 66.1711 19.616C66.2202 19.5619 66.2536 19.4953 66.2676 19.4234L66.4167 18.594L67.0985 18.7835C67.4111 18.8704 67.6907 18.565 67.5718 18.2659L67.2563 17.4738L68.091 17.0947C68.1573 17.0656 68.2141 17.018 68.2546 16.9576C68.2952 16.8972 68.3178 16.8264 68.32 16.7535C68.3222 16.6806 68.3038 16.6085 68.267 16.5457C68.2302 16.483 68.1764 16.432 68.1119 16.3989Z" fill="#F4BE38"/>
<path d="M62.6472 22.5225C62.7792 21.8949 62.6126 20.896 60.9913 19.3865C60.9303 19.3289 60.8835 19.2577 60.8546 19.1786C60.8257 19.0995 60.8156 19.0146 60.8251 18.9309C60.8345 18.8471 60.8633 18.7667 60.9091 18.6962C60.9549 18.6257 61.0164 18.5669 61.0887 18.5247C61.1637 18.4792 61.2483 18.4523 61.3355 18.4463C61.4227 18.4402 61.5102 18.4551 61.5906 18.4898C61.671 18.5245 61.7421 18.5779 61.798 18.6457C61.8539 18.7135 61.8931 18.7937 61.9123 18.8797C62.3564 20.9717 63.235 21.9165 63.9831 22.3923C67.9337 24.9051 75.7634 19.1134 81.5194 20.7934C82.0439 20.9461 83.5161 21.3753 83.6189 22.1979C83.7314 23.0818 82.1997 23.9392 81.9455 24.0816C78.2866 26.1269 73.3863 23.7438 73.1525 24.3272C72.9222 24.9037 77.8765 26.7526 77.6126 28.1084C77.448 28.957 75.2549 29.5472 73.2908 29.3066C69.3947 28.8293 67.3137 25.1944 66.2779 25.8284C65.7003 26.1819 66.3592 27.3016 65.8293 29.3685C65.7387 29.723 64.9152 32.9376 63.0996 33.1311C61.7258 33.2784 60.1245 31.6579 59.9423 30.0535C59.6905 27.8398 62.2055 26.1844 61.7691 25.6575C61.4462 25.2676 59.7129 25.7463 58.4642 26.9234C56.5829 28.6972 57.3266 30.6183 55.8081 31.4555C54.3261 32.2727 52.1633 31.2439 51.1094 30.4709C50.3346 29.9023 49.4024 29.2182 49.4584 28.4674C49.6537 25.8185 61.8928 26.1112 62.6472 22.5225Z" fill="#C4D650"/>
<path d="M57.6025 41.0628C61.0469 40.6843 63.5552 37.7498 63.2049 34.5085C62.8545 31.2672 59.7782 28.9464 56.3338 29.325C52.8893 29.7035 50.381 32.638 50.7314 35.8793C51.0817 39.1206 54.158 41.4413 57.6025 41.0628Z" fill="#E2E2E2"/>
<path d="M59.2254 39.798C61.5768 39.5396 63.2891 37.5362 63.0499 35.3232C62.8107 33.1102 60.7106 31.5257 58.3592 31.7841C56.0078 32.0425 54.2955 34.0459 54.5347 36.2589C54.7739 38.4719 56.874 40.0564 59.2254 39.798Z" fill="black"/>
<path d="M57.6362 33.3674C57.7606 32.7843 57.0109 32.1272 55.9617 31.8996C54.9125 31.6721 53.9612 31.9602 53.8368 32.5433C53.7124 33.1263 54.4621 33.7835 55.5113 34.0111C56.5605 34.2386 57.5118 33.9505 57.6362 33.3674Z" fill="white"/>
<path d="M77.0637 39.4124C80.5082 39.0339 83.022 36.1504 82.6784 32.9719C82.3349 29.7934 79.2641 27.5236 75.8196 27.9021C72.3751 28.2807 69.8614 31.1642 70.2049 34.3427C70.5485 37.5212 73.6193 39.791 77.0637 39.4124Z" fill="#E2E2E2"/>
<path d="M74.9177 38.082C77.2691 37.8236 78.9852 35.8551 78.7506 33.6852C78.5161 31.5154 76.4198 29.9658 74.0684 30.2242C71.717 30.4827 70.001 32.4512 70.2355 34.621C70.47 36.7909 72.5663 38.3404 74.9177 38.082Z" fill="black"/>
<path d="M77.6471 32.5743C78.603 32.0855 79.1651 31.2661 78.9026 30.7441C78.6401 30.2221 77.6523 30.1952 76.6964 30.684C75.7404 31.1728 75.1783 31.9923 75.4408 32.5142C75.7034 33.0362 76.6911 33.0631 77.6471 32.5743Z" fill="white"/>
<path d="M51.0709 10.2796C52.082 10.5939 52.8592 11.1773 53.4027 12.0298C54.0079 13.0227 54.1985 14.0592 53.9745 15.1392C53.7505 16.2193 53.1766 17.0588 52.2529 17.6579L48.4192 20.1438C47.7373 20.5847 47.2201 20.6569 46.8675 20.3603C46.7029 20.2317 46.5114 19.9958 46.2929 19.6527L41.0906 11.495C40.9779 11.3252 40.8756 11.1485 40.7843 10.9661C40.7223 10.8162 40.6867 10.6565 40.6791 10.4942C40.6466 10.1416 40.9413 9.76364 41.563 9.36031L45.236 6.97861C46.1302 6.3985 47.0786 6.22678 48.0812 6.46348C49.1201 6.69068 49.9234 7.25018 50.4909 8.14196C50.9 8.77635 51.1027 9.52357 51.0709 10.2796ZM50.73 13.556C50.58 13.3206 50.4339 13.1517 50.2917 13.0492C50.2271 12.9999 50.1534 12.964 50.0749 12.9435C49.9964 12.923 49.9147 12.9184 49.8344 12.9299C49.5899 12.978 49.2928 13.1154 48.9432 13.3419C48.5935 13.5685 48.2873 13.67 48.0247 13.6464C47.7623 13.6228 47.4953 13.3979 47.2235 12.9717C46.9518 12.5454 46.862 12.2053 46.9542 11.9512C47.0461 11.6978 47.3011 11.4359 47.7193 11.1655C48.1089 10.9137 48.2765 10.6595 48.2219 10.4029C48.1826 10.2762 48.0852 10.0904 47.9297 9.84549C47.7742 9.60061 47.5847 9.48111 47.3614 9.48701C47.1383 9.4929 46.8666 9.59979 46.5461 9.80768L44.505 11.1336L48.0578 16.7043L50.4485 15.154C51.0605 14.7549 51.154 14.2222 50.729 13.556H50.73Z" fill="#E37A39"/>
<path d="M52.2032 5.07133C52.1274 4.88491 52.0624 4.69422 52.0084 4.50021C51.9755 4.33857 51.971 4.17234 51.9953 4.00914C52.0323 3.65655 52.3953 3.34554 53.0842 3.07611C53.8378 2.7795 54.3623 2.80454 54.6578 3.15124C54.7831 3.31493 54.9191 3.58649 55.0659 3.96593L58.5694 13.0134C58.6459 13.2024 58.711 13.3959 58.7642 13.5929C58.7949 13.7522 58.7984 13.9156 58.7745 14.0761C58.7371 14.4287 58.374 14.7397 57.685 15.0091C56.9318 15.3057 56.4107 15.273 56.1217 14.9109C55.9902 14.7626 55.8509 14.4986 55.7039 14.1188L52.2032 5.07133Z" fill="#E37A39"/>
<path d="M63.7634 0.0701719C65.456 -0.176346 67.0144 0.22666 68.4387 1.27919C69.8631 2.33172 70.7053 3.7722 70.9653 5.60062C71.227 7.42839 70.855 9.07151 69.8491 10.53C68.8433 11.9885 67.4715 12.8442 65.7339 13.0973C63.9956 13.3501 62.4269 12.9308 61.0279 11.8397C59.6289 10.7485 58.8039 9.32654 58.5529 7.57374C58.4139 6.65278 58.4579 5.71314 58.6824 4.8095C58.9058 3.92361 59.2629 3.15656 59.7539 2.50834C60.2428 1.86098 60.8473 1.31138 61.5363 0.887806C62.215 0.463687 62.9732 0.185339 63.7634 0.0701719ZM61.5719 7.04339C61.719 8.06972 62.167 8.85544 62.916 9.40053C63.665 9.94562 64.4456 10.1584 65.2576 10.0389C66.0693 9.92041 66.7566 9.50251 67.3196 8.78522C67.8826 8.06792 68.0887 7.184 67.9381 6.13343C67.7881 5.08417 67.3389 4.29028 66.5905 3.75173C65.8421 3.21319 65.0621 3.00285 64.2504 3.12071C63.4388 3.23889 62.7527 3.66547 62.1923 4.40044C61.6319 5.13541 61.4259 6.01688 61.5743 7.04486L61.5719 7.04339Z" fill="#E37A39"/>
</g>
<defs>
<clipPath id="clip0_210_13">
<rect width="191" height="66" fill="white"/>
</clipPath>
</defs>
</svg>
