<svg width="333" height="111" viewBox="0 0 333 111" fill="none" xmlns="http://www.w3.org/2000/svg">
<path d="M112.3 87.1131C111.184 88.932 109.37 90.2577 107.248 90.8052L107.192 90.8198C102.954 91.9148 99.2314 90.3597 98.1633 89.8709L75.6371 78.6926C69.7971 75.7953 67.4367 69.2278 70.3643 64.0189C73.2911 58.8116 80.3988 56.9399 86.2379 59.8373C86.3228 59.9083 91.4929 63.407 109.284 75.4085C113.375 78.1713 114.675 83.2088 112.3 87.1131Z" fill="#459696"/>
<path d="M129.613 54.9411C131.384 53.6747 133.597 53.1188 135.787 53.3908L135.843 53.3981C140.192 53.9473 142.968 56.7508 143.747 57.5937L159.816 76.1896C163.982 81.0101 163.429 87.939 158.582 91.6629C153.734 95.3884 146.428 94.5007 142.262 89.6802C142.214 89.5831 138.914 84.4582 127.538 66.8406C124.92 62.7928 125.813 57.6687 129.613 54.9411Z" fill="#459696"/>
<path d="M117.358 105.668L108.322 106.613C105.695 106.889 103.344 105.788 102.883 104.068L101.059 97.2627C100.484 95.1176 103.055 93.006 106.338 92.9276L116.505 92.6829C119.099 92.6209 121.198 93.8766 121.394 95.6072L122.086 101.71C122.3 103.601 120.184 105.372 117.358 105.668Z" fill="#459696"/>
<path d="M127.358 105.029L135.494 104.178C137.86 103.933 139.691 102.391 139.729 100.619L139.882 93.6071C139.93 91.3959 137.222 89.8367 134.323 90.4054L125.342 92.167C123.049 92.6166 121.474 94.2574 121.671 95.988L122.363 102.09C122.577 103.98 124.816 105.295 127.358 105.029Z" fill="#459696"/>
<path d="M57.1501 25.7224C58.9558 25.7224 60.311 25.7793 61.2155 25.8929C62.1201 26.0066 63.1401 26.3651 64.2756 26.9683C65.4134 27.5738 66.2186 28.5929 66.6913 30.0256C67.1639 31.4584 67.3997 33.3835 67.3985 35.8008C67.3985 38.2176 67.1628 40.1424 66.6913 41.5752C66.2197 43.0079 65.395 44.0083 64.217 44.5762C63.0385 45.1424 61.9975 45.4821 61.0941 45.5953C60.1907 45.7084 58.7965 45.7652 56.9115 45.7658H26.8073C26.0258 45.7657 25.252 45.9135 24.53 46.2008C23.808 46.4881 23.152 46.9093 22.5995 47.4403C22.0469 47.9713 21.6086 48.6017 21.3096 49.2955C21.0106 49.9893 20.8568 50.7329 20.8569 51.4838C20.8569 53.0004 21.4838 54.4548 22.5997 55.5271C23.7156 56.5995 25.2291 57.2019 26.8073 57.2019H44.0674C45.9524 57.2019 47.3466 57.2585 48.25 57.3716C49.1534 57.4847 50.1944 57.8435 51.3729 58.4478C53.4164 59.5809 54.4387 62.5626 54.4398 67.3929C54.4398 72.6785 52.9474 75.8114 49.9626 76.7916C48.7043 77.1724 46.701 77.3611 43.9528 77.3579H26.8073C25.2293 77.3579 23.7159 77.9602 22.6 79.0323C21.4841 80.1045 20.8571 81.5587 20.8569 83.0751V98.7581C20.8569 100.571 20.798 101.892 20.6803 102.721C20.5625 103.551 20.1892 104.532 19.5603 105.666C18.4599 107.704 15.3964 108.723 10.3699 108.723C4.86949 108.723 1.64864 107.289 0.707286 104.42C0.235762 103.214 0 101.289 0 98.6455V35.6874C0 31.8378 0.746344 29.2146 2.23903 27.8177C3.73172 26.4208 6.55974 25.7224 10.7231 25.7224H57.1501Z" fill="#C4D650"/>
<path d="M268.191 25.6099L289.991 25.7225C301.38 25.7225 311.396 29.6661 320.038 37.5535C328.68 45.4408 333.001 55.1412 333 66.6545C333 78.1673 328.778 88.0376 320.333 96.2655C311.888 104.493 301.656 108.609 289.637 108.614H268.07C263.277 108.614 260.292 107.67 259.114 105.783C258.171 104.198 257.7 101.783 257.7 98.5362V35.574C257.7 33.7627 257.759 32.4417 257.877 31.611C257.994 30.7804 258.368 29.7991 258.997 28.6672C260.098 26.629 263.163 25.6099 268.191 25.6099ZM305.309 82.5097C309.865 78.4725 312.143 73.396 312.143 67.2803C312.144 61.1646 309.925 56.0515 305.486 51.9408C301.047 47.8269 295.842 45.7699 289.873 45.7699H284.511C282.933 45.7699 281.419 46.3723 280.303 47.4447C279.187 48.517 278.56 49.9714 278.56 51.488V82.854C278.561 84.3705 279.188 85.8248 280.303 86.8971C281.419 87.9693 282.933 88.5719 284.511 88.5721H289.991C295.646 88.5694 300.752 86.5486 305.309 82.5097Z" fill="#C4D650"/>
<path d="M206.921 24.7041C218.547 24.7041 228.641 28.7427 237.205 36.8199C245.768 44.8971 250.049 54.9183 250.049 66.8837C250.049 78.8507 245.964 89.0417 237.794 97.4567C229.624 105.872 219.568 110.08 207.624 110.082C195.681 110.082 185.527 105.93 177.163 97.6264C168.8 89.3224 164.617 79.4333 164.614 67.9591C164.614 61.6944 165.793 55.8251 168.15 50.3513C170.507 44.8775 173.648 40.2917 177.574 36.5939C181.49 32.9034 186.086 29.9463 191.128 27.874C196.232 25.7618 201.497 24.7052 206.921 24.7041ZM185.471 67.3929C185.471 74.1129 187.729 79.5671 192.247 83.7556C196.764 87.944 201.811 90.0382 207.388 90.0382C212.965 90.0382 217.993 88 222.471 83.9236C226.95 79.8472 229.189 74.3742 229.188 67.5046C229.188 60.6361 226.93 55.1253 222.413 50.9722C217.896 46.8191 212.848 44.7431 207.27 44.7442C201.692 44.7442 196.664 46.8384 192.188 51.0269C187.712 55.2153 185.473 60.6707 185.471 67.3929Z" fill="#C4D650"/>
<path d="M149.524 71.3624C149.407 70.9732 149.117 70.0063 148.5 69.9353C148.46 69.9316 148.419 69.9316 148.379 69.9353C148.345 69.9372 148.312 69.9263 148.286 69.905C148.26 69.8838 148.243 69.8537 148.24 69.8211C147.999 67.7092 147.548 65.6244 146.892 63.5955C146.885 63.5719 146.885 63.5468 146.892 63.5232C146.899 63.4995 146.913 63.4784 146.932 63.4621C146.951 63.4459 146.975 63.4352 147 63.4314C147.026 63.4275 147.052 63.4307 147.075 63.4405C147.533 63.6184 147.915 63.6649 147.973 63.5849C148.111 63.3932 146.566 62.1905 146.269 61.8037C146.262 61.794 146.256 61.7833 146.252 61.7719L146.223 61.6977V61.6928C146.308 61.5998 147.157 62.3088 147.42 62.1089C147.63 61.9498 147.397 61.2579 146.984 60.8034C146.943 60.7577 146.267 60.0234 145.768 60.2086C145.734 60.2227 145.696 60.2235 145.661 60.2108C145.627 60.1981 145.599 60.173 145.584 60.1409C144.928 58.6276 144.162 57.1605 143.292 55.7503C138.666 48.3254 128.184 38.384 114.807 39.1225C114.784 39.1242 114.761 39.1202 114.741 39.1111C114.72 39.1019 114.702 39.0878 114.689 39.0701C114.675 39.0524 114.667 39.0317 114.665 39.01C114.662 38.9883 114.665 38.9663 114.674 38.9462C115.079 38.0487 115.373 37.1397 115.028 36.9194C114.65 36.6747 113.585 37.3054 113.172 38.0218C113.091 38.1651 113.028 38.3171 112.984 38.4746C112.928 38.6995 112.92 38.9329 112.961 39.1608C112.963 39.178 112.962 39.1954 112.957 39.212C112.952 39.2287 112.944 39.2443 112.933 39.2579C112.922 39.2716 112.908 39.283 112.892 39.2915C112.877 39.3001 112.86 39.3056 112.842 39.3077L112.607 39.3379C112.586 39.3409 112.565 39.3395 112.546 39.3337C112.526 39.328 112.508 39.3179 112.493 39.3044C112.137 38.978 111.692 38.5268 111.437 38.6296C111.259 38.7006 111.189 39.0319 111.228 39.457C111.231 39.4882 111.221 39.5193 111.202 39.5442C111.182 39.5692 111.153 39.5863 111.122 39.5924C94.5737 42.9239 88.9095 61.1167 88.3228 63.1174C88.2302 63.4323 88.0867 63.9203 87.9263 64.5559C87.5633 66.0163 87.2996 67.4979 87.1366 68.9913C87.1342 69.0102 87.1276 69.0284 87.1171 69.0446C87.1067 69.0608 87.0927 69.0746 87.0761 69.0851C87.0595 69.0955 87.0408 69.1024 87.0212 69.1053C87.0016 69.1081 86.9816 69.1068 86.9625 69.1014C86.7862 69.0534 86.6032 69.032 86.42 69.0378C85.3264 69.0753 84.5011 70.1099 84.6581 70.3955C84.7592 70.5774 85.2381 70.4045 85.7619 70.3335C85.7923 70.3289 85.8233 70.3345 85.8498 70.3494C85.8764 70.3642 85.8967 70.3874 85.9075 70.4151C85.9183 70.4427 85.9188 70.473 85.909 70.501C85.8992 70.5289 85.8796 70.5528 85.8536 70.5685C85.4232 70.8263 85.1073 71.1666 85.1481 71.4007C85.216 71.7948 86.3011 71.9131 86.8326 72.1228C86.858 72.1318 86.8799 72.1482 86.8951 72.1697C86.9103 72.1912 86.9182 72.2168 86.9175 72.2428C86.9175 72.3244 86.9175 72.406 86.9133 72.4941C86.9128 72.5183 86.9052 72.5418 86.8914 72.562C86.8776 72.5823 86.8581 72.5983 86.8352 72.6083C86.611 72.7078 86.3088 72.8327 86.1262 73.1264C85.7348 73.7563 86.1109 74.8219 86.5244 74.879C86.6061 74.8866 86.6878 74.8654 86.7545 74.8195C86.7742 74.8069 86.7969 74.7994 86.8205 74.7979C86.8441 74.7964 86.8677 74.8008 86.889 74.8108C86.9102 74.8208 86.9283 74.836 86.9415 74.8548C86.9548 74.8737 86.9626 74.8955 86.9642 74.9182C87.1892 78.8347 88.153 83.3223 90.6892 87.5529C90.6991 87.5696 90.7049 87.5883 90.7062 87.6075C90.7076 87.6267 90.7043 87.6459 90.6968 87.6637C90.6893 87.6815 90.6777 87.6975 90.6628 87.7104C90.648 87.7233 90.6303 87.7328 90.6111 87.7381C89.6974 88.0025 88.9435 88.3313 88.9655 88.4203C88.9919 88.528 90.1976 88.3525 91.0781 88.3068C91.1021 88.3053 91.1261 88.3102 91.1475 88.3208C91.1689 88.3315 91.1869 88.3475 91.1995 88.3672C91.2759 88.4839 91.3532 88.5998 91.4321 88.7164C91.4509 88.7435 91.458 88.7766 91.4518 88.8086C91.4456 88.8406 91.4267 88.869 91.399 88.8878C91.1001 89.0926 90.7724 89.3773 90.6348 89.813C90.5898 89.955 90.51 90.2063 90.6348 90.4234C90.9006 90.8942 91.9976 91.0117 92.7159 90.6118C92.7442 90.5965 92.7773 90.5914 92.8092 90.5974C92.8411 90.6033 92.8698 90.6201 92.89 90.6445C92.9452 90.7114 93.0004 90.7783 93.0598 90.8444L93.0904 90.8803C93.1067 90.8995 93.1167 90.9229 93.1193 90.9476C93.1218 90.9722 93.1168 90.9971 93.1048 91.019C92.7363 91.7174 92.7558 92.5432 92.9299 92.6256C93.0861 92.6998 93.3757 92.1727 93.813 91.8651C93.8403 91.8459 93.8741 91.837 93.9079 91.84C93.9416 91.843 93.9731 91.8577 93.9964 91.8814C95.329 93.2785 96.8277 94.5204 98.4617 95.5817C98.4807 95.5938 98.496 95.6104 98.5063 95.6299C98.5165 95.6495 98.5212 95.6712 98.52 95.6931C98.5188 95.7149 98.5117 95.7361 98.4994 95.7544C98.4871 95.7728 98.47 95.7878 98.4498 95.7979C98.1778 95.9344 97.9611 96.1544 97.8342 96.4229C97.6737 96.7778 97.6457 97.3204 97.8885 97.4436C98.2919 97.6517 99.0858 96.5347 99.5018 96.724C99.9841 96.9451 99.332 98.6667 99.6096 98.7638C99.8236 98.8405 100.713 98.0172 100.744 97.1173C100.745 97.0953 100.752 97.074 100.764 97.0553C100.777 97.0366 100.793 97.0212 100.813 97.0104C100.833 96.9997 100.856 96.994 100.879 96.9938C100.902 96.9937 100.924 96.9991 100.944 97.0096C110.861 102.054 122.114 100.315 122.751 100.206C124.489 99.9102 133.943 98.1511 140.987 90.9513C141.002 90.9352 141.022 90.9231 141.043 90.916C141.065 90.9089 141.088 90.9071 141.11 90.9108C141.132 90.9144 141.154 90.9234 141.171 90.9369C141.189 90.9504 141.203 90.9679 141.212 90.988C141.25 91.0816 141.297 91.1719 141.351 91.2581C141.421 91.3723 141.722 91.8529 142.072 91.8194C142.399 91.7884 142.694 91.316 142.672 90.9366C142.665 90.8273 142.638 90.8183 142.484 90.2357C142.399 89.9232 142.399 89.8906 142.42 89.853C142.59 89.5438 143.679 89.9485 143.826 89.6898C143.892 89.574 143.72 89.4043 143.068 88.7287C143.047 88.707 143.034 88.6786 143.032 88.6486C143.031 88.6186 143.041 88.5891 143.06 88.5655C143.907 87.4674 144.665 86.3077 145.326 85.097L145.338 85.0749C145.469 85.5898 145.606 85.9463 145.677 85.9398C145.785 85.93 145.774 84.9607 145.826 84.1635C145.827 84.1476 145.831 84.1321 145.839 84.1178C145.939 83.9147 146.036 83.7099 146.129 83.5075C146.14 83.4847 146.157 83.4653 146.178 83.4514C146.2 83.4375 146.225 83.4298 146.251 83.4291C146.277 83.4284 146.302 83.4348 146.324 83.4475C146.347 83.4603 146.365 83.4788 146.376 83.501C146.552 83.8437 146.817 84.3251 147.368 84.5552C147.511 84.6156 147.765 84.7184 148.01 84.6368C148.576 84.4361 148.846 83.3011 148.417 82.5782C148.14 82.1131 147.632 81.9156 147.015 81.7312C146.998 81.7261 146.982 81.7177 146.969 81.7067C146.955 81.6956 146.944 81.6821 146.937 81.6669C146.929 81.6517 146.924 81.6351 146.923 81.6181C146.922 81.6011 146.924 81.5841 146.93 81.5681C147.778 79.225 148.272 76.7769 148.395 74.2989C148.397 74.2748 148.406 74.2515 148.42 74.2318C148.435 74.212 148.454 74.1964 148.477 74.1868C148.501 74.1772 148.526 74.1739 148.551 74.1772C148.576 74.1806 148.599 74.1905 148.619 74.2059C148.863 74.4025 149.059 74.5045 149.128 74.4686C149.25 74.405 148.973 73.9056 148.733 72.295C148.608 71.4505 148.648 71.3648 148.68 71.3583C148.829 71.3216 149.29 73.1126 149.545 73.0718C149.694 73.0481 149.763 72.171 149.524 71.3624Z" fill="#4EADAF"/>
<path d="M115.596 24.7041C127.22 24.7041 137.315 28.7427 145.879 36.8199C154.444 44.8971 158.725 54.9183 158.723 66.8837C158.723 78.8507 154.638 89.0417 146.468 97.4567C138.299 105.872 128.243 110.08 116.302 110.082C104.358 110.082 94.2051 105.93 85.8422 97.6264C77.4793 89.3224 73.2961 79.4333 73.2927 67.9591C73.2927 61.6944 74.471 55.8251 76.8275 50.3513C79.1839 44.8775 82.3256 40.2917 86.2523 36.5939C90.1669 32.904 94.7624 29.947 99.8037 27.874C104.911 25.7618 110.175 24.7052 115.596 24.7041ZM86.5647 68.0684C86.5647 77.2917 89.6647 84.7776 95.8648 90.5262C102.063 96.2768 106.365 99.1522 116.648 99.1522C124.303 99.1522 131.203 96.3546 137.349 90.7595C143.495 85.1644 146.568 77.6529 146.568 68.2251C146.568 58.7978 143.468 51.2341 137.269 45.534C131.069 39.8339 124.141 36.9842 116.486 36.9847C108.829 36.9847 101.928 39.86 95.7841 45.6107C89.6401 51.3614 86.567 58.8473 86.5647 68.0684Z" fill="#C4D650"/>
<path d="M94.0973 79.3263C99.1693 78.7951 102.975 75.6699 102.598 72.3459C102.221 69.0219 97.8041 66.7579 92.7321 67.2891C87.6601 67.8204 83.8541 70.9456 84.2311 74.2696C84.6081 77.5935 89.0253 79.8575 94.0973 79.3263Z" fill="#E37A39"/>
<path d="M142.042 74.6649C147.114 74.1337 150.92 71.0085 150.543 67.6845C150.166 64.3606 145.749 62.0966 140.677 62.6278C135.605 63.159 131.799 66.2842 132.176 69.6082C132.553 72.9321 136.97 75.1961 142.042 74.6649Z" fill="#E37A39"/>
<path d="M125.754 46.014C123.794 45.5047 121.951 44.6468 120.32 43.4846C119.911 43.1941 119.516 42.8857 119.136 42.5593C118.757 42.2329 118.394 41.8862 118.045 41.5288C117.875 41.3452 117.705 41.1657 117.542 40.974C117.461 40.8785 117.379 40.7847 117.3 40.6884L117.067 40.3963C116.988 40.3 116.914 40.1996 116.841 40.0993L116.62 39.799L116.409 39.4906L116.304 39.3372L116.205 39.1789L116.009 38.8623C115.946 38.7562 115.886 38.6469 115.825 38.5359C115.699 38.323 115.592 38.0994 115.481 37.8783C115.25 37.4401 115.066 36.9808 114.88 36.5247L114.64 35.8262C114.596 35.7112 114.568 35.5912 114.534 35.4729L114.435 35.118C114.363 34.883 114.318 34.6415 114.265 34.4024C114.241 34.2817 114.213 34.1625 114.191 34.0418L114.135 33.6787L114.078 33.3164L114.039 32.9517L114 32.587C113.988 32.4654 113.986 32.3422 113.979 32.2214L113.961 31.8559V31.4904C113.961 31.3688 113.961 31.2456 113.961 31.1248L113.976 30.7601C114.017 29.7897 114.163 28.8261 114.412 27.8848C114.146 29.7881 114.2 31.7202 114.573 33.6069C114.761 34.5405 115.033 35.4567 115.386 36.3452C115.577 36.7817 115.754 37.2256 115.98 37.6507C116.09 37.8628 116.194 38.0782 116.32 38.283C116.38 38.3866 116.438 38.4911 116.5 38.5931L116.691 38.8974C117.722 40.5235 119.043 41.9632 120.592 43.1509C122.154 44.3477 123.894 45.3128 125.754 46.014Z" fill="#29ABE2"/>
<path d="M118.284 43.4626C117.864 42.8 117.581 42.0659 117.45 41.3004C117.318 40.5291 117.313 39.7426 117.437 38.9701C117.497 38.5837 117.586 38.2019 117.703 37.8278C117.82 37.4537 117.958 37.0865 118.119 36.7279C118.445 36.0125 118.843 35.3294 119.307 34.6881L119.392 34.5673L119.482 34.4498L119.664 34.2173C119.785 34.0614 119.904 33.9048 120.037 33.7579L120.424 33.3108L120.832 32.8824C121.387 32.3214 121.976 31.7933 122.597 31.3011C123.836 30.3237 125.185 29.4824 126.619 28.793C125.284 29.6224 124.016 30.5458 122.823 31.5557C122.235 32.062 121.674 32.5966 121.142 33.1574C120.609 33.7162 120.118 34.31 119.671 34.9345L119.344 35.4045C119.239 35.5636 119.138 35.7251 119.039 35.8875C118.847 36.2139 118.665 36.5484 118.504 36.8911C118.176 37.5733 117.933 38.2903 117.779 39.0272C117.628 39.7665 117.59 40.5228 117.665 41.2726C117.742 42.0309 117.951 42.7713 118.284 43.4626Z" fill="#29ABE2"/>
<path d="M132.872 29.7134L131.671 29.1137L132.493 27.9616C132.563 27.8612 132.603 27.7436 132.607 27.6224C132.611 27.5013 132.58 27.3814 132.516 27.2768C132.452 27.1721 132.359 27.0868 132.247 27.0307C132.136 26.9746 132.01 26.95 131.884 26.9597L130.128 27.0682L129.958 25.6884C129.894 25.1581 129.212 24.9288 128.803 25.3017L128.021 26.014L127.157 24.9753C127.077 24.8807 126.972 24.809 126.852 24.7682C126.733 24.7273 126.604 24.7188 126.48 24.7437C126.356 24.7686 126.241 24.8258 126.149 24.9091C126.056 24.9924 125.989 25.0986 125.956 25.216L125.468 26.9907L123.829 26.6822C123.274 26.5778 122.829 27.1196 123.077 27.5993L123.53 28.4757L122.473 28.8428C122.354 28.8822 122.249 28.9533 122.17 29.0478C122.091 29.1424 122.042 29.2566 122.028 29.3771C122.014 29.4975 122.036 29.6194 122.091 29.7283C122.146 29.8373 122.233 29.9289 122.34 29.9925L123.86 30.8998L122.913 32.477C122.851 32.5826 122.821 32.703 122.827 32.8243C122.833 32.9456 122.874 33.0628 122.946 33.1624C123.019 33.2621 123.118 33.3402 123.235 33.3876C123.351 33.4351 123.479 33.4501 123.604 33.4308L124.877 33.2595L124.913 34.2182C124.932 34.7526 125.592 35.0341 126.032 34.689L127.213 33.767L128.478 35.0651C128.565 35.1538 128.676 35.2178 128.798 35.25C128.92 35.2822 129.049 35.2814 129.171 35.2476C129.293 35.2139 129.403 35.1486 129.488 35.0588C129.574 34.969 129.632 34.8583 129.657 34.7388L129.917 33.3606L131.105 33.6756C131.65 33.8208 132.138 33.3125 131.931 32.8164L131.379 31.5003L132.835 30.8712C132.951 30.8231 133.05 30.7441 133.121 30.6436C133.193 30.5431 133.232 30.4252 133.236 30.3037C133.24 30.1823 133.208 30.0622 133.144 29.9577C133.079 29.8531 132.985 29.7684 132.872 29.7134Z" fill="#F4BE38"/>
<path opacity="0.47" d="M120.564 27.5492L118.982 26.7602L120.06 25.2434C120.154 25.1112 120.206 24.9564 120.212 24.7967C120.218 24.6371 120.176 24.4792 120.092 24.3412C120.008 24.2033 119.886 24.091 119.738 24.0173C119.591 23.9436 119.425 23.9116 119.259 23.9248L116.949 24.0668L116.73 22.2514C116.645 21.5529 115.748 21.2518 115.21 21.7422L114.185 22.6797L113.046 21.313C112.941 21.1883 112.802 21.0939 112.645 21.04C112.488 20.9861 112.318 20.9749 112.155 21.0076C111.991 21.0403 111.84 21.1157 111.719 21.2254C111.597 21.3351 111.509 21.475 111.464 21.6296L110.823 23.9656L108.667 23.5577C107.935 23.4198 107.35 24.1337 107.676 24.7644L108.27 25.9182L106.879 26.4012C106.722 26.4531 106.584 26.5467 106.48 26.6713C106.376 26.7959 106.311 26.9463 106.293 27.1049C106.274 27.2636 106.303 27.424 106.376 27.5675C106.448 27.711 106.562 27.8317 106.704 27.9156L108.705 29.1093L107.458 31.1858C107.091 31.7994 107.628 32.5411 108.367 32.4415L110.04 32.2147L110.087 33.4778C110.113 34.1811 110.984 34.5466 111.56 34.0971L113.115 32.8838L114.78 34.5915C115.284 35.1088 116.201 34.8542 116.332 34.1607L116.672 32.3469L118.232 32.7614C118.95 32.9523 119.591 32.2832 119.318 31.6297L118.593 29.8983L120.509 29.0693C120.661 29.0062 120.792 28.9029 120.885 28.7713C120.979 28.6397 121.031 28.4853 121.037 28.326C121.043 28.1668 121.002 28.0092 120.918 27.8717C120.834 27.7341 120.711 27.6223 120.564 27.5492Z" fill="#F4BE38"/>
<path opacity="0.47" d="M134.802 29.7581L133.221 28.9691L134.304 27.4523C134.397 27.3201 134.449 27.1652 134.455 27.0056C134.46 26.846 134.419 26.6882 134.335 26.5503C134.251 26.4125 134.128 26.3002 133.981 26.2265C133.833 26.1528 133.667 26.1207 133.502 26.1338L131.191 26.2757L130.973 24.4603C130.888 23.7619 129.991 23.46 129.452 23.9503L128.424 24.8878L127.286 23.5212C127.181 23.3968 127.042 23.3026 126.885 23.2489C126.728 23.1953 126.558 23.1842 126.395 23.2168C126.231 23.2495 126.081 23.3247 125.959 23.4342C125.837 23.5437 125.749 23.6833 125.704 23.8377L125.063 26.1746L122.906 25.7666C122.174 25.6287 121.589 26.3418 121.915 26.9734L122.509 28.1271L121.119 28.6101C120.962 28.662 120.823 28.7557 120.719 28.8802C120.615 29.0048 120.55 29.1552 120.532 29.3138C120.513 29.4725 120.542 29.6329 120.615 29.7764C120.688 29.9199 120.802 30.0407 120.943 30.1245L122.948 31.319L121.702 33.3956C121.333 34.01 121.872 34.7517 122.61 34.6513L124.282 34.4253L124.33 35.6883C124.356 36.3917 125.227 36.7572 125.803 36.3076L127.353 35.0984L129.019 36.8062C129.523 37.3235 130.44 37.0689 130.571 36.3754L130.91 34.5607L132.471 34.976C133.188 35.1661 133.829 34.4979 133.557 33.8443L132.833 32.1121L134.75 31.2799C134.902 31.2164 135.033 31.1127 135.126 30.9808C135.219 30.8489 135.272 30.6942 135.277 30.5348C135.283 30.3753 135.241 30.2177 135.157 30.0802C135.072 29.9427 134.949 29.831 134.802 29.7581Z" fill="#F4BE38"/>
<path d="M118.75 27.6684L117.549 27.0695L118.371 25.9174C118.441 25.817 118.481 25.6994 118.486 25.5781C118.49 25.4568 118.458 25.3368 118.395 25.232C118.331 25.1272 118.238 25.0419 118.126 24.9859C118.014 24.9298 117.888 24.9054 117.762 24.9155L116.006 25.0232L115.836 23.6442C115.772 23.1131 115.09 22.8846 114.681 23.2567L113.899 23.969L113.035 22.9311C112.955 22.8365 112.85 22.7648 112.73 22.724C112.611 22.6831 112.482 22.6746 112.358 22.6995C112.234 22.7244 112.119 22.7816 112.027 22.8649C111.934 22.9482 111.867 23.0544 111.833 23.1718L111.346 24.9465L109.707 24.638C109.152 24.5336 108.707 25.0754 108.955 25.5552L109.408 26.4307L108.351 26.7978C108.232 26.8373 108.127 26.9085 108.048 27.0032C107.969 27.0978 107.92 27.212 107.906 27.3325C107.892 27.453 107.914 27.5749 107.969 27.6839C108.024 27.7929 108.111 27.8846 108.218 27.9483L109.738 28.8548L108.791 30.4328C108.729 30.5385 108.699 30.6588 108.705 30.7801C108.711 30.9014 108.752 31.0186 108.824 31.1182C108.896 31.2179 108.996 31.296 109.113 31.3435C109.229 31.3909 109.357 31.4059 109.481 31.3866L110.755 31.2145L110.791 32.174C110.81 32.7084 111.47 32.9858 111.91 32.6448L113.091 31.7228L114.356 33.0201C114.443 33.1088 114.554 33.1728 114.676 33.205C114.798 33.2372 114.927 33.2363 115.049 33.2026C115.171 33.1689 115.281 33.1035 115.366 33.0138C115.452 32.924 115.51 32.8133 115.535 32.6937L115.794 31.3156L116.983 31.6306C117.528 31.775 118.016 31.2675 117.808 30.7706L117.258 29.4545L118.714 28.8246C118.829 28.7762 118.928 28.6971 118.999 28.5968C119.069 28.4964 119.109 28.3788 119.113 28.2576C119.117 28.1365 119.085 28.0168 119.02 27.9125C118.956 27.8081 118.862 27.7235 118.75 27.6684Z" fill="#F4BE38"/>
<path d="M109.223 37.8428C109.453 36.8 109.162 35.1404 106.336 32.6323C106.229 32.5366 106.148 32.4183 106.097 32.2868C106.047 32.1554 106.029 32.0144 106.046 31.8752C106.063 31.7361 106.113 31.6025 106.193 31.4853C106.272 31.3681 106.38 31.2705 106.506 31.2003C106.636 31.1248 106.784 31.0801 106.936 31.0701C107.088 31.06 107.24 31.0848 107.381 31.1424C107.521 31.2 107.645 31.2887 107.742 31.4014C107.84 31.514 107.908 31.6473 107.942 31.7902C108.716 35.2661 110.248 36.8359 111.552 37.6266C118.44 41.8017 132.09 32.1786 142.126 34.9699C143.04 35.2237 145.607 35.9368 145.786 37.3035C145.982 38.7722 143.312 40.1968 142.869 40.4334C136.489 43.8317 127.946 39.872 127.538 40.8414C127.137 41.7993 135.774 44.8712 135.314 47.124C135.027 48.534 131.204 49.5147 127.779 49.1149C120.987 48.3218 117.359 42.2823 115.553 43.3357C114.546 43.9231 115.694 45.7835 114.771 49.2177C114.613 49.8068 113.177 55.1479 110.012 55.4694C107.616 55.7142 104.825 53.0216 104.507 50.3559C104.068 46.6777 108.453 43.9272 107.692 43.0517C107.129 42.4039 104.107 43.1994 101.93 45.1552C98.65 48.1023 99.9465 51.2943 97.2991 52.6854C94.7153 54.0431 90.9446 52.3338 89.1071 51.0495C87.7562 50.1046 86.1311 48.968 86.2287 47.7205C86.5692 43.3193 107.908 43.8056 109.223 37.8428Z" fill="#C4D650"/>
<path d="M100.428 68.6486C106.433 68.0197 110.806 63.144 110.195 57.7584C109.584 52.3729 104.221 48.5169 98.2156 49.1459C92.2103 49.7748 87.8373 54.6505 88.4481 60.0361C89.0589 65.4216 94.4223 69.2776 100.428 68.6486Z" fill="#E2E2E2"/>
<path d="M103.257 66.5471C107.357 66.1177 110.342 62.7889 109.925 59.1119C109.508 55.435 105.847 52.8023 101.747 53.2316C97.6474 53.661 94.6622 56.9898 95.0792 60.6668C95.4962 64.3438 99.1576 66.9765 103.257 66.5471Z" fill="black"/>
<path d="M100.486 55.862C100.703 54.8932 99.3962 53.8014 97.5669 53.4233C95.7377 53.0451 94.0791 53.5239 93.8622 54.4927C93.6453 55.4615 94.9524 56.5534 96.7816 56.9315C98.6108 57.3096 100.269 56.8308 100.486 55.862Z" fill="white"/>
<path d="M134.358 65.9066C140.363 65.2777 144.746 60.4866 144.147 55.2054C143.548 49.9243 138.194 46.1529 132.188 46.7818C126.183 47.4108 121.801 52.2019 122.4 57.4831C122.999 62.7642 128.352 66.5356 134.358 65.9066Z" fill="#E2E2E2"/>
<path d="M130.616 63.6955C134.715 63.2661 137.707 59.9954 137.298 56.3901C136.889 52.7848 133.235 50.2102 129.135 50.6396C125.035 51.0689 122.044 54.3397 122.452 57.945C122.861 61.5503 126.516 64.1249 130.616 63.6955Z" fill="black"/>
<path d="M135.374 54.5445C137.041 53.7323 138.021 52.3708 137.563 51.5035C137.106 50.6362 135.384 50.5915 133.717 51.4037C132.05 52.2159 131.07 53.5774 131.528 54.4447C131.986 55.312 133.708 55.3567 135.374 54.5445Z" fill="white"/>
<path d="M89.0399 17.5011C90.8026 18.0233 92.1578 18.9926 93.1053 20.409C94.1605 22.0589 94.4927 23.781 94.1022 25.5755C93.7116 27.37 92.7111 28.765 91.1006 29.7604L84.4167 33.8907C83.2279 34.6234 82.3262 34.7433 81.7115 34.2505C81.4245 34.0367 81.0905 33.6448 80.7096 33.0748L71.6397 19.5205C71.4432 19.2383 71.2648 18.9448 71.1056 18.6417C70.9975 18.3926 70.9355 18.1272 70.9222 17.8576C70.8656 17.2718 71.3793 16.6438 72.4633 15.9736L78.867 12.0164C80.426 11.0525 82.0794 10.7672 83.8274 11.1604C85.6388 11.538 87.0392 12.4676 88.0287 13.9493C88.7419 15.0034 89.0954 16.2449 89.0399 17.5011ZM88.4456 22.945C88.184 22.5539 87.9293 22.2732 87.6814 22.1029C87.5687 22.021 87.4402 21.9613 87.3034 21.9272C87.1665 21.8932 87.024 21.8855 86.8841 21.9046C86.4579 21.9846 85.9399 22.2128 85.3303 22.5892C84.7206 22.9656 84.1868 23.1343 83.7289 23.0951C83.2715 23.0559 82.8059 22.6822 82.3322 21.974C81.8584 21.2658 81.7019 20.7006 81.8626 20.2785C82.0228 19.8575 82.4674 19.4223 83.1965 18.973C83.8758 18.5547 84.1679 18.1323 84.0728 17.7059C84.0043 17.4953 83.8345 17.1867 83.5633 16.7798C83.2922 16.3729 82.9619 16.1744 82.5724 16.1841C82.1836 16.1939 81.7098 16.3715 81.1511 16.7169L77.5926 18.92L83.7866 28.1759L87.9548 25.6C89.0218 24.9369 89.1848 24.0519 88.4439 22.945H88.4456Z" fill="#E37A39"/>
<path d="M91.0144 8.84713C90.8822 8.53739 90.7688 8.22055 90.6747 7.8982C90.6173 7.62963 90.6095 7.35343 90.6518 7.08227C90.7163 6.49643 91.3492 5.97967 92.5503 5.532C93.8642 5.03918 94.7786 5.08079 95.2937 5.65684C95.5122 5.92881 95.7494 6.38003 96.0053 7.01047L102.114 22.0432C102.247 22.3573 102.36 22.6788 102.453 23.006C102.507 23.2707 102.513 23.5422 102.471 23.8089C102.406 24.3947 101.773 24.9115 100.572 25.3591C99.2584 25.852 98.3499 25.7976 97.8461 25.196C97.6168 24.9495 97.374 24.5108 97.1176 23.8799L91.0144 8.84713Z" fill="#E37A39"/>
<path d="M111.169 0.537491C114.12 0.127893 116.837 0.797502 119.32 2.54632C121.803 4.29513 123.272 6.68853 123.725 9.72652C124.181 12.7634 123.533 15.4935 121.779 17.9168C120.025 20.3402 117.634 21.7621 114.604 22.1825C111.573 22.6025 108.839 21.9059 106.399 20.0929C103.96 18.2799 102.522 15.9173 102.084 13.0049C101.842 11.4747 101.919 9.91348 102.31 8.41205C102.7 6.94011 103.322 5.66562 104.178 4.58859C105.031 3.51298 106.085 2.5998 107.286 1.89602C108.469 1.19133 109.791 0.728846 111.169 0.537491ZM107.348 12.1237C107.604 13.829 108.385 15.1345 109.691 16.0402C110.997 16.9459 112.358 17.2995 113.774 17.1009C115.189 16.904 116.387 16.2096 117.369 15.0178C118.35 13.826 118.71 12.3574 118.447 10.6118C118.186 8.86843 117.402 7.54934 116.098 6.65453C114.793 5.75973 113.433 5.41024 112.018 5.60606C110.603 5.80243 109.407 6.5112 108.43 7.73238C107.453 8.95356 107.093 10.4182 107.352 12.1262L107.348 12.1237Z" fill="#E37A39"/>
</svg>
