<svg width="195" height="54" viewBox="0 0 195 54" fill="none" xmlns="http://www.w3.org/2000/svg">
<path d="M4.544 50V38.256H0.72V36.8H10V38.256H6.168V50H4.544ZM14.7538 50.256C13.4364 50.256 12.4924 49.9733 11.9218 49.408C11.3511 48.8373 11.0658 47.8907 11.0658 46.568V41.808H12.6178V46.248C12.6178 47.2293 12.7804 47.928 13.1058 48.344C13.4311 48.76 13.9804 48.968 14.7538 48.968C15.5324 48.968 16.0844 48.76 16.4098 48.344C16.7351 47.928 16.8978 47.2293 16.8978 46.248V41.808H18.4497V46.568C18.4497 47.8907 18.1644 48.8373 17.5938 49.408C17.0231 49.9733 16.0764 50.256 14.7538 50.256ZM29.2058 50.256C28.4431 50.256 27.7524 50.0693 27.1338 49.696C26.5204 49.3173 26.0324 48.8 25.6698 48.144C25.3124 47.488 25.1338 46.7387 25.1338 45.896C25.1338 45.064 25.3098 44.3227 25.6618 43.672C26.0138 43.016 26.4964 42.4987 27.1098 42.12C27.7231 41.7413 28.4218 41.552 29.2058 41.552C29.8991 41.552 30.5311 41.7067 31.1018 42.016C31.6778 42.3253 32.1231 42.7547 32.4378 43.304V41.808H33.9898V50H32.4378V48.464C32.0804 49.0293 31.6218 49.4693 31.0618 49.784C30.5018 50.0987 29.8831 50.256 29.2058 50.256ZM29.6218 48.92C30.1818 48.92 30.6751 48.792 31.1018 48.536C31.5338 48.2747 31.8724 47.9173 32.1178 47.464C32.3631 47.0107 32.4858 46.4907 32.4858 45.904C32.4858 45.3173 32.3631 44.7973 32.1178 44.344C31.8724 43.8907 31.5338 43.536 31.1018 43.28C30.6751 43.0187 30.1818 42.888 29.6218 42.888C29.0671 42.888 28.5738 43.0187 28.1418 43.28C27.7098 43.536 27.3684 43.8907 27.1178 44.344C26.8724 44.7973 26.7498 45.3173 26.7498 45.904C26.7498 46.4853 26.8724 47.0053 27.1178 47.464C27.3684 47.9173 27.7098 48.2747 28.1418 48.536C28.5738 48.792 29.0671 48.92 29.6218 48.92ZM39.3865 50.256C38.7038 50.256 38.0985 50.1093 37.5705 49.816C37.0478 49.5173 36.6318 49.0933 36.3225 48.544L37.0665 47.584C37.3492 48.0587 37.6905 48.4267 38.0905 48.688C38.4905 48.9493 38.9198 49.08 39.3785 49.08C39.6772 49.08 39.9465 49.0213 40.1865 48.904C40.4318 48.7867 40.6265 48.6187 40.7705 48.4C40.9145 48.176 40.9865 47.912 40.9865 47.608C40.9865 47.3147 40.9118 47.0853 40.7625 46.92C40.6185 46.7493 40.4025 46.6 40.1145 46.472C39.8318 46.344 39.4772 46.1973 39.0505 46.032C38.7092 45.8933 38.3785 45.736 38.0585 45.56C37.7385 45.384 37.4745 45.1627 37.2665 44.896C37.0638 44.624 36.9625 44.28 36.9625 43.864C36.9625 43.416 37.0825 43.0187 37.3225 42.672C37.5678 42.3253 37.9038 42.0533 38.3305 41.856C38.7572 41.6587 39.2425 41.56 39.7865 41.56C40.2292 41.56 40.6585 41.648 41.0745 41.824C41.4905 42 41.8852 42.2533 42.2585 42.584L41.6345 43.528C41.0798 42.9413 40.4665 42.648 39.7945 42.648C39.3892 42.648 39.0612 42.752 38.8105 42.96C38.5598 43.1627 38.4345 43.4267 38.4345 43.752C38.4345 44.0027 38.5252 44.2133 38.7065 44.384C38.8878 44.5493 39.1198 44.6933 39.4025 44.816C39.6852 44.9387 39.9785 45.0587 40.2825 45.176C40.7412 45.3467 41.1412 45.5227 41.4825 45.704C41.8292 45.8853 42.0985 46.12 42.2905 46.408C42.4825 46.6907 42.5785 47.072 42.5785 47.552C42.5785 48.112 42.4452 48.5947 42.1785 49C41.9172 49.4053 41.5465 49.7173 41.0665 49.936C40.5865 50.1493 40.0265 50.256 39.3865 50.256ZM49.0821 50.256C48.2235 50.256 47.4528 50.0667 46.7701 49.688C46.0875 49.3093 45.5488 48.7947 45.1541 48.144C44.7595 47.488 44.5621 46.7493 44.5621 45.928C44.5621 45.32 44.6741 44.752 44.8981 44.224C45.1221 43.696 45.4341 43.232 45.8341 42.832C46.2341 42.4267 46.6981 42.112 47.2261 41.888C47.7541 41.664 48.3195 41.552 48.9221 41.552C49.7755 41.552 50.5221 41.728 51.1621 42.08C51.8075 42.432 52.3088 42.9227 52.6661 43.552C53.0288 44.1813 53.2101 44.912 53.2101 45.744C53.2101 45.8133 53.2075 45.8693 53.2021 45.912C53.1968 45.9547 53.1861 46.0107 53.1701 46.08H46.1301C46.1301 46.6507 46.2581 47.1547 46.5141 47.592C46.7755 48.0293 47.1328 48.3733 47.5861 48.624C48.0448 48.8693 48.5701 48.992 49.1621 48.992C49.7221 48.992 50.2235 48.8773 50.6661 48.648C51.1088 48.4187 51.4928 48.0773 51.8181 47.624L52.9541 48.216C52.5648 48.8613 52.0288 49.3627 51.3461 49.72C50.6688 50.0773 49.9141 50.256 49.0821 50.256ZM46.2101 44.936H51.6501C51.5755 44.5147 51.4101 44.1467 51.1541 43.832C50.9035 43.512 50.5861 43.264 50.2021 43.088C49.8235 42.9067 49.4048 42.816 48.9461 42.816C48.4661 42.816 48.0315 42.904 47.6421 43.08C47.2581 43.2507 46.9408 43.496 46.6901 43.816C46.4448 44.1307 46.2848 44.504 46.2101 44.936ZM57.9178 50.256C57.2351 50.256 56.6298 50.1093 56.1018 49.816C55.5791 49.5173 55.1631 49.0933 54.8538 48.544L55.5978 47.584C55.8804 48.0587 56.2218 48.4267 56.6218 48.688C57.0218 48.9493 57.4511 49.08 57.9098 49.08C58.2084 49.08 58.4778 49.0213 58.7178 48.904C58.9631 48.7867 59.1578 48.6187 59.3018 48.4C59.4458 48.176 59.5178 47.912 59.5178 47.608C59.5178 47.3147 59.4431 47.0853 59.2938 46.92C59.1498 46.7493 58.9338 46.6 58.6458 46.472C58.3631 46.344 58.0084 46.1973 57.5818 46.032C57.2404 45.8933 56.9098 45.736 56.5898 45.56C56.2698 45.384 56.0058 45.1627 55.7978 44.896C55.5951 44.624 55.4938 44.28 55.4938 43.864C55.4938 43.416 55.6138 43.0187 55.8538 42.672C56.0991 42.3253 56.4351 42.0533 56.8618 41.856C57.2884 41.6587 57.7738 41.56 58.3177 41.56C58.7604 41.56 59.1898 41.648 59.6058 41.824C60.0218 42 60.4164 42.2533 60.7898 42.584L60.1658 43.528C59.6111 42.9413 58.9978 42.648 58.3258 42.648C57.9204 42.648 57.5924 42.752 57.3418 42.96C57.0911 43.1627 56.9658 43.4267 56.9658 43.752C56.9658 44.0027 57.0564 44.2133 57.2378 44.384C57.4191 44.5493 57.6511 44.6933 57.9338 44.816C58.2164 44.9387 58.5098 45.0587 58.8138 45.176C59.2724 45.3467 59.6724 45.5227 60.0138 45.704C60.3604 45.8853 60.6298 46.12 60.8218 46.408C61.0138 46.6907 61.1098 47.072 61.1098 47.552C61.1098 48.112 60.9764 48.5947 60.7098 49C60.4484 49.4053 60.0778 49.7173 59.5978 49.936C59.1178 50.1493 58.5578 50.256 57.9178 50.256ZM67.7094 50.256C66.84 50.256 66.056 50.072 65.3574 49.704C64.664 49.336 64.112 48.824 63.7014 48.168C63.296 47.512 63.0934 46.7573 63.0934 45.904C63.0934 45.0453 63.296 44.2907 63.7014 43.64C64.112 42.984 64.664 42.472 65.3574 42.104C66.056 41.736 66.84 41.552 67.7094 41.552C68.5787 41.552 69.36 41.736 70.0534 42.104C70.752 42.472 71.304 42.984 71.7094 43.64C72.12 44.2907 72.3254 45.0453 72.3254 45.904C72.3254 46.7573 72.12 47.512 71.7094 48.168C71.304 48.824 70.752 49.336 70.0534 49.704C69.36 50.072 68.5787 50.256 67.7094 50.256ZM67.7174 48.904C68.288 48.904 68.8 48.776 69.2534 48.52C69.7067 48.264 70.064 47.9093 70.3254 47.456C70.5867 47.0027 70.7174 46.4853 70.7174 45.904C70.7174 45.3173 70.5867 44.8 70.3254 44.352C70.064 43.8987 69.7067 43.544 69.2534 43.288C68.8 43.032 68.288 42.904 67.7174 42.904C67.1414 42.904 66.6267 43.032 66.1734 43.288C65.72 43.544 65.3627 43.8987 65.1014 44.352C64.84 44.8 64.7094 45.3173 64.7094 45.904C64.7094 46.4853 64.84 47.0027 65.1014 47.456C65.3627 47.9093 65.72 48.264 66.1734 48.52C66.6267 48.776 67.1414 48.904 67.7174 48.904ZM74.9213 50V41.808H76.4733V43.008C76.7453 42.5333 77.0919 42.1733 77.5133 41.928C77.9346 41.6773 78.4119 41.552 78.9453 41.552C79.2013 41.552 79.4599 41.584 79.7213 41.648C79.9879 41.7067 80.2173 41.7867 80.4093 41.888L79.7693 43.2C79.6039 43.1093 79.4119 43.0373 79.1933 42.984C78.9746 42.9307 78.7693 42.904 78.5773 42.904C78.2199 42.904 77.8786 42.9973 77.5533 43.184C77.2333 43.3653 76.9719 43.6027 76.7693 43.896C76.5719 44.1893 76.4733 44.504 76.4733 44.84V50H74.9213ZM89.9634 50.256C89.206 50.256 88.518 50.0693 87.8994 49.696C87.286 49.3227 86.798 48.808 86.4354 48.152C86.078 47.496 85.8994 46.7467 85.8994 45.904C85.8994 45.0667 86.0754 44.3227 86.4274 43.672C86.7847 43.016 87.27 42.4987 87.8834 42.12C88.502 41.7413 89.206 41.552 89.9954 41.552C90.678 41.552 91.2994 41.7067 91.8594 42.016C92.4247 42.3253 92.8727 42.7547 93.2034 43.304V36.232H94.7554V50H93.2034V48.464C92.8514 49.024 92.3927 49.464 91.8274 49.784C91.262 50.0987 90.6407 50.256 89.9634 50.256ZM90.3794 48.92C90.9394 48.92 91.4354 48.792 91.8674 48.536C92.2994 48.2747 92.638 47.9173 92.8834 47.464C93.1287 47.0107 93.2514 46.4933 93.2514 45.912C93.2514 45.3253 93.1287 44.8053 92.8834 44.352C92.638 43.8933 92.2994 43.536 91.8674 43.28C91.4354 43.0187 90.942 42.888 90.3874 42.888C89.8327 42.888 89.3394 43.0187 88.9074 43.28C88.4754 43.536 88.134 43.8933 87.8834 44.352C87.638 44.8053 87.5154 45.3253 87.5154 45.912C87.5154 46.4933 87.638 47.0107 87.8834 47.464C88.1287 47.9173 88.4674 48.2747 88.8994 48.536C89.3314 48.792 89.8247 48.92 90.3794 48.92ZM101.895 50.256C101.036 50.256 100.265 50.0667 99.5826 49.688C98.9 49.3093 98.3613 48.7947 97.9666 48.144C97.572 47.488 97.3746 46.7493 97.3746 45.928C97.3746 45.32 97.4866 44.752 97.7106 44.224C97.9346 43.696 98.2466 43.232 98.6466 42.832C99.0466 42.4267 99.5106 42.112 100.039 41.888C100.567 41.664 101.132 41.552 101.735 41.552C102.588 41.552 103.335 41.728 103.975 42.08C104.62 42.432 105.121 42.9227 105.479 43.552C105.841 44.1813 106.023 44.912 106.023 45.744C106.023 45.8133 106.02 45.8693 106.015 45.912C106.009 45.9547 105.999 46.0107 105.983 46.08H98.9426C98.9426 46.6507 99.0706 47.1547 99.3266 47.592C99.588 48.0293 99.9453 48.3733 100.399 48.624C100.857 48.8693 101.383 48.992 101.975 48.992C102.535 48.992 103.036 48.8773 103.479 48.648C103.921 48.4187 104.305 48.0773 104.631 47.624L105.767 48.216C105.377 48.8613 104.841 49.3627 104.159 49.72C103.481 50.0773 102.727 50.256 101.895 50.256ZM99.0226 44.936H104.463C104.388 44.5147 104.223 44.1467 103.967 43.832C103.716 43.512 103.399 43.264 103.015 43.088C102.636 42.9067 102.217 42.816 101.759 42.816C101.279 42.816 100.844 42.904 100.455 43.08C100.071 43.2507 99.7533 43.496 99.5026 43.816C99.2573 44.1307 99.0973 44.504 99.0226 44.936ZM116.253 50.256C115.49 50.256 114.799 50.0693 114.181 49.696C113.567 49.3173 113.079 48.8 112.717 48.144C112.359 47.488 112.181 46.7387 112.181 45.896C112.181 45.064 112.357 44.3227 112.709 43.672C113.061 43.016 113.543 42.4987 114.157 42.12C114.77 41.7413 115.469 41.552 116.253 41.552C116.946 41.552 117.578 41.7067 118.149 42.016C118.725 42.3253 119.17 42.7547 119.485 43.304V41.808H121.037V50H119.485V48.464C119.127 49.0293 118.669 49.4693 118.109 49.784C117.549 50.0987 116.93 50.256 116.253 50.256ZM116.669 48.92C117.229 48.92 117.722 48.792 118.149 48.536C118.581 48.2747 118.919 47.9173 119.165 47.464C119.41 47.0107 119.533 46.4907 119.533 45.904C119.533 45.3173 119.41 44.7973 119.165 44.344C118.919 43.8907 118.581 43.536 118.149 43.28C117.722 43.0187 117.229 42.888 116.669 42.888C116.114 42.888 115.621 43.0187 115.189 43.28C114.757 43.536 114.415 43.8907 114.165 44.344C113.919 44.7973 113.797 45.3173 113.797 45.904C113.797 46.4853 113.919 47.0053 114.165 47.464C114.415 47.9173 114.757 48.2747 115.189 48.536C115.621 48.792 116.114 48.92 116.669 48.92ZM124.312 50V36.24H125.864V50H124.312ZM129.132 50V41.808H130.684V50H129.132ZM129.908 40.152C129.732 40.152 129.569 40.1093 129.42 40.024C129.276 39.9333 129.159 39.8133 129.068 39.664C128.983 39.5147 128.94 39.352 128.94 39.176C128.94 38.9947 128.983 38.832 129.068 38.688C129.159 38.544 129.276 38.4293 129.42 38.344C129.569 38.2533 129.732 38.208 129.908 38.208C130.089 38.208 130.252 38.2533 130.396 38.344C130.54 38.4293 130.655 38.544 130.74 38.688C130.831 38.832 130.876 38.9947 130.876 39.176C130.876 39.352 130.831 39.5147 130.74 39.664C130.655 39.8133 130.54 39.9333 130.396 40.024C130.252 40.1093 130.089 40.152 129.908 40.152ZM133.968 50V41.808H135.52V42.864C135.867 42.4267 136.259 42.0987 136.696 41.88C137.133 41.6613 137.619 41.552 138.152 41.552C138.813 41.552 139.395 41.704 139.896 42.008C140.397 42.3067 140.747 42.7147 140.944 43.232C141.285 42.7093 141.696 42.2987 142.176 42C142.656 41.7013 143.219 41.552 143.864 41.552C144.451 41.552 144.971 41.672 145.424 41.912C145.877 42.152 146.235 42.4987 146.496 42.952C146.757 43.4053 146.888 43.9547 146.888 44.6V50H145.336V45.032C145.336 44.3493 145.157 43.808 144.8 43.408C144.443 43.008 143.968 42.808 143.376 42.808C142.965 42.808 142.595 42.8987 142.264 43.08C141.939 43.256 141.68 43.488 141.488 43.776C141.301 44.0587 141.208 44.3573 141.208 44.672V50H139.656V44.928C139.656 44.2827 139.48 43.768 139.128 43.384C138.776 43 138.307 42.808 137.72 42.808C137.309 42.808 136.936 42.896 136.6 43.072C136.269 43.2427 136.005 43.4667 135.808 43.744C135.616 44.0213 135.52 44.312 135.52 44.616V50H133.968ZM153.895 50.256C153.036 50.256 152.265 50.0667 151.583 49.688C150.9 49.3093 150.361 48.7947 149.967 48.144C149.572 47.488 149.375 46.7493 149.375 45.928C149.375 45.32 149.487 44.752 149.711 44.224C149.935 43.696 150.247 43.232 150.647 42.832C151.047 42.4267 151.511 42.112 152.039 41.888C152.567 41.664 153.132 41.552 153.735 41.552C154.588 41.552 155.335 41.728 155.975 42.08C156.62 42.432 157.121 42.9227 157.479 43.552C157.841 44.1813 158.023 44.912 158.023 45.744C158.023 45.8133 158.02 45.8693 158.015 45.912C158.009 45.9547 157.999 46.0107 157.983 46.08H150.943C150.943 46.6507 151.071 47.1547 151.327 47.592C151.588 48.0293 151.945 48.3733 152.399 48.624C152.857 48.8693 153.383 48.992 153.975 48.992C154.535 48.992 155.036 48.8773 155.479 48.648C155.921 48.4187 156.305 48.0773 156.631 47.624L157.767 48.216C157.377 48.8613 156.841 49.3627 156.159 49.72C155.481 50.0773 154.727 50.256 153.895 50.256ZM151.023 44.936H156.463C156.388 44.5147 156.223 44.1467 155.967 43.832C155.716 43.512 155.399 43.264 155.015 43.088C154.636 42.9067 154.217 42.816 153.759 42.816C153.279 42.816 152.844 42.904 152.455 43.08C152.071 43.2507 151.753 43.496 151.503 43.816C151.257 44.1307 151.097 44.504 151.023 44.936ZM160.578 50V41.808H162.13V42.864C162.38 42.4907 162.74 42.1787 163.21 41.928C163.679 41.6773 164.236 41.552 164.882 41.552C165.516 41.552 166.066 41.6853 166.53 41.952C166.994 42.2133 167.351 42.592 167.602 43.088C167.858 43.584 167.986 44.176 167.986 44.864V50H166.434V45.176C166.434 44.408 166.25 43.8187 165.882 43.408C165.514 42.9973 164.996 42.792 164.33 42.792C163.871 42.792 163.476 42.8853 163.146 43.072C162.82 43.2533 162.57 43.4987 162.394 43.808C162.218 44.112 162.13 44.4453 162.13 44.808V50H160.578ZM173.287 50.256C172.615 50.256 172.092 50.0347 171.719 49.592C171.346 49.144 171.159 48.5173 171.159 47.712V42.984H170.247V41.808H171.159V38.744H172.711V41.808H174.679V42.984H172.711V47.616C172.711 48.0213 172.791 48.3333 172.951 48.552C173.111 48.7707 173.34 48.88 173.639 48.88C173.938 48.88 174.204 48.792 174.439 48.616L174.831 49.856C174.623 49.9787 174.38 50.0747 174.103 50.144C173.831 50.2187 173.559 50.256 173.287 50.256ZM181.209 50.256C180.34 50.256 179.556 50.072 178.857 49.704C178.164 49.336 177.612 48.824 177.201 48.168C176.796 47.512 176.593 46.7573 176.593 45.904C176.593 45.0453 176.796 44.2907 177.201 43.64C177.612 42.984 178.164 42.472 178.857 42.104C179.556 41.736 180.34 41.552 181.209 41.552C182.079 41.552 182.86 41.736 183.553 42.104C184.252 42.472 184.804 42.984 185.209 43.64C185.62 44.2907 185.825 45.0453 185.825 45.904C185.825 46.7573 185.62 47.512 185.209 48.168C184.804 48.824 184.252 49.336 183.553 49.704C182.86 50.072 182.079 50.256 181.209 50.256ZM181.217 48.904C181.788 48.904 182.3 48.776 182.753 48.52C183.207 48.264 183.564 47.9093 183.825 47.456C184.087 47.0027 184.217 46.4853 184.217 45.904C184.217 45.3173 184.087 44.8 183.825 44.352C183.564 43.8987 183.207 43.544 182.753 43.288C182.3 43.032 181.788 42.904 181.217 42.904C180.641 42.904 180.127 43.032 179.673 43.288C179.22 43.544 178.863 43.8987 178.601 44.352C178.34 44.8 178.209 45.3173 178.209 45.904C178.209 46.4853 178.34 47.0027 178.601 47.456C178.863 47.9093 179.22 48.264 179.673 48.52C180.127 48.776 180.641 48.904 181.217 48.904ZM190.574 50.256C189.891 50.256 189.286 50.1093 188.758 49.816C188.235 49.5173 187.819 49.0933 187.51 48.544L188.254 47.584C188.537 48.0587 188.878 48.4267 189.278 48.688C189.678 48.9493 190.107 49.08 190.566 49.08C190.865 49.08 191.134 49.0213 191.374 48.904C191.619 48.7867 191.814 48.6187 191.958 48.4C192.102 48.176 192.174 47.912 192.174 47.608C192.174 47.3147 192.099 47.0853 191.95 46.92C191.806 46.7493 191.59 46.6 191.302 46.472C191.019 46.344 190.665 46.1973 190.238 46.032C189.897 45.8933 189.566 45.736 189.246 45.56C188.926 45.384 188.662 45.1627 188.454 44.896C188.251 44.624 188.15 44.28 188.15 43.864C188.15 43.416 188.27 43.0187 188.51 42.672C188.755 42.3253 189.091 42.0533 189.518 41.856C189.945 41.6587 190.43 41.56 190.974 41.56C191.417 41.56 191.846 41.648 192.262 41.824C192.678 42 193.073 42.2533 193.446 42.584L192.822 43.528C192.267 42.9413 191.654 42.648 190.982 42.648C190.577 42.648 190.249 42.752 189.998 42.96C189.747 43.1627 189.622 43.4267 189.622 43.752C189.622 44.0027 189.713 44.2133 189.894 44.384C190.075 44.5493 190.307 44.6933 190.59 44.816C190.873 44.9387 191.166 45.0587 191.47 45.176C191.929 45.3467 192.329 45.5227 192.67 45.704C193.017 45.8853 193.286 46.12 193.478 46.408C193.67 46.6907 193.766 47.072 193.766 47.552C193.766 48.112 193.633 48.5947 193.366 49C193.105 49.4053 192.734 49.7173 192.254 49.936C191.774 50.1493 191.214 50.256 190.574 50.256Z" fill="white"/>
<path d="M3.12 15.272C2.304 15.272 1.736 15.112 1.416 14.792C1.112 14.472 0.96 13.864 0.96 12.968C0.96 12.04 1.136 11.448 1.488 11.192C1.872 10.904 2.472 10.76 3.288 10.76C4.12 10.76 4.688 10.92 4.992 11.24C5.312 11.56 5.472 12.16 5.472 13.04C5.472 13.984 5.296 14.584 4.944 14.84C4.56 15.128 3.952 15.272 3.12 15.272ZM1.992 17.24C2.312 17.16 2.728 17.12 3.24 17.12C3.752 17.12 4.16 17.16 4.464 17.24C4.768 17.32 4.976 17.464 5.088 17.672C5.216 17.88 5.288 18.064 5.304 18.224C5.336 18.384 5.352 18.632 5.352 18.968V26.576C5.352 26.912 5.336 27.16 5.304 27.32C5.288 27.496 5.216 27.688 5.088 27.896C4.96 28.104 4.736 28.248 4.416 28.328C4.112 28.424 3.704 28.472 3.192 28.472C2.68 28.472 2.272 28.424 1.968 28.328C1.664 28.248 1.448 28.096 1.32 27.872C1.208 27.664 1.136 27.472 1.104 27.296C1.088 27.136 1.08 26.888 1.08 26.552V18.944C1.08 18.608 1.088 18.36 1.104 18.2C1.136 18.04 1.216 17.864 1.344 17.672C1.472 17.464 1.688 17.32 1.992 17.24ZM18.2539 6.056C18.3819 5.816 18.5979 5.648 18.9019 5.552C19.2059 5.456 19.5899 5.408 20.0539 5.408C20.5179 5.408 20.8859 5.448 21.1579 5.528C21.4299 5.608 21.6379 5.704 21.7819 5.816C21.9259 5.928 22.0379 6.088 22.1179 6.296C22.1979 6.568 22.2379 6.984 22.2379 7.544V20.864C22.2379 21.232 22.2219 21.512 22.1899 21.704C22.1739 21.88 22.1019 22.088 21.9739 22.328C21.7499 22.76 21.1259 22.976 20.1019 22.976C18.9819 22.976 18.3259 22.68 18.1339 22.088C18.0379 21.816 17.9899 21.4 17.9899 20.84V15.968H11.6299V20.864C11.6299 21.232 11.6139 21.512 11.5819 21.704C11.5659 21.88 11.4939 22.088 11.3659 22.328C11.1419 22.76 10.5179 22.976 9.49388 22.976C8.37388 22.976 7.71788 22.68 7.52588 22.088C7.42988 21.816 7.38188 21.4 7.38188 20.84V7.52C7.38188 7.152 7.38988 6.88 7.40588 6.704C7.43788 6.512 7.51788 6.296 7.64588 6.056C7.86988 5.624 8.49388 5.408 9.51788 5.408C10.6379 5.408 11.3019 5.704 11.5099 6.296C11.5899 6.568 11.6299 6.984 11.6299 7.544V12.44H17.9899V7.52C17.9899 7.152 17.9979 6.88 18.0139 6.704C18.0459 6.512 18.1259 6.296 18.2539 6.056ZM23.8031 16.688C23.8031 14.768 24.4751 13.184 25.8191 11.936C27.1631 10.688 28.6991 10.064 30.4271 10.064C32.1551 10.064 33.6831 10.688 35.0111 11.936C36.3391 13.168 37.0031 14.744 37.0031 16.664C37.0031 17.992 36.6591 19.176 35.9711 20.216C35.2831 21.24 34.4431 22 33.4511 22.496C32.4751 22.976 31.4591 23.216 30.4031 23.216C29.3471 23.216 28.3231 22.96 27.3311 22.448C26.3391 21.92 25.4991 21.152 24.8111 20.144C24.1391 19.12 23.8031 17.968 23.8031 16.688ZM28.8191 18.416C29.3311 18.8 29.8511 18.992 30.3791 18.992C30.9071 18.992 31.4351 18.792 31.9631 18.392C32.4911 17.992 32.7551 17.4 32.7551 16.616C32.7551 15.832 32.5071 15.248 32.0111 14.864C31.5151 14.48 30.9791 14.288 30.4031 14.288C29.8271 14.288 29.2911 14.488 28.7951 14.888C28.2991 15.288 28.0511 15.88 28.0511 16.664C28.0511 17.432 28.3071 18.016 28.8191 18.416ZM38.5538 6.512C38.5538 6.144 38.5618 5.872 38.5778 5.696C38.6098 5.504 38.6818 5.288 38.7938 5.048C39.0178 4.616 39.6418 4.4 40.6658 4.4C41.6418 4.4 42.2498 4.616 42.4898 5.048C42.6178 5.288 42.6898 5.504 42.7058 5.696C42.7378 5.888 42.7538 6.168 42.7538 6.536V17.648C42.7538 18.224 42.8018 18.592 42.8978 18.752C42.9938 18.896 43.2018 18.968 43.5218 18.968C43.8578 18.968 44.0818 18.984 44.1938 19.016C44.3058 19.032 44.4418 19.096 44.6018 19.208C44.9218 19.416 45.0818 19.984 45.0818 20.912C45.0818 21.92 44.9218 22.536 44.6018 22.76C44.1858 23.048 43.1938 23.096 41.6258 22.904C40.3938 22.744 39.5938 22.336 39.2258 21.68C38.7778 20.896 38.5538 19.648 38.5538 17.936V6.512ZM54.6133 11.696C54.7093 10.8 55.3413 10.352 56.5093 10.352C57.1333 10.352 57.5973 10.4 57.9013 10.496C58.2053 10.592 58.4133 10.76 58.5253 11C58.6533 11.24 58.7253 11.456 58.7413 11.648C58.7733 11.824 58.7893 12.096 58.7893 12.464V20.864C58.7893 21.232 58.7733 21.512 58.7413 21.704C58.7253 21.88 58.6613 22.088 58.5493 22.328C58.3253 22.744 57.7733 22.952 56.8933 22.952C56.0293 22.952 55.4453 22.848 55.1413 22.64C54.8533 22.416 54.6853 22.096 54.6373 21.68C54.0453 22.528 53.0533 22.952 51.6613 22.952C50.2853 22.952 49.0053 22.32 47.8213 21.056C46.6373 19.792 46.0453 18.328 46.0453 16.664C46.0453 14.984 46.6373 13.52 47.8213 12.272C49.0213 11.008 50.3333 10.376 51.7573 10.376C52.3013 10.376 52.7973 10.472 53.2453 10.664C53.6933 10.856 54.0053 11.04 54.1813 11.216C54.3573 11.376 54.5013 11.536 54.6133 11.696ZM50.2453 16.688C50.2453 17.216 50.4533 17.696 50.8693 18.128C51.2853 18.544 51.7893 18.752 52.3813 18.752C52.9733 18.752 53.4613 18.536 53.8453 18.104C54.2453 17.672 54.4453 17.2 54.4453 16.688C54.4453 16.16 54.2533 15.672 53.8693 15.224C53.5013 14.776 52.9973 14.552 52.3573 14.552C51.7333 14.552 51.2213 14.776 50.8213 15.224C50.4373 15.672 50.2453 16.16 50.2453 16.688ZM60.9422 19.352C61.1022 19.032 61.3422 18.816 61.6622 18.704C61.9982 18.592 62.5102 18.536 63.1982 18.536C63.9022 18.536 64.4062 18.688 64.7102 18.992C65.0302 19.296 65.1902 19.776 65.1902 20.432V20.816C65.1902 21.2 65.1742 21.488 65.1422 21.68C65.1262 21.856 65.0542 22.072 64.9262 22.328C64.6702 22.792 64.0542 23.024 63.0782 23.024C62.1182 23.024 61.4782 22.872 61.1582 22.568C60.8542 22.248 60.7022 21.64 60.7022 20.744C60.7022 20.12 60.7822 19.656 60.9422 19.352ZM64.1582 16.544C63.8542 16.624 63.4462 16.664 62.9342 16.664C62.4222 16.664 62.0142 16.624 61.7102 16.544C61.4062 16.464 61.1902 16.32 61.0622 16.112C60.9502 15.904 60.8782 15.72 60.8462 15.56C60.8302 15.4 60.8222 15.152 60.8222 14.816V7.208C60.8222 6.872 60.8302 6.624 60.8462 6.464C60.8782 6.288 60.9582 6.096 61.0862 5.888C61.2142 5.68 61.4302 5.536 61.7342 5.456C62.0382 5.36 62.4462 5.312 62.9582 5.312C63.4702 5.312 63.8782 5.36 64.1822 5.456C64.4862 5.536 64.6942 5.688 64.8062 5.912C64.9342 6.12 65.0062 6.312 65.0222 6.488C65.0542 6.648 65.0702 6.896 65.0702 7.232V14.84C65.0702 15.176 65.0542 15.424 65.0222 15.584C65.0062 15.744 64.9342 15.928 64.8062 16.136C64.6782 16.328 64.4622 16.464 64.1582 16.544ZM73.4349 20.528C73.0189 20.016 72.8109 19.56 72.8109 19.16C72.8109 18.744 73.1549 18.2 73.8429 17.528C74.2429 17.144 74.6669 16.952 75.1149 16.952C75.5629 16.952 76.1869 17.352 76.9869 18.152C77.2109 18.424 77.5309 18.688 77.9469 18.944C78.3629 19.184 78.7469 19.304 79.0989 19.304C80.5869 19.304 81.3309 18.696 81.3309 17.48C81.3309 17.112 81.1229 16.808 80.7069 16.568C80.3069 16.312 79.8029 16.128 79.1949 16.016C78.5869 15.904 77.9309 15.728 77.2269 15.488C76.5229 15.232 75.8669 14.936 75.2589 14.6C74.6509 14.264 74.1389 13.736 73.7229 13.016C73.3229 12.28 73.1229 11.4 73.1229 10.376C73.1229 8.968 73.6429 7.744 74.6829 6.704C75.7389 5.648 77.1709 5.12 78.9789 5.12C79.9389 5.12 80.8109 5.248 81.5949 5.504C82.3949 5.744 82.9469 5.992 83.2509 6.248L83.8509 6.704C84.3469 7.168 84.5949 7.56 84.5949 7.88C84.5949 8.2 84.4029 8.64 84.0189 9.2C83.4749 10 82.9149 10.4 82.3389 10.4C82.0029 10.4 81.5869 10.24 81.0909 9.92C81.0429 9.888 80.9469 9.808 80.8029 9.68C80.6749 9.552 80.5549 9.448 80.4429 9.368C80.1069 9.16 79.6749 9.056 79.1469 9.056C78.6349 9.056 78.2029 9.184 77.8509 9.44C77.5149 9.68 77.3469 10.024 77.3469 10.472C77.3469 10.904 77.5469 11.256 77.9469 11.528C78.3629 11.8 78.8749 11.984 79.4829 12.08C80.0909 12.176 80.7549 12.328 81.4749 12.536C82.1949 12.728 82.8589 12.968 83.4669 13.256C84.0749 13.544 84.5789 14.048 84.9789 14.768C85.3949 15.472 85.6029 16.344 85.6029 17.384C85.6029 18.424 85.3949 19.344 84.9789 20.144C84.5629 20.928 84.0189 21.536 83.3469 21.968C82.0509 22.816 80.6669 23.24 79.1949 23.24C78.4429 23.24 77.7309 23.152 77.0589 22.976C76.3869 22.784 75.8429 22.552 75.4269 22.28C74.5789 21.768 73.9869 21.272 73.6509 20.792L73.4349 20.528ZM86.8031 16.688C86.8031 14.768 87.4751 13.184 88.8191 11.936C90.1631 10.688 91.6991 10.064 93.4271 10.064C95.1551 10.064 96.6831 10.688 98.0111 11.936C99.3391 13.168 100.003 14.744 100.003 16.664C100.003 17.992 99.6591 19.176 98.9711 20.216C98.2831 21.24 97.4431 22 96.4511 22.496C95.4751 22.976 94.4591 23.216 93.4031 23.216C92.3471 23.216 91.3231 22.96 90.3311 22.448C89.3391 21.92 88.4991 21.152 87.8111 20.144C87.1391 19.12 86.8031 17.968 86.8031 16.688ZM91.8191 18.416C92.3311 18.8 92.8511 18.992 93.3791 18.992C93.9071 18.992 94.4351 18.792 94.9631 18.392C95.4911 17.992 95.7551 17.4 95.7551 16.616C95.7551 15.832 95.5071 15.248 95.0111 14.864C94.5151 14.48 93.9791 14.288 93.4031 14.288C92.8271 14.288 92.2911 14.488 91.7951 14.888C91.2991 15.288 91.0511 15.88 91.0511 16.664C91.0511 17.432 91.3071 18.016 91.8191 18.416ZM112.587 10.496C113.531 10.912 114.003 11.416 114.003 12.008C114.003 12.296 113.939 12.568 113.811 12.824C113.683 13.08 113.619 13.216 113.619 13.232L107.331 27.296C107.203 27.6 107.091 27.832 106.995 27.992C106.915 28.152 106.779 28.304 106.587 28.448C106.395 28.592 106.155 28.664 105.867 28.664C105.579 28.664 105.155 28.544 104.595 28.304C103.651 27.888 103.179 27.392 103.179 26.816C103.179 26.432 103.947 24.6 105.483 21.32L100.707 13.28C100.387 12.752 100.227 12.36 100.227 12.104C100.227 11.592 100.659 11.08 101.523 10.568C102.067 10.248 102.491 10.088 102.795 10.088C103.099 10.088 103.347 10.152 103.539 10.28C103.731 10.408 103.867 10.544 103.947 10.688C104.043 10.816 104.483 11.56 105.267 12.92C106.067 14.264 106.827 15.52 107.547 16.688C107.627 16.432 108.059 15.448 108.843 13.736C109.627 12.008 110.043 11.088 110.091 10.976C110.155 10.864 110.251 10.728 110.379 10.568C110.587 10.296 110.875 10.16 111.243 10.16C111.627 10.16 112.075 10.272 112.587 10.496ZM133.91 13.568C134.854 14.688 135.326 15.944 135.326 17.336C135.294 18.936 134.742 20.28 133.67 21.368C132.614 22.44 131.326 22.976 129.806 22.976H123.494C122.374 22.976 121.718 22.672 121.526 22.064C121.43 21.792 121.382 21.376 121.382 20.816V7.496C121.382 7.112 121.39 6.832 121.406 6.656C121.438 6.48 121.518 6.272 121.646 6.032C121.87 5.6 122.494 5.384 123.518 5.384H129.566C131.038 5.384 132.27 5.896 133.262 6.92C134.302 7.96 134.822 9.208 134.822 10.664C134.822 11.72 134.518 12.688 133.91 13.568ZM131.078 17.096C131.078 16.712 131.03 16.408 130.934 16.184C130.854 15.96 130.71 15.8 130.502 15.704C130.182 15.576 129.734 15.512 129.158 15.512C128.582 15.512 128.15 15.4 127.862 15.176C127.574 14.952 127.43 14.496 127.43 13.808C127.43 13.104 127.574 12.64 127.862 12.416C128.166 12.192 128.662 12.08 129.35 12.08C129.99 12.08 130.374 11.912 130.502 11.576C130.55 11.4 130.574 11.112 130.574 10.712C130.574 10.312 130.438 10.032 130.166 9.872C129.91 9.712 129.518 9.632 128.99 9.632H125.63V18.728H129.566C130.574 18.728 131.078 18.184 131.078 17.096ZM136.898 12.464C136.898 12.096 136.906 11.824 136.922 11.648C136.954 11.456 137.026 11.24 137.138 11C137.362 10.584 137.986 10.376 139.01 10.376C139.778 10.376 140.322 10.512 140.642 10.784C140.914 11.008 141.058 11.352 141.074 11.816C141.09 11.976 141.098 12.208 141.098 12.512V20.912C141.098 21.28 141.082 21.56 141.05 21.752C141.034 21.928 140.962 22.136 140.834 22.376C140.626 22.792 140.01 23 138.986 23C137.978 23 137.362 22.784 137.138 22.352C137.026 22.112 136.954 21.904 136.922 21.728C136.906 21.552 136.898 21.272 136.898 20.888V12.464ZM140.834 8.024C140.722 8.248 140.514 8.408 140.21 8.504C139.906 8.6 139.498 8.648 138.986 8.648C138.49 8.648 138.09 8.6 137.786 8.504C137.482 8.408 137.266 8.24 137.138 8C137.026 7.76 136.954 7.552 136.922 7.376C136.906 7.184 136.898 6.904 136.898 6.536C136.898 6.168 136.906 5.896 136.922 5.72C136.954 5.528 137.026 5.32 137.138 5.096C137.362 4.664 137.986 4.448 139.01 4.448C140.018 4.448 140.626 4.664 140.834 5.096C140.962 5.336 141.034 5.552 141.05 5.744C141.082 5.92 141.098 6.192 141.098 6.56C141.098 6.928 141.082 7.208 141.05 7.4C141.034 7.576 140.962 7.784 140.834 8.024ZM142.655 16.688C142.655 14.768 143.327 13.184 144.671 11.936C146.015 10.688 147.551 10.064 149.279 10.064C151.007 10.064 152.535 10.688 153.863 11.936C155.191 13.168 155.855 14.744 155.855 16.664C155.855 17.992 155.511 19.176 154.823 20.216C154.135 21.24 153.295 22 152.303 22.496C151.327 22.976 150.311 23.216 149.255 23.216C148.199 23.216 147.175 22.96 146.183 22.448C145.191 21.92 144.351 21.152 143.663 20.144C142.991 19.12 142.655 17.968 142.655 16.688ZM147.671 18.416C148.183 18.8 148.703 18.992 149.231 18.992C149.759 18.992 150.287 18.792 150.815 18.392C151.343 17.992 151.607 17.4 151.607 16.616C151.607 15.832 151.359 15.248 150.863 14.864C150.367 14.48 149.831 14.288 149.255 14.288C148.679 14.288 148.143 14.488 147.647 14.888C147.151 15.288 146.903 15.88 146.903 16.664C146.903 17.432 147.159 18.016 147.671 18.416Z" fill="white"/>
</svg>
