<svg width="436" height="168" viewBox="0 0 436 168" fill="none" xmlns="http://www.w3.org/2000/svg">
<rect x="221" width="215" height="168" rx="29" fill="#4AAEAD"/>
<rect x="232" y="11" width="88" height="146" rx="29" fill="white" fill-opacity="0.5"/>
<path d="M336.995 110L333.535 101.75H334.395L337.295 108.855L340.19 101.75H341.05L337.59 110H336.995ZM349.097 110.16C348.481 110.16 347.907 110.052 347.377 109.835C346.847 109.618 346.384 109.317 345.987 108.93C345.594 108.54 345.287 108.085 345.067 107.565C344.847 107.045 344.737 106.483 344.737 105.88C344.737 105.277 344.847 104.715 345.067 104.195C345.287 103.675 345.594 103.222 345.987 102.835C346.384 102.445 346.846 102.142 347.372 101.925C347.902 101.708 348.477 101.6 349.097 101.6C349.614 101.6 350.099 101.677 350.552 101.83C351.006 101.98 351.406 102.187 351.752 102.45L351.392 103.085C351.099 102.848 350.759 102.667 350.372 102.54C349.986 102.413 349.576 102.35 349.142 102.35C348.619 102.35 348.139 102.44 347.702 102.62C347.269 102.8 346.892 103.05 346.572 103.37C346.252 103.69 346.004 104.065 345.827 104.495C345.654 104.925 345.567 105.387 345.567 105.88C345.567 106.373 345.654 106.835 345.827 107.265C346.004 107.695 346.252 108.07 346.572 108.39C346.892 108.71 347.269 108.96 347.702 109.14C348.139 109.32 348.619 109.41 349.142 109.41C349.576 109.41 349.986 109.347 350.372 109.22C350.759 109.093 351.099 108.912 351.392 108.675L351.752 109.31C351.409 109.57 351.011 109.777 350.557 109.93C350.107 110.083 349.621 110.16 349.097 110.16ZM355.709 110.16C355.176 110.16 354.694 110.045 354.264 109.815C353.838 109.585 353.499 109.265 353.249 108.855C352.999 108.445 352.874 107.973 352.874 107.44C352.874 106.903 352.999 106.432 353.249 106.025C353.499 105.615 353.838 105.295 354.264 105.065C354.691 104.835 355.173 104.72 355.709 104.72C356.243 104.72 356.723 104.835 357.149 105.065C357.579 105.295 357.919 105.615 358.169 106.025C358.419 106.432 358.544 106.903 358.544 107.44C358.544 107.973 358.419 108.445 358.169 108.855C357.919 109.265 357.579 109.585 357.149 109.815C356.723 110.045 356.243 110.16 355.709 110.16ZM355.709 109.51C356.109 109.51 356.466 109.422 356.779 109.245C357.093 109.068 357.339 108.825 357.519 108.515C357.699 108.202 357.789 107.843 357.789 107.44C357.789 107.037 357.699 106.68 357.519 106.37C357.339 106.057 357.093 105.812 356.779 105.635C356.466 105.458 356.109 105.37 355.709 105.37C355.309 105.37 354.953 105.458 354.639 105.635C354.326 105.812 354.079 106.057 353.899 106.37C353.719 106.68 353.629 107.037 353.629 107.44C353.629 107.84 353.719 108.197 353.899 108.51C354.079 108.823 354.326 109.068 354.639 109.245C354.953 109.422 355.309 109.51 355.709 109.51ZM360.286 110V104.88H361.016V105.58C361.219 105.297 361.463 105.083 361.746 104.94C362.029 104.793 362.346 104.72 362.696 104.72C363.116 104.72 363.481 104.817 363.791 105.01C364.104 105.203 364.321 105.467 364.441 105.8C364.638 105.473 364.888 105.212 365.191 105.015C365.498 104.818 365.861 104.72 366.281 104.72C366.644 104.72 366.968 104.795 367.251 104.945C367.534 105.092 367.756 105.308 367.916 105.595C368.079 105.878 368.161 106.225 368.161 106.635V110H367.431V106.84C367.431 106.373 367.309 106.003 367.066 105.73C366.823 105.457 366.498 105.32 366.091 105.32C365.811 105.32 365.558 105.382 365.331 105.505C365.104 105.628 364.924 105.788 364.791 105.985C364.658 106.178 364.591 106.378 364.591 106.585V110H363.861V106.765C363.861 106.322 363.739 105.97 363.496 105.71C363.256 105.45 362.938 105.32 362.541 105.32C362.261 105.32 362.004 105.38 361.771 105.5C361.541 105.617 361.358 105.768 361.221 105.955C361.084 106.142 361.016 106.333 361.016 106.53V110H360.286ZM370.227 112.6V104.88H370.957V105.94C371.164 105.557 371.452 105.258 371.822 105.045C372.196 104.828 372.609 104.72 373.062 104.72C373.552 104.72 373.991 104.838 374.377 105.075C374.764 105.312 375.069 105.635 375.292 106.045C375.516 106.452 375.627 106.917 375.627 107.44C375.627 107.957 375.516 108.422 375.292 108.835C375.072 109.245 374.769 109.568 374.382 109.805C373.999 110.042 373.562 110.16 373.072 110.16C372.626 110.16 372.216 110.05 371.842 109.83C371.469 109.61 371.174 109.307 370.957 108.92V112.6H370.227ZM372.902 109.525C373.286 109.525 373.626 109.437 373.922 109.26C374.219 109.08 374.451 108.833 374.617 108.52C374.787 108.207 374.872 107.848 374.872 107.445C374.872 107.038 374.787 106.678 374.617 106.365C374.447 106.048 374.214 105.802 373.917 105.625C373.624 105.445 373.286 105.355 372.902 105.355C372.519 105.355 372.179 105.445 371.882 105.625C371.586 105.802 371.352 106.047 371.182 106.36C371.012 106.673 370.927 107.033 370.927 107.44C370.927 107.843 371.012 108.203 371.182 108.52C371.352 108.833 371.586 109.08 371.882 109.26C372.182 109.437 372.522 109.525 372.902 109.525ZM379.485 110.16C378.708 110.16 378.153 109.985 377.82 109.635C377.487 109.285 377.32 108.7 377.32 107.88V104.88H378.05V107.75C378.05 108.397 378.16 108.858 378.38 109.135C378.6 109.408 378.968 109.545 379.485 109.545C380.005 109.545 380.373 109.408 380.59 109.135C380.81 108.858 380.92 108.397 380.92 107.75V104.88H381.65V107.88C381.65 108.7 381.483 109.285 381.15 109.635C380.82 109.985 380.265 110.16 379.485 110.16ZM384.94 110.16C384.557 110.16 384.258 110.032 384.045 109.775C383.835 109.515 383.73 109.15 383.73 108.68V105.43H383.21V104.88H383.73V102.965H384.46V104.88H385.735V105.43H384.46V108.64C384.46 108.923 384.515 109.14 384.625 109.29C384.735 109.44 384.892 109.515 385.095 109.515C385.292 109.515 385.465 109.46 385.615 109.35L385.8 109.93C385.687 110 385.553 110.055 385.4 110.095C385.247 110.138 385.093 110.16 384.94 110.16ZM389.561 110.16C389.081 110.16 388.647 110.043 388.261 109.81C387.877 109.573 387.572 109.25 387.346 108.84C387.122 108.43 387.011 107.962 387.011 107.435C387.011 106.915 387.121 106.452 387.341 106.045C387.564 105.635 387.867 105.312 388.251 105.075C388.637 104.838 389.074 104.72 389.561 104.72C390.024 104.72 390.444 104.828 390.821 105.045C391.197 105.262 391.484 105.562 391.681 105.945V104.88H392.411V110H391.681V108.92C391.461 109.307 391.166 109.61 390.796 109.83C390.426 110.05 390.014 110.16 389.561 110.16ZM389.741 109.525C390.124 109.525 390.462 109.437 390.756 109.26C391.052 109.08 391.286 108.833 391.456 108.52C391.626 108.203 391.711 107.843 391.711 107.44C391.711 107.033 391.626 106.673 391.456 106.36C391.289 106.047 391.057 105.802 390.761 105.625C390.464 105.445 390.124 105.355 389.741 105.355C389.357 105.355 389.017 105.445 388.721 105.625C388.424 105.802 388.191 106.047 388.021 106.36C387.851 106.673 387.766 107.033 387.766 107.44C387.766 107.843 387.851 108.203 388.021 108.52C388.191 108.833 388.424 109.08 388.721 109.26C389.017 109.437 389.357 109.525 389.741 109.525ZM396.943 110.16C396.56 110.16 396.2 110.093 395.863 109.96C395.527 109.823 395.232 109.632 394.978 109.385C394.725 109.138 394.527 108.85 394.383 108.52C394.24 108.19 394.168 107.83 394.168 107.44C394.168 107.053 394.238 106.695 394.378 106.365C394.518 106.035 394.713 105.747 394.963 105.5C395.217 105.253 395.512 105.062 395.848 104.925C396.185 104.788 396.55 104.72 396.943 104.72C397.28 104.72 397.6 104.77 397.903 104.87C398.207 104.97 398.468 105.108 398.688 105.285L398.388 105.775C398.015 105.485 397.562 105.34 397.028 105.34C396.608 105.34 396.238 105.433 395.918 105.62C395.602 105.803 395.355 106.055 395.178 106.375C395.002 106.692 394.913 107.047 394.913 107.44C394.913 107.837 395.003 108.195 395.183 108.515C395.363 108.832 395.613 109.082 395.933 109.265C396.253 109.448 396.62 109.54 397.033 109.54C397.293 109.54 397.538 109.503 397.768 109.43C398.002 109.353 398.207 109.245 398.383 109.105L398.688 109.595C398.465 109.768 398.203 109.905 397.903 110.005C397.603 110.108 397.283 110.16 396.943 110.16ZM400.252 110V104.88H400.982V110H400.252ZM400.622 103.855C400.532 103.855 400.45 103.833 400.377 103.79C400.307 103.747 400.25 103.688 400.207 103.615C400.163 103.542 400.142 103.462 400.142 103.375C400.142 103.288 400.163 103.21 400.207 103.14C400.25 103.067 400.307 103.008 400.377 102.965C400.45 102.922 400.532 102.9 400.622 102.9C400.708 102.9 400.787 102.922 400.857 102.965C400.927 103.008 400.983 103.065 401.027 103.135C401.073 103.205 401.097 103.285 401.097 103.375C401.097 103.462 401.073 103.542 401.027 103.615C400.983 103.688 400.927 103.747 400.857 103.79C400.787 103.833 400.708 103.855 400.622 103.855ZM405.583 110.16C405.049 110.16 404.568 110.045 404.138 109.815C403.711 109.585 403.373 109.265 403.123 108.855C402.873 108.445 402.748 107.973 402.748 107.44C402.748 106.903 402.873 106.432 403.123 106.025C403.373 105.615 403.711 105.295 404.138 105.065C404.564 104.835 405.046 104.72 405.583 104.72C406.116 104.72 406.596 104.835 407.023 105.065C407.453 105.295 407.793 105.615 408.043 106.025C408.293 106.432 408.418 106.903 408.418 107.44C408.418 107.973 408.293 108.445 408.043 108.855C407.793 109.265 407.453 109.585 407.023 109.815C406.596 110.045 406.116 110.16 405.583 110.16ZM405.583 109.51C405.983 109.51 406.339 109.422 406.653 109.245C406.966 109.068 407.213 108.825 407.393 108.515C407.573 108.202 407.663 107.843 407.663 107.44C407.663 107.037 407.573 106.68 407.393 106.37C407.213 106.057 406.966 105.812 406.653 105.635C406.339 105.458 405.983 105.37 405.583 105.37C405.183 105.37 404.826 105.458 404.513 105.635C404.199 105.812 403.953 106.057 403.773 106.37C403.593 106.68 403.503 107.037 403.503 107.44C403.503 107.84 403.593 108.197 403.773 108.51C403.953 108.823 404.199 109.068 404.513 109.245C404.826 109.422 405.183 109.51 405.583 109.51ZM405.528 104.055L405.153 103.78L406.103 101.885L406.678 102.295L405.528 104.055ZM410.179 110V104.88H410.909V105.58C411.049 105.34 411.265 105.137 411.559 104.97C411.852 104.803 412.21 104.72 412.634 104.72C413.03 104.72 413.372 104.802 413.659 104.965C413.945 105.128 414.165 105.367 414.319 105.68C414.472 105.99 414.549 106.365 414.549 106.805V110H413.819V106.945C413.819 106.415 413.695 106.012 413.449 105.735C413.202 105.455 412.854 105.315 412.404 105.315C412.09 105.315 411.822 105.378 411.599 105.505C411.379 105.628 411.209 105.793 411.089 106C410.969 106.203 410.909 106.425 410.909 106.665V110H410.179ZM333.63 121V120.645C334.397 120.045 335.057 119.513 335.61 119.05C336.163 118.583 336.627 118.17 337 117.81C337.373 117.45 337.67 117.127 337.89 116.84C338.11 116.553 338.267 116.288 338.36 116.045C338.453 115.802 338.5 115.562 338.5 115.325C338.5 114.952 338.41 114.613 338.23 114.31C338.053 114.007 337.815 113.765 337.515 113.585C337.215 113.405 336.882 113.315 336.515 113.315C336.148 113.315 335.815 113.405 335.515 113.585C335.215 113.765 334.968 114.012 334.775 114.325C334.582 114.638 334.467 114.998 334.43 115.405L333.745 115.175C333.782 114.808 333.877 114.468 334.03 114.155C334.187 113.842 334.39 113.568 334.64 113.335C334.893 113.102 335.182 112.92 335.505 112.79C335.828 112.66 336.177 112.595 336.55 112.595C337.067 112.595 337.535 112.715 337.955 112.955C338.375 113.192 338.708 113.515 338.955 113.925C339.202 114.335 339.325 114.798 339.325 115.315C339.325 115.582 339.285 115.843 339.205 116.1C339.125 116.357 338.99 116.625 338.8 116.905C338.613 117.185 338.362 117.49 338.045 117.82C337.728 118.147 337.333 118.512 336.86 118.915C336.39 119.318 335.828 119.775 335.175 120.285H339.475V121H333.63ZM344.486 121.16C343.812 121.16 343.222 120.982 342.716 120.625C342.212 120.265 341.821 119.763 341.541 119.12C341.261 118.477 341.121 117.73 341.121 116.88C341.121 116.027 341.261 115.28 341.541 114.64C341.821 113.997 342.212 113.497 342.716 113.14C343.222 112.78 343.812 112.6 344.486 112.6C345.159 112.6 345.747 112.78 346.251 113.14C346.754 113.497 347.146 113.997 347.426 114.64C347.709 115.28 347.851 116.027 347.851 116.88C347.851 117.73 347.709 118.477 347.426 119.12C347.146 119.763 346.754 120.265 346.251 120.625C345.747 120.982 345.159 121.16 344.486 121.16ZM344.486 120.475C344.999 120.475 345.447 120.327 345.831 120.03C346.214 119.733 346.512 119.315 346.726 118.775C346.939 118.235 347.046 117.603 347.046 116.88C347.046 116.153 346.939 115.522 346.726 114.985C346.512 114.445 346.214 114.027 345.831 113.73C345.447 113.433 344.999 113.285 344.486 113.285C343.972 113.285 343.522 113.433 343.136 113.73C342.752 114.027 342.454 114.445 342.241 114.985C342.031 115.522 341.926 116.153 341.926 116.88C341.926 117.603 342.031 118.235 342.241 118.775C342.454 119.315 342.752 119.733 343.136 120.03C343.522 120.327 343.972 120.475 344.486 120.475ZM349.333 121V120.645C350.1 120.045 350.76 119.513 351.313 119.05C351.866 118.583 352.33 118.17 352.703 117.81C353.076 117.45 353.373 117.127 353.593 116.84C353.813 116.553 353.97 116.288 354.063 116.045C354.156 115.802 354.203 115.562 354.203 115.325C354.203 114.952 354.113 114.613 353.933 114.31C353.756 114.007 353.518 113.765 353.218 113.585C352.918 113.405 352.585 113.315 352.218 113.315C351.851 113.315 351.518 113.405 351.218 113.585C350.918 113.765 350.671 114.012 350.478 114.325C350.285 114.638 350.17 114.998 350.133 115.405L349.448 115.175C349.485 114.808 349.58 114.468 349.733 114.155C349.89 113.842 350.093 113.568 350.343 113.335C350.596 113.102 350.885 112.92 351.208 112.79C351.531 112.66 351.88 112.595 352.253 112.595C352.77 112.595 353.238 112.715 353.658 112.955C354.078 113.192 354.411 113.515 354.658 113.925C354.905 114.335 355.028 114.798 355.028 115.315C355.028 115.582 354.988 115.843 354.908 116.1C354.828 116.357 354.693 116.625 354.503 116.905C354.316 117.185 354.065 117.49 353.748 117.82C353.431 118.147 353.036 118.512 352.563 118.915C352.093 119.318 351.531 119.775 350.878 120.285H355.178V121H349.333ZM356.599 121V120.645C357.365 120.045 358.025 119.513 358.579 119.05C359.132 118.583 359.595 118.17 359.969 117.81C360.342 117.45 360.639 117.127 360.859 116.84C361.079 116.553 361.235 116.288 361.329 116.045C361.422 115.802 361.469 115.562 361.469 115.325C361.469 114.952 361.379 114.613 361.199 114.31C361.022 114.007 360.784 113.765 360.484 113.585C360.184 113.405 359.85 113.315 359.484 113.315C359.117 113.315 358.784 113.405 358.484 113.585C358.184 113.765 357.937 114.012 357.744 114.325C357.55 114.638 357.435 114.998 357.399 115.405L356.714 115.175C356.75 114.808 356.845 114.468 356.999 114.155C357.155 113.842 357.359 113.568 357.609 113.335C357.862 113.102 358.15 112.92 358.474 112.79C358.797 112.66 359.145 112.595 359.519 112.595C360.035 112.595 360.504 112.715 360.924 112.955C361.344 113.192 361.677 113.515 361.924 113.925C362.17 114.335 362.294 114.798 362.294 115.315C362.294 115.582 362.254 115.843 362.174 116.1C362.094 116.357 361.959 116.625 361.769 116.905C361.582 117.185 361.33 117.49 361.014 117.82C360.697 118.147 360.302 118.512 359.829 118.915C359.359 119.318 358.797 119.775 358.144 120.285H362.444V121H356.599Z" fill="white"/>
<path d="M338.808 57.192C338.06 57.192 337.358 57.06 336.702 56.796C336.046 56.532 335.468 56.166 334.968 55.698C334.468 55.226 334.078 54.68 333.798 54.06C333.518 53.44 333.378 52.774 333.378 52.062C333.378 51.346 333.518 50.678 333.798 50.058C334.082 49.434 334.472 48.888 334.968 48.42C335.468 47.948 336.044 47.58 336.696 47.316C337.352 47.052 338.052 46.92 338.796 46.92C339.404 46.92 339.982 47.006 340.53 47.178C341.082 47.35 341.554 47.576 341.946 47.856L341.106 49.506C340.838 49.294 340.512 49.128 340.128 49.008C339.744 48.888 339.342 48.828 338.922 48.828C338.43 48.828 337.974 48.91 337.554 49.074C337.138 49.238 336.774 49.466 336.462 49.758C336.154 50.05 335.914 50.392 335.742 50.784C335.57 51.176 335.484 51.6 335.484 52.056C335.484 52.512 335.57 52.936 335.742 53.328C335.914 53.72 336.154 54.062 336.462 54.354C336.774 54.646 337.138 54.874 337.554 55.038C337.974 55.202 338.43 55.284 338.922 55.284C339.342 55.284 339.744 55.224 340.128 55.104C340.512 54.984 340.838 54.818 341.106 54.606L341.946 56.256C341.57 56.528 341.108 56.752 340.56 56.928C340.012 57.104 339.428 57.192 338.808 57.192ZM343.262 57V50.856H345.104V51.738C345.332 51.394 345.61 51.13 345.938 50.946C346.27 50.758 346.626 50.664 347.006 50.664C347.222 50.664 347.446 50.696 347.678 50.76C347.91 50.824 348.104 50.906 348.26 51.006L347.492 52.56C347.356 52.468 347.196 52.396 347.012 52.344C346.832 52.288 346.664 52.26 346.508 52.26C346.268 52.26 346.04 52.322 345.824 52.446C345.608 52.57 345.434 52.732 345.302 52.932C345.17 53.128 345.104 53.34 345.104 53.568V57H343.262ZM349.279 57V50.856H351.121V57H349.279ZM350.203 49.578C350.003 49.578 349.819 49.53 349.651 49.434C349.487 49.334 349.355 49.2 349.255 49.032C349.155 48.864 349.105 48.68 349.105 48.48C349.105 48.28 349.155 48.098 349.255 47.934C349.355 47.77 349.487 47.64 349.651 47.544C349.819 47.444 350.003 47.394 350.203 47.394C350.403 47.394 350.585 47.444 350.749 47.544C350.913 47.64 351.043 47.77 351.139 47.934C351.239 48.098 351.289 48.28 351.289 48.48C351.289 48.68 351.239 48.864 351.139 49.032C351.043 49.2 350.913 49.334 350.749 49.434C350.585 49.53 350.403 49.578 350.203 49.578ZM355.033 57.192C354.513 57.192 354.047 57.11 353.635 56.946C353.227 56.782 352.887 56.542 352.615 56.226L353.389 54.99C353.645 55.262 353.913 55.47 354.193 55.614C354.473 55.758 354.753 55.83 355.033 55.83C355.189 55.83 355.323 55.804 355.435 55.752C355.551 55.7 355.641 55.626 355.705 55.53C355.773 55.43 355.807 55.31 355.807 55.17C355.807 55.01 355.761 54.884 355.669 54.792C355.581 54.7 355.445 54.616 355.261 54.54C355.077 54.46 354.839 54.36 354.547 54.24C354.299 54.136 354.061 54.018 353.833 53.886C353.605 53.754 353.419 53.586 353.275 53.382C353.135 53.178 353.065 52.92 353.065 52.608C353.065 52.228 353.171 51.894 353.383 51.606C353.595 51.314 353.887 51.086 354.259 50.922C354.635 50.758 355.067 50.676 355.555 50.676C355.859 50.676 356.177 50.722 356.509 50.814C356.845 50.906 357.203 51.046 357.583 51.234L356.953 52.416C356.437 52.084 355.975 51.918 355.567 51.918C355.339 51.918 355.157 51.968 355.021 52.068C354.885 52.168 354.817 52.294 354.817 52.446C354.817 52.59 354.887 52.716 355.027 52.824C355.171 52.928 355.345 53.022 355.549 53.106C355.757 53.186 355.955 53.26 356.143 53.328C356.451 53.44 356.723 53.564 356.959 53.7C357.199 53.836 357.387 54.014 357.523 54.234C357.659 54.45 357.727 54.74 357.727 55.104C357.727 55.548 357.619 55.926 357.403 56.238C357.191 56.546 356.883 56.782 356.479 56.946C356.079 57.11 355.597 57.192 355.033 57.192ZM361.446 57.192C360.834 57.192 360.358 56.998 360.018 56.61C359.678 56.218 359.508 55.672 359.508 54.972V52.254H358.686V50.856H359.508V48.552H361.35V50.856H362.7V52.254H361.35V54.84C361.35 55.072 361.396 55.248 361.488 55.368C361.584 55.488 361.718 55.548 361.89 55.548C362.082 55.548 362.266 55.484 362.442 55.356L362.904 56.832C362.696 56.944 362.462 57.032 362.202 57.096C361.946 57.16 361.694 57.192 361.446 57.192ZM367.556 57.192C366.88 57.192 366.27 57.054 365.726 56.778C365.182 56.498 364.75 56.114 364.43 55.626C364.11 55.134 363.95 54.568 363.95 53.928C363.95 53.288 364.108 52.724 364.424 52.236C364.744 51.744 365.176 51.36 365.72 51.084C366.268 50.804 366.88 50.664 367.556 50.664C368.236 50.664 368.848 50.804 369.392 51.084C369.936 51.36 370.366 51.744 370.682 52.236C371.002 52.724 371.162 53.288 371.162 53.928C371.162 54.568 371.002 55.134 370.682 55.626C370.366 56.114 369.936 56.498 369.392 56.778C368.848 57.054 368.236 57.192 367.556 57.192ZM367.562 55.62C367.874 55.62 368.158 55.548 368.414 55.404C368.67 55.26 368.872 55.062 369.02 54.81C369.168 54.554 369.242 54.26 369.242 53.928C369.242 53.596 369.168 53.304 369.02 53.052C368.872 52.796 368.67 52.596 368.414 52.452C368.158 52.308 367.874 52.236 367.562 52.236C367.246 52.236 366.96 52.308 366.704 52.452C366.452 52.596 366.252 52.796 366.104 53.052C365.956 53.304 365.882 53.596 365.882 53.928C365.882 54.26 365.956 54.554 366.104 54.81C366.252 55.062 366.452 55.26 366.704 55.404C366.96 55.548 367.246 55.62 367.562 55.62ZM372.77 60.12V50.856H374.612V51.606C374.86 51.306 375.168 51.074 375.536 50.91C375.904 50.746 376.3 50.664 376.724 50.664C377.316 50.664 377.842 50.806 378.302 51.09C378.766 51.374 379.13 51.762 379.394 52.254C379.662 52.746 379.796 53.304 379.796 53.928C379.796 54.544 379.664 55.1 379.4 55.596C379.136 56.088 378.774 56.478 378.314 56.766C377.858 57.05 377.342 57.192 376.766 57.192C376.346 57.192 375.95 57.106 375.578 56.934C375.206 56.758 374.884 56.51 374.612 56.19V60.12H372.77ZM376.22 55.626C376.54 55.626 376.822 55.554 377.066 55.41C377.314 55.262 377.508 55.062 377.648 54.81C377.788 54.554 377.858 54.262 377.858 53.934C377.858 53.606 377.786 53.314 377.642 53.058C377.498 52.802 377.304 52.6 377.06 52.452C376.816 52.304 376.536 52.23 376.22 52.23C375.904 52.23 375.62 52.304 375.368 52.452C375.12 52.6 374.924 52.802 374.78 53.058C374.636 53.31 374.564 53.602 374.564 53.934C374.564 54.258 374.634 54.548 374.774 54.804C374.918 55.06 375.116 55.262 375.368 55.41C375.62 55.554 375.904 55.626 376.22 55.626ZM381.488 57V46.68H383.33V51.54C383.566 51.276 383.86 51.064 384.212 50.904C384.568 50.744 384.96 50.664 385.388 50.664C385.86 50.664 386.274 50.768 386.63 50.976C386.99 51.18 387.272 51.466 387.476 51.834C387.68 52.198 387.782 52.624 387.782 53.112V57H385.94V53.502C385.94 53.062 385.824 52.72 385.592 52.476C385.364 52.228 385.05 52.104 384.65 52.104C384.378 52.104 384.142 52.16 383.942 52.272C383.746 52.38 383.594 52.53 383.486 52.722C383.382 52.91 383.33 53.124 383.33 53.364V57H381.488ZM392.784 57.192C392.12 57.192 391.524 57.05 390.996 56.766C390.472 56.478 390.056 56.088 389.748 55.596C389.44 55.104 389.286 54.548 389.286 53.928C389.286 53.472 389.372 53.046 389.544 52.65C389.72 52.254 389.964 51.908 390.276 51.612C390.588 51.312 390.95 51.08 391.362 50.916C391.774 50.748 392.22 50.664 392.7 50.664C393.34 50.664 393.9 50.798 394.38 51.066C394.864 51.33 395.24 51.698 395.508 52.17C395.78 52.642 395.916 53.192 395.916 53.82C395.916 53.872 395.914 53.918 395.91 53.958C395.91 53.994 395.904 54.064 395.892 54.168H391.182C391.182 54.48 391.252 54.752 391.392 54.984C391.536 55.216 391.736 55.398 391.992 55.53C392.248 55.658 392.546 55.722 392.886 55.722C393.206 55.722 393.488 55.66 393.732 55.536C393.98 55.412 394.218 55.214 394.446 54.942L395.772 55.608C395.484 56.104 395.076 56.492 394.548 56.772C394.02 57.052 393.432 57.192 392.784 57.192ZM391.248 53.148H394.104C394.064 52.912 393.978 52.708 393.846 52.536C393.718 52.364 393.554 52.232 393.354 52.14C393.154 52.048 392.928 52.002 392.676 52.002C392.408 52.002 392.172 52.048 391.968 52.14C391.764 52.232 391.6 52.364 391.476 52.536C391.352 52.708 391.276 52.912 391.248 53.148ZM397.555 57V50.856H399.397V51.738C399.625 51.394 399.903 51.13 400.231 50.946C400.563 50.758 400.919 50.664 401.299 50.664C401.515 50.664 401.739 50.696 401.971 50.76C402.203 50.824 402.397 50.906 402.553 51.006L401.785 52.56C401.649 52.468 401.489 52.396 401.305 52.344C401.125 52.288 400.957 52.26 400.801 52.26C400.561 52.26 400.333 52.322 400.117 52.446C399.901 52.57 399.727 52.732 399.595 52.932C399.463 53.128 399.397 53.34 399.397 53.568V57H397.555ZM334.35 70V60.1H337.068C337.772 60.1 338.426 60.226 339.03 60.478C339.634 60.73 340.162 61.082 340.614 61.534C341.07 61.986 341.424 62.512 341.676 63.112C341.932 63.712 342.06 64.36 342.06 65.056C342.06 65.756 341.934 66.406 341.682 67.006C341.43 67.602 341.076 68.126 340.62 68.578C340.168 69.026 339.638 69.376 339.03 69.628C338.426 69.876 337.772 70 337.068 70H334.35ZM336.294 68.26H336.852C337.3 68.26 337.714 68.18 338.094 68.02C338.474 67.86 338.804 67.636 339.084 67.348C339.364 67.06 339.582 66.722 339.738 66.334C339.894 65.942 339.972 65.514 339.972 65.05C339.972 64.59 339.894 64.166 339.738 63.778C339.582 63.386 339.364 63.046 339.084 62.758C338.804 62.466 338.474 62.24 338.094 62.08C337.714 61.92 337.3 61.84 336.852 61.84H336.294V68.26ZM346.316 70.192C345.752 70.192 345.238 70.052 344.774 69.772C344.314 69.488 343.948 69.1 343.676 68.608C343.408 68.112 343.274 67.548 343.274 66.916C343.274 66.3 343.404 65.748 343.664 65.26C343.924 64.768 344.282 64.38 344.738 64.096C345.198 63.808 345.724 63.664 346.316 63.664C346.752 63.664 347.158 63.748 347.534 63.916C347.914 64.08 348.224 64.31 348.464 64.606V63.856H350.306V70H348.464V69.19C348.184 69.514 347.862 69.762 347.498 69.934C347.134 70.106 346.74 70.192 346.316 70.192ZM346.862 68.626C347.182 68.626 347.466 68.554 347.714 68.41C347.962 68.262 348.156 68.06 348.296 67.804C348.436 67.548 348.506 67.256 348.506 66.928C348.506 66.596 348.434 66.304 348.29 66.052C348.15 65.796 347.956 65.596 347.708 65.452C347.464 65.304 347.182 65.23 346.862 65.23C346.546 65.23 346.264 65.304 346.016 65.452C345.768 65.596 345.572 65.796 345.428 66.052C345.284 66.308 345.212 66.6 345.212 66.928C345.212 67.256 345.282 67.548 345.422 67.804C345.566 68.06 345.762 68.262 346.01 68.41C346.258 68.554 346.542 68.626 346.862 68.626ZM354.49 70L351.262 63.856H353.434L355.108 67.564L356.782 63.856H358.954L355.72 70H354.49ZM359.955 70V63.856H361.797V70H359.955ZM360.879 62.578C360.679 62.578 360.495 62.53 360.327 62.434C360.163 62.334 360.031 62.2 359.931 62.032C359.831 61.864 359.781 61.68 359.781 61.48C359.781 61.28 359.831 61.098 359.931 60.934C360.031 60.77 360.163 60.64 360.327 60.544C360.495 60.444 360.679 60.394 360.879 60.394C361.079 60.394 361.261 60.444 361.425 60.544C361.589 60.64 361.719 60.77 361.815 60.934C361.915 61.098 361.965 61.28 361.965 61.48C361.965 61.68 361.915 61.864 361.815 62.032C361.719 62.2 361.589 62.334 361.425 62.434C361.261 62.53 361.079 62.578 360.879 62.578ZM366.513 70.192C365.957 70.192 365.449 70.054 364.989 69.778C364.533 69.498 364.169 69.112 363.897 68.62C363.625 68.128 363.489 67.564 363.489 66.928C363.489 66.304 363.621 65.748 363.885 65.26C364.149 64.768 364.511 64.38 364.971 64.096C365.435 63.808 365.965 63.664 366.561 63.664C366.993 63.664 367.393 63.748 367.761 63.916C368.129 64.08 368.435 64.31 368.679 64.606V59.68H370.521V70H368.679V69.19C368.407 69.506 368.085 69.752 367.713 69.928C367.341 70.104 366.941 70.192 366.513 70.192ZM367.065 68.626C367.389 68.626 367.675 68.554 367.923 68.41C368.171 68.262 368.365 68.06 368.505 67.804C368.649 67.548 368.721 67.258 368.721 66.934C368.721 66.606 368.649 66.314 368.505 66.058C368.365 65.802 368.171 65.6 367.923 65.452C367.675 65.304 367.391 65.23 367.071 65.23C366.755 65.23 366.473 65.304 366.225 65.452C365.981 65.6 365.787 65.804 365.643 66.064C365.499 66.32 365.427 66.612 365.427 66.94C365.427 67.264 365.497 67.554 365.637 67.81C365.777 68.062 365.971 68.262 366.219 68.41C366.467 68.554 366.749 68.626 367.065 68.626ZM377.004 70V61.816H374.496V60.1H381.456V61.816H378.942V70H377.004ZM384.934 70.192C383.814 70.192 383.006 69.97 382.51 69.526C382.014 69.082 381.766 68.356 381.766 67.348V63.856H383.608V66.916C383.608 67.564 383.708 68.022 383.908 68.29C384.112 68.558 384.454 68.692 384.934 68.692C385.422 68.692 385.764 68.558 385.96 68.29C386.16 68.022 386.26 67.564 386.26 66.916V63.856H388.102V67.348C388.102 68.356 387.854 69.082 387.358 69.526C386.866 69.97 386.058 70.192 384.934 70.192ZM390.125 70V63.856H391.967V64.54C392.271 64.236 392.573 64.014 392.873 63.874C393.173 63.734 393.497 63.664 393.845 63.664C394.317 63.664 394.743 63.77 395.123 63.982C395.503 64.194 395.775 64.478 395.939 64.834C396.239 64.446 396.561 64.154 396.905 63.958C397.249 63.762 397.643 63.664 398.087 63.664C398.531 63.664 398.925 63.756 399.269 63.94C399.613 64.124 399.883 64.386 400.079 64.726C400.279 65.062 400.379 65.46 400.379 65.92V70H398.537V66.424C398.537 66.024 398.433 65.71 398.225 65.482C398.017 65.25 397.739 65.134 397.391 65.134C397.151 65.134 396.939 65.184 396.755 65.284C396.575 65.384 396.433 65.518 396.329 65.686C396.225 65.854 396.173 66.04 396.173 66.244V70H394.331V66.388C394.331 66.008 394.229 65.704 394.025 65.476C393.825 65.248 393.547 65.134 393.191 65.134C392.955 65.134 392.743 65.184 392.555 65.284C392.371 65.384 392.227 65.52 392.123 65.692C392.019 65.864 391.967 66.054 391.967 66.262V70H390.125ZM333.894 83L334.878 73.1H336.942L339.306 79.292L341.67 73.1H343.734L344.718 83H342.774L342.162 76.592L339.9 82.754H338.706L336.45 76.592L335.832 83H333.894ZM346.689 83V76.856H348.531V83H346.689ZM347.613 75.578C347.413 75.578 347.229 75.53 347.061 75.434C346.897 75.334 346.765 75.2 346.665 75.032C346.565 74.864 346.515 74.68 346.515 74.48C346.515 74.28 346.565 74.098 346.665 73.934C346.765 73.77 346.897 73.64 347.061 73.544C347.229 73.444 347.413 73.394 347.613 73.394C347.813 73.394 347.995 73.444 348.159 73.544C348.323 73.64 348.453 73.77 348.549 73.934C348.649 74.098 348.699 74.28 348.699 74.48C348.699 74.68 348.649 74.864 348.549 75.032C348.453 75.2 348.323 75.334 348.159 75.434C347.995 75.53 347.813 75.578 347.613 75.578ZM350.703 83V76.856H352.545V77.738C352.773 77.394 353.051 77.13 353.379 76.946C353.711 76.758 354.067 76.664 354.447 76.664C354.663 76.664 354.887 76.696 355.119 76.76C355.351 76.824 355.545 76.906 355.701 77.006L354.933 78.56C354.797 78.468 354.637 78.396 354.453 78.344C354.273 78.288 354.105 78.26 353.949 78.26C353.709 78.26 353.481 78.322 353.265 78.446C353.049 78.57 352.875 78.732 352.743 78.932C352.611 79.128 352.545 79.34 352.545 79.568V83H350.703ZM359.195 83.192C358.631 83.192 358.117 83.052 357.653 82.772C357.193 82.488 356.827 82.1 356.555 81.608C356.287 81.112 356.153 80.548 356.153 79.916C356.153 79.3 356.283 78.748 356.543 78.26C356.803 77.768 357.161 77.38 357.617 77.096C358.077 76.808 358.603 76.664 359.195 76.664C359.631 76.664 360.037 76.748 360.413 76.916C360.793 77.08 361.103 77.31 361.343 77.606V76.856H363.185V83H361.343V82.19C361.063 82.514 360.741 82.762 360.377 82.934C360.013 83.106 359.619 83.192 359.195 83.192ZM359.741 81.626C360.061 81.626 360.345 81.554 360.593 81.41C360.841 81.262 361.035 81.06 361.175 80.804C361.315 80.548 361.385 80.256 361.385 79.928C361.385 79.596 361.313 79.304 361.169 79.052C361.029 78.796 360.835 78.596 360.587 78.452C360.343 78.304 360.061 78.23 359.741 78.23C359.425 78.23 359.143 78.304 358.895 78.452C358.647 78.596 358.451 78.796 358.307 79.052C358.163 79.308 358.091 79.6 358.091 79.928C358.091 80.256 358.161 80.548 358.301 80.804C358.445 81.06 358.641 81.262 358.889 81.41C359.137 81.554 359.421 81.626 359.741 81.626ZM365.352 83V76.856H367.194V77.54C367.43 77.276 367.724 77.064 368.076 76.904C368.432 76.744 368.824 76.664 369.252 76.664C369.724 76.664 370.138 76.768 370.494 76.976C370.854 77.18 371.136 77.466 371.34 77.834C371.544 78.198 371.646 78.624 371.646 79.112V83H369.804V79.502C369.804 79.062 369.688 78.72 369.456 78.476C369.228 78.228 368.914 78.104 368.514 78.104C368.242 78.104 368.006 78.16 367.806 78.272C367.61 78.38 367.458 78.53 367.35 78.722C367.246 78.91 367.194 79.124 367.194 79.364V83H365.352ZM376.239 83.192C375.683 83.192 375.175 83.054 374.715 82.778C374.259 82.498 373.895 82.112 373.623 81.62C373.351 81.128 373.215 80.564 373.215 79.928C373.215 79.304 373.347 78.748 373.611 78.26C373.875 77.768 374.237 77.38 374.697 77.096C375.161 76.808 375.691 76.664 376.287 76.664C376.719 76.664 377.119 76.748 377.487 76.916C377.855 77.08 378.161 77.31 378.405 77.606V72.68H380.247V83H378.405V82.19C378.133 82.506 377.811 82.752 377.439 82.928C377.067 83.104 376.667 83.192 376.239 83.192ZM376.791 81.626C377.115 81.626 377.401 81.554 377.649 81.41C377.897 81.262 378.091 81.06 378.231 80.804C378.375 80.548 378.447 80.258 378.447 79.934C378.447 79.606 378.375 79.314 378.231 79.058C378.091 78.802 377.897 78.6 377.649 78.452C377.401 78.304 377.117 78.23 376.797 78.23C376.481 78.23 376.199 78.304 375.951 78.452C375.707 78.6 375.513 78.804 375.369 79.064C375.225 79.32 375.153 79.612 375.153 79.94C375.153 80.264 375.223 80.554 375.363 80.81C375.503 81.062 375.697 81.262 375.945 81.41C376.193 81.554 376.475 81.626 376.791 81.626ZM384.976 83.192C384.412 83.192 383.898 83.052 383.434 82.772C382.974 82.488 382.608 82.1 382.336 81.608C382.068 81.112 381.934 80.548 381.934 79.916C381.934 79.3 382.064 78.748 382.324 78.26C382.584 77.768 382.942 77.38 383.398 77.096C383.858 76.808 384.384 76.664 384.976 76.664C385.412 76.664 385.818 76.748 386.194 76.916C386.574 77.08 386.884 77.31 387.124 77.606V76.856H388.966V83H387.124V82.19C386.844 82.514 386.522 82.762 386.158 82.934C385.794 83.106 385.4 83.192 384.976 83.192ZM385.522 81.626C385.842 81.626 386.126 81.554 386.374 81.41C386.622 81.262 386.816 81.06 386.956 80.804C387.096 80.548 387.166 80.256 387.166 79.928C387.166 79.596 387.094 79.304 386.95 79.052C386.81 78.796 386.616 78.596 386.368 78.452C386.124 78.304 385.842 78.23 385.522 78.23C385.206 78.23 384.924 78.304 384.676 78.452C384.428 78.596 384.232 78.796 384.088 79.052C383.944 79.308 383.872 79.6 383.872 79.928C383.872 80.256 383.942 80.548 384.082 80.804C384.226 81.06 384.422 81.262 384.67 81.41C384.918 81.554 385.202 81.626 385.522 81.626Z" fill="white"/>
<rect width="215" height="168" rx="29" fill="#4AAEAD"/>
<rect x="11" y="11" width="88" height="146" rx="29" fill="white" fill-opacity="0.5"/>
<path d="M113.995 101L110.535 92.75H111.395L114.295 99.855L117.19 92.75H118.05L114.59 101H113.995ZM126.097 101.16C125.481 101.16 124.907 101.052 124.377 100.835C123.847 100.618 123.384 100.317 122.987 99.93C122.594 99.54 122.287 99.085 122.067 98.565C121.847 98.045 121.737 97.4833 121.737 96.88C121.737 96.2767 121.847 95.715 122.067 95.195C122.287 94.675 122.594 94.2217 122.987 93.835C123.384 93.445 123.846 93.1417 124.372 92.925C124.902 92.7083 125.477 92.6 126.097 92.6C126.614 92.6 127.099 92.6767 127.552 92.83C128.006 92.98 128.406 93.1867 128.752 93.45L128.392 94.085C128.099 93.8483 127.759 93.6667 127.372 93.54C126.986 93.4133 126.576 93.35 126.142 93.35C125.619 93.35 125.139 93.44 124.702 93.62C124.269 93.8 123.892 94.05 123.572 94.37C123.252 94.69 123.004 95.065 122.827 95.495C122.654 95.925 122.567 96.3867 122.567 96.88C122.567 97.3733 122.654 97.835 122.827 98.265C123.004 98.695 123.252 99.07 123.572 99.39C123.892 99.71 124.269 99.96 124.702 100.14C125.139 100.32 125.619 100.41 126.142 100.41C126.576 100.41 126.986 100.347 127.372 100.22C127.759 100.093 128.099 99.9117 128.392 99.675L128.752 100.31C128.409 100.57 128.011 100.777 127.557 100.93C127.107 101.083 126.621 101.16 126.097 101.16ZM132.709 101.16C132.176 101.16 131.694 101.045 131.264 100.815C130.838 100.585 130.499 100.265 130.249 99.855C129.999 99.445 129.874 98.9733 129.874 98.44C129.874 97.9033 129.999 97.4317 130.249 97.025C130.499 96.615 130.838 96.295 131.264 96.065C131.691 95.835 132.173 95.72 132.709 95.72C133.243 95.72 133.723 95.835 134.149 96.065C134.579 96.295 134.919 96.615 135.169 97.025C135.419 97.4317 135.544 97.9033 135.544 98.44C135.544 98.9733 135.419 99.445 135.169 99.855C134.919 100.265 134.579 100.585 134.149 100.815C133.723 101.045 133.243 101.16 132.709 101.16ZM132.709 100.51C133.109 100.51 133.466 100.422 133.779 100.245C134.093 100.068 134.339 99.825 134.519 99.515C134.699 99.2017 134.789 98.8433 134.789 98.44C134.789 98.0367 134.699 97.68 134.519 97.37C134.339 97.0567 134.093 96.8117 133.779 96.635C133.466 96.4583 133.109 96.37 132.709 96.37C132.309 96.37 131.953 96.4583 131.639 96.635C131.326 96.8117 131.079 97.0567 130.899 97.37C130.719 97.68 130.629 98.0367 130.629 98.44C130.629 98.84 130.719 99.1967 130.899 99.51C131.079 99.8233 131.326 100.068 131.639 100.245C131.953 100.422 132.309 100.51 132.709 100.51ZM137.286 101V95.88H138.016V96.58C138.219 96.2967 138.463 96.0833 138.746 95.94C139.029 95.7933 139.346 95.72 139.696 95.72C140.116 95.72 140.481 95.8167 140.791 96.01C141.104 96.2033 141.321 96.4667 141.441 96.8C141.638 96.4733 141.888 96.2117 142.191 96.015C142.498 95.8183 142.861 95.72 143.281 95.72C143.644 95.72 143.968 95.795 144.251 95.945C144.534 96.0917 144.756 96.3083 144.916 96.595C145.079 96.8783 145.161 97.225 145.161 97.635V101H144.431V97.84C144.431 97.3733 144.309 97.0033 144.066 96.73C143.823 96.4567 143.498 96.32 143.091 96.32C142.811 96.32 142.558 96.3817 142.331 96.505C142.104 96.6283 141.924 96.7883 141.791 96.985C141.658 97.1783 141.591 97.3783 141.591 97.585V101H140.861V97.765C140.861 97.3217 140.739 96.97 140.496 96.71C140.256 96.45 139.938 96.32 139.541 96.32C139.261 96.32 139.004 96.38 138.771 96.5C138.541 96.6167 138.358 96.7683 138.221 96.955C138.084 97.1417 138.016 97.3333 138.016 97.53V101H137.286ZM147.227 103.6V95.88H147.957V96.94C148.164 96.5567 148.452 96.2583 148.822 96.045C149.196 95.8283 149.609 95.72 150.062 95.72C150.552 95.72 150.991 95.8383 151.377 96.075C151.764 96.3117 152.069 96.635 152.292 97.045C152.516 97.4517 152.627 97.9167 152.627 98.44C152.627 98.9567 152.516 99.4217 152.292 99.835C152.072 100.245 151.769 100.568 151.382 100.805C150.999 101.042 150.562 101.16 150.072 101.16C149.626 101.16 149.216 101.05 148.842 100.83C148.469 100.61 148.174 100.307 147.957 99.92V103.6H147.227ZM149.902 100.525C150.286 100.525 150.626 100.437 150.922 100.26C151.219 100.08 151.451 99.8333 151.617 99.52C151.787 99.2067 151.872 98.8483 151.872 98.445C151.872 98.0383 151.787 97.6783 151.617 97.365C151.447 97.0483 151.214 96.8017 150.917 96.625C150.624 96.445 150.286 96.355 149.902 96.355C149.519 96.355 149.179 96.445 148.882 96.625C148.586 96.8017 148.352 97.0467 148.182 97.36C148.012 97.6733 147.927 98.0333 147.927 98.44C147.927 98.8433 148.012 99.2033 148.182 99.52C148.352 99.8333 148.586 100.08 148.882 100.26C149.182 100.437 149.522 100.525 149.902 100.525ZM156.485 101.16C155.708 101.16 155.153 100.985 154.82 100.635C154.487 100.285 154.32 99.7 154.32 98.88V95.88H155.05V98.75C155.05 99.3967 155.16 99.8583 155.38 100.135C155.6 100.408 155.968 100.545 156.485 100.545C157.005 100.545 157.373 100.408 157.59 100.135C157.81 99.8583 157.92 99.3967 157.92 98.75V95.88H158.65V98.88C158.65 99.7 158.483 100.285 158.15 100.635C157.82 100.985 157.265 101.16 156.485 101.16ZM161.94 101.16C161.557 101.16 161.258 101.032 161.045 100.775C160.835 100.515 160.73 100.15 160.73 99.68V96.43H160.21V95.88H160.73V93.965H161.46V95.88H162.735V96.43H161.46V99.64C161.46 99.9233 161.515 100.14 161.625 100.29C161.735 100.44 161.892 100.515 162.095 100.515C162.292 100.515 162.465 100.46 162.615 100.35L162.8 100.93C162.687 101 162.553 101.055 162.4 101.095C162.247 101.138 162.093 101.16 161.94 101.16ZM166.561 101.16C166.081 101.16 165.647 101.043 165.261 100.81C164.877 100.573 164.572 100.25 164.346 99.84C164.122 99.43 164.011 98.9617 164.011 98.435C164.011 97.915 164.121 97.4517 164.341 97.045C164.564 96.635 164.867 96.3117 165.251 96.075C165.637 95.8383 166.074 95.72 166.561 95.72C167.024 95.72 167.444 95.8283 167.821 96.045C168.197 96.2617 168.484 96.5617 168.681 96.945V95.88H169.411V101H168.681V99.92C168.461 100.307 168.166 100.61 167.796 100.83C167.426 101.05 167.014 101.16 166.561 101.16ZM166.741 100.525C167.124 100.525 167.462 100.437 167.756 100.26C168.052 100.08 168.286 99.8333 168.456 99.52C168.626 99.2033 168.711 98.8433 168.711 98.44C168.711 98.0333 168.626 97.6733 168.456 97.36C168.289 97.0467 168.057 96.8017 167.761 96.625C167.464 96.445 167.124 96.355 166.741 96.355C166.357 96.355 166.017 96.445 165.721 96.625C165.424 96.8017 165.191 97.0467 165.021 97.36C164.851 97.6733 164.766 98.0333 164.766 98.44C164.766 98.8433 164.851 99.2033 165.021 99.52C165.191 99.8333 165.424 100.08 165.721 100.26C166.017 100.437 166.357 100.525 166.741 100.525ZM173.943 101.16C173.56 101.16 173.2 101.093 172.863 100.96C172.527 100.823 172.232 100.632 171.978 100.385C171.725 100.138 171.527 99.85 171.383 99.52C171.24 99.19 171.168 98.83 171.168 98.44C171.168 98.0533 171.238 97.695 171.378 97.365C171.518 97.035 171.713 96.7467 171.963 96.5C172.217 96.2533 172.512 96.0617 172.848 95.925C173.185 95.7883 173.55 95.72 173.943 95.72C174.28 95.72 174.6 95.77 174.903 95.87C175.207 95.97 175.468 96.1083 175.688 96.285L175.388 96.775C175.015 96.485 174.562 96.34 174.028 96.34C173.608 96.34 173.238 96.4333 172.918 96.62C172.602 96.8033 172.355 97.055 172.178 97.375C172.002 97.6917 171.913 98.0467 171.913 98.44C171.913 98.8367 172.003 99.195 172.183 99.515C172.363 99.8317 172.613 100.082 172.933 100.265C173.253 100.448 173.62 100.54 174.033 100.54C174.293 100.54 174.538 100.503 174.768 100.43C175.002 100.353 175.207 100.245 175.383 100.105L175.688 100.595C175.465 100.768 175.203 100.905 174.903 101.005C174.603 101.108 174.283 101.16 173.943 101.16ZM177.252 101V95.88H177.982V101H177.252ZM177.622 94.855C177.532 94.855 177.45 94.8333 177.377 94.79C177.307 94.7467 177.25 94.6883 177.207 94.615C177.163 94.5417 177.142 94.4617 177.142 94.375C177.142 94.2883 177.163 94.21 177.207 94.14C177.25 94.0667 177.307 94.0083 177.377 93.965C177.45 93.9217 177.532 93.9 177.622 93.9C177.708 93.9 177.787 93.9217 177.857 93.965C177.927 94.0083 177.983 94.065 178.027 94.135C178.073 94.205 178.097 94.285 178.097 94.375C178.097 94.4617 178.073 94.5417 178.027 94.615C177.983 94.6883 177.927 94.7467 177.857 94.79C177.787 94.8333 177.708 94.855 177.622 94.855ZM182.583 101.16C182.049 101.16 181.568 101.045 181.138 100.815C180.711 100.585 180.373 100.265 180.123 99.855C179.873 99.445 179.748 98.9733 179.748 98.44C179.748 97.9033 179.873 97.4317 180.123 97.025C180.373 96.615 180.711 96.295 181.138 96.065C181.564 95.835 182.046 95.72 182.583 95.72C183.116 95.72 183.596 95.835 184.023 96.065C184.453 96.295 184.793 96.615 185.043 97.025C185.293 97.4317 185.418 97.9033 185.418 98.44C185.418 98.9733 185.293 99.445 185.043 99.855C184.793 100.265 184.453 100.585 184.023 100.815C183.596 101.045 183.116 101.16 182.583 101.16ZM182.583 100.51C182.983 100.51 183.339 100.422 183.653 100.245C183.966 100.068 184.213 99.825 184.393 99.515C184.573 99.2017 184.663 98.8433 184.663 98.44C184.663 98.0367 184.573 97.68 184.393 97.37C184.213 97.0567 183.966 96.8117 183.653 96.635C183.339 96.4583 182.983 96.37 182.583 96.37C182.183 96.37 181.826 96.4583 181.513 96.635C181.199 96.8117 180.953 97.0567 180.773 97.37C180.593 97.68 180.503 98.0367 180.503 98.44C180.503 98.84 180.593 99.1967 180.773 99.51C180.953 99.8233 181.199 100.068 181.513 100.245C181.826 100.422 182.183 100.51 182.583 100.51ZM182.528 95.055L182.153 94.78L183.103 92.885L183.678 93.295L182.528 95.055ZM187.179 101V95.88H187.909V96.58C188.049 96.34 188.265 96.1367 188.559 95.97C188.852 95.8033 189.21 95.72 189.634 95.72C190.03 95.72 190.372 95.8017 190.659 95.965C190.945 96.1283 191.165 96.3667 191.319 96.68C191.472 96.99 191.549 97.365 191.549 97.805V101H190.819V97.945C190.819 97.415 190.695 97.0117 190.449 96.735C190.202 96.455 189.854 96.315 189.404 96.315C189.09 96.315 188.822 96.3783 188.599 96.505C188.379 96.6283 188.209 96.7933 188.089 97C187.969 97.2033 187.909 97.425 187.909 97.665V101H187.179ZM110.63 112V111.645C111.397 111.045 112.057 110.513 112.61 110.05C113.163 109.583 113.627 109.17 114 108.81C114.373 108.45 114.67 108.127 114.89 107.84C115.11 107.553 115.267 107.288 115.36 107.045C115.453 106.802 115.5 106.562 115.5 106.325C115.5 105.952 115.41 105.613 115.23 105.31C115.053 105.007 114.815 104.765 114.515 104.585C114.215 104.405 113.882 104.315 113.515 104.315C113.148 104.315 112.815 104.405 112.515 104.585C112.215 104.765 111.968 105.012 111.775 105.325C111.582 105.638 111.467 105.998 111.43 106.405L110.745 106.175C110.782 105.808 110.877 105.468 111.03 105.155C111.187 104.842 111.39 104.568 111.64 104.335C111.893 104.102 112.182 103.92 112.505 103.79C112.828 103.66 113.177 103.595 113.55 103.595C114.067 103.595 114.535 103.715 114.955 103.955C115.375 104.192 115.708 104.515 115.955 104.925C116.202 105.335 116.325 105.798 116.325 106.315C116.325 106.582 116.285 106.843 116.205 107.1C116.125 107.357 115.99 107.625 115.8 107.905C115.613 108.185 115.362 108.49 115.045 108.82C114.728 109.147 114.333 109.512 113.86 109.915C113.39 110.318 112.828 110.775 112.175 111.285H116.475V112H110.63ZM121.486 112.16C120.812 112.16 120.222 111.982 119.716 111.625C119.212 111.265 118.821 110.763 118.541 110.12C118.261 109.477 118.121 108.73 118.121 107.88C118.121 107.027 118.261 106.28 118.541 105.64C118.821 104.997 119.212 104.497 119.716 104.14C120.222 103.78 120.812 103.6 121.486 103.6C122.159 103.6 122.747 103.78 123.251 104.14C123.754 104.497 124.146 104.997 124.426 105.64C124.709 106.28 124.851 107.027 124.851 107.88C124.851 108.73 124.709 109.477 124.426 110.12C124.146 110.763 123.754 111.265 123.251 111.625C122.747 111.982 122.159 112.16 121.486 112.16ZM121.486 111.475C121.999 111.475 122.447 111.327 122.831 111.03C123.214 110.733 123.512 110.315 123.726 109.775C123.939 109.235 124.046 108.603 124.046 107.88C124.046 107.153 123.939 106.522 123.726 105.985C123.512 105.445 123.214 105.027 122.831 104.73C122.447 104.433 121.999 104.285 121.486 104.285C120.972 104.285 120.522 104.433 120.136 104.73C119.752 105.027 119.454 105.445 119.241 105.985C119.031 106.522 118.926 107.153 118.926 107.88C118.926 108.603 119.031 109.235 119.241 109.775C119.454 110.315 119.752 110.733 120.136 111.03C120.522 111.327 120.972 111.475 121.486 111.475ZM126.333 112V111.645C127.1 111.045 127.76 110.513 128.313 110.05C128.866 109.583 129.33 109.17 129.703 108.81C130.076 108.45 130.373 108.127 130.593 107.84C130.813 107.553 130.97 107.288 131.063 107.045C131.156 106.802 131.203 106.562 131.203 106.325C131.203 105.952 131.113 105.613 130.933 105.31C130.756 105.007 130.518 104.765 130.218 104.585C129.918 104.405 129.585 104.315 129.218 104.315C128.851 104.315 128.518 104.405 128.218 104.585C127.918 104.765 127.671 105.012 127.478 105.325C127.285 105.638 127.17 105.998 127.133 106.405L126.448 106.175C126.485 105.808 126.58 105.468 126.733 105.155C126.89 104.842 127.093 104.568 127.343 104.335C127.596 104.102 127.885 103.92 128.208 103.79C128.531 103.66 128.88 103.595 129.253 103.595C129.77 103.595 130.238 103.715 130.658 103.955C131.078 104.192 131.411 104.515 131.658 104.925C131.905 105.335 132.028 105.798 132.028 106.315C132.028 106.582 131.988 106.843 131.908 107.1C131.828 107.357 131.693 107.625 131.503 107.905C131.316 108.185 131.065 108.49 130.748 108.82C130.431 109.147 130.036 109.512 129.563 109.915C129.093 110.318 128.531 110.775 127.878 111.285H132.178V112H126.333ZM133.599 112V111.645C134.365 111.045 135.025 110.513 135.579 110.05C136.132 109.583 136.595 109.17 136.969 108.81C137.342 108.45 137.639 108.127 137.859 107.84C138.079 107.553 138.235 107.288 138.329 107.045C138.422 106.802 138.469 106.562 138.469 106.325C138.469 105.952 138.379 105.613 138.199 105.31C138.022 105.007 137.784 104.765 137.484 104.585C137.184 104.405 136.85 104.315 136.484 104.315C136.117 104.315 135.784 104.405 135.484 104.585C135.184 104.765 134.937 105.012 134.744 105.325C134.55 105.638 134.435 105.998 134.399 106.405L133.714 106.175C133.75 105.808 133.845 105.468 133.999 105.155C134.155 104.842 134.359 104.568 134.609 104.335C134.862 104.102 135.15 103.92 135.474 103.79C135.797 103.66 136.145 103.595 136.519 103.595C137.035 103.595 137.504 103.715 137.924 103.955C138.344 104.192 138.677 104.515 138.924 104.925C139.17 105.335 139.294 105.798 139.294 106.315C139.294 106.582 139.254 106.843 139.174 107.1C139.094 107.357 138.959 107.625 138.769 107.905C138.582 108.185 138.33 108.49 138.014 108.82C137.697 109.147 137.302 109.512 136.829 109.915C136.359 110.318 135.797 110.775 135.144 111.285H139.444V112H133.599Z" fill="white"/>
<path d="M110.894 61L111.878 51.1H113.942L116.306 57.292L118.67 51.1H120.734L121.718 61H119.774L119.162 54.592L116.9 60.754H115.706L113.45 54.592L112.832 61H110.894ZM126.257 61.192C125.693 61.192 125.179 61.052 124.715 60.772C124.255 60.488 123.889 60.1 123.617 59.608C123.349 59.112 123.215 58.548 123.215 57.916C123.215 57.3 123.345 56.748 123.605 56.26C123.865 55.768 124.223 55.38 124.679 55.096C125.139 54.808 125.665 54.664 126.257 54.664C126.693 54.664 127.099 54.748 127.475 54.916C127.855 55.08 128.165 55.31 128.405 55.606V54.856H130.247V61H128.405V60.19C128.125 60.514 127.803 60.762 127.439 60.934C127.075 61.106 126.681 61.192 126.257 61.192ZM126.803 59.626C127.123 59.626 127.407 59.554 127.655 59.41C127.903 59.262 128.097 59.06 128.237 58.804C128.377 58.548 128.447 58.256 128.447 57.928C128.447 57.596 128.375 57.304 128.231 57.052C128.091 56.796 127.897 56.596 127.649 56.452C127.405 56.304 127.123 56.23 126.803 56.23C126.487 56.23 126.205 56.304 125.957 56.452C125.709 56.596 125.513 56.796 125.369 57.052C125.225 57.308 125.153 57.6 125.153 57.928C125.153 58.256 125.223 58.548 125.363 58.804C125.507 59.06 125.703 59.262 125.951 59.41C126.199 59.554 126.483 59.626 126.803 59.626ZM132.414 61V54.856H134.256V55.738C134.484 55.394 134.762 55.13 135.09 54.946C135.422 54.758 135.778 54.664 136.158 54.664C136.374 54.664 136.598 54.696 136.83 54.76C137.062 54.824 137.256 54.906 137.412 55.006L136.644 56.56C136.508 56.468 136.348 56.396 136.164 56.344C135.984 56.288 135.816 56.26 135.66 56.26C135.42 56.26 135.192 56.322 134.976 56.446C134.76 56.57 134.586 56.732 134.454 56.932C134.322 57.128 134.256 57.34 134.256 57.568V61H132.414ZM138.438 61V54.856H140.28V61H138.438ZM139.062 54.352L138.282 53.716L139.944 51.07L141.18 52L139.062 54.352ZM145.007 61.192C144.443 61.192 143.929 61.052 143.465 60.772C143.005 60.488 142.639 60.1 142.367 59.608C142.099 59.112 141.965 58.548 141.965 57.916C141.965 57.3 142.095 56.748 142.355 56.26C142.615 55.768 142.973 55.38 143.429 55.096C143.889 54.808 144.415 54.664 145.007 54.664C145.443 54.664 145.849 54.748 146.225 54.916C146.605 55.08 146.915 55.31 147.155 55.606V54.856H148.997V61H147.155V60.19C146.875 60.514 146.553 60.762 146.189 60.934C145.825 61.106 145.431 61.192 145.007 61.192ZM145.553 59.626C145.873 59.626 146.157 59.554 146.405 59.41C146.653 59.262 146.847 59.06 146.987 58.804C147.127 58.548 147.197 58.256 147.197 57.928C147.197 57.596 147.125 57.304 146.981 57.052C146.841 56.796 146.647 56.596 146.399 56.452C146.155 56.304 145.873 56.23 145.553 56.23C145.237 56.23 144.955 56.304 144.707 56.452C144.459 56.596 144.263 56.796 144.119 57.052C143.975 57.308 143.903 57.6 143.903 57.928C143.903 58.256 143.973 58.548 144.113 58.804C144.257 59.06 144.453 59.262 144.701 59.41C144.949 59.554 145.233 59.626 145.553 59.626ZM154.663 61V51.1H158.035C158.711 51.1 159.297 51.22 159.793 51.46C160.293 51.696 160.679 52.038 160.951 52.486C161.227 52.93 161.365 53.466 161.365 54.094C161.365 54.59 161.277 55.038 161.101 55.438C160.925 55.834 160.673 56.168 160.345 56.44C160.017 56.712 159.619 56.914 159.151 57.046L162.391 61H159.924L157.069 57.268H156.607V61H154.663ZM156.607 55.648H157.435C157.839 55.648 158.181 55.59 158.461 55.474C158.741 55.358 158.955 55.188 159.103 54.964C159.255 54.736 159.331 54.464 159.331 54.148C159.331 53.668 159.165 53.3 158.833 53.044C158.505 52.784 158.039 52.654 157.435 52.654H156.607V55.648ZM166.116 61.192C165.452 61.192 164.856 61.05 164.328 60.766C163.804 60.478 163.388 60.088 163.08 59.596C162.772 59.104 162.618 58.548 162.618 57.928C162.618 57.472 162.704 57.046 162.876 56.65C163.052 56.254 163.296 55.908 163.608 55.612C163.92 55.312 164.282 55.08 164.694 54.916C165.106 54.748 165.552 54.664 166.032 54.664C166.672 54.664 167.232 54.798 167.712 55.066C168.196 55.33 168.572 55.698 168.84 56.17C169.112 56.642 169.248 57.192 169.248 57.82C169.248 57.872 169.246 57.918 169.242 57.958C169.242 57.994 169.236 58.064 169.224 58.168H164.514C164.514 58.48 164.584 58.752 164.724 58.984C164.868 59.216 165.068 59.398 165.324 59.53C165.58 59.658 165.878 59.722 166.218 59.722C166.538 59.722 166.82 59.66 167.064 59.536C167.312 59.412 167.55 59.214 167.778 58.942L169.104 59.608C168.816 60.104 168.408 60.492 167.88 60.772C167.352 61.052 166.764 61.192 166.116 61.192ZM164.58 57.148H167.436C167.396 56.912 167.31 56.708 167.178 56.536C167.05 56.364 166.886 56.232 166.686 56.14C166.486 56.048 166.26 56.002 166.008 56.002C165.74 56.002 165.504 56.048 165.3 56.14C165.096 56.232 164.932 56.364 164.808 56.536C164.684 56.708 164.608 56.912 164.58 57.148ZM170.887 61V54.856H172.729V55.54C172.965 55.276 173.259 55.064 173.611 54.904C173.967 54.744 174.359 54.664 174.787 54.664C175.259 54.664 175.673 54.768 176.029 54.976C176.389 55.18 176.671 55.466 176.875 55.834C177.079 56.198 177.181 56.624 177.181 57.112V61H175.339V57.502C175.339 57.062 175.223 56.72 174.991 56.476C174.763 56.228 174.449 56.104 174.049 56.104C173.777 56.104 173.541 56.16 173.341 56.272C173.145 56.38 172.993 56.53 172.885 56.722C172.781 56.91 172.729 57.124 172.729 57.364V61H170.887ZM182.183 61.192C181.519 61.192 180.923 61.05 180.395 60.766C179.871 60.478 179.455 60.088 179.147 59.596C178.839 59.104 178.685 58.548 178.685 57.928C178.685 57.472 178.771 57.046 178.943 56.65C179.119 56.254 179.363 55.908 179.675 55.612C179.987 55.312 180.349 55.08 180.761 54.916C181.173 54.748 181.619 54.664 182.099 54.664C182.739 54.664 183.299 54.798 183.779 55.066C184.263 55.33 184.639 55.698 184.907 56.17C185.179 56.642 185.315 57.192 185.315 57.82C185.315 57.872 185.313 57.918 185.309 57.958C185.309 57.994 185.303 58.064 185.291 58.168H180.581C180.581 58.48 180.651 58.752 180.791 58.984C180.935 59.216 181.135 59.398 181.391 59.53C181.647 59.658 181.945 59.722 182.285 59.722C182.605 59.722 182.887 59.66 183.131 59.536C183.379 59.412 183.617 59.214 183.845 58.942L185.171 59.608C184.883 60.104 184.475 60.492 183.947 60.772C183.419 61.052 182.831 61.192 182.183 61.192ZM180.647 57.148H183.503C183.463 56.912 183.377 56.708 183.245 56.536C183.117 56.364 182.953 56.232 182.753 56.14C182.553 56.048 182.327 56.002 182.075 56.002C181.807 56.002 181.571 56.048 181.367 56.14C181.163 56.232 180.999 56.364 180.875 56.536C180.751 56.708 180.675 56.912 180.647 57.148ZM189.929 61.192C189.265 61.192 188.669 61.05 188.141 60.766C187.617 60.478 187.201 60.088 186.893 59.596C186.585 59.104 186.431 58.548 186.431 57.928C186.431 57.472 186.517 57.046 186.689 56.65C186.865 56.254 187.109 55.908 187.421 55.612C187.733 55.312 188.095 55.08 188.507 54.916C188.919 54.748 189.365 54.664 189.845 54.664C190.485 54.664 191.045 54.798 191.525 55.066C192.009 55.33 192.385 55.698 192.653 56.17C192.925 56.642 193.061 57.192 193.061 57.82C193.061 57.872 193.059 57.918 193.055 57.958C193.055 57.994 193.049 58.064 193.037 58.168H188.327C188.327 58.48 188.397 58.752 188.537 58.984C188.681 59.216 188.881 59.398 189.137 59.53C189.393 59.658 189.691 59.722 190.031 59.722C190.351 59.722 190.633 59.66 190.877 59.536C191.125 59.412 191.363 59.214 191.591 58.942L192.917 59.608C192.629 60.104 192.221 60.492 191.693 60.772C191.165 61.052 190.577 61.192 189.929 61.192ZM188.393 57.148H191.249C191.209 56.912 191.123 56.708 190.991 56.536C190.863 56.364 190.699 56.232 190.499 56.14C190.299 56.048 190.073 56.002 189.821 56.002C189.553 56.002 189.317 56.048 189.113 56.14C188.909 56.232 188.745 56.364 188.621 56.536C188.497 56.708 188.421 56.912 188.393 57.148ZM189.545 54.214L188.765 53.578L190.427 50.932L191.663 51.862L189.545 54.214ZM110.894 74L111.878 64.1H113.942L116.306 70.292L118.67 64.1H120.734L121.718 74H119.774L119.162 67.592L116.9 73.754H115.706L113.45 67.592L112.832 74H110.894ZM126.647 74.192C125.983 74.192 125.387 74.05 124.859 73.766C124.335 73.478 123.919 73.088 123.611 72.596C123.303 72.104 123.149 71.548 123.149 70.928C123.149 70.472 123.235 70.046 123.407 69.65C123.583 69.254 123.827 68.908 124.139 68.612C124.451 68.312 124.813 68.08 125.225 67.916C125.637 67.748 126.083 67.664 126.563 67.664C127.203 67.664 127.763 67.798 128.243 68.066C128.727 68.33 129.103 68.698 129.371 69.17C129.643 69.642 129.779 70.192 129.779 70.82C129.779 70.872 129.777 70.918 129.773 70.958C129.773 70.994 129.767 71.064 129.755 71.168H125.045C125.045 71.48 125.115 71.752 125.255 71.984C125.399 72.216 125.599 72.398 125.855 72.53C126.111 72.658 126.409 72.722 126.749 72.722C127.069 72.722 127.351 72.66 127.595 72.536C127.843 72.412 128.081 72.214 128.309 71.942L129.635 72.608C129.347 73.104 128.939 73.492 128.411 73.772C127.883 74.052 127.295 74.192 126.647 74.192ZM125.111 70.148H127.967C127.927 69.912 127.841 69.708 127.709 69.536C127.581 69.364 127.417 69.232 127.217 69.14C127.017 69.048 126.791 69.002 126.539 69.002C126.271 69.002 126.035 69.048 125.831 69.14C125.627 69.232 125.463 69.364 125.339 69.536C125.215 69.708 125.139 69.912 125.111 70.148ZM131.165 77.3C130.897 77.3 130.619 77.266 130.331 77.198C130.043 77.134 129.811 77.046 129.635 76.934L130.199 75.452C130.387 75.584 130.583 75.65 130.787 75.65C131.223 75.65 131.441 75.338 131.441 74.714V67.856H133.283V75.038C133.283 75.738 133.095 76.29 132.719 76.694C132.347 77.098 131.829 77.3 131.165 77.3ZM132.359 66.572C132.163 66.572 131.981 66.524 131.813 66.428C131.645 66.328 131.511 66.196 131.411 66.032C131.315 65.864 131.267 65.68 131.267 65.48C131.267 65.28 131.315 65.098 131.411 64.934C131.511 64.766 131.645 64.634 131.813 64.538C131.981 64.438 132.165 64.388 132.365 64.388C132.561 64.388 132.741 64.438 132.905 64.538C133.073 64.634 133.205 64.766 133.301 64.934C133.401 65.098 133.451 65.278 133.451 65.474C133.451 65.674 133.401 65.858 133.301 66.026C133.205 66.194 133.073 66.328 132.905 66.428C132.741 66.524 132.559 66.572 132.359 66.572ZM135.461 74V67.856H137.303V74H135.461ZM136.085 67.352L135.305 66.716L136.967 64.07L138.203 65L136.085 67.352ZM142.031 74.192C141.467 74.192 140.953 74.052 140.489 73.772C140.029 73.488 139.663 73.1 139.391 72.608C139.123 72.112 138.989 71.548 138.989 70.916C138.989 70.3 139.119 69.748 139.379 69.26C139.639 68.768 139.997 68.38 140.453 68.096C140.913 67.808 141.439 67.664 142.031 67.664C142.467 67.664 142.873 67.748 143.249 67.916C143.629 68.08 143.939 68.31 144.179 68.606V67.856H146.021V74H144.179V73.19C143.899 73.514 143.577 73.762 143.213 73.934C142.849 74.106 142.455 74.192 142.031 74.192ZM142.577 72.626C142.897 72.626 143.181 72.554 143.429 72.41C143.677 72.262 143.871 72.06 144.011 71.804C144.151 71.548 144.221 71.256 144.221 70.928C144.221 70.596 144.149 70.304 144.005 70.052C143.865 69.796 143.671 69.596 143.423 69.452C143.179 69.304 142.897 69.23 142.577 69.23C142.261 69.23 141.979 69.304 141.731 69.452C141.483 69.596 141.287 69.796 141.143 70.052C140.999 70.308 140.927 70.6 140.927 70.928C140.927 71.256 140.997 71.548 141.137 71.804C141.281 72.06 141.477 72.262 141.725 72.41C141.973 72.554 142.257 72.626 142.577 72.626ZM150.45 74L154.428 64.1H156.234L160.206 74H158.112L157.272 71.744H153.384L152.544 74H150.45ZM154.05 70.04H156.612L155.328 66.722L154.05 70.04ZM161.406 74V67.856H163.248V68.738C163.476 68.394 163.754 68.13 164.082 67.946C164.414 67.758 164.77 67.664 165.15 67.664C165.366 67.664 165.59 67.696 165.822 67.76C166.054 67.824 166.248 67.906 166.404 68.006L165.636 69.56C165.5 69.468 165.34 69.396 165.156 69.344C164.976 69.288 164.808 69.26 164.652 69.26C164.412 69.26 164.184 69.322 163.968 69.446C163.752 69.57 163.578 69.732 163.446 69.932C163.314 70.128 163.248 70.34 163.248 70.568V74H161.406ZM167.43 74V67.856H169.272V68.738C169.5 68.394 169.778 68.13 170.106 67.946C170.438 67.758 170.794 67.664 171.174 67.664C171.39 67.664 171.614 67.696 171.846 67.76C172.078 67.824 172.272 67.906 172.428 68.006L171.66 69.56C171.524 69.468 171.364 69.396 171.18 69.344C171 69.288 170.832 69.26 170.676 69.26C170.436 69.26 170.208 69.322 169.992 69.446C169.776 69.57 169.602 69.732 169.47 69.932C169.338 70.128 169.272 70.34 169.272 70.568V74H167.43ZM176.443 74.192C175.767 74.192 175.157 74.054 174.613 73.778C174.069 73.498 173.637 73.114 173.317 72.626C172.997 72.134 172.837 71.568 172.837 70.928C172.837 70.288 172.995 69.724 173.311 69.236C173.631 68.744 174.063 68.36 174.607 68.084C175.155 67.804 175.767 67.664 176.443 67.664C177.123 67.664 177.735 67.804 178.279 68.084C178.823 68.36 179.253 68.744 179.569 69.236C179.889 69.724 180.049 70.288 180.049 70.928C180.049 71.568 179.889 72.134 179.569 72.626C179.253 73.114 178.823 73.498 178.279 73.778C177.735 74.054 177.123 74.192 176.443 74.192ZM176.449 72.62C176.761 72.62 177.045 72.548 177.301 72.404C177.557 72.26 177.759 72.062 177.907 71.81C178.055 71.554 178.129 71.26 178.129 70.928C178.129 70.596 178.055 70.304 177.907 70.052C177.759 69.796 177.557 69.596 177.301 69.452C177.045 69.308 176.761 69.236 176.449 69.236C176.133 69.236 175.847 69.308 175.591 69.452C175.339 69.596 175.139 69.796 174.991 70.052C174.843 70.304 174.769 70.596 174.769 70.928C174.769 71.26 174.843 71.554 174.991 71.81C175.139 72.062 175.339 72.26 175.591 72.404C175.847 72.548 176.133 72.62 176.449 72.62ZM181.369 77.12L183.355 73.232L180.433 67.856H182.545L184.429 71.456L186.061 67.856H188.173L183.475 77.12H181.369ZM192.216 74.192C191.54 74.192 190.93 74.054 190.386 73.778C189.842 73.498 189.41 73.114 189.09 72.626C188.77 72.134 188.61 71.568 188.61 70.928C188.61 70.288 188.768 69.724 189.084 69.236C189.404 68.744 189.836 68.36 190.38 68.084C190.928 67.804 191.54 67.664 192.216 67.664C192.896 67.664 193.508 67.804 194.052 68.084C194.596 68.36 195.026 68.744 195.342 69.236C195.662 69.724 195.822 70.288 195.822 70.928C195.822 71.568 195.662 72.134 195.342 72.626C195.026 73.114 194.596 73.498 194.052 73.778C193.508 74.054 192.896 74.192 192.216 74.192ZM192.222 72.62C192.534 72.62 192.818 72.548 193.074 72.404C193.33 72.26 193.532 72.062 193.68 71.81C193.828 71.554 193.902 71.26 193.902 70.928C193.902 70.596 193.828 70.304 193.68 70.052C193.532 69.796 193.33 69.596 193.074 69.452C192.818 69.308 192.534 69.236 192.222 69.236C191.906 69.236 191.62 69.308 191.364 69.452C191.112 69.596 190.912 69.796 190.764 70.052C190.616 70.304 190.542 70.596 190.542 70.928C190.542 71.26 190.616 71.554 190.764 71.81C190.912 72.062 191.112 72.26 191.364 72.404C191.62 72.548 191.906 72.62 192.222 72.62Z" fill="white"/>
</svg>
