<svg width="312" height="336" viewBox="0 0 312 336" fill="none" xmlns="http://www.w3.org/2000/svg">
<rect y="176" width="312" height="160" rx="29" fill="#4AAEAD"/>
<rect x="17" y="192" width="103" height="128" rx="29" fill="white" fill-opacity="0.5"/>
<path d="M136.504 311V310.716C137.117 310.236 137.645 309.811 138.088 309.44C138.531 309.067 138.901 308.736 139.2 308.448C139.499 308.16 139.736 307.901 139.912 307.672C140.088 307.443 140.213 307.231 140.288 307.036C140.363 306.841 140.4 306.649 140.4 306.46C140.4 306.161 140.328 305.891 140.184 305.648C140.043 305.405 139.852 305.212 139.612 305.068C139.372 304.924 139.105 304.852 138.812 304.852C138.519 304.852 138.252 304.924 138.012 305.068C137.772 305.212 137.575 305.409 137.42 305.66C137.265 305.911 137.173 306.199 137.144 306.524L136.596 306.34C136.625 306.047 136.701 305.775 136.824 305.524C136.949 305.273 137.112 305.055 137.312 304.868C137.515 304.681 137.745 304.536 138.004 304.432C138.263 304.328 138.541 304.276 138.84 304.276C139.253 304.276 139.628 304.372 139.964 304.564C140.3 304.753 140.567 305.012 140.764 305.34C140.961 305.668 141.06 306.039 141.06 306.452C141.06 306.665 141.028 306.875 140.964 307.08C140.9 307.285 140.792 307.5 140.64 307.724C140.491 307.948 140.289 308.192 140.036 308.456C139.783 308.717 139.467 309.009 139.088 309.332C138.712 309.655 138.263 310.02 137.74 310.428H141.18V311H136.504ZM145.189 311.128C144.65 311.128 144.178 310.985 143.773 310.7C143.37 310.412 143.057 310.011 142.833 309.496C142.609 308.981 142.497 308.384 142.497 307.704C142.497 307.021 142.609 306.424 142.833 305.912C143.057 305.397 143.37 304.997 143.773 304.712C144.178 304.424 144.65 304.28 145.189 304.28C145.727 304.28 146.198 304.424 146.601 304.712C147.003 304.997 147.317 305.397 147.541 305.912C147.767 306.424 147.881 307.021 147.881 307.704C147.881 308.384 147.767 308.981 147.541 309.496C147.317 310.011 147.003 310.412 146.601 310.7C146.198 310.985 145.727 311.128 145.189 311.128ZM145.189 310.58C145.599 310.58 145.958 310.461 146.265 310.224C146.571 309.987 146.81 309.652 146.981 309.22C147.151 308.788 147.237 308.283 147.237 307.704C147.237 307.123 147.151 306.617 146.981 306.188C146.81 305.756 146.571 305.421 146.265 305.184C145.958 304.947 145.599 304.828 145.189 304.828C144.778 304.828 144.418 304.947 144.109 305.184C143.802 305.421 143.563 305.756 143.393 306.188C143.225 306.617 143.141 307.123 143.141 307.704C143.141 308.283 143.225 308.788 143.393 309.22C143.563 309.652 143.802 309.987 144.109 310.224C144.418 310.461 144.778 310.58 145.189 310.58ZM149.067 311V310.716C149.68 310.236 150.208 309.811 150.651 309.44C151.093 309.067 151.464 308.736 151.763 308.448C152.061 308.16 152.299 307.901 152.475 307.672C152.651 307.443 152.776 307.231 152.851 307.036C152.925 306.841 152.963 306.649 152.963 306.46C152.963 306.161 152.891 305.891 152.747 305.648C152.605 305.405 152.415 305.212 152.175 305.068C151.935 304.924 151.668 304.852 151.375 304.852C151.081 304.852 150.815 304.924 150.575 305.068C150.335 305.212 150.137 305.409 149.983 305.66C149.828 305.911 149.736 306.199 149.707 306.524L149.159 306.34C149.188 306.047 149.264 305.775 149.387 305.524C149.512 305.273 149.675 305.055 149.875 304.868C150.077 304.681 150.308 304.536 150.567 304.432C150.825 304.328 151.104 304.276 151.403 304.276C151.816 304.276 152.191 304.372 152.527 304.564C152.863 304.753 153.129 305.012 153.327 305.34C153.524 305.668 153.623 306.039 153.623 306.452C153.623 306.665 153.591 306.875 153.527 307.08C153.463 307.285 153.355 307.5 153.203 307.724C153.053 307.948 152.852 308.192 152.599 308.456C152.345 308.717 152.029 309.009 151.651 309.332C151.275 309.655 150.825 310.02 150.303 310.428H153.743V311H149.067ZM154.879 311V310.716C155.492 310.236 156.02 309.811 156.463 309.44C156.906 309.067 157.276 308.736 157.575 308.448C157.874 308.16 158.111 307.901 158.287 307.672C158.463 307.443 158.588 307.231 158.663 307.036C158.738 306.841 158.775 306.649 158.775 306.46C158.775 306.161 158.703 305.891 158.559 305.648C158.418 305.405 158.227 305.212 157.987 305.068C157.747 304.924 157.48 304.852 157.187 304.852C156.894 304.852 156.627 304.924 156.387 305.068C156.147 305.212 155.95 305.409 155.795 305.66C155.64 305.911 155.548 306.199 155.519 306.524L154.971 306.34C155 306.047 155.076 305.775 155.199 305.524C155.324 305.273 155.487 305.055 155.687 304.868C155.89 304.681 156.12 304.536 156.379 304.432C156.638 304.328 156.916 304.276 157.215 304.276C157.628 304.276 158.003 304.372 158.339 304.564C158.675 304.753 158.942 305.012 159.139 305.34C159.336 305.668 159.435 306.039 159.435 306.452C159.435 306.665 159.403 306.875 159.339 307.08C159.275 307.285 159.167 307.5 159.015 307.724C158.866 307.948 158.664 308.192 158.411 308.456C158.158 308.717 157.842 309.009 157.463 309.332C157.087 309.655 156.638 310.02 156.115 310.428H159.555V311H154.879Z" fill="white"/>
<path d="M139.196 296L136.428 289.4H137.116L139.436 295.084L141.752 289.4H142.44L139.672 296H139.196ZM148.878 296.128C148.385 296.128 147.926 296.041 147.502 295.868C147.078 295.695 146.707 295.453 146.39 295.144C146.075 294.832 145.83 294.468 145.654 294.052C145.478 293.636 145.39 293.187 145.39 292.704C145.39 292.221 145.478 291.772 145.654 291.356C145.83 290.94 146.075 290.577 146.39 290.268C146.707 289.956 147.077 289.713 147.498 289.54C147.922 289.367 148.382 289.28 148.878 289.28C149.291 289.28 149.679 289.341 150.042 289.464C150.405 289.584 150.725 289.749 151.002 289.96L150.714 290.468C150.479 290.279 150.207 290.133 149.898 290.032C149.589 289.931 149.261 289.88 148.914 289.88C148.495 289.88 148.111 289.952 147.762 290.096C147.415 290.24 147.114 290.44 146.858 290.696C146.602 290.952 146.403 291.252 146.262 291.596C146.123 291.94 146.054 292.309 146.054 292.704C146.054 293.099 146.123 293.468 146.262 293.812C146.403 294.156 146.602 294.456 146.858 294.712C147.114 294.968 147.415 295.168 147.762 295.312C148.111 295.456 148.495 295.528 148.914 295.528C149.261 295.528 149.589 295.477 149.898 295.376C150.207 295.275 150.479 295.129 150.714 294.94L151.002 295.448C150.727 295.656 150.409 295.821 150.046 295.944C149.686 296.067 149.297 296.128 148.878 296.128ZM154.168 296.128C153.741 296.128 153.356 296.036 153.012 295.852C152.67 295.668 152.4 295.412 152.2 295.084C152 294.756 151.9 294.379 151.9 293.952C151.9 293.523 152 293.145 152.2 292.82C152.4 292.492 152.67 292.236 153.012 292.052C153.353 291.868 153.738 291.776 154.168 291.776C154.594 291.776 154.978 291.868 155.32 292.052C155.664 292.236 155.936 292.492 156.136 292.82C156.336 293.145 156.436 293.523 156.436 293.952C156.436 294.379 156.336 294.756 156.136 295.084C155.936 295.412 155.664 295.668 155.32 295.852C154.978 296.036 154.594 296.128 154.168 296.128ZM154.168 295.608C154.488 295.608 154.773 295.537 155.024 295.396C155.274 295.255 155.472 295.06 155.616 294.812C155.76 294.561 155.832 294.275 155.832 293.952C155.832 293.629 155.76 293.344 155.616 293.096C155.472 292.845 155.274 292.649 155.024 292.508C154.773 292.367 154.488 292.296 154.168 292.296C153.848 292.296 153.562 292.367 153.312 292.508C153.061 292.649 152.864 292.845 152.72 293.096C152.576 293.344 152.504 293.629 152.504 293.952C152.504 294.272 152.576 294.557 152.72 294.808C152.864 295.059 153.061 295.255 153.312 295.396C153.562 295.537 153.848 295.608 154.168 295.608ZM157.829 296V291.904H158.413V292.464C158.575 292.237 158.77 292.067 158.997 291.952C159.223 291.835 159.477 291.776 159.757 291.776C160.093 291.776 160.385 291.853 160.633 292.008C160.883 292.163 161.057 292.373 161.153 292.64C161.31 292.379 161.51 292.169 161.753 292.012C161.998 291.855 162.289 291.776 162.625 291.776C162.915 291.776 163.174 291.836 163.401 291.956C163.627 292.073 163.805 292.247 163.933 292.476C164.063 292.703 164.129 292.98 164.129 293.308V296H163.545V293.472C163.545 293.099 163.447 292.803 163.253 292.584C163.058 292.365 162.798 292.256 162.473 292.256C162.249 292.256 162.046 292.305 161.865 292.404C161.683 292.503 161.539 292.631 161.433 292.788C161.326 292.943 161.273 293.103 161.273 293.268V296H160.689V293.412C160.689 293.057 160.591 292.776 160.397 292.568C160.205 292.36 159.95 292.256 159.633 292.256C159.409 292.256 159.203 292.304 159.017 292.4C158.833 292.493 158.686 292.615 158.577 292.764C158.467 292.913 158.413 293.067 158.413 293.224V296H157.829ZM165.782 298.08V291.904H166.366V292.752C166.531 292.445 166.762 292.207 167.058 292.036C167.357 291.863 167.687 291.776 168.05 291.776C168.442 291.776 168.793 291.871 169.102 292.06C169.411 292.249 169.655 292.508 169.834 292.836C170.013 293.161 170.102 293.533 170.102 293.952C170.102 294.365 170.013 294.737 169.834 295.068C169.658 295.396 169.415 295.655 169.106 295.844C168.799 296.033 168.45 296.128 168.058 296.128C167.701 296.128 167.373 296.04 167.074 295.864C166.775 295.688 166.539 295.445 166.366 295.136V298.08H165.782ZM167.922 295.62C168.229 295.62 168.501 295.549 168.738 295.408C168.975 295.264 169.161 295.067 169.294 294.816C169.43 294.565 169.498 294.279 169.498 293.956C169.498 293.631 169.43 293.343 169.294 293.092C169.158 292.839 168.971 292.641 168.734 292.5C168.499 292.356 168.229 292.284 167.922 292.284C167.615 292.284 167.343 292.356 167.106 292.5C166.869 292.641 166.682 292.837 166.546 293.088C166.41 293.339 166.342 293.627 166.342 293.952C166.342 294.275 166.41 294.563 166.546 294.816C166.682 295.067 166.869 295.264 167.106 295.408C167.346 295.549 167.618 295.62 167.922 295.62ZM173.188 296.128C172.567 296.128 172.123 295.988 171.856 295.708C171.589 295.428 171.456 294.96 171.456 294.304V291.904H172.04V294.2C172.04 294.717 172.128 295.087 172.304 295.308C172.48 295.527 172.775 295.636 173.188 295.636C173.604 295.636 173.899 295.527 174.072 295.308C174.248 295.087 174.336 294.717 174.336 294.2V291.904H174.92V294.304C174.92 294.96 174.787 295.428 174.52 295.708C174.256 295.988 173.812 296.128 173.188 296.128ZM177.552 296.128C177.245 296.128 177.007 296.025 176.836 295.82C176.668 295.612 176.584 295.32 176.584 294.944V292.344H176.168V291.904H176.584V290.372H177.168V291.904H178.188V292.344H177.168V294.912C177.168 295.139 177.212 295.312 177.3 295.432C177.388 295.552 177.513 295.612 177.676 295.612C177.833 295.612 177.972 295.568 178.092 295.48L178.24 295.944C178.149 296 178.043 296.044 177.92 296.076C177.797 296.111 177.675 296.128 177.552 296.128ZM181.249 296.128C180.865 296.128 180.518 296.035 180.209 295.848C179.902 295.659 179.658 295.4 179.477 295.072C179.298 294.744 179.209 294.369 179.209 293.948C179.209 293.532 179.297 293.161 179.473 292.836C179.651 292.508 179.894 292.249 180.201 292.06C180.51 291.871 180.859 291.776 181.249 291.776C181.619 291.776 181.955 291.863 182.257 292.036C182.558 292.209 182.787 292.449 182.945 292.756V291.904H183.529V296H182.945V295.136C182.769 295.445 182.533 295.688 182.237 295.864C181.941 296.04 181.611 296.128 181.249 296.128ZM181.393 295.62C181.699 295.62 181.97 295.549 182.205 295.408C182.442 295.264 182.629 295.067 182.765 294.816C182.901 294.563 182.969 294.275 182.969 293.952C182.969 293.627 182.901 293.339 182.765 293.088C182.631 292.837 182.446 292.641 182.209 292.5C181.971 292.356 181.699 292.284 181.393 292.284C181.086 292.284 180.814 292.356 180.577 292.5C180.339 292.641 180.153 292.837 180.017 293.088C179.881 293.339 179.813 293.627 179.813 293.952C179.813 294.275 179.881 294.563 180.017 294.816C180.153 295.067 180.339 295.264 180.577 295.408C180.814 295.549 181.086 295.62 181.393 295.62ZM187.155 296.128C186.848 296.128 186.56 296.075 186.291 295.968C186.021 295.859 185.785 295.705 185.583 295.508C185.38 295.311 185.221 295.08 185.107 294.816C184.992 294.552 184.935 294.264 184.935 293.952C184.935 293.643 184.991 293.356 185.103 293.092C185.215 292.828 185.371 292.597 185.571 292.4C185.773 292.203 186.009 292.049 186.279 291.94C186.548 291.831 186.84 291.776 187.155 291.776C187.424 291.776 187.68 291.816 187.923 291.896C188.165 291.976 188.375 292.087 188.551 292.228L188.311 292.62C188.012 292.388 187.649 292.272 187.223 292.272C186.887 292.272 186.591 292.347 186.335 292.496C186.081 292.643 185.884 292.844 185.743 293.1C185.601 293.353 185.531 293.637 185.531 293.952C185.531 294.269 185.603 294.556 185.747 294.812C185.891 295.065 186.091 295.265 186.347 295.412C186.603 295.559 186.896 295.632 187.227 295.632C187.435 295.632 187.631 295.603 187.815 295.544C188.001 295.483 188.165 295.396 188.307 295.284L188.551 295.676C188.372 295.815 188.163 295.924 187.923 296.004C187.683 296.087 187.427 296.128 187.155 296.128ZM189.801 296V291.904H190.385V296H189.801ZM190.097 291.084C190.025 291.084 189.96 291.067 189.901 291.032C189.845 290.997 189.8 290.951 189.765 290.892C189.731 290.833 189.713 290.769 189.713 290.7C189.713 290.631 189.731 290.568 189.765 290.512C189.8 290.453 189.845 290.407 189.901 290.372C189.96 290.337 190.025 290.32 190.097 290.32C190.167 290.32 190.229 290.337 190.285 290.372C190.341 290.407 190.387 290.452 190.421 290.508C190.459 290.564 190.477 290.628 190.477 290.7C190.477 290.769 190.459 290.833 190.421 290.892C190.387 290.951 190.341 290.997 190.285 291.032C190.229 291.067 190.167 291.084 190.097 291.084ZM194.066 296.128C193.639 296.128 193.254 296.036 192.91 295.852C192.569 295.668 192.298 295.412 192.098 295.084C191.898 294.756 191.798 294.379 191.798 293.952C191.798 293.523 191.898 293.145 192.098 292.82C192.298 292.492 192.569 292.236 192.91 292.052C193.251 291.868 193.637 291.776 194.066 291.776C194.493 291.776 194.877 291.868 195.218 292.052C195.562 292.236 195.834 292.492 196.034 292.82C196.234 293.145 196.334 293.523 196.334 293.952C196.334 294.379 196.234 294.756 196.034 295.084C195.834 295.412 195.562 295.668 195.218 295.852C194.877 296.036 194.493 296.128 194.066 296.128ZM194.066 295.608C194.386 295.608 194.671 295.537 194.922 295.396C195.173 295.255 195.37 295.06 195.514 294.812C195.658 294.561 195.73 294.275 195.73 293.952C195.73 293.629 195.658 293.344 195.514 293.096C195.37 292.845 195.173 292.649 194.922 292.508C194.671 292.367 194.386 292.296 194.066 292.296C193.746 292.296 193.461 292.367 193.21 292.508C192.959 292.649 192.762 292.845 192.618 293.096C192.474 293.344 192.402 293.629 192.402 293.952C192.402 294.272 192.474 294.557 192.618 294.808C192.762 295.059 192.959 295.255 193.21 295.396C193.461 295.537 193.746 295.608 194.066 295.608ZM194.022 291.244L193.722 291.024L194.482 289.508L194.942 289.836L194.022 291.244ZM197.743 296V291.904H198.327V292.464C198.439 292.272 198.612 292.109 198.847 291.976C199.081 291.843 199.368 291.776 199.707 291.776C200.024 291.776 200.297 291.841 200.527 291.972C200.756 292.103 200.932 292.293 201.055 292.544C201.177 292.792 201.239 293.092 201.239 293.444V296H200.655V293.556C200.655 293.132 200.556 292.809 200.359 292.588C200.161 292.364 199.883 292.252 199.523 292.252C199.272 292.252 199.057 292.303 198.879 292.404C198.703 292.503 198.567 292.635 198.471 292.8C198.375 292.963 198.327 293.14 198.327 293.332V296H197.743Z" fill="white"/>
<path d="M140.84 263.16C140.217 263.16 139.632 263.05 139.085 262.83C138.538 262.61 138.057 262.305 137.64 261.915C137.223 261.522 136.898 261.067 136.665 260.55C136.432 260.033 136.315 259.478 136.315 258.885C136.315 258.288 136.432 257.732 136.665 257.215C136.902 256.695 137.227 256.24 137.64 255.85C138.057 255.457 138.537 255.15 139.08 254.93C139.627 254.71 140.21 254.6 140.83 254.6C141.337 254.6 141.818 254.672 142.275 254.815C142.735 254.958 143.128 255.147 143.455 255.38L142.755 256.755C142.532 256.578 142.26 256.44 141.94 256.34C141.62 256.24 141.285 256.19 140.935 256.19C140.525 256.19 140.145 256.258 139.795 256.395C139.448 256.532 139.145 256.722 138.885 256.965C138.628 257.208 138.428 257.493 138.285 257.82C138.142 258.147 138.07 258.5 138.07 258.88C138.07 259.26 138.142 259.613 138.285 259.94C138.428 260.267 138.628 260.552 138.885 260.795C139.145 261.038 139.448 261.228 139.795 261.365C140.145 261.502 140.525 261.57 140.935 261.57C141.285 261.57 141.62 261.52 141.94 261.42C142.26 261.32 142.532 261.182 142.755 261.005L143.455 262.38C143.142 262.607 142.757 262.793 142.3 262.94C141.843 263.087 141.357 263.16 140.84 263.16ZM144.551 263V257.88H146.086V258.615C146.276 258.328 146.508 258.108 146.781 257.955C147.058 257.798 147.355 257.72 147.671 257.72C147.851 257.72 148.038 257.747 148.231 257.8C148.425 257.853 148.586 257.922 148.716 258.005L148.076 259.3C147.963 259.223 147.83 259.163 147.676 259.12C147.526 259.073 147.386 259.05 147.256 259.05C147.056 259.05 146.866 259.102 146.686 259.205C146.506 259.308 146.361 259.443 146.251 259.61C146.141 259.773 146.086 259.95 146.086 260.14V263H144.551ZM149.566 263V257.88H151.101V263H149.566ZM150.336 256.815C150.169 256.815 150.016 256.775 149.876 256.695C149.739 256.612 149.629 256.5 149.546 256.36C149.463 256.22 149.421 256.067 149.421 255.9C149.421 255.733 149.463 255.582 149.546 255.445C149.629 255.308 149.739 255.2 149.876 255.12C150.016 255.037 150.169 254.995 150.336 254.995C150.503 254.995 150.654 255.037 150.791 255.12C150.928 255.2 151.036 255.308 151.116 255.445C151.199 255.582 151.241 255.733 151.241 255.9C151.241 256.067 151.199 256.22 151.116 256.36C151.036 256.5 150.928 256.612 150.791 256.695C150.654 256.775 150.503 256.815 150.336 256.815ZM154.361 263.16C153.928 263.16 153.539 263.092 153.196 262.955C152.856 262.818 152.573 262.618 152.346 262.355L152.991 261.325C153.204 261.552 153.428 261.725 153.661 261.845C153.894 261.965 154.128 262.025 154.361 262.025C154.491 262.025 154.603 262.003 154.696 261.96C154.793 261.917 154.868 261.855 154.921 261.775C154.978 261.692 155.006 261.592 155.006 261.475C155.006 261.342 154.968 261.237 154.891 261.16C154.818 261.083 154.704 261.013 154.551 260.95C154.398 260.883 154.199 260.8 153.956 260.7C153.749 260.613 153.551 260.515 153.361 260.405C153.171 260.295 153.016 260.155 152.896 259.985C152.779 259.815 152.721 259.6 152.721 259.34C152.721 259.023 152.809 258.745 152.986 258.505C153.163 258.262 153.406 258.072 153.716 257.935C154.029 257.798 154.389 257.73 154.796 257.73C155.049 257.73 155.314 257.768 155.591 257.845C155.871 257.922 156.169 258.038 156.486 258.195L155.961 259.18C155.531 258.903 155.146 258.765 154.806 258.765C154.616 258.765 154.464 258.807 154.351 258.89C154.238 258.973 154.181 259.078 154.181 259.205C154.181 259.325 154.239 259.43 154.356 259.52C154.476 259.607 154.621 259.685 154.791 259.755C154.964 259.822 155.129 259.883 155.286 259.94C155.543 260.033 155.769 260.137 155.966 260.25C156.166 260.363 156.323 260.512 156.436 260.695C156.549 260.875 156.606 261.117 156.606 261.42C156.606 261.79 156.516 262.105 156.336 262.365C156.159 262.622 155.903 262.818 155.566 262.955C155.233 263.092 154.831 263.16 154.361 263.16ZM159.705 263.16C159.195 263.16 158.798 262.998 158.515 262.675C158.232 262.348 158.09 261.893 158.09 261.31V259.045H157.405V257.88H158.09V255.96H159.625V257.88H160.75V259.045H159.625V261.2C159.625 261.393 159.663 261.54 159.74 261.64C159.82 261.74 159.932 261.79 160.075 261.79C160.235 261.79 160.388 261.737 160.535 261.63L160.92 262.86C160.747 262.953 160.552 263.027 160.335 263.08C160.122 263.133 159.912 263.16 159.705 263.16ZM164.797 263.16C164.233 263.16 163.725 263.045 163.272 262.815C162.818 262.582 162.458 262.262 162.192 261.855C161.925 261.445 161.792 260.973 161.792 260.44C161.792 259.907 161.923 259.437 162.187 259.03C162.453 258.62 162.813 258.3 163.267 258.07C163.723 257.837 164.233 257.72 164.797 257.72C165.363 257.72 165.873 257.837 166.327 258.07C166.78 258.3 167.138 258.62 167.402 259.03C167.668 259.437 167.802 259.907 167.802 260.44C167.802 260.973 167.668 261.445 167.402 261.855C167.138 262.262 166.78 262.582 166.327 262.815C165.873 263.045 165.363 263.16 164.797 263.16ZM164.802 261.85C165.062 261.85 165.298 261.79 165.512 261.67C165.725 261.55 165.893 261.385 166.017 261.175C166.14 260.962 166.202 260.717 166.202 260.44C166.202 260.163 166.14 259.92 166.017 259.71C165.893 259.497 165.725 259.33 165.512 259.21C165.298 259.09 165.062 259.03 164.802 259.03C164.538 259.03 164.3 259.09 164.087 259.21C163.877 259.33 163.71 259.497 163.587 259.71C163.463 259.92 163.402 260.163 163.402 260.44C163.402 260.717 163.463 260.962 163.587 261.175C163.71 261.385 163.877 261.55 164.087 261.67C164.3 261.79 164.538 261.85 164.802 261.85ZM169.141 265.6V257.88H170.676V258.505C170.883 258.255 171.14 258.062 171.446 257.925C171.753 257.788 172.083 257.72 172.436 257.72C172.93 257.72 173.368 257.838 173.751 258.075C174.138 258.312 174.441 258.635 174.661 259.045C174.885 259.455 174.996 259.92 174.996 260.44C174.996 260.953 174.886 261.417 174.666 261.83C174.446 262.24 174.145 262.565 173.761 262.805C173.381 263.042 172.951 263.16 172.471 263.16C172.121 263.16 171.791 263.088 171.481 262.945C171.171 262.798 170.903 262.592 170.676 262.325V265.6H169.141ZM172.016 261.855C172.283 261.855 172.518 261.795 172.721 261.675C172.928 261.552 173.09 261.385 173.206 261.175C173.323 260.962 173.381 260.718 173.381 260.445C173.381 260.172 173.321 259.928 173.201 259.715C173.081 259.502 172.92 259.333 172.716 259.21C172.513 259.087 172.28 259.025 172.016 259.025C171.753 259.025 171.516 259.087 171.306 259.21C171.1 259.333 170.936 259.502 170.816 259.715C170.696 259.925 170.636 260.168 170.636 260.445C170.636 260.715 170.695 260.957 170.811 261.17C170.931 261.383 171.096 261.552 171.306 261.675C171.516 261.795 171.753 261.855 172.016 261.855ZM176.407 263V254.4H177.942V258.45C178.139 258.23 178.384 258.053 178.677 257.92C178.974 257.787 179.3 257.72 179.657 257.72C180.05 257.72 180.395 257.807 180.692 257.98C180.992 258.15 181.227 258.388 181.397 258.695C181.567 258.998 181.652 259.353 181.652 259.76V263H180.117V260.085C180.117 259.718 180.02 259.433 179.827 259.23C179.637 259.023 179.375 258.92 179.042 258.92C178.815 258.92 178.619 258.967 178.452 259.06C178.289 259.15 178.162 259.275 178.072 259.435C177.985 259.592 177.942 259.77 177.942 259.97V263H176.407ZM185.82 263.16C185.267 263.16 184.77 263.042 184.33 262.805C183.893 262.565 183.547 262.24 183.29 261.83C183.033 261.42 182.905 260.957 182.905 260.44C182.905 260.06 182.977 259.705 183.12 259.375C183.267 259.045 183.47 258.757 183.73 258.51C183.99 258.26 184.292 258.067 184.635 257.93C184.978 257.79 185.35 257.72 185.75 257.72C186.283 257.72 186.75 257.832 187.15 258.055C187.553 258.275 187.867 258.582 188.09 258.975C188.317 259.368 188.43 259.827 188.43 260.35C188.43 260.393 188.428 260.432 188.425 260.465C188.425 260.495 188.42 260.553 188.41 260.64H184.485C184.485 260.9 184.543 261.127 184.66 261.32C184.78 261.513 184.947 261.665 185.16 261.775C185.373 261.882 185.622 261.935 185.905 261.935C186.172 261.935 186.407 261.883 186.61 261.78C186.817 261.677 187.015 261.512 187.205 261.285L188.31 261.84C188.07 262.253 187.73 262.577 187.29 262.81C186.85 263.043 186.36 263.16 185.82 263.16ZM184.54 259.79H186.92C186.887 259.593 186.815 259.423 186.705 259.28C186.598 259.137 186.462 259.027 186.295 258.95C186.128 258.873 185.94 258.835 185.73 258.835C185.507 258.835 185.31 258.873 185.14 258.95C184.97 259.027 184.833 259.137 184.73 259.28C184.627 259.423 184.563 259.593 184.54 259.79ZM189.796 263V257.88H191.331V258.615C191.521 258.328 191.752 258.108 192.026 257.955C192.302 257.798 192.599 257.72 192.916 257.72C193.096 257.72 193.282 257.747 193.476 257.8C193.669 257.853 193.831 257.922 193.961 258.005L193.321 259.3C193.207 259.223 193.074 259.163 192.921 259.12C192.771 259.073 192.631 259.05 192.501 259.05C192.301 259.05 192.111 259.102 191.931 259.205C191.751 259.308 191.606 259.443 191.496 259.61C191.386 259.773 191.331 259.95 191.331 260.14V263H189.796ZM197.73 263V254.75H199.995C200.582 254.75 201.127 254.855 201.63 255.065C202.134 255.275 202.574 255.568 202.95 255.945C203.33 256.322 203.625 256.76 203.835 257.26C204.049 257.76 204.155 258.3 204.155 258.88C204.155 259.463 204.05 260.005 203.84 260.505C203.63 261.002 203.335 261.438 202.955 261.815C202.579 262.188 202.137 262.48 201.63 262.69C201.127 262.897 200.582 263 199.995 263H197.73ZM199.35 261.55H199.815C200.189 261.55 200.534 261.483 200.85 261.35C201.167 261.217 201.442 261.03 201.675 260.79C201.909 260.55 202.09 260.268 202.22 259.945C202.35 259.618 202.415 259.262 202.415 258.875C202.415 258.492 202.35 258.138 202.22 257.815C202.09 257.488 201.909 257.205 201.675 256.965C201.442 256.722 201.167 256.533 200.85 256.4C200.534 256.267 200.189 256.2 199.815 256.2H199.35V261.55ZM207.702 263.16C207.232 263.16 206.804 263.043 206.417 262.81C206.034 262.573 205.729 262.25 205.502 261.84C205.279 261.427 205.167 260.957 205.167 260.43C205.167 259.917 205.275 259.457 205.492 259.05C205.709 258.64 206.007 258.317 206.387 258.08C206.77 257.84 207.209 257.72 207.702 257.72C208.065 257.72 208.404 257.79 208.717 257.93C209.034 258.067 209.292 258.258 209.492 258.505V257.88H211.027V263H209.492V262.325C209.259 262.595 208.99 262.802 208.687 262.945C208.384 263.088 208.055 263.16 207.702 263.16ZM208.157 261.855C208.424 261.855 208.66 261.795 208.867 261.675C209.074 261.552 209.235 261.383 209.352 261.17C209.469 260.957 209.527 260.713 209.527 260.44C209.527 260.163 209.467 259.92 209.347 259.71C209.23 259.497 209.069 259.33 208.862 259.21C208.659 259.087 208.424 259.025 208.157 259.025C207.894 259.025 207.659 259.087 207.452 259.21C207.245 259.33 207.082 259.497 206.962 259.71C206.842 259.923 206.782 260.167 206.782 260.44C206.782 260.713 206.84 260.957 206.957 261.17C207.077 261.383 207.24 261.552 207.447 261.675C207.654 261.795 207.89 261.855 208.157 261.855ZM214.514 263L211.824 257.88H213.634L215.029 260.97L216.424 257.88H218.234L215.539 263H214.514ZM219.068 263V257.88H220.603V263H219.068ZM219.838 256.815C219.671 256.815 219.518 256.775 219.378 256.695C219.241 256.612 219.131 256.5 219.048 256.36C218.965 256.22 218.923 256.067 218.923 255.9C218.923 255.733 218.965 255.582 219.048 255.445C219.131 255.308 219.241 255.2 219.378 255.12C219.518 255.037 219.671 254.995 219.838 254.995C220.005 254.995 220.156 255.037 220.293 255.12C220.43 255.2 220.538 255.308 220.618 255.445C220.701 255.582 220.743 255.733 220.743 255.9C220.743 256.067 220.701 256.22 220.618 256.36C220.538 256.5 220.43 256.612 220.293 256.695C220.156 256.775 220.005 256.815 219.838 256.815ZM224.533 263.16C224.069 263.16 223.646 263.045 223.263 262.815C222.883 262.582 222.579 262.26 222.353 261.85C222.126 261.44 222.013 260.97 222.013 260.44C222.013 259.92 222.123 259.457 222.343 259.05C222.563 258.64 222.864 258.317 223.248 258.08C223.634 257.84 224.076 257.72 224.573 257.72C224.933 257.72 225.266 257.79 225.573 257.93C225.879 258.067 226.134 258.258 226.338 258.505V254.4H227.873V263H226.338V262.325C226.111 262.588 225.843 262.793 225.533 262.94C225.223 263.087 224.889 263.16 224.533 263.16ZM224.993 261.855C225.263 261.855 225.501 261.795 225.708 261.675C225.914 261.552 226.076 261.383 226.193 261.17C226.313 260.957 226.373 260.715 226.373 260.445C226.373 260.172 226.313 259.928 226.193 259.715C226.076 259.502 225.914 259.333 225.708 259.21C225.501 259.087 225.264 259.025 224.998 259.025C224.734 259.025 224.499 259.087 224.293 259.21C224.089 259.333 223.928 259.503 223.808 259.72C223.688 259.933 223.628 260.177 223.628 260.45C223.628 260.72 223.686 260.962 223.803 261.175C223.919 261.385 224.081 261.552 224.288 261.675C224.494 261.795 224.729 261.855 224.993 261.855ZM233.275 263V256.18H231.185V254.75H236.985V256.18H234.89V263H233.275ZM239.884 263.16C238.95 263.16 238.277 262.975 237.864 262.605C237.45 262.235 237.244 261.63 237.244 260.79V257.88H238.779V260.43C238.779 260.97 238.862 261.352 239.029 261.575C239.199 261.798 239.484 261.91 239.884 261.91C240.29 261.91 240.575 261.798 240.739 261.575C240.905 261.352 240.989 260.97 240.989 260.43V257.88H242.524V260.79C242.524 261.63 242.317 262.235 241.904 262.605C241.494 262.975 240.82 263.16 239.884 263.16ZM244.21 263V257.88H245.745V258.45C245.998 258.197 246.25 258.012 246.5 257.895C246.75 257.778 247.02 257.72 247.31 257.72C247.703 257.72 248.058 257.808 248.375 257.985C248.691 258.162 248.918 258.398 249.055 258.695C249.305 258.372 249.573 258.128 249.86 257.965C250.146 257.802 250.475 257.72 250.845 257.72C251.215 257.72 251.543 257.797 251.83 257.95C252.116 258.103 252.341 258.322 252.505 258.605C252.671 258.885 252.755 259.217 252.755 259.6V263H251.22V260.02C251.22 259.687 251.133 259.425 250.96 259.235C250.786 259.042 250.555 258.945 250.265 258.945C250.065 258.945 249.888 258.987 249.735 259.07C249.585 259.153 249.466 259.265 249.38 259.405C249.293 259.545 249.25 259.7 249.25 259.87V263H247.715V259.99C247.715 259.673 247.63 259.42 247.46 259.23C247.293 259.04 247.061 258.945 246.765 258.945C246.568 258.945 246.391 258.987 246.235 259.07C246.081 259.153 245.961 259.267 245.875 259.41C245.788 259.553 245.745 259.712 245.745 259.885V263H244.21ZM136.745 274L137.565 265.75H139.285L141.255 270.91L143.225 265.75H144.945L145.765 274H144.145L143.635 268.66L141.75 273.795H140.755L138.875 268.66L138.36 274H136.745ZM147.408 274V268.88H148.943V274H147.408ZM148.178 267.815C148.011 267.815 147.858 267.775 147.718 267.695C147.581 267.612 147.471 267.5 147.388 267.36C147.304 267.22 147.263 267.067 147.263 266.9C147.263 266.733 147.304 266.582 147.388 266.445C147.471 266.308 147.581 266.2 147.718 266.12C147.858 266.037 148.011 265.995 148.178 265.995C148.344 265.995 148.496 266.037 148.633 266.12C148.769 266.2 148.878 266.308 148.958 266.445C149.041 266.582 149.083 266.733 149.083 266.9C149.083 267.067 149.041 267.22 148.958 267.36C148.878 267.5 148.769 267.612 148.633 267.695C148.496 267.775 148.344 267.815 148.178 267.815ZM150.753 274V268.88H152.288V269.615C152.478 269.328 152.709 269.108 152.983 268.955C153.259 268.798 153.556 268.72 153.873 268.72C154.053 268.72 154.239 268.747 154.433 268.8C154.626 268.853 154.788 268.922 154.918 269.005L154.278 270.3C154.164 270.223 154.031 270.163 153.878 270.12C153.728 270.073 153.588 270.05 153.458 270.05C153.258 270.05 153.068 270.102 152.888 270.205C152.708 270.308 152.563 270.443 152.453 270.61C152.343 270.773 152.288 270.95 152.288 271.14V274H150.753ZM157.829 274.16C157.359 274.16 156.931 274.043 156.544 273.81C156.161 273.573 155.856 273.25 155.629 272.84C155.406 272.427 155.294 271.957 155.294 271.43C155.294 270.917 155.402 270.457 155.619 270.05C155.836 269.64 156.134 269.317 156.514 269.08C156.897 268.84 157.336 268.72 157.829 268.72C158.192 268.72 158.531 268.79 158.844 268.93C159.161 269.067 159.419 269.258 159.619 269.505V268.88H161.154V274H159.619V273.325C159.386 273.595 159.117 273.802 158.814 273.945C158.511 274.088 158.182 274.16 157.829 274.16ZM158.284 272.855C158.551 272.855 158.787 272.795 158.994 272.675C159.201 272.552 159.362 272.383 159.479 272.17C159.596 271.957 159.654 271.713 159.654 271.44C159.654 271.163 159.594 270.92 159.474 270.71C159.357 270.497 159.196 270.33 158.989 270.21C158.786 270.087 158.551 270.025 158.284 270.025C158.021 270.025 157.786 270.087 157.579 270.21C157.372 270.33 157.209 270.497 157.089 270.71C156.969 270.923 156.909 271.167 156.909 271.44C156.909 271.713 156.967 271.957 157.084 272.17C157.204 272.383 157.367 272.552 157.574 272.675C157.781 272.795 158.017 272.855 158.284 272.855ZM162.96 274V268.88H164.495V269.45C164.691 269.23 164.936 269.053 165.23 268.92C165.526 268.787 165.853 268.72 166.21 268.72C166.603 268.72 166.948 268.807 167.245 268.98C167.545 269.15 167.78 269.388 167.95 269.695C168.12 269.998 168.205 270.353 168.205 270.76V274H166.67V271.085C166.67 270.718 166.573 270.433 166.38 270.23C166.19 270.023 165.928 269.92 165.595 269.92C165.368 269.92 165.171 269.967 165.005 270.06C164.841 270.15 164.715 270.275 164.625 270.435C164.538 270.592 164.495 270.77 164.495 270.97V274H162.96ZM172.033 274.16C171.569 274.16 171.146 274.045 170.763 273.815C170.383 273.582 170.079 273.26 169.853 272.85C169.626 272.44 169.513 271.97 169.513 271.44C169.513 270.92 169.623 270.457 169.843 270.05C170.063 269.64 170.364 269.317 170.748 269.08C171.134 268.84 171.576 268.72 172.073 268.72C172.433 268.72 172.766 268.79 173.073 268.93C173.379 269.067 173.634 269.258 173.838 269.505V265.4H175.373V274H173.838V273.325C173.611 273.588 173.343 273.793 173.033 273.94C172.723 274.087 172.389 274.16 172.033 274.16ZM172.493 272.855C172.763 272.855 173.001 272.795 173.208 272.675C173.414 272.552 173.576 272.383 173.693 272.17C173.813 271.957 173.873 271.715 173.873 271.445C173.873 271.172 173.813 270.928 173.693 270.715C173.576 270.502 173.414 270.333 173.208 270.21C173.001 270.087 172.764 270.025 172.498 270.025C172.234 270.025 171.999 270.087 171.793 270.21C171.589 270.333 171.428 270.503 171.308 270.72C171.188 270.933 171.128 271.177 171.128 271.45C171.128 271.72 171.186 271.962 171.303 272.175C171.419 272.385 171.581 272.552 171.788 272.675C171.994 272.795 172.229 272.855 172.493 272.855ZM179.313 274.16C178.843 274.16 178.415 274.043 178.028 273.81C177.645 273.573 177.34 273.25 177.113 272.84C176.89 272.427 176.778 271.957 176.778 271.43C176.778 270.917 176.887 270.457 177.103 270.05C177.32 269.64 177.618 269.317 177.998 269.08C178.382 268.84 178.82 268.72 179.313 268.72C179.677 268.72 180.015 268.79 180.328 268.93C180.645 269.067 180.903 269.258 181.103 269.505V268.88H182.638V274H181.103V273.325C180.87 273.595 180.602 273.802 180.298 273.945C179.995 274.088 179.667 274.16 179.313 274.16ZM179.768 272.855C180.035 272.855 180.272 272.795 180.478 272.675C180.685 272.552 180.847 272.383 180.963 272.17C181.08 271.957 181.138 271.713 181.138 271.44C181.138 271.163 181.078 270.92 180.958 270.71C180.842 270.497 180.68 270.33 180.473 270.21C180.27 270.087 180.035 270.025 179.768 270.025C179.505 270.025 179.27 270.087 179.063 270.21C178.857 270.33 178.693 270.497 178.573 270.71C178.453 270.923 178.393 271.167 178.393 271.44C178.393 271.713 178.452 271.957 178.568 272.17C178.688 272.383 178.852 272.552 179.058 272.675C179.265 272.795 179.502 272.855 179.768 272.855Z" fill="white"/>
<rect width="312" height="160" rx="29" fill="#4AAEAD"/>
<rect x="192" y="16" width="104" height="128" rx="29" fill="white" fill-opacity="0.5"/>
<path d="M17.504 135V134.716C18.1173 134.236 18.6453 133.811 19.088 133.44C19.5307 133.067 19.9013 132.736 20.2 132.448C20.4987 132.16 20.736 131.901 20.912 131.672C21.088 131.443 21.2133 131.231 21.288 131.036C21.3627 130.841 21.4 130.649 21.4 130.46C21.4 130.161 21.328 129.891 21.184 129.648C21.0427 129.405 20.852 129.212 20.612 129.068C20.372 128.924 20.1053 128.852 19.812 128.852C19.5187 128.852 19.252 128.924 19.012 129.068C18.772 129.212 18.5747 129.409 18.42 129.66C18.2653 129.911 18.1733 130.199 18.144 130.524L17.596 130.34C17.6253 130.047 17.7013 129.775 17.824 129.524C17.9493 129.273 18.112 129.055 18.312 128.868C18.5147 128.681 18.7453 128.536 19.004 128.432C19.2627 128.328 19.5413 128.276 19.84 128.276C20.2533 128.276 20.628 128.372 20.964 128.564C21.3 128.753 21.5667 129.012 21.764 129.34C21.9613 129.668 22.06 130.039 22.06 130.452C22.06 130.665 22.028 130.875 21.964 131.08C21.9 131.285 21.792 131.5 21.64 131.724C21.4907 131.948 21.2893 132.192 21.036 132.456C20.7827 132.717 20.4667 133.009 20.088 133.332C19.712 133.655 19.2627 134.02 18.74 134.428H22.18V135H17.504ZM26.1885 135.128C25.6498 135.128 25.1778 134.985 24.7725 134.7C24.3698 134.412 24.0565 134.011 23.8325 133.496C23.6085 132.981 23.4965 132.384 23.4965 131.704C23.4965 131.021 23.6085 130.424 23.8325 129.912C24.0565 129.397 24.3698 128.997 24.7725 128.712C25.1778 128.424 25.6498 128.28 26.1885 128.28C26.7272 128.28 27.1978 128.424 27.6005 128.712C28.0032 128.997 28.3165 129.397 28.5405 129.912C28.7672 130.424 28.8805 131.021 28.8805 131.704C28.8805 132.384 28.7672 132.981 28.5405 133.496C28.3165 134.011 28.0032 134.412 27.6005 134.7C27.1978 134.985 26.7272 135.128 26.1885 135.128ZM26.1885 134.58C26.5992 134.58 26.9578 134.461 27.2645 134.224C27.5712 133.987 27.8098 133.652 27.9805 133.22C28.1512 132.788 28.2365 132.283 28.2365 131.704C28.2365 131.123 28.1512 130.617 27.9805 130.188C27.8098 129.756 27.5712 129.421 27.2645 129.184C26.9578 128.947 26.5992 128.828 26.1885 128.828C25.7778 128.828 25.4178 128.947 25.1085 129.184C24.8018 129.421 24.5632 129.756 24.3925 130.188C24.2245 130.617 24.1405 131.123 24.1405 131.704C24.1405 132.283 24.2245 132.788 24.3925 133.22C24.5632 133.652 24.8018 133.987 25.1085 134.224C25.4178 134.461 25.7778 134.58 26.1885 134.58ZM30.0665 135V134.716C30.6798 134.236 31.2078 133.811 31.6505 133.44C32.0932 133.067 32.4638 132.736 32.7625 132.448C33.0612 132.16 33.2985 131.901 33.4745 131.672C33.6505 131.443 33.7758 131.231 33.8505 131.036C33.9252 130.841 33.9625 130.649 33.9625 130.46C33.9625 130.161 33.8905 129.891 33.7465 129.648C33.6052 129.405 33.4145 129.212 33.1745 129.068C32.9345 128.924 32.6678 128.852 32.3745 128.852C32.0812 128.852 31.8145 128.924 31.5745 129.068C31.3345 129.212 31.1372 129.409 30.9825 129.66C30.8278 129.911 30.7358 130.199 30.7065 130.524L30.1585 130.34C30.1878 130.047 30.2638 129.775 30.3865 129.524C30.5118 129.273 30.6745 129.055 30.8745 128.868C31.0772 128.681 31.3078 128.536 31.5665 128.432C31.8252 128.328 32.1038 128.276 32.4025 128.276C32.8158 128.276 33.1905 128.372 33.5265 128.564C33.8625 128.753 34.1292 129.012 34.3265 129.34C34.5238 129.668 34.6225 130.039 34.6225 130.452C34.6225 130.665 34.5905 130.875 34.5265 131.08C34.4625 131.285 34.3545 131.5 34.2025 131.724C34.0532 131.948 33.8518 132.192 33.5985 132.456C33.3452 132.717 33.0292 133.009 32.6505 133.332C32.2745 133.655 31.8252 134.02 31.3025 134.428H34.7425V135H30.0665ZM35.879 135V134.716C36.4923 134.236 37.0203 133.811 37.463 133.44C37.9057 133.067 38.2763 132.736 38.575 132.448C38.8737 132.16 39.111 131.901 39.287 131.672C39.463 131.443 39.5883 131.231 39.663 131.036C39.7377 130.841 39.775 130.649 39.775 130.46C39.775 130.161 39.703 129.891 39.559 129.648C39.4177 129.405 39.227 129.212 38.987 129.068C38.747 128.924 38.4803 128.852 38.187 128.852C37.8937 128.852 37.627 128.924 37.387 129.068C37.147 129.212 36.9497 129.409 36.795 129.66C36.6403 129.911 36.5483 130.199 36.519 130.524L35.971 130.34C36.0003 130.047 36.0763 129.775 36.199 129.524C36.3243 129.273 36.487 129.055 36.687 128.868C36.8897 128.681 37.1203 128.536 37.379 128.432C37.6377 128.328 37.9163 128.276 38.215 128.276C38.6283 128.276 39.003 128.372 39.339 128.564C39.675 128.753 39.9417 129.012 40.139 129.34C40.3363 129.668 40.435 130.039 40.435 130.452C40.435 130.665 40.403 130.875 40.339 131.08C40.275 131.285 40.167 131.5 40.015 131.724C39.8657 131.948 39.6643 132.192 39.411 132.456C39.1577 132.717 38.8417 133.009 38.463 133.332C38.087 133.655 37.6377 134.02 37.115 134.428H40.555V135H35.879Z" fill="white"/>
<path d="M20.196 120L17.428 113.4H18.116L20.436 119.084L22.752 113.4H23.44L20.672 120H20.196ZM29.8779 120.128C29.3845 120.128 28.9259 120.041 28.5019 119.868C28.0779 119.695 27.7072 119.453 27.3899 119.144C27.0752 118.832 26.8299 118.468 26.6539 118.052C26.4779 117.636 26.3899 117.187 26.3899 116.704C26.3899 116.221 26.4779 115.772 26.6539 115.356C26.8299 114.94 27.0752 114.577 27.3899 114.268C27.7072 113.956 28.0765 113.713 28.4979 113.54C28.9219 113.367 29.3819 113.28 29.8779 113.28C30.2912 113.28 30.6792 113.341 31.0419 113.464C31.4045 113.584 31.7245 113.749 32.0019 113.96L31.7139 114.468C31.4792 114.279 31.2072 114.133 30.8979 114.032C30.5885 113.931 30.2605 113.88 29.9139 113.88C29.4952 113.88 29.1112 113.952 28.7619 114.096C28.4152 114.24 28.1139 114.44 27.8579 114.696C27.6019 114.952 27.4032 115.252 27.2619 115.596C27.1232 115.94 27.0539 116.309 27.0539 116.704C27.0539 117.099 27.1232 117.468 27.2619 117.812C27.4032 118.156 27.6019 118.456 27.8579 118.712C28.1139 118.968 28.4152 119.168 28.7619 119.312C29.1112 119.456 29.4952 119.528 29.9139 119.528C30.2605 119.528 30.5885 119.477 30.8979 119.376C31.2072 119.275 31.4792 119.129 31.7139 118.94L32.0019 119.448C31.7272 119.656 31.4085 119.821 31.0459 119.944C30.6859 120.067 30.2965 120.128 29.8779 120.128ZM35.1676 120.128C34.7409 120.128 34.3556 120.036 34.0116 119.852C33.6702 119.668 33.3996 119.412 33.1996 119.084C32.9996 118.756 32.8996 118.379 32.8996 117.952C32.8996 117.523 32.9996 117.145 33.1996 116.82C33.3996 116.492 33.6702 116.236 34.0116 116.052C34.3529 115.868 34.7382 115.776 35.1676 115.776C35.5942 115.776 35.9782 115.868 36.3196 116.052C36.6636 116.236 36.9356 116.492 37.1356 116.82C37.3356 117.145 37.4356 117.523 37.4356 117.952C37.4356 118.379 37.3356 118.756 37.1356 119.084C36.9356 119.412 36.6636 119.668 36.3196 119.852C35.9782 120.036 35.5942 120.128 35.1676 120.128ZM35.1676 119.608C35.4876 119.608 35.7729 119.537 36.0236 119.396C36.2742 119.255 36.4716 119.06 36.6156 118.812C36.7596 118.561 36.8316 118.275 36.8316 117.952C36.8316 117.629 36.7596 117.344 36.6156 117.096C36.4716 116.845 36.2742 116.649 36.0236 116.508C35.7729 116.367 35.4876 116.296 35.1676 116.296C34.8476 116.296 34.5622 116.367 34.3116 116.508C34.0609 116.649 33.8636 116.845 33.7196 117.096C33.5756 117.344 33.5036 117.629 33.5036 117.952C33.5036 118.272 33.5756 118.557 33.7196 118.808C33.8636 119.059 34.0609 119.255 34.3116 119.396C34.5622 119.537 34.8476 119.608 35.1676 119.608ZM38.8288 120V115.904H39.4128V116.464C39.5754 116.237 39.7701 116.067 39.9968 115.952C40.2234 115.835 40.4768 115.776 40.7568 115.776C41.0928 115.776 41.3848 115.853 41.6328 116.008C41.8834 116.163 42.0567 116.373 42.1528 116.64C42.3101 116.379 42.5101 116.169 42.7528 116.012C42.9981 115.855 43.2888 115.776 43.6248 115.776C43.9154 115.776 44.1741 115.836 44.4008 115.956C44.6274 116.073 44.8048 116.247 44.9328 116.476C45.0634 116.703 45.1288 116.98 45.1288 117.308V120H44.5448V117.472C44.5448 117.099 44.4474 116.803 44.2528 116.584C44.0581 116.365 43.7981 116.256 43.4728 116.256C43.2488 116.256 43.0461 116.305 42.8648 116.404C42.6834 116.503 42.5394 116.631 42.4328 116.788C42.3261 116.943 42.2728 117.103 42.2728 117.268V120H41.6888V117.412C41.6888 117.057 41.5914 116.776 41.3968 116.568C41.2048 116.36 40.9501 116.256 40.6328 116.256C40.4088 116.256 40.2034 116.304 40.0168 116.4C39.8328 116.493 39.6861 116.615 39.5768 116.764C39.4674 116.913 39.4128 117.067 39.4128 117.224V120H38.8288ZM46.7819 122.08V115.904H47.3659V116.752C47.5312 116.445 47.7619 116.207 48.0579 116.036C48.3565 115.863 48.6872 115.776 49.0499 115.776C49.4419 115.776 49.7925 115.871 50.1019 116.06C50.4112 116.249 50.6552 116.508 50.8339 116.836C51.0125 117.161 51.1019 117.533 51.1019 117.952C51.1019 118.365 51.0125 118.737 50.8339 119.068C50.6579 119.396 50.4152 119.655 50.1059 119.844C49.7992 120.033 49.4499 120.128 49.0579 120.128C48.7005 120.128 48.3725 120.04 48.0739 119.864C47.7752 119.688 47.5392 119.445 47.3659 119.136V122.08H46.7819ZM48.9219 119.62C49.2285 119.62 49.5005 119.549 49.7379 119.408C49.9752 119.264 50.1605 119.067 50.2939 118.816C50.4299 118.565 50.4979 118.279 50.4979 117.956C50.4979 117.631 50.4299 117.343 50.2939 117.092C50.1579 116.839 49.9712 116.641 49.7339 116.5C49.4992 116.356 49.2285 116.284 48.9219 116.284C48.6152 116.284 48.3432 116.356 48.1059 116.5C47.8685 116.641 47.6819 116.837 47.5459 117.088C47.4099 117.339 47.3419 117.627 47.3419 117.952C47.3419 118.275 47.4099 118.563 47.5459 118.816C47.6819 119.067 47.8685 119.264 48.1059 119.408C48.3459 119.549 48.6179 119.62 48.9219 119.62ZM54.1879 120.128C53.5665 120.128 53.1225 119.988 52.8559 119.708C52.5892 119.428 52.4559 118.96 52.4559 118.304V115.904H53.0399V118.2C53.0399 118.717 53.1279 119.087 53.3039 119.308C53.4799 119.527 53.7745 119.636 54.1879 119.636C54.6039 119.636 54.8985 119.527 55.0719 119.308C55.2479 119.087 55.3359 118.717 55.3359 118.2V115.904H55.9199V118.304C55.9199 118.96 55.7865 119.428 55.5199 119.708C55.2559 119.988 54.8119 120.128 54.1879 120.128ZM58.5519 120.128C58.2452 120.128 58.0065 120.025 57.8359 119.82C57.6679 119.612 57.5839 119.32 57.5839 118.944V116.344H57.1679V115.904H57.5839V114.372H58.1679V115.904H59.1879V116.344H58.1679V118.912C58.1679 119.139 58.2119 119.312 58.2999 119.432C58.3879 119.552 58.5132 119.612 58.6759 119.612C58.8332 119.612 58.9719 119.568 59.0919 119.48L59.2399 119.944C59.1492 120 59.0425 120.044 58.9199 120.076C58.7972 120.111 58.6745 120.128 58.5519 120.128ZM62.2486 120.128C61.8646 120.128 61.518 120.035 61.2086 119.848C60.902 119.659 60.658 119.4 60.4766 119.072C60.298 118.744 60.2086 118.369 60.2086 117.948C60.2086 117.532 60.2966 117.161 60.4726 116.836C60.6513 116.508 60.894 116.249 61.2006 116.06C61.51 115.871 61.8593 115.776 62.2486 115.776C62.6193 115.776 62.9553 115.863 63.2566 116.036C63.558 116.209 63.7873 116.449 63.9446 116.756V115.904H64.5286V120H63.9446V119.136C63.7686 119.445 63.5326 119.688 63.2366 119.864C62.9406 120.04 62.6113 120.128 62.2486 120.128ZM62.3926 119.62C62.6993 119.62 62.97 119.549 63.2046 119.408C63.442 119.264 63.6286 119.067 63.7646 118.816C63.9006 118.563 63.9686 118.275 63.9686 117.952C63.9686 117.627 63.9006 117.339 63.7646 117.088C63.6313 116.837 63.446 116.641 63.2086 116.5C62.9713 116.356 62.6993 116.284 62.3926 116.284C62.086 116.284 61.814 116.356 61.5766 116.5C61.3393 116.641 61.1526 116.837 61.0166 117.088C60.8806 117.339 60.8126 117.627 60.8126 117.952C60.8126 118.275 60.8806 118.563 61.0166 118.816C61.1526 119.067 61.3393 119.264 61.5766 119.408C61.814 119.549 62.086 119.62 62.3926 119.62ZM68.1546 120.128C67.848 120.128 67.56 120.075 67.2906 119.968C67.0213 119.859 66.7853 119.705 66.5826 119.508C66.38 119.311 66.2213 119.08 66.1066 118.816C65.992 118.552 65.9346 118.264 65.9346 117.952C65.9346 117.643 65.9906 117.356 66.1026 117.092C66.2146 116.828 66.3706 116.597 66.5706 116.4C66.7733 116.203 67.0093 116.049 67.2786 115.94C67.548 115.831 67.84 115.776 68.1546 115.776C68.424 115.776 68.68 115.816 68.9226 115.896C69.1653 115.976 69.3746 116.087 69.5506 116.228L69.3106 116.62C69.012 116.388 68.6493 116.272 68.2226 116.272C67.8866 116.272 67.5906 116.347 67.3346 116.496C67.0813 116.643 66.884 116.844 66.7426 117.1C66.6013 117.353 66.5306 117.637 66.5306 117.952C66.5306 118.269 66.6026 118.556 66.7466 118.812C66.8906 119.065 67.0906 119.265 67.3466 119.412C67.6026 119.559 67.896 119.632 68.2266 119.632C68.4346 119.632 68.6306 119.603 68.8146 119.544C69.0013 119.483 69.1653 119.396 69.3066 119.284L69.5506 119.676C69.372 119.815 69.1626 119.924 68.9226 120.004C68.6826 120.087 68.4266 120.128 68.1546 120.128ZM70.8013 120V115.904H71.3853V120H70.8013ZM71.0973 115.084C71.0253 115.084 70.96 115.067 70.9013 115.032C70.8453 114.997 70.8 114.951 70.7653 114.892C70.7306 114.833 70.7133 114.769 70.7133 114.7C70.7133 114.631 70.7306 114.568 70.7653 114.512C70.8 114.453 70.8453 114.407 70.9013 114.372C70.96 114.337 71.0253 114.32 71.0973 114.32C71.1666 114.32 71.2293 114.337 71.2853 114.372C71.3413 114.407 71.3866 114.452 71.4213 114.508C71.4586 114.564 71.4773 114.628 71.4773 114.7C71.4773 114.769 71.4586 114.833 71.4213 114.892C71.3866 114.951 71.3413 114.997 71.2853 115.032C71.2293 115.067 71.1666 115.084 71.0973 115.084ZM75.066 120.128C74.6393 120.128 74.254 120.036 73.91 119.852C73.5687 119.668 73.298 119.412 73.098 119.084C72.898 118.756 72.798 118.379 72.798 117.952C72.798 117.523 72.898 117.145 73.098 116.82C73.298 116.492 73.5687 116.236 73.91 116.052C74.2513 115.868 74.6367 115.776 75.066 115.776C75.4927 115.776 75.8767 115.868 76.218 116.052C76.562 116.236 76.834 116.492 77.034 116.82C77.234 117.145 77.334 117.523 77.334 117.952C77.334 118.379 77.234 118.756 77.034 119.084C76.834 119.412 76.562 119.668 76.218 119.852C75.8767 120.036 75.4927 120.128 75.066 120.128ZM75.066 119.608C75.386 119.608 75.6713 119.537 75.922 119.396C76.1727 119.255 76.37 119.06 76.514 118.812C76.658 118.561 76.73 118.275 76.73 117.952C76.73 117.629 76.658 117.344 76.514 117.096C76.37 116.845 76.1727 116.649 75.922 116.508C75.6713 116.367 75.386 116.296 75.066 116.296C74.746 116.296 74.4607 116.367 74.21 116.508C73.9593 116.649 73.762 116.845 73.618 117.096C73.474 117.344 73.402 117.629 73.402 117.952C73.402 118.272 73.474 118.557 73.618 118.808C73.762 119.059 73.9593 119.255 74.21 119.396C74.4607 119.537 74.746 119.608 75.066 119.608ZM75.022 115.244L74.722 115.024L75.482 113.508L75.942 113.836L75.022 115.244ZM78.7428 120V115.904H79.3268V116.464C79.4388 116.272 79.6121 116.109 79.8468 115.976C80.0815 115.843 80.3681 115.776 80.7068 115.776C81.0241 115.776 81.2975 115.841 81.5268 115.972C81.7561 116.103 81.9321 116.293 82.0548 116.544C82.1775 116.792 82.2388 117.092 82.2388 117.444V120H81.6548V117.556C81.6548 117.132 81.5561 116.809 81.3588 116.588C81.1615 116.364 80.8828 116.252 80.5228 116.252C80.2721 116.252 80.0575 116.303 79.8788 116.404C79.7028 116.503 79.5668 116.635 79.4708 116.8C79.3748 116.963 79.3268 117.14 79.3268 117.332V120H78.7428Z" fill="white"/>
<path d="M17.745 99L18.565 90.75H20.285L22.255 95.91L24.225 90.75H25.945L26.765 99H25.145L24.635 93.66L22.75 98.795H21.755L19.875 93.66L19.36 99H17.745ZM30.5478 99.16C30.0778 99.16 29.6495 99.0433 29.2628 98.81C28.8795 98.5733 28.5745 98.25 28.3478 97.84C28.1245 97.4267 28.0128 96.9567 28.0128 96.43C28.0128 95.9167 28.1211 95.4567 28.3378 95.05C28.5545 94.64 28.8528 94.3167 29.2328 94.08C29.6161 93.84 30.0545 93.72 30.5478 93.72C30.9111 93.72 31.2495 93.79 31.5628 93.93C31.8795 94.0667 32.1378 94.2583 32.3378 94.505V93.88H33.8728V99H32.3378V98.325C32.1045 98.595 31.8361 98.8017 31.5328 98.945C31.2295 99.0883 30.9011 99.16 30.5478 99.16ZM31.0028 97.855C31.2695 97.855 31.5061 97.795 31.7128 97.675C31.9195 97.5517 32.0811 97.3833 32.1978 97.17C32.3145 96.9567 32.3728 96.7133 32.3728 96.44C32.3728 96.1633 32.3128 95.92 32.1928 95.71C32.0761 95.4967 31.9145 95.33 31.7078 95.21C31.5045 95.0867 31.2695 95.025 31.0028 95.025C30.7395 95.025 30.5045 95.0867 30.2978 95.21C30.0911 95.33 29.9278 95.4967 29.8078 95.71C29.6878 95.9233 29.6278 96.1667 29.6278 96.44C29.6278 96.7133 29.6861 96.9567 29.8028 97.17C29.9228 97.3833 30.0861 97.5517 30.2928 97.675C30.4995 97.795 30.7361 97.855 31.0028 97.855ZM35.6784 99V93.88H37.2134V94.615C37.4034 94.3283 37.6351 94.1083 37.9084 93.955C38.1851 93.7983 38.4818 93.72 38.7984 93.72C38.9784 93.72 39.1651 93.7467 39.3584 93.8C39.5518 93.8533 39.7134 93.9217 39.8434 94.005L39.2034 95.3C39.0901 95.2233 38.9568 95.1633 38.8034 95.12C38.6534 95.0733 38.5134 95.05 38.3834 95.05C38.1834 95.05 37.9934 95.1017 37.8134 95.205C37.6334 95.3083 37.4884 95.4433 37.3784 95.61C37.2684 95.7733 37.2134 95.95 37.2134 96.14V99H35.6784ZM40.698 99V93.88H42.233V99H40.698ZM41.218 93.46L40.568 92.93L41.953 90.725L42.983 91.5L41.218 93.46ZM46.1728 99.16C45.7028 99.16 45.2745 99.0433 44.8878 98.81C44.5045 98.5733 44.1995 98.25 43.9728 97.84C43.7495 97.4267 43.6378 96.9567 43.6378 96.43C43.6378 95.9167 43.7461 95.4567 43.9628 95.05C44.1795 94.64 44.4778 94.3167 44.8578 94.08C45.2411 93.84 45.6795 93.72 46.1728 93.72C46.5361 93.72 46.8745 93.79 47.1878 93.93C47.5045 94.0667 47.7628 94.2583 47.9628 94.505V93.88H49.4978V99H47.9628V98.325C47.7295 98.595 47.4611 98.8017 47.1578 98.945C46.8545 99.0883 46.5261 99.16 46.1728 99.16ZM46.6278 97.855C46.8945 97.855 47.1311 97.795 47.3378 97.675C47.5445 97.5517 47.7061 97.3833 47.8228 97.17C47.9395 96.9567 47.9978 96.7133 47.9978 96.44C47.9978 96.1633 47.9378 95.92 47.8178 95.71C47.7011 95.4967 47.5395 95.33 47.3328 95.21C47.1295 95.0867 46.8945 95.025 46.6278 95.025C46.3645 95.025 46.1295 95.0867 45.9228 95.21C45.7161 95.33 45.5528 95.4967 45.4328 95.71C45.3128 95.9233 45.2528 96.1667 45.2528 96.44C45.2528 96.7133 45.3111 96.9567 45.4278 97.17C45.5478 97.3833 45.7111 97.5517 45.9178 97.675C46.1245 97.795 46.3611 97.855 46.6278 97.855ZM54.2188 99V90.75H57.0288C57.5921 90.75 58.0804 90.85 58.4938 91.05C58.9104 91.2467 59.2321 91.5317 59.4588 91.905C59.6888 92.275 59.8038 92.7217 59.8038 93.245C59.8038 93.6583 59.7304 94.0317 59.5838 94.365C59.4371 94.695 59.2271 94.9733 58.9538 95.2C58.6804 95.4267 58.3488 95.595 57.9588 95.705L60.6588 99H58.6037L56.2238 95.89H55.8388V99H54.2188ZM55.8388 94.54H56.5288C56.8654 94.54 57.1504 94.4917 57.3838 94.395C57.6171 94.2983 57.7954 94.1567 57.9188 93.97C58.0454 93.78 58.1088 93.5533 58.1088 93.29C58.1088 92.89 57.9704 92.5833 57.6938 92.37C57.4204 92.1533 57.0321 92.045 56.5288 92.045H55.8388V94.54ZM63.7634 99.16C63.2101 99.16 62.7134 99.0417 62.2734 98.805C61.8368 98.565 61.4901 98.24 61.2334 97.83C60.9768 97.42 60.8484 96.9567 60.8484 96.44C60.8484 96.06 60.9201 95.705 61.0634 95.375C61.2101 95.045 61.4134 94.7567 61.6734 94.51C61.9334 94.26 62.2351 94.0667 62.5784 93.93C62.9218 93.79 63.2934 93.72 63.6934 93.72C64.2268 93.72 64.6934 93.8317 65.0934 94.055C65.4968 94.275 65.8101 94.5817 66.0334 94.975C66.2601 95.3683 66.3734 95.8267 66.3734 96.35C66.3734 96.3933 66.3718 96.4317 66.3684 96.465C66.3684 96.495 66.3634 96.5533 66.3534 96.64H62.4284C62.4284 96.9 62.4868 97.1267 62.6034 97.32C62.7234 97.5133 62.8901 97.665 63.1034 97.775C63.3168 97.8817 63.5651 97.935 63.8484 97.935C64.1151 97.935 64.3501 97.8833 64.5534 97.78C64.7601 97.6767 64.9584 97.5117 65.1484 97.285L66.2534 97.84C66.0134 98.2533 65.6734 98.5767 65.2334 98.81C64.7934 99.0433 64.3034 99.16 63.7634 99.16ZM62.4834 95.79H64.8634C64.8301 95.5933 64.7584 95.4233 64.6484 95.28C64.5418 95.1367 64.4051 95.0267 64.2384 94.95C64.0718 94.8733 63.8834 94.835 63.6734 94.835C63.4501 94.835 63.2534 94.8733 63.0834 94.95C62.9134 95.0267 62.7768 95.1367 62.6734 95.28C62.5701 95.4233 62.5068 95.5933 62.4834 95.79ZM67.739 99V93.88H69.274V94.45C69.4707 94.23 69.7157 94.0533 70.009 93.92C70.3057 93.7867 70.6323 93.72 70.989 93.72C71.3823 93.72 71.7273 93.8067 72.024 93.98C72.324 94.15 72.559 94.3883 72.729 94.695C72.899 94.9983 72.984 95.3533 72.984 95.76V99H71.449V96.085C71.449 95.7183 71.3523 95.4333 71.159 95.23C70.969 95.0233 70.7073 94.92 70.374 94.92C70.1473 94.92 69.9507 94.9667 69.784 95.06C69.6207 95.15 69.494 95.275 69.404 95.435C69.3173 95.5917 69.274 95.77 69.274 95.97V99H67.739ZM77.1521 99.16C76.5988 99.16 76.1021 99.0417 75.6621 98.805C75.2254 98.565 74.8788 98.24 74.6221 97.83C74.3654 97.42 74.2371 96.9567 74.2371 96.44C74.2371 96.06 74.3088 95.705 74.4521 95.375C74.5988 95.045 74.8021 94.7567 75.0621 94.51C75.3221 94.26 75.6238 94.0667 75.9671 93.93C76.3104 93.79 76.6821 93.72 77.0821 93.72C77.6154 93.72 78.0821 93.8317 78.4821 94.055C78.8854 94.275 79.1988 94.5817 79.4221 94.975C79.6488 95.3683 79.7621 95.8267 79.7621 96.35C79.7621 96.3933 79.7604 96.4317 79.7571 96.465C79.7571 96.495 79.7521 96.5533 79.7421 96.64H75.8171C75.8171 96.9 75.8754 97.1267 75.9921 97.32C76.1121 97.5133 76.2788 97.665 76.4921 97.775C76.7054 97.8817 76.9538 97.935 77.2371 97.935C77.5038 97.935 77.7388 97.8833 77.9421 97.78C78.1488 97.6767 78.3471 97.5117 78.5371 97.285L79.6421 97.84C79.4021 98.2533 79.0621 98.5767 78.6221 98.81C78.1821 99.0433 77.6921 99.16 77.1521 99.16ZM75.8721 95.79H78.2521C78.2188 95.5933 78.1471 95.4233 78.0371 95.28C77.9304 95.1367 77.7938 95.0267 77.6271 94.95C77.4604 94.8733 77.2721 94.835 77.0621 94.835C76.8388 94.835 76.6421 94.8733 76.4721 94.95C76.3021 95.0267 76.1654 95.1367 76.0621 95.28C75.9588 95.4233 75.8954 95.5933 75.8721 95.79ZM83.6072 99.16C83.0539 99.16 82.5572 99.0417 82.1172 98.805C81.6805 98.565 81.3339 98.24 81.0772 97.83C80.8205 97.42 80.6922 96.9567 80.6922 96.44C80.6922 96.06 80.7639 95.705 80.9072 95.375C81.0539 95.045 81.2572 94.7567 81.5172 94.51C81.7772 94.26 82.0789 94.0667 82.4222 93.93C82.7655 93.79 83.1372 93.72 83.5372 93.72C84.0705 93.72 84.5372 93.8317 84.9372 94.055C85.3405 94.275 85.6539 94.5817 85.8772 94.975C86.1039 95.3683 86.2172 95.8267 86.2172 96.35C86.2172 96.3933 86.2155 96.4317 86.2122 96.465C86.2122 96.495 86.2072 96.5533 86.1972 96.64H82.2722C82.2722 96.9 82.3305 97.1267 82.4472 97.32C82.5672 97.5133 82.7339 97.665 82.9472 97.775C83.1605 97.8817 83.4089 97.935 83.6922 97.935C83.9589 97.935 84.1939 97.8833 84.3972 97.78C84.6039 97.6767 84.8022 97.5117 84.9922 97.285L86.0972 97.84C85.8572 98.2533 85.5172 98.5767 85.0772 98.81C84.6372 99.0433 84.1472 99.16 83.6072 99.16ZM82.3272 95.79H84.7072C84.6739 95.5933 84.6022 95.4233 84.4922 95.28C84.3855 95.1367 84.2489 95.0267 84.0822 94.95C83.9155 94.8733 83.7272 94.835 83.5172 94.835C83.2939 94.835 83.0972 94.8733 82.9272 94.95C82.7572 95.0267 82.6205 95.1367 82.5172 95.28C82.4139 95.4233 82.3505 95.5933 82.3272 95.79ZM83.2872 93.345L82.6372 92.815L84.0222 90.61L85.0522 91.385L83.2872 93.345ZM90.1376 99L90.9576 90.75H92.6776L94.6476 95.91L96.6176 90.75H98.3376L99.1576 99H97.5376L97.0276 93.66L95.1426 98.795H94.1476L92.2676 93.66L91.7526 99H90.1376ZM103.265 99.16C102.712 99.16 102.215 99.0417 101.775 98.805C101.339 98.565 100.992 98.24 100.735 97.83C100.479 97.42 100.35 96.9567 100.35 96.44C100.35 96.06 100.422 95.705 100.565 95.375C100.712 95.045 100.915 94.7567 101.175 94.51C101.435 94.26 101.737 94.0667 102.08 93.93C102.424 93.79 102.795 93.72 103.195 93.72C103.729 93.72 104.195 93.8317 104.595 94.055C104.999 94.275 105.312 94.5817 105.535 94.975C105.762 95.3683 105.875 95.8267 105.875 96.35C105.875 96.3933 105.874 96.4317 105.87 96.465C105.87 96.495 105.865 96.5533 105.855 96.64H101.93C101.93 96.9 101.989 97.1267 102.105 97.32C102.225 97.5133 102.392 97.665 102.605 97.775C102.819 97.8817 103.067 97.935 103.35 97.935C103.617 97.935 103.852 97.8833 104.055 97.78C104.262 97.6767 104.46 97.5117 104.65 97.285L105.755 97.84C105.515 98.2533 105.175 98.5767 104.735 98.81C104.295 99.0433 103.805 99.16 103.265 99.16ZM101.985 95.79H104.365C104.332 95.5933 104.26 95.4233 104.15 95.28C104.044 95.1367 103.907 95.0267 103.74 94.95C103.574 94.8733 103.385 94.835 103.175 94.835C102.952 94.835 102.755 94.8733 102.585 94.95C102.415 95.0267 102.279 95.1367 102.175 95.28C102.072 95.4233 102.009 95.5933 101.985 95.79ZM107.03 101.75C106.807 101.75 106.575 101.722 106.335 101.665C106.095 101.612 105.902 101.538 105.755 101.445L106.225 100.21C106.382 100.32 106.545 100.375 106.715 100.375C107.079 100.375 107.26 100.115 107.26 99.595V93.88H108.795V99.865C108.795 100.448 108.639 100.908 108.325 101.245C108.015 101.582 107.584 101.75 107.03 101.75ZM108.025 92.81C107.862 92.81 107.71 92.77 107.57 92.69C107.43 92.6067 107.319 92.4967 107.235 92.36C107.155 92.22 107.115 92.0667 107.115 91.9C107.115 91.7333 107.155 91.5817 107.235 91.445C107.319 91.305 107.43 91.195 107.57 91.115C107.71 91.0317 107.864 90.99 108.03 90.99C108.194 90.99 108.344 91.0317 108.48 91.115C108.62 91.195 108.73 91.305 108.81 91.445C108.894 91.5817 108.935 91.7317 108.935 91.895C108.935 92.0617 108.894 92.215 108.81 92.355C108.73 92.495 108.62 92.6067 108.48 92.69C108.344 92.77 108.192 92.81 108.025 92.81ZM110.61 99V93.88H112.145V99H110.61ZM111.13 93.46L110.48 92.93L111.865 90.725L112.895 91.5L111.13 93.46ZM116.085 99.16C115.615 99.16 115.187 99.0433 114.8 98.81C114.417 98.5733 114.112 98.25 113.885 97.84C113.662 97.4267 113.55 96.9567 113.55 96.43C113.55 95.9167 113.658 95.4567 113.875 95.05C114.092 94.64 114.39 94.3167 114.77 94.08C115.153 93.84 115.592 93.72 116.085 93.72C116.448 93.72 116.787 93.79 117.1 93.93C117.417 94.0667 117.675 94.2583 117.875 94.505V93.88H119.41V99H117.875V98.325C117.642 98.595 117.373 98.8017 117.07 98.945C116.767 99.0883 116.438 99.16 116.085 99.16ZM116.54 97.855C116.807 97.855 117.043 97.795 117.25 97.675C117.457 97.5517 117.618 97.3833 117.735 97.17C117.852 96.9567 117.91 96.7133 117.91 96.44C117.91 96.1633 117.85 95.92 117.73 95.71C117.613 95.4967 117.452 95.33 117.245 95.21C117.042 95.0867 116.807 95.025 116.54 95.025C116.277 95.025 116.042 95.0867 115.835 95.21C115.628 95.33 115.465 95.4967 115.345 95.71C115.225 95.9233 115.165 96.1667 115.165 96.44C115.165 96.7133 115.223 96.9567 115.34 97.17C115.46 97.3833 115.623 97.5517 115.83 97.675C116.037 97.795 116.273 97.855 116.54 97.855ZM123.101 99L126.416 90.75H127.921L131.231 99H129.486L128.786 97.12H125.546L124.846 99H123.101ZM126.101 95.7H128.236L127.166 92.935L126.101 95.7ZM132.231 99V93.88H133.766V94.615C133.956 94.3283 134.188 94.1083 134.461 93.955C134.738 93.7983 135.035 93.72 135.351 93.72C135.531 93.72 135.718 93.7467 135.911 93.8C136.105 93.8533 136.266 93.9217 136.396 94.005L135.756 95.3C135.643 95.2233 135.51 95.1633 135.356 95.12C135.206 95.0733 135.066 95.05 134.936 95.05C134.736 95.05 134.546 95.1017 134.366 95.205C134.186 95.3083 134.041 95.4433 133.931 95.61C133.821 95.7733 133.766 95.95 133.766 96.14V99H132.231ZM137.251 99V93.88H138.786V94.615C138.976 94.3283 139.207 94.1083 139.481 93.955C139.757 93.7983 140.054 93.72 140.371 93.72C140.551 93.72 140.737 93.7467 140.931 93.8C141.124 93.8533 141.286 93.9217 141.416 94.005L140.776 95.3C140.662 95.2233 140.529 95.1633 140.376 95.12C140.226 95.0733 140.086 95.05 139.956 95.05C139.756 95.05 139.566 95.1017 139.386 95.205C139.206 95.3083 139.061 95.4433 138.951 95.61C138.841 95.7733 138.786 95.95 138.786 96.14V99H137.251ZM144.762 99.16C144.198 99.16 143.69 99.045 143.237 98.815C142.783 98.5817 142.423 98.2617 142.157 97.855C141.89 97.445 141.757 96.9733 141.757 96.44C141.757 95.9067 141.888 95.4367 142.152 95.03C142.418 94.62 142.778 94.3 143.232 94.07C143.688 93.8367 144.198 93.72 144.762 93.72C145.328 93.72 145.838 93.8367 146.292 94.07C146.745 94.3 147.103 94.62 147.367 95.03C147.633 95.4367 147.767 95.9067 147.767 96.44C147.767 96.9733 147.633 97.445 147.367 97.855C147.103 98.2617 146.745 98.5817 146.292 98.815C145.838 99.045 145.328 99.16 144.762 99.16ZM144.767 97.85C145.027 97.85 145.263 97.79 145.477 97.67C145.69 97.55 145.858 97.385 145.982 97.175C146.105 96.9617 146.167 96.7167 146.167 96.44C146.167 96.1633 146.105 95.92 145.982 95.71C145.858 95.4967 145.69 95.33 145.477 95.21C145.263 95.09 145.027 95.03 144.767 95.03C144.503 95.03 144.265 95.09 144.052 95.21C143.842 95.33 143.675 95.4967 143.552 95.71C143.428 95.92 143.367 96.1633 143.367 96.44C143.367 96.7167 143.428 96.9617 143.552 97.175C143.675 97.385 143.842 97.55 144.052 97.67C144.265 97.79 144.503 97.85 144.767 97.85ZM148.867 101.6L150.522 98.36L148.087 93.88H149.847L151.417 96.88L152.777 93.88H154.537L150.622 101.6H148.867ZM157.906 99.16C157.343 99.16 156.835 99.045 156.381 98.815C155.928 98.5817 155.568 98.2617 155.301 97.855C155.035 97.445 154.901 96.9733 154.901 96.44C154.901 95.9067 155.033 95.4367 155.296 95.03C155.563 94.62 155.923 94.3 156.376 94.07C156.833 93.8367 157.343 93.72 157.906 93.72C158.473 93.72 158.983 93.8367 159.436 94.07C159.89 94.3 160.248 94.62 160.511 95.03C160.778 95.4367 160.911 95.9067 160.911 96.44C160.911 96.9733 160.778 97.445 160.511 97.855C160.248 98.2617 159.89 98.5817 159.436 98.815C158.983 99.045 158.473 99.16 157.906 99.16ZM157.911 97.85C158.171 97.85 158.408 97.79 158.621 97.67C158.835 97.55 159.003 97.385 159.126 97.175C159.25 96.9617 159.311 96.7167 159.311 96.44C159.311 96.1633 159.25 95.92 159.126 95.71C159.003 95.4967 158.835 95.33 158.621 95.21C158.408 95.09 158.171 95.03 157.911 95.03C157.648 95.03 157.41 95.09 157.196 95.21C156.986 95.33 156.82 95.4967 156.696 95.71C156.573 95.92 156.511 96.1633 156.511 96.44C156.511 96.7167 156.573 96.9617 156.696 97.175C156.82 97.385 156.986 97.55 157.196 97.67C157.41 97.79 157.648 97.85 157.911 97.85Z" fill="white"/>
</svg>
