<svg width="216" height="40" viewBox="0 0 216 40" fill="none" xmlns="http://www.w3.org/2000/svg">
<rect width="216" height="40" rx="20" fill="#4AAEAD"/>
<path d="M60.5831 24.536C61.2871 24.8133 61.6391 25.128 61.6391 25.48C61.6391 25.6933 61.6125 25.8533 61.5591 25.96C61.5058 26.0667 61.4738 26.136 61.4631 26.168C61.4525 26.2107 61.4258 26.2853 61.3831 26.392C61.3405 26.5093 61.2231 26.7067 61.0311 26.984C60.8498 27.2613 60.6365 27.5013 60.3911 27.704C60.1565 27.9173 59.8205 28.1093 59.3831 28.28C58.9458 28.4613 58.4605 28.552 57.9271 28.552C56.7965 28.552 55.8738 28.1893 55.1591 27.464C54.4551 26.7387 54.1031 25.896 54.1031 24.936C54.1031 24.4773 54.1831 24.056 54.3431 23.672C54.5138 23.2773 54.7165 22.968 54.9511 22.744C55.4205 22.296 55.8578 22.0027 56.2631 21.864L56.5191 21.768C56.5191 21.576 56.5245 21.4373 56.5351 21.352C56.5565 21.256 56.6045 21.1547 56.6791 21.048C56.7645 20.9307 56.8978 20.8507 57.0791 20.808C57.2711 20.7547 57.5218 20.728 57.8311 20.728C58.1405 20.728 58.3858 20.7547 58.5671 20.808C58.7485 20.8507 58.8765 20.936 58.9511 21.064C59.0578 21.2453 59.1111 21.5227 59.1111 21.896V22.024C59.1111 22.4827 58.9778 22.8453 58.7111 23.112C58.4551 23.3787 58.1725 23.56 57.8631 23.656C57.5538 23.7413 57.2658 23.8853 56.9991 24.088C56.7431 24.28 56.6151 24.552 56.6151 24.904C56.6151 25.2453 56.7111 25.512 56.9031 25.704C57.1058 25.896 57.4045 25.992 57.7991 25.992C58.1938 25.992 58.4818 25.928 58.6631 25.8C58.8551 25.672 58.9725 25.544 59.0151 25.416L59.0631 25.24C59.1485 24.9733 59.2551 24.7653 59.3831 24.616C59.5111 24.4667 59.6765 24.392 59.8791 24.392C60.0925 24.392 60.3271 24.44 60.5831 24.536ZM59.2071 18.984C59.1005 19.1867 58.9351 19.3253 58.7111 19.4C58.4978 19.4747 58.1565 19.512 57.6871 19.512C57.2285 19.512 56.8925 19.4107 56.6791 19.208C56.4765 19.0053 56.3751 18.6853 56.3751 18.248V17.992C56.3751 17.736 56.3805 17.5493 56.3911 17.432C56.4125 17.304 56.4658 17.1547 56.5511 16.984C56.7218 16.6747 57.1271 16.52 57.7671 16.52C58.4178 16.52 58.8445 16.6267 59.0471 16.84C59.2605 17.0533 59.3671 17.4533 59.3671 18.04C59.3671 18.456 59.3138 18.7707 59.2071 18.984ZM65.347 22.168H70.275C70.5203 22.168 70.7017 22.1787 70.819 22.2C70.947 22.2107 71.091 22.2587 71.251 22.344C71.539 22.4933 71.683 22.9093 71.683 23.592C71.683 24.3387 71.4857 24.776 71.091 24.904C70.9097 24.968 70.6323 25 70.259 25H63.923C63.1763 25 62.739 24.7973 62.611 24.392C62.547 24.2213 62.515 23.9493 62.515 23.576V14.68C62.515 14.136 62.6163 13.768 62.819 13.576C63.0217 13.3733 63.4057 13.272 63.971 13.272H70.275C70.5203 13.272 70.7017 13.2827 70.819 13.304C70.947 13.3147 71.091 13.3627 71.251 13.448C71.539 13.5973 71.683 14.0133 71.683 14.696C71.683 15.4427 71.4857 15.88 71.091 16.008C70.9097 16.072 70.6323 16.104 70.259 16.104H65.347V17.72H68.515C68.7603 17.72 68.9417 17.7307 69.059 17.752C69.187 17.7627 69.331 17.8107 69.491 17.896C69.779 18.0453 69.923 18.4613 69.923 19.144C69.923 19.8907 69.7203 20.328 69.315 20.456C69.1337 20.52 68.8563 20.552 68.483 20.552H65.347V22.168ZM75.4701 17.688C75.9715 16.9307 76.5741 16.552 77.2781 16.552C78.3661 16.552 79.1768 17.016 79.7101 17.944C79.8275 17.784 79.9661 17.6187 80.1261 17.448C80.2968 17.2667 80.5635 17.0747 80.9261 16.872C81.2888 16.6587 81.6621 16.552 82.0461 16.552C82.8995 16.552 83.6141 16.8827 84.1901 17.544C84.7661 18.1947 85.0541 19.2773 85.0541 20.792V23.592C85.0541 23.8373 85.0435 24.024 85.0221 24.152C85.0115 24.2693 84.9635 24.408 84.8781 24.568C84.7395 24.856 84.3288 25 83.6461 25C82.9741 25 82.5635 24.8507 82.4141 24.552C82.3395 24.392 82.2915 24.2533 82.2701 24.136C82.2595 24.008 82.2541 23.8213 82.2541 23.576V20.776C82.2541 19.848 81.9235 19.384 81.2621 19.384C80.8888 19.384 80.6328 19.5067 80.4941 19.752C80.3661 19.9973 80.3021 20.344 80.3021 20.792V23.592C80.3021 23.848 80.2915 24.0347 80.2701 24.152C80.2595 24.2693 80.2115 24.408 80.1261 24.568C79.9768 24.856 79.5608 25 78.8781 25C78.2061 25 77.7955 24.8507 77.6461 24.552C77.5715 24.392 77.5235 24.2533 77.5021 24.136C77.4915 24.008 77.4861 23.8213 77.4861 23.576V20.776C77.4861 19.848 77.1555 19.384 76.4941 19.384C75.8541 19.384 75.5341 19.848 75.5341 20.776V23.608C75.5341 23.8533 75.5235 24.04 75.5021 24.168C75.4915 24.2853 75.4435 24.424 75.3581 24.584C75.1981 24.8613 74.7821 25 74.1101 25C73.4381 25 73.0275 24.856 72.8781 24.568C72.8035 24.408 72.7555 24.2693 72.7341 24.152C72.7235 24.0347 72.7181 23.848 72.7181 23.592V17.96C72.7181 17.7147 72.7235 17.5333 72.7341 17.416C72.7555 17.288 72.8088 17.1493 72.8941 17C73.0541 16.712 73.4328 16.568 74.0301 16.568C74.6275 16.568 75.0168 16.664 75.1981 16.856C75.3795 17.048 75.4701 17.3253 75.4701 17.688ZM86.3275 27.288V17.944C86.3275 17.6987 86.3328 17.5173 86.3435 17.4C86.3648 17.2827 86.4128 17.1493 86.4875 17C86.6368 16.712 86.9942 16.568 87.5595 16.568C88.1248 16.568 88.5035 16.6427 88.6955 16.792C88.8982 16.9307 89.0155 17.1387 89.0475 17.416C89.4528 16.8613 90.0875 16.584 90.9515 16.584C91.8262 16.584 92.6528 16.9947 93.4315 17.816C94.2102 18.6373 94.5995 19.592 94.5995 20.68C94.5995 21.768 94.2102 22.7227 93.4315 23.544C92.6635 24.3653 91.8422 24.776 90.9675 24.776C90.0928 24.776 89.4582 24.5307 89.0635 24.04V27.272C89.0635 27.5173 89.0528 27.6987 89.0315 27.816C89.0208 27.9333 88.9728 28.0667 88.8875 28.216C88.8128 28.376 88.6795 28.488 88.4875 28.552C88.2955 28.616 88.0342 28.648 87.7035 28.648C87.3728 28.648 87.1062 28.616 86.9035 28.552C86.7115 28.488 86.5728 28.3813 86.4875 28.232C86.4128 28.0827 86.3648 27.9493 86.3435 27.832C86.3328 27.7147 86.3275 27.5333 86.3275 27.288ZM89.4955 19.752C89.2502 20.04 89.1275 20.3547 89.1275 20.696C89.1275 21.0373 89.2502 21.352 89.4955 21.64C89.7515 21.9173 90.0715 22.056 90.4555 22.056C90.8502 22.056 91.1808 21.9173 91.4475 21.64C91.7248 21.3627 91.8635 21.048 91.8635 20.696C91.8635 20.344 91.7355 20.0293 91.4795 19.752C91.2235 19.464 90.8875 19.32 90.4715 19.32C90.0662 19.32 89.7408 19.464 89.4955 19.752ZM103.768 19.784C103.768 20.4347 103.603 20.92 103.272 21.24C102.952 21.5493 102.595 21.704 102.2 21.704H98.408C98.408 22.0027 98.584 22.2533 98.936 22.456C99.288 22.6587 99.64 22.76 99.992 22.76C100.611 22.76 101.096 22.696 101.448 22.568L101.624 22.504C101.88 22.3867 102.093 22.328 102.264 22.328C102.605 22.328 102.899 22.568 103.144 23.048C103.283 23.336 103.352 23.5813 103.352 23.784C103.352 24.7333 102.216 25.208 99.944 25.208C99.1547 25.208 98.4507 25.0747 97.832 24.808C97.224 24.5307 96.7493 24.168 96.408 23.72C95.736 22.856 95.4 21.8907 95.4 20.824C95.4 19.48 95.832 18.408 96.696 17.608C97.5707 16.7973 98.6587 16.392 99.96 16.392C101.443 16.392 102.531 16.9147 103.224 17.96C103.587 18.5147 103.768 19.1227 103.768 19.784ZM100.392 20.248C100.797 20.248 101 20.0773 101 19.736C101 19.4907 100.904 19.2933 100.712 19.144C100.531 18.9947 100.264 18.92 99.912 18.92C99.5707 18.92 99.2293 19.064 98.888 19.352C98.5467 19.6293 98.376 19.928 98.376 20.248H100.392ZM109.02 22.184H111.756C112.183 22.184 112.487 22.2373 112.668 22.344C112.86 22.4507 112.988 22.6053 113.052 22.808C113.116 23.0107 113.148 23.2773 113.148 23.608C113.148 23.9387 113.116 24.2053 113.052 24.408C112.988 24.6107 112.876 24.7547 112.716 24.84C112.556 24.9147 112.412 24.9627 112.284 24.984C112.167 24.9947 111.985 25 111.74 25H105.964C105.591 25 105.265 24.8613 104.988 24.584C104.711 24.3067 104.572 23.976 104.572 23.592C104.572 23.208 104.711 22.8827 104.988 22.616C105.265 22.3387 105.692 21.944 106.268 21.432C106.844 20.92 107.367 20.4613 107.836 20.056C108.305 19.64 108.561 19.4107 108.604 19.368H106.348C105.74 19.368 105.356 19.2667 105.196 19.064C105.015 18.8293 104.924 18.52 104.924 18.136C104.924 17.752 104.951 17.4693 105.004 17.288C105.057 17.096 105.121 16.9573 105.196 16.872C105.271 16.776 105.377 16.7013 105.516 16.648C105.697 16.5947 105.975 16.568 106.348 16.568H111.548C111.921 16.568 112.247 16.7013 112.524 16.968C112.801 17.2347 112.94 17.5707 112.94 17.976C112.94 18.3707 112.78 18.7227 112.46 19.032C112.14 19.3413 110.993 20.392 109.02 22.184ZM119.659 17.464C119.723 16.8667 120.144 16.568 120.923 16.568C121.339 16.568 121.648 16.6 121.851 16.664C122.054 16.728 122.192 16.84 122.267 17C122.352 17.16 122.4 17.304 122.411 17.432C122.432 17.5493 122.443 17.7307 122.443 17.976V23.576C122.443 23.8213 122.432 24.008 122.411 24.136C122.4 24.2533 122.358 24.392 122.283 24.552C122.134 24.8293 121.766 24.968 121.179 24.968C120.603 24.968 120.214 24.8987 120.011 24.76C119.819 24.6107 119.707 24.3973 119.675 24.12C119.28 24.6853 118.619 24.968 117.691 24.968C116.774 24.968 115.92 24.5467 115.131 23.704C114.342 22.8613 113.947 21.8853 113.947 20.776C113.947 19.656 114.342 18.68 115.131 17.848C115.931 17.0053 116.806 16.584 117.755 16.584C118.118 16.584 118.448 16.648 118.747 16.776C119.046 16.904 119.254 17.0267 119.371 17.144C119.488 17.2507 119.584 17.3573 119.659 17.464ZM116.747 20.792C116.747 21.144 116.886 21.464 117.163 21.752C117.44 22.0293 117.776 22.168 118.171 22.168C118.566 22.168 118.891 22.024 119.147 21.736C119.414 21.448 119.547 21.1333 119.547 20.792C119.547 20.44 119.419 20.1147 119.163 19.816C118.918 19.5173 118.582 19.368 118.155 19.368C117.739 19.368 117.398 19.5173 117.131 19.816C116.875 20.1147 116.747 20.44 116.747 20.792ZM126.47 17.688C126.971 16.9307 127.574 16.552 128.278 16.552C129.366 16.552 130.177 17.016 130.71 17.944C130.827 17.784 130.966 17.6187 131.126 17.448C131.297 17.2667 131.563 17.0747 131.926 16.872C132.289 16.6587 132.662 16.552 133.046 16.552C133.899 16.552 134.614 16.8827 135.19 17.544C135.766 18.1947 136.054 19.2773 136.054 20.792V23.592C136.054 23.8373 136.043 24.024 136.022 24.152C136.011 24.2693 135.963 24.408 135.878 24.568C135.739 24.856 135.329 25 134.646 25C133.974 25 133.563 24.8507 133.414 24.552C133.339 24.392 133.291 24.2533 133.27 24.136C133.259 24.008 133.254 23.8213 133.254 23.576V20.776C133.254 19.848 132.923 19.384 132.262 19.384C131.889 19.384 131.633 19.5067 131.494 19.752C131.366 19.9973 131.302 20.344 131.302 20.792V23.592C131.302 23.848 131.291 24.0347 131.27 24.152C131.259 24.2693 131.211 24.408 131.126 24.568C130.977 24.856 130.561 25 129.878 25C129.206 25 128.795 24.8507 128.646 24.552C128.571 24.392 128.523 24.2533 128.502 24.136C128.491 24.008 128.486 23.8213 128.486 23.576V20.776C128.486 19.848 128.155 19.384 127.494 19.384C126.854 19.384 126.534 19.848 126.534 20.776V23.608C126.534 23.8533 126.523 24.04 126.502 24.168C126.491 24.2853 126.443 24.424 126.358 24.584C126.198 24.8613 125.782 25 125.11 25C124.438 25 124.027 24.856 123.878 24.568C123.803 24.408 123.755 24.2693 123.734 24.152C123.723 24.0347 123.718 23.848 123.718 23.592V17.96C123.718 17.7147 123.723 17.5333 123.734 17.416C123.755 17.288 123.809 17.1493 123.894 17C124.054 16.712 124.433 16.568 125.03 16.568C125.627 16.568 126.017 16.664 126.198 16.856C126.379 17.048 126.47 17.3253 126.47 17.688ZM137.088 20.792C137.088 19.512 137.536 18.456 138.432 17.624C139.328 16.792 140.352 16.376 141.504 16.376C142.656 16.376 143.674 16.792 144.56 17.624C145.445 18.4453 145.888 19.496 145.888 20.776C145.888 21.6613 145.658 22.4507 145.2 23.144C144.741 23.8267 144.181 24.3333 143.52 24.664C142.869 24.984 142.192 25.144 141.488 25.144C140.784 25.144 140.101 24.9733 139.44 24.632C138.778 24.28 138.218 23.768 137.76 23.096C137.312 22.4133 137.088 21.6453 137.088 20.792ZM140.432 21.944C140.773 22.2 141.12 22.328 141.472 22.328C141.824 22.328 142.176 22.1947 142.528 21.928C142.88 21.6613 143.056 21.2667 143.056 20.744C143.056 20.2213 142.89 19.832 142.56 19.576C142.229 19.32 141.872 19.192 141.488 19.192C141.104 19.192 140.746 19.3253 140.416 19.592C140.085 19.8587 139.92 20.2533 139.92 20.776C139.92 21.288 140.09 21.6773 140.432 21.944ZM146.985 24.248C146.783 24.12 146.681 23.9173 146.681 23.64C146.681 23.3627 146.884 22.9413 147.289 22.376C147.407 22.1947 147.593 22.104 147.849 22.104C148.116 22.104 148.473 22.2373 148.921 22.504C149.369 22.76 149.775 22.888 150.137 22.888C150.788 22.888 151.113 22.76 151.113 22.504C151.113 22.3013 150.756 22.152 150.041 22.056C149.369 21.96 148.703 21.7093 148.041 21.304C147.732 21.112 147.476 20.8133 147.273 20.408C147.071 19.992 146.969 19.5013 146.969 18.936C146.969 17.2507 148.127 16.408 150.441 16.408C151.199 16.408 151.977 16.5893 152.777 16.952C153.151 17.1227 153.337 17.336 153.337 17.592C153.337 17.848 153.22 18.1627 152.985 18.536C152.751 18.9093 152.511 19.096 152.265 19.096C152.137 19.096 151.897 19.016 151.545 18.856C151.204 18.696 150.831 18.616 150.425 18.616C149.796 18.616 149.481 18.7333 149.481 18.968C149.481 19.288 149.844 19.496 150.569 19.592C151.273 19.6667 151.956 19.8693 152.617 20.2C152.927 20.3493 153.183 20.6107 153.385 20.984C153.599 21.3467 153.705 21.8053 153.705 22.36C153.705 22.9147 153.599 23.3893 153.385 23.784C153.183 24.168 152.895 24.456 152.521 24.648C151.839 24.9787 150.98 25.144 149.945 25.144C148.921 25.144 147.935 24.8453 146.985 24.248ZM156.877 19.64L156.893 19.512C156.893 19.0533 157.021 18.6907 157.277 18.424C157.544 18.1573 157.832 17.9813 158.141 17.896C158.451 17.8107 158.733 17.6667 158.989 17.464C159.256 17.2613 159.389 16.9893 159.389 16.648C159.389 16.296 159.288 16.024 159.085 15.832C158.893 15.64 158.6 15.544 158.205 15.544C157.811 15.544 157.517 15.608 157.325 15.736C157.144 15.8533 157.032 15.976 156.989 16.104L156.941 16.296C156.845 16.5733 156.733 16.7867 156.605 16.936C156.477 17.0747 156.312 17.144 156.109 17.144C155.907 17.144 155.64 17.08 155.309 16.952C154.669 16.7067 154.349 16.4027 154.349 16.04C154.349 15.88 154.381 15.72 154.445 15.56C154.509 15.3893 154.563 15.2507 154.605 15.144C154.648 15.0267 154.76 14.8293 154.941 14.552C155.133 14.2747 155.347 14.0347 155.581 13.832C155.827 13.6187 156.168 13.4267 156.605 13.256C157.043 13.0747 157.528 12.984 158.061 12.984C159.192 12.984 160.115 13.3467 160.829 14.072C161.544 14.7973 161.901 15.64 161.901 16.6C161.901 17.0587 161.816 17.4853 161.645 17.88C161.485 18.264 161.288 18.568 161.053 18.792C160.584 19.24 160.147 19.5387 159.741 19.688L159.485 19.768C159.485 19.9493 159.475 20.088 159.453 20.184C159.443 20.28 159.395 20.3867 159.309 20.504C159.235 20.6107 159.101 20.6907 158.909 20.744C158.728 20.7867 158.483 20.808 158.173 20.808C157.864 20.808 157.613 20.7813 157.421 20.728C157.24 20.6747 157.112 20.584 157.037 20.456C156.963 20.328 156.915 20.216 156.893 20.12C156.883 20.0133 156.877 19.8533 156.877 19.64ZM156.813 22.504C156.899 22.3333 157.048 22.2107 157.261 22.136C157.485 22.0613 157.832 22.024 158.301 22.024C158.771 22.024 159.107 22.1307 159.309 22.344C159.523 22.5467 159.629 22.9467 159.629 23.544C159.629 23.9707 159.576 24.2907 159.469 24.504C159.363 24.7067 159.197 24.8453 158.973 24.92C158.76 24.984 158.424 25.016 157.965 25.016C157.507 25.016 157.155 24.904 156.909 24.68C156.728 24.4987 156.637 24.1893 156.637 23.752V23.496C156.637 23.2507 156.643 23.064 156.653 22.936C156.675 22.808 156.728 22.664 156.813 22.504Z" fill="white"/>
</svg>
