<svg width="195" height="55" viewBox="0 0 195 55" fill="none" xmlns="http://www.w3.org/2000/svg">
<path d="M4.544 50.5V38.756H0.72V37.3H10V38.756H6.168V50.5H4.544ZM14.7538 50.756C13.4364 50.756 12.4924 50.4733 11.9218 49.908C11.3511 49.3373 11.0658 48.3907 11.0658 47.068V42.308H12.6178V46.748C12.6178 47.7293 12.7804 48.428 13.1058 48.844C13.4311 49.26 13.9804 49.468 14.7538 49.468C15.5324 49.468 16.0844 49.26 16.4098 48.844C16.7351 48.428 16.8978 47.7293 16.8978 46.748V42.308H18.4497V47.068C18.4497 48.3907 18.1644 49.3373 17.5938 49.908C17.0231 50.4733 16.0764 50.756 14.7538 50.756ZM29.2058 50.756C28.4431 50.756 27.7524 50.5693 27.1338 50.196C26.5204 49.8173 26.0324 49.3 25.6698 48.644C25.3124 47.988 25.1338 47.2387 25.1338 46.396C25.1338 45.564 25.3098 44.8227 25.6618 44.172C26.0138 43.516 26.4964 42.9987 27.1098 42.62C27.7231 42.2413 28.4218 42.052 29.2058 42.052C29.8991 42.052 30.5311 42.2067 31.1018 42.516C31.6778 42.8253 32.1231 43.2547 32.4378 43.804V42.308H33.9898V50.5H32.4378V48.964C32.0804 49.5293 31.6218 49.9693 31.0618 50.284C30.5018 50.5987 29.8831 50.756 29.2058 50.756ZM29.6218 49.42C30.1818 49.42 30.6751 49.292 31.1018 49.036C31.5338 48.7747 31.8724 48.4173 32.1178 47.964C32.3631 47.5107 32.4858 46.9907 32.4858 46.404C32.4858 45.8173 32.3631 45.2973 32.1178 44.844C31.8724 44.3907 31.5338 44.036 31.1018 43.78C30.6751 43.5187 30.1818 43.388 29.6218 43.388C29.0671 43.388 28.5738 43.5187 28.1418 43.78C27.7098 44.036 27.3684 44.3907 27.1178 44.844C26.8724 45.2973 26.7498 45.8173 26.7498 46.404C26.7498 46.9853 26.8724 47.5053 27.1178 47.964C27.3684 48.4173 27.7098 48.7747 28.1418 49.036C28.5738 49.292 29.0671 49.42 29.6218 49.42ZM39.3865 50.756C38.7038 50.756 38.0985 50.6093 37.5705 50.316C37.0478 50.0173 36.6318 49.5933 36.3225 49.044L37.0665 48.084C37.3492 48.5587 37.6905 48.9267 38.0905 49.188C38.4905 49.4493 38.9198 49.58 39.3785 49.58C39.6772 49.58 39.9465 49.5213 40.1865 49.404C40.4318 49.2867 40.6265 49.1187 40.7705 48.9C40.9145 48.676 40.9865 48.412 40.9865 48.108C40.9865 47.8147 40.9118 47.5853 40.7625 47.42C40.6185 47.2493 40.4025 47.1 40.1145 46.972C39.8318 46.844 39.4772 46.6973 39.0505 46.532C38.7092 46.3933 38.3785 46.236 38.0585 46.06C37.7385 45.884 37.4745 45.6627 37.2665 45.396C37.0638 45.124 36.9625 44.78 36.9625 44.364C36.9625 43.916 37.0825 43.5187 37.3225 43.172C37.5678 42.8253 37.9038 42.5533 38.3305 42.356C38.7572 42.1587 39.2425 42.06 39.7865 42.06C40.2292 42.06 40.6585 42.148 41.0745 42.324C41.4905 42.5 41.8852 42.7533 42.2585 43.084L41.6345 44.028C41.0798 43.4413 40.4665 43.148 39.7945 43.148C39.3892 43.148 39.0612 43.252 38.8105 43.46C38.5598 43.6627 38.4345 43.9267 38.4345 44.252C38.4345 44.5027 38.5252 44.7133 38.7065 44.884C38.8878 45.0493 39.1198 45.1933 39.4025 45.316C39.6852 45.4387 39.9785 45.5587 40.2825 45.676C40.7412 45.8467 41.1412 46.0227 41.4825 46.204C41.8292 46.3853 42.0985 46.62 42.2905 46.908C42.4825 47.1907 42.5785 47.572 42.5785 48.052C42.5785 48.612 42.4452 49.0947 42.1785 49.5C41.9172 49.9053 41.5465 50.2173 41.0665 50.436C40.5865 50.6493 40.0265 50.756 39.3865 50.756ZM49.0821 50.756C48.2235 50.756 47.4528 50.5667 46.7701 50.188C46.0875 49.8093 45.5488 49.2947 45.1541 48.644C44.7595 47.988 44.5621 47.2493 44.5621 46.428C44.5621 45.82 44.6741 45.252 44.8981 44.724C45.1221 44.196 45.4341 43.732 45.8341 43.332C46.2341 42.9267 46.6981 42.612 47.2261 42.388C47.7541 42.164 48.3195 42.052 48.9221 42.052C49.7755 42.052 50.5221 42.228 51.1621 42.58C51.8075 42.932 52.3088 43.4227 52.6661 44.052C53.0288 44.6813 53.2101 45.412 53.2101 46.244C53.2101 46.3133 53.2075 46.3693 53.2021 46.412C53.1968 46.4547 53.1861 46.5107 53.1701 46.58H46.1301C46.1301 47.1507 46.2581 47.6547 46.5141 48.092C46.7755 48.5293 47.1328 48.8733 47.5861 49.124C48.0448 49.3693 48.5701 49.492 49.1621 49.492C49.7221 49.492 50.2235 49.3773 50.6661 49.148C51.1088 48.9187 51.4928 48.5773 51.8181 48.124L52.9541 48.716C52.5648 49.3613 52.0288 49.8627 51.3461 50.22C50.6688 50.5773 49.9141 50.756 49.0821 50.756ZM46.2101 45.436H51.6501C51.5755 45.0147 51.4101 44.6467 51.1541 44.332C50.9035 44.012 50.5861 43.764 50.2021 43.588C49.8235 43.4067 49.4048 43.316 48.9461 43.316C48.4661 43.316 48.0315 43.404 47.6421 43.58C47.2581 43.7507 46.9408 43.996 46.6901 44.316C46.4448 44.6307 46.2848 45.004 46.2101 45.436ZM57.9178 50.756C57.2351 50.756 56.6298 50.6093 56.1018 50.316C55.5791 50.0173 55.1631 49.5933 54.8538 49.044L55.5978 48.084C55.8804 48.5587 56.2218 48.9267 56.6218 49.188C57.0218 49.4493 57.4511 49.58 57.9098 49.58C58.2084 49.58 58.4778 49.5213 58.7178 49.404C58.9631 49.2867 59.1578 49.1187 59.3018 48.9C59.4458 48.676 59.5178 48.412 59.5178 48.108C59.5178 47.8147 59.4431 47.5853 59.2938 47.42C59.1498 47.2493 58.9338 47.1 58.6458 46.972C58.3631 46.844 58.0084 46.6973 57.5818 46.532C57.2404 46.3933 56.9098 46.236 56.5898 46.06C56.2698 45.884 56.0058 45.6627 55.7978 45.396C55.5951 45.124 55.4938 44.78 55.4938 44.364C55.4938 43.916 55.6138 43.5187 55.8538 43.172C56.0991 42.8253 56.4351 42.5533 56.8618 42.356C57.2884 42.1587 57.7738 42.06 58.3177 42.06C58.7604 42.06 59.1898 42.148 59.6058 42.324C60.0218 42.5 60.4164 42.7533 60.7898 43.084L60.1658 44.028C59.6111 43.4413 58.9978 43.148 58.3258 43.148C57.9204 43.148 57.5924 43.252 57.3418 43.46C57.0911 43.6627 56.9658 43.9267 56.9658 44.252C56.9658 44.5027 57.0564 44.7133 57.2378 44.884C57.4191 45.0493 57.6511 45.1933 57.9338 45.316C58.2164 45.4387 58.5098 45.5587 58.8138 45.676C59.2724 45.8467 59.6724 46.0227 60.0138 46.204C60.3604 46.3853 60.6298 46.62 60.8218 46.908C61.0138 47.1907 61.1098 47.572 61.1098 48.052C61.1098 48.612 60.9764 49.0947 60.7098 49.5C60.4484 49.9053 60.0778 50.2173 59.5978 50.436C59.1178 50.6493 58.5578 50.756 57.9178 50.756ZM67.7094 50.756C66.84 50.756 66.056 50.572 65.3574 50.204C64.664 49.836 64.112 49.324 63.7014 48.668C63.296 48.012 63.0934 47.2573 63.0934 46.404C63.0934 45.5453 63.296 44.7907 63.7014 44.14C64.112 43.484 64.664 42.972 65.3574 42.604C66.056 42.236 66.84 42.052 67.7094 42.052C68.5787 42.052 69.36 42.236 70.0534 42.604C70.752 42.972 71.304 43.484 71.7094 44.14C72.12 44.7907 72.3254 45.5453 72.3254 46.404C72.3254 47.2573 72.12 48.012 71.7094 48.668C71.304 49.324 70.752 49.836 70.0534 50.204C69.36 50.572 68.5787 50.756 67.7094 50.756ZM67.7174 49.404C68.288 49.404 68.8 49.276 69.2534 49.02C69.7067 48.764 70.064 48.4093 70.3254 47.956C70.5867 47.5027 70.7174 46.9853 70.7174 46.404C70.7174 45.8173 70.5867 45.3 70.3254 44.852C70.064 44.3987 69.7067 44.044 69.2534 43.788C68.8 43.532 68.288 43.404 67.7174 43.404C67.1414 43.404 66.6267 43.532 66.1734 43.788C65.72 44.044 65.3627 44.3987 65.1014 44.852C64.84 45.3 64.7094 45.8173 64.7094 46.404C64.7094 46.9853 64.84 47.5027 65.1014 47.956C65.3627 48.4093 65.72 48.764 66.1734 49.02C66.6267 49.276 67.1414 49.404 67.7174 49.404ZM74.9213 50.5V42.308H76.4733V43.508C76.7453 43.0333 77.0919 42.6733 77.5133 42.428C77.9346 42.1773 78.4119 42.052 78.9453 42.052C79.2013 42.052 79.4599 42.084 79.7213 42.148C79.9879 42.2067 80.2173 42.2867 80.4093 42.388L79.7693 43.7C79.6039 43.6093 79.4119 43.5373 79.1933 43.484C78.9746 43.4307 78.7693 43.404 78.5773 43.404C78.2199 43.404 77.8786 43.4973 77.5533 43.684C77.2333 43.8653 76.9719 44.1027 76.7693 44.396C76.5719 44.6893 76.4733 45.004 76.4733 45.34V50.5H74.9213ZM89.9634 50.756C89.206 50.756 88.518 50.5693 87.8994 50.196C87.286 49.8227 86.798 49.308 86.4354 48.652C86.078 47.996 85.8994 47.2467 85.8994 46.404C85.8994 45.5667 86.0754 44.8227 86.4274 44.172C86.7847 43.516 87.27 42.9987 87.8834 42.62C88.502 42.2413 89.206 42.052 89.9954 42.052C90.678 42.052 91.2994 42.2067 91.8594 42.516C92.4247 42.8253 92.8727 43.2547 93.2034 43.804V36.732H94.7554V50.5H93.2034V48.964C92.8514 49.524 92.3927 49.964 91.8274 50.284C91.262 50.5987 90.6407 50.756 89.9634 50.756ZM90.3794 49.42C90.9394 49.42 91.4354 49.292 91.8674 49.036C92.2994 48.7747 92.638 48.4173 92.8834 47.964C93.1287 47.5107 93.2514 46.9933 93.2514 46.412C93.2514 45.8253 93.1287 45.3053 92.8834 44.852C92.638 44.3933 92.2994 44.036 91.8674 43.78C91.4354 43.5187 90.942 43.388 90.3874 43.388C89.8327 43.388 89.3394 43.5187 88.9074 43.78C88.4754 44.036 88.134 44.3933 87.8834 44.852C87.638 45.3053 87.5154 45.8253 87.5154 46.412C87.5154 46.9933 87.638 47.5107 87.8834 47.964C88.1287 48.4173 88.4674 48.7747 88.8994 49.036C89.3314 49.292 89.8247 49.42 90.3794 49.42ZM101.895 50.756C101.036 50.756 100.265 50.5667 99.5826 50.188C98.9 49.8093 98.3613 49.2947 97.9666 48.644C97.572 47.988 97.3746 47.2493 97.3746 46.428C97.3746 45.82 97.4866 45.252 97.7106 44.724C97.9346 44.196 98.2466 43.732 98.6466 43.332C99.0466 42.9267 99.5106 42.612 100.039 42.388C100.567 42.164 101.132 42.052 101.735 42.052C102.588 42.052 103.335 42.228 103.975 42.58C104.62 42.932 105.121 43.4227 105.479 44.052C105.841 44.6813 106.023 45.412 106.023 46.244C106.023 46.3133 106.02 46.3693 106.015 46.412C106.009 46.4547 105.999 46.5107 105.983 46.58H98.9426C98.9426 47.1507 99.0706 47.6547 99.3266 48.092C99.588 48.5293 99.9453 48.8733 100.399 49.124C100.857 49.3693 101.383 49.492 101.975 49.492C102.535 49.492 103.036 49.3773 103.479 49.148C103.921 48.9187 104.305 48.5773 104.631 48.124L105.767 48.716C105.377 49.3613 104.841 49.8627 104.159 50.22C103.481 50.5773 102.727 50.756 101.895 50.756ZM99.0226 45.436H104.463C104.388 45.0147 104.223 44.6467 103.967 44.332C103.716 44.012 103.399 43.764 103.015 43.588C102.636 43.4067 102.217 43.316 101.759 43.316C101.279 43.316 100.844 43.404 100.455 43.58C100.071 43.7507 99.7533 43.996 99.5026 44.316C99.2573 44.6307 99.0973 45.004 99.0226 45.436ZM116.253 50.756C115.49 50.756 114.799 50.5693 114.181 50.196C113.567 49.8173 113.079 49.3 112.717 48.644C112.359 47.988 112.181 47.2387 112.181 46.396C112.181 45.564 112.357 44.8227 112.709 44.172C113.061 43.516 113.543 42.9987 114.157 42.62C114.77 42.2413 115.469 42.052 116.253 42.052C116.946 42.052 117.578 42.2067 118.149 42.516C118.725 42.8253 119.17 43.2547 119.485 43.804V42.308H121.037V50.5H119.485V48.964C119.127 49.5293 118.669 49.9693 118.109 50.284C117.549 50.5987 116.93 50.756 116.253 50.756ZM116.669 49.42C117.229 49.42 117.722 49.292 118.149 49.036C118.581 48.7747 118.919 48.4173 119.165 47.964C119.41 47.5107 119.533 46.9907 119.533 46.404C119.533 45.8173 119.41 45.2973 119.165 44.844C118.919 44.3907 118.581 44.036 118.149 43.78C117.722 43.5187 117.229 43.388 116.669 43.388C116.114 43.388 115.621 43.5187 115.189 43.78C114.757 44.036 114.415 44.3907 114.165 44.844C113.919 45.2973 113.797 45.8173 113.797 46.404C113.797 46.9853 113.919 47.5053 114.165 47.964C114.415 48.4173 114.757 48.7747 115.189 49.036C115.621 49.292 116.114 49.42 116.669 49.42ZM124.312 50.5V36.74H125.864V50.5H124.312ZM129.132 50.5V42.308H130.684V50.5H129.132ZM129.908 40.652C129.732 40.652 129.569 40.6093 129.42 40.524C129.276 40.4333 129.159 40.3133 129.068 40.164C128.983 40.0147 128.94 39.852 128.94 39.676C128.94 39.4947 128.983 39.332 129.068 39.188C129.159 39.044 129.276 38.9293 129.42 38.844C129.569 38.7533 129.732 38.708 129.908 38.708C130.089 38.708 130.252 38.7533 130.396 38.844C130.54 38.9293 130.655 39.044 130.74 39.188C130.831 39.332 130.876 39.4947 130.876 39.676C130.876 39.852 130.831 40.0147 130.74 40.164C130.655 40.3133 130.54 40.4333 130.396 40.524C130.252 40.6093 130.089 40.652 129.908 40.652ZM133.968 50.5V42.308H135.52V43.364C135.867 42.9267 136.259 42.5987 136.696 42.38C137.133 42.1613 137.619 42.052 138.152 42.052C138.813 42.052 139.395 42.204 139.896 42.508C140.397 42.8067 140.747 43.2147 140.944 43.732C141.285 43.2093 141.696 42.7987 142.176 42.5C142.656 42.2013 143.219 42.052 143.864 42.052C144.451 42.052 144.971 42.172 145.424 42.412C145.877 42.652 146.235 42.9987 146.496 43.452C146.757 43.9053 146.888 44.4547 146.888 45.1V50.5H145.336V45.532C145.336 44.8493 145.157 44.308 144.8 43.908C144.443 43.508 143.968 43.308 143.376 43.308C142.965 43.308 142.595 43.3987 142.264 43.58C141.939 43.756 141.68 43.988 141.488 44.276C141.301 44.5587 141.208 44.8573 141.208 45.172V50.5H139.656V45.428C139.656 44.7827 139.48 44.268 139.128 43.884C138.776 43.5 138.307 43.308 137.72 43.308C137.309 43.308 136.936 43.396 136.6 43.572C136.269 43.7427 136.005 43.9667 135.808 44.244C135.616 44.5213 135.52 44.812 135.52 45.116V50.5H133.968ZM153.895 50.756C153.036 50.756 152.265 50.5667 151.583 50.188C150.9 49.8093 150.361 49.2947 149.967 48.644C149.572 47.988 149.375 47.2493 149.375 46.428C149.375 45.82 149.487 45.252 149.711 44.724C149.935 44.196 150.247 43.732 150.647 43.332C151.047 42.9267 151.511 42.612 152.039 42.388C152.567 42.164 153.132 42.052 153.735 42.052C154.588 42.052 155.335 42.228 155.975 42.58C156.62 42.932 157.121 43.4227 157.479 44.052C157.841 44.6813 158.023 45.412 158.023 46.244C158.023 46.3133 158.02 46.3693 158.015 46.412C158.009 46.4547 157.999 46.5107 157.983 46.58H150.943C150.943 47.1507 151.071 47.6547 151.327 48.092C151.588 48.5293 151.945 48.8733 152.399 49.124C152.857 49.3693 153.383 49.492 153.975 49.492C154.535 49.492 155.036 49.3773 155.479 49.148C155.921 48.9187 156.305 48.5773 156.631 48.124L157.767 48.716C157.377 49.3613 156.841 49.8627 156.159 50.22C155.481 50.5773 154.727 50.756 153.895 50.756ZM151.023 45.436H156.463C156.388 45.0147 156.223 44.6467 155.967 44.332C155.716 44.012 155.399 43.764 155.015 43.588C154.636 43.4067 154.217 43.316 153.759 43.316C153.279 43.316 152.844 43.404 152.455 43.58C152.071 43.7507 151.753 43.996 151.503 44.316C151.257 44.6307 151.097 45.004 151.023 45.436ZM160.578 50.5V42.308H162.13V43.364C162.38 42.9907 162.74 42.6787 163.21 42.428C163.679 42.1773 164.236 42.052 164.882 42.052C165.516 42.052 166.066 42.1853 166.53 42.452C166.994 42.7133 167.351 43.092 167.602 43.588C167.858 44.084 167.986 44.676 167.986 45.364V50.5H166.434V45.676C166.434 44.908 166.25 44.3187 165.882 43.908C165.514 43.4973 164.996 43.292 164.33 43.292C163.871 43.292 163.476 43.3853 163.146 43.572C162.82 43.7533 162.57 43.9987 162.394 44.308C162.218 44.612 162.13 44.9453 162.13 45.308V50.5H160.578ZM173.287 50.756C172.615 50.756 172.092 50.5347 171.719 50.092C171.346 49.644 171.159 49.0173 171.159 48.212V43.484H170.247V42.308H171.159V39.244H172.711V42.308H174.679V43.484H172.711V48.116C172.711 48.5213 172.791 48.8333 172.951 49.052C173.111 49.2707 173.34 49.38 173.639 49.38C173.938 49.38 174.204 49.292 174.439 49.116L174.831 50.356C174.623 50.4787 174.38 50.5747 174.103 50.644C173.831 50.7187 173.559 50.756 173.287 50.756ZM181.209 50.756C180.34 50.756 179.556 50.572 178.857 50.204C178.164 49.836 177.612 49.324 177.201 48.668C176.796 48.012 176.593 47.2573 176.593 46.404C176.593 45.5453 176.796 44.7907 177.201 44.14C177.612 43.484 178.164 42.972 178.857 42.604C179.556 42.236 180.34 42.052 181.209 42.052C182.079 42.052 182.86 42.236 183.553 42.604C184.252 42.972 184.804 43.484 185.209 44.14C185.62 44.7907 185.825 45.5453 185.825 46.404C185.825 47.2573 185.62 48.012 185.209 48.668C184.804 49.324 184.252 49.836 183.553 50.204C182.86 50.572 182.079 50.756 181.209 50.756ZM181.217 49.404C181.788 49.404 182.3 49.276 182.753 49.02C183.207 48.764 183.564 48.4093 183.825 47.956C184.087 47.5027 184.217 46.9853 184.217 46.404C184.217 45.8173 184.087 45.3 183.825 44.852C183.564 44.3987 183.207 44.044 182.753 43.788C182.3 43.532 181.788 43.404 181.217 43.404C180.641 43.404 180.127 43.532 179.673 43.788C179.22 44.044 178.863 44.3987 178.601 44.852C178.34 45.3 178.209 45.8173 178.209 46.404C178.209 46.9853 178.34 47.5027 178.601 47.956C178.863 48.4093 179.22 48.764 179.673 49.02C180.127 49.276 180.641 49.404 181.217 49.404ZM190.574 50.756C189.891 50.756 189.286 50.6093 188.758 50.316C188.235 50.0173 187.819 49.5933 187.51 49.044L188.254 48.084C188.537 48.5587 188.878 48.9267 189.278 49.188C189.678 49.4493 190.107 49.58 190.566 49.58C190.865 49.58 191.134 49.5213 191.374 49.404C191.619 49.2867 191.814 49.1187 191.958 48.9C192.102 48.676 192.174 48.412 192.174 48.108C192.174 47.8147 192.099 47.5853 191.95 47.42C191.806 47.2493 191.59 47.1 191.302 46.972C191.019 46.844 190.665 46.6973 190.238 46.532C189.897 46.3933 189.566 46.236 189.246 46.06C188.926 45.884 188.662 45.6627 188.454 45.396C188.251 45.124 188.15 44.78 188.15 44.364C188.15 43.916 188.27 43.5187 188.51 43.172C188.755 42.8253 189.091 42.5533 189.518 42.356C189.945 42.1587 190.43 42.06 190.974 42.06C191.417 42.06 191.846 42.148 192.262 42.324C192.678 42.5 193.073 42.7533 193.446 43.084L192.822 44.028C192.267 43.4413 191.654 43.148 190.982 43.148C190.577 43.148 190.249 43.252 189.998 43.46C189.747 43.6627 189.622 43.9267 189.622 44.252C189.622 44.5027 189.713 44.7133 189.894 44.884C190.075 45.0493 190.307 45.1933 190.59 45.316C190.873 45.4387 191.166 45.5587 191.47 45.676C191.929 45.8467 192.329 46.0227 192.67 46.204C193.017 46.3853 193.286 46.62 193.478 46.908C193.67 47.1907 193.766 47.572 193.766 48.052C193.766 48.612 193.633 49.0947 193.366 49.5C193.105 49.9053 192.734 50.2173 192.254 50.436C191.774 50.6493 191.214 50.756 190.574 50.756Z" fill="white"/>
<path d="M3.12 15.772C2.304 15.772 1.736 15.612 1.416 15.292C1.112 14.972 0.96 14.364 0.96 13.468C0.96 12.54 1.136 11.948 1.488 11.692C1.872 11.404 2.472 11.26 3.288 11.26C4.12 11.26 4.688 11.42 4.992 11.74C5.312 12.06 5.472 12.66 5.472 13.54C5.472 14.484 5.296 15.084 4.944 15.34C4.56 15.628 3.952 15.772 3.12 15.772ZM1.992 17.74C2.312 17.66 2.728 17.62 3.24 17.62C3.752 17.62 4.16 17.66 4.464 17.74C4.768 17.82 4.976 17.964 5.088 18.172C5.216 18.38 5.288 18.564 5.304 18.724C5.336 18.884 5.352 19.132 5.352 19.468V27.076C5.352 27.412 5.336 27.66 5.304 27.82C5.288 27.996 5.216 28.188 5.088 28.396C4.96 28.604 4.736 28.748 4.416 28.828C4.112 28.924 3.704 28.972 3.192 28.972C2.68 28.972 2.272 28.924 1.968 28.828C1.664 28.748 1.448 28.596 1.32 28.372C1.208 28.164 1.136 27.972 1.104 27.796C1.088 27.636 1.08 27.388 1.08 27.052V19.444C1.08 19.108 1.088 18.86 1.104 18.7C1.136 18.54 1.216 18.364 1.344 18.172C1.472 17.964 1.688 17.82 1.992 17.74ZM18.2539 6.556C18.3819 6.316 18.5979 6.148 18.9019 6.052C19.2059 5.956 19.5899 5.908 20.0539 5.908C20.5179 5.908 20.8859 5.948 21.1579 6.028C21.4299 6.108 21.6379 6.204 21.7819 6.316C21.9259 6.428 22.0379 6.588 22.1179 6.796C22.1979 7.068 22.2379 7.484 22.2379 8.044V21.364C22.2379 21.732 22.2219 22.012 22.1899 22.204C22.1739 22.38 22.1019 22.588 21.9739 22.828C21.7499 23.26 21.1259 23.476 20.1019 23.476C18.9819 23.476 18.3259 23.18 18.1339 22.588C18.0379 22.316 17.9899 21.9 17.9899 21.34V16.468H11.6299V21.364C11.6299 21.732 11.6139 22.012 11.5819 22.204C11.5659 22.38 11.4939 22.588 11.3659 22.828C11.1419 23.26 10.5179 23.476 9.49388 23.476C8.37388 23.476 7.71788 23.18 7.52588 22.588C7.42988 22.316 7.38188 21.9 7.38188 21.34V8.02C7.38188 7.652 7.38988 7.38 7.40588 7.204C7.43788 7.012 7.51788 6.796 7.64588 6.556C7.86988 6.124 8.49388 5.908 9.51788 5.908C10.6379 5.908 11.3019 6.204 11.5099 6.796C11.5899 7.068 11.6299 7.484 11.6299 8.044V12.94H17.9899V8.02C17.9899 7.652 17.9979 7.38 18.0139 7.204C18.0459 7.012 18.1259 6.796 18.2539 6.556ZM23.8031 17.188C23.8031 15.268 24.4751 13.684 25.8191 12.436C27.1631 11.188 28.6991 10.564 30.4271 10.564C32.1551 10.564 33.6831 11.188 35.0111 12.436C36.3391 13.668 37.0031 15.244 37.0031 17.164C37.0031 18.492 36.6591 19.676 35.9711 20.716C35.2831 21.74 34.4431 22.5 33.4511 22.996C32.4751 23.476 31.4591 23.716 30.4031 23.716C29.3471 23.716 28.3231 23.46 27.3311 22.948C26.3391 22.42 25.4991 21.652 24.8111 20.644C24.1391 19.62 23.8031 18.468 23.8031 17.188ZM28.8191 18.916C29.3311 19.3 29.8511 19.492 30.3791 19.492C30.9071 19.492 31.4351 19.292 31.9631 18.892C32.4911 18.492 32.7551 17.9 32.7551 17.116C32.7551 16.332 32.5071 15.748 32.0111 15.364C31.5151 14.98 30.9791 14.788 30.4031 14.788C29.8271 14.788 29.2911 14.988 28.7951 15.388C28.2991 15.788 28.0511 16.38 28.0511 17.164C28.0511 17.932 28.3071 18.516 28.8191 18.916ZM38.5538 7.012C38.5538 6.644 38.5618 6.372 38.5778 6.196C38.6098 6.004 38.6818 5.788 38.7938 5.548C39.0178 5.116 39.6418 4.9 40.6658 4.9C41.6418 4.9 42.2498 5.116 42.4898 5.548C42.6178 5.788 42.6898 6.004 42.7058 6.196C42.7378 6.388 42.7538 6.668 42.7538 7.036V18.148C42.7538 18.724 42.8018 19.092 42.8978 19.252C42.9938 19.396 43.2018 19.468 43.5218 19.468C43.8578 19.468 44.0818 19.484 44.1938 19.516C44.3058 19.532 44.4418 19.596 44.6018 19.708C44.9218 19.916 45.0818 20.484 45.0818 21.412C45.0818 22.42 44.9218 23.036 44.6018 23.26C44.1858 23.548 43.1938 23.596 41.6258 23.404C40.3938 23.244 39.5938 22.836 39.2258 22.18C38.7778 21.396 38.5538 20.148 38.5538 18.436V7.012ZM54.6133 12.196C54.7093 11.3 55.3413 10.852 56.5093 10.852C57.1333 10.852 57.5973 10.9 57.9013 10.996C58.2053 11.092 58.4133 11.26 58.5253 11.5C58.6533 11.74 58.7253 11.956 58.7413 12.148C58.7733 12.324 58.7893 12.596 58.7893 12.964V21.364C58.7893 21.732 58.7733 22.012 58.7413 22.204C58.7253 22.38 58.6613 22.588 58.5493 22.828C58.3253 23.244 57.7733 23.452 56.8933 23.452C56.0293 23.452 55.4453 23.348 55.1413 23.14C54.8533 22.916 54.6853 22.596 54.6373 22.18C54.0453 23.028 53.0533 23.452 51.6613 23.452C50.2853 23.452 49.0053 22.82 47.8213 21.556C46.6373 20.292 46.0453 18.828 46.0453 17.164C46.0453 15.484 46.6373 14.02 47.8213 12.772C49.0213 11.508 50.3333 10.876 51.7573 10.876C52.3013 10.876 52.7973 10.972 53.2453 11.164C53.6933 11.356 54.0053 11.54 54.1813 11.716C54.3573 11.876 54.5013 12.036 54.6133 12.196ZM50.2453 17.188C50.2453 17.716 50.4533 18.196 50.8693 18.628C51.2853 19.044 51.7893 19.252 52.3813 19.252C52.9733 19.252 53.4613 19.036 53.8453 18.604C54.2453 18.172 54.4453 17.7 54.4453 17.188C54.4453 16.66 54.2533 16.172 53.8693 15.724C53.5013 15.276 52.9973 15.052 52.3573 15.052C51.7333 15.052 51.2213 15.276 50.8213 15.724C50.4373 16.172 50.2453 16.66 50.2453 17.188ZM60.9422 19.852C61.1022 19.532 61.3422 19.316 61.6622 19.204C61.9982 19.092 62.5102 19.036 63.1982 19.036C63.9022 19.036 64.4062 19.188 64.7102 19.492C65.0302 19.796 65.1902 20.276 65.1902 20.932V21.316C65.1902 21.7 65.1742 21.988 65.1422 22.18C65.1262 22.356 65.0542 22.572 64.9262 22.828C64.6702 23.292 64.0542 23.524 63.0782 23.524C62.1182 23.524 61.4782 23.372 61.1582 23.068C60.8542 22.748 60.7022 22.14 60.7022 21.244C60.7022 20.62 60.7822 20.156 60.9422 19.852ZM64.1582 17.044C63.8542 17.124 63.4462 17.164 62.9342 17.164C62.4222 17.164 62.0142 17.124 61.7102 17.044C61.4062 16.964 61.1902 16.82 61.0622 16.612C60.9502 16.404 60.8782 16.22 60.8462 16.06C60.8302 15.9 60.8222 15.652 60.8222 15.316V7.708C60.8222 7.372 60.8302 7.124 60.8462 6.964C60.8782 6.788 60.9582 6.596 61.0862 6.388C61.2142 6.18 61.4302 6.036 61.7342 5.956C62.0382 5.86 62.4462 5.812 62.9582 5.812C63.4702 5.812 63.8782 5.86 64.1822 5.956C64.4862 6.036 64.6942 6.188 64.8062 6.412C64.9342 6.62 65.0062 6.812 65.0222 6.988C65.0542 7.148 65.0702 7.396 65.0702 7.732V15.34C65.0702 15.676 65.0542 15.924 65.0222 16.084C65.0062 16.244 64.9342 16.428 64.8062 16.636C64.6782 16.828 64.4622 16.964 64.1582 17.044ZM73.4349 21.028C73.0189 20.516 72.8109 20.06 72.8109 19.66C72.8109 19.244 73.1549 18.7 73.8429 18.028C74.2429 17.644 74.6669 17.452 75.1149 17.452C75.5629 17.452 76.1869 17.852 76.9869 18.652C77.2109 18.924 77.5309 19.188 77.9469 19.444C78.3629 19.684 78.7469 19.804 79.0989 19.804C80.5869 19.804 81.3309 19.196 81.3309 17.98C81.3309 17.612 81.1229 17.308 80.7069 17.068C80.3069 16.812 79.8029 16.628 79.1949 16.516C78.5869 16.404 77.9309 16.228 77.2269 15.988C76.5229 15.732 75.8669 15.436 75.2589 15.1C74.6509 14.764 74.1389 14.236 73.7229 13.516C73.3229 12.78 73.1229 11.9 73.1229 10.876C73.1229 9.468 73.6429 8.244 74.6829 7.204C75.7389 6.148 77.1709 5.62 78.9789 5.62C79.9389 5.62 80.8109 5.748 81.5949 6.004C82.3949 6.244 82.9469 6.492 83.2509 6.748L83.8509 7.204C84.3469 7.668 84.5949 8.06 84.5949 8.38C84.5949 8.7 84.4029 9.14 84.0189 9.7C83.4749 10.5 82.9149 10.9 82.3389 10.9C82.0029 10.9 81.5869 10.74 81.0909 10.42C81.0429 10.388 80.9469 10.308 80.8029 10.18C80.6749 10.052 80.5549 9.948 80.4429 9.868C80.1069 9.66 79.6749 9.556 79.1469 9.556C78.6349 9.556 78.2029 9.684 77.8509 9.94C77.5149 10.18 77.3469 10.524 77.3469 10.972C77.3469 11.404 77.5469 11.756 77.9469 12.028C78.3629 12.3 78.8749 12.484 79.4829 12.58C80.0909 12.676 80.7549 12.828 81.4749 13.036C82.1949 13.228 82.8589 13.468 83.4669 13.756C84.0749 14.044 84.5789 14.548 84.9789 15.268C85.3949 15.972 85.6029 16.844 85.6029 17.884C85.6029 18.924 85.3949 19.844 84.9789 20.644C84.5629 21.428 84.0189 22.036 83.3469 22.468C82.0509 23.316 80.6669 23.74 79.1949 23.74C78.4429 23.74 77.7309 23.652 77.0589 23.476C76.3869 23.284 75.8429 23.052 75.4269 22.78C74.5789 22.268 73.9869 21.772 73.6509 21.292L73.4349 21.028ZM86.8031 17.188C86.8031 15.268 87.4751 13.684 88.8191 12.436C90.1631 11.188 91.6991 10.564 93.4271 10.564C95.1551 10.564 96.6831 11.188 98.0111 12.436C99.3391 13.668 100.003 15.244 100.003 17.164C100.003 18.492 99.6591 19.676 98.9711 20.716C98.2831 21.74 97.4431 22.5 96.4511 22.996C95.4751 23.476 94.4591 23.716 93.4031 23.716C92.3471 23.716 91.3231 23.46 90.3311 22.948C89.3391 22.42 88.4991 21.652 87.8111 20.644C87.1391 19.62 86.8031 18.468 86.8031 17.188ZM91.8191 18.916C92.3311 19.3 92.8511 19.492 93.3791 19.492C93.9071 19.492 94.4351 19.292 94.9631 18.892C95.4911 18.492 95.7551 17.9 95.7551 17.116C95.7551 16.332 95.5071 15.748 95.0111 15.364C94.5151 14.98 93.9791 14.788 93.4031 14.788C92.8271 14.788 92.2911 14.988 91.7951 15.388C91.2991 15.788 91.0511 16.38 91.0511 17.164C91.0511 17.932 91.3071 18.516 91.8191 18.916ZM112.587 10.996C113.531 11.412 114.003 11.916 114.003 12.508C114.003 12.796 113.939 13.068 113.811 13.324C113.683 13.58 113.619 13.716 113.619 13.732L107.331 27.796C107.203 28.1 107.091 28.332 106.995 28.492C106.915 28.652 106.779 28.804 106.587 28.948C106.395 29.092 106.155 29.164 105.867 29.164C105.579 29.164 105.155 29.044 104.595 28.804C103.651 28.388 103.179 27.892 103.179 27.316C103.179 26.932 103.947 25.1 105.483 21.82L100.707 13.78C100.387 13.252 100.227 12.86 100.227 12.604C100.227 12.092 100.659 11.58 101.523 11.068C102.067 10.748 102.491 10.588 102.795 10.588C103.099 10.588 103.347 10.652 103.539 10.78C103.731 10.908 103.867 11.044 103.947 11.188C104.043 11.316 104.483 12.06 105.267 13.42C106.067 14.764 106.827 16.02 107.547 17.188C107.627 16.932 108.059 15.948 108.843 14.236C109.627 12.508 110.043 11.588 110.091 11.476C110.155 11.364 110.251 11.228 110.379 11.068C110.587 10.796 110.875 10.66 111.243 10.66C111.627 10.66 112.075 10.772 112.587 10.996ZM133.91 14.068C134.854 15.188 135.326 16.444 135.326 17.836C135.294 19.436 134.742 20.78 133.67 21.868C132.614 22.94 131.326 23.476 129.806 23.476H123.494C122.374 23.476 121.718 23.172 121.526 22.564C121.43 22.292 121.382 21.876 121.382 21.316V7.996C121.382 7.612 121.39 7.332 121.406 7.156C121.438 6.98 121.518 6.772 121.646 6.532C121.87 6.1 122.494 5.884 123.518 5.884H129.566C131.038 5.884 132.27 6.396 133.262 7.42C134.302 8.46 134.822 9.708 134.822 11.164C134.822 12.22 134.518 13.188 133.91 14.068ZM131.078 17.596C131.078 17.212 131.03 16.908 130.934 16.684C130.854 16.46 130.71 16.3 130.502 16.204C130.182 16.076 129.734 16.012 129.158 16.012C128.582 16.012 128.15 15.9 127.862 15.676C127.574 15.452 127.43 14.996 127.43 14.308C127.43 13.604 127.574 13.14 127.862 12.916C128.166 12.692 128.662 12.58 129.35 12.58C129.99 12.58 130.374 12.412 130.502 12.076C130.55 11.9 130.574 11.612 130.574 11.212C130.574 10.812 130.438 10.532 130.166 10.372C129.91 10.212 129.518 10.132 128.99 10.132H125.63V19.228H129.566C130.574 19.228 131.078 18.684 131.078 17.596ZM136.898 12.964C136.898 12.596 136.906 12.324 136.922 12.148C136.954 11.956 137.026 11.74 137.138 11.5C137.362 11.084 137.986 10.876 139.01 10.876C139.778 10.876 140.322 11.012 140.642 11.284C140.914 11.508 141.058 11.852 141.074 12.316C141.09 12.476 141.098 12.708 141.098 13.012V21.412C141.098 21.78 141.082 22.06 141.05 22.252C141.034 22.428 140.962 22.636 140.834 22.876C140.626 23.292 140.01 23.5 138.986 23.5C137.978 23.5 137.362 23.284 137.138 22.852C137.026 22.612 136.954 22.404 136.922 22.228C136.906 22.052 136.898 21.772 136.898 21.388V12.964ZM140.834 8.524C140.722 8.748 140.514 8.908 140.21 9.004C139.906 9.1 139.498 9.148 138.986 9.148C138.49 9.148 138.09 9.1 137.786 9.004C137.482 8.908 137.266 8.74 137.138 8.5C137.026 8.26 136.954 8.052 136.922 7.876C136.906 7.684 136.898 7.404 136.898 7.036C136.898 6.668 136.906 6.396 136.922 6.22C136.954 6.028 137.026 5.82 137.138 5.596C137.362 5.164 137.986 4.948 139.01 4.948C140.018 4.948 140.626 5.164 140.834 5.596C140.962 5.836 141.034 6.052 141.05 6.244C141.082 6.42 141.098 6.692 141.098 7.06C141.098 7.428 141.082 7.708 141.05 7.9C141.034 8.076 140.962 8.284 140.834 8.524ZM142.655 17.188C142.655 15.268 143.327 13.684 144.671 12.436C146.015 11.188 147.551 10.564 149.279 10.564C151.007 10.564 152.535 11.188 153.863 12.436C155.191 13.668 155.855 15.244 155.855 17.164C155.855 18.492 155.511 19.676 154.823 20.716C154.135 21.74 153.295 22.5 152.303 22.996C151.327 23.476 150.311 23.716 149.255 23.716C148.199 23.716 147.175 23.46 146.183 22.948C145.191 22.42 144.351 21.652 143.663 20.644C142.991 19.62 142.655 18.468 142.655 17.188ZM147.671 18.916C148.183 19.3 148.703 19.492 149.231 19.492C149.759 19.492 150.287 19.292 150.815 18.892C151.343 18.492 151.607 17.9 151.607 17.116C151.607 16.332 151.359 15.748 150.863 15.364C150.367 14.98 149.831 14.788 149.255 14.788C148.679 14.788 148.143 14.988 147.647 15.388C147.151 15.788 146.903 16.38 146.903 17.164C146.903 17.932 147.159 18.516 147.671 18.916Z" fill="white"/>
</svg>
